<?xml version="1.0" encoding="utf-8" standalone="no"?>
<!DOCTYPE svg PUBLIC "-//W3C//DTD SVG 1.1//EN"
  "http://www.w3.org/Graphics/SVG/1.1/DTD/svg11.dtd">
<svg xmlns:xlink="http://www.w3.org/1999/xlink" width="460.8pt" height="345.6pt" viewBox="0 0 460.8 345.6" xmlns="http://www.w3.org/2000/svg" version="1.1">
 <metadata>
  <rdf:RDF xmlns:dc="http://purl.org/dc/elements/1.1/" xmlns:cc="http://creativecommons.org/ns#" xmlns:rdf="http://www.w3.org/1999/02/22-rdf-syntax-ns#">
   <cc:Work>
    <dc:type rdf:resource="http://purl.org/dc/dcmitype/StillImage"/>
    <dc:date>2025-09-23T20:50:35.799143</dc:date>
    <dc:format>image/svg+xml</dc:format>
    <dc:creator>
     <cc:Agent>
      <dc:title>Matplotlib v3.8.4, https://matplotlib.org/</dc:title>
     </cc:Agent>
    </dc:creator>
   </cc:Work>
  </rdf:RDF>
 </metadata>
 <defs>
  <style type="text/css">*{stroke-linejoin: round; stroke-linecap: butt}</style>
 </defs>
 <g id="figure_1">
  <g id="patch_1">
   <path d="M 0 345.6 
L 460.8 345.6 
L 460.8 0 
L 0 0 
z
" style="fill: #ffffff"/>
  </g>
  <g id="axes_1">
   <g id="patch_2">
    <path d="M 54.29 297.16 
L 450 297.16 
L 450 10.8 
L 54.29 10.8 
z
" style="fill: #ffffff"/>
   </g>
   <g id="matplotlib.axis_1">
    <g id="xtick_1">
     <g id="line2d_1">
      <defs>
       <path id="ma01676b392" d="M 0 0 
L 0 3.5 
" style="stroke: #000000; stroke-width: 0.8"/>
      </defs>
      <g>
       <use xlink:href="#ma01676b392" x="70.478136" y="297.16" style="stroke: #000000; stroke-width: 0.8"/>
      </g>
     </g>
     <g id="text_1">
      <!-- 0 -->
      <g transform="translate(67.296886 311.758438) scale(0.1 -0.1)">
       <defs>
        <path id="DejaVuSans-30" d="M 2034 4250 
Q 1547 4250 1301 3770 
Q 1056 3291 1056 2328 
Q 1056 1369 1301 889 
Q 1547 409 2034 409 
Q 2525 409 2770 889 
Q 3016 1369 3016 2328 
Q 3016 3291 2770 3770 
Q 2525 4250 2034 4250 
z
M 2034 4750 
Q 2819 4750 3233 4129 
Q 3647 3509 3647 2328 
Q 3647 1150 3233 529 
Q 2819 -91 2034 -91 
Q 1250 -91 836 529 
Q 422 1150 422 2328 
Q 422 3509 836 4129 
Q 1250 4750 2034 4750 
z
" transform="scale(0.015625)"/>
       </defs>
       <use xlink:href="#DejaVuSans-30"/>
      </g>
     </g>
    </g>
    <g id="xtick_2">
     <g id="line2d_2">
      <g>
       <use xlink:href="#ma01676b392" x="115.445182" y="297.16" style="stroke: #000000; stroke-width: 0.8"/>
      </g>
     </g>
     <g id="text_2">
      <!-- 250 -->
      <g transform="translate(105.901432 311.758438) scale(0.1 -0.1)">
       <defs>
        <path id="DejaVuSans-32" d="M 1228 531 
L 3431 531 
L 3431 0 
L 469 0 
L 469 531 
Q 828 903 1448 1529 
Q 2069 2156 2228 2338 
Q 2531 2678 2651 2914 
Q 2772 3150 2772 3378 
Q 2772 3750 2511 3984 
Q 2250 4219 1831 4219 
Q 1534 4219 1204 4116 
Q 875 4013 500 3803 
L 500 4441 
Q 881 4594 1212 4672 
Q 1544 4750 1819 4750 
Q 2544 4750 2975 4387 
Q 3406 4025 3406 3419 
Q 3406 3131 3298 2873 
Q 3191 2616 2906 2266 
Q 2828 2175 2409 1742 
Q 1991 1309 1228 531 
z
" transform="scale(0.015625)"/>
        <path id="DejaVuSans-35" d="M 691 4666 
L 3169 4666 
L 3169 4134 
L 1269 4134 
L 1269 2991 
Q 1406 3038 1543 3061 
Q 1681 3084 1819 3084 
Q 2600 3084 3056 2656 
Q 3513 2228 3513 1497 
Q 3513 744 3044 326 
Q 2575 -91 1722 -91 
Q 1428 -91 1123 -41 
Q 819 9 494 109 
L 494 744 
Q 775 591 1075 516 
Q 1375 441 1709 441 
Q 2250 441 2565 725 
Q 2881 1009 2881 1497 
Q 2881 1984 2565 2268 
Q 2250 2553 1709 2553 
Q 1456 2553 1204 2497 
Q 953 2441 691 2322 
L 691 4666 
z
" transform="scale(0.015625)"/>
       </defs>
       <use xlink:href="#DejaVuSans-32"/>
       <use xlink:href="#DejaVuSans-35" x="63.623047"/>
       <use xlink:href="#DejaVuSans-30" x="127.246094"/>
      </g>
     </g>
    </g>
    <g id="xtick_3">
     <g id="line2d_3">
      <g>
       <use xlink:href="#ma01676b392" x="160.412227" y="297.16" style="stroke: #000000; stroke-width: 0.8"/>
      </g>
     </g>
     <g id="text_3">
      <!-- 500 -->
      <g transform="translate(150.868477 311.758438) scale(0.1 -0.1)">
       <use xlink:href="#DejaVuSans-35"/>
       <use xlink:href="#DejaVuSans-30" x="63.623047"/>
       <use xlink:href="#DejaVuSans-30" x="127.246094"/>
      </g>
     </g>
    </g>
    <g id="xtick_4">
     <g id="line2d_4">
      <g>
       <use xlink:href="#ma01676b392" x="205.379273" y="297.16" style="stroke: #000000; stroke-width: 0.8"/>
      </g>
     </g>
     <g id="text_4">
      <!-- 750 -->
      <g transform="translate(195.835523 311.758438) scale(0.1 -0.1)">
       <defs>
        <path id="DejaVuSans-37" d="M 525 4666 
L 3525 4666 
L 3525 4397 
L 1831 0 
L 1172 0 
L 2766 4134 
L 525 4134 
L 525 4666 
z
" transform="scale(0.015625)"/>
       </defs>
       <use xlink:href="#DejaVuSans-37"/>
       <use xlink:href="#DejaVuSans-35" x="63.623047"/>
       <use xlink:href="#DejaVuSans-30" x="127.246094"/>
      </g>
     </g>
    </g>
    <g id="xtick_5">
     <g id="line2d_5">
      <g>
       <use xlink:href="#ma01676b392" x="250.346318" y="297.16" style="stroke: #000000; stroke-width: 0.8"/>
      </g>
     </g>
     <g id="text_5">
      <!-- 1000 -->
      <g transform="translate(237.621318 311.758438) scale(0.1 -0.1)">
       <defs>
        <path id="DejaVuSans-31" d="M 794 531 
L 1825 531 
L 1825 4091 
L 703 3866 
L 703 4441 
L 1819 4666 
L 2450 4666 
L 2450 531 
L 3481 531 
L 3481 0 
L 794 0 
L 794 531 
z
" transform="scale(0.015625)"/>
       </defs>
       <use xlink:href="#DejaVuSans-31"/>
       <use xlink:href="#DejaVuSans-30" x="63.623047"/>
       <use xlink:href="#DejaVuSans-30" x="127.246094"/>
       <use xlink:href="#DejaVuSans-30" x="190.869141"/>
      </g>
     </g>
    </g>
    <g id="xtick_6">
     <g id="line2d_6">
      <g>
       <use xlink:href="#ma01676b392" x="295.313364" y="297.16" style="stroke: #000000; stroke-width: 0.8"/>
      </g>
     </g>
     <g id="text_6">
      <!-- 1250 -->
      <g transform="translate(282.588364 311.758438) scale(0.1 -0.1)">
       <use xlink:href="#DejaVuSans-31"/>
       <use xlink:href="#DejaVuSans-32" x="63.623047"/>
       <use xlink:href="#DejaVuSans-35" x="127.246094"/>
       <use xlink:href="#DejaVuSans-30" x="190.869141"/>
      </g>
     </g>
    </g>
    <g id="xtick_7">
     <g id="line2d_7">
      <g>
       <use xlink:href="#ma01676b392" x="340.280409" y="297.16" style="stroke: #000000; stroke-width: 0.8"/>
      </g>
     </g>
     <g id="text_7">
      <!-- 1500 -->
      <g transform="translate(327.555409 311.758438) scale(0.1 -0.1)">
       <use xlink:href="#DejaVuSans-31"/>
       <use xlink:href="#DejaVuSans-35" x="63.623047"/>
       <use xlink:href="#DejaVuSans-30" x="127.246094"/>
       <use xlink:href="#DejaVuSans-30" x="190.869141"/>
      </g>
     </g>
    </g>
    <g id="xtick_8">
     <g id="line2d_8">
      <g>
       <use xlink:href="#ma01676b392" x="385.247455" y="297.16" style="stroke: #000000; stroke-width: 0.8"/>
      </g>
     </g>
     <g id="text_8">
      <!-- 1750 -->
      <g transform="translate(372.522455 311.758438) scale(0.1 -0.1)">
       <use xlink:href="#DejaVuSans-31"/>
       <use xlink:href="#DejaVuSans-37" x="63.623047"/>
       <use xlink:href="#DejaVuSans-35" x="127.246094"/>
       <use xlink:href="#DejaVuSans-30" x="190.869141"/>
      </g>
     </g>
    </g>
    <g id="xtick_9">
     <g id="line2d_9">
      <g>
       <use xlink:href="#ma01676b392" x="430.2145" y="297.16" style="stroke: #000000; stroke-width: 0.8"/>
      </g>
     </g>
     <g id="text_9">
      <!-- 2000 -->
      <g transform="translate(417.4895 311.758438) scale(0.1 -0.1)">
       <use xlink:href="#DejaVuSans-32"/>
       <use xlink:href="#DejaVuSans-30" x="63.623047"/>
       <use xlink:href="#DejaVuSans-30" x="127.246094"/>
       <use xlink:href="#DejaVuSans-30" x="190.869141"/>
      </g>
     </g>
    </g>
    <g id="text_10">
     <!-- Communication Rounds -->
     <g transform="translate(157.06875 329.995625) scale(0.16 -0.16)">
      <defs>
       <path id="DejaVuSans-43" d="M 4122 4306 
L 4122 3641 
Q 3803 3938 3442 4084 
Q 3081 4231 2675 4231 
Q 1875 4231 1450 3742 
Q 1025 3253 1025 2328 
Q 1025 1406 1450 917 
Q 1875 428 2675 428 
Q 3081 428 3442 575 
Q 3803 722 4122 1019 
L 4122 359 
Q 3791 134 3420 21 
Q 3050 -91 2638 -91 
Q 1578 -91 968 557 
Q 359 1206 359 2328 
Q 359 3453 968 4101 
Q 1578 4750 2638 4750 
Q 3056 4750 3426 4639 
Q 3797 4528 4122 4306 
z
" transform="scale(0.015625)"/>
       <path id="DejaVuSans-6f" d="M 1959 3097 
Q 1497 3097 1228 2736 
Q 959 2375 959 1747 
Q 959 1119 1226 758 
Q 1494 397 1959 397 
Q 2419 397 2687 759 
Q 2956 1122 2956 1747 
Q 2956 2369 2687 2733 
Q 2419 3097 1959 3097 
z
M 1959 3584 
Q 2709 3584 3137 3096 
Q 3566 2609 3566 1747 
Q 3566 888 3137 398 
Q 2709 -91 1959 -91 
Q 1206 -91 779 398 
Q 353 888 353 1747 
Q 353 2609 779 3096 
Q 1206 3584 1959 3584 
z
" transform="scale(0.015625)"/>
       <path id="DejaVuSans-6d" d="M 3328 2828 
Q 3544 3216 3844 3400 
Q 4144 3584 4550 3584 
Q 5097 3584 5394 3201 
Q 5691 2819 5691 2113 
L 5691 0 
L 5113 0 
L 5113 2094 
Q 5113 2597 4934 2840 
Q 4756 3084 4391 3084 
Q 3944 3084 3684 2787 
Q 3425 2491 3425 1978 
L 3425 0 
L 2847 0 
L 2847 2094 
Q 2847 2600 2669 2842 
Q 2491 3084 2119 3084 
Q 1678 3084 1418 2786 
Q 1159 2488 1159 1978 
L 1159 0 
L 581 0 
L 581 3500 
L 1159 3500 
L 1159 2956 
Q 1356 3278 1631 3431 
Q 1906 3584 2284 3584 
Q 2666 3584 2933 3390 
Q 3200 3197 3328 2828 
z
" transform="scale(0.015625)"/>
       <path id="DejaVuSans-75" d="M 544 1381 
L 544 3500 
L 1119 3500 
L 1119 1403 
Q 1119 906 1312 657 
Q 1506 409 1894 409 
Q 2359 409 2629 706 
Q 2900 1003 2900 1516 
L 2900 3500 
L 3475 3500 
L 3475 0 
L 2900 0 
L 2900 538 
Q 2691 219 2414 64 
Q 2138 -91 1772 -91 
Q 1169 -91 856 284 
Q 544 659 544 1381 
z
M 1991 3584 
L 1991 3584 
z
" transform="scale(0.015625)"/>
       <path id="DejaVuSans-6e" d="M 3513 2113 
L 3513 0 
L 2938 0 
L 2938 2094 
Q 2938 2591 2744 2837 
Q 2550 3084 2163 3084 
Q 1697 3084 1428 2787 
Q 1159 2491 1159 1978 
L 1159 0 
L 581 0 
L 581 3500 
L 1159 3500 
L 1159 2956 
Q 1366 3272 1645 3428 
Q 1925 3584 2291 3584 
Q 2894 3584 3203 3211 
Q 3513 2838 3513 2113 
z
" transform="scale(0.015625)"/>
       <path id="DejaVuSans-69" d="M 603 3500 
L 1178 3500 
L 1178 0 
L 603 0 
L 603 3500 
z
M 603 4863 
L 1178 4863 
L 1178 4134 
L 603 4134 
L 603 4863 
z
" transform="scale(0.015625)"/>
       <path id="DejaVuSans-63" d="M 3122 3366 
L 3122 2828 
Q 2878 2963 2633 3030 
Q 2388 3097 2138 3097 
Q 1578 3097 1268 2742 
Q 959 2388 959 1747 
Q 959 1106 1268 751 
Q 1578 397 2138 397 
Q 2388 397 2633 464 
Q 2878 531 3122 666 
L 3122 134 
Q 2881 22 2623 -34 
Q 2366 -91 2075 -91 
Q 1284 -91 818 406 
Q 353 903 353 1747 
Q 353 2603 823 3093 
Q 1294 3584 2113 3584 
Q 2378 3584 2631 3529 
Q 2884 3475 3122 3366 
z
" transform="scale(0.015625)"/>
       <path id="DejaVuSans-61" d="M 2194 1759 
Q 1497 1759 1228 1600 
Q 959 1441 959 1056 
Q 959 750 1161 570 
Q 1363 391 1709 391 
Q 2188 391 2477 730 
Q 2766 1069 2766 1631 
L 2766 1759 
L 2194 1759 
z
M 3341 1997 
L 3341 0 
L 2766 0 
L 2766 531 
Q 2569 213 2275 61 
Q 1981 -91 1556 -91 
Q 1019 -91 701 211 
Q 384 513 384 1019 
Q 384 1609 779 1909 
Q 1175 2209 1959 2209 
L 2766 2209 
L 2766 2266 
Q 2766 2663 2505 2880 
Q 2244 3097 1772 3097 
Q 1472 3097 1187 3025 
Q 903 2953 641 2809 
L 641 3341 
Q 956 3463 1253 3523 
Q 1550 3584 1831 3584 
Q 2591 3584 2966 3190 
Q 3341 2797 3341 1997 
z
" transform="scale(0.015625)"/>
       <path id="DejaVuSans-74" d="M 1172 4494 
L 1172 3500 
L 2356 3500 
L 2356 3053 
L 1172 3053 
L 1172 1153 
Q 1172 725 1289 603 
Q 1406 481 1766 481 
L 2356 481 
L 2356 0 
L 1766 0 
Q 1100 0 847 248 
Q 594 497 594 1153 
L 594 3053 
L 172 3053 
L 172 3500 
L 594 3500 
L 594 4494 
L 1172 4494 
z
" transform="scale(0.015625)"/>
       <path id="DejaVuSans-20" transform="scale(0.015625)"/>
       <path id="DejaVuSans-52" d="M 2841 2188 
Q 3044 2119 3236 1894 
Q 3428 1669 3622 1275 
L 4263 0 
L 3584 0 
L 2988 1197 
Q 2756 1666 2539 1819 
Q 2322 1972 1947 1972 
L 1259 1972 
L 1259 0 
L 628 0 
L 628 4666 
L 2053 4666 
Q 2853 4666 3247 4331 
Q 3641 3997 3641 3322 
Q 3641 2881 3436 2590 
Q 3231 2300 2841 2188 
z
M 1259 4147 
L 1259 2491 
L 2053 2491 
Q 2509 2491 2742 2702 
Q 2975 2913 2975 3322 
Q 2975 3731 2742 3939 
Q 2509 4147 2053 4147 
L 1259 4147 
z
" transform="scale(0.015625)"/>
       <path id="DejaVuSans-64" d="M 2906 2969 
L 2906 4863 
L 3481 4863 
L 3481 0 
L 2906 0 
L 2906 525 
Q 2725 213 2448 61 
Q 2172 -91 1784 -91 
Q 1150 -91 751 415 
Q 353 922 353 1747 
Q 353 2572 751 3078 
Q 1150 3584 1784 3584 
Q 2172 3584 2448 3432 
Q 2725 3281 2906 2969 
z
M 947 1747 
Q 947 1113 1208 752 
Q 1469 391 1925 391 
Q 2381 391 2643 752 
Q 2906 1113 2906 1747 
Q 2906 2381 2643 2742 
Q 2381 3103 1925 3103 
Q 1469 3103 1208 2742 
Q 947 2381 947 1747 
z
" transform="scale(0.015625)"/>
       <path id="DejaVuSans-73" d="M 2834 3397 
L 2834 2853 
Q 2591 2978 2328 3040 
Q 2066 3103 1784 3103 
Q 1356 3103 1142 2972 
Q 928 2841 928 2578 
Q 928 2378 1081 2264 
Q 1234 2150 1697 2047 
L 1894 2003 
Q 2506 1872 2764 1633 
Q 3022 1394 3022 966 
Q 3022 478 2636 193 
Q 2250 -91 1575 -91 
Q 1294 -91 989 -36 
Q 684 19 347 128 
L 347 722 
Q 666 556 975 473 
Q 1284 391 1588 391 
Q 1994 391 2212 530 
Q 2431 669 2431 922 
Q 2431 1156 2273 1281 
Q 2116 1406 1581 1522 
L 1381 1569 
Q 847 1681 609 1914 
Q 372 2147 372 2553 
Q 372 3047 722 3315 
Q 1072 3584 1716 3584 
Q 2034 3584 2315 3537 
Q 2597 3491 2834 3397 
z
" transform="scale(0.015625)"/>
      </defs>
      <use xlink:href="#DejaVuSans-43"/>
      <use xlink:href="#DejaVuSans-6f" x="69.824219"/>
      <use xlink:href="#DejaVuSans-6d" x="131.005859"/>
      <use xlink:href="#DejaVuSans-6d" x="228.417969"/>
      <use xlink:href="#DejaVuSans-75" x="325.830078"/>
      <use xlink:href="#DejaVuSans-6e" x="389.208984"/>
      <use xlink:href="#DejaVuSans-69" x="452.587891"/>
      <use xlink:href="#DejaVuSans-63" x="480.371094"/>
      <use xlink:href="#DejaVuSans-61" x="535.351562"/>
      <use xlink:href="#DejaVuSans-74" x="596.630859"/>
      <use xlink:href="#DejaVuSans-69" x="635.839844"/>
      <use xlink:href="#DejaVuSans-6f" x="663.623047"/>
      <use xlink:href="#DejaVuSans-6e" x="724.804688"/>
      <use xlink:href="#DejaVuSans-20" x="788.183594"/>
      <use xlink:href="#DejaVuSans-52" x="819.970703"/>
      <use xlink:href="#DejaVuSans-6f" x="884.953125"/>
      <use xlink:href="#DejaVuSans-75" x="946.134766"/>
      <use xlink:href="#DejaVuSans-6e" x="1009.513672"/>
      <use xlink:href="#DejaVuSans-64" x="1072.892578"/>
      <use xlink:href="#DejaVuSans-73" x="1136.369141"/>
     </g>
    </g>
   </g>
   <g id="matplotlib.axis_2">
    <g id="ytick_1">
     <g id="line2d_10">
      <defs>
       <path id="m2818303ef5" d="M 0 0 
L -3.5 0 
" style="stroke: #000000; stroke-width: 0.8"/>
      </defs>
      <g>
       <use xlink:href="#m2818303ef5" x="54.29" y="283.008488" style="stroke: #000000; stroke-width: 0.8"/>
      </g>
     </g>
     <g id="text_11">
      <!-- 0.1 -->
      <g transform="translate(31.386875 286.807707) scale(0.1 -0.1)">
       <defs>
        <path id="DejaVuSans-2e" d="M 684 794 
L 1344 794 
L 1344 0 
L 684 0 
L 684 794 
z
" transform="scale(0.015625)"/>
       </defs>
       <use xlink:href="#DejaVuSans-30"/>
       <use xlink:href="#DejaVuSans-2e" x="63.623047"/>
       <use xlink:href="#DejaVuSans-31" x="95.410156"/>
      </g>
     </g>
    </g>
    <g id="ytick_2">
     <g id="line2d_11">
      <g>
       <use xlink:href="#m2818303ef5" x="54.29" y="242.647671" style="stroke: #000000; stroke-width: 0.8"/>
      </g>
     </g>
     <g id="text_12">
      <!-- 0.2 -->
      <g transform="translate(31.386875 246.44689) scale(0.1 -0.1)">
       <use xlink:href="#DejaVuSans-30"/>
       <use xlink:href="#DejaVuSans-2e" x="63.623047"/>
       <use xlink:href="#DejaVuSans-32" x="95.410156"/>
      </g>
     </g>
    </g>
    <g id="ytick_3">
     <g id="line2d_12">
      <g>
       <use xlink:href="#m2818303ef5" x="54.29" y="202.286853" style="stroke: #000000; stroke-width: 0.8"/>
      </g>
     </g>
     <g id="text_13">
      <!-- 0.3 -->
      <g transform="translate(31.386875 206.086072) scale(0.1 -0.1)">
       <defs>
        <path id="DejaVuSans-33" d="M 2597 2516 
Q 3050 2419 3304 2112 
Q 3559 1806 3559 1356 
Q 3559 666 3084 287 
Q 2609 -91 1734 -91 
Q 1441 -91 1130 -33 
Q 819 25 488 141 
L 488 750 
Q 750 597 1062 519 
Q 1375 441 1716 441 
Q 2309 441 2620 675 
Q 2931 909 2931 1356 
Q 2931 1769 2642 2001 
Q 2353 2234 1838 2234 
L 1294 2234 
L 1294 2753 
L 1863 2753 
Q 2328 2753 2575 2939 
Q 2822 3125 2822 3475 
Q 2822 3834 2567 4026 
Q 2313 4219 1838 4219 
Q 1578 4219 1281 4162 
Q 984 4106 628 3988 
L 628 4550 
Q 988 4650 1302 4700 
Q 1616 4750 1894 4750 
Q 2613 4750 3031 4423 
Q 3450 4097 3450 3541 
Q 3450 3153 3228 2886 
Q 3006 2619 2597 2516 
z
" transform="scale(0.015625)"/>
       </defs>
       <use xlink:href="#DejaVuSans-30"/>
       <use xlink:href="#DejaVuSans-2e" x="63.623047"/>
       <use xlink:href="#DejaVuSans-33" x="95.410156"/>
      </g>
     </g>
    </g>
    <g id="ytick_4">
     <g id="line2d_13">
      <g>
       <use xlink:href="#m2818303ef5" x="54.29" y="161.926036" style="stroke: #000000; stroke-width: 0.8"/>
      </g>
     </g>
     <g id="text_14">
      <!-- 0.4 -->
      <g transform="translate(31.386875 165.725255) scale(0.1 -0.1)">
       <defs>
        <path id="DejaVuSans-34" d="M 2419 4116 
L 825 1625 
L 2419 1625 
L 2419 4116 
z
M 2253 4666 
L 3047 4666 
L 3047 1625 
L 3713 1625 
L 3713 1100 
L 3047 1100 
L 3047 0 
L 2419 0 
L 2419 1100 
L 313 1100 
L 313 1709 
L 2253 4666 
z
" transform="scale(0.015625)"/>
       </defs>
       <use xlink:href="#DejaVuSans-30"/>
       <use xlink:href="#DejaVuSans-2e" x="63.623047"/>
       <use xlink:href="#DejaVuSans-34" x="95.410156"/>
      </g>
     </g>
    </g>
    <g id="ytick_5">
     <g id="line2d_14">
      <g>
       <use xlink:href="#m2818303ef5" x="54.29" y="121.565218" style="stroke: #000000; stroke-width: 0.8"/>
      </g>
     </g>
     <g id="text_15">
      <!-- 0.5 -->
      <g transform="translate(31.386875 125.364437) scale(0.1 -0.1)">
       <use xlink:href="#DejaVuSans-30"/>
       <use xlink:href="#DejaVuSans-2e" x="63.623047"/>
       <use xlink:href="#DejaVuSans-35" x="95.410156"/>
      </g>
     </g>
    </g>
    <g id="ytick_6">
     <g id="line2d_15">
      <g>
       <use xlink:href="#m2818303ef5" x="54.29" y="81.204401" style="stroke: #000000; stroke-width: 0.8"/>
      </g>
     </g>
     <g id="text_16">
      <!-- 0.6 -->
      <g transform="translate(31.386875 85.00362) scale(0.1 -0.1)">
       <defs>
        <path id="DejaVuSans-36" d="M 2113 2584 
Q 1688 2584 1439 2293 
Q 1191 2003 1191 1497 
Q 1191 994 1439 701 
Q 1688 409 2113 409 
Q 2538 409 2786 701 
Q 3034 994 3034 1497 
Q 3034 2003 2786 2293 
Q 2538 2584 2113 2584 
z
M 3366 4563 
L 3366 3988 
Q 3128 4100 2886 4159 
Q 2644 4219 2406 4219 
Q 1781 4219 1451 3797 
Q 1122 3375 1075 2522 
Q 1259 2794 1537 2939 
Q 1816 3084 2150 3084 
Q 2853 3084 3261 2657 
Q 3669 2231 3669 1497 
Q 3669 778 3244 343 
Q 2819 -91 2113 -91 
Q 1303 -91 875 529 
Q 447 1150 447 2328 
Q 447 3434 972 4092 
Q 1497 4750 2381 4750 
Q 2619 4750 2861 4703 
Q 3103 4656 3366 4563 
z
" transform="scale(0.015625)"/>
       </defs>
       <use xlink:href="#DejaVuSans-30"/>
       <use xlink:href="#DejaVuSans-2e" x="63.623047"/>
       <use xlink:href="#DejaVuSans-36" x="95.410156"/>
      </g>
     </g>
    </g>
    <g id="ytick_7">
     <g id="line2d_16">
      <g>
       <use xlink:href="#m2818303ef5" x="54.29" y="40.843584" style="stroke: #000000; stroke-width: 0.8"/>
      </g>
     </g>
     <g id="text_17">
      <!-- 0.7 -->
      <g transform="translate(31.386875 44.642802) scale(0.1 -0.1)">
       <use xlink:href="#DejaVuSans-30"/>
       <use xlink:href="#DejaVuSans-2e" x="63.623047"/>
       <use xlink:href="#DejaVuSans-37" x="95.410156"/>
      </g>
     </g>
    </g>
    <g id="text_18">
     <!-- Train Accuracy -->
     <g transform="translate(24.059375 212.2375) rotate(-90) scale(0.16 -0.16)">
      <defs>
       <path id="DejaVuSans-54" d="M -19 4666 
L 3928 4666 
L 3928 4134 
L 2272 4134 
L 2272 0 
L 1638 0 
L 1638 4134 
L -19 4134 
L -19 4666 
z
" transform="scale(0.015625)"/>
       <path id="DejaVuSans-72" d="M 2631 2963 
Q 2534 3019 2420 3045 
Q 2306 3072 2169 3072 
Q 1681 3072 1420 2755 
Q 1159 2438 1159 1844 
L 1159 0 
L 581 0 
L 581 3500 
L 1159 3500 
L 1159 2956 
Q 1341 3275 1631 3429 
Q 1922 3584 2338 3584 
Q 2397 3584 2469 3576 
Q 2541 3569 2628 3553 
L 2631 2963 
z
" transform="scale(0.015625)"/>
       <path id="DejaVuSans-41" d="M 2188 4044 
L 1331 1722 
L 3047 1722 
L 2188 4044 
z
M 1831 4666 
L 2547 4666 
L 4325 0 
L 3669 0 
L 3244 1197 
L 1141 1197 
L 716 0 
L 50 0 
L 1831 4666 
z
" transform="scale(0.015625)"/>
       <path id="DejaVuSans-79" d="M 2059 -325 
Q 1816 -950 1584 -1140 
Q 1353 -1331 966 -1331 
L 506 -1331 
L 506 -850 
L 844 -850 
Q 1081 -850 1212 -737 
Q 1344 -625 1503 -206 
L 1606 56 
L 191 3500 
L 800 3500 
L 1894 763 
L 2988 3500 
L 3597 3500 
L 2059 -325 
z
" transform="scale(0.015625)"/>
      </defs>
      <use xlink:href="#DejaVuSans-54"/>
      <use xlink:href="#DejaVuSans-72" x="46.333984"/>
      <use xlink:href="#DejaVuSans-61" x="87.447266"/>
      <use xlink:href="#DejaVuSans-69" x="148.726562"/>
      <use xlink:href="#DejaVuSans-6e" x="176.509766"/>
      <use xlink:href="#DejaVuSans-20" x="239.888672"/>
      <use xlink:href="#DejaVuSans-41" x="271.675781"/>
      <use xlink:href="#DejaVuSans-63" x="338.333984"/>
      <use xlink:href="#DejaVuSans-63" x="393.314453"/>
      <use xlink:href="#DejaVuSans-75" x="448.294922"/>
      <use xlink:href="#DejaVuSans-72" x="511.673828"/>
      <use xlink:href="#DejaVuSans-61" x="552.787109"/>
      <use xlink:href="#DejaVuSans-63" x="614.066406"/>
      <use xlink:href="#DejaVuSans-79" x="669.046875"/>
     </g>
    </g>
   </g>
   <g id="line2d_17">
    <path d="M 72.456686 251.075285 
L 74.435236 235.366671 
L 76.413786 237.315915 
L 78.392336 232.442805 
L 80.370886 231.926829 
L 82.349436 230.837545 
L 84.327986 232.442805 
L 86.306536 212.090404 
L 88.285086 226.30842 
L 90.263636 225.735112 
L 92.242186 206.987971 
L 94.220736 214.784947 
L 96.199286 219.199412 
L 98.177836 214.95694 
L 100.156386 225.047144 
L 102.134936 212.54905 
L 104.113486 218.970089 
L 106.092036 213.409011 
L 108.070586 209.682515 
L 110.049136 217.823475 
L 112.027686 206.758649 
L 114.006236 217.880806 
L 115.984786 203.548129 
L 117.963336 205.038727 
L 119.941886 203.60546 
L 121.920436 205.382712 
L 123.898986 214.326302 
L 125.877536 198.503027 
L 127.856086 195.292507 
L 129.834636 198.904342 
L 131.813186 197.012428 
L 133.791736 207.790601 
L 135.770286 198.273704 
L 137.748836 205.497373 
L 139.727386 196.381791 
L 141.705936 185.603618 
L 143.684486 208.822554 
L 145.663036 185.947602 
L 147.641586 189.960751 
L 149.620136 185.488956 
L 151.598686 189.330114 
L 153.577236 195.579161 
L 155.555786 181.991783 
L 157.534336 189.559437 
L 159.512886 201.713546 
L 161.491436 194.547208 
L 163.469986 177.004012 
L 165.448536 185.202303 
L 167.427086 206.987971 
L 169.405636 180.9025 
L 171.384186 171.786917 
L 173.362736 177.749311 
L 175.341286 178.207957 
L 177.319836 196.037806 
L 179.298386 178.265287 
L 181.276936 182.335768 
L 183.255486 172.532217 
L 185.234036 171.270941 
L 187.212586 174.653453 
L 189.191136 192.884618 
L 191.169686 192.139318 
L 193.148236 169.379028 
L 195.126786 173.965484 
L 197.105336 175.054768 
L 199.083886 176.602697 
L 201.062436 165.824524 
L 203.040986 174.194807 
L 205.019536 177.347996 
L 206.998086 189.674098 
L 208.976636 176.83202 
L 210.955186 179.125248 
L 212.933736 162.499343 
L 214.912286 162.155359 
L 216.890836 166.111178 
L 218.869386 162.671335 
L 220.847936 166.053847 
L 222.826486 152.867784 
L 224.805036 185.603618 
L 226.783586 171.729587 
L 228.762136 160.148784 
L 230.740686 172.704209 
L 232.719236 164.563248 
L 234.697786 164.620579 
L 236.676336 158.314201 
L 238.654886 153.039776 
L 240.633436 153.154438 
L 242.611986 171.786917 
L 244.590536 166.741815 
L 246.569086 159.231493 
L 248.547636 175.742736 
L 250.526186 158.600855 
L 252.504736 151.606509 
L 254.483286 149.141288 
L 256.461836 177.405327 
L 258.440386 152.409139 
L 260.418936 158.600855 
L 262.397486 168.003091 
L 264.376036 161.983367 
L 266.354586 172.302894 
L 268.333136 152.638461 
L 270.311686 171.844248 
L 272.290236 149.026627 
L 274.268786 177.69198 
L 278.225886 156.135635 
L 280.204436 150.689217 
L 282.182986 150.459895 
L 284.161536 143.121564 
L 286.140086 157.052926 
L 288.118636 149.542603 
L 290.097186 144.612163 
L 292.075736 158.314201 
L 294.054286 144.554832 
L 296.032836 177.347996 
L 298.011386 159.575477 
L 299.989936 163.531296 
L 301.968486 164.849902 
L 303.947036 172.245563 
L 305.925586 151.377186 
L 307.904136 149.026627 
L 309.882686 147.65069 
L 311.861236 156.938264 
L 313.839786 162.843327 
L 315.818336 154.530375 
L 317.796886 155.73432 
L 319.775436 142.949572 
L 321.753986 142.662919 
L 323.732536 158.19954 
L 325.711086 143.637541 
L 327.689636 131.082116 
L 329.668186 156.135635 
L 331.646736 143.006903 
L 333.625286 141.000328 
L 335.603836 146.04543 
L 337.582386 149.25595 
L 339.560936 179.985209 
L 341.539486 165.767193 
L 343.518036 157.339579 
L 345.496586 139.624391 
L 347.475136 140.36969 
L 349.453686 155.963642 
L 351.432236 139.739052 
L 353.410786 159.575477 
L 355.389336 141.516304 
L 357.367886 155.103682 
L 359.346436 138.191123 
L 361.324986 165.079225 
L 363.303536 141.917619 
L 365.282086 140.427021 
L 367.260636 133.719328 
L 369.239186 138.420446 
L 371.217736 167.659107 
L 373.196286 141.802958 
L 375.174836 137.388493 
L 377.153386 144.325509 
L 379.131936 152.5238 
L 381.110486 149.771926 
L 383.089036 143.694871 
L 385.067586 157.626233 
L 387.046136 148.854635 
L 389.024686 164.505918 
L 391.003236 140.771005 
L 392.981786 132.630045 
L 394.960336 140.713674 
L 396.938886 167.257792 
L 398.917436 183.081067 
L 400.895986 142.089611 
L 402.874536 152.351808 
L 404.853086 141.286982 
L 406.831636 165.365878 
L 408.810186 154.587705 
L 410.788736 134.235305 
L 412.767286 131.598092 
L 414.745836 136.471202 
L 416.724386 138.936423 
L 418.702936 140.025706 
L 420.681486 146.446745 
L 422.660036 141.114989 
L 422.660036 141.114989 
" clip-path="url(#pfe9ad484de)" style="fill: none; stroke: #000000; stroke-width: 1.5; stroke-linecap: square"/>
   </g>
   <g id="line2d_18">
    <path d="M 72.276818 284.143636 
L 74.0755 264.089355 
L 75.874182 230.476362 
L 79.471545 199.38592 
L 81.270227 188.917333 
L 83.068909 185.448825 
L 84.867591 179.773085 
L 86.666273 171.890113 
L 88.464955 170.061263 
L 90.263636 159.277357 
L 93.861 151.898895 
L 95.659682 147.610558 
L 97.458364 143.006903 
L 99.257045 141.493372 
L 101.055727 140.925798 
L 102.854409 132.286061 
L 104.653091 136.069887 
L 106.451773 129.889637 
L 108.250455 126.92564 
L 110.049136 128.123851 
L 111.847818 121.75441 
L 113.6465 120.240879 
L 115.445182 113.619183 
L 117.243864 115.952542 
L 119.042545 113.429991 
L 120.841227 108.258761 
L 122.639909 108.195698 
L 124.438591 102.89834 
L 126.237273 101.826256 
L 128.035955 99.55596 
L 129.834636 94.510858 
L 131.633318 92.303626 
L 133.432 93.627965 
L 135.230682 91.736052 
L 137.029364 95.961325 
L 138.828045 91.04235 
L 140.626727 85.303547 
L 142.425409 86.564822 
L 144.224091 87.510779 
L 146.022773 84.168399 
L 147.821455 82.402613 
L 151.418818 81.456656 
L 153.2175 83.033251 
L 155.016182 81.771975 
L 156.814864 80.069253 
L 158.613545 79.564743 
L 160.412227 73.636748 
L 162.210909 70.042112 
L 164.009591 75.717852 
L 165.808273 77.294447 
L 167.606955 75.213342 
L 169.405636 71.429516 
L 171.204318 66.573605 
L 173.003 69.66373 
L 174.801682 68.024072 
L 176.600364 64.933946 
L 178.399045 66.510541 
L 180.197727 65.753776 
L 181.996409 67.456498 
L 183.795091 59.132079 
L 185.593773 58.501441 
L 187.392455 64.744755 
L 189.191136 58.942888 
L 190.989818 56.546464 
L 194.587182 56.105018 
L 196.385864 60.708673 
L 198.184545 58.753696 
L 199.983227 57.80774 
L 201.781909 56.987911 
L 203.580591 55.789699 
L 205.379273 53.897785 
L 207.177955 54.591487 
L 208.976636 53.64553 
L 210.775318 51.375234 
L 212.574 58.249186 
L 214.372682 54.780678 
L 216.171364 60.078036 
L 217.970045 58.690632 
L 219.768727 52.888765 
L 221.567409 45.888686 
L 223.366091 54.717615 
L 225.164773 47.96979 
L 226.963455 43.933709 
L 228.762136 53.834722 
L 230.560818 49.735576 
L 232.3595 49.168002 
L 234.158182 48.852683 
L 235.956864 44.564346 
L 237.755545 48.411237 
L 239.554227 50.429278 
L 241.352909 43.176943 
L 243.151591 52.068936 
L 244.950273 44.1229 
L 246.748955 46.014813 
L 248.547636 43.492262 
L 250.346318 48.285109 
L 252.145 45.384175 
L 253.943682 39.645372 
L 255.742364 44.942729 
L 257.541045 41.600349 
L 259.339727 44.059836 
L 261.138409 40.717456 
L 262.937091 44.375155 
L 264.735773 42.735497 
L 266.534455 41.474221 
L 268.333136 39.645372 
L 270.131818 45.384175 
L 271.9305 42.609369 
L 273.729182 44.438219 
L 275.527864 38.005714 
L 277.326545 38.573288 
L 279.125227 40.717456 
L 280.923909 42.29405 
L 282.722591 39.708436 
L 284.521273 40.654392 
L 286.319955 40.023754 
L 288.118636 40.906647 
L 289.917318 39.45618 
L 291.716 38.825543 
L 293.514682 42.104859 
L 295.313364 37.879586 
L 297.112045 38.194905 
L 298.910727 37.816522 
L 300.709409 45.447239 
L 302.508091 38.068777 
L 304.306773 36.050736 
L 306.105455 34.852525 
L 307.904136 36.239928 
L 309.702818 35.420099 
L 311.5015 36.681374 
L 313.300182 38.762479 
L 315.098864 33.023675 
L 316.897545 31.510144 
L 318.696227 36.555247 
L 320.494909 37.248948 
L 322.293591 36.302992 
L 324.092273 27.978573 
L 325.890955 33.023675 
L 327.689636 34.852525 
L 329.488318 32.014655 
L 331.287 34.221887 
L 334.884364 27.221808 
L 336.683045 33.149803 
L 338.481727 35.483162 
L 340.280409 33.402058 
L 342.079091 35.293971 
L 343.877773 33.338994 
L 345.676455 34.348014 
L 347.475136 36.61831 
L 349.273818 31.510144 
L 351.0725 32.26691 
L 352.871182 34.60027 
L 354.669864 32.329974 
L 356.468545 31.257889 
L 358.267227 36.302992 
L 360.065909 31.068698 
L 361.864591 31.005634 
L 363.663273 27.978573 
L 365.461955 30.627252 
L 367.260636 33.843504 
L 369.059318 30.879507 
L 370.858 31.320953 
L 372.656682 29.050657 
L 374.455364 26.969553 
L 376.254045 29.050657 
L 378.052727 33.27593 
L 379.851409 30.43806 
L 381.650091 30.248869 
L 383.448773 24.825384 
L 385.247455 30.43806 
L 387.046136 29.050657 
L 388.844818 33.149803 
L 390.6435 33.212866 
L 392.442182 31.194826 
L 394.240864 28.861466 
L 396.039545 30.564188 
L 397.838227 26.401979 
L 399.636909 24.383938 
L 401.435591 27.537126 
L 403.234273 24.068619 
L 405.032955 28.230828 
L 406.831636 34.537206 
L 408.630318 24.383938 
L 410.429 29.492104 
L 412.227682 25.519086 
L 414.026364 28.041637 
L 415.825045 27.284871 
L 417.623727 26.401979 
L 419.422409 23.816364 
L 421.221091 27.474063 
L 424.818455 27.221808 
L 426.617136 29.555167 
L 428.415818 31.636272 
L 430.2145 30.879507 
L 432.013182 25.456022 
L 432.013182 25.456022 
" clip-path="url(#pfe9ad484de)" style="fill: none; stroke: #ff0000; stroke-width: 1.5; stroke-linecap: square"/>
   </g>
   <g id="line2d_19">
    <path d="M 72.276818 279.425319 
L 74.0755 279.717706 
L 75.874182 277.080493 
L 77.672864 267.781453 
L 79.471545 259.41117 
L 81.270227 251.740321 
L 83.068909 250.329986 
L 84.867591 247.022004 
L 86.666273 246.804147 
L 88.464955 245.330748 
L 90.263636 241.71318 
L 92.062318 238.66892 
L 93.861 236.943266 
L 97.458364 227.993942 
L 99.257045 224.817821 
L 101.055727 221.314915 
L 104.653091 215.902896 
L 106.451773 213.6326 
L 108.250455 210.691535 
L 110.049136 210.359017 
L 111.847818 207.612876 
L 113.6465 207.165697 
L 115.445182 204.952731 
L 117.243864 204.729142 
L 119.042545 203.324539 
L 120.841227 202.338451 
L 124.438591 199.672573 
L 126.237273 196.570982 
L 128.035955 194.266288 
L 129.834636 193.584052 
L 131.633318 194.06563 
L 133.432 191.508681 
L 135.230682 190.327668 
L 137.029364 187.977109 
L 138.828045 186.950889 
L 140.626727 186.572507 
L 142.425409 185.873072 
L 144.224091 184.193282 
L 146.022773 183.87223 
L 149.620136 182.192441 
L 151.418818 181.716596 
L 155.016182 179.067917 
L 156.814864 176.975346 
L 158.613545 177.623183 
L 160.412227 177.760777 
L 162.210909 175.972059 
L 164.009591 175.00317 
L 165.808273 175.026102 
L 167.606955 173.151388 
L 169.405636 172.021973 
L 171.204318 173.271783 
L 173.003 170.227522 
L 174.801682 170.749232 
L 176.600364 171.804117 
L 178.399045 169.02931 
L 180.197727 167.538712 
L 181.996409 168.02029 
L 183.795091 166.867943 
L 185.593773 165.291348 
L 187.392455 166.472361 
L 189.191136 164.568982 
L 190.989818 164.609113 
L 192.7885 163.244642 
L 194.587182 164.139001 
L 196.385864 162.155359 
L 198.184545 162.075096 
L 199.983227 161.874438 
L 201.781909 161.427259 
L 203.580591 161.163538 
L 205.379273 160.676227 
L 207.177955 159.420684 
L 208.976636 158.560723 
L 210.775318 159.455082 
L 212.574 158.635253 
L 214.372682 157.018527 
L 216.171364 157.236384 
L 217.970045 155.757252 
L 219.768727 156.192965 
L 221.567409 155.367403 
L 223.366091 153.842406 
L 225.164773 153.595884 
L 226.963455 154.037331 
L 228.762136 153.62455 
L 230.560818 153.928402 
L 232.3595 152.890717 
L 234.158182 151.468915 
L 235.956864 150.626154 
L 237.755545 152.116752 
L 239.554227 151.262525 
L 241.352909 151.073333 
L 243.151591 150.161775 
L 244.950273 151.176528 
L 246.748955 149.674464 
L 248.547636 149.10689 
L 250.346318 147.977475 
L 252.145 148.476252 
L 253.943682 147.828415 
L 255.742364 147.364036 
L 257.541045 146.022498 
L 259.339727 146.051163 
L 261.138409 147.22071 
L 262.937091 146.56714 
L 264.735773 145.214135 
L 266.534455 146.022498 
L 268.333136 145.162537 
L 270.131818 144.45737 
L 271.9305 142.714516 
L 273.729182 143.064233 
L 275.527864 143.924194 
L 277.326545 143.528612 
L 279.125227 142.70305 
L 280.923909 142.066679 
L 282.722591 140.587547 
L 284.521273 141.384444 
L 286.319955 141.372978 
L 288.118636 140.289427 
L 289.917318 141.54497 
L 291.716 139.291873 
L 293.514682 141.114989 
L 295.313364 140.060104 
L 297.112045 139.383602 
L 298.910727 137.600617 
L 300.709409 138.959355 
L 302.508091 138.357382 
L 306.105455 138.133793 
L 307.904136 136.476935 
L 309.702818 137.566219 
L 311.5015 137.130505 
L 313.300182 135.714437 
L 316.897545 134.54489 
L 318.696227 136.889716 
L 320.494909 134.84301 
L 322.293591 135.307389 
L 324.092273 135.576843 
L 325.890955 134.802879 
L 327.689636 134.659552 
L 329.488318 133.988783 
L 331.287 131.987941 
L 333.085682 132.366324 
L 334.884364 134.493293 
L 336.683045 133.31228 
L 338.481727 131.787283 
L 340.280409 131.27704 
L 342.079091 131.059183 
L 343.877773 131.747152 
L 345.676455 131.810216 
L 347.475136 131.661156 
L 349.273818 130.663602 
L 351.0725 131.059183 
L 352.871182 130.600538 
L 354.669864 129.585784 
L 356.468545 130.302418 
L 358.267227 128.937947 
L 360.065909 128.777421 
L 361.864591 129.213135 
L 363.663273 128.731557 
L 365.461955 127.424417 
L 367.260636 125.82489 
L 370.858 128.284377 
L 372.656682 126.644719 
L 374.455364 128.037855 
L 376.254045 126.696317 
L 378.052727 126.891241 
L 379.851409 126.415396 
L 381.650091 128.089453 
L 383.448773 125.131188 
L 385.247455 125.842089 
L 387.046136 126.679117 
L 388.844818 125.46944 
L 390.6435 124.758539 
L 392.442182 124.231096 
L 394.240864 124.322825 
L 396.039545 122.792096 
L 397.838227 124.489085 
L 399.636909 122.878092 
L 401.435591 122.161458 
L 403.234273 123.841248 
L 405.032955 122.83796 
L 406.831636 123.600459 
L 408.630318 120.95178 
L 410.429 122.230255 
L 412.227682 121.020577 
L 414.026364 122.637303 
L 415.825045 121.995199 
L 417.623727 120.349807 
L 419.422409 120.819919 
L 421.221091 119.787967 
L 423.019773 121.049242 
L 424.818455 121.043509 
L 426.617136 120.292477 
L 428.415818 119.409584 
L 430.2145 119.392385 
L 432.013182 118.84201 
L 432.013182 118.84201 
" clip-path="url(#pfe9ad484de)" style="fill: none; stroke: #ffa500; stroke-width: 1.5; stroke-linecap: square"/>
   </g>
   <g id="line2d_20">
    <path d="M 72.276818 280.927384 
L 74.0755 278.972407 
L 75.874182 272.413774 
L 77.672864 267.747054 
L 79.471545 268.629947 
L 81.270227 264.152419 
L 83.068909 263.395654 
L 84.867591 257.909105 
L 86.666273 257.909105 
L 90.263636 247.629709 
L 92.062318 244.791839 
L 93.861 244.224265 
L 95.659682 240.944949 
L 97.458364 238.485462 
L 99.257045 235.143081 
L 101.055727 233.061977 
L 102.854409 232.557467 
L 104.653091 225.93577 
L 108.250455 215.971693 
L 110.049136 213.890588 
L 111.847818 215.214928 
L 113.6465 208.593231 
L 115.445182 210.485144 
L 117.243864 206.827445 
L 119.042545 205.250851 
L 120.841227 202.476045 
L 122.639909 200.268813 
L 124.438591 202.286853 
L 128.035955 199.259792 
L 129.834636 200.331876 
L 131.633318 197.998517 
L 135.230682 195.097583 
L 137.029364 190.935374 
L 138.828045 193.079542 
L 140.626727 195.665157 
L 142.425409 188.03444 
L 144.224091 189.800226 
L 146.022773 185.448825 
L 147.821455 183.746103 
L 149.620136 188.791205 
L 151.418818 183.178529 
L 153.2175 180.782105 
L 155.016182 181.980317 
L 156.814864 180.403723 
L 158.613545 184.69206 
L 160.412227 182.800146 
L 162.210909 179.836149 
L 164.009591 175.106365 
L 165.808273 178.448746 
L 167.606955 175.295557 
L 169.405636 177.18747 
L 171.204318 173.151388 
L 173.003 172.268495 
L 174.801682 172.268495 
L 176.600364 165.457607 
L 178.399045 169.619817 
L 180.197727 172.457687 
L 181.996409 165.205352 
L 183.795091 170.565773 
L 185.593773 166.908074 
L 187.392455 166.151309 
L 189.191136 169.809008 
L 190.989818 164.700842 
L 192.7885 164.322459 
L 194.587182 167.160329 
L 196.385864 165.772926 
L 198.184545 163.881013 
L 199.983227 162.49361 
L 201.781909 163.944077 
L 203.580591 158.079146 
L 205.379273 162.430546 
L 207.177955 168.863051 
L 208.976636 163.061184 
L 210.775318 158.772847 
L 212.574 161.799908 
L 214.372682 156.880934 
L 216.171364 157.637699 
L 217.970045 160.980079 
L 219.768727 155.871913 
L 221.567409 153.412426 
L 223.366091 157.448508 
L 225.164773 150.889875 
L 226.963455 153.034043 
L 228.762136 151.772768 
L 230.560818 153.916936 
L 232.3595 154.736765 
L 234.158182 154.862893 
L 235.956864 151.64664 
L 237.755545 143.574477 
L 239.554227 147.29524 
L 241.352909 149.817791 
L 243.151591 151.709704 
L 244.950273 146.916857 
L 246.748955 143.826732 
L 248.547636 149.817791 
L 250.346318 151.14213 
L 252.145 150.574556 
L 253.943682 150.196173 
L 255.742364 145.907837 
L 257.541045 145.277199 
L 259.339727 151.14213 
L 261.138409 144.205115 
L 262.937091 144.45737 
L 264.735773 140.042905 
L 266.534455 141.682563 
L 268.333136 145.214135 
L 270.131818 142.439329 
L 271.9305 143.322222 
L 273.729182 143.574477 
L 275.527864 144.772689 
L 277.326545 147.421367 
L 279.125227 144.268178 
L 280.923909 137.583418 
L 282.722591 141.808691 
L 284.521273 140.736607 
L 286.319955 137.205035 
L 288.118636 137.709545 
L 289.917318 138.592438 
L 291.716 140.673543 
L 293.514682 138.78163 
L 295.313364 136.511334 
L 297.112045 140.421288 
L 298.910727 135.691505 
L 300.709409 136.322142 
L 302.508091 138.340183 
L 304.306773 137.961801 
L 306.105455 135.376186 
L 307.904136 133.862655 
L 309.702818 138.214056 
L 311.5015 129.952701 
L 313.300182 139.096949 
L 315.098864 135.502313 
L 316.897545 134.682484 
L 318.696227 136.196015 
L 320.494909 134.934739 
L 322.293591 135.880696 
L 324.092273 130.709466 
L 325.890955 132.222997 
L 327.689636 131.844614 
L 329.488318 136.006823 
L 331.287 132.601379 
L 333.085682 134.430229 
L 334.884364 132.033805 
L 336.683045 130.015765 
L 338.481727 132.159933 
L 340.280409 131.213976 
L 342.079091 127.871596 
L 343.877773 132.222997 
L 345.676455 126.547257 
L 347.475136 128.249979 
L 349.273818 131.466232 
L 351.0725 128.565298 
L 352.871182 129.448191 
L 354.669864 129.826573 
L 356.468545 122.889558 
L 358.267227 126.168874 
L 360.065909 128.123851 
L 361.864591 122.637303 
L 363.663273 127.240958 
L 365.461955 126.799512 
L 367.260636 132.916698 
L 369.059318 127.177895 
L 370.858 127.177895 
L 372.656682 128.880617 
L 374.455364 124.907599 
L 376.254045 125.159854 
L 378.052727 121.060708 
L 379.851409 121.691346 
L 381.650091 123.772451 
L 383.448773 123.331004 
L 385.247455 126.10581 
L 387.046136 122.76343 
L 388.844818 121.565218 
L 390.6435 124.276961 
L 392.442182 123.015685 
L 394.240864 118.159774 
L 396.039545 117.781392 
L 397.838227 121.312963 
L 399.636909 122.952622 
L 401.435591 122.448111 
L 403.234273 120.240879 
L 405.032955 122.448111 
L 406.831636 121.376027 
L 408.630318 118.222838 
L 410.429 117.403009 
L 412.227682 120.303943 
L 414.026364 121.565218 
L 417.623727 117.781392 
L 419.422409 117.529137 
L 421.221091 117.466073 
L 423.019773 119.357986 
L 424.818455 116.961563 
L 426.617136 117.844456 
L 428.415818 114.502075 
L 430.2145 112.988545 
L 432.013182 119.673305 
L 432.013182 119.673305 
" clip-path="url(#pfe9ad484de)" style="fill: none; stroke: #0000ff; stroke-width: 1.5; stroke-linecap: square"/>
   </g>
   <g id="patch_3">
    <path d="M 54.29 297.16 
L 54.29 10.8 
" style="fill: none; stroke: #000000; stroke-width: 0.8; stroke-linejoin: miter; stroke-linecap: square"/>
   </g>
   <g id="patch_4">
    <path d="M 450 297.16 
L 450 10.8 
" style="fill: none; stroke: #000000; stroke-width: 0.8; stroke-linejoin: miter; stroke-linecap: square"/>
   </g>
   <g id="patch_5">
    <path d="M 54.29 297.16 
L 450 297.16 
" style="fill: none; stroke: #000000; stroke-width: 0.8; stroke-linejoin: miter; stroke-linecap: square"/>
   </g>
   <g id="patch_6">
    <path d="M 54.29 10.8 
L 450 10.8 
" style="fill: none; stroke: #000000; stroke-width: 0.8; stroke-linejoin: miter; stroke-linecap: square"/>
   </g>
   <g id="legend_1">
    <g id="patch_7">
     <path d="M 303.09 289.16 
L 438.8 289.16 
Q 442 289.16 442 285.96 
L 442 193.62 
Q 442 190.42 438.8 190.42 
L 303.09 190.42 
Q 299.89 190.42 299.89 193.62 
L 299.89 285.96 
Q 299.89 289.16 303.09 289.16 
z
" style="fill: #ffffff; opacity: 0.8; stroke: #cccccc; stroke-linejoin: miter"/>
    </g>
    <g id="line2d_21">
     <path d="M 306.29 203.3775 
L 322.29 203.3775 
L 338.29 203.3775 
" style="fill: none; stroke: #000000; stroke-width: 1.5; stroke-linecap: square"/>
    </g>
    <g id="text_19">
     <!-- Scaffnew -->
     <g transform="translate(351.09 208.9775) scale(0.16 -0.16)">
      <defs>
       <path id="DejaVuSans-53" d="M 3425 4513 
L 3425 3897 
Q 3066 4069 2747 4153 
Q 2428 4238 2131 4238 
Q 1616 4238 1336 4038 
Q 1056 3838 1056 3469 
Q 1056 3159 1242 3001 
Q 1428 2844 1947 2747 
L 2328 2669 
Q 3034 2534 3370 2195 
Q 3706 1856 3706 1288 
Q 3706 609 3251 259 
Q 2797 -91 1919 -91 
Q 1588 -91 1214 -16 
Q 841 59 441 206 
L 441 856 
Q 825 641 1194 531 
Q 1563 422 1919 422 
Q 2459 422 2753 634 
Q 3047 847 3047 1241 
Q 3047 1584 2836 1778 
Q 2625 1972 2144 2069 
L 1759 2144 
Q 1053 2284 737 2584 
Q 422 2884 422 3419 
Q 422 4038 858 4394 
Q 1294 4750 2059 4750 
Q 2388 4750 2728 4690 
Q 3069 4631 3425 4513 
z
" transform="scale(0.015625)"/>
       <path id="DejaVuSans-66" d="M 2375 4863 
L 2375 4384 
L 1825 4384 
Q 1516 4384 1395 4259 
Q 1275 4134 1275 3809 
L 1275 3500 
L 2222 3500 
L 2222 3053 
L 1275 3053 
L 1275 0 
L 697 0 
L 697 3053 
L 147 3053 
L 147 3500 
L 697 3500 
L 697 3744 
Q 697 4328 969 4595 
Q 1241 4863 1831 4863 
L 2375 4863 
z
" transform="scale(0.015625)"/>
       <path id="DejaVuSans-65" d="M 3597 1894 
L 3597 1613 
L 953 1613 
Q 991 1019 1311 708 
Q 1631 397 2203 397 
Q 2534 397 2845 478 
Q 3156 559 3463 722 
L 3463 178 
Q 3153 47 2828 -22 
Q 2503 -91 2169 -91 
Q 1331 -91 842 396 
Q 353 884 353 1716 
Q 353 2575 817 3079 
Q 1281 3584 2069 3584 
Q 2775 3584 3186 3129 
Q 3597 2675 3597 1894 
z
M 3022 2063 
Q 3016 2534 2758 2815 
Q 2500 3097 2075 3097 
Q 1594 3097 1305 2825 
Q 1016 2553 972 2059 
L 3022 2063 
z
" transform="scale(0.015625)"/>
       <path id="DejaVuSans-77" d="M 269 3500 
L 844 3500 
L 1563 769 
L 2278 3500 
L 2956 3500 
L 3675 769 
L 4391 3500 
L 4966 3500 
L 4050 0 
L 3372 0 
L 2619 2869 
L 1863 0 
L 1184 0 
L 269 3500 
z
" transform="scale(0.015625)"/>
      </defs>
      <use xlink:href="#DejaVuSans-53"/>
      <use xlink:href="#DejaVuSans-63" x="63.476562"/>
      <use xlink:href="#DejaVuSans-61" x="118.457031"/>
      <use xlink:href="#DejaVuSans-66" x="179.736328"/>
      <use xlink:href="#DejaVuSans-66" x="214.941406"/>
      <use xlink:href="#DejaVuSans-6e" x="250.146484"/>
      <use xlink:href="#DejaVuSans-65" x="313.525391"/>
      <use xlink:href="#DejaVuSans-77" x="375.048828"/>
     </g>
    </g>
    <g id="line2d_22">
     <path d="M 306.29 226.8625 
L 322.29 226.8625 
L 338.29 226.8625 
" style="fill: none; stroke: #ff0000; stroke-width: 1.5; stroke-linecap: square"/>
    </g>
    <g id="text_20">
     <!-- Fedrcu -->
     <g transform="translate(351.09 232.4625) scale(0.16 -0.16)">
      <defs>
       <path id="DejaVuSans-46" d="M 628 4666 
L 3309 4666 
L 3309 4134 
L 1259 4134 
L 1259 2759 
L 3109 2759 
L 3109 2228 
L 1259 2228 
L 1259 0 
L 628 0 
L 628 4666 
z
" transform="scale(0.015625)"/>
      </defs>
      <use xlink:href="#DejaVuSans-46"/>
      <use xlink:href="#DejaVuSans-65" x="52.019531"/>
      <use xlink:href="#DejaVuSans-64" x="113.542969"/>
      <use xlink:href="#DejaVuSans-72" x="177.019531"/>
      <use xlink:href="#DejaVuSans-63" x="215.882812"/>
      <use xlink:href="#DejaVuSans-75" x="270.863281"/>
     </g>
    </g>
    <g id="line2d_23">
     <path d="M 306.29 250.3475 
L 322.29 250.3475 
L 338.29 250.3475 
" style="fill: none; stroke: #ffa500; stroke-width: 1.5; stroke-linecap: square"/>
    </g>
    <g id="text_21">
     <!-- SCAFFOLD -->
     <g transform="translate(351.09 255.9475) scale(0.16 -0.16)">
      <defs>
       <path id="DejaVuSans-4f" d="M 2522 4238 
Q 1834 4238 1429 3725 
Q 1025 3213 1025 2328 
Q 1025 1447 1429 934 
Q 1834 422 2522 422 
Q 3209 422 3611 934 
Q 4013 1447 4013 2328 
Q 4013 3213 3611 3725 
Q 3209 4238 2522 4238 
z
M 2522 4750 
Q 3503 4750 4090 4092 
Q 4678 3434 4678 2328 
Q 4678 1225 4090 567 
Q 3503 -91 2522 -91 
Q 1538 -91 948 565 
Q 359 1222 359 2328 
Q 359 3434 948 4092 
Q 1538 4750 2522 4750 
z
" transform="scale(0.015625)"/>
       <path id="DejaVuSans-4c" d="M 628 4666 
L 1259 4666 
L 1259 531 
L 3531 531 
L 3531 0 
L 628 0 
L 628 4666 
z
" transform="scale(0.015625)"/>
       <path id="DejaVuSans-44" d="M 1259 4147 
L 1259 519 
L 2022 519 
Q 2988 519 3436 956 
Q 3884 1394 3884 2338 
Q 3884 3275 3436 3711 
Q 2988 4147 2022 4147 
L 1259 4147 
z
M 628 4666 
L 1925 4666 
Q 3281 4666 3915 4102 
Q 4550 3538 4550 2338 
Q 4550 1131 3912 565 
Q 3275 0 1925 0 
L 628 0 
L 628 4666 
z
" transform="scale(0.015625)"/>
      </defs>
      <use xlink:href="#DejaVuSans-53"/>
      <use xlink:href="#DejaVuSans-43" x="63.476562"/>
      <use xlink:href="#DejaVuSans-41" x="133.300781"/>
      <use xlink:href="#DejaVuSans-46" x="201.708984"/>
      <use xlink:href="#DejaVuSans-46" x="259.228516"/>
      <use xlink:href="#DejaVuSans-4f" x="316.748047"/>
      <use xlink:href="#DejaVuSans-4c" x="395.458984"/>
      <use xlink:href="#DejaVuSans-44" x="451.171875"/>
     </g>
    </g>
    <g id="line2d_24">
     <path d="M 306.29 273.8325 
L 322.29 273.8325 
L 338.29 273.8325 
" style="fill: none; stroke: #0000ff; stroke-width: 1.5; stroke-linecap: square"/>
    </g>
    <g id="text_22">
     <!-- FedLin -->
     <g transform="translate(351.09 279.4325) scale(0.16 -0.16)">
      <use xlink:href="#DejaVuSans-46"/>
      <use xlink:href="#DejaVuSans-65" x="52.019531"/>
      <use xlink:href="#DejaVuSans-64" x="113.542969"/>
      <use xlink:href="#DejaVuSans-4c" x="177.019531"/>
      <use xlink:href="#DejaVuSans-69" x="232.732422"/>
      <use xlink:href="#DejaVuSans-6e" x="260.515625"/>
     </g>
    </g>
   </g>
  </g>
 </g>
 <defs>
  <clipPath id="pfe9ad484de">
   <rect x="54.29" y="10.8" width="395.71" height="286.36"/>
  </clipPath>
 </defs>
</svg>
