<?xml version="1.0" encoding="utf-8" standalone="no"?>
<!DOCTYPE svg PUBLIC "-//W3C//DTD SVG 1.1//EN"
  "http://www.w3.org/Graphics/SVG/1.1/DTD/svg11.dtd">
<svg xmlns:xlink="http://www.w3.org/1999/xlink" width="460.8pt" height="345.6pt" viewBox="0 0 460.8 345.6" xmlns="http://www.w3.org/2000/svg" version="1.1">
 <metadata>
  <rdf:RDF xmlns:dc="http://purl.org/dc/elements/1.1/" xmlns:cc="http://creativecommons.org/ns#" xmlns:rdf="http://www.w3.org/1999/02/22-rdf-syntax-ns#">
   <cc:Work>
    <dc:type rdf:resource="http://purl.org/dc/dcmitype/StillImage"/>
    <dc:date>2025-09-23T20:50:29.227278</dc:date>
    <dc:format>image/svg+xml</dc:format>
    <dc:creator>
     <cc:Agent>
      <dc:title>Matplotlib v3.8.4, https://matplotlib.org/</dc:title>
     </cc:Agent>
    </dc:creator>
   </cc:Work>
  </rdf:RDF>
 </metadata>
 <defs>
  <style type="text/css">*{stroke-linejoin: round; stroke-linecap: butt}</style>
 </defs>
 <g id="figure_1">
  <g id="patch_1">
   <path d="M 0 345.6 
L 460.8 345.6 
L 460.8 0 
L 0 0 
z
" style="fill: #ffffff"/>
  </g>
  <g id="axes_1">
   <g id="patch_2">
    <path d="M 54.29 297.16 
L 450 297.16 
L 450 10.8 
L 54.29 10.8 
z
" style="fill: #ffffff"/>
   </g>
   <g id="matplotlib.axis_1">
    <g id="xtick_1">
     <g id="line2d_1">
      <defs>
       <path id="mdd27cf5d33" d="M 0 0 
L 0 3.5 
" style="stroke: #000000; stroke-width: 0.8"/>
      </defs>
      <g>
       <use xlink:href="#mdd27cf5d33" x="71.377477" y="297.16" style="stroke: #000000; stroke-width: 0.8"/>
      </g>
     </g>
     <g id="text_1">
      <!-- 0 -->
      <g transform="translate(68.196227 311.758438) scale(0.1 -0.1)">
       <defs>
        <path id="DejaVuSans-30" d="M 2034 4250 
Q 1547 4250 1301 3770 
Q 1056 3291 1056 2328 
Q 1056 1369 1301 889 
Q 1547 409 2034 409 
Q 2525 409 2770 889 
Q 3016 1369 3016 2328 
Q 3016 3291 2770 3770 
Q 2525 4250 2034 4250 
z
M 2034 4750 
Q 2819 4750 3233 4129 
Q 3647 3509 3647 2328 
Q 3647 1150 3233 529 
Q 2819 -91 2034 -91 
Q 1250 -91 836 529 
Q 422 1150 422 2328 
Q 422 3509 836 4129 
Q 1250 4750 2034 4750 
z
" transform="scale(0.015625)"/>
       </defs>
       <use xlink:href="#DejaVuSans-30"/>
      </g>
     </g>
    </g>
    <g id="xtick_2">
     <g id="line2d_2">
      <g>
       <use xlink:href="#mdd27cf5d33" x="116.344523" y="297.16" style="stroke: #000000; stroke-width: 0.8"/>
      </g>
     </g>
     <g id="text_2">
      <!-- 500 -->
      <g transform="translate(106.800773 311.758438) scale(0.1 -0.1)">
       <defs>
        <path id="DejaVuSans-35" d="M 691 4666 
L 3169 4666 
L 3169 4134 
L 1269 4134 
L 1269 2991 
Q 1406 3038 1543 3061 
Q 1681 3084 1819 3084 
Q 2600 3084 3056 2656 
Q 3513 2228 3513 1497 
Q 3513 744 3044 326 
Q 2575 -91 1722 -91 
Q 1428 -91 1123 -41 
Q 819 9 494 109 
L 494 744 
Q 775 591 1075 516 
Q 1375 441 1709 441 
Q 2250 441 2565 725 
Q 2881 1009 2881 1497 
Q 2881 1984 2565 2268 
Q 2250 2553 1709 2553 
Q 1456 2553 1204 2497 
Q 953 2441 691 2322 
L 691 4666 
z
" transform="scale(0.015625)"/>
       </defs>
       <use xlink:href="#DejaVuSans-35"/>
       <use xlink:href="#DejaVuSans-30" x="63.623047"/>
       <use xlink:href="#DejaVuSans-30" x="127.246094"/>
      </g>
     </g>
    </g>
    <g id="xtick_3">
     <g id="line2d_3">
      <g>
       <use xlink:href="#mdd27cf5d33" x="161.311568" y="297.16" style="stroke: #000000; stroke-width: 0.8"/>
      </g>
     </g>
     <g id="text_3">
      <!-- 1000 -->
      <g transform="translate(148.586568 311.758438) scale(0.1 -0.1)">
       <defs>
        <path id="DejaVuSans-31" d="M 794 531 
L 1825 531 
L 1825 4091 
L 703 3866 
L 703 4441 
L 1819 4666 
L 2450 4666 
L 2450 531 
L 3481 531 
L 3481 0 
L 794 0 
L 794 531 
z
" transform="scale(0.015625)"/>
       </defs>
       <use xlink:href="#DejaVuSans-31"/>
       <use xlink:href="#DejaVuSans-30" x="63.623047"/>
       <use xlink:href="#DejaVuSans-30" x="127.246094"/>
       <use xlink:href="#DejaVuSans-30" x="190.869141"/>
      </g>
     </g>
    </g>
    <g id="xtick_4">
     <g id="line2d_4">
      <g>
       <use xlink:href="#mdd27cf5d33" x="206.278614" y="297.16" style="stroke: #000000; stroke-width: 0.8"/>
      </g>
     </g>
     <g id="text_4">
      <!-- 1500 -->
      <g transform="translate(193.553614 311.758438) scale(0.1 -0.1)">
       <use xlink:href="#DejaVuSans-31"/>
       <use xlink:href="#DejaVuSans-35" x="63.623047"/>
       <use xlink:href="#DejaVuSans-30" x="127.246094"/>
       <use xlink:href="#DejaVuSans-30" x="190.869141"/>
      </g>
     </g>
    </g>
    <g id="xtick_5">
     <g id="line2d_5">
      <g>
       <use xlink:href="#mdd27cf5d33" x="251.245659" y="297.16" style="stroke: #000000; stroke-width: 0.8"/>
      </g>
     </g>
     <g id="text_5">
      <!-- 2000 -->
      <g transform="translate(238.520659 311.758438) scale(0.1 -0.1)">
       <defs>
        <path id="DejaVuSans-32" d="M 1228 531 
L 3431 531 
L 3431 0 
L 469 0 
L 469 531 
Q 828 903 1448 1529 
Q 2069 2156 2228 2338 
Q 2531 2678 2651 2914 
Q 2772 3150 2772 3378 
Q 2772 3750 2511 3984 
Q 2250 4219 1831 4219 
Q 1534 4219 1204 4116 
Q 875 4013 500 3803 
L 500 4441 
Q 881 4594 1212 4672 
Q 1544 4750 1819 4750 
Q 2544 4750 2975 4387 
Q 3406 4025 3406 3419 
Q 3406 3131 3298 2873 
Q 3191 2616 2906 2266 
Q 2828 2175 2409 1742 
Q 1991 1309 1228 531 
z
" transform="scale(0.015625)"/>
       </defs>
       <use xlink:href="#DejaVuSans-32"/>
       <use xlink:href="#DejaVuSans-30" x="63.623047"/>
       <use xlink:href="#DejaVuSans-30" x="127.246094"/>
       <use xlink:href="#DejaVuSans-30" x="190.869141"/>
      </g>
     </g>
    </g>
    <g id="xtick_6">
     <g id="line2d_6">
      <g>
       <use xlink:href="#mdd27cf5d33" x="296.212705" y="297.16" style="stroke: #000000; stroke-width: 0.8"/>
      </g>
     </g>
     <g id="text_6">
      <!-- 2500 -->
      <g transform="translate(283.487705 311.758438) scale(0.1 -0.1)">
       <use xlink:href="#DejaVuSans-32"/>
       <use xlink:href="#DejaVuSans-35" x="63.623047"/>
       <use xlink:href="#DejaVuSans-30" x="127.246094"/>
       <use xlink:href="#DejaVuSans-30" x="190.869141"/>
      </g>
     </g>
    </g>
    <g id="xtick_7">
     <g id="line2d_7">
      <g>
       <use xlink:href="#mdd27cf5d33" x="341.17975" y="297.16" style="stroke: #000000; stroke-width: 0.8"/>
      </g>
     </g>
     <g id="text_7">
      <!-- 3000 -->
      <g transform="translate(328.45475 311.758438) scale(0.1 -0.1)">
       <defs>
        <path id="DejaVuSans-33" d="M 2597 2516 
Q 3050 2419 3304 2112 
Q 3559 1806 3559 1356 
Q 3559 666 3084 287 
Q 2609 -91 1734 -91 
Q 1441 -91 1130 -33 
Q 819 25 488 141 
L 488 750 
Q 750 597 1062 519 
Q 1375 441 1716 441 
Q 2309 441 2620 675 
Q 2931 909 2931 1356 
Q 2931 1769 2642 2001 
Q 2353 2234 1838 2234 
L 1294 2234 
L 1294 2753 
L 1863 2753 
Q 2328 2753 2575 2939 
Q 2822 3125 2822 3475 
Q 2822 3834 2567 4026 
Q 2313 4219 1838 4219 
Q 1578 4219 1281 4162 
Q 984 4106 628 3988 
L 628 4550 
Q 988 4650 1302 4700 
Q 1616 4750 1894 4750 
Q 2613 4750 3031 4423 
Q 3450 4097 3450 3541 
Q 3450 3153 3228 2886 
Q 3006 2619 2597 2516 
z
" transform="scale(0.015625)"/>
       </defs>
       <use xlink:href="#DejaVuSans-33"/>
       <use xlink:href="#DejaVuSans-30" x="63.623047"/>
       <use xlink:href="#DejaVuSans-30" x="127.246094"/>
       <use xlink:href="#DejaVuSans-30" x="190.869141"/>
      </g>
     </g>
    </g>
    <g id="xtick_8">
     <g id="line2d_8">
      <g>
       <use xlink:href="#mdd27cf5d33" x="386.146795" y="297.16" style="stroke: #000000; stroke-width: 0.8"/>
      </g>
     </g>
     <g id="text_8">
      <!-- 3500 -->
      <g transform="translate(373.421795 311.758438) scale(0.1 -0.1)">
       <use xlink:href="#DejaVuSans-33"/>
       <use xlink:href="#DejaVuSans-35" x="63.623047"/>
       <use xlink:href="#DejaVuSans-30" x="127.246094"/>
       <use xlink:href="#DejaVuSans-30" x="190.869141"/>
      </g>
     </g>
    </g>
    <g id="xtick_9">
     <g id="line2d_9">
      <g>
       <use xlink:href="#mdd27cf5d33" x="431.113841" y="297.16" style="stroke: #000000; stroke-width: 0.8"/>
      </g>
     </g>
     <g id="text_9">
      <!-- 4000 -->
      <g transform="translate(418.388841 311.758438) scale(0.1 -0.1)">
       <defs>
        <path id="DejaVuSans-34" d="M 2419 4116 
L 825 1625 
L 2419 1625 
L 2419 4116 
z
M 2253 4666 
L 3047 4666 
L 3047 1625 
L 3713 1625 
L 3713 1100 
L 3047 1100 
L 3047 0 
L 2419 0 
L 2419 1100 
L 313 1100 
L 313 1709 
L 2253 4666 
z
" transform="scale(0.015625)"/>
       </defs>
       <use xlink:href="#DejaVuSans-34"/>
       <use xlink:href="#DejaVuSans-30" x="63.623047"/>
       <use xlink:href="#DejaVuSans-30" x="127.246094"/>
       <use xlink:href="#DejaVuSans-30" x="190.869141"/>
      </g>
     </g>
    </g>
    <g id="text_10">
     <!-- Communication Rounds -->
     <g transform="translate(157.06875 329.995625) scale(0.16 -0.16)">
      <defs>
       <path id="DejaVuSans-43" d="M 4122 4306 
L 4122 3641 
Q 3803 3938 3442 4084 
Q 3081 4231 2675 4231 
Q 1875 4231 1450 3742 
Q 1025 3253 1025 2328 
Q 1025 1406 1450 917 
Q 1875 428 2675 428 
Q 3081 428 3442 575 
Q 3803 722 4122 1019 
L 4122 359 
Q 3791 134 3420 21 
Q 3050 -91 2638 -91 
Q 1578 -91 968 557 
Q 359 1206 359 2328 
Q 359 3453 968 4101 
Q 1578 4750 2638 4750 
Q 3056 4750 3426 4639 
Q 3797 4528 4122 4306 
z
" transform="scale(0.015625)"/>
       <path id="DejaVuSans-6f" d="M 1959 3097 
Q 1497 3097 1228 2736 
Q 959 2375 959 1747 
Q 959 1119 1226 758 
Q 1494 397 1959 397 
Q 2419 397 2687 759 
Q 2956 1122 2956 1747 
Q 2956 2369 2687 2733 
Q 2419 3097 1959 3097 
z
M 1959 3584 
Q 2709 3584 3137 3096 
Q 3566 2609 3566 1747 
Q 3566 888 3137 398 
Q 2709 -91 1959 -91 
Q 1206 -91 779 398 
Q 353 888 353 1747 
Q 353 2609 779 3096 
Q 1206 3584 1959 3584 
z
" transform="scale(0.015625)"/>
       <path id="DejaVuSans-6d" d="M 3328 2828 
Q 3544 3216 3844 3400 
Q 4144 3584 4550 3584 
Q 5097 3584 5394 3201 
Q 5691 2819 5691 2113 
L 5691 0 
L 5113 0 
L 5113 2094 
Q 5113 2597 4934 2840 
Q 4756 3084 4391 3084 
Q 3944 3084 3684 2787 
Q 3425 2491 3425 1978 
L 3425 0 
L 2847 0 
L 2847 2094 
Q 2847 2600 2669 2842 
Q 2491 3084 2119 3084 
Q 1678 3084 1418 2786 
Q 1159 2488 1159 1978 
L 1159 0 
L 581 0 
L 581 3500 
L 1159 3500 
L 1159 2956 
Q 1356 3278 1631 3431 
Q 1906 3584 2284 3584 
Q 2666 3584 2933 3390 
Q 3200 3197 3328 2828 
z
" transform="scale(0.015625)"/>
       <path id="DejaVuSans-75" d="M 544 1381 
L 544 3500 
L 1119 3500 
L 1119 1403 
Q 1119 906 1312 657 
Q 1506 409 1894 409 
Q 2359 409 2629 706 
Q 2900 1003 2900 1516 
L 2900 3500 
L 3475 3500 
L 3475 0 
L 2900 0 
L 2900 538 
Q 2691 219 2414 64 
Q 2138 -91 1772 -91 
Q 1169 -91 856 284 
Q 544 659 544 1381 
z
M 1991 3584 
L 1991 3584 
z
" transform="scale(0.015625)"/>
       <path id="DejaVuSans-6e" d="M 3513 2113 
L 3513 0 
L 2938 0 
L 2938 2094 
Q 2938 2591 2744 2837 
Q 2550 3084 2163 3084 
Q 1697 3084 1428 2787 
Q 1159 2491 1159 1978 
L 1159 0 
L 581 0 
L 581 3500 
L 1159 3500 
L 1159 2956 
Q 1366 3272 1645 3428 
Q 1925 3584 2291 3584 
Q 2894 3584 3203 3211 
Q 3513 2838 3513 2113 
z
" transform="scale(0.015625)"/>
       <path id="DejaVuSans-69" d="M 603 3500 
L 1178 3500 
L 1178 0 
L 603 0 
L 603 3500 
z
M 603 4863 
L 1178 4863 
L 1178 4134 
L 603 4134 
L 603 4863 
z
" transform="scale(0.015625)"/>
       <path id="DejaVuSans-63" d="M 3122 3366 
L 3122 2828 
Q 2878 2963 2633 3030 
Q 2388 3097 2138 3097 
Q 1578 3097 1268 2742 
Q 959 2388 959 1747 
Q 959 1106 1268 751 
Q 1578 397 2138 397 
Q 2388 397 2633 464 
Q 2878 531 3122 666 
L 3122 134 
Q 2881 22 2623 -34 
Q 2366 -91 2075 -91 
Q 1284 -91 818 406 
Q 353 903 353 1747 
Q 353 2603 823 3093 
Q 1294 3584 2113 3584 
Q 2378 3584 2631 3529 
Q 2884 3475 3122 3366 
z
" transform="scale(0.015625)"/>
       <path id="DejaVuSans-61" d="M 2194 1759 
Q 1497 1759 1228 1600 
Q 959 1441 959 1056 
Q 959 750 1161 570 
Q 1363 391 1709 391 
Q 2188 391 2477 730 
Q 2766 1069 2766 1631 
L 2766 1759 
L 2194 1759 
z
M 3341 1997 
L 3341 0 
L 2766 0 
L 2766 531 
Q 2569 213 2275 61 
Q 1981 -91 1556 -91 
Q 1019 -91 701 211 
Q 384 513 384 1019 
Q 384 1609 779 1909 
Q 1175 2209 1959 2209 
L 2766 2209 
L 2766 2266 
Q 2766 2663 2505 2880 
Q 2244 3097 1772 3097 
Q 1472 3097 1187 3025 
Q 903 2953 641 2809 
L 641 3341 
Q 956 3463 1253 3523 
Q 1550 3584 1831 3584 
Q 2591 3584 2966 3190 
Q 3341 2797 3341 1997 
z
" transform="scale(0.015625)"/>
       <path id="DejaVuSans-74" d="M 1172 4494 
L 1172 3500 
L 2356 3500 
L 2356 3053 
L 1172 3053 
L 1172 1153 
Q 1172 725 1289 603 
Q 1406 481 1766 481 
L 2356 481 
L 2356 0 
L 1766 0 
Q 1100 0 847 248 
Q 594 497 594 1153 
L 594 3053 
L 172 3053 
L 172 3500 
L 594 3500 
L 594 4494 
L 1172 4494 
z
" transform="scale(0.015625)"/>
       <path id="DejaVuSans-20" transform="scale(0.015625)"/>
       <path id="DejaVuSans-52" d="M 2841 2188 
Q 3044 2119 3236 1894 
Q 3428 1669 3622 1275 
L 4263 0 
L 3584 0 
L 2988 1197 
Q 2756 1666 2539 1819 
Q 2322 1972 1947 1972 
L 1259 1972 
L 1259 0 
L 628 0 
L 628 4666 
L 2053 4666 
Q 2853 4666 3247 4331 
Q 3641 3997 3641 3322 
Q 3641 2881 3436 2590 
Q 3231 2300 2841 2188 
z
M 1259 4147 
L 1259 2491 
L 2053 2491 
Q 2509 2491 2742 2702 
Q 2975 2913 2975 3322 
Q 2975 3731 2742 3939 
Q 2509 4147 2053 4147 
L 1259 4147 
z
" transform="scale(0.015625)"/>
       <path id="DejaVuSans-64" d="M 2906 2969 
L 2906 4863 
L 3481 4863 
L 3481 0 
L 2906 0 
L 2906 525 
Q 2725 213 2448 61 
Q 2172 -91 1784 -91 
Q 1150 -91 751 415 
Q 353 922 353 1747 
Q 353 2572 751 3078 
Q 1150 3584 1784 3584 
Q 2172 3584 2448 3432 
Q 2725 3281 2906 2969 
z
M 947 1747 
Q 947 1113 1208 752 
Q 1469 391 1925 391 
Q 2381 391 2643 752 
Q 2906 1113 2906 1747 
Q 2906 2381 2643 2742 
Q 2381 3103 1925 3103 
Q 1469 3103 1208 2742 
Q 947 2381 947 1747 
z
" transform="scale(0.015625)"/>
       <path id="DejaVuSans-73" d="M 2834 3397 
L 2834 2853 
Q 2591 2978 2328 3040 
Q 2066 3103 1784 3103 
Q 1356 3103 1142 2972 
Q 928 2841 928 2578 
Q 928 2378 1081 2264 
Q 1234 2150 1697 2047 
L 1894 2003 
Q 2506 1872 2764 1633 
Q 3022 1394 3022 966 
Q 3022 478 2636 193 
Q 2250 -91 1575 -91 
Q 1294 -91 989 -36 
Q 684 19 347 128 
L 347 722 
Q 666 556 975 473 
Q 1284 391 1588 391 
Q 1994 391 2212 530 
Q 2431 669 2431 922 
Q 2431 1156 2273 1281 
Q 2116 1406 1581 1522 
L 1381 1569 
Q 847 1681 609 1914 
Q 372 2147 372 2553 
Q 372 3047 722 3315 
Q 1072 3584 1716 3584 
Q 2034 3584 2315 3537 
Q 2597 3491 2834 3397 
z
" transform="scale(0.015625)"/>
      </defs>
      <use xlink:href="#DejaVuSans-43"/>
      <use xlink:href="#DejaVuSans-6f" x="69.824219"/>
      <use xlink:href="#DejaVuSans-6d" x="131.005859"/>
      <use xlink:href="#DejaVuSans-6d" x="228.417969"/>
      <use xlink:href="#DejaVuSans-75" x="325.830078"/>
      <use xlink:href="#DejaVuSans-6e" x="389.208984"/>
      <use xlink:href="#DejaVuSans-69" x="452.587891"/>
      <use xlink:href="#DejaVuSans-63" x="480.371094"/>
      <use xlink:href="#DejaVuSans-61" x="535.351562"/>
      <use xlink:href="#DejaVuSans-74" x="596.630859"/>
      <use xlink:href="#DejaVuSans-69" x="635.839844"/>
      <use xlink:href="#DejaVuSans-6f" x="663.623047"/>
      <use xlink:href="#DejaVuSans-6e" x="724.804688"/>
      <use xlink:href="#DejaVuSans-20" x="788.183594"/>
      <use xlink:href="#DejaVuSans-52" x="819.970703"/>
      <use xlink:href="#DejaVuSans-6f" x="884.953125"/>
      <use xlink:href="#DejaVuSans-75" x="946.134766"/>
      <use xlink:href="#DejaVuSans-6e" x="1009.513672"/>
      <use xlink:href="#DejaVuSans-64" x="1072.892578"/>
      <use xlink:href="#DejaVuSans-73" x="1136.369141"/>
     </g>
    </g>
   </g>
   <g id="matplotlib.axis_2">
    <g id="ytick_1">
     <g id="line2d_10">
      <defs>
       <path id="m7c1b7e77f8" d="M 0 0 
L -3.5 0 
" style="stroke: #000000; stroke-width: 0.8"/>
      </defs>
      <g>
       <use xlink:href="#m7c1b7e77f8" x="54.29" y="288.639539" style="stroke: #000000; stroke-width: 0.8"/>
      </g>
     </g>
     <g id="text_11">
      <!-- 0.0 -->
      <g transform="translate(31.386875 292.438758) scale(0.1 -0.1)">
       <defs>
        <path id="DejaVuSans-2e" d="M 684 794 
L 1344 794 
L 1344 0 
L 684 0 
L 684 794 
z
" transform="scale(0.015625)"/>
       </defs>
       <use xlink:href="#DejaVuSans-30"/>
       <use xlink:href="#DejaVuSans-2e" x="63.623047"/>
       <use xlink:href="#DejaVuSans-30" x="95.410156"/>
      </g>
     </g>
    </g>
    <g id="ytick_2">
     <g id="line2d_11">
      <g>
       <use xlink:href="#m7c1b7e77f8" x="54.29" y="232.948357" style="stroke: #000000; stroke-width: 0.8"/>
      </g>
     </g>
     <g id="text_12">
      <!-- 0.1 -->
      <g transform="translate(31.386875 236.747575) scale(0.1 -0.1)">
       <use xlink:href="#DejaVuSans-30"/>
       <use xlink:href="#DejaVuSans-2e" x="63.623047"/>
       <use xlink:href="#DejaVuSans-31" x="95.410156"/>
      </g>
     </g>
    </g>
    <g id="ytick_3">
     <g id="line2d_12">
      <g>
       <use xlink:href="#m7c1b7e77f8" x="54.29" y="177.257174" style="stroke: #000000; stroke-width: 0.8"/>
      </g>
     </g>
     <g id="text_13">
      <!-- 0.2 -->
      <g transform="translate(31.386875 181.056393) scale(0.1 -0.1)">
       <use xlink:href="#DejaVuSans-30"/>
       <use xlink:href="#DejaVuSans-2e" x="63.623047"/>
       <use xlink:href="#DejaVuSans-32" x="95.410156"/>
      </g>
     </g>
    </g>
    <g id="ytick_4">
     <g id="line2d_13">
      <g>
       <use xlink:href="#m7c1b7e77f8" x="54.29" y="121.565991" style="stroke: #000000; stroke-width: 0.8"/>
      </g>
     </g>
     <g id="text_14">
      <!-- 0.3 -->
      <g transform="translate(31.386875 125.36521) scale(0.1 -0.1)">
       <use xlink:href="#DejaVuSans-30"/>
       <use xlink:href="#DejaVuSans-2e" x="63.623047"/>
       <use xlink:href="#DejaVuSans-33" x="95.410156"/>
      </g>
     </g>
    </g>
    <g id="ytick_5">
     <g id="line2d_14">
      <g>
       <use xlink:href="#m7c1b7e77f8" x="54.29" y="65.874809" style="stroke: #000000; stroke-width: 0.8"/>
      </g>
     </g>
     <g id="text_15">
      <!-- 0.4 -->
      <g transform="translate(31.386875 69.674028) scale(0.1 -0.1)">
       <use xlink:href="#DejaVuSans-30"/>
       <use xlink:href="#DejaVuSans-2e" x="63.623047"/>
       <use xlink:href="#DejaVuSans-34" x="95.410156"/>
      </g>
     </g>
    </g>
    <g id="text_16">
     <!-- Train Accuracy -->
     <g transform="translate(24.059375 212.2375) rotate(-90) scale(0.16 -0.16)">
      <defs>
       <path id="DejaVuSans-54" d="M -19 4666 
L 3928 4666 
L 3928 4134 
L 2272 4134 
L 2272 0 
L 1638 0 
L 1638 4134 
L -19 4134 
L -19 4666 
z
" transform="scale(0.015625)"/>
       <path id="DejaVuSans-72" d="M 2631 2963 
Q 2534 3019 2420 3045 
Q 2306 3072 2169 3072 
Q 1681 3072 1420 2755 
Q 1159 2438 1159 1844 
L 1159 0 
L 581 0 
L 581 3500 
L 1159 3500 
L 1159 2956 
Q 1341 3275 1631 3429 
Q 1922 3584 2338 3584 
Q 2397 3584 2469 3576 
Q 2541 3569 2628 3553 
L 2631 2963 
z
" transform="scale(0.015625)"/>
       <path id="DejaVuSans-41" d="M 2188 4044 
L 1331 1722 
L 3047 1722 
L 2188 4044 
z
M 1831 4666 
L 2547 4666 
L 4325 0 
L 3669 0 
L 3244 1197 
L 1141 1197 
L 716 0 
L 50 0 
L 1831 4666 
z
" transform="scale(0.015625)"/>
       <path id="DejaVuSans-79" d="M 2059 -325 
Q 1816 -950 1584 -1140 
Q 1353 -1331 966 -1331 
L 506 -1331 
L 506 -850 
L 844 -850 
Q 1081 -850 1212 -737 
Q 1344 -625 1503 -206 
L 1606 56 
L 191 3500 
L 800 3500 
L 1894 763 
L 2988 3500 
L 3597 3500 
L 2059 -325 
z
" transform="scale(0.015625)"/>
      </defs>
      <use xlink:href="#DejaVuSans-54"/>
      <use xlink:href="#DejaVuSans-72" x="46.333984"/>
      <use xlink:href="#DejaVuSans-61" x="87.447266"/>
      <use xlink:href="#DejaVuSans-69" x="148.726562"/>
      <use xlink:href="#DejaVuSans-6e" x="176.509766"/>
      <use xlink:href="#DejaVuSans-20" x="239.888672"/>
      <use xlink:href="#DejaVuSans-41" x="271.675781"/>
      <use xlink:href="#DejaVuSans-63" x="338.333984"/>
      <use xlink:href="#DejaVuSans-63" x="393.314453"/>
      <use xlink:href="#DejaVuSans-75" x="448.294922"/>
      <use xlink:href="#DejaVuSans-72" x="511.673828"/>
      <use xlink:href="#DejaVuSans-61" x="552.787109"/>
      <use xlink:href="#DejaVuSans-63" x="614.066406"/>
      <use xlink:href="#DejaVuSans-79" x="669.046875"/>
     </g>
    </g>
   </g>
   <g id="line2d_15">
    <path d="M 72.366752 279.674103 
L 73.356027 276.905365 
L 74.345302 278.883035 
L 75.334577 282.70653 
L 76.323852 274.400316 
L 77.313127 277.696433 
L 78.302402 276.377986 
L 79.291677 274.268472 
L 80.280952 268.730996 
L 81.270227 268.467307 
L 82.259502 270.840511 
L 83.248777 254.359929 
L 84.238052 259.370026 
L 85.227327 251.986725 
L 86.216602 250.668278 
L 87.205877 255.546531 
L 88.195152 252.777793 
L 89.184427 247.767696 
L 90.173702 250.536434 
L 92.152252 230.496046 
L 93.141527 236.824589 
L 94.130802 229.441289 
L 95.120077 225.749638 
L 96.109352 232.210026 
L 97.098627 228.782065 
L 98.087902 226.013328 
L 99.077177 231.155269 
L 100.066452 231.023425 
L 101.055727 215.5976 
L 102.045002 217.707114 
L 103.034277 209.137212 
L 104.023552 206.895853 
L 105.012827 209.400901 
L 106.002102 204.918183 
L 106.991377 196.875659 
L 107.980652 190.547115 
L 108.969927 199.117018 
L 109.959202 211.246726 
L 110.948477 231.155269 
L 111.937752 184.74595 
L 112.927027 190.942649 
L 114.905577 217.707114 
L 115.894852 208.609833 
L 116.884127 180.526921 
L 117.873402 173.40731 
L 118.862677 185.273329 
L 119.851952 190.283426 
L 120.841227 205.313717 
L 121.830502 178.944786 
L 122.819777 188.042067 
L 123.809052 166.683233 
L 124.798327 174.066533 
L 125.787602 167.73799 
L 126.776877 192.524785 
L 127.766152 170.506728 
L 128.755427 173.275465 
L 129.744702 159.695466 
L 130.733977 160.486534 
L 131.723252 161.936825 
L 132.712527 168.792747 
L 133.701802 163.914495 
L 134.691077 196.875659 
L 135.680352 185.405174 
L 136.669627 168.792747 
L 137.658902 173.539155 
L 138.648177 160.618378 
L 139.637452 167.474301 
L 140.626727 178.285562 
L 141.616002 160.618378 
L 142.605277 150.202651 
L 143.594552 153.103233 
L 144.583827 163.123427 
L 145.573102 138.995855 
L 146.562377 143.346729 
L 147.551652 197.403037 
L 148.540927 174.593912 
L 149.530202 162.596048 
L 150.519477 152.971388 
L 151.508752 165.76032 
L 152.498027 205.050027 
L 153.487302 166.946922 
L 154.476577 147.038379 
L 155.465852 155.608281 
L 156.455127 139.786923 
L 157.444402 154.42168 
L 158.433677 193.711387 
L 159.422952 140.050612 
L 160.412227 154.289835 
L 161.401502 174.593912 
L 162.390777 142.028282 
L 163.380052 186.591776 
L 164.369327 164.046339 
L 165.358602 167.73799 
L 166.347877 174.198378 
L 167.337152 135.699738 
L 168.326427 147.170224 
L 169.315702 126.338768 
L 170.304977 197.534882 
L 171.294252 176.967116 
L 172.283527 140.050612 
L 173.272802 141.369059 
L 174.262077 135.040515 
L 175.251352 141.369059 
L 176.240627 131.744399 
L 177.229902 166.024009 
L 178.219177 154.15799 
L 179.208452 139.655078 
L 180.197727 135.436049 
L 181.187002 124.756632 
L 182.176277 174.857601 
L 183.165552 127.657214 
L 185.144102 143.874107 
L 186.133377 158.377019 
L 187.122652 130.425952 
L 188.111927 148.620515 
L 189.101202 146.906534 
L 190.090477 162.332359 
L 191.079752 138.204787 
L 192.069027 137.018185 
L 193.058302 138.732166 
L 194.047577 133.722069 
L 195.036852 131.348865 
L 196.026127 135.831583 
L 197.015402 158.772553 
L 198.004677 168.397213 
L 198.993952 187.119154 
L 199.983227 128.052748 
L 200.972502 140.973525 
L 201.961777 218.234493 
L 202.951052 123.174496 
L 203.940327 128.580127 
L 204.929602 143.478573 
L 205.918877 196.084591 
L 206.908152 119.219157 
L 207.897427 202.0176 
L 208.886702 118.823623 
L 209.875977 168.792747 
L 210.865252 187.382844 
L 211.854527 130.821486 
L 212.843802 139.391389 
L 213.833077 137.018185 
L 214.822352 135.963428 
L 215.811627 175.912358 
L 217.790177 119.482846 
L 218.779452 160.750223 
L 219.768727 115.000128 
L 220.758002 136.227117 
L 221.747277 173.011776 
L 222.736552 148.620515 
L 223.725827 114.736438 
L 224.715102 141.764593 
L 225.704377 130.953331 
L 226.693652 148.884204 
L 227.682927 110.385565 
L 229.661477 123.438186 
L 230.650752 135.699738 
L 231.640027 124.361098 
L 232.629302 128.184593 
L 233.618577 125.284011 
L 234.607852 129.50304 
L 235.597127 191.865562 
L 236.586402 133.985758 
L 237.575677 131.48071 
L 238.564952 161.277602 
L 239.554227 197.666727 
L 240.543502 120.010224 
L 241.532777 110.385565 
L 242.522052 138.072942 
L 243.511327 111.835856 
L 244.500602 188.569445 
L 245.489877 120.801292 
L 246.479152 123.701875 
L 247.468427 133.458379 
L 248.457702 127.129836 
L 249.446977 147.170224 
L 250.436252 143.742262 
L 251.425527 135.831583 
L 252.414802 143.346729 
L 253.404077 184.74595 
L 254.393352 113.022458 
L 255.382627 125.811389 
L 256.371902 168.660902 
L 257.361177 112.626924 
L 258.350452 120.669448 
L 259.339727 118.428089 
L 260.329002 128.052748 
L 261.318277 117.90071 
L 262.307552 118.955467 
L 263.296827 122.251584 
L 264.286102 124.361098 
L 265.275377 123.701875 
L 266.264652 110.385565 
L 267.253927 140.446146 
L 268.243202 118.559933 
L 269.232477 115.659351 
L 270.221752 141.764593 
L 271.211027 128.184593 
L 272.200302 127.52537 
L 273.189577 140.050612 
L 274.178852 132.799156 
L 275.168127 101.024594 
L 276.157402 121.460516 
L 277.146677 135.040515 
L 278.135952 113.154302 
L 279.125227 124.097409 
L 280.114502 107.880516 
L 281.103777 116.977797 
L 282.093052 135.040515 
L 283.082327 145.851777 
L 284.071602 141.105369 
L 285.060877 118.955467 
L 286.050152 126.206923 
L 287.039427 113.286147 
L 288.028702 113.286147 
L 289.017977 101.947507 
L 290.007252 118.296244 
L 290.996527 109.198963 
L 291.985802 133.19469 
L 292.975077 108.935273 
L 293.964352 151.125563 
L 294.953627 222.189833 
L 295.942902 117.109642 
L 296.932177 113.94537 
L 297.921452 112.495079 
L 298.910727 135.040515 
L 299.900002 185.932552 
L 300.889277 192.129251 
L 301.878552 121.85605 
L 303.857102 137.281874 
L 304.846377 123.833719 
L 305.835652 171.42964 
L 306.824927 117.109642 
L 307.814202 132.667311 
L 308.803477 97.464788 
L 309.792752 120.405758 
L 310.782027 103.134109 
L 311.771302 120.669448 
L 312.760577 103.397798 
L 313.749852 103.397798 
L 314.739127 99.442458 
L 315.728402 135.963428 
L 316.717677 127.261681 
L 317.706952 158.245175 
L 318.696227 155.212748 
L 319.685502 109.858186 
L 320.674777 106.034691 
L 321.664052 104.716244 
L 322.653327 112.890613 
L 323.642602 106.166536 
L 324.631877 133.062845 
L 325.621152 118.164399 
L 326.610427 120.801292 
L 327.599702 115.000128 
L 328.588977 114.20906 
L 329.578252 114.736438 
L 330.567527 108.407895 
L 331.556802 105.771002 
L 332.546077 102.738575 
L 333.535352 130.425952 
L 334.524627 136.490806 
L 335.513902 102.870419 
L 336.503177 105.243623 
L 337.492452 126.206923 
L 338.481727 113.154302 
L 339.471002 121.85605 
L 340.460277 98.519546 
L 341.449552 129.898574 
L 342.438827 126.997991 
L 343.428102 133.062845 
L 344.417377 105.375468 
L 345.406652 163.78265 
L 346.395927 97.992167 
L 347.385202 134.644981 
L 348.374477 121.59236 
L 349.363752 127.261681 
L 350.353027 111.044788 
L 351.342302 131.348865 
L 352.331577 169.583815 
L 353.320852 106.29838 
L 354.310127 111.572166 
L 355.299402 119.482846 
L 356.288677 147.433913 
L 357.277952 133.458379 
L 358.267227 183.427504 
L 359.256502 108.27605 
L 360.245777 102.870419 
L 361.235052 130.557797 
L 362.224327 122.778962 
L 363.213602 91.531779 
L 364.202877 218.630027 
L 365.192152 143.346729 
L 366.181427 114.20906 
L 367.170702 198.32595 
L 368.159977 94.696051 
L 369.149252 134.381292 
L 370.138527 118.032555 
L 371.127802 98.783235 
L 372.117077 113.417992 
L 373.106352 185.273329 
L 374.095627 147.433913 
L 375.084902 115.263817 
L 376.074177 102.474885 
L 377.063452 110.912943 
L 378.052727 127.52537 
L 379.042002 106.034691 
L 380.031277 89.158575 
L 381.020552 111.044788 
L 382.009827 92.322847 
L 382.999102 128.052748 
L 383.988377 101.551973 
L 384.977652 138.072942 
L 385.966927 108.539739 
L 386.956202 110.385565 
L 387.945477 111.9677 
L 388.934752 153.366922 
L 389.924027 112.890613 
L 390.913302 130.689642 
L 391.902577 120.010224 
L 392.891852 132.667311 
L 393.881127 105.375468 
L 394.870402 123.965564 
L 395.859677 108.935273 
L 396.848952 155.212748 
L 397.838227 135.567894 
L 398.827502 173.40731 
L 399.816777 102.738575 
L 400.806052 91.0044 
L 401.795327 126.470613 
L 402.784602 191.470028 
L 403.773877 109.462652 
L 404.763152 99.837992 
L 405.752427 96.541876 
L 406.741702 95.750808 
L 407.730977 109.067118 
L 408.720252 108.144205 
L 409.709527 110.912943 
L 410.698802 104.32071 
L 411.688077 94.168672 
L 412.677352 103.793332 
L 413.666627 129.50304 
L 414.655902 95.487118 
L 415.645177 110.517409 
L 416.634452 88.367507 
L 417.623727 152.839544 
L 418.613002 98.783235 
L 419.602277 105.902846 
L 420.591552 120.669448 
L 421.580827 102.870419 
L 422.570102 180.526921 
L 423.559377 131.876243 
L 424.548652 100.62906 
L 425.537927 105.902846 
L 426.527202 107.484982 
L 427.516477 104.848089 
L 428.505752 92.98207 
L 428.505752 92.98207 
" clip-path="url(#pdde158c1b6)" style="fill: none; stroke: #000000; stroke-width: 1.5; stroke-linecap: square"/>
   </g>
   <g id="line2d_16">
    <path d="M 72.276818 283.708549 
L 73.176159 283.128433 
L 74.0755 282.838374 
L 74.974841 277.037209 
L 75.874182 274.716743 
L 76.773523 265.579909 
L 77.672864 254.702725 
L 78.572205 253.107404 
L 79.471545 249.046589 
L 80.370886 242.085191 
L 81.270227 238.314434 
L 82.169568 232.223211 
L 83.96825 224.10158 
L 84.867591 224.971755 
L 85.766932 217.720299 
L 86.666273 214.819716 
L 87.565614 213.949542 
L 89.364295 204.087561 
L 90.263636 204.812707 
L 91.162977 201.477037 
L 92.062318 193.935523 
L 92.961659 195.240785 
L 93.861 192.340203 
L 94.760341 183.203368 
L 95.659682 185.668863 
L 96.559023 178.852494 
L 97.458364 182.768281 
L 98.357705 181.17296 
L 99.257045 177.112145 
L 101.055727 166.37999 
L 101.955068 173.196359 
L 102.854409 170.005718 
L 103.75375 168.120339 
L 104.653091 163.334378 
L 105.552432 160.723854 
L 106.451773 161.884087 
L 108.250455 151.877078 
L 109.149795 159.273563 
L 110.049136 156.082922 
L 110.948477 154.77766 
L 111.847818 149.266554 
L 112.747159 151.732049 
L 113.6465 143.030301 
L 114.545841 142.160127 
L 115.445182 144.625622 
L 116.344523 134.473583 
L 117.243864 131.573001 
L 118.143205 140.854865 
L 119.042545 138.389369 
L 119.941886 138.969486 
L 120.841227 135.198729 
L 121.740568 135.343758 
L 122.639909 132.733234 
L 123.53925 136.64902 
L 124.438591 123.886457 
L 125.337932 136.358962 
L 126.237273 129.107506 
L 127.136614 118.955467 
L 128.035955 122.001079 
L 128.935295 113.879448 
L 129.834636 116.78003 
L 130.733977 120.985875 
L 131.633318 123.161312 
L 132.532659 110.978866 
L 133.432 112.284128 
L 134.331341 116.199914 
L 135.230682 114.894652 
L 136.130023 112.719215 
L 137.029364 112.284128 
L 137.928705 111.268924 
L 138.828045 100.681798 
L 139.727386 109.093487 
L 140.626727 108.223312 
L 141.526068 103.872439 
L 142.425409 96.040866 
L 143.32475 109.963662 
L 144.224091 100.536769 
L 145.123432 99.376536 
L 146.022773 95.750808 
L 147.821455 101.842031 
L 148.720795 107.643196 
L 149.620136 99.811623 
L 150.519477 96.040866 
L 151.418818 106.91805 
L 152.318159 93.865429 
L 153.2175 94.010458 
L 154.116841 102.132089 
L 155.016182 93.430342 
L 155.915523 82.843216 
L 156.814864 92.995254 
L 157.714205 91.980051 
L 158.613545 81.392925 
L 159.512886 87.774206 
L 160.412227 87.19409 
L 161.311568 85.743798 
L 162.210909 85.45374 
L 163.11025 91.254905 
L 164.009591 84.148478 
L 164.908932 84.873624 
L 165.808273 76.316906 
L 166.707614 82.408129 
L 167.606955 80.52275 
L 168.506295 76.751993 
L 169.405636 82.408129 
L 170.304977 82.2631 
L 171.204318 76.316906 
L 172.103659 87.484148 
L 173.003 86.468944 
L 173.902341 89.369526 
L 174.801682 83.278303 
L 175.701023 73.561352 
L 176.600364 81.247896 
L 177.499705 80.667779 
L 178.399045 77.332109 
L 179.298386 81.102867 
L 180.197727 83.568362 
L 181.097068 74.576556 
L 181.996409 70.515741 
L 182.89575 74.576556 
L 183.795091 81.682983 
L 184.694432 77.622168 
L 185.593773 70.805799 
L 186.493114 66.454925 
L 187.392455 70.370712 
L 188.291795 75.446731 
L 189.191136 76.606964 
L 190.090477 73.416323 
L 190.989818 64.424518 
L 191.889159 64.134459 
L 192.7885 73.99644 
L 193.687841 68.92042 
L 194.587182 72.111061 
L 195.486523 69.065449 
L 196.385864 66.744984 
L 197.285205 75.736789 
L 198.184545 70.515741 
L 199.083886 64.134459 
L 199.983227 70.370712 
L 200.882568 69.790595 
L 201.781909 70.080653 
L 202.68125 66.309896 
L 203.580591 66.744984 
L 204.479932 72.111061 
L 205.379273 74.866614 
L 206.278614 61.813993 
L 207.177955 61.668964 
L 208.077295 67.470129 
L 208.976636 63.409314 
L 209.875977 70.950828 
L 210.775318 63.699372 
L 211.674659 69.355508 
L 212.574 63.699372 
L 213.473341 65.584751 
L 214.372682 66.744984 
L 215.272023 68.630362 
L 216.171364 62.684168 
L 217.070705 70.950828 
L 217.970045 61.233877 
L 218.869386 58.043236 
L 219.768727 60.218673 
L 220.668068 61.523935 
L 221.567409 60.65376 
L 222.46675 57.898207 
L 223.366091 62.249081 
L 224.265432 65.294692 
L 225.164773 64.134459 
L 226.064114 58.623353 
L 226.963455 61.523935 
L 227.862795 63.699372 
L 228.762136 60.508731 
L 229.661477 64.424518 
L 230.560818 65.874809 
L 231.460159 52.677159 
L 232.3595 60.65376 
L 233.258841 59.348498 
L 234.158182 55.72277 
L 235.057523 57.46312 
L 235.956864 61.959023 
L 236.856205 59.348498 
L 237.755545 54.852596 
L 238.654886 58.043236 
L 239.554227 54.272479 
L 240.453568 60.508731 
L 241.352909 47.60114 
L 242.25225 57.753178 
L 243.151591 53.547334 
L 244.050932 51.661955 
L 244.950273 58.188265 
L 246.748955 50.79178 
L 247.648295 51.081838 
L 248.547636 51.806984 
L 249.446977 50.646751 
L 250.346318 57.898207 
L 251.245659 51.661955 
L 252.145 48.906402 
L 253.044341 47.021023 
L 253.943682 46.150848 
L 254.843023 53.402304 
L 255.742364 45.135644 
L 256.641705 56.302887 
L 257.541045 59.493527 
L 258.440386 52.822188 
L 259.339727 45.135644 
L 260.239068 45.86079 
L 261.138409 49.631547 
L 262.03775 49.631547 
L 262.937091 51.226868 
L 263.836432 59.493527 
L 264.735773 49.19646 
L 265.635114 52.822188 
L 266.534455 45.570732 
L 267.433795 53.982421 
L 268.333136 52.967217 
L 269.232477 56.737974 
L 270.131818 52.822188 
L 271.031159 50.79178 
L 271.9305 49.921605 
L 272.829841 53.402304 
L 273.729182 52.387101 
L 274.628523 43.250266 
L 275.527864 46.730965 
L 276.427205 46.295877 
L 277.326545 48.761372 
L 278.225886 54.272479 
L 279.125227 51.081838 
L 280.024568 50.211664 
L 280.923909 47.021023 
L 281.82325 48.181256 
L 282.722591 56.157858 
L 283.621932 46.005819 
L 284.521273 45.715761 
L 285.420614 50.211664 
L 286.319955 48.616343 
L 287.219295 50.79178 
L 288.118636 48.036227 
L 289.017977 41.654946 
L 289.917318 42.670149 
L 290.816659 42.815179 
L 291.716 49.486518 
L 292.615341 44.845586 
L 293.514682 45.715761 
L 294.414023 44.845586 
L 295.313364 54.12745 
L 296.212705 51.081838 
L 297.112045 46.440907 
L 298.011386 43.975411 
L 298.910727 38.174247 
L 299.810068 40.784771 
L 300.709409 41.364887 
L 301.60875 47.60114 
L 303.407432 54.272479 
L 304.306773 47.166052 
L 305.206114 49.341489 
L 306.105455 44.410499 
L 307.004795 45.280674 
L 307.904136 47.891198 
L 308.803477 44.700557 
L 309.702818 42.670149 
L 310.602159 43.540324 
L 312.400841 50.936809 
L 313.300182 42.235062 
L 314.199523 48.761372 
L 315.098864 51.516926 
L 315.998205 46.875994 
L 316.897545 51.226868 
L 317.796886 43.105237 
L 318.696227 48.181256 
L 319.595568 46.005819 
L 320.494909 45.570732 
L 321.39425 39.624538 
L 322.293591 50.356693 
L 323.192932 33.823373 
L 324.092273 44.410499 
L 324.991614 52.677159 
L 325.890955 39.769567 
L 326.790295 54.272479 
L 327.689636 44.410499 
L 329.488318 40.204654 
L 330.387659 41.364887 
L 331.287 45.86079 
L 332.186341 47.021023 
L 333.085682 44.700557 
L 333.985023 47.45611 
L 334.884364 44.410499 
L 335.783705 41.945004 
L 336.683045 38.319276 
L 337.582386 37.884188 
L 338.481727 45.425703 
L 339.381068 46.150848 
L 340.280409 41.219858 
L 341.17975 44.120441 
L 342.079091 44.26547 
L 342.978432 48.906402 
L 343.877773 34.548519 
L 344.777114 36.433897 
L 345.676455 46.875994 
L 346.575795 48.761372 
L 347.475136 46.440907 
L 348.374477 46.440907 
L 349.273818 44.410499 
L 350.173159 39.479509 
L 351.0725 41.364887 
L 351.971841 44.845586 
L 352.871182 40.639742 
L 353.770523 42.090033 
L 354.669864 39.18945 
L 355.569205 44.120441 
L 356.468545 42.235062 
L 357.367886 34.25846 
L 358.267227 41.074829 
L 359.166568 44.26547 
L 360.065909 33.243257 
L 360.96525 39.479509 
L 361.864591 43.975411 
L 362.763932 39.18945 
L 363.663273 43.395295 
L 364.562614 36.578926 
L 365.461955 39.624538 
L 366.361295 38.174247 
L 367.260636 41.799975 
L 368.159977 34.25846 
L 369.059318 39.914596 
L 369.958659 38.754363 
L 370.858 40.784771 
L 371.757341 42.52512 
L 372.656682 41.945004 
L 373.556023 37.449101 
L 374.455364 43.105237 
L 375.354705 39.479509 
L 376.254045 40.204654 
L 377.153386 35.708752 
L 378.052727 40.784771 
L 378.952068 40.059625 
L 379.851409 47.311081 
L 380.75075 44.700557 
L 381.650091 42.960208 
L 382.549432 36.723955 
L 383.448773 34.113431 
L 384.348114 35.99881 
L 385.247455 44.410499 
L 386.146795 43.540324 
L 387.945477 34.548519 
L 388.844818 23.816364 
L 389.744159 46.295877 
L 390.6435 34.983606 
L 391.542841 37.304072 
L 392.442182 39.044421 
L 393.341523 37.014014 
L 394.240864 42.380091 
L 395.140205 45.715761 
L 396.039545 38.174247 
L 396.938886 42.090033 
L 397.838227 43.395295 
L 398.737568 39.624538 
L 399.636909 41.219858 
L 400.53625 33.533315 
L 401.435591 43.540324 
L 402.334932 32.953198 
L 403.234273 37.159043 
L 404.133614 33.243257 
L 405.032955 31.937994 
L 405.932295 44.700557 
L 406.831636 37.304072 
L 407.730977 38.319276 
L 408.630318 37.449101 
L 409.529659 39.769567 
L 410.429 40.494713 
L 411.328341 41.509916 
L 412.227682 38.464305 
L 413.127023 37.014014 
L 414.026364 40.349683 
L 414.925705 33.388286 
L 415.825045 33.823373 
L 416.724386 34.113431 
L 417.623727 31.937994 
L 418.523068 44.845586 
L 419.422409 39.914596 
L 420.32175 40.349683 
L 421.221091 36.723955 
L 422.120432 25.121626 
L 423.019773 35.99881 
L 423.919114 38.174247 
L 424.818455 35.99881 
L 425.717795 39.769567 
L 426.617136 30.777761 
L 427.516477 32.953198 
L 428.415818 36.723955 
L 429.315159 34.113431 
L 430.2145 40.9298 
L 431.113841 34.983606 
L 432.013182 35.708752 
L 432.013182 35.708752 
" clip-path="url(#pdde158c1b6)" style="fill: none; stroke: #ff0000; stroke-width: 1.5; stroke-linecap: square"/>
   </g>
   <g id="line2d_17">
    <path d="M 72.276818 283.326199 
L 73.176159 283.194355 
L 74.0755 283.708549 
L 74.974841 282.996588 
L 77.672864 282.772452 
L 78.572205 282.798821 
L 80.370886 282.192335 
L 81.270227 281.770433 
L 82.169568 281.493559 
L 83.068909 280.241035 
L 83.96825 280.873889 
L 84.867591 279.436782 
L 85.766932 279.278569 
L 86.666273 279.476336 
L 87.565614 278.606161 
L 88.464955 278.566607 
L 89.364295 279.265384 
L 90.263636 278.843481 
L 91.162977 278.236996 
L 92.062318 278.856666 
L 92.961659 278.883035 
L 93.861 279.186277 
L 94.760341 278.790743 
L 95.659682 278.777559 
L 96.559023 277.881015 
L 97.458364 278.645714 
L 98.357705 278.500685 
L 99.257045 277.604141 
L 100.156386 277.551404 
L 101.055727 276.364802 
L 101.955068 276.285695 
L 103.75375 273.912491 
L 104.653091 271.671132 
L 105.552432 270.932802 
L 106.451773 268.941948 
L 107.351114 268.454122 
L 108.250455 266.305054 
L 109.149795 265.645831 
L 110.049136 265.408511 
L 110.948477 265.513987 
L 111.847818 263.523132 
L 112.747159 262.692511 
L 113.6465 262.257424 
L 115.445182 259.831482 
L 116.344523 260.35886 
L 117.243864 258.460297 
L 118.143205 258.02521 
L 119.042545 257.985657 
L 119.941886 255.375132 
L 120.841227 255.111443 
L 121.740568 254.307191 
L 122.639909 253.265618 
L 123.53925 252.487735 
L 124.438591 252.672317 
L 125.337932 251.182472 
L 126.237273 250.417773 
L 127.136614 251.314317 
L 128.035955 249.653074 
L 128.935295 249.376201 
L 130.733977 246.884337 
L 131.633318 244.722084 
L 132.532659 244.722084 
L 133.432 245.183541 
L 134.331341 244.010123 
L 135.230682 241.505075 
L 136.130023 242.23022 
L 137.029364 240.318473 
L 137.928705 240.489871 
L 138.828045 241.228201 
L 139.727386 241.13591 
L 140.626727 238.472648 
L 141.526068 239.329638 
L 142.425409 238.77589 
L 143.32475 237.707949 
L 144.224091 237.536551 
L 145.123432 234.635968 
L 146.022773 237.206939 
L 146.922114 236.297211 
L 147.821455 235.769832 
L 148.720795 233.185677 
L 149.620136 234.095405 
L 150.519477 234.490939 
L 151.418818 231.801308 
L 152.318159 232.500085 
L 154.116841 231.603541 
L 155.016182 232.829696 
L 155.915523 232.763774 
L 156.814864 230.693813 
L 157.714205 231.326667 
L 158.613545 229.546764 
L 159.512886 229.072124 
L 160.412227 228.953463 
L 161.311568 227.582279 
L 162.210909 226.461599 
L 163.11025 228.861172 
L 164.009591 228.544745 
L 164.908932 227.635017 
L 165.808273 224.905833 
L 166.707614 227.371328 
L 168.506295 225.314551 
L 169.405636 224.866279 
L 170.304977 223.7456 
L 171.204318 223.336881 
L 172.103659 224.193871 
L 173.003 224.167502 
L 173.902341 221.88659 
L 174.801682 221.741561 
L 175.701023 221.952512 
L 176.600364 222.62492 
L 177.499705 221.517425 
L 178.399045 219.763891 
L 179.298386 219.935289 
L 181.097068 218.920085 
L 181.996409 219.065114 
L 182.89575 218.999192 
L 183.795091 218.511367 
L 184.694432 219.750707 
L 186.493114 216.929231 
L 187.392455 217.298396 
L 188.291795 217.878512 
L 189.191136 216.059056 
L 190.090477 218.089464 
L 190.989818 214.410998 
L 191.889159 215.017483 
L 192.7885 219.038745 
L 193.687841 215.531678 
L 194.587182 214.424182 
L 195.486523 213.593561 
L 196.385864 213.395794 
L 197.285205 211.76092 
L 198.184545 212.551988 
L 199.083886 213.909988 
L 199.983227 213.685852 
L 200.882568 212.301483 
L 201.781909 211.193988 
L 202.68125 212.090532 
L 203.580591 209.04492 
L 204.479932 209.585484 
L 205.379273 212.591542 
L 206.278614 211.629076 
L 207.177955 210.086493 
L 208.077295 207.700105 
L 208.976636 211.774105 
L 209.875977 210.04694 
L 210.775318 208.016532 
L 211.674659 208.438435 
L 212.574 207.911056 
L 213.473341 208.596649 
L 214.372682 207.673736 
L 215.272023 208.082454 
L 216.171364 208.122008 
L 217.070705 207.805581 
L 217.970045 207.199095 
L 218.869386 206.447581 
L 219.768727 206.500319 
L 220.668068 206.157523 
L 221.567409 205.392823 
L 222.46675 205.775173 
L 223.366091 202.940513 
L 224.265432 203.823872 
L 225.164773 204.11393 
L 226.963455 205.050027 
L 227.862795 203.441523 
L 228.762136 203.045989 
L 229.661477 203.507445 
L 230.560818 202.136261 
L 231.460159 201.173795 
L 232.3595 201.859387 
L 233.258841 202.004416 
L 234.158182 200.277251 
L 235.057523 200.699154 
L 235.956864 201.39793 
L 236.856205 201.793464 
L 237.755545 199.987193 
L 238.654886 200.119037 
L 239.554227 200.989212 
L 241.352909 199.341154 
L 242.25225 200.817814 
L 243.151591 198.761037 
L 244.050932 198.220474 
L 244.950273 197.534882 
L 245.849614 197.983154 
L 246.748955 197.851309 
L 247.648295 197.429406 
L 248.547636 196.335096 
L 249.446977 197.363484 
L 250.346318 197.323931 
L 251.245659 195.478105 
L 252.145 194.607931 
L 253.044341 195.043018 
L 253.943682 194.172843 
L 254.843023 196.611969 
L 255.742364 195.636319 
L 256.641705 194.040999 
L 257.541045 193.816863 
L 258.440386 193.210377 
L 259.339727 196.084591 
L 260.239068 195.412183 
L 261.138409 195.557212 
L 262.03775 195.016649 
L 262.937091 193.025795 
L 263.836432 195.649503 
L 264.735773 191.799639 
L 265.635114 192.959872 
L 266.534455 192.524785 
L 267.433795 192.814843 
L 268.333136 192.327018 
L 269.232477 190.942649 
L 270.131818 191.891931 
L 271.031159 191.311814 
L 272.829841 191.087678 
L 273.729182 190.164766 
L 274.628523 191.694164 
L 275.527864 190.257057 
L 276.427205 189.347329 
L 277.326545 188.608999 
L 278.225886 191.667795 
L 279.125227 188.398047 
L 280.024568 189.32096 
L 280.923909 187.897038 
L 281.82325 188.292572 
L 282.722591 190.204319 
L 283.621932 187.659717 
L 284.521273 186.868649 
L 285.420614 189.149562 
L 286.319955 187.567426 
L 287.219295 187.448766 
L 288.118636 187.949776 
L 289.017977 188.239834 
L 289.917318 187.448766 
L 290.816659 184.521814 
L 291.716 185.471096 
L 292.615341 186.934572 
L 293.514682 184.785504 
L 294.414023 185.049193 
L 295.313364 184.073543 
L 296.212705 186.934572 
L 297.112045 185.892999 
L 298.910727 184.653659 
L 299.810068 184.152649 
L 300.709409 184.231756 
L 301.60875 184.587737 
L 302.508091 184.469077 
L 303.407432 181.845368 
L 304.306773 183.111077 
L 305.206114 182.17498 
L 307.004795 181.67397 
L 307.904136 180.355523 
L 308.803477 182.227717 
L 309.702818 181.964028 
L 310.602159 182.596883 
L 311.5015 181.779446 
L 312.400841 182.280455 
L 313.300182 181.159776 
L 314.199523 177.389019 
L 315.098864 180.592844 
L 315.998205 180.395077 
L 316.897545 178.351485 
L 317.796886 180.43463 
L 318.696227 180.645582 
L 319.595568 179.630378 
L 320.494909 180.632397 
L 322.293591 180.31597 
L 324.092273 178.298747 
L 325.890955 177.969135 
L 326.790295 177.428572 
L 327.689636 177.389019 
L 328.588977 178.773388 
L 329.488318 178.153718 
L 330.387659 178.087795 
L 331.287 177.178067 
L 332.186341 177.441756 
L 333.085682 174.752126 
L 333.985023 176.452922 
L 334.884364 175.556378 
L 335.783705 176.294708 
L 336.683045 175.833252 
L 337.582386 176.110125 
L 338.481727 175.38498 
L 339.381068 173.934689 
L 340.280409 176.426553 
L 341.17975 177.257174 
L 342.079091 176.584766 
L 342.978432 173.024961 
L 343.877773 174.949892 
L 344.777114 174.330223 
L 345.676455 176.808902 
L 346.575795 172.444844 
L 347.475136 172.510766 
L 348.374477 173.183174 
L 349.273818 174.738941 
L 350.173159 173.196359 
L 351.0725 173.829213 
L 351.971841 174.659834 
L 352.871182 170.954999 
L 353.770523 171.587854 
L 354.669864 174.198378 
L 355.569205 171.772436 
L 356.468545 171.060475 
L 357.367886 172.115232 
L 358.267227 171.390087 
L 359.166568 170.889077 
L 360.065909 171.983388 
L 360.96525 171.785621 
L 361.864591 170.07164 
L 362.763932 172.194339 
L 363.663273 172.497582 
L 364.562614 172.339368 
L 365.461955 170.1903 
L 366.361295 170.177116 
L 367.260636 171.785621 
L 368.159977 170.348514 
L 369.059318 167.73799 
L 369.958659 171.126397 
L 370.858 171.416456 
L 371.757341 167.065582 
L 372.656682 168.252184 
L 373.556023 168.529058 
L 374.455364 167.289718 
L 375.354705 168.898223 
L 376.254045 167.935757 
L 377.153386 167.764359 
L 378.052727 166.551388 
L 378.952068 167.579776 
L 379.851409 166.511835 
L 380.75075 166.670048 
L 381.650091 167.276534 
L 382.549432 168.225815 
L 383.448773 168.964145 
L 384.348114 165.99764 
L 385.247455 165.76032 
L 386.146795 166.749155 
L 387.046136 166.590941 
L 387.945477 164.837407 
L 388.844818 167.382009 
L 389.744159 163.202534 
L 390.6435 164.90333 
L 391.542841 165.246126 
L 392.442182 165.826242 
L 393.341523 165.839427 
L 394.240864 163.993602 
L 395.140205 165.509815 
L 396.039545 164.613271 
L 396.938886 165.509815 
L 397.838227 164.099077 
L 398.737568 164.494611 
L 399.636909 163.54533 
L 400.53625 163.057505 
L 401.435591 164.046339 
L 402.334932 164.28366 
L 403.234273 163.308009 
L 404.133614 163.268456 
L 405.032955 163.492592 
L 405.932295 163.861757 
L 406.831636 162.661971 
L 407.730977 162.226883 
L 408.630318 161.422631 
L 409.529659 164.072708 
L 410.429 162.200514 
L 411.328341 163.004767 
L 412.227682 163.242087 
L 413.127023 160.961175 
L 414.026364 163.28164 
L 414.925705 161.013912 
L 415.825045 161.976378 
L 416.724386 160.104184 
L 417.623727 161.053466 
L 418.523068 160.974359 
L 419.422409 162.319174 
L 420.32175 160.381058 
L 421.221091 161.462184 
L 422.120432 159.181272 
L 423.919114 161.093019 
L 424.818455 160.20966 
L 425.717795 159.761388 
L 426.617136 159.08898 
L 427.516477 157.111311 
L 428.415818 159.049427 
L 429.315159 158.891213 
L 430.2145 158.97032 
L 431.113841 156.359796 
L 432.013182 159.616359 
L 432.013182 159.616359 
" clip-path="url(#pdde158c1b6)" style="fill: none; stroke: #ffa500; stroke-width: 1.5; stroke-linecap: square"/>
   </g>
   <g id="line2d_18">
    <path d="M 72.276818 282.113229 
L 73.176159 283.56352 
L 74.0755 281.9682 
L 74.974841 281.82317 
L 75.874182 283.708549 
L 76.773523 280.662937 
L 77.672864 284.143636 
L 78.572205 282.403287 
L 79.471545 281.098025 
L 80.370886 281.533112 
L 81.270227 280.952996 
L 82.169568 281.243054 
L 83.068909 282.838374 
L 83.96825 281.82317 
L 84.867591 281.098025 
L 85.766932 280.807967 
L 86.666273 280.952996 
L 87.565614 281.678141 
L 88.464955 279.067617 
L 89.364295 277.907384 
L 90.263636 280.662937 
L 91.162977 280.372879 
L 92.062318 278.342472 
L 92.961659 278.777559 
L 93.861 278.487501 
L 94.760341 276.167035 
L 95.659682 277.907384 
L 96.559023 276.457093 
L 97.458364 273.266452 
L 98.357705 272.831365 
L 99.257045 273.70154 
L 100.156386 273.121423 
L 101.055727 275.006802 
L 101.955068 273.556511 
L 102.854409 270.945986 
L 103.75375 269.930782 
L 104.653091 267.755346 
L 105.552432 269.495695 
L 106.451773 270.075812 
L 107.351114 267.320258 
L 108.250455 265.43488 
L 109.149795 268.62552 
L 110.049136 266.595113 
L 110.948477 267.900375 
L 111.847818 261.809152 
L 112.747159 263.114414 
L 113.6465 263.69453 
L 114.545841 260.213831 
L 115.445182 260.793948 
L 116.344523 261.519093 
L 117.243864 257.313249 
L 118.143205 258.76354 
L 119.042545 255.42787 
L 119.941886 252.672317 
L 120.841227 255.572899 
L 121.740568 253.252434 
L 123.53925 250.786938 
L 124.438591 250.931968 
L 125.337932 245.56589 
L 127.136614 250.49688 
L 128.035955 244.115599 
L 128.935295 249.336647 
L 129.834636 246.146007 
L 130.733977 246.581094 
L 131.633318 239.184609 
L 132.532659 242.375249 
L 133.432 240.6349 
L 134.331341 245.275832 
L 135.230682 240.779929 
L 136.130023 238.459463 
L 137.029364 240.344842 
L 137.928705 239.474667 
L 138.828045 240.344842 
L 139.727386 237.589288 
L 140.626727 235.268822 
L 141.526068 242.085191 
L 142.425409 239.909754 
L 143.32475 234.398648 
L 144.224091 240.489871 
L 146.022773 234.543677 
L 146.922114 234.543677 
L 147.821455 236.864143 
L 148.720795 237.009172 
L 149.620136 237.29923 
L 150.519477 234.543677 
L 151.418818 234.543677 
L 152.318159 232.36824 
L 153.2175 233.383444 
L 154.116841 232.803327 
L 155.016182 221.491056 
L 155.915523 230.77292 
L 156.814864 231.062978 
L 157.714205 230.482861 
L 158.613545 224.536668 
L 159.512886 231.062978 
L 160.412227 226.131988 
L 161.311568 229.902745 
L 162.210909 228.742512 
L 163.11025 228.597483 
L 164.009591 227.002163 
L 164.908932 227.147192 
L 165.808273 222.071172 
L 166.707614 225.551871 
L 167.606955 227.43725 
L 168.506295 218.735503 
L 169.405636 223.666493 
L 170.304977 226.712104 
L 171.204318 219.895736 
L 172.103659 221.055969 
L 173.003 216.415037 
L 173.902341 221.781114 
L 174.801682 224.246609 
L 176.600364 222.071172 
L 177.499705 216.415037 
L 178.399045 219.750707 
L 179.298386 217.720299 
L 181.996409 220.910939 
L 182.89575 210.90393 
L 183.795091 218.590474 
L 184.694432 217.720299 
L 185.593773 215.254804 
L 186.493114 213.659483 
L 187.392455 219.315619 
L 188.291795 214.674687 
L 189.191136 213.224396 
L 190.090477 217.720299 
L 190.989818 210.613872 
L 191.889159 213.949542 
L 192.7885 207.56826 
L 193.687841 216.270008 
L 194.587182 212.064163 
L 195.486523 213.514454 
L 196.385864 210.323814 
L 197.285205 212.064163 
L 198.184545 207.278202 
L 199.083886 212.789309 
L 199.983227 208.003348 
L 200.882568 208.583464 
L 201.781909 205.102765 
L 202.68125 209.598668 
L 203.580591 205.537853 
L 204.479932 208.438435 
L 205.379273 213.224396 
L 206.278614 209.453639 
L 207.177955 208.728493 
L 208.077295 210.323814 
L 208.976636 211.339017 
L 209.875977 206.262998 
L 210.775318 209.453639 
L 211.674659 200.751892 
L 212.574 207.278202 
L 213.473341 208.438435 
L 214.372682 204.667678 
L 215.272023 199.881717 
L 217.070705 209.018552 
L 217.970045 201.767095 
L 218.869386 199.591659 
L 219.768727 208.293406 
L 220.668068 197.126164 
L 221.567409 202.782299 
L 222.46675 200.026746 
L 223.366091 204.812707 
L 225.164773 195.385814 
L 226.064114 204.957736 
L 226.963455 196.691076 
L 227.862795 198.431426 
L 228.762136 199.011542 
L 229.661477 197.126164 
L 230.560818 205.247794 
L 232.3595 196.255989 
L 233.258841 204.667678 
L 234.158182 190.019737 
L 235.057523 196.546047 
L 235.956864 196.691076 
L 236.856205 193.500436 
L 237.755545 197.70628 
L 238.654886 195.530843 
L 239.554227 197.70628 
L 240.453568 200.606862 
L 242.25225 189.43962 
L 243.151591 196.546047 
L 244.050932 192.77529 
L 244.950273 198.721484 
L 245.849614 189.43962 
L 246.748955 193.210377 
L 247.648295 190.599853 
L 248.547636 191.615057 
L 249.446977 193.210377 
L 250.346318 192.630261 
L 251.245659 194.950727 
L 252.145 191.615057 
L 253.044341 190.599853 
L 253.943682 187.699271 
L 254.843023 190.019737 
L 255.742364 194.225581 
L 256.641705 197.126164 
L 257.541045 195.675872 
L 258.440386 187.699271 
L 259.339727 191.470028 
L 260.239068 189.43962 
L 261.138409 183.348397 
L 262.03775 187.554242 
L 262.937091 193.500436 
L 263.836432 187.119154 
L 264.735773 194.080552 
L 265.635114 188.569445 
L 266.534455 187.119154 
L 267.433795 191.03494 
L 269.232477 187.699271 
L 270.131818 183.058339 
L 271.031159 189.294591 
L 272.829841 178.997523 
L 273.729182 193.790494 
L 274.628523 183.783484 
L 275.527864 184.073543 
L 276.427205 185.668863 
L 277.326545 186.974125 
L 278.225886 183.928514 
L 279.125227 183.203368 
L 280.024568 190.164766 
L 280.923909 189.43962 
L 281.82325 181.17296 
L 282.722591 181.17296 
L 283.621932 177.547232 
L 285.420614 186.974125 
L 286.319955 178.127349 
L 287.219295 185.523834 
L 288.118636 190.019737 
L 289.017977 179.722669 
L 289.917318 180.447815 
L 290.816659 182.478222 
L 291.716 182.623251 
L 292.615341 180.447815 
L 293.514682 186.684067 
L 294.414023 181.608048 
L 295.313364 175.226766 
L 296.212705 175.661854 
L 297.112045 180.157756 
L 298.011386 183.493426 
L 298.910727 174.211562 
L 299.810068 175.371795 
L 300.709409 176.822087 
L 301.60875 178.562436 
L 302.508091 179.722669 
L 303.407432 172.9063 
L 304.306773 172.181155 
L 306.105455 178.852494 
L 307.004795 178.562436 
L 307.904136 174.501621 
L 308.803477 180.882902 
L 309.702818 179.867698 
L 310.602159 172.9063 
L 311.5015 168.845485 
L 312.400841 174.211562 
L 313.300182 183.783484 
L 314.199523 172.326184 
L 315.098864 175.516825 
L 315.998205 171.020922 
L 316.897545 173.921504 
L 317.796886 180.302786 
L 318.696227 172.181155 
L 319.595568 169.135543 
L 320.494909 171.165951 
L 321.39425 176.967116 
L 322.293591 168.410398 
L 323.192932 174.791679 
L 324.092273 176.096941 
L 324.991614 173.051329 
L 325.890955 177.402203 
L 326.790295 167.830281 
L 327.689636 179.142553 
L 328.588977 172.326184 
L 329.488318 173.196359 
L 330.387659 168.410398 
L 331.287 170.150747 
L 332.186341 169.280572 
L 333.085682 169.425601 
L 333.985023 166.815077 
L 334.884364 166.525019 
L 335.783705 173.051329 
L 336.683045 171.601038 
L 337.582386 164.204553 
L 338.481727 172.036126 
L 339.381068 165.944903 
L 340.280409 164.349582 
L 341.17975 176.24197 
L 342.079091 170.440805 
L 342.978432 177.402203 
L 343.877773 166.960106 
L 344.777114 168.555427 
L 345.676455 165.509815 
L 346.575795 163.334378 
L 347.475136 170.295776 
L 348.374477 166.089932 
L 349.273818 171.020922 
L 350.173159 168.555427 
L 351.0725 175.371795 
L 351.971841 165.654844 
L 352.871182 169.425601 
L 353.770523 167.250165 
L 354.669864 172.181155 
L 355.569205 168.265368 
L 356.468545 167.685252 
L 357.367886 166.960106 
L 358.267227 171.165951 
L 359.166568 164.349582 
L 360.065909 170.005718 
L 360.96525 164.929699 
L 361.864591 165.364786 
L 362.763932 166.089932 
L 363.663273 168.120339 
L 364.562614 165.364786 
L 365.461955 160.288767 
L 366.361295 157.533213 
L 367.260636 162.029116 
L 368.159977 162.464204 
L 369.059318 158.838476 
L 369.958659 154.342573 
L 370.858 163.334378 
L 371.757341 161.449 
L 372.656682 161.449 
L 373.556023 162.174145 
L 374.455364 160.868883 
L 375.354705 163.189349 
L 376.254045 159.563621 
L 377.153386 162.754262 
L 378.052727 162.029116 
L 378.952068 156.953097 
L 379.851409 163.479407 
L 380.75075 158.838476 
L 381.650091 161.739058 
L 382.549432 152.167136 
L 383.448773 159.418592 
L 384.348114 157.968301 
L 385.247455 159.563621 
L 386.146795 157.823272 
L 387.046136 150.281757 
L 387.945477 162.609233 
L 388.844818 162.899291 
L 389.744159 163.769466 
L 390.6435 158.11333 
L 391.542841 157.678243 
L 392.442182 160.723854 
L 393.341523 155.647835 
L 394.240864 155.792864 
L 395.140205 157.533213 
L 396.039545 148.976495 
L 396.938886 154.632631 
L 397.838227 155.067718 
L 398.737568 154.487602 
L 399.636909 154.77766 
L 400.53625 157.823272 
L 401.435591 151.732049 
L 402.334932 161.884087 
L 403.234273 158.11333 
L 404.133614 149.701641 
L 405.032955 157.678243 
L 405.932295 158.258359 
L 406.831636 152.312165 
L 407.730977 160.868883 
L 408.630318 151.44199 
L 409.529659 153.037311 
L 410.429 157.678243 
L 411.328341 155.357777 
L 412.227682 152.602223 
L 413.127023 156.227951 
L 414.026364 148.541408 
L 415.825045 159.998709 
L 416.724386 146.801058 
L 417.623727 153.472398 
L 418.523068 149.266554 
L 420.32175 153.18234 
L 421.221091 145.930884 
L 422.120432 149.556612 
L 423.019773 155.212748 
L 423.919114 149.266554 
L 424.818455 147.816262 
L 425.717795 156.082922 
L 426.617136 152.457194 
L 427.516477 148.106321 
L 428.415818 147.961291 
L 429.315159 153.762456 
L 430.2145 157.243155 
L 431.113841 146.946088 
L 432.013182 153.327369 
L 432.013182 153.327369 
" clip-path="url(#pdde158c1b6)" style="fill: none; stroke: #0000ff; stroke-width: 1.5; stroke-linecap: square"/>
   </g>
   <g id="patch_3">
    <path d="M 54.29 297.16 
L 54.29 10.8 
" style="fill: none; stroke: #000000; stroke-width: 0.8; stroke-linejoin: miter; stroke-linecap: square"/>
   </g>
   <g id="patch_4">
    <path d="M 450 297.16 
L 450 10.8 
" style="fill: none; stroke: #000000; stroke-width: 0.8; stroke-linejoin: miter; stroke-linecap: square"/>
   </g>
   <g id="patch_5">
    <path d="M 54.29 297.16 
L 450 297.16 
" style="fill: none; stroke: #000000; stroke-width: 0.8; stroke-linejoin: miter; stroke-linecap: square"/>
   </g>
   <g id="patch_6">
    <path d="M 54.29 10.8 
L 450 10.8 
" style="fill: none; stroke: #000000; stroke-width: 0.8; stroke-linejoin: miter; stroke-linecap: square"/>
   </g>
   <g id="legend_1">
    <g id="patch_7">
     <path d="M 303.09 289.16 
L 438.8 289.16 
Q 442 289.16 442 285.96 
L 442 193.62 
Q 442 190.42 438.8 190.42 
L 303.09 190.42 
Q 299.89 190.42 299.89 193.62 
L 299.89 285.96 
Q 299.89 289.16 303.09 289.16 
z
" style="fill: #ffffff; opacity: 0.8; stroke: #cccccc; stroke-linejoin: miter"/>
    </g>
    <g id="line2d_19">
     <path d="M 306.29 203.3775 
L 322.29 203.3775 
L 338.29 203.3775 
" style="fill: none; stroke: #000000; stroke-width: 1.5; stroke-linecap: square"/>
    </g>
    <g id="text_17">
     <!-- Scaffnew -->
     <g transform="translate(351.09 208.9775) scale(0.16 -0.16)">
      <defs>
       <path id="DejaVuSans-53" d="M 3425 4513 
L 3425 3897 
Q 3066 4069 2747 4153 
Q 2428 4238 2131 4238 
Q 1616 4238 1336 4038 
Q 1056 3838 1056 3469 
Q 1056 3159 1242 3001 
Q 1428 2844 1947 2747 
L 2328 2669 
Q 3034 2534 3370 2195 
Q 3706 1856 3706 1288 
Q 3706 609 3251 259 
Q 2797 -91 1919 -91 
Q 1588 -91 1214 -16 
Q 841 59 441 206 
L 441 856 
Q 825 641 1194 531 
Q 1563 422 1919 422 
Q 2459 422 2753 634 
Q 3047 847 3047 1241 
Q 3047 1584 2836 1778 
Q 2625 1972 2144 2069 
L 1759 2144 
Q 1053 2284 737 2584 
Q 422 2884 422 3419 
Q 422 4038 858 4394 
Q 1294 4750 2059 4750 
Q 2388 4750 2728 4690 
Q 3069 4631 3425 4513 
z
" transform="scale(0.015625)"/>
       <path id="DejaVuSans-66" d="M 2375 4863 
L 2375 4384 
L 1825 4384 
Q 1516 4384 1395 4259 
Q 1275 4134 1275 3809 
L 1275 3500 
L 2222 3500 
L 2222 3053 
L 1275 3053 
L 1275 0 
L 697 0 
L 697 3053 
L 147 3053 
L 147 3500 
L 697 3500 
L 697 3744 
Q 697 4328 969 4595 
Q 1241 4863 1831 4863 
L 2375 4863 
z
" transform="scale(0.015625)"/>
       <path id="DejaVuSans-65" d="M 3597 1894 
L 3597 1613 
L 953 1613 
Q 991 1019 1311 708 
Q 1631 397 2203 397 
Q 2534 397 2845 478 
Q 3156 559 3463 722 
L 3463 178 
Q 3153 47 2828 -22 
Q 2503 -91 2169 -91 
Q 1331 -91 842 396 
Q 353 884 353 1716 
Q 353 2575 817 3079 
Q 1281 3584 2069 3584 
Q 2775 3584 3186 3129 
Q 3597 2675 3597 1894 
z
M 3022 2063 
Q 3016 2534 2758 2815 
Q 2500 3097 2075 3097 
Q 1594 3097 1305 2825 
Q 1016 2553 972 2059 
L 3022 2063 
z
" transform="scale(0.015625)"/>
       <path id="DejaVuSans-77" d="M 269 3500 
L 844 3500 
L 1563 769 
L 2278 3500 
L 2956 3500 
L 3675 769 
L 4391 3500 
L 4966 3500 
L 4050 0 
L 3372 0 
L 2619 2869 
L 1863 0 
L 1184 0 
L 269 3500 
z
" transform="scale(0.015625)"/>
      </defs>
      <use xlink:href="#DejaVuSans-53"/>
      <use xlink:href="#DejaVuSans-63" x="63.476562"/>
      <use xlink:href="#DejaVuSans-61" x="118.457031"/>
      <use xlink:href="#DejaVuSans-66" x="179.736328"/>
      <use xlink:href="#DejaVuSans-66" x="214.941406"/>
      <use xlink:href="#DejaVuSans-6e" x="250.146484"/>
      <use xlink:href="#DejaVuSans-65" x="313.525391"/>
      <use xlink:href="#DejaVuSans-77" x="375.048828"/>
     </g>
    </g>
    <g id="line2d_20">
     <path d="M 306.29 226.8625 
L 322.29 226.8625 
L 338.29 226.8625 
" style="fill: none; stroke: #ff0000; stroke-width: 1.5; stroke-linecap: square"/>
    </g>
    <g id="text_18">
     <!-- Fedrcu -->
     <g transform="translate(351.09 232.4625) scale(0.16 -0.16)">
      <defs>
       <path id="DejaVuSans-46" d="M 628 4666 
L 3309 4666 
L 3309 4134 
L 1259 4134 
L 1259 2759 
L 3109 2759 
L 3109 2228 
L 1259 2228 
L 1259 0 
L 628 0 
L 628 4666 
z
" transform="scale(0.015625)"/>
      </defs>
      <use xlink:href="#DejaVuSans-46"/>
      <use xlink:href="#DejaVuSans-65" x="52.019531"/>
      <use xlink:href="#DejaVuSans-64" x="113.542969"/>
      <use xlink:href="#DejaVuSans-72" x="177.019531"/>
      <use xlink:href="#DejaVuSans-63" x="215.882812"/>
      <use xlink:href="#DejaVuSans-75" x="270.863281"/>
     </g>
    </g>
    <g id="line2d_21">
     <path d="M 306.29 250.3475 
L 322.29 250.3475 
L 338.29 250.3475 
" style="fill: none; stroke: #ffa500; stroke-width: 1.5; stroke-linecap: square"/>
    </g>
    <g id="text_19">
     <!-- SCAFFOLD -->
     <g transform="translate(351.09 255.9475) scale(0.16 -0.16)">
      <defs>
       <path id="DejaVuSans-4f" d="M 2522 4238 
Q 1834 4238 1429 3725 
Q 1025 3213 1025 2328 
Q 1025 1447 1429 934 
Q 1834 422 2522 422 
Q 3209 422 3611 934 
Q 4013 1447 4013 2328 
Q 4013 3213 3611 3725 
Q 3209 4238 2522 4238 
z
M 2522 4750 
Q 3503 4750 4090 4092 
Q 4678 3434 4678 2328 
Q 4678 1225 4090 567 
Q 3503 -91 2522 -91 
Q 1538 -91 948 565 
Q 359 1222 359 2328 
Q 359 3434 948 4092 
Q 1538 4750 2522 4750 
z
" transform="scale(0.015625)"/>
       <path id="DejaVuSans-4c" d="M 628 4666 
L 1259 4666 
L 1259 531 
L 3531 531 
L 3531 0 
L 628 0 
L 628 4666 
z
" transform="scale(0.015625)"/>
       <path id="DejaVuSans-44" d="M 1259 4147 
L 1259 519 
L 2022 519 
Q 2988 519 3436 956 
Q 3884 1394 3884 2338 
Q 3884 3275 3436 3711 
Q 2988 4147 2022 4147 
L 1259 4147 
z
M 628 4666 
L 1925 4666 
Q 3281 4666 3915 4102 
Q 4550 3538 4550 2338 
Q 4550 1131 3912 565 
Q 3275 0 1925 0 
L 628 0 
L 628 4666 
z
" transform="scale(0.015625)"/>
      </defs>
      <use xlink:href="#DejaVuSans-53"/>
      <use xlink:href="#DejaVuSans-43" x="63.476562"/>
      <use xlink:href="#DejaVuSans-41" x="133.300781"/>
      <use xlink:href="#DejaVuSans-46" x="201.708984"/>
      <use xlink:href="#DejaVuSans-46" x="259.228516"/>
      <use xlink:href="#DejaVuSans-4f" x="316.748047"/>
      <use xlink:href="#DejaVuSans-4c" x="395.458984"/>
      <use xlink:href="#DejaVuSans-44" x="451.171875"/>
     </g>
    </g>
    <g id="line2d_22">
     <path d="M 306.29 273.8325 
L 322.29 273.8325 
L 338.29 273.8325 
" style="fill: none; stroke: #0000ff; stroke-width: 1.5; stroke-linecap: square"/>
    </g>
    <g id="text_20">
     <!-- FedLin -->
     <g transform="translate(351.09 279.4325) scale(0.16 -0.16)">
      <use xlink:href="#DejaVuSans-46"/>
      <use xlink:href="#DejaVuSans-65" x="52.019531"/>
      <use xlink:href="#DejaVuSans-64" x="113.542969"/>
      <use xlink:href="#DejaVuSans-4c" x="177.019531"/>
      <use xlink:href="#DejaVuSans-69" x="232.732422"/>
      <use xlink:href="#DejaVuSans-6e" x="260.515625"/>
     </g>
    </g>
   </g>
  </g>
 </g>
 <defs>
  <clipPath id="pdde158c1b6">
   <rect x="54.29" y="10.8" width="395.71" height="286.36"/>
  </clipPath>
 </defs>
</svg>
