<?xml version="1.0" encoding="utf-8" standalone="no"?>
<!DOCTYPE svg PUBLIC "-//W3C//DTD SVG 1.1//EN"
  "http://www.w3.org/Graphics/SVG/1.1/DTD/svg11.dtd">
<svg xmlns:xlink="http://www.w3.org/1999/xlink" width="460.8pt" height="345.6pt" viewBox="0 0 460.8 345.6" xmlns="http://www.w3.org/2000/svg" version="1.1">
 <metadata>
  <rdf:RDF xmlns:dc="http://purl.org/dc/elements/1.1/" xmlns:cc="http://creativecommons.org/ns#" xmlns:rdf="http://www.w3.org/1999/02/22-rdf-syntax-ns#">
   <cc:Work>
    <dc:type rdf:resource="http://purl.org/dc/dcmitype/StillImage"/>
    <dc:date>2025-09-23T21:00:08.775511</dc:date>
    <dc:format>image/svg+xml</dc:format>
    <dc:creator>
     <cc:Agent>
      <dc:title>Matplotlib v3.8.4, https://matplotlib.org/</dc:title>
     </cc:Agent>
    </dc:creator>
   </cc:Work>
  </rdf:RDF>
 </metadata>
 <defs>
  <style type="text/css">*{stroke-linejoin: round; stroke-linecap: butt}</style>
 </defs>
 <g id="figure_1">
  <g id="patch_1">
   <path d="M 0 345.6 
L 460.8 345.6 
L 460.8 0 
L 0 0 
z
" style="fill: #ffffff"/>
  </g>
  <g id="axes_1">
   <g id="patch_2">
    <path d="M 54.29 297.16 
L 450 297.16 
L 450 10.8 
L 54.29 10.8 
z
" style="fill: #ffffff"/>
   </g>
   <g id="matplotlib.axis_1">
    <g id="xtick_1">
     <g id="line2d_1">
      <defs>
       <path id="ma3dee31f85" d="M 0 0 
L 0 3.5 
" style="stroke: #000000; stroke-width: 0.8"/>
      </defs>
      <g>
       <use xlink:href="#ma3dee31f85" x="70.478136" y="297.16" style="stroke: #000000; stroke-width: 0.8"/>
      </g>
     </g>
     <g id="text_1">
      <!-- 0 -->
      <g transform="translate(67.296886 311.758438) scale(0.1 -0.1)">
       <defs>
        <path id="DejaVuSans-30" d="M 2034 4250 
Q 1547 4250 1301 3770 
Q 1056 3291 1056 2328 
Q 1056 1369 1301 889 
Q 1547 409 2034 409 
Q 2525 409 2770 889 
Q 3016 1369 3016 2328 
Q 3016 3291 2770 3770 
Q 2525 4250 2034 4250 
z
M 2034 4750 
Q 2819 4750 3233 4129 
Q 3647 3509 3647 2328 
Q 3647 1150 3233 529 
Q 2819 -91 2034 -91 
Q 1250 -91 836 529 
Q 422 1150 422 2328 
Q 422 3509 836 4129 
Q 1250 4750 2034 4750 
z
" transform="scale(0.015625)"/>
       </defs>
       <use xlink:href="#DejaVuSans-30"/>
      </g>
     </g>
    </g>
    <g id="xtick_2">
     <g id="line2d_2">
      <g>
       <use xlink:href="#ma3dee31f85" x="115.445182" y="297.16" style="stroke: #000000; stroke-width: 0.8"/>
      </g>
     </g>
     <g id="text_2">
      <!-- 250 -->
      <g transform="translate(105.901432 311.758438) scale(0.1 -0.1)">
       <defs>
        <path id="DejaVuSans-32" d="M 1228 531 
L 3431 531 
L 3431 0 
L 469 0 
L 469 531 
Q 828 903 1448 1529 
Q 2069 2156 2228 2338 
Q 2531 2678 2651 2914 
Q 2772 3150 2772 3378 
Q 2772 3750 2511 3984 
Q 2250 4219 1831 4219 
Q 1534 4219 1204 4116 
Q 875 4013 500 3803 
L 500 4441 
Q 881 4594 1212 4672 
Q 1544 4750 1819 4750 
Q 2544 4750 2975 4387 
Q 3406 4025 3406 3419 
Q 3406 3131 3298 2873 
Q 3191 2616 2906 2266 
Q 2828 2175 2409 1742 
Q 1991 1309 1228 531 
z
" transform="scale(0.015625)"/>
        <path id="DejaVuSans-35" d="M 691 4666 
L 3169 4666 
L 3169 4134 
L 1269 4134 
L 1269 2991 
Q 1406 3038 1543 3061 
Q 1681 3084 1819 3084 
Q 2600 3084 3056 2656 
Q 3513 2228 3513 1497 
Q 3513 744 3044 326 
Q 2575 -91 1722 -91 
Q 1428 -91 1123 -41 
Q 819 9 494 109 
L 494 744 
Q 775 591 1075 516 
Q 1375 441 1709 441 
Q 2250 441 2565 725 
Q 2881 1009 2881 1497 
Q 2881 1984 2565 2268 
Q 2250 2553 1709 2553 
Q 1456 2553 1204 2497 
Q 953 2441 691 2322 
L 691 4666 
z
" transform="scale(0.015625)"/>
       </defs>
       <use xlink:href="#DejaVuSans-32"/>
       <use xlink:href="#DejaVuSans-35" x="63.623047"/>
       <use xlink:href="#DejaVuSans-30" x="127.246094"/>
      </g>
     </g>
    </g>
    <g id="xtick_3">
     <g id="line2d_3">
      <g>
       <use xlink:href="#ma3dee31f85" x="160.412227" y="297.16" style="stroke: #000000; stroke-width: 0.8"/>
      </g>
     </g>
     <g id="text_3">
      <!-- 500 -->
      <g transform="translate(150.868477 311.758438) scale(0.1 -0.1)">
       <use xlink:href="#DejaVuSans-35"/>
       <use xlink:href="#DejaVuSans-30" x="63.623047"/>
       <use xlink:href="#DejaVuSans-30" x="127.246094"/>
      </g>
     </g>
    </g>
    <g id="xtick_4">
     <g id="line2d_4">
      <g>
       <use xlink:href="#ma3dee31f85" x="205.379273" y="297.16" style="stroke: #000000; stroke-width: 0.8"/>
      </g>
     </g>
     <g id="text_4">
      <!-- 750 -->
      <g transform="translate(195.835523 311.758438) scale(0.1 -0.1)">
       <defs>
        <path id="DejaVuSans-37" d="M 525 4666 
L 3525 4666 
L 3525 4397 
L 1831 0 
L 1172 0 
L 2766 4134 
L 525 4134 
L 525 4666 
z
" transform="scale(0.015625)"/>
       </defs>
       <use xlink:href="#DejaVuSans-37"/>
       <use xlink:href="#DejaVuSans-35" x="63.623047"/>
       <use xlink:href="#DejaVuSans-30" x="127.246094"/>
      </g>
     </g>
    </g>
    <g id="xtick_5">
     <g id="line2d_5">
      <g>
       <use xlink:href="#ma3dee31f85" x="250.346318" y="297.16" style="stroke: #000000; stroke-width: 0.8"/>
      </g>
     </g>
     <g id="text_5">
      <!-- 1000 -->
      <g transform="translate(237.621318 311.758438) scale(0.1 -0.1)">
       <defs>
        <path id="DejaVuSans-31" d="M 794 531 
L 1825 531 
L 1825 4091 
L 703 3866 
L 703 4441 
L 1819 4666 
L 2450 4666 
L 2450 531 
L 3481 531 
L 3481 0 
L 794 0 
L 794 531 
z
" transform="scale(0.015625)"/>
       </defs>
       <use xlink:href="#DejaVuSans-31"/>
       <use xlink:href="#DejaVuSans-30" x="63.623047"/>
       <use xlink:href="#DejaVuSans-30" x="127.246094"/>
       <use xlink:href="#DejaVuSans-30" x="190.869141"/>
      </g>
     </g>
    </g>
    <g id="xtick_6">
     <g id="line2d_6">
      <g>
       <use xlink:href="#ma3dee31f85" x="295.313364" y="297.16" style="stroke: #000000; stroke-width: 0.8"/>
      </g>
     </g>
     <g id="text_6">
      <!-- 1250 -->
      <g transform="translate(282.588364 311.758438) scale(0.1 -0.1)">
       <use xlink:href="#DejaVuSans-31"/>
       <use xlink:href="#DejaVuSans-32" x="63.623047"/>
       <use xlink:href="#DejaVuSans-35" x="127.246094"/>
       <use xlink:href="#DejaVuSans-30" x="190.869141"/>
      </g>
     </g>
    </g>
    <g id="xtick_7">
     <g id="line2d_7">
      <g>
       <use xlink:href="#ma3dee31f85" x="340.280409" y="297.16" style="stroke: #000000; stroke-width: 0.8"/>
      </g>
     </g>
     <g id="text_7">
      <!-- 1500 -->
      <g transform="translate(327.555409 311.758438) scale(0.1 -0.1)">
       <use xlink:href="#DejaVuSans-31"/>
       <use xlink:href="#DejaVuSans-35" x="63.623047"/>
       <use xlink:href="#DejaVuSans-30" x="127.246094"/>
       <use xlink:href="#DejaVuSans-30" x="190.869141"/>
      </g>
     </g>
    </g>
    <g id="xtick_8">
     <g id="line2d_8">
      <g>
       <use xlink:href="#ma3dee31f85" x="385.247455" y="297.16" style="stroke: #000000; stroke-width: 0.8"/>
      </g>
     </g>
     <g id="text_8">
      <!-- 1750 -->
      <g transform="translate(372.522455 311.758438) scale(0.1 -0.1)">
       <use xlink:href="#DejaVuSans-31"/>
       <use xlink:href="#DejaVuSans-37" x="63.623047"/>
       <use xlink:href="#DejaVuSans-35" x="127.246094"/>
       <use xlink:href="#DejaVuSans-30" x="190.869141"/>
      </g>
     </g>
    </g>
    <g id="xtick_9">
     <g id="line2d_9">
      <g>
       <use xlink:href="#ma3dee31f85" x="430.2145" y="297.16" style="stroke: #000000; stroke-width: 0.8"/>
      </g>
     </g>
     <g id="text_9">
      <!-- 2000 -->
      <g transform="translate(417.4895 311.758438) scale(0.1 -0.1)">
       <use xlink:href="#DejaVuSans-32"/>
       <use xlink:href="#DejaVuSans-30" x="63.623047"/>
       <use xlink:href="#DejaVuSans-30" x="127.246094"/>
       <use xlink:href="#DejaVuSans-30" x="190.869141"/>
      </g>
     </g>
    </g>
    <g id="text_10">
     <!-- Communication Rounds -->
     <g transform="translate(157.06875 329.995625) scale(0.16 -0.16)">
      <defs>
       <path id="DejaVuSans-43" d="M 4122 4306 
L 4122 3641 
Q 3803 3938 3442 4084 
Q 3081 4231 2675 4231 
Q 1875 4231 1450 3742 
Q 1025 3253 1025 2328 
Q 1025 1406 1450 917 
Q 1875 428 2675 428 
Q 3081 428 3442 575 
Q 3803 722 4122 1019 
L 4122 359 
Q 3791 134 3420 21 
Q 3050 -91 2638 -91 
Q 1578 -91 968 557 
Q 359 1206 359 2328 
Q 359 3453 968 4101 
Q 1578 4750 2638 4750 
Q 3056 4750 3426 4639 
Q 3797 4528 4122 4306 
z
" transform="scale(0.015625)"/>
       <path id="DejaVuSans-6f" d="M 1959 3097 
Q 1497 3097 1228 2736 
Q 959 2375 959 1747 
Q 959 1119 1226 758 
Q 1494 397 1959 397 
Q 2419 397 2687 759 
Q 2956 1122 2956 1747 
Q 2956 2369 2687 2733 
Q 2419 3097 1959 3097 
z
M 1959 3584 
Q 2709 3584 3137 3096 
Q 3566 2609 3566 1747 
Q 3566 888 3137 398 
Q 2709 -91 1959 -91 
Q 1206 -91 779 398 
Q 353 888 353 1747 
Q 353 2609 779 3096 
Q 1206 3584 1959 3584 
z
" transform="scale(0.015625)"/>
       <path id="DejaVuSans-6d" d="M 3328 2828 
Q 3544 3216 3844 3400 
Q 4144 3584 4550 3584 
Q 5097 3584 5394 3201 
Q 5691 2819 5691 2113 
L 5691 0 
L 5113 0 
L 5113 2094 
Q 5113 2597 4934 2840 
Q 4756 3084 4391 3084 
Q 3944 3084 3684 2787 
Q 3425 2491 3425 1978 
L 3425 0 
L 2847 0 
L 2847 2094 
Q 2847 2600 2669 2842 
Q 2491 3084 2119 3084 
Q 1678 3084 1418 2786 
Q 1159 2488 1159 1978 
L 1159 0 
L 581 0 
L 581 3500 
L 1159 3500 
L 1159 2956 
Q 1356 3278 1631 3431 
Q 1906 3584 2284 3584 
Q 2666 3584 2933 3390 
Q 3200 3197 3328 2828 
z
" transform="scale(0.015625)"/>
       <path id="DejaVuSans-75" d="M 544 1381 
L 544 3500 
L 1119 3500 
L 1119 1403 
Q 1119 906 1312 657 
Q 1506 409 1894 409 
Q 2359 409 2629 706 
Q 2900 1003 2900 1516 
L 2900 3500 
L 3475 3500 
L 3475 0 
L 2900 0 
L 2900 538 
Q 2691 219 2414 64 
Q 2138 -91 1772 -91 
Q 1169 -91 856 284 
Q 544 659 544 1381 
z
M 1991 3584 
L 1991 3584 
z
" transform="scale(0.015625)"/>
       <path id="DejaVuSans-6e" d="M 3513 2113 
L 3513 0 
L 2938 0 
L 2938 2094 
Q 2938 2591 2744 2837 
Q 2550 3084 2163 3084 
Q 1697 3084 1428 2787 
Q 1159 2491 1159 1978 
L 1159 0 
L 581 0 
L 581 3500 
L 1159 3500 
L 1159 2956 
Q 1366 3272 1645 3428 
Q 1925 3584 2291 3584 
Q 2894 3584 3203 3211 
Q 3513 2838 3513 2113 
z
" transform="scale(0.015625)"/>
       <path id="DejaVuSans-69" d="M 603 3500 
L 1178 3500 
L 1178 0 
L 603 0 
L 603 3500 
z
M 603 4863 
L 1178 4863 
L 1178 4134 
L 603 4134 
L 603 4863 
z
" transform="scale(0.015625)"/>
       <path id="DejaVuSans-63" d="M 3122 3366 
L 3122 2828 
Q 2878 2963 2633 3030 
Q 2388 3097 2138 3097 
Q 1578 3097 1268 2742 
Q 959 2388 959 1747 
Q 959 1106 1268 751 
Q 1578 397 2138 397 
Q 2388 397 2633 464 
Q 2878 531 3122 666 
L 3122 134 
Q 2881 22 2623 -34 
Q 2366 -91 2075 -91 
Q 1284 -91 818 406 
Q 353 903 353 1747 
Q 353 2603 823 3093 
Q 1294 3584 2113 3584 
Q 2378 3584 2631 3529 
Q 2884 3475 3122 3366 
z
" transform="scale(0.015625)"/>
       <path id="DejaVuSans-61" d="M 2194 1759 
Q 1497 1759 1228 1600 
Q 959 1441 959 1056 
Q 959 750 1161 570 
Q 1363 391 1709 391 
Q 2188 391 2477 730 
Q 2766 1069 2766 1631 
L 2766 1759 
L 2194 1759 
z
M 3341 1997 
L 3341 0 
L 2766 0 
L 2766 531 
Q 2569 213 2275 61 
Q 1981 -91 1556 -91 
Q 1019 -91 701 211 
Q 384 513 384 1019 
Q 384 1609 779 1909 
Q 1175 2209 1959 2209 
L 2766 2209 
L 2766 2266 
Q 2766 2663 2505 2880 
Q 2244 3097 1772 3097 
Q 1472 3097 1187 3025 
Q 903 2953 641 2809 
L 641 3341 
Q 956 3463 1253 3523 
Q 1550 3584 1831 3584 
Q 2591 3584 2966 3190 
Q 3341 2797 3341 1997 
z
" transform="scale(0.015625)"/>
       <path id="DejaVuSans-74" d="M 1172 4494 
L 1172 3500 
L 2356 3500 
L 2356 3053 
L 1172 3053 
L 1172 1153 
Q 1172 725 1289 603 
Q 1406 481 1766 481 
L 2356 481 
L 2356 0 
L 1766 0 
Q 1100 0 847 248 
Q 594 497 594 1153 
L 594 3053 
L 172 3053 
L 172 3500 
L 594 3500 
L 594 4494 
L 1172 4494 
z
" transform="scale(0.015625)"/>
       <path id="DejaVuSans-20" transform="scale(0.015625)"/>
       <path id="DejaVuSans-52" d="M 2841 2188 
Q 3044 2119 3236 1894 
Q 3428 1669 3622 1275 
L 4263 0 
L 3584 0 
L 2988 1197 
Q 2756 1666 2539 1819 
Q 2322 1972 1947 1972 
L 1259 1972 
L 1259 0 
L 628 0 
L 628 4666 
L 2053 4666 
Q 2853 4666 3247 4331 
Q 3641 3997 3641 3322 
Q 3641 2881 3436 2590 
Q 3231 2300 2841 2188 
z
M 1259 4147 
L 1259 2491 
L 2053 2491 
Q 2509 2491 2742 2702 
Q 2975 2913 2975 3322 
Q 2975 3731 2742 3939 
Q 2509 4147 2053 4147 
L 1259 4147 
z
" transform="scale(0.015625)"/>
       <path id="DejaVuSans-64" d="M 2906 2969 
L 2906 4863 
L 3481 4863 
L 3481 0 
L 2906 0 
L 2906 525 
Q 2725 213 2448 61 
Q 2172 -91 1784 -91 
Q 1150 -91 751 415 
Q 353 922 353 1747 
Q 353 2572 751 3078 
Q 1150 3584 1784 3584 
Q 2172 3584 2448 3432 
Q 2725 3281 2906 2969 
z
M 947 1747 
Q 947 1113 1208 752 
Q 1469 391 1925 391 
Q 2381 391 2643 752 
Q 2906 1113 2906 1747 
Q 2906 2381 2643 2742 
Q 2381 3103 1925 3103 
Q 1469 3103 1208 2742 
Q 947 2381 947 1747 
z
" transform="scale(0.015625)"/>
       <path id="DejaVuSans-73" d="M 2834 3397 
L 2834 2853 
Q 2591 2978 2328 3040 
Q 2066 3103 1784 3103 
Q 1356 3103 1142 2972 
Q 928 2841 928 2578 
Q 928 2378 1081 2264 
Q 1234 2150 1697 2047 
L 1894 2003 
Q 2506 1872 2764 1633 
Q 3022 1394 3022 966 
Q 3022 478 2636 193 
Q 2250 -91 1575 -91 
Q 1294 -91 989 -36 
Q 684 19 347 128 
L 347 722 
Q 666 556 975 473 
Q 1284 391 1588 391 
Q 1994 391 2212 530 
Q 2431 669 2431 922 
Q 2431 1156 2273 1281 
Q 2116 1406 1581 1522 
L 1381 1569 
Q 847 1681 609 1914 
Q 372 2147 372 2553 
Q 372 3047 722 3315 
Q 1072 3584 1716 3584 
Q 2034 3584 2315 3537 
Q 2597 3491 2834 3397 
z
" transform="scale(0.015625)"/>
      </defs>
      <use xlink:href="#DejaVuSans-43"/>
      <use xlink:href="#DejaVuSans-6f" x="69.824219"/>
      <use xlink:href="#DejaVuSans-6d" x="131.005859"/>
      <use xlink:href="#DejaVuSans-6d" x="228.417969"/>
      <use xlink:href="#DejaVuSans-75" x="325.830078"/>
      <use xlink:href="#DejaVuSans-6e" x="389.208984"/>
      <use xlink:href="#DejaVuSans-69" x="452.587891"/>
      <use xlink:href="#DejaVuSans-63" x="480.371094"/>
      <use xlink:href="#DejaVuSans-61" x="535.351562"/>
      <use xlink:href="#DejaVuSans-74" x="596.630859"/>
      <use xlink:href="#DejaVuSans-69" x="635.839844"/>
      <use xlink:href="#DejaVuSans-6f" x="663.623047"/>
      <use xlink:href="#DejaVuSans-6e" x="724.804688"/>
      <use xlink:href="#DejaVuSans-20" x="788.183594"/>
      <use xlink:href="#DejaVuSans-52" x="819.970703"/>
      <use xlink:href="#DejaVuSans-6f" x="884.953125"/>
      <use xlink:href="#DejaVuSans-75" x="946.134766"/>
      <use xlink:href="#DejaVuSans-6e" x="1009.513672"/>
      <use xlink:href="#DejaVuSans-64" x="1072.892578"/>
      <use xlink:href="#DejaVuSans-73" x="1136.369141"/>
     </g>
    </g>
   </g>
   <g id="matplotlib.axis_2">
    <g id="ytick_1">
     <g id="line2d_10">
      <defs>
       <path id="m3799c6096a" d="M 0 0 
L -3.5 0 
" style="stroke: #000000; stroke-width: 0.8"/>
      </defs>
      <g>
       <use xlink:href="#m3799c6096a" x="54.29" y="278.814314" style="stroke: #000000; stroke-width: 0.8"/>
      </g>
     </g>
     <g id="text_11">
      <!-- 0.1 -->
      <g transform="translate(31.386875 282.613533) scale(0.1 -0.1)">
       <defs>
        <path id="DejaVuSans-2e" d="M 684 794 
L 1344 794 
L 1344 0 
L 684 0 
L 684 794 
z
" transform="scale(0.015625)"/>
       </defs>
       <use xlink:href="#DejaVuSans-30"/>
       <use xlink:href="#DejaVuSans-2e" x="63.623047"/>
       <use xlink:href="#DejaVuSans-31" x="95.410156"/>
      </g>
     </g>
    </g>
    <g id="ytick_2">
     <g id="line2d_11">
      <g>
       <use xlink:href="#m3799c6096a" x="54.29" y="235.640058" style="stroke: #000000; stroke-width: 0.8"/>
      </g>
     </g>
     <g id="text_12">
      <!-- 0.2 -->
      <g transform="translate(31.386875 239.439277) scale(0.1 -0.1)">
       <use xlink:href="#DejaVuSans-30"/>
       <use xlink:href="#DejaVuSans-2e" x="63.623047"/>
       <use xlink:href="#DejaVuSans-32" x="95.410156"/>
      </g>
     </g>
    </g>
    <g id="ytick_3">
     <g id="line2d_12">
      <g>
       <use xlink:href="#m3799c6096a" x="54.29" y="192.465802" style="stroke: #000000; stroke-width: 0.8"/>
      </g>
     </g>
     <g id="text_13">
      <!-- 0.3 -->
      <g transform="translate(31.386875 196.265021) scale(0.1 -0.1)">
       <defs>
        <path id="DejaVuSans-33" d="M 2597 2516 
Q 3050 2419 3304 2112 
Q 3559 1806 3559 1356 
Q 3559 666 3084 287 
Q 2609 -91 1734 -91 
Q 1441 -91 1130 -33 
Q 819 25 488 141 
L 488 750 
Q 750 597 1062 519 
Q 1375 441 1716 441 
Q 2309 441 2620 675 
Q 2931 909 2931 1356 
Q 2931 1769 2642 2001 
Q 2353 2234 1838 2234 
L 1294 2234 
L 1294 2753 
L 1863 2753 
Q 2328 2753 2575 2939 
Q 2822 3125 2822 3475 
Q 2822 3834 2567 4026 
Q 2313 4219 1838 4219 
Q 1578 4219 1281 4162 
Q 984 4106 628 3988 
L 628 4550 
Q 988 4650 1302 4700 
Q 1616 4750 1894 4750 
Q 2613 4750 3031 4423 
Q 3450 4097 3450 3541 
Q 3450 3153 3228 2886 
Q 3006 2619 2597 2516 
z
" transform="scale(0.015625)"/>
       </defs>
       <use xlink:href="#DejaVuSans-30"/>
       <use xlink:href="#DejaVuSans-2e" x="63.623047"/>
       <use xlink:href="#DejaVuSans-33" x="95.410156"/>
      </g>
     </g>
    </g>
    <g id="ytick_4">
     <g id="line2d_13">
      <g>
       <use xlink:href="#m3799c6096a" x="54.29" y="149.291546" style="stroke: #000000; stroke-width: 0.8"/>
      </g>
     </g>
     <g id="text_14">
      <!-- 0.4 -->
      <g transform="translate(31.386875 153.090764) scale(0.1 -0.1)">
       <defs>
        <path id="DejaVuSans-34" d="M 2419 4116 
L 825 1625 
L 2419 1625 
L 2419 4116 
z
M 2253 4666 
L 3047 4666 
L 3047 1625 
L 3713 1625 
L 3713 1100 
L 3047 1100 
L 3047 0 
L 2419 0 
L 2419 1100 
L 313 1100 
L 313 1709 
L 2253 4666 
z
" transform="scale(0.015625)"/>
       </defs>
       <use xlink:href="#DejaVuSans-30"/>
       <use xlink:href="#DejaVuSans-2e" x="63.623047"/>
       <use xlink:href="#DejaVuSans-34" x="95.410156"/>
      </g>
     </g>
    </g>
    <g id="ytick_5">
     <g id="line2d_14">
      <g>
       <use xlink:href="#m3799c6096a" x="54.29" y="106.117289" style="stroke: #000000; stroke-width: 0.8"/>
      </g>
     </g>
     <g id="text_15">
      <!-- 0.5 -->
      <g transform="translate(31.386875 109.916508) scale(0.1 -0.1)">
       <use xlink:href="#DejaVuSans-30"/>
       <use xlink:href="#DejaVuSans-2e" x="63.623047"/>
       <use xlink:href="#DejaVuSans-35" x="95.410156"/>
      </g>
     </g>
    </g>
    <g id="ytick_6">
     <g id="line2d_15">
      <g>
       <use xlink:href="#m3799c6096a" x="54.29" y="62.943033" style="stroke: #000000; stroke-width: 0.8"/>
      </g>
     </g>
     <g id="text_16">
      <!-- 0.6 -->
      <g transform="translate(31.386875 66.742252) scale(0.1 -0.1)">
       <defs>
        <path id="DejaVuSans-36" d="M 2113 2584 
Q 1688 2584 1439 2293 
Q 1191 2003 1191 1497 
Q 1191 994 1439 701 
Q 1688 409 2113 409 
Q 2538 409 2786 701 
Q 3034 994 3034 1497 
Q 3034 2003 2786 2293 
Q 2538 2584 2113 2584 
z
M 3366 4563 
L 3366 3988 
Q 3128 4100 2886 4159 
Q 2644 4219 2406 4219 
Q 1781 4219 1451 3797 
Q 1122 3375 1075 2522 
Q 1259 2794 1537 2939 
Q 1816 3084 2150 3084 
Q 2853 3084 3261 2657 
Q 3669 2231 3669 1497 
Q 3669 778 3244 343 
Q 2819 -91 2113 -91 
Q 1303 -91 875 529 
Q 447 1150 447 2328 
Q 447 3434 972 4092 
Q 1497 4750 2381 4750 
Q 2619 4750 2861 4703 
Q 3103 4656 3366 4563 
z
" transform="scale(0.015625)"/>
       </defs>
       <use xlink:href="#DejaVuSans-30"/>
       <use xlink:href="#DejaVuSans-2e" x="63.623047"/>
       <use xlink:href="#DejaVuSans-36" x="95.410156"/>
      </g>
     </g>
    </g>
    <g id="ytick_7">
     <g id="line2d_16">
      <g>
       <use xlink:href="#m3799c6096a" x="54.29" y="19.768777" style="stroke: #000000; stroke-width: 0.8"/>
      </g>
     </g>
     <g id="text_17">
      <!-- 0.7 -->
      <g transform="translate(31.386875 23.567996) scale(0.1 -0.1)">
       <use xlink:href="#DejaVuSans-30"/>
       <use xlink:href="#DejaVuSans-2e" x="63.623047"/>
       <use xlink:href="#DejaVuSans-37" x="95.410156"/>
      </g>
     </g>
    </g>
    <g id="text_18">
     <!-- Train Accuracy -->
     <g transform="translate(24.059375 212.2375) rotate(-90) scale(0.16 -0.16)">
      <defs>
       <path id="DejaVuSans-54" d="M -19 4666 
L 3928 4666 
L 3928 4134 
L 2272 4134 
L 2272 0 
L 1638 0 
L 1638 4134 
L -19 4134 
L -19 4666 
z
" transform="scale(0.015625)"/>
       <path id="DejaVuSans-72" d="M 2631 2963 
Q 2534 3019 2420 3045 
Q 2306 3072 2169 3072 
Q 1681 3072 1420 2755 
Q 1159 2438 1159 1844 
L 1159 0 
L 581 0 
L 581 3500 
L 1159 3500 
L 1159 2956 
Q 1341 3275 1631 3429 
Q 1922 3584 2338 3584 
Q 2397 3584 2469 3576 
Q 2541 3569 2628 3553 
L 2631 2963 
z
" transform="scale(0.015625)"/>
       <path id="DejaVuSans-41" d="M 2188 4044 
L 1331 1722 
L 3047 1722 
L 2188 4044 
z
M 1831 4666 
L 2547 4666 
L 4325 0 
L 3669 0 
L 3244 1197 
L 1141 1197 
L 716 0 
L 50 0 
L 1831 4666 
z
" transform="scale(0.015625)"/>
       <path id="DejaVuSans-79" d="M 2059 -325 
Q 1816 -950 1584 -1140 
Q 1353 -1331 966 -1331 
L 506 -1331 
L 506 -850 
L 844 -850 
Q 1081 -850 1212 -737 
Q 1344 -625 1503 -206 
L 1606 56 
L 191 3500 
L 800 3500 
L 1894 763 
L 2988 3500 
L 3597 3500 
L 2059 -325 
z
" transform="scale(0.015625)"/>
      </defs>
      <use xlink:href="#DejaVuSans-54"/>
      <use xlink:href="#DejaVuSans-72" x="46.333984"/>
      <use xlink:href="#DejaVuSans-61" x="87.447266"/>
      <use xlink:href="#DejaVuSans-69" x="148.726562"/>
      <use xlink:href="#DejaVuSans-6e" x="176.509766"/>
      <use xlink:href="#DejaVuSans-20" x="239.888672"/>
      <use xlink:href="#DejaVuSans-41" x="271.675781"/>
      <use xlink:href="#DejaVuSans-63" x="338.333984"/>
      <use xlink:href="#DejaVuSans-63" x="393.314453"/>
      <use xlink:href="#DejaVuSans-75" x="448.294922"/>
      <use xlink:href="#DejaVuSans-72" x="511.673828"/>
      <use xlink:href="#DejaVuSans-61" x="552.787109"/>
      <use xlink:href="#DejaVuSans-63" x="614.066406"/>
      <use xlink:href="#DejaVuSans-79" x="669.046875"/>
     </g>
    </g>
   </g>
   <g id="line2d_17">
    <path d="M 72.456686 235.517404 
L 74.435236 238.645084 
L 76.413786 223.190663 
L 78.392336 227.667539 
L 80.370886 237.418543 
L 82.349436 215.463452 
L 84.327986 218.284498 
L 86.306536 212.887716 
L 88.285086 202.278133 
L 90.263636 200.744956 
L 92.242186 219.633693 
L 94.220736 199.947704 
L 96.199286 199.457088 
L 98.177836 186.946366 
L 100.156386 206.080411 
L 102.134936 203.014058 
L 104.113486 203.198039 
L 106.092036 211.047904 
L 108.070586 196.942678 
L 110.049136 196.513388 
L 112.027686 198.537182 
L 114.006236 208.962783 
L 115.984786 188.479542 
L 117.963336 186.701057 
L 119.941886 192.895091 
L 121.920436 207.858896 
L 123.898986 189.031486 
L 125.877536 176.582091 
L 127.856086 173.393084 
L 129.834636 197.923911 
L 131.813186 178.48323 
L 133.791736 191.852531 
L 135.770286 179.096501 
L 137.748836 195.900118 
L 139.727386 187.68229 
L 141.705936 200.193012 
L 143.684486 196.69737 
L 145.663036 199.334433 
L 147.641586 193.814997 
L 149.620136 178.973847 
L 151.598686 165.29791 
L 153.577236 175.600858 
L 155.555786 180.323042 
L 157.534336 168.118956 
L 159.512886 160.514399 
L 161.491436 172.963794 
L 163.469986 181.488257 
L 165.448536 178.360576 
L 167.427086 173.8837 
L 169.405636 188.050253 
L 171.384186 177.624651 
L 173.362736 166.463125 
L 175.341286 157.999989 
L 177.319836 163.274117 
L 179.298386 158.367952 
L 181.276936 163.028809 
L 183.255486 169.958768 
L 185.234036 146.715809 
L 187.212586 132.119966 
L 189.191136 157.325392 
L 191.169686 147.513061 
L 193.148236 184.983899 
L 195.126786 141.993624 
L 197.105336 148.187658 
L 199.083886 144.078745 
L 201.062436 154.627001 
L 203.040986 145.243959 
L 205.019536 140.889737 
L 206.998086 144.875997 
L 208.976636 156.650794 
L 210.955186 158.797241 
L 212.933736 143.220166 
L 214.912286 144.078745 
L 216.890836 142.484241 
L 218.869386 137.332767 
L 220.847936 149.4142 
L 222.826486 136.044899 
L 224.805036 133.1012 
L 226.783586 147.329079 
L 228.762136 126.784512 
L 230.740686 125.312662 
L 234.697786 136.842151 
L 236.676336 137.087459 
L 238.654886 133.959779 
L 240.633436 133.346508 
L 242.611986 150.702068 
L 244.590536 157.202737 
L 246.569086 160.759707 
L 248.547636 149.046237 
L 250.526186 124.331429 
L 252.504736 139.233906 
L 254.483286 129.298921 
L 256.461836 129.728211 
L 258.440386 129.421575 
L 260.418936 121.142421 
L 262.397486 121.510384 
L 264.376036 130.034846 
L 266.354586 153.032497 
L 268.333136 136.474188 
L 270.311686 137.27144 
L 272.290236 113.292556 
L 274.268786 127.213801 
L 276.247336 125.925933 
L 278.225886 121.571711 
L 280.204436 112.80194 
L 282.182986 112.433978 
L 284.161536 116.297583 
L 286.140086 113.415211 
L 288.118636 115.92962 
L 290.097186 122.982233 
L 292.075736 113.108575 
L 294.054286 156.466813 
L 296.032836 111.207436 
L 298.011386 111.943361 
L 299.989936 114.825733 
L 301.968486 132.119966 
L 303.947036 125.435316 
L 305.925586 115.92962 
L 307.904136 144.078745 
L 309.882686 112.740613 
L 311.861236 114.948387 
L 313.839786 130.770771 
L 315.818336 151.683301 
L 317.796886 110.900801 
L 319.775436 114.27379 
L 321.753986 130.893425 
L 323.732536 110.164876 
L 325.711086 107.711793 
L 327.689636 119.547917 
L 329.668186 112.311323 
L 331.646736 128.07238 
L 333.625286 111.636726 
L 335.603836 125.864605 
L 337.582386 122.736925 
L 339.560936 112.127342 
L 341.539486 103.970842 
L 343.518036 115.990947 
L 345.496586 109.551605 
L 347.475136 113.783173 
L 349.453686 111.514071 
L 351.432236 113.599192 
L 353.410786 100.475199 
L 355.389336 113.353884 
L 357.367886 108.754353 
L 359.346436 119.547917 
L 361.324986 117.769432 
L 363.303536 112.80194 
L 365.282086 102.13103 
L 367.260636 122.614271 
L 369.239186 118.014741 
L 371.217736 122.552944 
L 373.196286 98.328752 
L 375.174836 111.33009 
L 377.153386 129.850865 
L 379.131936 137.516748 
L 381.110486 105.749327 
L 383.089036 102.069703 
L 385.067586 101.824395 
L 387.046136 135.063666 
L 389.024686 112.004688 
L 391.003236 112.617959 
L 392.981786 106.853214 
L 394.960336 119.363936 
L 396.938886 102.315011 
L 398.917436 106.607906 
L 400.895986 110.28753 
L 402.874536 111.882034 
L 406.831636 102.805628 
L 408.810186 164.378004 
L 410.788736 104.461459 
L 412.767286 100.04591 
L 414.745836 106.669233 
L 416.724386 100.04591 
L 418.702936 116.420237 
L 420.681486 112.495305 
L 420.681486 112.495305 
" clip-path="url(#pda9a9aa8ab)" style="fill: none; stroke: #000000; stroke-width: 1.5; stroke-linecap: square"/>
   </g>
   <g id="line2d_18">
    <path d="M 72.276818 275.778624 
L 74.0755 256.957347 
L 75.874182 218.437815 
L 77.672864 214.457689 
L 79.471545 199.279239 
L 81.270227 191.521365 
L 83.068909 185.517445 
L 84.867591 174.791341 
L 86.666273 172.227869 
L 88.464955 171.350892 
L 90.263636 159.275592 
L 92.062318 159.545431 
L 93.861 157.926397 
L 95.659682 142.613028 
L 97.458364 148.00981 
L 99.257045 145.648718 
L 101.055727 143.692384 
L 102.854409 133.910717 
L 104.653091 127.164739 
L 106.451773 131.954383 
L 108.250455 120.89098 
L 110.049136 119.137026 
L 111.847818 121.633038 
L 113.6465 115.156899 
L 115.445182 116.775934 
L 117.243864 116.843394 
L 119.042545 110.164876 
L 120.841227 115.156899 
L 122.639909 117.652911 
L 124.438591 109.01806 
L 126.237273 105.510151 
L 128.035955 102.609381 
L 129.834636 103.149059 
L 131.633318 104.700634 
L 133.432 97.684818 
L 135.230682 98.899094 
L 137.029364 98.494335 
L 138.828045 100.04591 
L 140.626727 91.07376 
L 142.425409 92.288036 
L 144.224091 89.454725 
L 146.022773 88.915047 
L 147.821455 91.343599 
L 149.620136 83.315885 
L 151.418818 84.260322 
L 153.2175 80.347655 
L 155.016182 90.87138 
L 156.814864 83.923023 
L 158.613545 80.145276 
L 160.412227 83.180966 
L 162.210909 81.292092 
L 164.009591 75.355632 
L 165.808273 76.772287 
L 167.606955 69.284252 
L 169.405636 77.446885 
L 171.204318 74.950873 
L 173.003 80.145276 
L 174.801682 75.760391 
L 176.600364 75.82785 
L 178.399045 70.970747 
L 180.197727 75.89531 
L 181.996409 70.296149 
L 183.795091 72.117563 
L 185.593773 68.946953 
L 187.392455 66.316022 
L 189.191136 66.78824 
L 190.989818 66.181102 
L 192.7885 64.899367 
L 194.587182 60.312102 
L 196.385864 64.966827 
L 198.184545 66.78824 
L 199.983227 62.740654 
L 201.781909 62.673194 
L 203.580591 63.415252 
L 205.379273 58.558148 
L 207.177955 68.002516 
L 208.976636 62.673194 
L 210.775318 65.506505 
L 212.574 58.423228 
L 214.372682 56.534355 
L 216.171364 64.02239 
L 217.970045 60.312102 
L 219.768727 52.419308 
L 221.567409 57.81609 
L 223.366091 53.093906 
L 225.164773 56.466895 
L 226.963455 54.84786 
L 228.762136 56.264516 
L 230.560818 57.208952 
L 232.3595 50.058216 
L 234.158182 48.709021 
L 235.956864 51.339952 
L 237.755545 56.264516 
L 239.554227 46.280469 
L 241.352909 46.078089 
L 243.151591 51.94709 
L 244.950273 50.193136 
L 246.748955 47.966963 
L 248.547636 44.998733 
L 250.346318 55.589918 
L 252.145 51.609791 
L 253.943682 48.574101 
L 255.742364 47.494745 
L 257.541045 45.066193 
L 259.339727 49.113779 
L 261.138409 42.030503 
L 262.937091 49.518538 
L 264.735773 40.411468 
L 266.534455 45.673331 
L 268.333136 43.649538 
L 270.131818 40.613848 
L 271.9305 44.593974 
L 273.729182 42.77256 
L 275.527864 39.399572 
L 277.326545 45.605871 
L 279.125227 42.90748 
L 280.923909 43.919377 
L 282.722591 42.90748 
L 284.521273 40.478928 
L 286.319955 39.534491 
L 288.118636 44.661434 
L 289.917318 38.050376 
L 291.716 42.97494 
L 293.514682 41.963043 
L 295.313364 45.201112 
L 297.112045 38.117836 
L 298.910727 44.526515 
L 300.709409 43.244779 
L 302.508091 34.542468 
L 304.306773 43.716997 
L 306.105455 43.716997 
L 307.904136 40.546388 
L 309.702818 40.276549 
L 311.5015 37.847997 
L 313.300182 43.986836 
L 315.098864 41.220986 
L 316.897545 42.570181 
L 318.696227 35.419445 
L 320.494909 41.423365 
L 322.293591 40.074169 
L 324.092273 40.748767 
L 325.890955 38.252756 
L 327.689636 38.455135 
L 329.488318 34.744847 
L 331.287 31.304399 
L 333.085682 30.83218 
L 334.884364 36.566261 
L 336.683045 33.328192 
L 338.481727 38.522595 
L 342.079091 34.137709 
L 343.877773 41.018606 
L 345.676455 35.351985 
L 347.475136 34.407548 
L 349.273818 41.220986 
L 351.0725 33.80041 
L 352.871182 35.891663 
L 354.669864 36.228962 
L 356.468545 31.641698 
L 358.267227 33.193272 
L 360.065909 32.451215 
L 361.864591 26.784594 
L 363.663273 35.689284 
L 365.461955 37.105939 
L 367.260636 31.709157 
L 369.059318 32.721054 
L 370.858 34.609928 
L 372.656682 35.149606 
L 374.455364 29.820284 
L 376.254045 35.891663 
L 378.052727 33.530571 
L 379.851409 30.022663 
L 381.650091 29.145686 
L 383.448773 31.709157 
L 385.247455 32.923433 
L 387.046136 31.574238 
L 388.844818 30.697261 
L 390.6435 33.598031 
L 392.442182 32.990893 
L 394.240864 28.066329 
L 396.039545 34.677387 
L 397.838227 30.427422 
L 399.636909 31.236939 
L 401.435591 31.844077 
L 403.234273 31.236939 
L 405.032955 35.351985 
L 406.831636 31.574238 
L 408.630318 26.379835 
L 410.429 30.697261 
L 412.227682 28.336169 
L 414.026364 32.248836 
L 415.825045 30.090123 
L 417.623727 28.875847 
L 419.422409 29.348065 
L 421.221091 30.494881 
L 423.019773 27.594111 
L 424.818455 29.280605 
L 426.617136 29.955203 
L 428.415818 32.181376 
L 430.2145 34.070249 
L 432.013182 23.816364 
L 432.013182 23.816364 
" clip-path="url(#pda9a9aa8ab)" style="fill: none; stroke: #ff0000; stroke-width: 1.5; stroke-linecap: square"/>
   </g>
   <g id="line2d_19">
    <path d="M 72.276818 276.10979 
L 74.0755 276.097525 
L 75.874182 271.847559 
L 77.672864 269.026514 
L 79.471545 264.604832 
L 81.270227 259.109927 
L 86.666273 240.797664 
L 88.464955 236.541566 
L 90.263636 231.899107 
L 92.062318 228.158156 
L 93.861 224.975281 
L 95.659682 220.455476 
L 97.458364 219.388385 
L 99.257045 215.285604 
L 101.055727 212.28671 
L 102.854409 208.717475 
L 104.653091 208.50283 
L 106.451773 205.37515 
L 108.250455 203.228702 
L 110.049136 201.315298 
L 111.847818 200.094889 
L 113.6465 198.672101 
L 115.445182 195.440165 
L 117.243864 195.268449 
L 120.841227 190.71798 
L 124.438591 188.381419 
L 126.237273 186.970896 
L 129.834636 182.733196 
L 131.633318 181.702901 
L 133.432 181.371735 
L 135.230682 179.317278 
L 137.029364 178.605884 
L 138.828045 176.226394 
L 140.626727 174.588961 
L 142.425409 174.40498 
L 144.224091 173.215235 
L 146.022773 171.393821 
L 147.821455 171.038124 
L 149.620136 169.854512 
L 151.418818 169.780919 
L 153.2175 167.708064 
L 155.016182 167.002803 
L 156.814864 166.824954 
L 158.613545 165.95411 
L 160.412227 165.371503 
L 162.210909 162.838695 
L 164.009591 162.942951 
L 165.808273 162.433936 
L 169.405636 160.275224 
L 171.204318 158.883099 
L 173.003 157.846672 
L 174.801682 157.73015 
L 176.600364 157.754681 
L 178.399045 157.20887 
L 180.197727 155.405854 
L 181.996409 155.589836 
L 183.795091 152.578676 
L 185.593773 153.504715 
L 187.392455 153.792952 
L 189.191136 152.124856 
L 190.989818 151.95314 
L 192.7885 150.22985 
L 194.587182 150.567149 
L 198.184545 148.058872 
L 199.983227 147.402672 
L 201.781909 147.175762 
L 203.580591 147.476264 
L 205.379273 148.144729 
L 207.177955 146.384643 
L 208.976636 145.415675 
L 210.775318 144.882129 
L 212.574 142.950327 
L 214.372682 143.943825 
L 216.171364 143.422545 
L 217.970045 143.226299 
L 219.768727 143.588128 
L 221.567409 140.583102 
L 223.366091 141.545937 
L 225.164773 140.957197 
L 226.963455 142.104013 
L 228.762136 138.884342 
L 230.560818 137.210113 
L 232.3595 138.172948 
L 234.158182 138.534778 
L 235.956864 137.11199 
L 237.755545 137.915374 
L 239.554227 135.235382 
L 241.352909 134.885817 
L 243.151591 136.38833 
L 244.950273 135.971306 
L 246.748955 134.186689 
L 248.547636 133.413968 
L 250.346318 136.995468 
L 252.145 134.585315 
L 253.943682 134.266414 
L 255.742364 134.223485 
L 257.541045 133.315844 
L 259.339727 132.058639 
L 261.138409 132.855891 
L 262.937091 131.512828 
L 264.735773 130.887292 
L 266.534455 131.071274 
L 268.333136 130.887292 
L 270.131818 130.151368 
L 271.9305 132.034109 
L 273.729182 128.507802 
L 275.527864 129.752742 
L 277.326545 128.084645 
L 279.125227 127.066616 
L 280.923909 128.415812 
L 282.722591 128.538466 
L 284.521273 127.011422 
L 286.319955 127.311924 
L 288.118636 127.489773 
L 289.917318 127.268995 
L 291.716 125.656093 
L 293.514682 126.766113 
L 295.313364 126.698654 
L 297.112045 125.564103 
L 298.910727 125.03669 
L 300.709409 123.705893 
L 302.508091 123.6323 
L 304.306773 125.03669 
L 306.105455 123.515779 
L 307.904136 121.596242 
L 309.702818 122.663333 
L 311.5015 124.116784 
L 313.300182 121.430658 
L 315.098864 121.461322 
L 316.897545 122.050062 
L 318.696227 122.485484 
L 320.494909 120.547549 
L 322.293591 120.326771 
L 324.092273 118.186457 
L 325.890955 118.609613 
L 327.689636 120.547549 
L 329.488318 119.946543 
L 331.287 119.787093 
L 333.085682 117.726504 
L 334.884364 118.28458 
L 336.683045 118.431765 
L 338.481727 118.094466 
L 340.280409 117.622247 
L 342.079091 117.481195 
L 343.877773 115.990947 
L 345.676455 116.487697 
L 347.475136 117.370807 
L 349.273818 116.156531 
L 351.0725 115.751772 
L 352.871182 115.218226 
L 354.669864 116.297583 
L 356.468545 115.721108 
L 358.267227 113.795438 
L 360.065909 116.070673 
L 361.864591 114.132737 
L 363.663273 115.003582 
L 365.461955 113.310955 
L 367.260636 114.862529 
L 369.059318 115.567791 
L 370.858 113.789306 
L 372.656682 113.593059 
L 376.254045 111.857503 
L 378.052727 112.384916 
L 379.851409 111.189038 
L 381.650091 112.605693 
L 383.448773 110.600298 
L 385.247455 110.919199 
L 387.046136 110.379521 
L 388.844818 110.588033 
L 390.6435 111.483408 
L 392.442182 109.146847 
L 394.240864 109.128449 
L 396.039545 106.779622 
L 397.838227 109.220439 
L 401.435591 109.576136 
L 403.234273 108.993529 
L 405.032955 108.282135 
L 408.630318 107.9755 
L 410.429 107.9755 
L 412.227682 106.656968 
L 414.026364 109.827577 
L 415.825045 108.245339 
L 417.623727 107.650466 
L 419.422409 105.902645 
L 421.221091 104.835554 
L 423.019773 105.497886 
L 424.818455 104.504388 
L 426.617136 104.73743 
L 428.415818 104.627042 
L 430.2145 104.21615 
L 432.013182 105.786123 
L 432.013182 105.786123 
" clip-path="url(#pda9a9aa8ab)" style="fill: none; stroke: #ffa500; stroke-width: 1.5; stroke-linecap: square"/>
   </g>
   <g id="line2d_20">
    <path d="M 72.276818 284.143636 
L 75.874182 277.06036 
L 77.672864 272.742934 
L 79.471545 262.556508 
L 81.270227 256.215289 
L 83.068909 253.921657 
L 84.867591 249.132013 
L 86.666273 248.862174 
L 88.464955 241.509058 
L 90.263636 239.485265 
L 92.062318 231.659931 
L 93.861 223.227459 
L 95.659682 228.556782 
L 97.458364 225.318712 
L 99.257045 217.425919 
L 101.055727 215.671964 
L 102.854409 214.390229 
L 104.653091 212.231516 
L 106.451773 212.029137 
L 108.250455 205.687918 
L 110.049136 201.91017 
L 111.847818 204.608561 
L 113.6465 206.227596 
L 115.445182 202.787147 
L 117.243864 196.985607 
L 119.042545 195.299112 
L 120.841227 195.90625 
L 122.639909 198.334802 
L 124.438591 196.580848 
L 126.237273 196.445929 
L 128.035955 198.672101 
L 129.834636 187.06902 
L 131.633318 189.025353 
L 133.432 188.013457 
L 135.230682 188.418215 
L 137.029364 182.009537 
L 138.828045 180.188123 
L 140.626727 183.223813 
L 142.425409 178.973847 
L 144.224091 175.668318 
L 146.022773 180.727801 
L 147.821455 179.041307 
L 149.620136 178.704008 
L 151.418818 175.465938 
L 153.2175 171.013593 
L 155.016182 171.553271 
L 156.814864 170.878674 
L 158.613545 174.8588 
L 162.210909 170.406455 
L 164.009591 169.799317 
L 165.808273 167.100926 
L 167.606955 170.811214 
L 169.405636 169.866777 
L 171.204318 162.378742 
L 173.003 162.378742 
L 174.801682 163.795397 
L 176.600364 167.235846 
L 178.399045 159.073213 
L 180.197727 163.323179 
L 181.996409 166.696168 
L 183.795091 161.569225 
L 185.593773 157.184339 
L 187.392455 158.263696 
L 190.989818 159.140673 
L 192.7885 155.767684 
L 194.587182 154.01373 
L 196.385864 157.589098 
L 198.184545 156.509742 
L 199.983227 150.168523 
L 201.781909 150.97804 
L 203.580591 152.192316 
L 205.379273 156.307362 
L 207.177955 148.819327 
L 208.976636 151.382799 
L 210.775318 148.549488 
L 212.574 151.180419 
L 214.372682 148.00981 
L 216.171364 145.581258 
L 217.970045 148.144729 
L 219.768727 142.680488 
L 221.567409 144.366982 
L 223.366091 147.87489 
L 225.164773 140.656694 
L 226.963455 149.898684 
L 228.762136 146.795534 
L 230.560818 143.152706 
L 232.3595 142.815407 
L 234.158182 143.152706 
L 235.956864 138.093223 
L 237.755545 142.140809 
L 239.554227 137.958303 
L 241.352909 141.93843 
L 243.151591 139.374959 
L 244.950273 135.192453 
L 246.748955 140.454315 
L 248.547636 140.521775 
L 250.346318 134.517855 
L 252.145 133.910717 
L 253.943682 133.573418 
L 255.742364 133.573418 
L 257.541045 134.382935 
L 259.339727 133.843257 
L 261.138409 134.720234 
L 262.937091 132.291682 
L 264.735773 134.517855 
L 266.534455 135.732131 
L 268.333136 131.617085 
L 270.131818 134.517855 
L 271.9305 136.339269 
L 273.729182 129.99805 
L 275.527864 129.660751 
L 277.326545 129.99805 
L 279.125227 131.009947 
L 280.923909 129.188533 
L 282.722591 132.156763 
L 284.521273 127.232199 
L 286.319955 133.168659 
L 288.118636 126.422682 
L 289.917318 124.196509 
L 291.716 125.006027 
L 293.514682 126.085383 
L 295.313364 126.557601 
L 297.112045 127.906797 
L 298.910727 128.648854 
L 300.709409 126.692521 
L 302.508091 127.636958 
L 304.306773 120.89098 
L 306.105455 122.644934 
L 307.904136 122.375095 
L 309.702818 123.319532 
L 311.5015 127.09728 
L 313.300182 124.466348 
L 315.098864 116.438635 
L 316.897545 116.843394 
L 318.696227 117.99021 
L 320.494909 128.311556 
L 322.293591 123.184613 
L 324.092273 124.938567 
L 325.890955 116.573555 
L 327.689636 117.045773 
L 329.488318 122.105256 
L 331.287 117.383072 
L 333.085682 123.85921 
L 334.884364 119.069566 
L 336.683045 118.529888 
L 338.481727 112.323589 
L 340.280409 120.418762 
L 342.079091 120.756061 
L 343.877773 118.394969 
L 345.676455 122.442555 
L 347.475136 117.383072 
L 349.273818 118.529888 
L 351.0725 117.113233 
L 352.871182 117.113233 
L 354.669864 114.482302 
L 356.468545 114.549761 
L 358.267227 114.347382 
L 360.065909 116.708474 
L 361.864591 112.323589 
L 363.663273 116.236256 
L 365.461955 109.827577 
L 367.260636 110.569635 
L 369.059318 110.029956 
L 370.858 115.764037 
L 372.656682 114.549761 
L 374.455364 115.291819 
L 376.254045 108.343462 
L 378.052727 117.315612 
L 379.851409 109.692658 
L 381.650091 110.974393 
L 383.448773 112.05375 
L 385.247455 109.557738 
L 387.046136 107.736324 
L 388.844818 103.823657 
L 390.6435 111.91883 
L 392.442182 112.05375 
L 394.240864 111.98629 
L 396.039545 114.145003 
L 397.838227 105.037933 
L 399.636909 109.220439 
L 401.435591 106.859347 
L 403.234273 107.061726 
L 405.032955 104.768094 
L 406.831636 107.803784 
L 408.630318 105.442692 
L 410.429 104.633174 
L 412.227682 109.557738 
L 414.026364 101.664944 
L 415.825045 104.970473 
L 417.623727 107.871244 
L 419.422409 105.240312 
L 421.221091 107.264106 
L 423.019773 107.803784 
L 424.818455 107.129186 
L 426.617136 106.319669 
L 428.415818 101.664944 
L 430.2145 107.196646 
L 432.013182 100.585588 
L 432.013182 100.585588 
" clip-path="url(#pda9a9aa8ab)" style="fill: none; stroke: #0000ff; stroke-width: 1.5; stroke-linecap: square"/>
   </g>
   <g id="patch_3">
    <path d="M 54.29 297.16 
L 54.29 10.8 
" style="fill: none; stroke: #000000; stroke-width: 0.8; stroke-linejoin: miter; stroke-linecap: square"/>
   </g>
   <g id="patch_4">
    <path d="M 450 297.16 
L 450 10.8 
" style="fill: none; stroke: #000000; stroke-width: 0.8; stroke-linejoin: miter; stroke-linecap: square"/>
   </g>
   <g id="patch_5">
    <path d="M 54.29 297.16 
L 450 297.16 
" style="fill: none; stroke: #000000; stroke-width: 0.8; stroke-linejoin: miter; stroke-linecap: square"/>
   </g>
   <g id="patch_6">
    <path d="M 54.29 10.8 
L 450 10.8 
" style="fill: none; stroke: #000000; stroke-width: 0.8; stroke-linejoin: miter; stroke-linecap: square"/>
   </g>
   <g id="legend_1">
    <g id="patch_7">
     <path d="M 303.09 289.16 
L 438.8 289.16 
Q 442 289.16 442 285.96 
L 442 193.62 
Q 442 190.42 438.8 190.42 
L 303.09 190.42 
Q 299.89 190.42 299.89 193.62 
L 299.89 285.96 
Q 299.89 289.16 303.09 289.16 
z
" style="fill: #ffffff; opacity: 0.8; stroke: #cccccc; stroke-linejoin: miter"/>
    </g>
    <g id="line2d_21">
     <path d="M 306.29 203.3775 
L 322.29 203.3775 
L 338.29 203.3775 
" style="fill: none; stroke: #000000; stroke-width: 1.5; stroke-linecap: square"/>
    </g>
    <g id="text_19">
     <!-- Scaffnew -->
     <g transform="translate(351.09 208.9775) scale(0.16 -0.16)">
      <defs>
       <path id="DejaVuSans-53" d="M 3425 4513 
L 3425 3897 
Q 3066 4069 2747 4153 
Q 2428 4238 2131 4238 
Q 1616 4238 1336 4038 
Q 1056 3838 1056 3469 
Q 1056 3159 1242 3001 
Q 1428 2844 1947 2747 
L 2328 2669 
Q 3034 2534 3370 2195 
Q 3706 1856 3706 1288 
Q 3706 609 3251 259 
Q 2797 -91 1919 -91 
Q 1588 -91 1214 -16 
Q 841 59 441 206 
L 441 856 
Q 825 641 1194 531 
Q 1563 422 1919 422 
Q 2459 422 2753 634 
Q 3047 847 3047 1241 
Q 3047 1584 2836 1778 
Q 2625 1972 2144 2069 
L 1759 2144 
Q 1053 2284 737 2584 
Q 422 2884 422 3419 
Q 422 4038 858 4394 
Q 1294 4750 2059 4750 
Q 2388 4750 2728 4690 
Q 3069 4631 3425 4513 
z
" transform="scale(0.015625)"/>
       <path id="DejaVuSans-66" d="M 2375 4863 
L 2375 4384 
L 1825 4384 
Q 1516 4384 1395 4259 
Q 1275 4134 1275 3809 
L 1275 3500 
L 2222 3500 
L 2222 3053 
L 1275 3053 
L 1275 0 
L 697 0 
L 697 3053 
L 147 3053 
L 147 3500 
L 697 3500 
L 697 3744 
Q 697 4328 969 4595 
Q 1241 4863 1831 4863 
L 2375 4863 
z
" transform="scale(0.015625)"/>
       <path id="DejaVuSans-65" d="M 3597 1894 
L 3597 1613 
L 953 1613 
Q 991 1019 1311 708 
Q 1631 397 2203 397 
Q 2534 397 2845 478 
Q 3156 559 3463 722 
L 3463 178 
Q 3153 47 2828 -22 
Q 2503 -91 2169 -91 
Q 1331 -91 842 396 
Q 353 884 353 1716 
Q 353 2575 817 3079 
Q 1281 3584 2069 3584 
Q 2775 3584 3186 3129 
Q 3597 2675 3597 1894 
z
M 3022 2063 
Q 3016 2534 2758 2815 
Q 2500 3097 2075 3097 
Q 1594 3097 1305 2825 
Q 1016 2553 972 2059 
L 3022 2063 
z
" transform="scale(0.015625)"/>
       <path id="DejaVuSans-77" d="M 269 3500 
L 844 3500 
L 1563 769 
L 2278 3500 
L 2956 3500 
L 3675 769 
L 4391 3500 
L 4966 3500 
L 4050 0 
L 3372 0 
L 2619 2869 
L 1863 0 
L 1184 0 
L 269 3500 
z
" transform="scale(0.015625)"/>
      </defs>
      <use xlink:href="#DejaVuSans-53"/>
      <use xlink:href="#DejaVuSans-63" x="63.476562"/>
      <use xlink:href="#DejaVuSans-61" x="118.457031"/>
      <use xlink:href="#DejaVuSans-66" x="179.736328"/>
      <use xlink:href="#DejaVuSans-66" x="214.941406"/>
      <use xlink:href="#DejaVuSans-6e" x="250.146484"/>
      <use xlink:href="#DejaVuSans-65" x="313.525391"/>
      <use xlink:href="#DejaVuSans-77" x="375.048828"/>
     </g>
    </g>
    <g id="line2d_22">
     <path d="M 306.29 226.8625 
L 322.29 226.8625 
L 338.29 226.8625 
" style="fill: none; stroke: #ff0000; stroke-width: 1.5; stroke-linecap: square"/>
    </g>
    <g id="text_20">
     <!-- Fedrcu -->
     <g transform="translate(351.09 232.4625) scale(0.16 -0.16)">
      <defs>
       <path id="DejaVuSans-46" d="M 628 4666 
L 3309 4666 
L 3309 4134 
L 1259 4134 
L 1259 2759 
L 3109 2759 
L 3109 2228 
L 1259 2228 
L 1259 0 
L 628 0 
L 628 4666 
z
" transform="scale(0.015625)"/>
      </defs>
      <use xlink:href="#DejaVuSans-46"/>
      <use xlink:href="#DejaVuSans-65" x="52.019531"/>
      <use xlink:href="#DejaVuSans-64" x="113.542969"/>
      <use xlink:href="#DejaVuSans-72" x="177.019531"/>
      <use xlink:href="#DejaVuSans-63" x="215.882812"/>
      <use xlink:href="#DejaVuSans-75" x="270.863281"/>
     </g>
    </g>
    <g id="line2d_23">
     <path d="M 306.29 250.3475 
L 322.29 250.3475 
L 338.29 250.3475 
" style="fill: none; stroke: #ffa500; stroke-width: 1.5; stroke-linecap: square"/>
    </g>
    <g id="text_21">
     <!-- SCAFFOLD -->
     <g transform="translate(351.09 255.9475) scale(0.16 -0.16)">
      <defs>
       <path id="DejaVuSans-4f" d="M 2522 4238 
Q 1834 4238 1429 3725 
Q 1025 3213 1025 2328 
Q 1025 1447 1429 934 
Q 1834 422 2522 422 
Q 3209 422 3611 934 
Q 4013 1447 4013 2328 
Q 4013 3213 3611 3725 
Q 3209 4238 2522 4238 
z
M 2522 4750 
Q 3503 4750 4090 4092 
Q 4678 3434 4678 2328 
Q 4678 1225 4090 567 
Q 3503 -91 2522 -91 
Q 1538 -91 948 565 
Q 359 1222 359 2328 
Q 359 3434 948 4092 
Q 1538 4750 2522 4750 
z
" transform="scale(0.015625)"/>
       <path id="DejaVuSans-4c" d="M 628 4666 
L 1259 4666 
L 1259 531 
L 3531 531 
L 3531 0 
L 628 0 
L 628 4666 
z
" transform="scale(0.015625)"/>
       <path id="DejaVuSans-44" d="M 1259 4147 
L 1259 519 
L 2022 519 
Q 2988 519 3436 956 
Q 3884 1394 3884 2338 
Q 3884 3275 3436 3711 
Q 2988 4147 2022 4147 
L 1259 4147 
z
M 628 4666 
L 1925 4666 
Q 3281 4666 3915 4102 
Q 4550 3538 4550 2338 
Q 4550 1131 3912 565 
Q 3275 0 1925 0 
L 628 0 
L 628 4666 
z
" transform="scale(0.015625)"/>
      </defs>
      <use xlink:href="#DejaVuSans-53"/>
      <use xlink:href="#DejaVuSans-43" x="63.476562"/>
      <use xlink:href="#DejaVuSans-41" x="133.300781"/>
      <use xlink:href="#DejaVuSans-46" x="201.708984"/>
      <use xlink:href="#DejaVuSans-46" x="259.228516"/>
      <use xlink:href="#DejaVuSans-4f" x="316.748047"/>
      <use xlink:href="#DejaVuSans-4c" x="395.458984"/>
      <use xlink:href="#DejaVuSans-44" x="451.171875"/>
     </g>
    </g>
    <g id="line2d_24">
     <path d="M 306.29 273.8325 
L 322.29 273.8325 
L 338.29 273.8325 
" style="fill: none; stroke: #0000ff; stroke-width: 1.5; stroke-linecap: square"/>
    </g>
    <g id="text_22">
     <!-- FedLin -->
     <g transform="translate(351.09 279.4325) scale(0.16 -0.16)">
      <use xlink:href="#DejaVuSans-46"/>
      <use xlink:href="#DejaVuSans-65" x="52.019531"/>
      <use xlink:href="#DejaVuSans-64" x="113.542969"/>
      <use xlink:href="#DejaVuSans-4c" x="177.019531"/>
      <use xlink:href="#DejaVuSans-69" x="232.732422"/>
      <use xlink:href="#DejaVuSans-6e" x="260.515625"/>
     </g>
    </g>
   </g>
  </g>
 </g>
 <defs>
  <clipPath id="pda9a9aa8ab">
   <rect x="54.29" y="10.8" width="395.71" height="286.36"/>
  </clipPath>
 </defs>
</svg>
