<?xml version="1.0" encoding="utf-8" standalone="no"?>
<!DOCTYPE svg PUBLIC "-//W3C//DTD SVG 1.1//EN"
  "http://www.w3.org/Graphics/SVG/1.1/DTD/svg11.dtd">
<svg xmlns:xlink="http://www.w3.org/1999/xlink" width="460.8pt" height="345.6pt" viewBox="0 0 460.8 345.6" xmlns="http://www.w3.org/2000/svg" version="1.1">
 <metadata>
  <rdf:RDF xmlns:dc="http://purl.org/dc/elements/1.1/" xmlns:cc="http://creativecommons.org/ns#" xmlns:rdf="http://www.w3.org/1999/02/22-rdf-syntax-ns#">
   <cc:Work>
    <dc:type rdf:resource="http://purl.org/dc/dcmitype/StillImage"/>
    <dc:date>2025-09-23T20:50:41.080215</dc:date>
    <dc:format>image/svg+xml</dc:format>
    <dc:creator>
     <cc:Agent>
      <dc:title>Matplotlib v3.8.4, https://matplotlib.org/</dc:title>
     </cc:Agent>
    </dc:creator>
   </cc:Work>
  </rdf:RDF>
 </metadata>
 <defs>
  <style type="text/css">*{stroke-linejoin: round; stroke-linecap: butt}</style>
 </defs>
 <g id="figure_1">
  <g id="patch_1">
   <path d="M 0 345.6 
L 460.8 345.6 
L 460.8 0 
L 0 0 
z
" style="fill: #ffffff"/>
  </g>
  <g id="axes_1">
   <g id="patch_2">
    <path d="M 54.29 297.16 
L 450 297.16 
L 450 10.8 
L 54.29 10.8 
z
" style="fill: #ffffff"/>
   </g>
   <g id="matplotlib.axis_1">
    <g id="xtick_1">
     <g id="line2d_1">
      <defs>
       <path id="m63495ce893" d="M 0 0 
L 0 3.5 
" style="stroke: #000000; stroke-width: 0.8"/>
      </defs>
      <g>
       <use xlink:href="#m63495ce893" x="70.478136" y="297.16" style="stroke: #000000; stroke-width: 0.8"/>
      </g>
     </g>
     <g id="text_1">
      <!-- 0 -->
      <g transform="translate(67.296886 311.758438) scale(0.1 -0.1)">
       <defs>
        <path id="DejaVuSans-30" d="M 2034 4250 
Q 1547 4250 1301 3770 
Q 1056 3291 1056 2328 
Q 1056 1369 1301 889 
Q 1547 409 2034 409 
Q 2525 409 2770 889 
Q 3016 1369 3016 2328 
Q 3016 3291 2770 3770 
Q 2525 4250 2034 4250 
z
M 2034 4750 
Q 2819 4750 3233 4129 
Q 3647 3509 3647 2328 
Q 3647 1150 3233 529 
Q 2819 -91 2034 -91 
Q 1250 -91 836 529 
Q 422 1150 422 2328 
Q 422 3509 836 4129 
Q 1250 4750 2034 4750 
z
" transform="scale(0.015625)"/>
       </defs>
       <use xlink:href="#DejaVuSans-30"/>
      </g>
     </g>
    </g>
    <g id="xtick_2">
     <g id="line2d_2">
      <g>
       <use xlink:href="#m63495ce893" x="115.445182" y="297.16" style="stroke: #000000; stroke-width: 0.8"/>
      </g>
     </g>
     <g id="text_2">
      <!-- 250 -->
      <g transform="translate(105.901432 311.758438) scale(0.1 -0.1)">
       <defs>
        <path id="DejaVuSans-32" d="M 1228 531 
L 3431 531 
L 3431 0 
L 469 0 
L 469 531 
Q 828 903 1448 1529 
Q 2069 2156 2228 2338 
Q 2531 2678 2651 2914 
Q 2772 3150 2772 3378 
Q 2772 3750 2511 3984 
Q 2250 4219 1831 4219 
Q 1534 4219 1204 4116 
Q 875 4013 500 3803 
L 500 4441 
Q 881 4594 1212 4672 
Q 1544 4750 1819 4750 
Q 2544 4750 2975 4387 
Q 3406 4025 3406 3419 
Q 3406 3131 3298 2873 
Q 3191 2616 2906 2266 
Q 2828 2175 2409 1742 
Q 1991 1309 1228 531 
z
" transform="scale(0.015625)"/>
        <path id="DejaVuSans-35" d="M 691 4666 
L 3169 4666 
L 3169 4134 
L 1269 4134 
L 1269 2991 
Q 1406 3038 1543 3061 
Q 1681 3084 1819 3084 
Q 2600 3084 3056 2656 
Q 3513 2228 3513 1497 
Q 3513 744 3044 326 
Q 2575 -91 1722 -91 
Q 1428 -91 1123 -41 
Q 819 9 494 109 
L 494 744 
Q 775 591 1075 516 
Q 1375 441 1709 441 
Q 2250 441 2565 725 
Q 2881 1009 2881 1497 
Q 2881 1984 2565 2268 
Q 2250 2553 1709 2553 
Q 1456 2553 1204 2497 
Q 953 2441 691 2322 
L 691 4666 
z
" transform="scale(0.015625)"/>
       </defs>
       <use xlink:href="#DejaVuSans-32"/>
       <use xlink:href="#DejaVuSans-35" x="63.623047"/>
       <use xlink:href="#DejaVuSans-30" x="127.246094"/>
      </g>
     </g>
    </g>
    <g id="xtick_3">
     <g id="line2d_3">
      <g>
       <use xlink:href="#m63495ce893" x="160.412227" y="297.16" style="stroke: #000000; stroke-width: 0.8"/>
      </g>
     </g>
     <g id="text_3">
      <!-- 500 -->
      <g transform="translate(150.868477 311.758438) scale(0.1 -0.1)">
       <use xlink:href="#DejaVuSans-35"/>
       <use xlink:href="#DejaVuSans-30" x="63.623047"/>
       <use xlink:href="#DejaVuSans-30" x="127.246094"/>
      </g>
     </g>
    </g>
    <g id="xtick_4">
     <g id="line2d_4">
      <g>
       <use xlink:href="#m63495ce893" x="205.379273" y="297.16" style="stroke: #000000; stroke-width: 0.8"/>
      </g>
     </g>
     <g id="text_4">
      <!-- 750 -->
      <g transform="translate(195.835523 311.758438) scale(0.1 -0.1)">
       <defs>
        <path id="DejaVuSans-37" d="M 525 4666 
L 3525 4666 
L 3525 4397 
L 1831 0 
L 1172 0 
L 2766 4134 
L 525 4134 
L 525 4666 
z
" transform="scale(0.015625)"/>
       </defs>
       <use xlink:href="#DejaVuSans-37"/>
       <use xlink:href="#DejaVuSans-35" x="63.623047"/>
       <use xlink:href="#DejaVuSans-30" x="127.246094"/>
      </g>
     </g>
    </g>
    <g id="xtick_5">
     <g id="line2d_5">
      <g>
       <use xlink:href="#m63495ce893" x="250.346318" y="297.16" style="stroke: #000000; stroke-width: 0.8"/>
      </g>
     </g>
     <g id="text_5">
      <!-- 1000 -->
      <g transform="translate(237.621318 311.758438) scale(0.1 -0.1)">
       <defs>
        <path id="DejaVuSans-31" d="M 794 531 
L 1825 531 
L 1825 4091 
L 703 3866 
L 703 4441 
L 1819 4666 
L 2450 4666 
L 2450 531 
L 3481 531 
L 3481 0 
L 794 0 
L 794 531 
z
" transform="scale(0.015625)"/>
       </defs>
       <use xlink:href="#DejaVuSans-31"/>
       <use xlink:href="#DejaVuSans-30" x="63.623047"/>
       <use xlink:href="#DejaVuSans-30" x="127.246094"/>
       <use xlink:href="#DejaVuSans-30" x="190.869141"/>
      </g>
     </g>
    </g>
    <g id="xtick_6">
     <g id="line2d_6">
      <g>
       <use xlink:href="#m63495ce893" x="295.313364" y="297.16" style="stroke: #000000; stroke-width: 0.8"/>
      </g>
     </g>
     <g id="text_6">
      <!-- 1250 -->
      <g transform="translate(282.588364 311.758438) scale(0.1 -0.1)">
       <use xlink:href="#DejaVuSans-31"/>
       <use xlink:href="#DejaVuSans-32" x="63.623047"/>
       <use xlink:href="#DejaVuSans-35" x="127.246094"/>
       <use xlink:href="#DejaVuSans-30" x="190.869141"/>
      </g>
     </g>
    </g>
    <g id="xtick_7">
     <g id="line2d_7">
      <g>
       <use xlink:href="#m63495ce893" x="340.280409" y="297.16" style="stroke: #000000; stroke-width: 0.8"/>
      </g>
     </g>
     <g id="text_7">
      <!-- 1500 -->
      <g transform="translate(327.555409 311.758438) scale(0.1 -0.1)">
       <use xlink:href="#DejaVuSans-31"/>
       <use xlink:href="#DejaVuSans-35" x="63.623047"/>
       <use xlink:href="#DejaVuSans-30" x="127.246094"/>
       <use xlink:href="#DejaVuSans-30" x="190.869141"/>
      </g>
     </g>
    </g>
    <g id="xtick_8">
     <g id="line2d_8">
      <g>
       <use xlink:href="#m63495ce893" x="385.247455" y="297.16" style="stroke: #000000; stroke-width: 0.8"/>
      </g>
     </g>
     <g id="text_8">
      <!-- 1750 -->
      <g transform="translate(372.522455 311.758438) scale(0.1 -0.1)">
       <use xlink:href="#DejaVuSans-31"/>
       <use xlink:href="#DejaVuSans-37" x="63.623047"/>
       <use xlink:href="#DejaVuSans-35" x="127.246094"/>
       <use xlink:href="#DejaVuSans-30" x="190.869141"/>
      </g>
     </g>
    </g>
    <g id="xtick_9">
     <g id="line2d_9">
      <g>
       <use xlink:href="#m63495ce893" x="430.2145" y="297.16" style="stroke: #000000; stroke-width: 0.8"/>
      </g>
     </g>
     <g id="text_9">
      <!-- 2000 -->
      <g transform="translate(417.4895 311.758438) scale(0.1 -0.1)">
       <use xlink:href="#DejaVuSans-32"/>
       <use xlink:href="#DejaVuSans-30" x="63.623047"/>
       <use xlink:href="#DejaVuSans-30" x="127.246094"/>
       <use xlink:href="#DejaVuSans-30" x="190.869141"/>
      </g>
     </g>
    </g>
    <g id="text_10">
     <!-- Communication Rounds -->
     <g transform="translate(157.06875 329.995625) scale(0.16 -0.16)">
      <defs>
       <path id="DejaVuSans-43" d="M 4122 4306 
L 4122 3641 
Q 3803 3938 3442 4084 
Q 3081 4231 2675 4231 
Q 1875 4231 1450 3742 
Q 1025 3253 1025 2328 
Q 1025 1406 1450 917 
Q 1875 428 2675 428 
Q 3081 428 3442 575 
Q 3803 722 4122 1019 
L 4122 359 
Q 3791 134 3420 21 
Q 3050 -91 2638 -91 
Q 1578 -91 968 557 
Q 359 1206 359 2328 
Q 359 3453 968 4101 
Q 1578 4750 2638 4750 
Q 3056 4750 3426 4639 
Q 3797 4528 4122 4306 
z
" transform="scale(0.015625)"/>
       <path id="DejaVuSans-6f" d="M 1959 3097 
Q 1497 3097 1228 2736 
Q 959 2375 959 1747 
Q 959 1119 1226 758 
Q 1494 397 1959 397 
Q 2419 397 2687 759 
Q 2956 1122 2956 1747 
Q 2956 2369 2687 2733 
Q 2419 3097 1959 3097 
z
M 1959 3584 
Q 2709 3584 3137 3096 
Q 3566 2609 3566 1747 
Q 3566 888 3137 398 
Q 2709 -91 1959 -91 
Q 1206 -91 779 398 
Q 353 888 353 1747 
Q 353 2609 779 3096 
Q 1206 3584 1959 3584 
z
" transform="scale(0.015625)"/>
       <path id="DejaVuSans-6d" d="M 3328 2828 
Q 3544 3216 3844 3400 
Q 4144 3584 4550 3584 
Q 5097 3584 5394 3201 
Q 5691 2819 5691 2113 
L 5691 0 
L 5113 0 
L 5113 2094 
Q 5113 2597 4934 2840 
Q 4756 3084 4391 3084 
Q 3944 3084 3684 2787 
Q 3425 2491 3425 1978 
L 3425 0 
L 2847 0 
L 2847 2094 
Q 2847 2600 2669 2842 
Q 2491 3084 2119 3084 
Q 1678 3084 1418 2786 
Q 1159 2488 1159 1978 
L 1159 0 
L 581 0 
L 581 3500 
L 1159 3500 
L 1159 2956 
Q 1356 3278 1631 3431 
Q 1906 3584 2284 3584 
Q 2666 3584 2933 3390 
Q 3200 3197 3328 2828 
z
" transform="scale(0.015625)"/>
       <path id="DejaVuSans-75" d="M 544 1381 
L 544 3500 
L 1119 3500 
L 1119 1403 
Q 1119 906 1312 657 
Q 1506 409 1894 409 
Q 2359 409 2629 706 
Q 2900 1003 2900 1516 
L 2900 3500 
L 3475 3500 
L 3475 0 
L 2900 0 
L 2900 538 
Q 2691 219 2414 64 
Q 2138 -91 1772 -91 
Q 1169 -91 856 284 
Q 544 659 544 1381 
z
M 1991 3584 
L 1991 3584 
z
" transform="scale(0.015625)"/>
       <path id="DejaVuSans-6e" d="M 3513 2113 
L 3513 0 
L 2938 0 
L 2938 2094 
Q 2938 2591 2744 2837 
Q 2550 3084 2163 3084 
Q 1697 3084 1428 2787 
Q 1159 2491 1159 1978 
L 1159 0 
L 581 0 
L 581 3500 
L 1159 3500 
L 1159 2956 
Q 1366 3272 1645 3428 
Q 1925 3584 2291 3584 
Q 2894 3584 3203 3211 
Q 3513 2838 3513 2113 
z
" transform="scale(0.015625)"/>
       <path id="DejaVuSans-69" d="M 603 3500 
L 1178 3500 
L 1178 0 
L 603 0 
L 603 3500 
z
M 603 4863 
L 1178 4863 
L 1178 4134 
L 603 4134 
L 603 4863 
z
" transform="scale(0.015625)"/>
       <path id="DejaVuSans-63" d="M 3122 3366 
L 3122 2828 
Q 2878 2963 2633 3030 
Q 2388 3097 2138 3097 
Q 1578 3097 1268 2742 
Q 959 2388 959 1747 
Q 959 1106 1268 751 
Q 1578 397 2138 397 
Q 2388 397 2633 464 
Q 2878 531 3122 666 
L 3122 134 
Q 2881 22 2623 -34 
Q 2366 -91 2075 -91 
Q 1284 -91 818 406 
Q 353 903 353 1747 
Q 353 2603 823 3093 
Q 1294 3584 2113 3584 
Q 2378 3584 2631 3529 
Q 2884 3475 3122 3366 
z
" transform="scale(0.015625)"/>
       <path id="DejaVuSans-61" d="M 2194 1759 
Q 1497 1759 1228 1600 
Q 959 1441 959 1056 
Q 959 750 1161 570 
Q 1363 391 1709 391 
Q 2188 391 2477 730 
Q 2766 1069 2766 1631 
L 2766 1759 
L 2194 1759 
z
M 3341 1997 
L 3341 0 
L 2766 0 
L 2766 531 
Q 2569 213 2275 61 
Q 1981 -91 1556 -91 
Q 1019 -91 701 211 
Q 384 513 384 1019 
Q 384 1609 779 1909 
Q 1175 2209 1959 2209 
L 2766 2209 
L 2766 2266 
Q 2766 2663 2505 2880 
Q 2244 3097 1772 3097 
Q 1472 3097 1187 3025 
Q 903 2953 641 2809 
L 641 3341 
Q 956 3463 1253 3523 
Q 1550 3584 1831 3584 
Q 2591 3584 2966 3190 
Q 3341 2797 3341 1997 
z
" transform="scale(0.015625)"/>
       <path id="DejaVuSans-74" d="M 1172 4494 
L 1172 3500 
L 2356 3500 
L 2356 3053 
L 1172 3053 
L 1172 1153 
Q 1172 725 1289 603 
Q 1406 481 1766 481 
L 2356 481 
L 2356 0 
L 1766 0 
Q 1100 0 847 248 
Q 594 497 594 1153 
L 594 3053 
L 172 3053 
L 172 3500 
L 594 3500 
L 594 4494 
L 1172 4494 
z
" transform="scale(0.015625)"/>
       <path id="DejaVuSans-20" transform="scale(0.015625)"/>
       <path id="DejaVuSans-52" d="M 2841 2188 
Q 3044 2119 3236 1894 
Q 3428 1669 3622 1275 
L 4263 0 
L 3584 0 
L 2988 1197 
Q 2756 1666 2539 1819 
Q 2322 1972 1947 1972 
L 1259 1972 
L 1259 0 
L 628 0 
L 628 4666 
L 2053 4666 
Q 2853 4666 3247 4331 
Q 3641 3997 3641 3322 
Q 3641 2881 3436 2590 
Q 3231 2300 2841 2188 
z
M 1259 4147 
L 1259 2491 
L 2053 2491 
Q 2509 2491 2742 2702 
Q 2975 2913 2975 3322 
Q 2975 3731 2742 3939 
Q 2509 4147 2053 4147 
L 1259 4147 
z
" transform="scale(0.015625)"/>
       <path id="DejaVuSans-64" d="M 2906 2969 
L 2906 4863 
L 3481 4863 
L 3481 0 
L 2906 0 
L 2906 525 
Q 2725 213 2448 61 
Q 2172 -91 1784 -91 
Q 1150 -91 751 415 
Q 353 922 353 1747 
Q 353 2572 751 3078 
Q 1150 3584 1784 3584 
Q 2172 3584 2448 3432 
Q 2725 3281 2906 2969 
z
M 947 1747 
Q 947 1113 1208 752 
Q 1469 391 1925 391 
Q 2381 391 2643 752 
Q 2906 1113 2906 1747 
Q 2906 2381 2643 2742 
Q 2381 3103 1925 3103 
Q 1469 3103 1208 2742 
Q 947 2381 947 1747 
z
" transform="scale(0.015625)"/>
       <path id="DejaVuSans-73" d="M 2834 3397 
L 2834 2853 
Q 2591 2978 2328 3040 
Q 2066 3103 1784 3103 
Q 1356 3103 1142 2972 
Q 928 2841 928 2578 
Q 928 2378 1081 2264 
Q 1234 2150 1697 2047 
L 1894 2003 
Q 2506 1872 2764 1633 
Q 3022 1394 3022 966 
Q 3022 478 2636 193 
Q 2250 -91 1575 -91 
Q 1294 -91 989 -36 
Q 684 19 347 128 
L 347 722 
Q 666 556 975 473 
Q 1284 391 1588 391 
Q 1994 391 2212 530 
Q 2431 669 2431 922 
Q 2431 1156 2273 1281 
Q 2116 1406 1581 1522 
L 1381 1569 
Q 847 1681 609 1914 
Q 372 2147 372 2553 
Q 372 3047 722 3315 
Q 1072 3584 1716 3584 
Q 2034 3584 2315 3537 
Q 2597 3491 2834 3397 
z
" transform="scale(0.015625)"/>
      </defs>
      <use xlink:href="#DejaVuSans-43"/>
      <use xlink:href="#DejaVuSans-6f" x="69.824219"/>
      <use xlink:href="#DejaVuSans-6d" x="131.005859"/>
      <use xlink:href="#DejaVuSans-6d" x="228.417969"/>
      <use xlink:href="#DejaVuSans-75" x="325.830078"/>
      <use xlink:href="#DejaVuSans-6e" x="389.208984"/>
      <use xlink:href="#DejaVuSans-69" x="452.587891"/>
      <use xlink:href="#DejaVuSans-63" x="480.371094"/>
      <use xlink:href="#DejaVuSans-61" x="535.351562"/>
      <use xlink:href="#DejaVuSans-74" x="596.630859"/>
      <use xlink:href="#DejaVuSans-69" x="635.839844"/>
      <use xlink:href="#DejaVuSans-6f" x="663.623047"/>
      <use xlink:href="#DejaVuSans-6e" x="724.804688"/>
      <use xlink:href="#DejaVuSans-20" x="788.183594"/>
      <use xlink:href="#DejaVuSans-52" x="819.970703"/>
      <use xlink:href="#DejaVuSans-6f" x="884.953125"/>
      <use xlink:href="#DejaVuSans-75" x="946.134766"/>
      <use xlink:href="#DejaVuSans-6e" x="1009.513672"/>
      <use xlink:href="#DejaVuSans-64" x="1072.892578"/>
      <use xlink:href="#DejaVuSans-73" x="1136.369141"/>
     </g>
    </g>
   </g>
   <g id="matplotlib.axis_2">
    <g id="ytick_1">
     <g id="line2d_10">
      <defs>
       <path id="m9ea76cc41e" d="M 0 0 
L -3.5 0 
" style="stroke: #000000; stroke-width: 0.8"/>
      </defs>
      <g>
       <use xlink:href="#m9ea76cc41e" x="54.29" y="286.073545" style="stroke: #000000; stroke-width: 0.8"/>
      </g>
     </g>
     <g id="text_11">
      <!-- 0.8 -->
      <g transform="translate(31.386875 289.872764) scale(0.1 -0.1)">
       <defs>
        <path id="DejaVuSans-2e" d="M 684 794 
L 1344 794 
L 1344 0 
L 684 0 
L 684 794 
z
" transform="scale(0.015625)"/>
        <path id="DejaVuSans-38" d="M 2034 2216 
Q 1584 2216 1326 1975 
Q 1069 1734 1069 1313 
Q 1069 891 1326 650 
Q 1584 409 2034 409 
Q 2484 409 2743 651 
Q 3003 894 3003 1313 
Q 3003 1734 2745 1975 
Q 2488 2216 2034 2216 
z
M 1403 2484 
Q 997 2584 770 2862 
Q 544 3141 544 3541 
Q 544 4100 942 4425 
Q 1341 4750 2034 4750 
Q 2731 4750 3128 4425 
Q 3525 4100 3525 3541 
Q 3525 3141 3298 2862 
Q 3072 2584 2669 2484 
Q 3125 2378 3379 2068 
Q 3634 1759 3634 1313 
Q 3634 634 3220 271 
Q 2806 -91 2034 -91 
Q 1263 -91 848 271 
Q 434 634 434 1313 
Q 434 1759 690 2068 
Q 947 2378 1403 2484 
z
M 1172 3481 
Q 1172 3119 1398 2916 
Q 1625 2713 2034 2713 
Q 2441 2713 2670 2916 
Q 2900 3119 2900 3481 
Q 2900 3844 2670 4047 
Q 2441 4250 2034 4250 
Q 1625 4250 1398 4047 
Q 1172 3844 1172 3481 
z
" transform="scale(0.015625)"/>
       </defs>
       <use xlink:href="#DejaVuSans-30"/>
       <use xlink:href="#DejaVuSans-2e" x="63.623047"/>
       <use xlink:href="#DejaVuSans-38" x="95.410156"/>
      </g>
     </g>
    </g>
    <g id="ytick_2">
     <g id="line2d_11">
      <g>
       <use xlink:href="#m9ea76cc41e" x="54.29" y="251.269525" style="stroke: #000000; stroke-width: 0.8"/>
      </g>
     </g>
     <g id="text_12">
      <!-- 1.0 -->
      <g transform="translate(31.386875 255.068744) scale(0.1 -0.1)">
       <use xlink:href="#DejaVuSans-31"/>
       <use xlink:href="#DejaVuSans-2e" x="63.623047"/>
       <use xlink:href="#DejaVuSans-30" x="95.410156"/>
      </g>
     </g>
    </g>
    <g id="ytick_3">
     <g id="line2d_12">
      <g>
       <use xlink:href="#m9ea76cc41e" x="54.29" y="216.465504" style="stroke: #000000; stroke-width: 0.8"/>
      </g>
     </g>
     <g id="text_13">
      <!-- 1.2 -->
      <g transform="translate(31.386875 220.264723) scale(0.1 -0.1)">
       <use xlink:href="#DejaVuSans-31"/>
       <use xlink:href="#DejaVuSans-2e" x="63.623047"/>
       <use xlink:href="#DejaVuSans-32" x="95.410156"/>
      </g>
     </g>
    </g>
    <g id="ytick_4">
     <g id="line2d_13">
      <g>
       <use xlink:href="#m9ea76cc41e" x="54.29" y="181.661484" style="stroke: #000000; stroke-width: 0.8"/>
      </g>
     </g>
     <g id="text_14">
      <!-- 1.4 -->
      <g transform="translate(31.386875 185.460702) scale(0.1 -0.1)">
       <defs>
        <path id="DejaVuSans-34" d="M 2419 4116 
L 825 1625 
L 2419 1625 
L 2419 4116 
z
M 2253 4666 
L 3047 4666 
L 3047 1625 
L 3713 1625 
L 3713 1100 
L 3047 1100 
L 3047 0 
L 2419 0 
L 2419 1100 
L 313 1100 
L 313 1709 
L 2253 4666 
z
" transform="scale(0.015625)"/>
       </defs>
       <use xlink:href="#DejaVuSans-31"/>
       <use xlink:href="#DejaVuSans-2e" x="63.623047"/>
       <use xlink:href="#DejaVuSans-34" x="95.410156"/>
      </g>
     </g>
    </g>
    <g id="ytick_5">
     <g id="line2d_14">
      <g>
       <use xlink:href="#m9ea76cc41e" x="54.29" y="146.857463" style="stroke: #000000; stroke-width: 0.8"/>
      </g>
     </g>
     <g id="text_15">
      <!-- 1.6 -->
      <g transform="translate(31.386875 150.656682) scale(0.1 -0.1)">
       <defs>
        <path id="DejaVuSans-36" d="M 2113 2584 
Q 1688 2584 1439 2293 
Q 1191 2003 1191 1497 
Q 1191 994 1439 701 
Q 1688 409 2113 409 
Q 2538 409 2786 701 
Q 3034 994 3034 1497 
Q 3034 2003 2786 2293 
Q 2538 2584 2113 2584 
z
M 3366 4563 
L 3366 3988 
Q 3128 4100 2886 4159 
Q 2644 4219 2406 4219 
Q 1781 4219 1451 3797 
Q 1122 3375 1075 2522 
Q 1259 2794 1537 2939 
Q 1816 3084 2150 3084 
Q 2853 3084 3261 2657 
Q 3669 2231 3669 1497 
Q 3669 778 3244 343 
Q 2819 -91 2113 -91 
Q 1303 -91 875 529 
Q 447 1150 447 2328 
Q 447 3434 972 4092 
Q 1497 4750 2381 4750 
Q 2619 4750 2861 4703 
Q 3103 4656 3366 4563 
z
" transform="scale(0.015625)"/>
       </defs>
       <use xlink:href="#DejaVuSans-31"/>
       <use xlink:href="#DejaVuSans-2e" x="63.623047"/>
       <use xlink:href="#DejaVuSans-36" x="95.410156"/>
      </g>
     </g>
    </g>
    <g id="ytick_6">
     <g id="line2d_15">
      <g>
       <use xlink:href="#m9ea76cc41e" x="54.29" y="112.053442" style="stroke: #000000; stroke-width: 0.8"/>
      </g>
     </g>
     <g id="text_16">
      <!-- 1.8 -->
      <g transform="translate(31.386875 115.852661) scale(0.1 -0.1)">
       <use xlink:href="#DejaVuSans-31"/>
       <use xlink:href="#DejaVuSans-2e" x="63.623047"/>
       <use xlink:href="#DejaVuSans-38" x="95.410156"/>
      </g>
     </g>
    </g>
    <g id="ytick_7">
     <g id="line2d_16">
      <g>
       <use xlink:href="#m9ea76cc41e" x="54.29" y="77.249422" style="stroke: #000000; stroke-width: 0.8"/>
      </g>
     </g>
     <g id="text_17">
      <!-- 2.0 -->
      <g transform="translate(31.386875 81.048641) scale(0.1 -0.1)">
       <use xlink:href="#DejaVuSans-32"/>
       <use xlink:href="#DejaVuSans-2e" x="63.623047"/>
       <use xlink:href="#DejaVuSans-30" x="95.410156"/>
      </g>
     </g>
    </g>
    <g id="ytick_8">
     <g id="line2d_17">
      <g>
       <use xlink:href="#m9ea76cc41e" x="54.29" y="42.445401" style="stroke: #000000; stroke-width: 0.8"/>
      </g>
     </g>
     <g id="text_18">
      <!-- 2.2 -->
      <g transform="translate(31.386875 46.24462) scale(0.1 -0.1)">
       <use xlink:href="#DejaVuSans-32"/>
       <use xlink:href="#DejaVuSans-2e" x="63.623047"/>
       <use xlink:href="#DejaVuSans-32" x="95.410156"/>
      </g>
     </g>
    </g>
    <g id="text_19">
     <!-- Loss -->
     <g transform="translate(24.059375 171.5275) rotate(-90) scale(0.16 -0.16)">
      <defs>
       <path id="DejaVuSans-4c" d="M 628 4666 
L 1259 4666 
L 1259 531 
L 3531 531 
L 3531 0 
L 628 0 
L 628 4666 
z
" transform="scale(0.015625)"/>
      </defs>
      <use xlink:href="#DejaVuSans-4c"/>
      <use xlink:href="#DejaVuSans-6f" x="53.962891"/>
      <use xlink:href="#DejaVuSans-73" x="115.144531"/>
      <use xlink:href="#DejaVuSans-73" x="167.244141"/>
     </g>
    </g>
   </g>
   <g id="line2d_18">
    <path d="M 72.456686 25.27413 
L 74.435236 23.816364 
L 76.413786 23.873428 
L 78.392336 26.229517 
L 80.370886 31.745945 
L 82.349436 39.017499 
L 84.327986 41.983742 
L 86.306536 42.65125 
L 88.285086 46.716597 
L 90.263636 46.782166 
L 92.242186 53.773608 
L 94.220736 51.912079 
L 96.199286 56.711054 
L 98.177836 55.255851 
L 100.156386 55.132669 
L 102.134936 60.793725 
L 104.113486 59.205673 
L 106.092036 52.121118 
L 108.070586 64.972391 
L 110.049136 55.404296 
L 112.027686 58.557213 
L 114.006236 62.65332 
L 115.984786 68.06477 
L 117.963336 67.602747 
L 119.941886 62.707772 
L 121.920436 70.758293 
L 125.877536 69.333223 
L 127.856086 71.547191 
L 129.834636 68.304646 
L 131.813186 73.737746 
L 133.791736 76.440787 
L 135.770286 66.659823 
L 137.748836 78.214603 
L 139.727386 76.527523 
L 141.705936 76.904299 
L 143.684486 77.399598 
L 145.663036 77.554145 
L 147.641586 81.161021 
L 149.620136 81.6318 
L 151.598686 82.322455 
L 153.577236 86.108773 
L 155.555786 84.524087 
L 157.534336 83.424311 
L 159.512886 85.747666 
L 161.491436 87.420792 
L 163.469986 69.149767 
L 165.448536 83.665419 
L 167.427086 85.35216 
L 169.405636 79.079479 
L 171.384186 91.639279 
L 173.362736 89.763737 
L 175.341286 88.42605 
L 177.319836 88.56645 
L 179.298386 90.660569 
L 181.276936 92.927443 
L 183.255486 91.283765 
L 185.234036 93.461039 
L 187.212586 89.646613 
L 189.191136 95.559279 
L 191.169686 97.538645 
L 193.148236 96.036885 
L 195.126786 97.205684 
L 197.105336 96.774576 
L 199.083886 97.831085 
L 201.062436 99.167619 
L 203.040986 92.633878 
L 205.019536 96.692627 
L 206.998086 90.185153 
L 208.976636 102.619988 
L 210.955186 99.444973 
L 212.933736 94.468018 
L 214.912286 102.150054 
L 216.890836 99.83056 
L 218.869386 101.552818 
L 220.847936 104.594179 
L 224.805036 104.319877 
L 226.783586 100.472181 
L 228.762136 104.081381 
L 230.740686 105.120234 
L 232.719236 103.805209 
L 234.697786 93.970567 
L 236.676336 103.822092 
L 238.654886 104.391425 
L 240.633436 105.228169 
L 242.611986 107.17837 
L 244.590536 106.048114 
L 246.569086 99.74356 
L 248.547636 105.944335 
L 250.526186 106.829636 
L 252.504736 108.578395 
L 254.483286 106.404902 
L 256.461836 109.266507 
L 258.440386 103.586568 
L 260.418936 108.479474 
L 262.397486 109.402569 
L 264.376036 110.703327 
L 266.354586 111.461631 
L 268.333136 109.384332 
L 270.311686 110.069901 
L 272.290236 108.839463 
L 274.268786 113.084224 
L 276.247336 102.932203 
L 278.225886 111.32389 
L 280.204436 111.727969 
L 282.182986 112.792092 
L 284.161536 113.07101 
L 286.140086 111.205809 
L 288.118636 113.747359 
L 290.097186 112.192516 
L 292.075736 112.38845 
L 294.054286 111.26776 
L 296.032836 107.871628 
L 298.011386 110.359286 
L 299.989936 109.053051 
L 301.968486 109.110933 
L 303.947036 112.452458 
L 305.925586 111.780938 
L 307.904136 113.118953 
L 309.882686 111.483709 
L 311.861236 93.718926 
L 313.839786 107.47964 
L 315.818336 113.724336 
L 317.796886 109.933887 
L 319.775436 110.650986 
L 321.753986 113.026283 
L 323.732536 110.188296 
L 325.711086 113.524491 
L 327.689636 117.420279 
L 329.668186 103.590211 
L 331.646736 113.732937 
L 333.625286 116.63966 
L 335.603836 115.691659 
L 337.582386 107.977731 
L 339.560936 114.313268 
L 341.539486 117.478905 
L 343.518036 112.954901 
L 345.496586 110.743846 
L 347.475136 115.270971 
L 349.453686 115.501555 
L 351.432236 116.069023 
L 353.410786 116.268743 
L 355.389336 114.307861 
L 357.367886 118.844693 
L 359.346436 118.941204 
L 361.324986 116.794832 
L 363.303536 117.154141 
L 365.282086 119.360424 
L 367.260636 117.093017 
L 369.239186 119.369645 
L 371.217736 118.073631 
L 373.196286 118.547562 
L 375.174836 120.400373 
L 377.153386 116.749506 
L 379.131936 120.077992 
L 381.110486 119.977631 
L 383.089036 117.962945 
L 385.067586 118.919774 
L 387.046136 117.526384 
L 389.024686 115.797334 
L 391.003236 119.349151 
L 392.981786 119.543195 
L 394.960336 112.77737 
L 396.938886 116.80591 
L 398.917436 113.420531 
L 400.895986 119.141061 
L 402.874536 120.383883 
L 404.853086 117.276929 
L 406.831636 119.667311 
L 408.810186 118.156578 
L 410.788736 113.902365 
L 412.767286 118.389534 
L 414.745836 114.745238 
L 416.724386 121.605523 
L 416.724386 121.605523 
" clip-path="url(#p21dac78b21)" style="fill: none; stroke: #000000; stroke-width: 1.5; stroke-linecap: square"/>
   </g>
   <g id="line2d_19">
    <path d="M 72.276818 24.114624 
L 74.0755 30.333757 
L 75.874182 68.821692 
L 79.471545 97.722268 
L 83.068909 120.356263 
L 84.867591 124.835468 
L 86.666273 127.04604 
L 92.062318 147.301298 
L 93.861 149.577521 
L 95.659682 155.880976 
L 97.458364 158.297957 
L 99.257045 165.248983 
L 101.055727 161.475612 
L 102.854409 171.328062 
L 104.653091 169.913512 
L 106.451773 172.403465 
L 108.250455 176.566351 
L 110.049136 174.613382 
L 111.847818 180.231223 
L 113.6465 181.488395 
L 115.445182 188.141857 
L 117.243864 191.395592 
L 119.042545 191.193386 
L 120.841227 193.710506 
L 122.639909 193.468369 
L 124.438591 195.639974 
L 126.237273 198.18153 
L 128.035955 198.44701 
L 129.834636 197.671681 
L 131.633318 203.026671 
L 133.432 204.715163 
L 135.230682 212.472666 
L 137.029364 210.339977 
L 138.828045 211.64223 
L 140.626727 213.084188 
L 142.425409 213.046836 
L 144.224091 218.079933 
L 146.022773 222.275818 
L 147.821455 222.311269 
L 149.620136 218.107523 
L 151.418818 223.651018 
L 153.2175 223.327382 
L 155.016182 224.344384 
L 156.814864 227.748873 
L 158.613545 228.776065 
L 160.412227 224.29126 
L 162.210909 225.521031 
L 164.009591 224.655609 
L 167.606955 237.581713 
L 169.405636 235.134754 
L 171.204318 229.947925 
L 173.003 229.561986 
L 174.801682 234.466117 
L 176.600364 233.432047 
L 178.399045 235.27631 
L 180.197727 238.584461 
L 183.795091 237.287239 
L 185.593773 240.981711 
L 187.392455 242.473304 
L 189.191136 234.827371 
L 190.989818 238.353218 
L 196.385864 242.278391 
L 198.184545 244.724896 
L 199.983227 244.582744 
L 201.781909 246.286705 
L 203.580591 249.181961 
L 205.379273 248.272288 
L 207.177955 251.853467 
L 208.976636 253.379175 
L 210.775318 250.215717 
L 212.574 249.839443 
L 214.372682 248.737354 
L 216.171364 249.508179 
L 217.970045 250.060846 
L 219.768727 250.97986 
L 221.567409 248.61217 
L 223.366091 259.691894 
L 225.164773 254.371487 
L 226.963455 255.531552 
L 228.762136 258.61615 
L 230.560818 258.244779 
L 232.3595 258.990586 
L 234.158182 257.236857 
L 235.956864 258.74697 
L 237.755545 256.314773 
L 239.554227 257.038661 
L 241.352909 253.465202 
L 243.151591 256.196595 
L 244.950273 261.456463 
L 246.748955 259.87879 
L 248.547636 264.437628 
L 250.346318 260.952188 
L 252.145 259.992242 
L 253.943682 260.366958 
L 255.742364 263.048874 
L 257.541045 259.978528 
L 259.339727 263.083988 
L 261.138409 262.773146 
L 262.937091 263.449945 
L 264.735773 266.457101 
L 266.534455 268.629125 
L 268.333136 262.191247 
L 270.131818 266.953098 
L 271.9305 263.865458 
L 273.729182 265.94445 
L 275.527864 263.335662 
L 277.326545 266.808044 
L 280.923909 265.827123 
L 282.722591 263.422356 
L 284.521273 273.209899 
L 286.319955 270.666315 
L 288.118636 266.541923 
L 289.917318 267.99639 
L 291.716 269.59397 
L 293.514682 270.453566 
L 295.313364 270.640391 
L 297.112045 268.801882 
L 300.709409 268.705344 
L 302.508091 266.691074 
L 304.306773 269.084051 
L 306.105455 273.253836 
L 307.904136 267.674575 
L 309.702818 271.435079 
L 311.5015 270.601559 
L 313.300182 268.753758 
L 315.098864 265.241161 
L 316.897545 272.545971 
L 318.696227 268.664015 
L 320.494909 273.331579 
L 322.293591 273.664765 
L 324.092273 272.103729 
L 325.890955 274.794941 
L 327.689636 273.370899 
L 329.488318 268.688582 
L 331.287 270.847162 
L 333.085682 276.026076 
L 334.884364 270.838174 
L 336.683045 277.219512 
L 338.481727 274.417975 
L 340.280409 274.520208 
L 342.079091 276.6175 
L 343.877773 271.402464 
L 345.676455 276.889148 
L 347.475136 276.020507 
L 349.273818 274.788518 
L 351.0725 275.268961 
L 352.871182 275.233005 
L 354.669864 278.774849 
L 356.468545 274.04925 
L 358.267227 275.984858 
L 360.065909 277.107822 
L 361.864591 276.197701 
L 363.663273 275.955398 
L 365.461955 275.255907 
L 367.260636 271.296178 
L 369.059318 275.665458 
L 370.858 278.637879 
L 372.656682 279.825181 
L 374.455364 279.978652 
L 376.254045 278.923848 
L 378.052727 275.971144 
L 379.851409 275.139954 
L 381.650091 278.453075 
L 383.448773 274.371785 
L 385.247455 274.982328 
L 387.046136 273.462351 
L 388.844818 278.547966 
L 390.6435 275.229094 
L 392.442182 276.47812 
L 394.240864 282.005799 
L 396.039545 278.200793 
L 397.838227 281.066777 
L 399.636909 278.363176 
L 401.435591 281.245184 
L 403.234273 282.467404 
L 405.032955 279.967791 
L 406.831636 280.960395 
L 408.630318 280.325199 
L 410.429 273.901629 
L 412.227682 278.359876 
L 414.026364 279.706423 
L 415.825045 279.460965 
L 417.623727 275.924035 
L 419.422409 275.741705 
L 421.221091 284.143636 
L 423.019773 283.551377 
L 424.818455 273.3985 
L 426.617136 277.786184 
L 428.415818 280.886945 
L 430.2145 282.333741 
L 432.013182 278.262279 
L 432.013182 278.262279 
" clip-path="url(#p21dac78b21)" style="fill: none; stroke: #ff0000; stroke-width: 1.5; stroke-linecap: square"/>
   </g>
   <g id="line2d_20">
    <path d="M 72.276818 24.416469 
L 77.672864 27.271622 
L 79.471545 29.111452 
L 81.270227 30.497876 
L 83.068909 32.401535 
L 84.867591 35.862878 
L 86.666273 40.038608 
L 88.464955 43.535446 
L 90.263636 48.152083 
L 93.861 57.856983 
L 95.659682 62.071513 
L 97.458364 63.824728 
L 99.257045 68.801095 
L 101.055727 72.088222 
L 102.854409 72.978731 
L 104.653091 80.213352 
L 106.451773 81.293117 
L 108.250455 81.696233 
L 110.049136 81.978191 
L 111.847818 84.424233 
L 113.6465 85.978598 
L 115.445182 90.263525 
L 117.243864 91.978248 
L 119.042545 93.057741 
L 120.841227 93.620728 
L 122.639909 94.980352 
L 124.438591 99.282742 
L 126.237273 99.652268 
L 128.035955 103.414082 
L 129.834636 103.948469 
L 131.633318 106.783959 
L 133.432 107.44723 
L 135.230682 107.307876 
L 137.029364 108.29627 
L 140.626727 112.854549 
L 142.425409 110.741178 
L 144.224091 114.614429 
L 146.022773 117.19321 
L 147.821455 118.63385 
L 149.620136 118.391938 
L 151.418818 122.49722 
L 153.2175 122.284477 
L 155.016182 120.347189 
L 156.814864 121.173262 
L 158.613545 123.090718 
L 160.412227 125.575899 
L 162.210909 124.950642 
L 164.009591 126.012143 
L 165.808273 127.209009 
L 167.606955 127.272286 
L 169.405636 129.544424 
L 171.204318 130.199276 
L 173.003 131.528751 
L 174.801682 130.478351 
L 176.600364 132.244495 
L 178.399045 132.81695 
L 180.197727 132.623939 
L 181.996409 132.084659 
L 183.795091 133.130683 
L 185.593773 132.160494 
L 187.392455 137.547409 
L 189.191136 135.496152 
L 190.989818 140.031919 
L 192.7885 138.225558 
L 194.587182 137.66492 
L 196.385864 139.921691 
L 198.184545 137.23692 
L 199.983227 139.654321 
L 201.781909 140.098024 
L 203.580591 142.957036 
L 205.379273 143.941673 
L 207.177955 145.138444 
L 208.976636 144.067675 
L 210.775318 141.830258 
L 212.574 145.814837 
L 214.372682 145.63401 
L 216.171364 146.504256 
L 217.970045 147.029328 
L 219.768727 148.895947 
L 221.567409 145.84319 
L 223.366091 149.469762 
L 225.164773 149.842852 
L 226.963455 147.349801 
L 228.762136 149.428297 
L 230.560818 150.313001 
L 232.3595 149.876405 
L 234.158182 148.360179 
L 235.956864 151.671136 
L 237.755545 152.976469 
L 239.554227 154.975784 
L 241.352909 157.530613 
L 243.151591 153.34154 
L 244.950273 152.265156 
L 246.748955 153.617364 
L 248.547636 155.975355 
L 250.346318 155.595944 
L 252.145 154.6687 
L 253.943682 156.064494 
L 255.742364 155.689183 
L 257.541045 156.698379 
L 259.339727 158.036941 
L 261.138409 158.644999 
L 262.937091 160.215458 
L 264.735773 156.80251 
L 266.534455 158.891226 
L 268.333136 157.985348 
L 270.131818 163.624882 
L 271.9305 157.273854 
L 273.729182 157.809536 
L 275.527864 157.798357 
L 277.326545 156.998779 
L 279.125227 157.554931 
L 280.923909 160.846399 
L 282.722591 158.754108 
L 284.521273 161.56546 
L 286.319955 159.239848 
L 288.118636 159.459513 
L 289.917318 163.842632 
L 291.716 162.673243 
L 293.514682 164.30997 
L 295.313364 164.506963 
L 297.112045 167.440174 
L 298.910727 162.127795 
L 300.709409 167.398306 
L 302.508091 164.333733 
L 304.306773 168.384539 
L 306.105455 165.871241 
L 307.904136 168.18614 
L 309.702818 166.034631 
L 311.5015 165.423902 
L 313.300182 165.765128 
L 315.098864 168.329339 
L 316.897545 168.912769 
L 318.696227 167.408278 
L 320.494909 169.331648 
L 322.293591 167.050791 
L 324.092273 165.180526 
L 325.890955 172.130151 
L 327.689636 167.001449 
L 329.488318 170.53113 
L 331.287 172.156645 
L 333.085682 171.468991 
L 334.884364 169.482759 
L 336.683045 169.877761 
L 338.481727 172.340489 
L 340.280409 173.168163 
L 342.079091 176.243807 
L 343.877773 169.263297 
L 345.676455 173.218405 
L 347.475136 174.01161 
L 349.273818 173.113191 
L 351.0725 175.420293 
L 352.871182 174.358578 
L 354.669864 176.903018 
L 356.468545 174.989701 
L 358.267227 174.466634 
L 360.065909 177.603852 
L 361.864591 176.27101 
L 363.663273 177.092333 
L 365.461955 179.93189 
L 367.260636 180.14087 
L 369.059318 180.787666 
L 370.858 173.75135 
L 372.656682 178.516821 
L 374.455364 176.767006 
L 376.254045 175.939152 
L 378.052727 175.594981 
L 379.851409 177.45338 
L 381.650091 177.487661 
L 383.448773 177.345701 
L 385.247455 181.334573 
L 387.046136 181.5117 
L 388.844818 177.279274 
L 390.6435 182.808289 
L 392.442182 183.724898 
L 394.240864 180.541022 
L 396.039545 181.510339 
L 397.838227 184.765772 
L 399.636909 177.074574 
L 401.435591 184.314591 
L 403.234273 181.459991 
L 405.032955 186.425323 
L 406.831636 183.576049 
L 408.630318 181.900699 
L 410.429 186.820009 
L 412.227682 184.417839 
L 415.825045 180.905358 
L 417.623727 184.788111 
L 419.422409 182.242608 
L 421.221091 183.233086 
L 423.019773 184.905184 
L 424.818455 183.365022 
L 426.617136 184.704341 
L 428.415818 186.698405 
L 430.2145 188.346424 
L 432.013182 189.751039 
L 432.013182 189.751039 
" clip-path="url(#p21dac78b21)" style="fill: none; stroke: #ffa500; stroke-width: 1.5; stroke-linecap: square"/>
   </g>
   <g id="line2d_21">
    <path d="M 72.276818 24.293626 
L 75.874182 25.890487 
L 77.672864 26.70906 
L 79.471545 27.393239 
L 81.270227 28.559544 
L 84.867591 31.741764 
L 86.666273 34.442862 
L 88.464955 36.253661 
L 90.263636 40.696002 
L 92.062318 43.566116 
L 93.861 48.52262 
L 95.659682 52.096503 
L 97.458364 56.66749 
L 99.257045 62.995093 
L 101.055727 65.496303 
L 102.854409 68.253283 
L 104.653091 74.250946 
L 106.451773 77.739667 
L 108.250455 77.22651 
L 110.049136 77.897418 
L 111.847818 80.862036 
L 113.6465 82.30127 
L 115.445182 84.803997 
L 117.243864 84.982084 
L 119.042545 87.756817 
L 120.841227 91.225465 
L 122.639909 90.875345 
L 124.438591 93.109817 
L 126.237273 93.984602 
L 128.035955 98.762994 
L 129.834636 99.476164 
L 131.633318 102.143843 
L 133.432 101.375744 
L 135.230682 102.359525 
L 137.029364 102.507918 
L 138.828045 106.107306 
L 140.626727 107.073438 
L 142.425409 110.39841 
L 144.224091 108.453846 
L 146.022773 107.919187 
L 147.821455 114.010418 
L 149.620136 111.233355 
L 151.418818 112.553729 
L 153.2175 114.414959 
L 155.016182 117.163102 
L 156.814864 117.71121 
L 158.613545 116.495812 
L 160.412227 120.442336 
L 162.210909 119.276212 
L 164.009591 122.633615 
L 165.808273 120.677078 
L 167.606955 121.043503 
L 169.405636 123.673942 
L 171.204318 125.913356 
L 173.003 124.390248 
L 174.801682 126.496728 
L 176.600364 124.78214 
L 178.399045 128.971449 
L 180.197727 128.666994 
L 181.996409 129.91247 
L 183.795091 129.914518 
L 185.593773 132.555261 
L 187.392455 131.485977 
L 189.191136 131.371139 
L 190.989818 134.578963 
L 192.7885 131.564707 
L 196.385864 135.713525 
L 198.184545 136.860517 
L 199.983227 131.62511 
L 201.781909 139.455955 
L 203.580591 135.794953 
L 205.379273 138.934234 
L 207.177955 140.267294 
L 208.976636 140.393524 
L 212.574 139.56763 
L 214.372682 138.958671 
L 216.171364 141.164989 
L 217.970045 142.005135 
L 219.768727 142.277445 
L 221.567409 146.880324 
L 223.366091 143.83887 
L 225.164773 145.526114 
L 226.963455 142.440212 
L 228.762136 145.283909 
L 230.560818 145.766031 
L 232.3595 146.761407 
L 234.158182 148.302218 
L 235.956864 148.734278 
L 237.755545 149.376027 
L 239.554227 146.76695 
L 241.352909 151.334612 
L 243.151591 154.419039 
L 244.950273 149.889469 
L 246.748955 150.579592 
L 248.547636 150.904382 
L 250.346318 153.057863 
L 252.145 153.802868 
L 253.943682 150.771907 
L 255.742364 154.58377 
L 257.541045 151.107683 
L 259.339727 151.541477 
L 261.138409 156.500362 
L 262.937091 152.306854 
L 264.735773 153.459106 
L 266.534455 155.506323 
L 268.333136 156.027444 
L 270.131818 159.54936 
L 271.9305 153.524111 
L 273.729182 156.442479 
L 275.527864 157.325967 
L 277.326545 153.805587 
L 279.125227 156.06644 
L 280.923909 156.835908 
L 282.722591 160.060028 
L 284.521273 159.625966 
L 286.319955 158.94952 
L 288.118636 159.551099 
L 289.917318 161.27271 
L 291.716 161.157052 
L 293.514682 162.200206 
L 295.313364 162.085733 
L 298.910727 162.753411 
L 300.709409 162.069885 
L 302.508091 163.498385 
L 304.306773 162.406588 
L 306.105455 162.401004 
L 307.904136 163.197204 
L 311.5015 166.016242 
L 313.300182 162.806231 
L 315.098864 167.354912 
L 316.897545 164.21089 
L 318.696227 163.501204 
L 320.494909 166.704163 
L 322.293591 164.805322 
L 324.092273 164.970394 
L 325.890955 166.368689 
L 327.689636 166.968274 
L 329.488318 167.935783 
L 331.287 169.652743 
L 333.085682 165.652181 
L 334.884364 167.08052 
L 336.683045 171.130265 
L 340.280409 169.546934 
L 342.079091 167.428511 
L 343.877773 168.083389 
L 345.676455 170.346125 
L 347.475136 171.060389 
L 351.0725 174.055859 
L 352.871182 174.28246 
L 354.669864 170.92898 
L 356.468545 172.404073 
L 358.267227 172.148638 
L 360.065909 173.576108 
L 361.864591 175.397551 
L 363.663273 176.483989 
L 365.461955 174.912164 
L 367.260636 171.47945 
L 369.059318 174.301763 
L 370.858 174.287443 
L 372.656682 173.633927 
L 374.455364 174.023527 
L 376.254045 173.777773 
L 378.052727 174.576563 
L 379.851409 174.592637 
L 381.650091 177.359106 
L 383.448773 174.530026 
L 385.247455 181.074651 
L 387.046136 176.500081 
L 388.844818 176.799194 
L 390.6435 178.855403 
L 392.442182 179.386429 
L 394.240864 180.363195 
L 396.039545 176.912904 
L 397.838227 180.913899 
L 399.636909 179.268648 
L 401.435591 179.109614 
L 403.234273 179.899509 
L 405.032955 178.466718 
L 406.831636 184.48733 
L 408.630318 181.653218 
L 410.429 181.634576 
L 412.227682 181.135461 
L 414.026364 181.426718 
L 415.825045 180.916335 
L 417.623727 184.125814 
L 419.422409 181.632022 
L 421.221091 182.873256 
L 423.019773 187.402079 
L 424.818455 184.492731 
L 426.617136 182.35883 
L 428.415818 184.661656 
L 430.2145 186.550006 
L 432.013182 188.86818 
L 432.013182 188.86818 
" clip-path="url(#p21dac78b21)" style="fill: none; stroke: #0000ff; stroke-width: 1.5; stroke-linecap: square"/>
   </g>
   <g id="patch_3">
    <path d="M 54.29 297.16 
L 54.29 10.8 
" style="fill: none; stroke: #000000; stroke-width: 0.8; stroke-linejoin: miter; stroke-linecap: square"/>
   </g>
   <g id="patch_4">
    <path d="M 450 297.16 
L 450 10.8 
" style="fill: none; stroke: #000000; stroke-width: 0.8; stroke-linejoin: miter; stroke-linecap: square"/>
   </g>
   <g id="patch_5">
    <path d="M 54.29 297.16 
L 450 297.16 
" style="fill: none; stroke: #000000; stroke-width: 0.8; stroke-linejoin: miter; stroke-linecap: square"/>
   </g>
   <g id="patch_6">
    <path d="M 54.29 10.8 
L 450 10.8 
" style="fill: none; stroke: #000000; stroke-width: 0.8; stroke-linejoin: miter; stroke-linecap: square"/>
   </g>
   <g id="legend_1">
    <g id="patch_7">
     <path d="M 303.09 117.54 
L 438.8 117.54 
Q 442 117.54 442 114.34 
L 442 22 
Q 442 18.8 438.8 18.8 
L 303.09 18.8 
Q 299.89 18.8 299.89 22 
L 299.89 114.34 
Q 299.89 117.54 303.09 117.54 
z
" style="fill: #ffffff; opacity: 0.8; stroke: #cccccc; stroke-linejoin: miter"/>
    </g>
    <g id="line2d_22">
     <path d="M 306.29 31.7575 
L 322.29 31.7575 
L 338.29 31.7575 
" style="fill: none; stroke: #000000; stroke-width: 1.5; stroke-linecap: square"/>
    </g>
    <g id="text_20">
     <!-- Scaffnew -->
     <g transform="translate(351.09 37.3575) scale(0.16 -0.16)">
      <defs>
       <path id="DejaVuSans-53" d="M 3425 4513 
L 3425 3897 
Q 3066 4069 2747 4153 
Q 2428 4238 2131 4238 
Q 1616 4238 1336 4038 
Q 1056 3838 1056 3469 
Q 1056 3159 1242 3001 
Q 1428 2844 1947 2747 
L 2328 2669 
Q 3034 2534 3370 2195 
Q 3706 1856 3706 1288 
Q 3706 609 3251 259 
Q 2797 -91 1919 -91 
Q 1588 -91 1214 -16 
Q 841 59 441 206 
L 441 856 
Q 825 641 1194 531 
Q 1563 422 1919 422 
Q 2459 422 2753 634 
Q 3047 847 3047 1241 
Q 3047 1584 2836 1778 
Q 2625 1972 2144 2069 
L 1759 2144 
Q 1053 2284 737 2584 
Q 422 2884 422 3419 
Q 422 4038 858 4394 
Q 1294 4750 2059 4750 
Q 2388 4750 2728 4690 
Q 3069 4631 3425 4513 
z
" transform="scale(0.015625)"/>
       <path id="DejaVuSans-66" d="M 2375 4863 
L 2375 4384 
L 1825 4384 
Q 1516 4384 1395 4259 
Q 1275 4134 1275 3809 
L 1275 3500 
L 2222 3500 
L 2222 3053 
L 1275 3053 
L 1275 0 
L 697 0 
L 697 3053 
L 147 3053 
L 147 3500 
L 697 3500 
L 697 3744 
Q 697 4328 969 4595 
Q 1241 4863 1831 4863 
L 2375 4863 
z
" transform="scale(0.015625)"/>
       <path id="DejaVuSans-65" d="M 3597 1894 
L 3597 1613 
L 953 1613 
Q 991 1019 1311 708 
Q 1631 397 2203 397 
Q 2534 397 2845 478 
Q 3156 559 3463 722 
L 3463 178 
Q 3153 47 2828 -22 
Q 2503 -91 2169 -91 
Q 1331 -91 842 396 
Q 353 884 353 1716 
Q 353 2575 817 3079 
Q 1281 3584 2069 3584 
Q 2775 3584 3186 3129 
Q 3597 2675 3597 1894 
z
M 3022 2063 
Q 3016 2534 2758 2815 
Q 2500 3097 2075 3097 
Q 1594 3097 1305 2825 
Q 1016 2553 972 2059 
L 3022 2063 
z
" transform="scale(0.015625)"/>
       <path id="DejaVuSans-77" d="M 269 3500 
L 844 3500 
L 1563 769 
L 2278 3500 
L 2956 3500 
L 3675 769 
L 4391 3500 
L 4966 3500 
L 4050 0 
L 3372 0 
L 2619 2869 
L 1863 0 
L 1184 0 
L 269 3500 
z
" transform="scale(0.015625)"/>
      </defs>
      <use xlink:href="#DejaVuSans-53"/>
      <use xlink:href="#DejaVuSans-63" x="63.476562"/>
      <use xlink:href="#DejaVuSans-61" x="118.457031"/>
      <use xlink:href="#DejaVuSans-66" x="179.736328"/>
      <use xlink:href="#DejaVuSans-66" x="214.941406"/>
      <use xlink:href="#DejaVuSans-6e" x="250.146484"/>
      <use xlink:href="#DejaVuSans-65" x="313.525391"/>
      <use xlink:href="#DejaVuSans-77" x="375.048828"/>
     </g>
    </g>
    <g id="line2d_23">
     <path d="M 306.29 55.2425 
L 322.29 55.2425 
L 338.29 55.2425 
" style="fill: none; stroke: #ff0000; stroke-width: 1.5; stroke-linecap: square"/>
    </g>
    <g id="text_21">
     <!-- FedRecu -->
     <g transform="translate(351.09 60.8425) scale(0.16 -0.16)">
      <defs>
       <path id="DejaVuSans-46" d="M 628 4666 
L 3309 4666 
L 3309 4134 
L 1259 4134 
L 1259 2759 
L 3109 2759 
L 3109 2228 
L 1259 2228 
L 1259 0 
L 628 0 
L 628 4666 
z
" transform="scale(0.015625)"/>
      </defs>
      <use xlink:href="#DejaVuSans-46"/>
      <use xlink:href="#DejaVuSans-65" x="52.019531"/>
      <use xlink:href="#DejaVuSans-64" x="113.542969"/>
      <use xlink:href="#DejaVuSans-52" x="177.019531"/>
      <use xlink:href="#DejaVuSans-65" x="242.001953"/>
      <use xlink:href="#DejaVuSans-63" x="303.525391"/>
      <use xlink:href="#DejaVuSans-75" x="358.505859"/>
     </g>
    </g>
    <g id="line2d_24">
     <path d="M 306.29 78.7275 
L 322.29 78.7275 
L 338.29 78.7275 
" style="fill: none; stroke: #ffa500; stroke-width: 1.5; stroke-linecap: square"/>
    </g>
    <g id="text_22">
     <!-- SCAFFOLD -->
     <g transform="translate(351.09 84.3275) scale(0.16 -0.16)">
      <defs>
       <path id="DejaVuSans-41" d="M 2188 4044 
L 1331 1722 
L 3047 1722 
L 2188 4044 
z
M 1831 4666 
L 2547 4666 
L 4325 0 
L 3669 0 
L 3244 1197 
L 1141 1197 
L 716 0 
L 50 0 
L 1831 4666 
z
" transform="scale(0.015625)"/>
       <path id="DejaVuSans-4f" d="M 2522 4238 
Q 1834 4238 1429 3725 
Q 1025 3213 1025 2328 
Q 1025 1447 1429 934 
Q 1834 422 2522 422 
Q 3209 422 3611 934 
Q 4013 1447 4013 2328 
Q 4013 3213 3611 3725 
Q 3209 4238 2522 4238 
z
M 2522 4750 
Q 3503 4750 4090 4092 
Q 4678 3434 4678 2328 
Q 4678 1225 4090 567 
Q 3503 -91 2522 -91 
Q 1538 -91 948 565 
Q 359 1222 359 2328 
Q 359 3434 948 4092 
Q 1538 4750 2522 4750 
z
" transform="scale(0.015625)"/>
       <path id="DejaVuSans-44" d="M 1259 4147 
L 1259 519 
L 2022 519 
Q 2988 519 3436 956 
Q 3884 1394 3884 2338 
Q 3884 3275 3436 3711 
Q 2988 4147 2022 4147 
L 1259 4147 
z
M 628 4666 
L 1925 4666 
Q 3281 4666 3915 4102 
Q 4550 3538 4550 2338 
Q 4550 1131 3912 565 
Q 3275 0 1925 0 
L 628 0 
L 628 4666 
z
" transform="scale(0.015625)"/>
      </defs>
      <use xlink:href="#DejaVuSans-53"/>
      <use xlink:href="#DejaVuSans-43" x="63.476562"/>
      <use xlink:href="#DejaVuSans-41" x="133.300781"/>
      <use xlink:href="#DejaVuSans-46" x="201.708984"/>
      <use xlink:href="#DejaVuSans-46" x="259.228516"/>
      <use xlink:href="#DejaVuSans-4f" x="316.748047"/>
      <use xlink:href="#DejaVuSans-4c" x="395.458984"/>
      <use xlink:href="#DejaVuSans-44" x="451.171875"/>
     </g>
    </g>
    <g id="line2d_25">
     <path d="M 306.29 102.2125 
L 322.29 102.2125 
L 338.29 102.2125 
" style="fill: none; stroke: #0000ff; stroke-width: 1.5; stroke-linecap: square"/>
    </g>
    <g id="text_23">
     <!-- FedLin -->
     <g transform="translate(351.09 107.8125) scale(0.16 -0.16)">
      <use xlink:href="#DejaVuSans-46"/>
      <use xlink:href="#DejaVuSans-65" x="52.019531"/>
      <use xlink:href="#DejaVuSans-64" x="113.542969"/>
      <use xlink:href="#DejaVuSans-4c" x="177.019531"/>
      <use xlink:href="#DejaVuSans-69" x="232.732422"/>
      <use xlink:href="#DejaVuSans-6e" x="260.515625"/>
     </g>
    </g>
   </g>
  </g>
 </g>
 <defs>
  <clipPath id="p21dac78b21">
   <rect x="54.29" y="10.8" width="395.71" height="286.36"/>
  </clipPath>
 </defs>
</svg>
