<?xml version="1.0" encoding="utf-8" standalone="no"?>
<!DOCTYPE svg PUBLIC "-//W3C//DTD SVG 1.1//EN"
  "http://www.w3.org/Graphics/SVG/1.1/DTD/svg11.dtd">
<svg xmlns:xlink="http://www.w3.org/1999/xlink" width="460.8pt" height="345.6pt" viewBox="0 0 460.8 345.6" xmlns="http://www.w3.org/2000/svg" version="1.1">
 <metadata>
  <rdf:RDF xmlns:dc="http://purl.org/dc/elements/1.1/" xmlns:cc="http://creativecommons.org/ns#" xmlns:rdf="http://www.w3.org/1999/02/22-rdf-syntax-ns#">
   <cc:Work>
    <dc:type rdf:resource="http://purl.org/dc/dcmitype/StillImage"/>
    <dc:date>2025-09-23T20:50:10.511813</dc:date>
    <dc:format>image/svg+xml</dc:format>
    <dc:creator>
     <cc:Agent>
      <dc:title>Matplotlib v3.8.4, https://matplotlib.org/</dc:title>
     </cc:Agent>
    </dc:creator>
   </cc:Work>
  </rdf:RDF>
 </metadata>
 <defs>
  <style type="text/css">*{stroke-linejoin: round; stroke-linecap: butt}</style>
 </defs>
 <g id="figure_1">
  <g id="patch_1">
   <path d="M 0 345.6 
L 460.8 345.6 
L 460.8 0 
L 0 0 
z
" style="fill: #ffffff"/>
  </g>
  <g id="axes_1">
   <g id="patch_2">
    <path d="M 54.29 297.16 
L 450 297.16 
L 450 10.8 
L 54.29 10.8 
z
" style="fill: #ffffff"/>
   </g>
   <g id="matplotlib.axis_1">
    <g id="xtick_1">
     <g id="line2d_1">
      <defs>
       <path id="m6847943f23" d="M 0 0 
L 0 3.5 
" style="stroke: #000000; stroke-width: 0.8"/>
      </defs>
      <g>
       <use xlink:href="#m6847943f23" x="71.377477" y="297.16" style="stroke: #000000; stroke-width: 0.8"/>
      </g>
     </g>
     <g id="text_1">
      <!-- 0 -->
      <g transform="translate(68.196227 311.758438) scale(0.1 -0.1)">
       <defs>
        <path id="DejaVuSans-30" d="M 2034 4250 
Q 1547 4250 1301 3770 
Q 1056 3291 1056 2328 
Q 1056 1369 1301 889 
Q 1547 409 2034 409 
Q 2525 409 2770 889 
Q 3016 1369 3016 2328 
Q 3016 3291 2770 3770 
Q 2525 4250 2034 4250 
z
M 2034 4750 
Q 2819 4750 3233 4129 
Q 3647 3509 3647 2328 
Q 3647 1150 3233 529 
Q 2819 -91 2034 -91 
Q 1250 -91 836 529 
Q 422 1150 422 2328 
Q 422 3509 836 4129 
Q 1250 4750 2034 4750 
z
" transform="scale(0.015625)"/>
       </defs>
       <use xlink:href="#DejaVuSans-30"/>
      </g>
     </g>
    </g>
    <g id="xtick_2">
     <g id="line2d_2">
      <g>
       <use xlink:href="#m6847943f23" x="116.344523" y="297.16" style="stroke: #000000; stroke-width: 0.8"/>
      </g>
     </g>
     <g id="text_2">
      <!-- 500 -->
      <g transform="translate(106.800773 311.758438) scale(0.1 -0.1)">
       <defs>
        <path id="DejaVuSans-35" d="M 691 4666 
L 3169 4666 
L 3169 4134 
L 1269 4134 
L 1269 2991 
Q 1406 3038 1543 3061 
Q 1681 3084 1819 3084 
Q 2600 3084 3056 2656 
Q 3513 2228 3513 1497 
Q 3513 744 3044 326 
Q 2575 -91 1722 -91 
Q 1428 -91 1123 -41 
Q 819 9 494 109 
L 494 744 
Q 775 591 1075 516 
Q 1375 441 1709 441 
Q 2250 441 2565 725 
Q 2881 1009 2881 1497 
Q 2881 1984 2565 2268 
Q 2250 2553 1709 2553 
Q 1456 2553 1204 2497 
Q 953 2441 691 2322 
L 691 4666 
z
" transform="scale(0.015625)"/>
       </defs>
       <use xlink:href="#DejaVuSans-35"/>
       <use xlink:href="#DejaVuSans-30" x="63.623047"/>
       <use xlink:href="#DejaVuSans-30" x="127.246094"/>
      </g>
     </g>
    </g>
    <g id="xtick_3">
     <g id="line2d_3">
      <g>
       <use xlink:href="#m6847943f23" x="161.311568" y="297.16" style="stroke: #000000; stroke-width: 0.8"/>
      </g>
     </g>
     <g id="text_3">
      <!-- 1000 -->
      <g transform="translate(148.586568 311.758438) scale(0.1 -0.1)">
       <defs>
        <path id="DejaVuSans-31" d="M 794 531 
L 1825 531 
L 1825 4091 
L 703 3866 
L 703 4441 
L 1819 4666 
L 2450 4666 
L 2450 531 
L 3481 531 
L 3481 0 
L 794 0 
L 794 531 
z
" transform="scale(0.015625)"/>
       </defs>
       <use xlink:href="#DejaVuSans-31"/>
       <use xlink:href="#DejaVuSans-30" x="63.623047"/>
       <use xlink:href="#DejaVuSans-30" x="127.246094"/>
       <use xlink:href="#DejaVuSans-30" x="190.869141"/>
      </g>
     </g>
    </g>
    <g id="xtick_4">
     <g id="line2d_4">
      <g>
       <use xlink:href="#m6847943f23" x="206.278614" y="297.16" style="stroke: #000000; stroke-width: 0.8"/>
      </g>
     </g>
     <g id="text_4">
      <!-- 1500 -->
      <g transform="translate(193.553614 311.758438) scale(0.1 -0.1)">
       <use xlink:href="#DejaVuSans-31"/>
       <use xlink:href="#DejaVuSans-35" x="63.623047"/>
       <use xlink:href="#DejaVuSans-30" x="127.246094"/>
       <use xlink:href="#DejaVuSans-30" x="190.869141"/>
      </g>
     </g>
    </g>
    <g id="xtick_5">
     <g id="line2d_5">
      <g>
       <use xlink:href="#m6847943f23" x="251.245659" y="297.16" style="stroke: #000000; stroke-width: 0.8"/>
      </g>
     </g>
     <g id="text_5">
      <!-- 2000 -->
      <g transform="translate(238.520659 311.758438) scale(0.1 -0.1)">
       <defs>
        <path id="DejaVuSans-32" d="M 1228 531 
L 3431 531 
L 3431 0 
L 469 0 
L 469 531 
Q 828 903 1448 1529 
Q 2069 2156 2228 2338 
Q 2531 2678 2651 2914 
Q 2772 3150 2772 3378 
Q 2772 3750 2511 3984 
Q 2250 4219 1831 4219 
Q 1534 4219 1204 4116 
Q 875 4013 500 3803 
L 500 4441 
Q 881 4594 1212 4672 
Q 1544 4750 1819 4750 
Q 2544 4750 2975 4387 
Q 3406 4025 3406 3419 
Q 3406 3131 3298 2873 
Q 3191 2616 2906 2266 
Q 2828 2175 2409 1742 
Q 1991 1309 1228 531 
z
" transform="scale(0.015625)"/>
       </defs>
       <use xlink:href="#DejaVuSans-32"/>
       <use xlink:href="#DejaVuSans-30" x="63.623047"/>
       <use xlink:href="#DejaVuSans-30" x="127.246094"/>
       <use xlink:href="#DejaVuSans-30" x="190.869141"/>
      </g>
     </g>
    </g>
    <g id="xtick_6">
     <g id="line2d_6">
      <g>
       <use xlink:href="#m6847943f23" x="296.212705" y="297.16" style="stroke: #000000; stroke-width: 0.8"/>
      </g>
     </g>
     <g id="text_6">
      <!-- 2500 -->
      <g transform="translate(283.487705 311.758438) scale(0.1 -0.1)">
       <use xlink:href="#DejaVuSans-32"/>
       <use xlink:href="#DejaVuSans-35" x="63.623047"/>
       <use xlink:href="#DejaVuSans-30" x="127.246094"/>
       <use xlink:href="#DejaVuSans-30" x="190.869141"/>
      </g>
     </g>
    </g>
    <g id="xtick_7">
     <g id="line2d_7">
      <g>
       <use xlink:href="#m6847943f23" x="341.17975" y="297.16" style="stroke: #000000; stroke-width: 0.8"/>
      </g>
     </g>
     <g id="text_7">
      <!-- 3000 -->
      <g transform="translate(328.45475 311.758438) scale(0.1 -0.1)">
       <defs>
        <path id="DejaVuSans-33" d="M 2597 2516 
Q 3050 2419 3304 2112 
Q 3559 1806 3559 1356 
Q 3559 666 3084 287 
Q 2609 -91 1734 -91 
Q 1441 -91 1130 -33 
Q 819 25 488 141 
L 488 750 
Q 750 597 1062 519 
Q 1375 441 1716 441 
Q 2309 441 2620 675 
Q 2931 909 2931 1356 
Q 2931 1769 2642 2001 
Q 2353 2234 1838 2234 
L 1294 2234 
L 1294 2753 
L 1863 2753 
Q 2328 2753 2575 2939 
Q 2822 3125 2822 3475 
Q 2822 3834 2567 4026 
Q 2313 4219 1838 4219 
Q 1578 4219 1281 4162 
Q 984 4106 628 3988 
L 628 4550 
Q 988 4650 1302 4700 
Q 1616 4750 1894 4750 
Q 2613 4750 3031 4423 
Q 3450 4097 3450 3541 
Q 3450 3153 3228 2886 
Q 3006 2619 2597 2516 
z
" transform="scale(0.015625)"/>
       </defs>
       <use xlink:href="#DejaVuSans-33"/>
       <use xlink:href="#DejaVuSans-30" x="63.623047"/>
       <use xlink:href="#DejaVuSans-30" x="127.246094"/>
       <use xlink:href="#DejaVuSans-30" x="190.869141"/>
      </g>
     </g>
    </g>
    <g id="xtick_8">
     <g id="line2d_8">
      <g>
       <use xlink:href="#m6847943f23" x="386.146795" y="297.16" style="stroke: #000000; stroke-width: 0.8"/>
      </g>
     </g>
     <g id="text_8">
      <!-- 3500 -->
      <g transform="translate(373.421795 311.758438) scale(0.1 -0.1)">
       <use xlink:href="#DejaVuSans-33"/>
       <use xlink:href="#DejaVuSans-35" x="63.623047"/>
       <use xlink:href="#DejaVuSans-30" x="127.246094"/>
       <use xlink:href="#DejaVuSans-30" x="190.869141"/>
      </g>
     </g>
    </g>
    <g id="xtick_9">
     <g id="line2d_9">
      <g>
       <use xlink:href="#m6847943f23" x="431.113841" y="297.16" style="stroke: #000000; stroke-width: 0.8"/>
      </g>
     </g>
     <g id="text_9">
      <!-- 4000 -->
      <g transform="translate(418.388841 311.758438) scale(0.1 -0.1)">
       <defs>
        <path id="DejaVuSans-34" d="M 2419 4116 
L 825 1625 
L 2419 1625 
L 2419 4116 
z
M 2253 4666 
L 3047 4666 
L 3047 1625 
L 3713 1625 
L 3713 1100 
L 3047 1100 
L 3047 0 
L 2419 0 
L 2419 1100 
L 313 1100 
L 313 1709 
L 2253 4666 
z
" transform="scale(0.015625)"/>
       </defs>
       <use xlink:href="#DejaVuSans-34"/>
       <use xlink:href="#DejaVuSans-30" x="63.623047"/>
       <use xlink:href="#DejaVuSans-30" x="127.246094"/>
       <use xlink:href="#DejaVuSans-30" x="190.869141"/>
      </g>
     </g>
    </g>
    <g id="text_10">
     <!-- Communication Rounds -->
     <g transform="translate(157.06875 329.995625) scale(0.16 -0.16)">
      <defs>
       <path id="DejaVuSans-43" d="M 4122 4306 
L 4122 3641 
Q 3803 3938 3442 4084 
Q 3081 4231 2675 4231 
Q 1875 4231 1450 3742 
Q 1025 3253 1025 2328 
Q 1025 1406 1450 917 
Q 1875 428 2675 428 
Q 3081 428 3442 575 
Q 3803 722 4122 1019 
L 4122 359 
Q 3791 134 3420 21 
Q 3050 -91 2638 -91 
Q 1578 -91 968 557 
Q 359 1206 359 2328 
Q 359 3453 968 4101 
Q 1578 4750 2638 4750 
Q 3056 4750 3426 4639 
Q 3797 4528 4122 4306 
z
" transform="scale(0.015625)"/>
       <path id="DejaVuSans-6f" d="M 1959 3097 
Q 1497 3097 1228 2736 
Q 959 2375 959 1747 
Q 959 1119 1226 758 
Q 1494 397 1959 397 
Q 2419 397 2687 759 
Q 2956 1122 2956 1747 
Q 2956 2369 2687 2733 
Q 2419 3097 1959 3097 
z
M 1959 3584 
Q 2709 3584 3137 3096 
Q 3566 2609 3566 1747 
Q 3566 888 3137 398 
Q 2709 -91 1959 -91 
Q 1206 -91 779 398 
Q 353 888 353 1747 
Q 353 2609 779 3096 
Q 1206 3584 1959 3584 
z
" transform="scale(0.015625)"/>
       <path id="DejaVuSans-6d" d="M 3328 2828 
Q 3544 3216 3844 3400 
Q 4144 3584 4550 3584 
Q 5097 3584 5394 3201 
Q 5691 2819 5691 2113 
L 5691 0 
L 5113 0 
L 5113 2094 
Q 5113 2597 4934 2840 
Q 4756 3084 4391 3084 
Q 3944 3084 3684 2787 
Q 3425 2491 3425 1978 
L 3425 0 
L 2847 0 
L 2847 2094 
Q 2847 2600 2669 2842 
Q 2491 3084 2119 3084 
Q 1678 3084 1418 2786 
Q 1159 2488 1159 1978 
L 1159 0 
L 581 0 
L 581 3500 
L 1159 3500 
L 1159 2956 
Q 1356 3278 1631 3431 
Q 1906 3584 2284 3584 
Q 2666 3584 2933 3390 
Q 3200 3197 3328 2828 
z
" transform="scale(0.015625)"/>
       <path id="DejaVuSans-75" d="M 544 1381 
L 544 3500 
L 1119 3500 
L 1119 1403 
Q 1119 906 1312 657 
Q 1506 409 1894 409 
Q 2359 409 2629 706 
Q 2900 1003 2900 1516 
L 2900 3500 
L 3475 3500 
L 3475 0 
L 2900 0 
L 2900 538 
Q 2691 219 2414 64 
Q 2138 -91 1772 -91 
Q 1169 -91 856 284 
Q 544 659 544 1381 
z
M 1991 3584 
L 1991 3584 
z
" transform="scale(0.015625)"/>
       <path id="DejaVuSans-6e" d="M 3513 2113 
L 3513 0 
L 2938 0 
L 2938 2094 
Q 2938 2591 2744 2837 
Q 2550 3084 2163 3084 
Q 1697 3084 1428 2787 
Q 1159 2491 1159 1978 
L 1159 0 
L 581 0 
L 581 3500 
L 1159 3500 
L 1159 2956 
Q 1366 3272 1645 3428 
Q 1925 3584 2291 3584 
Q 2894 3584 3203 3211 
Q 3513 2838 3513 2113 
z
" transform="scale(0.015625)"/>
       <path id="DejaVuSans-69" d="M 603 3500 
L 1178 3500 
L 1178 0 
L 603 0 
L 603 3500 
z
M 603 4863 
L 1178 4863 
L 1178 4134 
L 603 4134 
L 603 4863 
z
" transform="scale(0.015625)"/>
       <path id="DejaVuSans-63" d="M 3122 3366 
L 3122 2828 
Q 2878 2963 2633 3030 
Q 2388 3097 2138 3097 
Q 1578 3097 1268 2742 
Q 959 2388 959 1747 
Q 959 1106 1268 751 
Q 1578 397 2138 397 
Q 2388 397 2633 464 
Q 2878 531 3122 666 
L 3122 134 
Q 2881 22 2623 -34 
Q 2366 -91 2075 -91 
Q 1284 -91 818 406 
Q 353 903 353 1747 
Q 353 2603 823 3093 
Q 1294 3584 2113 3584 
Q 2378 3584 2631 3529 
Q 2884 3475 3122 3366 
z
" transform="scale(0.015625)"/>
       <path id="DejaVuSans-61" d="M 2194 1759 
Q 1497 1759 1228 1600 
Q 959 1441 959 1056 
Q 959 750 1161 570 
Q 1363 391 1709 391 
Q 2188 391 2477 730 
Q 2766 1069 2766 1631 
L 2766 1759 
L 2194 1759 
z
M 3341 1997 
L 3341 0 
L 2766 0 
L 2766 531 
Q 2569 213 2275 61 
Q 1981 -91 1556 -91 
Q 1019 -91 701 211 
Q 384 513 384 1019 
Q 384 1609 779 1909 
Q 1175 2209 1959 2209 
L 2766 2209 
L 2766 2266 
Q 2766 2663 2505 2880 
Q 2244 3097 1772 3097 
Q 1472 3097 1187 3025 
Q 903 2953 641 2809 
L 641 3341 
Q 956 3463 1253 3523 
Q 1550 3584 1831 3584 
Q 2591 3584 2966 3190 
Q 3341 2797 3341 1997 
z
" transform="scale(0.015625)"/>
       <path id="DejaVuSans-74" d="M 1172 4494 
L 1172 3500 
L 2356 3500 
L 2356 3053 
L 1172 3053 
L 1172 1153 
Q 1172 725 1289 603 
Q 1406 481 1766 481 
L 2356 481 
L 2356 0 
L 1766 0 
Q 1100 0 847 248 
Q 594 497 594 1153 
L 594 3053 
L 172 3053 
L 172 3500 
L 594 3500 
L 594 4494 
L 1172 4494 
z
" transform="scale(0.015625)"/>
       <path id="DejaVuSans-20" transform="scale(0.015625)"/>
       <path id="DejaVuSans-52" d="M 2841 2188 
Q 3044 2119 3236 1894 
Q 3428 1669 3622 1275 
L 4263 0 
L 3584 0 
L 2988 1197 
Q 2756 1666 2539 1819 
Q 2322 1972 1947 1972 
L 1259 1972 
L 1259 0 
L 628 0 
L 628 4666 
L 2053 4666 
Q 2853 4666 3247 4331 
Q 3641 3997 3641 3322 
Q 3641 2881 3436 2590 
Q 3231 2300 2841 2188 
z
M 1259 4147 
L 1259 2491 
L 2053 2491 
Q 2509 2491 2742 2702 
Q 2975 2913 2975 3322 
Q 2975 3731 2742 3939 
Q 2509 4147 2053 4147 
L 1259 4147 
z
" transform="scale(0.015625)"/>
       <path id="DejaVuSans-64" d="M 2906 2969 
L 2906 4863 
L 3481 4863 
L 3481 0 
L 2906 0 
L 2906 525 
Q 2725 213 2448 61 
Q 2172 -91 1784 -91 
Q 1150 -91 751 415 
Q 353 922 353 1747 
Q 353 2572 751 3078 
Q 1150 3584 1784 3584 
Q 2172 3584 2448 3432 
Q 2725 3281 2906 2969 
z
M 947 1747 
Q 947 1113 1208 752 
Q 1469 391 1925 391 
Q 2381 391 2643 752 
Q 2906 1113 2906 1747 
Q 2906 2381 2643 2742 
Q 2381 3103 1925 3103 
Q 1469 3103 1208 2742 
Q 947 2381 947 1747 
z
" transform="scale(0.015625)"/>
       <path id="DejaVuSans-73" d="M 2834 3397 
L 2834 2853 
Q 2591 2978 2328 3040 
Q 2066 3103 1784 3103 
Q 1356 3103 1142 2972 
Q 928 2841 928 2578 
Q 928 2378 1081 2264 
Q 1234 2150 1697 2047 
L 1894 2003 
Q 2506 1872 2764 1633 
Q 3022 1394 3022 966 
Q 3022 478 2636 193 
Q 2250 -91 1575 -91 
Q 1294 -91 989 -36 
Q 684 19 347 128 
L 347 722 
Q 666 556 975 473 
Q 1284 391 1588 391 
Q 1994 391 2212 530 
Q 2431 669 2431 922 
Q 2431 1156 2273 1281 
Q 2116 1406 1581 1522 
L 1381 1569 
Q 847 1681 609 1914 
Q 372 2147 372 2553 
Q 372 3047 722 3315 
Q 1072 3584 1716 3584 
Q 2034 3584 2315 3537 
Q 2597 3491 2834 3397 
z
" transform="scale(0.015625)"/>
      </defs>
      <use xlink:href="#DejaVuSans-43"/>
      <use xlink:href="#DejaVuSans-6f" x="69.824219"/>
      <use xlink:href="#DejaVuSans-6d" x="131.005859"/>
      <use xlink:href="#DejaVuSans-6d" x="228.417969"/>
      <use xlink:href="#DejaVuSans-75" x="325.830078"/>
      <use xlink:href="#DejaVuSans-6e" x="389.208984"/>
      <use xlink:href="#DejaVuSans-69" x="452.587891"/>
      <use xlink:href="#DejaVuSans-63" x="480.371094"/>
      <use xlink:href="#DejaVuSans-61" x="535.351562"/>
      <use xlink:href="#DejaVuSans-74" x="596.630859"/>
      <use xlink:href="#DejaVuSans-69" x="635.839844"/>
      <use xlink:href="#DejaVuSans-6f" x="663.623047"/>
      <use xlink:href="#DejaVuSans-6e" x="724.804688"/>
      <use xlink:href="#DejaVuSans-20" x="788.183594"/>
      <use xlink:href="#DejaVuSans-52" x="819.970703"/>
      <use xlink:href="#DejaVuSans-6f" x="884.953125"/>
      <use xlink:href="#DejaVuSans-75" x="946.134766"/>
      <use xlink:href="#DejaVuSans-6e" x="1009.513672"/>
      <use xlink:href="#DejaVuSans-64" x="1072.892578"/>
      <use xlink:href="#DejaVuSans-73" x="1136.369141"/>
     </g>
    </g>
   </g>
   <g id="matplotlib.axis_2">
    <g id="ytick_1">
     <g id="line2d_10">
      <defs>
       <path id="mb58dfa0380" d="M 0 0 
L -3.5 0 
" style="stroke: #000000; stroke-width: 0.8"/>
      </defs>
      <g>
       <use xlink:href="#mb58dfa0380" x="54.29" y="288.629143" style="stroke: #000000; stroke-width: 0.8"/>
      </g>
     </g>
     <g id="text_11">
      <!-- 0.0 -->
      <g transform="translate(31.386875 292.428361) scale(0.1 -0.1)">
       <defs>
        <path id="DejaVuSans-2e" d="M 684 794 
L 1344 794 
L 1344 0 
L 684 0 
L 684 794 
z
" transform="scale(0.015625)"/>
       </defs>
       <use xlink:href="#DejaVuSans-30"/>
       <use xlink:href="#DejaVuSans-2e" x="63.623047"/>
       <use xlink:href="#DejaVuSans-30" x="95.410156"/>
      </g>
     </g>
    </g>
    <g id="ytick_2">
     <g id="line2d_11">
      <g>
       <use xlink:href="#mb58dfa0380" x="54.29" y="237.969307" style="stroke: #000000; stroke-width: 0.8"/>
      </g>
     </g>
     <g id="text_12">
      <!-- 0.1 -->
      <g transform="translate(31.386875 241.768525) scale(0.1 -0.1)">
       <use xlink:href="#DejaVuSans-30"/>
       <use xlink:href="#DejaVuSans-2e" x="63.623047"/>
       <use xlink:href="#DejaVuSans-31" x="95.410156"/>
      </g>
     </g>
    </g>
    <g id="ytick_3">
     <g id="line2d_12">
      <g>
       <use xlink:href="#mb58dfa0380" x="54.29" y="187.309471" style="stroke: #000000; stroke-width: 0.8"/>
      </g>
     </g>
     <g id="text_13">
      <!-- 0.2 -->
      <g transform="translate(31.386875 191.108689) scale(0.1 -0.1)">
       <use xlink:href="#DejaVuSans-30"/>
       <use xlink:href="#DejaVuSans-2e" x="63.623047"/>
       <use xlink:href="#DejaVuSans-32" x="95.410156"/>
      </g>
     </g>
    </g>
    <g id="ytick_4">
     <g id="line2d_13">
      <g>
       <use xlink:href="#mb58dfa0380" x="54.29" y="136.649635" style="stroke: #000000; stroke-width: 0.8"/>
      </g>
     </g>
     <g id="text_14">
      <!-- 0.3 -->
      <g transform="translate(31.386875 140.448853) scale(0.1 -0.1)">
       <use xlink:href="#DejaVuSans-30"/>
       <use xlink:href="#DejaVuSans-2e" x="63.623047"/>
       <use xlink:href="#DejaVuSans-33" x="95.410156"/>
      </g>
     </g>
    </g>
    <g id="ytick_5">
     <g id="line2d_14">
      <g>
       <use xlink:href="#mb58dfa0380" x="54.29" y="85.989799" style="stroke: #000000; stroke-width: 0.8"/>
      </g>
     </g>
     <g id="text_15">
      <!-- 0.4 -->
      <g transform="translate(31.386875 89.789017) scale(0.1 -0.1)">
       <use xlink:href="#DejaVuSans-30"/>
       <use xlink:href="#DejaVuSans-2e" x="63.623047"/>
       <use xlink:href="#DejaVuSans-34" x="95.410156"/>
      </g>
     </g>
    </g>
    <g id="ytick_6">
     <g id="line2d_15">
      <g>
       <use xlink:href="#mb58dfa0380" x="54.29" y="35.329963" style="stroke: #000000; stroke-width: 0.8"/>
      </g>
     </g>
     <g id="text_16">
      <!-- 0.5 -->
      <g transform="translate(31.386875 39.129181) scale(0.1 -0.1)">
       <use xlink:href="#DejaVuSans-30"/>
       <use xlink:href="#DejaVuSans-2e" x="63.623047"/>
       <use xlink:href="#DejaVuSans-35" x="95.410156"/>
      </g>
     </g>
    </g>
    <g id="text_17">
     <!-- Train Accuracy -->
     <g transform="translate(24.059375 212.2375) rotate(-90) scale(0.16 -0.16)">
      <defs>
       <path id="DejaVuSans-54" d="M -19 4666 
L 3928 4666 
L 3928 4134 
L 2272 4134 
L 2272 0 
L 1638 0 
L 1638 4134 
L -19 4134 
L -19 4666 
z
" transform="scale(0.015625)"/>
       <path id="DejaVuSans-72" d="M 2631 2963 
Q 2534 3019 2420 3045 
Q 2306 3072 2169 3072 
Q 1681 3072 1420 2755 
Q 1159 2438 1159 1844 
L 1159 0 
L 581 0 
L 581 3500 
L 1159 3500 
L 1159 2956 
Q 1341 3275 1631 3429 
Q 1922 3584 2338 3584 
Q 2397 3584 2469 3576 
Q 2541 3569 2628 3553 
L 2631 2963 
z
" transform="scale(0.015625)"/>
       <path id="DejaVuSans-41" d="M 2188 4044 
L 1331 1722 
L 3047 1722 
L 2188 4044 
z
M 1831 4666 
L 2547 4666 
L 4325 0 
L 3669 0 
L 3244 1197 
L 1141 1197 
L 716 0 
L 50 0 
L 1831 4666 
z
" transform="scale(0.015625)"/>
       <path id="DejaVuSans-79" d="M 2059 -325 
Q 1816 -950 1584 -1140 
Q 1353 -1331 966 -1331 
L 506 -1331 
L 506 -850 
L 844 -850 
Q 1081 -850 1212 -737 
Q 1344 -625 1503 -206 
L 1606 56 
L 191 3500 
L 800 3500 
L 1894 763 
L 2988 3500 
L 3597 3500 
L 2059 -325 
z
" transform="scale(0.015625)"/>
      </defs>
      <use xlink:href="#DejaVuSans-54"/>
      <use xlink:href="#DejaVuSans-72" x="46.333984"/>
      <use xlink:href="#DejaVuSans-61" x="87.447266"/>
      <use xlink:href="#DejaVuSans-69" x="148.726562"/>
      <use xlink:href="#DejaVuSans-6e" x="176.509766"/>
      <use xlink:href="#DejaVuSans-20" x="239.888672"/>
      <use xlink:href="#DejaVuSans-41" x="271.675781"/>
      <use xlink:href="#DejaVuSans-63" x="338.333984"/>
      <use xlink:href="#DejaVuSans-63" x="393.314453"/>
      <use xlink:href="#DejaVuSans-75" x="448.294922"/>
      <use xlink:href="#DejaVuSans-72" x="511.673828"/>
      <use xlink:href="#DejaVuSans-61" x="552.787109"/>
      <use xlink:href="#DejaVuSans-63" x="614.066406"/>
      <use xlink:href="#DejaVuSans-79" x="669.046875"/>
     </g>
    </g>
   </g>
   <g id="line2d_16">
    <path d="M 72.366752 282.272677 
L 73.356027 275.076677 
L 74.345302 280.353743 
L 75.334577 271.478677 
L 76.323852 278.07501 
L 77.313127 273.157744 
L 78.302402 276.156077 
L 79.291677 273.997277 
L 80.280952 270.519211 
L 81.270227 271.118877 
L 82.259502 266.681344 
L 83.248777 263.323211 
L 84.238052 264.162745 
L 85.227327 252.889012 
L 86.216602 246.892346 
L 87.205877 247.851813 
L 88.195152 242.214946 
L 89.184427 254.927879 
L 90.173702 233.939547 
L 91.162977 241.25548 
L 92.152252 235.018947 
L 93.141527 219.787415 
L 94.130802 217.628615 
L 95.120077 221.346548 
L 96.109352 227.942881 
L 97.098627 210.432616 
L 98.087902 216.069482 
L 99.077177 215.110015 
L 100.066452 220.027281 
L 101.055727 206.354883 
L 102.045002 203.116683 
L 103.034277 198.199416 
L 104.023552 180.329351 
L 105.012827 225.064481 
L 106.002102 187.285484 
L 106.991377 226.983414 
L 107.980652 171.454285 
L 108.969927 189.924017 
L 109.959202 175.532018 
L 110.948477 215.949548 
L 111.937752 170.854619 
L 112.927027 182.728018 
L 113.916302 168.695819 
L 114.905577 175.771885 
L 115.894852 153.344353 
L 116.884127 176.611418 
L 117.873402 160.540353 
L 118.862677 164.138353 
L 119.851952 158.501486 
L 120.841227 163.178886 
L 121.830502 157.54202 
L 122.819777 149.746354 
L 123.809052 149.746354 
L 125.787602 166.177219 
L 126.776877 135.594221 
L 127.766152 126.719155 
L 128.755427 152.264953 
L 129.744702 142.670288 
L 130.733977 146.388221 
L 131.723252 148.18722 
L 132.712527 144.589221 
L 133.701802 135.834088 
L 134.691077 147.587554 
L 135.680352 132.475955 
L 136.669627 134.754688 
L 137.658902 160.780219 
L 138.648177 121.801889 
L 139.637452 163.538686 
L 140.626727 186.685817 
L 141.616002 114.006223 
L 142.605277 133.675288 
L 143.594552 129.957355 
L 144.583827 136.433755 
L 145.573102 128.997889 
L 146.562377 164.378219 
L 148.540927 128.278289 
L 150.519477 104.651424 
L 151.508752 93.737491 
L 152.498027 107.76969 
L 153.487302 111.847423 
L 154.476577 157.90182 
L 156.455127 114.725823 
L 157.444402 100.093958 
L 158.433677 99.134491 
L 159.422952 131.156688 
L 160.412227 101.293291 
L 161.401502 102.852424 
L 162.390777 115.085623 
L 163.380052 109.688624 
L 164.369327 136.553688 
L 165.358602 148.067287 
L 166.347877 97.935158 
L 167.337152 105.490957 
L 168.326427 155.623087 
L 169.315702 74.54816 
L 170.304977 78.625893 
L 171.294252 135.954021 
L 172.283527 73.588693 
L 173.272802 109.088957 
L 174.262077 129.957355 
L 175.251352 119.043423 
L 176.240627 83.902959 
L 177.229902 91.578692 
L 178.219177 78.985693 
L 179.208452 94.217225 
L 180.197727 87.381025 
L 181.187002 112.44709 
L 182.176277 149.386554 
L 183.165552 101.173358 
L 184.154827 104.411557 
L 185.144102 119.283289 
L 186.133377 99.374358 
L 187.122652 91.938492 
L 188.111927 101.773024 
L 189.101202 81.744159 
L 190.090477 84.382692 
L 191.079752 87.620892 
L 192.069027 90.379358 
L 193.058302 80.904626 
L 194.047577 73.348826 
L 195.036852 74.18836 
L 196.026127 70.59036 
L 197.015402 116.04509 
L 198.004677 97.575358 
L 198.993952 97.695291 
L 199.983227 84.742492 
L 200.972502 95.296625 
L 201.961777 97.935158 
L 202.951052 97.455424 
L 203.940327 143.150021 
L 204.929602 109.328824 
L 205.918877 71.66976 
L 206.908152 86.781359 
L 207.897427 82.223892 
L 208.886702 71.789693 
L 209.875977 90.859092 
L 210.865252 79.825226 
L 211.854527 88.220559 
L 212.843802 82.823559 
L 213.833077 71.429893 
L 214.822352 147.82742 
L 215.811627 80.544826 
L 216.800902 161.619753 
L 217.790177 81.984026 
L 218.779452 59.316627 
L 219.768727 85.222225 
L 220.758002 122.761356 
L 221.747277 68.671427 
L 222.736552 127.918489 
L 223.725827 159.101153 
L 224.715102 114.006223 
L 225.704377 88.220559 
L 226.693652 68.311627 
L 227.682927 55.358828 
L 228.672202 81.384359 
L 229.661477 74.788026 
L 231.640027 58.477094 
L 232.629302 72.02956 
L 233.618577 69.031227 
L 234.607852 93.257758 
L 235.597127 75.62756 
L 236.586402 72.38936 
L 237.575677 110.168357 
L 238.564952 82.583692 
L 239.554227 59.196694 
L 240.543502 90.619225 
L 241.532777 55.718628 
L 242.522052 79.225559 
L 243.511327 69.15116 
L 244.500602 89.659758 
L 245.489877 69.271093 
L 246.479152 63.154494 
L 247.468427 45.644229 
L 248.457702 59.916294 
L 249.446977 102.612557 
L 250.436252 89.180025 
L 251.425527 87.381025 
L 252.414802 93.737491 
L 253.404077 54.639228 
L 254.393352 42.166162 
L 255.382627 67.472094 
L 256.371902 71.549827 
L 257.361177 103.931824 
L 258.350452 56.438228 
L 259.339727 78.745826 
L 260.329002 72.02956 
L 261.318277 59.196694 
L 262.307552 55.838561 
L 263.296827 117.12449 
L 264.286102 49.721962 
L 265.275377 69.391027 
L 266.264652 121.442089 
L 267.253927 65.19336 
L 268.243202 48.522628 
L 269.232477 66.752494 
L 270.221752 82.583692 
L 271.211027 60.515961 
L 272.200302 131.516488 
L 273.189577 87.860759 
L 274.178852 118.083956 
L 275.168127 96.855758 
L 276.157402 59.556494 
L 277.146677 60.276094 
L 278.135952 75.507626 
L 279.125227 59.676427 
L 280.114502 100.213891 
L 281.103777 68.191693 
L 282.093052 59.796361 
L 283.082327 61.835227 
L 284.071602 111.847423 
L 285.060877 71.30996 
L 286.050152 65.433227 
L 287.039427 30.292763 
L 288.028702 58.117294 
L 289.017977 81.504292 
L 290.007252 91.218892 
L 290.996527 88.700292 
L 291.985802 51.161161 
L 292.975077 70.470427 
L 293.964352 60.276094 
L 294.953627 128.398222 
L 295.942902 42.166162 
L 296.932177 151.06562 
L 297.921452 127.198889 
L 298.910727 82.463759 
L 299.900002 82.583692 
L 300.889277 93.617558 
L 301.878552 61.115627 
L 302.867827 57.037894 
L 303.857102 45.404362 
L 304.846377 39.647562 
L 305.835652 65.55316 
L 306.824927 80.424892 
L 307.814202 62.314961 
L 308.803477 120.242756 
L 309.792752 54.399361 
L 310.782027 54.639228 
L 311.771302 50.681428 
L 312.760577 49.602028 
L 313.749852 127.438755 
L 314.739127 57.997361 
L 315.728402 65.433227 
L 316.717677 65.793027 
L 317.706952 72.149493 
L 318.696227 63.75416 
L 319.685502 63.514294 
L 320.674777 81.504292 
L 321.664052 63.994027 
L 322.653327 54.279428 
L 323.642602 65.673094 
L 325.621152 43.725295 
L 326.610427 64.713627 
L 327.599702 81.264426 
L 328.588977 67.831893 
L 329.578252 84.142826 
L 330.567527 133.675288 
L 331.556802 46.723628 
L 332.546077 61.595361 
L 333.535352 52.600361 
L 334.524627 68.551493 
L 335.513902 92.058425 
L 336.503177 71.429893 
L 337.492452 107.76969 
L 338.481727 93.857425 
L 339.471002 54.039561 
L 340.460277 62.674761 
L 341.449552 66.032894 
L 342.438827 53.080095 
L 343.428102 104.771357 
L 344.417377 57.397694 
L 345.406652 67.592027 
L 346.395927 44.684762 
L 347.385202 50.801362 
L 348.374477 67.232227 
L 349.363752 48.522628 
L 350.353027 112.08729 
L 351.342302 78.745826 
L 352.331577 148.18722 
L 353.320852 74.668093 
L 354.310127 51.161161 
L 355.299402 32.211696 
L 356.288677 63.274427 
L 357.277952 44.924629 
L 358.267227 81.624226 
L 359.256502 35.809696 
L 360.245777 31.731963 
L 361.235052 67.35216 
L 362.224327 50.561495 
L 363.213602 124.080622 
L 364.202877 77.426559 
L 365.192152 64.233894 
L 366.181427 46.363829 
L 367.170702 53.799695 
L 368.159977 57.157828 
L 369.149252 66.872427 
L 370.138527 61.235561 
L 371.127802 49.841895 
L 372.117077 86.541492 
L 374.095627 35.449896 
L 375.084902 57.277761 
L 376.074177 40.127296 
L 377.063452 53.559828 
L 378.052727 93.737491 
L 379.042002 87.980692 
L 380.031277 113.286623 
L 381.020552 36.409363 
L 382.009827 31.731963 
L 382.999102 43.845229 
L 383.988377 69.87076 
L 384.977652 55.718628 
L 385.966927 61.355494 
L 386.956202 46.123962 
L 387.945477 46.723628 
L 388.934752 34.850229 
L 389.924027 28.613697 
L 390.913302 102.492624 
L 392.891852 39.527629 
L 393.881127 46.483762 
L 394.870402 39.287762 
L 395.859677 100.693624 
L 396.848952 45.884095 
L 397.838227 50.921295 
L 398.827502 37.968496 
L 399.816777 74.308293 
L 400.806052 85.342159 
L 401.795327 45.164495 
L 402.784602 33.890763 
L 403.773877 72.02956 
L 404.763152 43.845229 
L 405.752427 46.963495 
L 406.741702 54.639228 
L 407.730977 40.726962 
L 408.720252 55.598694 
L 409.709527 82.343826 
L 410.698802 50.321628 
L 411.688077 44.684762 
L 412.677352 50.081762 
L 413.666627 38.448229 
L 414.655902 95.296625 
L 415.645177 56.438228 
L 416.634452 23.816364 
L 417.623727 36.529296 
L 418.613002 108.969024 
L 419.602277 44.804695 
L 420.591552 45.284429 
L 421.580827 158.26162 
L 422.570102 52.120628 
L 423.559377 64.47376 
L 424.548652 69.391027 
L 424.548652 69.391027 
" clip-path="url(#pf8755b18c2)" style="fill: none; stroke: #000000; stroke-width: 1.5; stroke-linecap: square"/>
   </g>
   <g id="line2d_17">
    <path d="M 72.276818 283.484003 
L 73.176159 282.164737 
L 74.0755 281.768957 
L 74.974841 279.26235 
L 75.874182 279.394277 
L 78.572205 258.813718 
L 79.471545 254.460139 
L 80.370886 247.731879 
L 81.270227 244.16986 
L 82.169568 240.080133 
L 83.068909 232.956094 
L 83.96825 233.08802 
L 84.867591 232.29646 
L 85.766932 226.623614 
L 86.666273 224.248934 
L 87.565614 216.465262 
L 88.464955 214.354435 
L 89.364295 209.605076 
L 90.263636 207.494249 
L 91.162977 208.285809 
L 92.062318 205.647276 
L 92.961659 197.467823 
L 93.861 196.544337 
L 94.760341 194.565437 
L 95.659682 190.87149 
L 96.559023 188.364884 
L 97.458364 184.275158 
L 98.357705 181.900478 
L 99.257045 183.087818 
L 100.156386 187.441397 
L 101.055727 178.734238 
L 101.955068 178.470385 
L 102.854409 171.346345 
L 103.75375 171.874052 
L 104.653091 174.116805 
L 105.552432 173.193318 
L 106.451773 169.103592 
L 107.351114 158.417533 
L 108.250455 161.451846 
L 109.149795 162.111479 
L 110.049136 162.111479 
L 110.948477 160.264506 
L 111.847818 153.932027 
L 112.747159 153.932027 
L 113.6465 152.21698 
L 114.545841 153.140467 
L 115.445182 146.280281 
L 116.344523 149.44652 
L 117.243864 140.475508 
L 118.143205 148.391107 
L 119.042545 141.398994 
L 119.941886 139.552021 
L 120.841227 139.947801 
L 121.740568 139.552021 
L 122.639909 141.003214 
L 124.438591 129.525595 
L 125.337932 134.011102 
L 126.237273 123.193116 
L 127.136614 132.164128 
L 128.035955 128.074402 
L 128.935295 125.435869 
L 129.834636 121.082289 
L 130.733977 130.449082 
L 131.633318 120.554583 
L 132.532659 114.222103 
L 133.432 123.852749 
L 134.331341 112.37513 
L 135.230682 121.478069 
L 136.130023 119.763023 
L 137.029364 116.860636 
L 137.928705 119.631096 
L 138.828045 117.784123 
L 139.727386 123.720822 
L 140.626727 114.090176 
L 141.526068 117.784123 
L 142.425409 110.132377 
L 143.32475 108.945037 
L 144.224091 105.119164 
L 145.123432 109.60467 
L 146.022773 109.868523 
L 146.922114 107.493844 
L 147.821455 110.528157 
L 148.720795 107.493844 
L 149.620136 104.855311 
L 150.519477 104.459531 
L 151.418818 107.493844 
L 152.318159 108.02155 
L 153.2175 105.64687 
L 154.116841 102.612557 
L 155.016182 102.480631 
L 155.915523 99.578244 
L 156.814864 102.744484 
L 157.714205 100.633658 
L 158.613545 101.029438 
L 159.512886 94.960811 
L 160.412227 96.280078 
L 161.311568 87.836772 
L 162.210909 98.390904 
L 163.11025 95.488518 
L 164.009591 91.398792 
L 164.908932 89.815672 
L 165.808273 95.620445 
L 166.707614 96.148151 
L 167.606955 88.496405 
L 168.506295 87.836772 
L 169.405636 86.517505 
L 170.304977 96.148151 
L 171.204318 87.968699 
L 172.103659 86.517505 
L 173.003 85.330165 
L 173.902341 90.871085 
L 174.801682 85.198239 
L 175.701023 89.024112 
L 176.600364 83.747046 
L 177.499705 81.900072 
L 178.399045 86.121725 
L 179.298386 81.108512 
L 180.197727 79.657319 
L 181.097068 87.836772 
L 181.996409 77.942273 
L 182.89575 84.538605 
L 183.795091 80.712732 
L 184.694432 84.934385 
L 185.593773 88.232552 
L 186.493114 81.372366 
L 187.392455 79.129613 
L 188.291795 85.857872 
L 189.191136 76.754933 
L 190.090477 80.316952 
L 190.989818 81.900072 
L 191.889159 87.440992 
L 192.7885 77.414566 
L 193.687841 78.469979 
L 194.587182 83.483192 
L 195.486523 79.393466 
L 196.385864 73.72062 
L 197.285205 82.295852 
L 198.184545 74.644106 
L 199.083886 75.039886 
L 199.983227 81.768146 
L 200.882568 76.623006 
L 201.781909 72.53328 
L 202.68125 71.34594 
L 203.580591 68.311627 
L 204.479932 70.686307 
L 205.379273 74.51218 
L 206.278614 76.491079 
L 207.177955 72.269426 
L 208.077295 71.609793 
L 208.976636 68.047773 
L 209.875977 74.1164 
L 210.775318 77.150713 
L 211.674659 73.060986 
L 212.574 78.997686 
L 213.473341 77.150713 
L 215.272023 69.36704 
L 216.171364 73.060986 
L 217.070705 78.338053 
L 217.970045 73.72062 
L 218.869386 69.894747 
L 219.768727 71.214013 
L 220.668068 64.353827 
L 221.567409 70.422453 
L 222.46675 69.498967 
L 223.366091 61.715294 
L 224.265432 78.206126 
L 225.164773 63.166487 
L 226.064114 68.839333 
L 226.963455 72.1375 
L 227.862795 70.55438 
L 228.762136 62.506854 
L 229.661477 60.791807 
L 230.560818 63.166487 
L 231.460159 67.651993 
L 232.3595 69.630893 
L 233.258841 62.243001 
L 234.158182 68.047773 
L 235.057523 70.290527 
L 236.856205 61.187587 
L 237.755545 63.694194 
L 238.654886 61.055661 
L 239.554227 59.076761 
L 240.453568 58.153274 
L 241.352909 59.340614 
L 242.25225 61.979147 
L 243.151591 62.902634 
L 244.050932 62.374927 
L 244.950273 63.82612 
L 245.849614 61.319514 
L 246.748955 58.153274 
L 247.648295 62.243001 
L 248.547636 60.791807 
L 249.446977 61.451441 
L 250.346318 55.646668 
L 251.245659 54.855108 
L 252.145 60.264101 
L 253.044341 69.103187 
L 254.843023 60.000247 
L 255.742364 60.000247 
L 256.641705 61.715294 
L 257.541045 53.271988 
L 258.440386 55.778594 
L 259.339727 55.382814 
L 260.239068 58.153274 
L 261.138409 63.694194 
L 262.03775 54.459328 
L 262.937091 56.042448 
L 263.836432 56.438228 
L 264.735773 60.264101 
L 265.635114 57.625568 
L 266.534455 60.527954 
L 267.433795 57.889421 
L 268.333136 53.271988 
L 269.232477 60.396027 
L 270.131818 60.132174 
L 271.031159 57.625568 
L 271.9305 58.417128 
L 272.829841 58.812908 
L 273.729182 51.161161 
L 274.628523 53.271988 
L 275.527864 58.944834 
L 276.427205 62.374927 
L 277.326545 54.855108 
L 278.225886 53.271988 
L 280.024568 54.723181 
L 280.923909 59.604467 
L 281.82325 56.702081 
L 282.722591 62.638781 
L 283.621932 52.612355 
L 284.521273 50.369602 
L 285.420614 58.021348 
L 286.319955 54.327401 
L 287.219295 62.374927 
L 288.118636 54.327401 
L 289.017977 59.208688 
L 289.917318 50.897308 
L 290.816659 56.965934 
L 291.716 58.021348 
L 292.615341 49.314188 
L 293.514682 58.680981 
L 294.414023 59.208688 
L 295.313364 58.021348 
L 296.212705 58.153274 
L 297.112045 53.535841 
L 298.011386 47.467215 
L 298.910727 51.556941 
L 299.810068 50.897308 
L 300.709409 54.987035 
L 301.60875 54.723181 
L 302.508091 55.118961 
L 303.407432 54.855108 
L 304.306773 45.752169 
L 305.206114 57.229788 
L 306.105455 52.216575 
L 307.004795 52.480428 
L 307.904136 51.820795 
L 308.803477 59.340614 
L 309.702818 50.105748 
L 310.602159 55.382814 
L 311.5015 51.029235 
L 312.400841 53.931621 
L 313.300182 58.417128 
L 314.199523 52.876208 
L 315.098864 55.382814 
L 315.998205 45.224462 
L 316.897545 61.451441 
L 317.796886 50.105748 
L 318.696227 36.649229 
L 319.595568 58.417128 
L 320.494909 54.723181 
L 321.39425 53.535841 
L 322.293591 56.042448 
L 324.092273 48.522628 
L 324.991614 53.403915 
L 325.890955 56.042448 
L 326.790295 49.709968 
L 327.689636 50.501528 
L 328.588977 44.432902 
L 329.488318 52.084648 
L 330.387659 49.446115 
L 331.287 53.667768 
L 332.186341 49.314188 
L 333.085682 52.348501 
L 333.985023 56.965934 
L 334.884364 51.688868 
L 335.783705 52.216575 
L 336.683045 45.224462 
L 337.582386 50.237675 
L 338.481727 47.467215 
L 339.381068 54.723181 
L 340.280409 44.696755 
L 341.17975 51.293088 
L 342.079091 42.981709 
L 342.978432 50.105748 
L 343.877773 49.841895 
L 344.777114 47.203362 
L 345.676455 45.224462 
L 346.575795 51.952721 
L 347.475136 57.361714 
L 348.374477 48.258775 
L 349.273818 50.765382 
L 350.173159 42.849782 
L 351.0725 54.327401 
L 351.971841 54.327401 
L 352.871182 46.016022 
L 353.770523 49.182262 
L 354.669864 51.688868 
L 355.569205 56.834008 
L 356.468545 47.467215 
L 357.367886 47.467215 
L 358.267227 43.905195 
L 359.166568 47.599142 
L 360.065909 56.042448 
L 360.96525 49.709968 
L 361.864591 49.973822 
L 362.763932 42.454002 
L 363.663273 46.675655 
L 364.562614 53.535841 
L 365.461955 46.543729 
L 366.361295 43.245562 
L 367.260636 51.293088 
L 368.159977 51.425015 
L 369.059318 43.377489 
L 369.958659 44.960609 
L 370.858 46.147949 
L 371.757341 43.509415 
L 372.656682 47.467215 
L 373.556023 46.807582 
L 374.455364 49.050335 
L 375.354705 45.356389 
L 376.254045 48.126848 
L 377.153386 51.425015 
L 378.052727 50.237675 
L 378.952068 47.335288 
L 379.851409 51.161161 
L 380.75075 49.446115 
L 381.650091 51.952721 
L 382.549432 48.918408 
L 383.448773 55.778594 
L 384.348114 41.662442 
L 385.247455 43.641342 
L 386.146795 52.480428 
L 387.046136 51.820795 
L 387.945477 50.765382 
L 388.844818 52.216575 
L 389.744159 49.050335 
L 391.542841 44.037122 
L 392.442182 46.279875 
L 393.341523 46.543729 
L 394.240864 49.709968 
L 395.140205 47.467215 
L 396.039545 45.752169 
L 396.938886 43.773269 
L 397.838227 48.258775 
L 398.737568 47.862995 
L 399.636909 47.599142 
L 400.53625 42.717855 
L 401.435591 45.752169 
L 402.334932 50.237675 
L 403.234273 43.905195 
L 404.133614 49.709968 
L 405.032955 51.688868 
L 405.932295 41.134736 
L 406.831636 54.459328 
L 407.730977 42.849782 
L 408.630318 49.578042 
L 409.529659 53.140061 
L 410.429 47.071435 
L 411.328341 50.369602 
L 412.227682 48.390702 
L 413.127023 47.862995 
L 414.026364 45.224462 
L 414.925705 51.952721 
L 415.825045 45.620242 
L 416.724386 47.335288 
L 417.623727 47.599142 
L 418.523068 49.841895 
L 419.422409 49.709968 
L 420.32175 54.855108 
L 421.221091 45.092535 
L 422.120432 40.738956 
L 423.019773 49.050335 
L 423.919114 48.786482 
L 424.818455 44.564829 
L 425.717795 43.641342 
L 426.617136 48.522628 
L 427.516477 54.327401 
L 428.415818 44.828682 
L 429.315159 44.432902 
L 430.2145 49.578042 
L 431.113841 43.377489 
L 432.013182 52.876208 
L 432.013182 52.876208 
" clip-path="url(#pf8755b18c2)" style="fill: none; stroke: #ff0000; stroke-width: 1.5; stroke-linecap: square"/>
   </g>
   <g id="line2d_18">
    <path d="M 72.276818 283.36407 
L 74.0755 282.776396 
L 74.974841 281.756963 
L 75.874182 282.272677 
L 76.773523 280.929423 
L 78.572205 280.48567 
L 79.471545 281.013377 
L 80.370886 280.209823 
L 81.270227 280.509657 
L 83.068909 280.029923 
L 83.96825 279.682117 
L 84.867591 279.754077 
L 85.766932 279.51421 
L 86.666273 279.142417 
L 87.565614 279.957963 
L 89.364295 278.43481 
L 91.162977 278.998497 
L 92.062318 277.799164 
L 92.961659 277.835144 
L 93.861 278.32687 
L 94.760341 276.299997 
L 95.659682 275.892224 
L 96.559023 276.084117 
L 97.458364 274.740864 
L 98.357705 275.328537 
L 99.257045 274.129204 
L 100.156386 274.956744 
L 101.055727 274.381064 
L 101.955068 273.049804 
L 102.854409 273.061797 
L 103.75375 272.845917 
L 104.653091 272.917877 
L 105.552432 272.390171 
L 106.451773 272.845917 
L 107.351114 271.994391 
L 108.250455 272.114324 
L 109.149795 271.946417 
L 110.049136 270.435257 
L 110.948477 270.003497 
L 111.847818 268.228484 
L 112.747159 268.312438 
L 114.545841 266.765298 
L 115.445182 265.074238 
L 119.042545 260.192952 
L 119.941886 260.085012 
L 120.841227 258.154085 
L 121.740568 257.278572 
L 122.639909 256.043259 
L 123.53925 254.160305 
L 124.438591 253.152865 
L 125.337932 252.769079 
L 126.237273 252.948979 
L 128.035955 250.586292 
L 128.935295 250.886126 
L 129.834636 249.183072 
L 131.633318 249.171079 
L 132.532659 247.683906 
L 133.432 248.259586 
L 134.331341 247.048259 
L 135.230682 246.448593 
L 136.130023 246.052813 
L 137.029364 242.502786 
L 137.928705 244.289793 
L 138.828045 244.805506 
L 139.727386 243.929993 
L 140.626727 244.229826 
L 141.526068 243.95398 
L 142.425409 242.6587 
L 143.32475 242.202953 
L 144.224091 241.555313 
L 145.123432 241.61528 
L 146.022773 239.684353 
L 146.922114 240.53588 
L 147.821455 240.164087 
L 148.720795 240.116113 
L 149.620136 238.568973 
L 150.519477 239.048707 
L 151.418818 238.101233 
L 152.318159 238.113227 
L 154.116841 236.134327 
L 155.016182 235.846487 
L 155.915523 235.1029 
L 156.814864 234.7431 
L 157.714205 233.543767 
L 158.613545 232.65626 
L 159.512886 233.675694 
L 160.412227 233.723667 
L 161.311568 233.891574 
L 162.210909 232.752207 
L 163.11025 233.255927 
L 164.908932 230.881247 
L 165.808273 230.689354 
L 166.707614 231.744767 
L 167.606955 231.780747 
L 168.506295 228.974307 
L 169.405636 229.070254 
L 170.304977 228.662481 
L 171.204318 228.806401 
L 172.103659 228.542547 
L 173.003 226.935441 
L 173.902341 227.990854 
L 174.801682 226.203848 
L 175.701023 228.194741 
L 177.499705 227.439161 
L 178.399045 224.884581 
L 179.298386 225.280361 
L 180.197727 225.244381 
L 181.097068 223.037608 
L 181.996409 224.896574 
L 182.89575 222.833721 
L 183.795091 222.449935 
L 184.694432 224.308901 
L 185.593773 223.085581 
L 186.493114 223.781194 
L 187.392455 223.553321 
L 188.291795 221.958208 
L 189.191136 222.509901 
L 190.090477 220.698908 
L 190.989818 222.377975 
L 191.889159 221.838275 
L 192.7885 219.187748 
L 193.687841 219.151768 
L 194.587182 220.902795 
L 195.486523 220.123228 
L 196.385864 219.715455 
L 197.285205 218.504128 
L 198.184545 219.259708 
L 199.083886 219.139775 
L 199.983227 216.261375 
L 200.882568 217.820508 
L 201.781909 218.899908 
L 202.68125 218.132335 
L 203.580591 217.172868 
L 204.479932 215.541775 
L 205.379273 216.705128 
L 206.278614 213.826729 
L 207.177955 214.978089 
L 208.077295 213.442942 
L 208.976636 215.469815 
L 209.875977 213.251049 
L 210.775318 213.838722 
L 211.674659 212.723342 
L 212.574 214.594302 
L 213.473341 214.102575 
L 214.372682 213.418955 
L 215.272023 213.442942 
L 216.171364 211.847829 
L 217.070705 214.498355 
L 217.970045 212.039722 
L 218.869386 213.083142 
L 219.768727 211.619955 
L 220.668068 210.744442 
L 221.567409 211.895802 
L 222.46675 212.195635 
L 223.366091 210.708462 
L 224.265432 211.500022 
L 225.164773 209.641056 
L 226.064114 211.260155 
L 226.963455 210.168762 
L 227.862795 210.168762 
L 228.762136 208.525676 
L 229.661477 209.149329 
L 230.560818 210.024842 
L 231.460159 210.360656 
L 232.3595 207.470262 
L 233.258841 209.161322 
L 234.158182 207.734116 
L 235.057523 207.770096 
L 235.956864 207.926009 
L 236.856205 209.041389 
L 237.755545 207.218402 
L 238.654886 207.146442 
L 239.554227 205.431396 
L 240.453568 206.210963 
L 241.352909 207.242389 
L 243.151591 204.579869 
L 244.050932 205.527343 
L 244.950273 204.927676 
L 245.849614 202.984756 
L 246.748955 203.572429 
L 247.648295 203.056716 
L 248.547636 202.121236 
L 249.446977 202.684923 
L 250.346318 201.929343 
L 251.245659 204.148109 
L 252.145 202.217183 
L 253.044341 201.965323 
L 253.943682 202.732896 
L 254.843023 201.005856 
L 255.742364 202.217183 
L 256.641705 202.552996 
L 257.541045 202.217183 
L 259.339727 200.753996 
L 260.239068 201.55755 
L 261.138409 201.533563 
L 262.03775 199.03895 
L 262.937091 201.509576 
L 263.836432 199.638616 
L 264.735773 200.346223 
L 265.635114 200.094363 
L 266.534455 199.43473 
L 267.433795 199.446723 
L 268.333136 200.610076 
L 269.232477 198.691143 
L 270.131818 198.954996 
L 271.031159 196.88015 
L 271.9305 197.036063 
L 272.829841 199.374763 
L 273.729182 197.503803 
L 274.628523 197.23995 
L 275.527864 198.307356 
L 276.427205 198.403303 
L 278.225886 196.760217 
L 279.125227 196.23251 
L 280.024568 195.129123 
L 280.923909 196.424403 
L 282.722591 195.884703 
L 283.621932 194.013743 
L 284.521273 194.805303 
L 285.420614 195.87271 
L 287.219295 194.445503 
L 288.118636 195.452943 
L 289.917318 191.902917 
L 290.816659 193.438064 
L 291.716 192.862384 
L 292.615341 193.258164 
L 293.514682 193.977764 
L 294.414023 193.438064 
L 295.313364 191.639064 
L 296.212705 193.450057 
L 297.112045 192.838397 
L 298.011386 191.615077 
L 298.910727 191.902917 
L 299.810068 190.97943 
L 300.709409 191.003417 
L 301.60875 194.049723 
L 302.508091 192.23873 
L 303.407432 192.070824 
L 304.306773 190.54767 
L 305.206114 191.723017 
L 306.105455 189.93601 
L 307.004795 188.784651 
L 307.904136 188.544784 
L 308.803477 191.73501 
L 309.702818 190.967437 
L 310.602159 191.59109 
L 312.400841 189.312357 
L 313.300182 187.321464 
L 314.199523 188.664717 
L 315.098864 188.544784 
L 315.998205 187.249504 
L 316.897545 190.103917 
L 319.595568 187.081597 
L 320.494909 187.549337 
L 321.39425 187.093591 
L 322.293591 188.017077 
L 323.192932 188.172991 
L 324.092273 185.966217 
L 324.991614 186.433957 
L 325.890955 187.753224 
L 326.790295 185.738344 
L 328.588977 186.457944 
L 329.488318 185.186651 
L 330.387659 186.050171 
L 331.287 185.390538 
L 332.186341 186.925684 
L 333.085682 184.754891 
L 333.985023 185.258611 
L 334.884364 184.646951 
L 335.783705 183.855391 
L 336.683045 184.622964 
L 337.582386 186.182097 
L 338.481727 185.438511 
L 339.381068 184.251171 
L 340.280409 185.522464 
L 341.17975 183.099811 
L 342.079091 183.543564 
L 342.978432 183.411638 
L 343.877773 181.300811 
L 344.777114 183.183764 
L 345.676455 181.612638 
L 346.575795 182.092371 
L 347.475136 183.567551 
L 348.374477 182.368218 
L 349.273818 180.797091 
L 350.173159 182.380211 
L 351.0725 182.811971 
L 351.971841 181.084931 
L 352.871182 181.672604 
L 353.770523 180.089485 
L 354.669864 181.468718 
L 355.569205 181.972438 
L 356.468545 181.900478 
L 357.367886 180.473271 
L 358.267227 182.296258 
L 359.166568 180.041511 
L 360.065909 179.381878 
L 360.96525 179.165998 
L 361.864591 179.861611 
L 362.763932 178.602311 
L 363.663273 179.285931 
L 364.562614 179.106031 
L 365.461955 178.362445 
L 366.361295 179.309918 
L 367.260636 179.046065 
L 368.159977 180.545231 
L 369.059318 179.130018 
L 369.958659 178.458391 
L 370.858 179.969551 
L 371.757341 179.393871 
L 372.656682 179.513805 
L 373.556023 177.414971 
L 374.455364 177.798758 
L 375.354705 177.187098 
L 376.254045 177.211085 
L 377.153386 176.527465 
L 378.952068 178.710251 
L 379.851409 177.846731 
L 382.549432 175.963778 
L 383.448773 175.735905 
L 384.348114 177.043178 
L 385.247455 174.116805 
L 386.146795 175.232185 
L 387.046136 176.959225 
L 387.945477 175.603978 
L 388.844818 173.996872 
L 389.744159 172.617639 
L 390.6435 176.395538 
L 391.542841 174.872385 
L 392.442182 174.536572 
L 393.341523 175.124245 
L 394.240864 175.232185 
L 395.140205 172.581659 
L 396.039545 174.128798 
L 396.938886 172.917472 
L 397.838227 173.205312 
L 398.737568 173.661058 
L 399.636909 173.433185 
L 400.53625 173.888932 
L 402.334932 172.989432 
L 403.234273 173.481158 
L 404.133614 173.073385 
L 405.032955 171.394319 
L 405.932295 172.125912 
L 406.831636 171.310365 
L 407.730977 172.149899 
L 408.630318 169.895152 
L 409.529659 172.593652 
L 411.328341 171.981992 
L 412.227682 170.842625 
L 413.127023 171.526245 
L 414.026364 173.565112 
L 414.925705 171.442292 
L 416.724386 171.190432 
L 417.623727 169.667279 
L 418.523068 168.647846 
L 419.422409 170.722692 
L 420.32175 170.422859 
L 421.221091 169.883159 
L 423.019773 169.259505 
L 423.919114 171.094485 
L 424.818455 169.199539 
L 425.717795 170.051065 
L 426.617136 167.928246 
L 427.516477 170.614752 
L 428.415818 168.719805 
L 429.315159 169.499372 
L 430.2145 166.285159 
L 431.113841 167.652399 
L 432.013182 170.206979 
L 432.013182 170.206979 
" clip-path="url(#pf8755b18c2)" style="fill: none; stroke: #ffa500; stroke-width: 1.5; stroke-linecap: square"/>
   </g>
   <g id="line2d_19">
    <path d="M 72.276818 282.82437 
L 73.176159 284.143636 
L 74.0755 283.352076 
L 74.974841 281.768957 
L 75.874182 283.22015 
L 76.773523 281.63703 
L 77.672864 282.956296 
L 78.572205 281.768957 
L 79.471545 281.900883 
L 80.370886 281.109323 
L 81.270227 279.526203 
L 82.169568 278.734643 
L 83.068909 279.526203 
L 83.96825 281.505103 
L 84.867591 279.130423 
L 85.766932 278.07501 
L 86.666273 278.07501 
L 87.565614 279.394277 
L 88.464955 278.07501 
L 89.364295 278.86657 
L 90.263636 280.185837 
L 91.162977 277.547304 
L 92.062318 279.130423 
L 92.961659 277.019597 
L 93.861 280.05391 
L 94.760341 276.49189 
L 95.659682 276.623817 
L 96.559023 276.49189 
L 97.458364 277.151524 
L 98.357705 274.776844 
L 99.257045 272.929871 
L 100.156386 274.381064 
L 101.055727 272.270237 
L 101.955068 272.138311 
L 102.854409 272.797944 
L 103.75375 272.270237 
L 105.552432 270.291337 
L 106.451773 273.721431 
L 107.351114 272.402164 
L 108.250455 270.687117 
L 110.049136 272.138311 
L 110.948477 272.402164 
L 111.847818 269.763631 
L 112.747159 265.278125 
L 113.6465 265.805831 
L 114.545841 262.771518 
L 115.445182 260.792618 
L 116.344523 260.660692 
L 117.243864 260.396838 
L 118.143205 260.396838 
L 119.042545 260.792618 
L 119.941886 255.515552 
L 120.841227 258.022158 
L 121.740568 256.175185 
L 122.639909 256.043259 
L 123.53925 249.974632 
L 124.438591 252.349312 
L 125.337932 252.481239 
L 126.237273 253.932432 
L 127.136614 248.391513 
L 128.035955 247.995733 
L 128.935295 249.446926 
L 129.834636 253.404725 
L 130.733977 252.349312 
L 131.633318 253.008945 
L 132.532659 251.821606 
L 133.432 245.621053 
L 134.331341 249.710779 
L 135.230682 245.884906 
L 136.130023 245.621053 
L 137.029364 242.850593 
L 137.928705 244.697566 
L 138.828045 247.468026 
L 139.727386 247.995733 
L 140.626727 246.544539 
L 141.526068 245.489126 
L 142.425409 243.114446 
L 143.32475 242.58674 
L 144.224091 243.510226 
L 145.123432 243.3783 
L 146.022773 239.552427 
L 146.922114 244.829493 
L 147.821455 245.357199 
L 148.720795 242.58674 
L 149.620136 243.906006 
L 150.519477 240.739766 
L 151.418818 241.79518 
L 152.318159 238.497013 
L 153.2175 236.386187 
L 154.116841 238.101233 
L 155.016182 237.83738 
L 155.915523 235.85848 
L 156.814864 235.990407 
L 158.613545 241.927106 
L 159.512886 241.3994 
L 160.412227 237.573527 
L 161.311568 232.428387 
L 163.11025 233.219947 
L 164.009591 234.539214 
L 164.908932 232.824167 
L 165.808273 236.122333 
L 166.707614 232.560314 
L 168.506295 231.768754 
L 169.405636 232.032607 
L 170.304977 225.832054 
L 171.204318 229.921781 
L 172.103659 233.219947 
L 173.003 229.921781 
L 174.801682 228.734441 
L 175.701023 231.109121 
L 176.600364 228.206734 
L 177.499705 227.679027 
L 178.399045 228.470587 
L 179.298386 224.776641 
L 180.197727 222.929668 
L 181.097068 223.985081 
L 181.996409 227.942881 
L 182.89575 222.797741 
L 183.795091 220.554988 
L 184.694432 220.027281 
L 186.493114 225.832054 
L 187.392455 224.908568 
L 188.291795 225.963981 
L 189.191136 225.304348 
L 190.090477 224.380861 
L 190.989818 220.950768 
L 191.889159 223.721228 
L 192.7885 221.478475 
L 193.687841 224.117008 
L 194.587182 223.325448 
L 195.486523 221.478475 
L 196.385864 223.061595 
L 197.285205 222.665815 
L 198.184545 223.985081 
L 199.083886 217.652602 
L 199.983227 216.333335 
L 200.882568 223.325448 
L 201.781909 217.388748 
L 202.68125 218.576088 
L 203.580591 217.916455 
L 204.479932 219.631501 
L 205.379273 219.235722 
L 206.278614 217.256822 
L 207.177955 216.729115 
L 208.077295 218.708015 
L 208.976636 217.256822 
L 209.875977 215.409848 
L 210.775318 214.354435 
L 211.674659 215.277922 
L 214.372682 212.507462 
L 215.272023 213.299022 
L 216.171364 214.882142 
L 217.070705 219.367648 
L 217.970045 213.826729 
L 218.869386 215.014069 
L 219.768727 217.916455 
L 220.668068 211.979755 
L 221.567409 211.979755 
L 222.46675 209.737002 
L 223.366091 215.541775 
L 224.265432 207.098469 
L 225.164773 216.201408 
L 226.064114 205.647276 
L 226.963455 205.383423 
L 227.862795 214.486362 
L 229.661477 204.855716 
L 230.560818 205.779203 
L 231.460159 204.591863 
L 232.3595 209.209296 
L 233.258841 209.605076 
L 234.158182 212.903242 
L 235.057523 208.681589 
L 235.956864 209.868929 
L 236.856205 207.626176 
L 237.755545 209.077369 
L 238.654886 208.945442 
L 239.554227 210.924342 
L 240.453568 205.647276 
L 241.352909 203.800303 
L 242.25225 203.008743 
L 243.151591 206.570763 
L 244.050932 201.16177 
L 244.950273 203.932229 
L 245.849614 209.605076 
L 246.748955 205.383423 
L 247.648295 204.196083 
L 248.547636 205.779203 
L 249.446977 203.404523 
L 250.346318 206.834616 
L 251.245659 198.655163 
L 252.145 199.18287 
L 253.044341 203.800303 
L 253.943682 200.106356 
L 254.843023 203.272596 
L 255.742364 191.926904 
L 256.641705 205.119569 
L 257.541045 202.481036 
L 258.440386 201.689476 
L 259.339727 198.523236 
L 260.239068 197.467823 
L 261.138409 201.821403 
L 262.03775 202.217183 
L 262.937091 201.95333 
L 263.836432 197.59975 
L 264.735773 201.16177 
L 265.635114 196.80819 
L 266.534455 197.863603 
L 267.433795 199.314796 
L 268.333136 199.842503 
L 269.232477 193.773877 
L 270.131818 202.34911 
L 271.031159 197.467823 
L 271.9305 198.919016 
L 272.829841 196.676263 
L 273.729182 196.280483 
L 274.628523 196.80819 
L 276.427205 198.523236 
L 277.326545 200.502136 
L 278.225886 193.24617 
L 279.125227 195.884703 
L 280.024568 195.884703 
L 280.923909 196.41241 
L 281.82325 193.378097 
L 282.722591 193.378097 
L 283.621932 195.752777 
L 284.521273 190.343784 
L 285.420614 194.169657 
L 287.219295 195.884703 
L 288.118636 189.816077 
L 289.017977 194.169657 
L 289.917318 196.940117 
L 290.816659 188.760664 
L 291.716 191.926904 
L 292.615341 196.280483 
L 293.514682 188.364884 
L 295.313364 194.697363 
L 296.212705 190.07993 
L 297.112045 195.488923 
L 298.011386 184.407084 
L 298.910727 192.190757 
L 299.810068 185.726351 
L 300.709409 191.66305 
L 301.60875 194.301583 
L 302.508091 192.190757 
L 303.407432 191.926904 
L 304.306773 184.802864 
L 305.206114 190.211857 
L 306.105455 188.364884 
L 307.004795 192.45461 
L 307.904136 188.232957 
L 308.803477 191.66305 
L 309.702818 189.024517 
L 310.602159 187.705251 
L 311.5015 187.441397 
L 312.400841 186.254057 
L 313.300182 183.351671 
L 314.199523 184.143231 
L 315.098864 183.747451 
L 315.998205 191.66305 
L 316.897545 183.483598 
L 317.796886 186.254057 
L 318.696227 188.364884 
L 319.595568 179.525798 
L 321.39425 187.441397 
L 322.293591 189.684151 
L 323.192932 189.024517 
L 324.092273 186.122131 
L 324.991614 188.364884 
L 325.890955 186.517911 
L 326.790295 182.428184 
L 327.689636 190.47571 
L 328.588977 180.713138 
L 329.488318 186.913691 
L 330.387659 182.955891 
L 331.287 187.045617 
L 332.186341 180.581211 
L 333.085682 185.198644 
L 333.985023 185.066718 
L 334.884364 185.066718 
L 335.783705 179.921578 
L 336.683045 182.428184 
L 337.582386 186.649837 
L 338.481727 178.998091 
L 339.381068 182.823964 
L 340.280409 175.304145 
L 341.17975 184.011304 
L 342.079091 181.636624 
L 342.978432 180.845065 
L 343.877773 183.087818 
L 344.777114 183.747451 
L 345.676455 176.755338 
L 346.575795 175.567998 
L 347.475136 175.172218 
L 348.374477 181.768551 
L 349.273818 173.589098 
L 350.173159 174.776438 
L 351.0725 183.219744 
L 351.971841 178.074605 
L 352.871182 182.032404 
L 353.770523 180.976991 
L 354.669864 176.227632 
L 355.569205 178.866165 
L 356.468545 185.990204 
L 357.367886 180.449285 
L 358.267227 182.823964 
L 359.166568 173.852952 
L 360.065909 180.449285 
L 360.96525 176.623412 
L 361.864591 181.108918 
L 362.763932 175.304145 
L 363.663273 173.457172 
L 364.562614 175.567998 
L 365.461955 178.206531 
L 366.361295 176.359558 
L 367.260636 171.742125 
L 368.159977 177.151118 
L 369.059318 176.887265 
L 369.958659 178.734238 
L 370.858 173.852952 
L 371.757341 177.283045 
L 372.656682 177.283045 
L 373.556023 177.414971 
L 374.455364 178.206531 
L 375.354705 170.686712 
L 376.254045 171.610199 
L 377.153386 176.623412 
L 378.052727 174.248732 
L 378.952068 172.797539 
L 379.851409 171.742125 
L 380.75075 169.895152 
L 381.650091 176.887265 
L 382.549432 175.831852 
L 383.448773 175.567998 
L 384.348114 176.887265 
L 385.247455 175.172218 
L 386.146795 175.040292 
L 387.046136 175.172218 
L 387.945477 168.971665 
L 388.844818 178.470385 
L 389.744159 167.256619 
L 391.542841 168.707812 
L 392.442182 171.214419 
L 393.341523 178.338458 
L 394.240864 171.082492 
L 395.140205 168.971665 
L 396.039545 170.686712 
L 396.938886 167.124692 
L 397.838227 167.652399 
L 398.737568 171.874052 
L 399.636909 169.895152 
L 400.53625 178.206531 
L 401.435591 171.082492 
L 402.334932 164.881939 
L 403.234273 162.375333 
L 404.133614 163.298819 
L 405.032955 168.839739 
L 405.932295 170.554785 
L 406.831636 167.784326 
L 407.730977 171.742125 
L 408.630318 174.776438 
L 409.529659 168.180106 
L 410.429 168.707812 
L 411.328341 167.520472 
L 412.227682 165.145792 
L 413.127023 163.430746 
L 414.026364 167.784326 
L 414.925705 164.222306 
L 415.825045 163.298819 
L 416.724386 167.916252 
L 417.623727 165.937352 
L 418.523068 158.681386 
L 419.422409 166.333132 
L 420.32175 160.792213 
L 421.221091 160.924139 
L 422.120432 168.971665 
L 423.019773 173.325245 
L 423.919114 166.596986 
L 424.818455 168.971665 
L 425.717795 166.201206 
L 426.617136 165.277719 
L 427.516477 160.264506 
L 428.415818 166.596986 
L 429.315159 165.937352 
L 430.2145 166.728912 
L 431.113841 166.860839 
L 432.013182 167.124692 
L 432.013182 167.124692 
" clip-path="url(#pf8755b18c2)" style="fill: none; stroke: #0000ff; stroke-width: 1.5; stroke-linecap: square"/>
   </g>
   <g id="patch_3">
    <path d="M 54.29 297.16 
L 54.29 10.8 
" style="fill: none; stroke: #000000; stroke-width: 0.8; stroke-linejoin: miter; stroke-linecap: square"/>
   </g>
   <g id="patch_4">
    <path d="M 450 297.16 
L 450 10.8 
" style="fill: none; stroke: #000000; stroke-width: 0.8; stroke-linejoin: miter; stroke-linecap: square"/>
   </g>
   <g id="patch_5">
    <path d="M 54.29 297.16 
L 450 297.16 
" style="fill: none; stroke: #000000; stroke-width: 0.8; stroke-linejoin: miter; stroke-linecap: square"/>
   </g>
   <g id="patch_6">
    <path d="M 54.29 10.8 
L 450 10.8 
" style="fill: none; stroke: #000000; stroke-width: 0.8; stroke-linejoin: miter; stroke-linecap: square"/>
   </g>
   <g id="legend_1">
    <g id="patch_7">
     <path d="M 303.09 289.16 
L 438.8 289.16 
Q 442 289.16 442 285.96 
L 442 193.62 
Q 442 190.42 438.8 190.42 
L 303.09 190.42 
Q 299.89 190.42 299.89 193.62 
L 299.89 285.96 
Q 299.89 289.16 303.09 289.16 
z
" style="fill: #ffffff; opacity: 0.8; stroke: #cccccc; stroke-linejoin: miter"/>
    </g>
    <g id="line2d_20">
     <path d="M 306.29 203.3775 
L 322.29 203.3775 
L 338.29 203.3775 
" style="fill: none; stroke: #000000; stroke-width: 1.5; stroke-linecap: square"/>
    </g>
    <g id="text_18">
     <!-- Scaffnew -->
     <g transform="translate(351.09 208.9775) scale(0.16 -0.16)">
      <defs>
       <path id="DejaVuSans-53" d="M 3425 4513 
L 3425 3897 
Q 3066 4069 2747 4153 
Q 2428 4238 2131 4238 
Q 1616 4238 1336 4038 
Q 1056 3838 1056 3469 
Q 1056 3159 1242 3001 
Q 1428 2844 1947 2747 
L 2328 2669 
Q 3034 2534 3370 2195 
Q 3706 1856 3706 1288 
Q 3706 609 3251 259 
Q 2797 -91 1919 -91 
Q 1588 -91 1214 -16 
Q 841 59 441 206 
L 441 856 
Q 825 641 1194 531 
Q 1563 422 1919 422 
Q 2459 422 2753 634 
Q 3047 847 3047 1241 
Q 3047 1584 2836 1778 
Q 2625 1972 2144 2069 
L 1759 2144 
Q 1053 2284 737 2584 
Q 422 2884 422 3419 
Q 422 4038 858 4394 
Q 1294 4750 2059 4750 
Q 2388 4750 2728 4690 
Q 3069 4631 3425 4513 
z
" transform="scale(0.015625)"/>
       <path id="DejaVuSans-66" d="M 2375 4863 
L 2375 4384 
L 1825 4384 
Q 1516 4384 1395 4259 
Q 1275 4134 1275 3809 
L 1275 3500 
L 2222 3500 
L 2222 3053 
L 1275 3053 
L 1275 0 
L 697 0 
L 697 3053 
L 147 3053 
L 147 3500 
L 697 3500 
L 697 3744 
Q 697 4328 969 4595 
Q 1241 4863 1831 4863 
L 2375 4863 
z
" transform="scale(0.015625)"/>
       <path id="DejaVuSans-65" d="M 3597 1894 
L 3597 1613 
L 953 1613 
Q 991 1019 1311 708 
Q 1631 397 2203 397 
Q 2534 397 2845 478 
Q 3156 559 3463 722 
L 3463 178 
Q 3153 47 2828 -22 
Q 2503 -91 2169 -91 
Q 1331 -91 842 396 
Q 353 884 353 1716 
Q 353 2575 817 3079 
Q 1281 3584 2069 3584 
Q 2775 3584 3186 3129 
Q 3597 2675 3597 1894 
z
M 3022 2063 
Q 3016 2534 2758 2815 
Q 2500 3097 2075 3097 
Q 1594 3097 1305 2825 
Q 1016 2553 972 2059 
L 3022 2063 
z
" transform="scale(0.015625)"/>
       <path id="DejaVuSans-77" d="M 269 3500 
L 844 3500 
L 1563 769 
L 2278 3500 
L 2956 3500 
L 3675 769 
L 4391 3500 
L 4966 3500 
L 4050 0 
L 3372 0 
L 2619 2869 
L 1863 0 
L 1184 0 
L 269 3500 
z
" transform="scale(0.015625)"/>
      </defs>
      <use xlink:href="#DejaVuSans-53"/>
      <use xlink:href="#DejaVuSans-63" x="63.476562"/>
      <use xlink:href="#DejaVuSans-61" x="118.457031"/>
      <use xlink:href="#DejaVuSans-66" x="179.736328"/>
      <use xlink:href="#DejaVuSans-66" x="214.941406"/>
      <use xlink:href="#DejaVuSans-6e" x="250.146484"/>
      <use xlink:href="#DejaVuSans-65" x="313.525391"/>
      <use xlink:href="#DejaVuSans-77" x="375.048828"/>
     </g>
    </g>
    <g id="line2d_21">
     <path d="M 306.29 226.8625 
L 322.29 226.8625 
L 338.29 226.8625 
" style="fill: none; stroke: #ff0000; stroke-width: 1.5; stroke-linecap: square"/>
    </g>
    <g id="text_19">
     <!-- Fedrcu -->
     <g transform="translate(351.09 232.4625) scale(0.16 -0.16)">
      <defs>
       <path id="DejaVuSans-46" d="M 628 4666 
L 3309 4666 
L 3309 4134 
L 1259 4134 
L 1259 2759 
L 3109 2759 
L 3109 2228 
L 1259 2228 
L 1259 0 
L 628 0 
L 628 4666 
z
" transform="scale(0.015625)"/>
      </defs>
      <use xlink:href="#DejaVuSans-46"/>
      <use xlink:href="#DejaVuSans-65" x="52.019531"/>
      <use xlink:href="#DejaVuSans-64" x="113.542969"/>
      <use xlink:href="#DejaVuSans-72" x="177.019531"/>
      <use xlink:href="#DejaVuSans-63" x="215.882812"/>
      <use xlink:href="#DejaVuSans-75" x="270.863281"/>
     </g>
    </g>
    <g id="line2d_22">
     <path d="M 306.29 250.3475 
L 322.29 250.3475 
L 338.29 250.3475 
" style="fill: none; stroke: #ffa500; stroke-width: 1.5; stroke-linecap: square"/>
    </g>
    <g id="text_20">
     <!-- SCAFFOLD -->
     <g transform="translate(351.09 255.9475) scale(0.16 -0.16)">
      <defs>
       <path id="DejaVuSans-4f" d="M 2522 4238 
Q 1834 4238 1429 3725 
Q 1025 3213 1025 2328 
Q 1025 1447 1429 934 
Q 1834 422 2522 422 
Q 3209 422 3611 934 
Q 4013 1447 4013 2328 
Q 4013 3213 3611 3725 
Q 3209 4238 2522 4238 
z
M 2522 4750 
Q 3503 4750 4090 4092 
Q 4678 3434 4678 2328 
Q 4678 1225 4090 567 
Q 3503 -91 2522 -91 
Q 1538 -91 948 565 
Q 359 1222 359 2328 
Q 359 3434 948 4092 
Q 1538 4750 2522 4750 
z
" transform="scale(0.015625)"/>
       <path id="DejaVuSans-4c" d="M 628 4666 
L 1259 4666 
L 1259 531 
L 3531 531 
L 3531 0 
L 628 0 
L 628 4666 
z
" transform="scale(0.015625)"/>
       <path id="DejaVuSans-44" d="M 1259 4147 
L 1259 519 
L 2022 519 
Q 2988 519 3436 956 
Q 3884 1394 3884 2338 
Q 3884 3275 3436 3711 
Q 2988 4147 2022 4147 
L 1259 4147 
z
M 628 4666 
L 1925 4666 
Q 3281 4666 3915 4102 
Q 4550 3538 4550 2338 
Q 4550 1131 3912 565 
Q 3275 0 1925 0 
L 628 0 
L 628 4666 
z
" transform="scale(0.015625)"/>
      </defs>
      <use xlink:href="#DejaVuSans-53"/>
      <use xlink:href="#DejaVuSans-43" x="63.476562"/>
      <use xlink:href="#DejaVuSans-41" x="133.300781"/>
      <use xlink:href="#DejaVuSans-46" x="201.708984"/>
      <use xlink:href="#DejaVuSans-46" x="259.228516"/>
      <use xlink:href="#DejaVuSans-4f" x="316.748047"/>
      <use xlink:href="#DejaVuSans-4c" x="395.458984"/>
      <use xlink:href="#DejaVuSans-44" x="451.171875"/>
     </g>
    </g>
    <g id="line2d_23">
     <path d="M 306.29 273.8325 
L 322.29 273.8325 
L 338.29 273.8325 
" style="fill: none; stroke: #0000ff; stroke-width: 1.5; stroke-linecap: square"/>
    </g>
    <g id="text_21">
     <!-- FedLin -->
     <g transform="translate(351.09 279.4325) scale(0.16 -0.16)">
      <use xlink:href="#DejaVuSans-46"/>
      <use xlink:href="#DejaVuSans-65" x="52.019531"/>
      <use xlink:href="#DejaVuSans-64" x="113.542969"/>
      <use xlink:href="#DejaVuSans-4c" x="177.019531"/>
      <use xlink:href="#DejaVuSans-69" x="232.732422"/>
      <use xlink:href="#DejaVuSans-6e" x="260.515625"/>
     </g>
    </g>
   </g>
  </g>
 </g>
 <defs>
  <clipPath id="pf8755b18c2">
   <rect x="54.29" y="10.8" width="395.71" height="286.36"/>
  </clipPath>
 </defs>
</svg>
