<?xml version="1.0" encoding="utf-8" standalone="no"?>
<!DOCTYPE svg PUBLIC "-//W3C//DTD SVG 1.1//EN"
  "http://www.w3.org/Graphics/SVG/1.1/DTD/svg11.dtd">
<svg xmlns:xlink="http://www.w3.org/1999/xlink" width="460.8pt" height="345.6pt" viewBox="0 0 460.8 345.6" xmlns="http://www.w3.org/2000/svg" version="1.1">
 <metadata>
  <rdf:RDF xmlns:dc="http://purl.org/dc/elements/1.1/" xmlns:cc="http://creativecommons.org/ns#" xmlns:rdf="http://www.w3.org/1999/02/22-rdf-syntax-ns#">
   <cc:Work>
    <dc:type rdf:resource="http://purl.org/dc/dcmitype/StillImage"/>
    <dc:date>2025-09-23T20:50:41.010959</dc:date>
    <dc:format>image/svg+xml</dc:format>
    <dc:creator>
     <cc:Agent>
      <dc:title>Matplotlib v3.8.4, https://matplotlib.org/</dc:title>
     </cc:Agent>
    </dc:creator>
   </cc:Work>
  </rdf:RDF>
 </metadata>
 <defs>
  <style type="text/css">*{stroke-linejoin: round; stroke-linecap: butt}</style>
 </defs>
 <g id="figure_1">
  <g id="patch_1">
   <path d="M 0 345.6 
L 460.8 345.6 
L 460.8 0 
L 0 0 
z
" style="fill: #ffffff"/>
  </g>
  <g id="axes_1">
   <g id="patch_2">
    <path d="M 54.29 297.16 
L 450 297.16 
L 450 10.8 
L 54.29 10.8 
z
" style="fill: #ffffff"/>
   </g>
   <g id="matplotlib.axis_1">
    <g id="xtick_1">
     <g id="line2d_1">
      <defs>
       <path id="m0fbaf8118f" d="M 0 0 
L 0 3.5 
" style="stroke: #000000; stroke-width: 0.8"/>
      </defs>
      <g>
       <use xlink:href="#m0fbaf8118f" x="70.478136" y="297.16" style="stroke: #000000; stroke-width: 0.8"/>
      </g>
     </g>
     <g id="text_1">
      <!-- 0 -->
      <g transform="translate(67.296886 311.758438) scale(0.1 -0.1)">
       <defs>
        <path id="DejaVuSans-30" d="M 2034 4250 
Q 1547 4250 1301 3770 
Q 1056 3291 1056 2328 
Q 1056 1369 1301 889 
Q 1547 409 2034 409 
Q 2525 409 2770 889 
Q 3016 1369 3016 2328 
Q 3016 3291 2770 3770 
Q 2525 4250 2034 4250 
z
M 2034 4750 
Q 2819 4750 3233 4129 
Q 3647 3509 3647 2328 
Q 3647 1150 3233 529 
Q 2819 -91 2034 -91 
Q 1250 -91 836 529 
Q 422 1150 422 2328 
Q 422 3509 836 4129 
Q 1250 4750 2034 4750 
z
" transform="scale(0.015625)"/>
       </defs>
       <use xlink:href="#DejaVuSans-30"/>
      </g>
     </g>
    </g>
    <g id="xtick_2">
     <g id="line2d_2">
      <g>
       <use xlink:href="#m0fbaf8118f" x="115.445182" y="297.16" style="stroke: #000000; stroke-width: 0.8"/>
      </g>
     </g>
     <g id="text_2">
      <!-- 250 -->
      <g transform="translate(105.901432 311.758438) scale(0.1 -0.1)">
       <defs>
        <path id="DejaVuSans-32" d="M 1228 531 
L 3431 531 
L 3431 0 
L 469 0 
L 469 531 
Q 828 903 1448 1529 
Q 2069 2156 2228 2338 
Q 2531 2678 2651 2914 
Q 2772 3150 2772 3378 
Q 2772 3750 2511 3984 
Q 2250 4219 1831 4219 
Q 1534 4219 1204 4116 
Q 875 4013 500 3803 
L 500 4441 
Q 881 4594 1212 4672 
Q 1544 4750 1819 4750 
Q 2544 4750 2975 4387 
Q 3406 4025 3406 3419 
Q 3406 3131 3298 2873 
Q 3191 2616 2906 2266 
Q 2828 2175 2409 1742 
Q 1991 1309 1228 531 
z
" transform="scale(0.015625)"/>
        <path id="DejaVuSans-35" d="M 691 4666 
L 3169 4666 
L 3169 4134 
L 1269 4134 
L 1269 2991 
Q 1406 3038 1543 3061 
Q 1681 3084 1819 3084 
Q 2600 3084 3056 2656 
Q 3513 2228 3513 1497 
Q 3513 744 3044 326 
Q 2575 -91 1722 -91 
Q 1428 -91 1123 -41 
Q 819 9 494 109 
L 494 744 
Q 775 591 1075 516 
Q 1375 441 1709 441 
Q 2250 441 2565 725 
Q 2881 1009 2881 1497 
Q 2881 1984 2565 2268 
Q 2250 2553 1709 2553 
Q 1456 2553 1204 2497 
Q 953 2441 691 2322 
L 691 4666 
z
" transform="scale(0.015625)"/>
       </defs>
       <use xlink:href="#DejaVuSans-32"/>
       <use xlink:href="#DejaVuSans-35" x="63.623047"/>
       <use xlink:href="#DejaVuSans-30" x="127.246094"/>
      </g>
     </g>
    </g>
    <g id="xtick_3">
     <g id="line2d_3">
      <g>
       <use xlink:href="#m0fbaf8118f" x="160.412227" y="297.16" style="stroke: #000000; stroke-width: 0.8"/>
      </g>
     </g>
     <g id="text_3">
      <!-- 500 -->
      <g transform="translate(150.868477 311.758438) scale(0.1 -0.1)">
       <use xlink:href="#DejaVuSans-35"/>
       <use xlink:href="#DejaVuSans-30" x="63.623047"/>
       <use xlink:href="#DejaVuSans-30" x="127.246094"/>
      </g>
     </g>
    </g>
    <g id="xtick_4">
     <g id="line2d_4">
      <g>
       <use xlink:href="#m0fbaf8118f" x="205.379273" y="297.16" style="stroke: #000000; stroke-width: 0.8"/>
      </g>
     </g>
     <g id="text_4">
      <!-- 750 -->
      <g transform="translate(195.835523 311.758438) scale(0.1 -0.1)">
       <defs>
        <path id="DejaVuSans-37" d="M 525 4666 
L 3525 4666 
L 3525 4397 
L 1831 0 
L 1172 0 
L 2766 4134 
L 525 4134 
L 525 4666 
z
" transform="scale(0.015625)"/>
       </defs>
       <use xlink:href="#DejaVuSans-37"/>
       <use xlink:href="#DejaVuSans-35" x="63.623047"/>
       <use xlink:href="#DejaVuSans-30" x="127.246094"/>
      </g>
     </g>
    </g>
    <g id="xtick_5">
     <g id="line2d_5">
      <g>
       <use xlink:href="#m0fbaf8118f" x="250.346318" y="297.16" style="stroke: #000000; stroke-width: 0.8"/>
      </g>
     </g>
     <g id="text_5">
      <!-- 1000 -->
      <g transform="translate(237.621318 311.758438) scale(0.1 -0.1)">
       <defs>
        <path id="DejaVuSans-31" d="M 794 531 
L 1825 531 
L 1825 4091 
L 703 3866 
L 703 4441 
L 1819 4666 
L 2450 4666 
L 2450 531 
L 3481 531 
L 3481 0 
L 794 0 
L 794 531 
z
" transform="scale(0.015625)"/>
       </defs>
       <use xlink:href="#DejaVuSans-31"/>
       <use xlink:href="#DejaVuSans-30" x="63.623047"/>
       <use xlink:href="#DejaVuSans-30" x="127.246094"/>
       <use xlink:href="#DejaVuSans-30" x="190.869141"/>
      </g>
     </g>
    </g>
    <g id="xtick_6">
     <g id="line2d_6">
      <g>
       <use xlink:href="#m0fbaf8118f" x="295.313364" y="297.16" style="stroke: #000000; stroke-width: 0.8"/>
      </g>
     </g>
     <g id="text_6">
      <!-- 1250 -->
      <g transform="translate(282.588364 311.758438) scale(0.1 -0.1)">
       <use xlink:href="#DejaVuSans-31"/>
       <use xlink:href="#DejaVuSans-32" x="63.623047"/>
       <use xlink:href="#DejaVuSans-35" x="127.246094"/>
       <use xlink:href="#DejaVuSans-30" x="190.869141"/>
      </g>
     </g>
    </g>
    <g id="xtick_7">
     <g id="line2d_7">
      <g>
       <use xlink:href="#m0fbaf8118f" x="340.280409" y="297.16" style="stroke: #000000; stroke-width: 0.8"/>
      </g>
     </g>
     <g id="text_7">
      <!-- 1500 -->
      <g transform="translate(327.555409 311.758438) scale(0.1 -0.1)">
       <use xlink:href="#DejaVuSans-31"/>
       <use xlink:href="#DejaVuSans-35" x="63.623047"/>
       <use xlink:href="#DejaVuSans-30" x="127.246094"/>
       <use xlink:href="#DejaVuSans-30" x="190.869141"/>
      </g>
     </g>
    </g>
    <g id="xtick_8">
     <g id="line2d_8">
      <g>
       <use xlink:href="#m0fbaf8118f" x="385.247455" y="297.16" style="stroke: #000000; stroke-width: 0.8"/>
      </g>
     </g>
     <g id="text_8">
      <!-- 1750 -->
      <g transform="translate(372.522455 311.758438) scale(0.1 -0.1)">
       <use xlink:href="#DejaVuSans-31"/>
       <use xlink:href="#DejaVuSans-37" x="63.623047"/>
       <use xlink:href="#DejaVuSans-35" x="127.246094"/>
       <use xlink:href="#DejaVuSans-30" x="190.869141"/>
      </g>
     </g>
    </g>
    <g id="xtick_9">
     <g id="line2d_9">
      <g>
       <use xlink:href="#m0fbaf8118f" x="430.2145" y="297.16" style="stroke: #000000; stroke-width: 0.8"/>
      </g>
     </g>
     <g id="text_9">
      <!-- 2000 -->
      <g transform="translate(417.4895 311.758438) scale(0.1 -0.1)">
       <use xlink:href="#DejaVuSans-32"/>
       <use xlink:href="#DejaVuSans-30" x="63.623047"/>
       <use xlink:href="#DejaVuSans-30" x="127.246094"/>
       <use xlink:href="#DejaVuSans-30" x="190.869141"/>
      </g>
     </g>
    </g>
    <g id="text_10">
     <!-- Communication Rounds -->
     <g transform="translate(157.06875 329.995625) scale(0.16 -0.16)">
      <defs>
       <path id="DejaVuSans-43" d="M 4122 4306 
L 4122 3641 
Q 3803 3938 3442 4084 
Q 3081 4231 2675 4231 
Q 1875 4231 1450 3742 
Q 1025 3253 1025 2328 
Q 1025 1406 1450 917 
Q 1875 428 2675 428 
Q 3081 428 3442 575 
Q 3803 722 4122 1019 
L 4122 359 
Q 3791 134 3420 21 
Q 3050 -91 2638 -91 
Q 1578 -91 968 557 
Q 359 1206 359 2328 
Q 359 3453 968 4101 
Q 1578 4750 2638 4750 
Q 3056 4750 3426 4639 
Q 3797 4528 4122 4306 
z
" transform="scale(0.015625)"/>
       <path id="DejaVuSans-6f" d="M 1959 3097 
Q 1497 3097 1228 2736 
Q 959 2375 959 1747 
Q 959 1119 1226 758 
Q 1494 397 1959 397 
Q 2419 397 2687 759 
Q 2956 1122 2956 1747 
Q 2956 2369 2687 2733 
Q 2419 3097 1959 3097 
z
M 1959 3584 
Q 2709 3584 3137 3096 
Q 3566 2609 3566 1747 
Q 3566 888 3137 398 
Q 2709 -91 1959 -91 
Q 1206 -91 779 398 
Q 353 888 353 1747 
Q 353 2609 779 3096 
Q 1206 3584 1959 3584 
z
" transform="scale(0.015625)"/>
       <path id="DejaVuSans-6d" d="M 3328 2828 
Q 3544 3216 3844 3400 
Q 4144 3584 4550 3584 
Q 5097 3584 5394 3201 
Q 5691 2819 5691 2113 
L 5691 0 
L 5113 0 
L 5113 2094 
Q 5113 2597 4934 2840 
Q 4756 3084 4391 3084 
Q 3944 3084 3684 2787 
Q 3425 2491 3425 1978 
L 3425 0 
L 2847 0 
L 2847 2094 
Q 2847 2600 2669 2842 
Q 2491 3084 2119 3084 
Q 1678 3084 1418 2786 
Q 1159 2488 1159 1978 
L 1159 0 
L 581 0 
L 581 3500 
L 1159 3500 
L 1159 2956 
Q 1356 3278 1631 3431 
Q 1906 3584 2284 3584 
Q 2666 3584 2933 3390 
Q 3200 3197 3328 2828 
z
" transform="scale(0.015625)"/>
       <path id="DejaVuSans-75" d="M 544 1381 
L 544 3500 
L 1119 3500 
L 1119 1403 
Q 1119 906 1312 657 
Q 1506 409 1894 409 
Q 2359 409 2629 706 
Q 2900 1003 2900 1516 
L 2900 3500 
L 3475 3500 
L 3475 0 
L 2900 0 
L 2900 538 
Q 2691 219 2414 64 
Q 2138 -91 1772 -91 
Q 1169 -91 856 284 
Q 544 659 544 1381 
z
M 1991 3584 
L 1991 3584 
z
" transform="scale(0.015625)"/>
       <path id="DejaVuSans-6e" d="M 3513 2113 
L 3513 0 
L 2938 0 
L 2938 2094 
Q 2938 2591 2744 2837 
Q 2550 3084 2163 3084 
Q 1697 3084 1428 2787 
Q 1159 2491 1159 1978 
L 1159 0 
L 581 0 
L 581 3500 
L 1159 3500 
L 1159 2956 
Q 1366 3272 1645 3428 
Q 1925 3584 2291 3584 
Q 2894 3584 3203 3211 
Q 3513 2838 3513 2113 
z
" transform="scale(0.015625)"/>
       <path id="DejaVuSans-69" d="M 603 3500 
L 1178 3500 
L 1178 0 
L 603 0 
L 603 3500 
z
M 603 4863 
L 1178 4863 
L 1178 4134 
L 603 4134 
L 603 4863 
z
" transform="scale(0.015625)"/>
       <path id="DejaVuSans-63" d="M 3122 3366 
L 3122 2828 
Q 2878 2963 2633 3030 
Q 2388 3097 2138 3097 
Q 1578 3097 1268 2742 
Q 959 2388 959 1747 
Q 959 1106 1268 751 
Q 1578 397 2138 397 
Q 2388 397 2633 464 
Q 2878 531 3122 666 
L 3122 134 
Q 2881 22 2623 -34 
Q 2366 -91 2075 -91 
Q 1284 -91 818 406 
Q 353 903 353 1747 
Q 353 2603 823 3093 
Q 1294 3584 2113 3584 
Q 2378 3584 2631 3529 
Q 2884 3475 3122 3366 
z
" transform="scale(0.015625)"/>
       <path id="DejaVuSans-61" d="M 2194 1759 
Q 1497 1759 1228 1600 
Q 959 1441 959 1056 
Q 959 750 1161 570 
Q 1363 391 1709 391 
Q 2188 391 2477 730 
Q 2766 1069 2766 1631 
L 2766 1759 
L 2194 1759 
z
M 3341 1997 
L 3341 0 
L 2766 0 
L 2766 531 
Q 2569 213 2275 61 
Q 1981 -91 1556 -91 
Q 1019 -91 701 211 
Q 384 513 384 1019 
Q 384 1609 779 1909 
Q 1175 2209 1959 2209 
L 2766 2209 
L 2766 2266 
Q 2766 2663 2505 2880 
Q 2244 3097 1772 3097 
Q 1472 3097 1187 3025 
Q 903 2953 641 2809 
L 641 3341 
Q 956 3463 1253 3523 
Q 1550 3584 1831 3584 
Q 2591 3584 2966 3190 
Q 3341 2797 3341 1997 
z
" transform="scale(0.015625)"/>
       <path id="DejaVuSans-74" d="M 1172 4494 
L 1172 3500 
L 2356 3500 
L 2356 3053 
L 1172 3053 
L 1172 1153 
Q 1172 725 1289 603 
Q 1406 481 1766 481 
L 2356 481 
L 2356 0 
L 1766 0 
Q 1100 0 847 248 
Q 594 497 594 1153 
L 594 3053 
L 172 3053 
L 172 3500 
L 594 3500 
L 594 4494 
L 1172 4494 
z
" transform="scale(0.015625)"/>
       <path id="DejaVuSans-20" transform="scale(0.015625)"/>
       <path id="DejaVuSans-52" d="M 2841 2188 
Q 3044 2119 3236 1894 
Q 3428 1669 3622 1275 
L 4263 0 
L 3584 0 
L 2988 1197 
Q 2756 1666 2539 1819 
Q 2322 1972 1947 1972 
L 1259 1972 
L 1259 0 
L 628 0 
L 628 4666 
L 2053 4666 
Q 2853 4666 3247 4331 
Q 3641 3997 3641 3322 
Q 3641 2881 3436 2590 
Q 3231 2300 2841 2188 
z
M 1259 4147 
L 1259 2491 
L 2053 2491 
Q 2509 2491 2742 2702 
Q 2975 2913 2975 3322 
Q 2975 3731 2742 3939 
Q 2509 4147 2053 4147 
L 1259 4147 
z
" transform="scale(0.015625)"/>
       <path id="DejaVuSans-64" d="M 2906 2969 
L 2906 4863 
L 3481 4863 
L 3481 0 
L 2906 0 
L 2906 525 
Q 2725 213 2448 61 
Q 2172 -91 1784 -91 
Q 1150 -91 751 415 
Q 353 922 353 1747 
Q 353 2572 751 3078 
Q 1150 3584 1784 3584 
Q 2172 3584 2448 3432 
Q 2725 3281 2906 2969 
z
M 947 1747 
Q 947 1113 1208 752 
Q 1469 391 1925 391 
Q 2381 391 2643 752 
Q 2906 1113 2906 1747 
Q 2906 2381 2643 2742 
Q 2381 3103 1925 3103 
Q 1469 3103 1208 2742 
Q 947 2381 947 1747 
z
" transform="scale(0.015625)"/>
       <path id="DejaVuSans-73" d="M 2834 3397 
L 2834 2853 
Q 2591 2978 2328 3040 
Q 2066 3103 1784 3103 
Q 1356 3103 1142 2972 
Q 928 2841 928 2578 
Q 928 2378 1081 2264 
Q 1234 2150 1697 2047 
L 1894 2003 
Q 2506 1872 2764 1633 
Q 3022 1394 3022 966 
Q 3022 478 2636 193 
Q 2250 -91 1575 -91 
Q 1294 -91 989 -36 
Q 684 19 347 128 
L 347 722 
Q 666 556 975 473 
Q 1284 391 1588 391 
Q 1994 391 2212 530 
Q 2431 669 2431 922 
Q 2431 1156 2273 1281 
Q 2116 1406 1581 1522 
L 1381 1569 
Q 847 1681 609 1914 
Q 372 2147 372 2553 
Q 372 3047 722 3315 
Q 1072 3584 1716 3584 
Q 2034 3584 2315 3537 
Q 2597 3491 2834 3397 
z
" transform="scale(0.015625)"/>
      </defs>
      <use xlink:href="#DejaVuSans-43"/>
      <use xlink:href="#DejaVuSans-6f" x="69.824219"/>
      <use xlink:href="#DejaVuSans-6d" x="131.005859"/>
      <use xlink:href="#DejaVuSans-6d" x="228.417969"/>
      <use xlink:href="#DejaVuSans-75" x="325.830078"/>
      <use xlink:href="#DejaVuSans-6e" x="389.208984"/>
      <use xlink:href="#DejaVuSans-69" x="452.587891"/>
      <use xlink:href="#DejaVuSans-63" x="480.371094"/>
      <use xlink:href="#DejaVuSans-61" x="535.351562"/>
      <use xlink:href="#DejaVuSans-74" x="596.630859"/>
      <use xlink:href="#DejaVuSans-69" x="635.839844"/>
      <use xlink:href="#DejaVuSans-6f" x="663.623047"/>
      <use xlink:href="#DejaVuSans-6e" x="724.804688"/>
      <use xlink:href="#DejaVuSans-20" x="788.183594"/>
      <use xlink:href="#DejaVuSans-52" x="819.970703"/>
      <use xlink:href="#DejaVuSans-6f" x="884.953125"/>
      <use xlink:href="#DejaVuSans-75" x="946.134766"/>
      <use xlink:href="#DejaVuSans-6e" x="1009.513672"/>
      <use xlink:href="#DejaVuSans-64" x="1072.892578"/>
      <use xlink:href="#DejaVuSans-73" x="1136.369141"/>
     </g>
    </g>
   </g>
   <g id="matplotlib.axis_2">
    <g id="ytick_1">
     <g id="line2d_10">
      <defs>
       <path id="m41cc22bbab" d="M 0 0 
L -3.5 0 
" style="stroke: #000000; stroke-width: 0.8"/>
      </defs>
      <g>
       <use xlink:href="#m41cc22bbab" x="54.29" y="281.904145" style="stroke: #000000; stroke-width: 0.8"/>
      </g>
     </g>
     <g id="text_11">
      <!-- 0.1 -->
      <g transform="translate(31.386875 285.703363) scale(0.1 -0.1)">
       <defs>
        <path id="DejaVuSans-2e" d="M 684 794 
L 1344 794 
L 1344 0 
L 684 0 
L 684 794 
z
" transform="scale(0.015625)"/>
       </defs>
       <use xlink:href="#DejaVuSans-30"/>
       <use xlink:href="#DejaVuSans-2e" x="63.623047"/>
       <use xlink:href="#DejaVuSans-31" x="95.410156"/>
      </g>
     </g>
    </g>
    <g id="ytick_2">
     <g id="line2d_11">
      <g>
       <use xlink:href="#m41cc22bbab" x="54.29" y="239.954639" style="stroke: #000000; stroke-width: 0.8"/>
      </g>
     </g>
     <g id="text_12">
      <!-- 0.2 -->
      <g transform="translate(31.386875 243.753857) scale(0.1 -0.1)">
       <use xlink:href="#DejaVuSans-30"/>
       <use xlink:href="#DejaVuSans-2e" x="63.623047"/>
       <use xlink:href="#DejaVuSans-32" x="95.410156"/>
      </g>
     </g>
    </g>
    <g id="ytick_3">
     <g id="line2d_12">
      <g>
       <use xlink:href="#m41cc22bbab" x="54.29" y="198.005133" style="stroke: #000000; stroke-width: 0.8"/>
      </g>
     </g>
     <g id="text_13">
      <!-- 0.3 -->
      <g transform="translate(31.386875 201.804351) scale(0.1 -0.1)">
       <defs>
        <path id="DejaVuSans-33" d="M 2597 2516 
Q 3050 2419 3304 2112 
Q 3559 1806 3559 1356 
Q 3559 666 3084 287 
Q 2609 -91 1734 -91 
Q 1441 -91 1130 -33 
Q 819 25 488 141 
L 488 750 
Q 750 597 1062 519 
Q 1375 441 1716 441 
Q 2309 441 2620 675 
Q 2931 909 2931 1356 
Q 2931 1769 2642 2001 
Q 2353 2234 1838 2234 
L 1294 2234 
L 1294 2753 
L 1863 2753 
Q 2328 2753 2575 2939 
Q 2822 3125 2822 3475 
Q 2822 3834 2567 4026 
Q 2313 4219 1838 4219 
Q 1578 4219 1281 4162 
Q 984 4106 628 3988 
L 628 4550 
Q 988 4650 1302 4700 
Q 1616 4750 1894 4750 
Q 2613 4750 3031 4423 
Q 3450 4097 3450 3541 
Q 3450 3153 3228 2886 
Q 3006 2619 2597 2516 
z
" transform="scale(0.015625)"/>
       </defs>
       <use xlink:href="#DejaVuSans-30"/>
       <use xlink:href="#DejaVuSans-2e" x="63.623047"/>
       <use xlink:href="#DejaVuSans-33" x="95.410156"/>
      </g>
     </g>
    </g>
    <g id="ytick_4">
     <g id="line2d_13">
      <g>
       <use xlink:href="#m41cc22bbab" x="54.29" y="156.055627" style="stroke: #000000; stroke-width: 0.8"/>
      </g>
     </g>
     <g id="text_14">
      <!-- 0.4 -->
      <g transform="translate(31.386875 159.854845) scale(0.1 -0.1)">
       <defs>
        <path id="DejaVuSans-34" d="M 2419 4116 
L 825 1625 
L 2419 1625 
L 2419 4116 
z
M 2253 4666 
L 3047 4666 
L 3047 1625 
L 3713 1625 
L 3713 1100 
L 3047 1100 
L 3047 0 
L 2419 0 
L 2419 1100 
L 313 1100 
L 313 1709 
L 2253 4666 
z
" transform="scale(0.015625)"/>
       </defs>
       <use xlink:href="#DejaVuSans-30"/>
       <use xlink:href="#DejaVuSans-2e" x="63.623047"/>
       <use xlink:href="#DejaVuSans-34" x="95.410156"/>
      </g>
     </g>
    </g>
    <g id="ytick_5">
     <g id="line2d_14">
      <g>
       <use xlink:href="#m41cc22bbab" x="54.29" y="114.106121" style="stroke: #000000; stroke-width: 0.8"/>
      </g>
     </g>
     <g id="text_15">
      <!-- 0.5 -->
      <g transform="translate(31.386875 117.905339) scale(0.1 -0.1)">
       <use xlink:href="#DejaVuSans-30"/>
       <use xlink:href="#DejaVuSans-2e" x="63.623047"/>
       <use xlink:href="#DejaVuSans-35" x="95.410156"/>
      </g>
     </g>
    </g>
    <g id="ytick_6">
     <g id="line2d_15">
      <g>
       <use xlink:href="#m41cc22bbab" x="54.29" y="72.156615" style="stroke: #000000; stroke-width: 0.8"/>
      </g>
     </g>
     <g id="text_16">
      <!-- 0.6 -->
      <g transform="translate(31.386875 75.955833) scale(0.1 -0.1)">
       <defs>
        <path id="DejaVuSans-36" d="M 2113 2584 
Q 1688 2584 1439 2293 
Q 1191 2003 1191 1497 
Q 1191 994 1439 701 
Q 1688 409 2113 409 
Q 2538 409 2786 701 
Q 3034 994 3034 1497 
Q 3034 2003 2786 2293 
Q 2538 2584 2113 2584 
z
M 3366 4563 
L 3366 3988 
Q 3128 4100 2886 4159 
Q 2644 4219 2406 4219 
Q 1781 4219 1451 3797 
Q 1122 3375 1075 2522 
Q 1259 2794 1537 2939 
Q 1816 3084 2150 3084 
Q 2853 3084 3261 2657 
Q 3669 2231 3669 1497 
Q 3669 778 3244 343 
Q 2819 -91 2113 -91 
Q 1303 -91 875 529 
Q 447 1150 447 2328 
Q 447 3434 972 4092 
Q 1497 4750 2381 4750 
Q 2619 4750 2861 4703 
Q 3103 4656 3366 4563 
z
" transform="scale(0.015625)"/>
       </defs>
       <use xlink:href="#DejaVuSans-30"/>
       <use xlink:href="#DejaVuSans-2e" x="63.623047"/>
       <use xlink:href="#DejaVuSans-36" x="95.410156"/>
      </g>
     </g>
    </g>
    <g id="ytick_7">
     <g id="line2d_16">
      <g>
       <use xlink:href="#m41cc22bbab" x="54.29" y="30.207109" style="stroke: #000000; stroke-width: 0.8"/>
      </g>
     </g>
     <g id="text_17">
      <!-- 0.7 -->
      <g transform="translate(31.386875 34.006327) scale(0.1 -0.1)">
       <use xlink:href="#DejaVuSans-30"/>
       <use xlink:href="#DejaVuSans-2e" x="63.623047"/>
       <use xlink:href="#DejaVuSans-37" x="95.410156"/>
      </g>
     </g>
    </g>
    <g id="text_18">
     <!-- Train Accuracy -->
     <g transform="translate(24.059375 212.2375) rotate(-90) scale(0.16 -0.16)">
      <defs>
       <path id="DejaVuSans-54" d="M -19 4666 
L 3928 4666 
L 3928 4134 
L 2272 4134 
L 2272 0 
L 1638 0 
L 1638 4134 
L -19 4134 
L -19 4666 
z
" transform="scale(0.015625)"/>
       <path id="DejaVuSans-72" d="M 2631 2963 
Q 2534 3019 2420 3045 
Q 2306 3072 2169 3072 
Q 1681 3072 1420 2755 
Q 1159 2438 1159 1844 
L 1159 0 
L 581 0 
L 581 3500 
L 1159 3500 
L 1159 2956 
Q 1341 3275 1631 3429 
Q 1922 3584 2338 3584 
Q 2397 3584 2469 3576 
Q 2541 3569 2628 3553 
L 2631 2963 
z
" transform="scale(0.015625)"/>
       <path id="DejaVuSans-41" d="M 2188 4044 
L 1331 1722 
L 3047 1722 
L 2188 4044 
z
M 1831 4666 
L 2547 4666 
L 4325 0 
L 3669 0 
L 3244 1197 
L 1141 1197 
L 716 0 
L 50 0 
L 1831 4666 
z
" transform="scale(0.015625)"/>
       <path id="DejaVuSans-79" d="M 2059 -325 
Q 1816 -950 1584 -1140 
Q 1353 -1331 966 -1331 
L 506 -1331 
L 506 -850 
L 844 -850 
Q 1081 -850 1212 -737 
Q 1344 -625 1503 -206 
L 1606 56 
L 191 3500 
L 800 3500 
L 1894 763 
L 2988 3500 
L 3597 3500 
L 2059 -325 
z
" transform="scale(0.015625)"/>
      </defs>
      <use xlink:href="#DejaVuSans-54"/>
      <use xlink:href="#DejaVuSans-72" x="46.333984"/>
      <use xlink:href="#DejaVuSans-61" x="87.447266"/>
      <use xlink:href="#DejaVuSans-69" x="148.726562"/>
      <use xlink:href="#DejaVuSans-6e" x="176.509766"/>
      <use xlink:href="#DejaVuSans-20" x="239.888672"/>
      <use xlink:href="#DejaVuSans-41" x="271.675781"/>
      <use xlink:href="#DejaVuSans-63" x="338.333984"/>
      <use xlink:href="#DejaVuSans-63" x="393.314453"/>
      <use xlink:href="#DejaVuSans-75" x="448.294922"/>
      <use xlink:href="#DejaVuSans-72" x="511.673828"/>
      <use xlink:href="#DejaVuSans-61" x="552.787109"/>
      <use xlink:href="#DejaVuSans-63" x="614.066406"/>
      <use xlink:href="#DejaVuSans-79" x="669.046875"/>
     </g>
    </g>
   </g>
   <g id="line2d_17">
    <path d="M 72.456686 239.388559 
L 74.435236 218.086075 
L 76.413786 227.173148 
L 78.392336 246.141793 
L 80.370886 238.296124 
L 82.349436 234.671225 
L 84.327986 222.803408 
L 86.306536 234.919506 
L 88.285086 235.217443 
L 90.263636 231.14564 
L 92.242186 229.804924 
L 94.220736 226.924868 
L 96.199286 227.272461 
L 98.177836 236.558159 
L 100.156386 234.671225 
L 102.134936 226.974524 
L 106.092036 221.909598 
L 108.070586 221.413036 
L 110.049136 227.520741 
L 112.027686 214.510833 
L 114.006236 222.157878 
L 115.984786 214.659801 
L 117.963336 222.406159 
L 119.941886 226.825555 
L 121.920436 220.072321 
L 123.898986 219.476447 
L 125.877536 223.399282 
L 127.856086 213.319086 
L 129.834636 223.151001 
L 131.813186 214.80877 
L 133.791736 215.057051 
L 135.770286 227.917991 
L 137.748836 219.426791 
L 139.727386 215.404644 
L 141.705936 215.007394 
L 143.684486 220.370257 
L 145.663036 216.695703 
L 147.641586 208.552096 
L 149.620136 212.474931 
L 151.598686 212.6239 
L 153.577236 204.281668 
L 155.555786 210.637654 
L 157.534336 215.70258 
L 159.512886 212.127338 
L 161.491436 204.232012 
L 163.469986 223.498594 
L 165.448536 204.728574 
L 167.427086 210.041781 
L 169.405636 227.322117 
L 171.384186 209.197626 
L 173.362736 199.911928 
L 175.341286 209.743844 
L 177.319836 205.374104 
L 179.298386 205.920321 
L 181.276936 205.870665 
L 183.255486 199.465023 
L 185.234036 203.189233 
L 187.212586 217.490201 
L 189.191136 197.57809 
L 191.169686 205.125823 
L 193.148236 213.120461 
L 195.126786 199.862272 
L 197.105336 203.189233 
L 199.083886 194.74769 
L 201.062436 197.478777 
L 203.040986 207.906567 
L 205.019536 203.139577 
L 206.998086 216.844672 
L 208.976636 200.40849 
L 210.955186 202.245767 
L 212.933736 205.42376 
L 214.912286 197.528434 
L 216.890836 204.281668 
L 218.869386 190.725543 
L 220.847936 193.45663 
L 222.826486 195.442876 
L 224.805036 202.047142 
L 226.783586 209.694188 
L 228.762136 196.982216 
L 230.740686 197.776714 
L 232.719236 195.989093 
L 234.697786 209.694188 
L 236.676336 189.434483 
L 238.654886 205.42376 
L 240.633436 197.329809 
L 242.611986 199.167086 
L 244.590536 190.874511 
L 246.569086 217.390889 
L 248.547636 187.100645 
L 250.526186 196.982216 
L 252.504736 190.526918 
L 254.483286 192.513164 
L 256.461836 192.860757 
L 258.440386 207.161725 
L 260.418936 190.824855 
L 262.397486 196.038749 
L 264.376036 197.57809 
L 266.354586 191.966946 
L 268.333136 201.252644 
L 270.311686 196.634623 
L 272.290236 196.535311 
L 274.268786 185.263367 
L 276.247336 196.038749 
L 278.225886 187.150301 
L 280.204436 189.235858 
L 282.182986 188.639985 
L 284.161536 192.215227 
L 286.140086 185.908897 
L 288.118636 182.035718 
L 290.097186 188.540673 
L 292.075736 187.944799 
L 294.054286 187.001332 
L 296.032836 211.879058 
L 298.011386 201.550581 
L 299.989936 188.788953 
L 301.968486 194.598721 
L 303.947036 185.759929 
L 305.925586 199.067774 
L 307.904136 187.050988 
L 311.861236 219.575759 
L 313.839786 194.995971 
L 315.818336 185.313024 
L 317.796886 200.309177 
L 319.775436 190.278637 
L 321.753986 192.513164 
L 323.732536 196.038749 
L 325.711086 189.782076 
L 327.689636 181.986062 
L 329.668186 203.089921 
L 331.646736 189.285515 
L 333.625286 179.006694 
L 335.603836 187.100645 
L 337.582386 207.757598 
L 339.560936 182.681248 
L 341.539486 184.220588 
L 343.518036 195.939437 
L 345.496586 208.651409 
L 347.475136 186.703395 
L 349.453686 189.980701 
L 351.432236 188.540673 
L 353.410786 188.689641 
L 355.389336 188.143423 
L 357.367886 184.170932 
L 359.346436 185.759929 
L 361.324986 193.357318 
L 363.303536 180.248097 
L 365.282086 180.148785 
L 369.239186 191.172448 
L 371.217736 177.169417 
L 373.196286 192.413851 
L 375.174836 184.816462 
L 377.153386 178.907382 
L 379.131936 185.263367 
L 381.110486 177.467354 
L 383.089036 187.497894 
L 385.067586 183.872995 
L 387.046136 195.095283 
L 389.024686 184.369557 
L 391.003236 188.838609 
L 392.981786 189.73242 
L 394.960336 207.658286 
L 396.938886 194.797346 
L 398.917436 196.882904 
L 400.895986 186.90202 
L 402.874536 188.044111 
L 404.853086 182.830217 
L 406.831636 186.802708 
L 408.810186 179.801192 
L 410.788736 203.685795 
L 412.767286 181.688125 
L 414.745836 192.264883 
L 416.724386 182.879873 
L 416.724386 182.879873 
" clip-path="url(#pb523c3579f)" style="fill: none; stroke: #000000; stroke-width: 1.5; stroke-linecap: square"/>
   </g>
   <g id="line2d_18">
    <path d="M 72.276818 284.143636 
L 74.0755 259.891578 
L 75.874182 221.656351 
L 77.672864 207.563939 
L 79.471545 196.748832 
L 81.270227 188.009352 
L 84.867591 169.164847 
L 86.666273 167.143842 
L 88.464955 164.521998 
L 90.263636 159.387554 
L 92.062318 153.106052 
L 93.861 148.026229 
L 95.659682 141.362375 
L 97.458364 140.597671 
L 99.257045 132.513651 
L 101.055727 135.299361 
L 102.854409 127.379207 
L 104.653091 129.618698 
L 106.451773 126.068284 
L 108.250455 124.429632 
L 110.049136 121.480057 
L 111.847818 119.404431 
L 113.6465 118.585104 
L 115.445182 110.883437 
L 117.243864 105.858236 
L 119.042545 109.026298 
L 120.841227 105.03891 
L 122.639909 107.442267 
L 124.438591 99.13976 
L 126.237273 102.143957 
L 128.035955 101.106144 
L 129.834636 98.81203 
L 131.633318 93.896072 
L 133.432 96.190186 
L 135.230682 88.597762 
L 137.029364 89.690197 
L 138.828045 89.14398 
L 142.425409 86.849866 
L 144.224091 81.333069 
L 146.022773 78.492738 
L 147.821455 80.622986 
L 149.620136 83.190209 
L 151.418818 80.950717 
L 153.2175 77.673412 
L 156.814864 74.778459 
L 158.613545 74.778459 
L 160.412227 77.94652 
L 162.210909 77.127194 
L 164.009591 76.799464 
L 165.808273 68.770066 
L 167.606955 66.366709 
L 169.405636 69.370905 
L 171.204318 69.480149 
L 173.003 70.408719 
L 174.801682 67.786874 
L 176.600364 68.333092 
L 178.399045 69.316284 
L 180.197727 62.870917 
L 181.996409 67.841496 
L 187.392455 60.139829 
L 189.191136 67.3499 
L 190.989818 63.690243 
L 192.7885 61.559995 
L 194.587182 62.488564 
L 196.385864 60.849912 
L 198.184545 56.480172 
L 199.983227 60.849912 
L 201.781909 58.828907 
L 203.580591 53.585219 
L 205.379273 54.896141 
L 207.177955 54.623032 
L 208.976636 50.854131 
L 210.775318 55.278493 
L 212.574 56.807902 
L 214.372682 54.022193 
L 216.171364 54.513789 
L 217.970045 56.152441 
L 219.768727 50.744888 
L 221.567409 55.278493 
L 223.366091 44.627251 
L 225.164773 51.236483 
L 226.963455 45.82893 
L 228.762136 48.068422 
L 230.560818 47.412961 
L 232.3595 45.992795 
L 234.158182 48.450774 
L 235.956864 46.102039 
L 237.755545 46.812121 
L 239.554227 49.379344 
L 241.352909 51.509592 
L 243.151591 47.412961 
L 244.950273 43.753303 
L 246.748955 45.228091 
L 248.547636 41.186081 
L 250.346318 41.78692 
L 252.145 43.589438 
L 255.742364 43.425573 
L 257.541045 44.135656 
L 259.339727 43.152464 
L 261.138409 42.333138 
L 262.937091 42.606247 
L 264.735773 40.202889 
L 266.534455 35.887771 
L 268.333136 41.568433 
L 270.131818 36.106258 
L 271.9305 41.677677 
L 273.729182 38.67348 
L 275.527864 44.736495 
L 277.326545 37.08945 
L 279.125227 40.912972 
L 280.923909 40.85835 
L 282.722591 42.333138 
L 284.521273 35.450797 
L 286.319955 37.526424 
L 288.118636 38.728102 
L 289.917318 37.41718 
L 291.716 35.286932 
L 293.514682 33.97601 
L 295.313364 36.652475 
L 297.112045 35.887771 
L 298.910727 37.41718 
L 300.709409 35.068445 
L 302.508091 37.253315 
L 304.306773 35.942393 
L 306.105455 33.429792 
L 307.904136 39.438185 
L 309.702818 36.379367 
L 311.5015 34.467605 
L 313.300182 36.051636 
L 315.098864 42.060029 
L 316.897545 35.997014 
L 318.696227 38.782724 
L 320.494909 35.396175 
L 322.293591 31.572653 
L 324.092273 34.467605 
L 325.890955 32.665088 
L 327.689636 33.156683 
L 329.488318 38.072641 
L 331.287 35.23231 
L 333.085682 30.917191 
L 334.884364 35.23231 
L 336.683045 28.131482 
L 338.481727 32.938196 
L 340.280409 31.299544 
L 342.079091 29.988622 
L 343.877773 35.450797 
L 345.676455 29.770135 
L 347.475136 31.135678 
L 349.273818 34.085253 
L 351.0725 31.572653 
L 352.871182 32.774331 
L 354.669864 25.345773 
L 356.468545 31.681896 
L 358.267227 30.753326 
L 360.065909 30.971813 
L 361.864591 32.337357 
L 363.663273 31.354165 
L 365.461955 31.463409 
L 367.260636 35.669284 
L 369.059318 31.135678 
L 370.858 26.274343 
L 372.656682 27.803752 
L 374.455364 26.765938 
L 376.254045 27.148291 
L 378.052727 32.501222 
L 379.851409 32.719709 
L 381.650091 29.988622 
L 383.448773 30.698704 
L 385.247455 30.425596 
L 387.046136 34.686092 
L 388.844818 26.219721 
L 390.6435 32.828953 
L 392.442182 30.753326 
L 394.240864 27.257534 
L 396.039545 30.644083 
L 397.838227 25.455016 
L 399.636909 28.732321 
L 401.435591 23.816364 
L 403.234273 24.744933 
L 405.032955 26.984425 
L 406.831636 26.711317 
L 408.630318 25.291151 
L 410.429 34.139875 
L 412.227682 29.333161 
L 414.026364 27.912995 
L 415.825045 29.988622 
L 417.623727 31.736518 
L 419.422409 30.152487 
L 421.221091 27.039047 
L 423.019773 26.82056 
L 424.818455 29.551648 
L 426.617136 30.971813 
L 428.415818 27.912995 
L 430.2145 25.673503 
L 432.013182 30.589461 
L 432.013182 30.589461 
" clip-path="url(#pb523c3579f)" style="fill: none; stroke: #ff0000; stroke-width: 1.5; stroke-linecap: square"/>
   </g>
   <g id="line2d_19">
    <path d="M 72.276818 280.037074 
L 74.0755 279.153194 
L 75.874182 268.546643 
L 77.672864 260.358346 
L 79.471545 256.946969 
L 83.068909 249.75676 
L 84.867591 248.242248 
L 86.666273 243.64409 
L 90.263636 233.404994 
L 92.062318 230.102861 
L 93.861 224.898897 
L 95.659682 220.092183 
L 97.458364 216.680806 
L 99.257045 214.550558 
L 101.055727 211.809539 
L 102.854409 209.604807 
L 104.653091 208.120088 
L 106.451773 208.437887 
L 108.250455 205.95508 
L 110.049136 203.800004 
L 111.847818 202.722466 
L 113.6465 201.932933 
L 115.445182 199.723235 
L 119.042545 196.823316 
L 122.639909 193.25304 
L 124.438591 191.122792 
L 126.237273 191.63425 
L 128.035955 190.382915 
L 129.834636 187.408513 
L 131.633318 186.003244 
L 133.432 185.476889 
L 135.230682 183.540299 
L 137.029364 182.219446 
L 138.828045 181.926475 
L 140.626727 180.665209 
L 142.425409 178.763379 
L 144.224091 180.158716 
L 146.022773 177.164451 
L 147.821455 177.035345 
L 149.620136 175.366899 
L 153.2175 173.276375 
L 155.016182 172.754986 
L 156.814864 172.859264 
L 158.613545 171.702276 
L 160.412227 171.98035 
L 162.210909 170.07852 
L 164.009591 170.242385 
L 165.808273 170.172867 
L 167.606955 167.834063 
L 169.405636 166.741628 
L 171.204318 166.453622 
L 173.003 166.468519 
L 178.399045 163.047211 
L 180.197727 163.499082 
L 181.996409 162.500993 
L 183.795091 161.989535 
L 185.593773 161.185106 
L 189.191136 161.488008 
L 190.989818 158.940648 
L 192.7885 158.568227 
L 194.587182 158.573193 
L 196.385864 158.126288 
L 198.184545 157.545311 
L 199.983227 156.318804 
L 201.781909 156.949437 
L 203.580591 155.737827 
L 205.379273 156.149973 
L 207.177955 153.970069 
L 210.775318 152.465488 
L 212.574 153.627441 
L 214.372682 152.832943 
L 216.171364 151.085047 
L 217.970045 152.877634 
L 219.768727 150.757317 
L 221.567409 151.283672 
L 223.366091 150.057165 
L 225.164773 149.093836 
L 226.963455 149.064042 
L 228.762136 148.006367 
L 230.560818 148.468169 
L 232.3595 147.986504 
L 234.158182 147.052969 
L 235.956864 147.971607 
L 237.755545 146.203849 
L 239.554227 144.917755 
L 241.352909 144.868099 
L 243.151591 144.942583 
L 244.950273 144.555265 
L 246.748955 143.87001 
L 248.547636 143.979254 
L 250.346318 142.822266 
L 252.145 143.085443 
L 253.943682 142.459776 
L 255.742364 141.595759 
L 257.541045 139.733654 
L 259.339727 140.920436 
L 261.138409 141.109129 
L 262.937091 140.264974 
L 266.534455 138.099967 
L 268.333136 139.237092 
L 270.131818 138.785222 
L 273.729182 137.563681 
L 275.527864 137.479265 
L 277.326545 137.206156 
L 279.125227 137.350159 
L 280.923909 137.762305 
L 282.722591 135.731369 
L 284.521273 136.784079 
L 286.319955 134.420447 
L 288.118636 135.567504 
L 289.917318 134.460172 
L 291.716 133.784848 
L 293.514682 132.687448 
L 295.313364 134.494931 
L 297.112045 132.766898 
L 298.910727 132.126333 
L 300.709409 132.394477 
L 302.508091 133.417393 
L 304.306773 130.944517 
L 306.105455 132.101505 
L 307.904136 132.106471 
L 311.5015 130.199675 
L 313.300182 131.704256 
L 315.098864 130.353609 
L 316.897545 129.772632 
L 318.696227 130.889896 
L 320.494909 128.70006 
L 322.293591 129.59387 
L 324.092273 128.923512 
L 325.890955 127.697006 
L 327.689636 128.129014 
L 329.488318 127.478519 
L 331.287 128.124049 
L 333.085682 127.051476 
L 334.884364 127.905562 
L 336.683045 126.991889 
L 338.481727 126.351324 
L 340.280409 127.389138 
L 342.079091 127.120995 
L 343.877773 125.397927 
L 345.676455 124.543841 
L 347.475136 124.111833 
L 349.273818 125.924282 
L 351.0725 124.221076 
L 352.871182 125.14468 
L 354.669864 123.019398 
L 356.468545 121.981584 
L 358.267227 122.493042 
L 361.864591 124.419701 
L 363.663273 121.445298 
L 365.461955 121.594266 
L 367.260636 120.97853 
L 369.059318 121.435367 
L 370.858 120.531625 
L 372.656682 120.144307 
L 374.455364 120.253551 
L 376.254045 121.554541 
L 378.052727 121.832616 
L 379.851409 119.612986 
L 381.650091 119.146219 
L 383.448773 120.223757 
L 385.247455 118.595036 
L 387.046136 118.406342 
L 388.844818 118.982353 
L 390.6435 118.053784 
L 392.442182 118.361652 
L 394.240864 116.583962 
L 396.039545 117.780675 
L 397.838227 118.43117 
L 399.636909 117.676397 
L 401.435591 116.107263 
L 403.234273 117.735984 
L 405.032955 115.014828 
L 406.831636 116.236369 
L 408.630318 115.824223 
L 410.429 115.91857 
L 412.227682 114.637441 
L 414.026364 115.059518 
L 415.825045 114.508335 
L 417.623727 114.180605 
L 419.422409 115.551114 
L 421.221091 114.339504 
L 423.019773 113.967083 
L 424.818455 112.944167 
L 426.617136 112.497262 
L 428.415818 111.79711 
L 430.2145 112.373121 
L 432.013182 111.628279 
L 432.013182 111.628279 
" clip-path="url(#pb523c3579f)" style="fill: none; stroke: #ffa500; stroke-width: 1.5; stroke-linecap: square"/>
   </g>
   <g id="line2d_20">
    <path d="M 72.276818 278.95457 
L 74.0755 274.967182 
L 75.874182 270.54282 
L 77.672864 265.736106 
L 79.471545 265.026023 
L 81.270227 263.38737 
L 83.068909 258.143682 
L 84.867591 254.757133 
L 86.666273 252.899994 
L 88.464955 249.404202 
L 90.263636 241.374804 
L 92.062318 241.538669 
L 93.861 234.328598 
L 95.659682 231.160536 
L 97.458364 227.063905 
L 99.257045 220.290808 
L 101.055727 219.198373 
L 102.854409 219.307616 
L 104.653091 211.660571 
L 106.451773 207.345452 
L 110.049136 211.879058 
L 111.847818 206.307639 
L 113.6465 205.488313 
L 115.445182 205.10596 
L 117.243864 202.101764 
L 119.042545 202.374873 
L 120.841227 197.786646 
L 122.639909 196.530345 
L 124.438591 198.22362 
L 126.237273 197.076563 
L 128.035955 192.269849 
L 129.834636 190.521952 
L 131.633318 187.790865 
L 133.432 191.832875 
L 135.230682 187.790865 
L 137.029364 188.719435 
L 138.828045 186.261456 
L 140.626727 187.736243 
L 142.425409 182.274068 
L 144.224091 185.169021 
L 146.022773 185.005155 
L 147.821455 177.085001 
L 149.620136 183.202638 
L 151.418818 179.433737 
L 153.2175 179.706845 
L 155.016182 173.152235 
L 156.814864 174.954753 
L 158.613545 178.232058 
L 160.412227 179.051384 
L 162.210909 174.954753 
L 164.009591 173.206857 
L 165.808273 176.648027 
L 167.606955 174.681644 
L 169.405636 176.10181 
L 171.204318 168.345521 
L 173.003 170.038795 
L 174.801682 170.8035 
L 176.600364 170.311904 
L 178.399045 165.122838 
L 180.197727 167.69006 
L 181.996409 167.853925 
L 183.795091 167.198464 
L 185.593773 163.047211 
L 187.392455 164.030402 
L 189.191136 163.484185 
L 190.989818 164.795107 
L 192.7885 166.43376 
L 194.587182 161.190071 
L 196.385864 161.190071 
L 198.184545 159.769906 
L 199.983227 167.143842 
L 201.781909 156.110248 
L 203.580591 162.337128 
L 205.379273 157.967388 
L 207.177955 155.2363 
L 208.976636 156.984196 
L 210.775318 154.963192 
L 212.574 154.416974 
L 214.372682 158.950579 
L 216.171364 157.148062 
L 217.970045 155.181679 
L 221.567409 153.597648 
L 223.366091 151.631265 
L 225.164773 149.391773 
L 226.963455 154.307731 
L 228.762136 149.774125 
L 230.560818 149.173286 
L 232.3595 149.61026 
L 234.158182 146.769929 
L 235.956864 144.366572 
L 237.755545 148.627068 
L 239.554227 151.030425 
L 243.151591 139.669101 
L 244.950273 147.152281 
L 246.748955 145.841359 
L 248.547636 145.732115 
L 250.346318 145.950602 
L 252.145 144.038841 
L 253.943682 146.169089 
L 255.742364 144.202706 
L 257.541045 148.080851 
L 259.339727 145.786737 
L 261.138409 140.433805 
L 262.937091 146.442198 
L 264.735773 142.564054 
L 266.534455 142.017836 
L 268.333136 140.106075 
L 270.131818 140.324562 
L 271.9305 140.980023 
L 273.729182 142.946406 
L 275.527864 143.656489 
L 277.326545 141.034645 
L 279.125227 141.744727 
L 280.923909 143.765732 
L 282.722591 134.261547 
L 284.521273 136.009443 
L 286.319955 138.959018 
L 288.118636 139.614479 
L 289.917318 137.211122 
L 291.716 137.047257 
L 293.514682 137.975826 
L 295.313364 137.866583 
L 297.112045 135.026252 
L 298.910727 136.009443 
L 300.709409 133.496843 
L 302.508091 133.059869 
L 304.306773 136.555661 
L 306.105455 135.463226 
L 307.904136 135.517848 
L 309.702818 133.824573 
L 311.5015 132.841382 
L 313.300182 136.446417 
L 315.098864 130.219538 
L 316.897545 133.332978 
L 318.696227 135.736335 
L 320.494909 132.131299 
L 322.293591 134.04306 
L 325.890955 129.017859 
L 327.689636 132.896004 
L 329.488318 128.74475 
L 331.287 128.799372 
L 333.085682 131.038864 
L 334.884364 128.963237 
L 336.683045 127.379207 
L 338.481727 128.307776 
L 340.280409 131.475838 
L 342.079091 131.421216 
L 343.877773 128.143911 
L 345.676455 127.543072 
L 347.475136 126.286771 
L 349.273818 124.811984 
L 351.0725 125.685932 
L 352.871182 120.278379 
L 354.669864 127.543072 
L 356.468545 125.740554 
L 358.267227 126.068284 
L 360.065909 125.194336 
L 361.864591 123.11871 
L 363.663273 118.694348 
L 365.461955 125.904419 
L 367.260636 126.286771 
L 369.059318 124.921228 
L 370.858 121.807788 
L 372.656682 125.904419 
L 374.455364 124.156523 
L 376.254045 123.337197 
L 378.052727 122.135518 
L 379.851409 123.610306 
L 381.650091 121.097705 
L 383.448773 125.030471 
L 385.247455 115.854017 
L 387.046136 124.37501 
L 388.844818 123.664927 
L 390.6435 117.984265 
L 392.442182 116.400234 
L 394.240864 117.164939 
L 396.039545 118.912835 
L 397.838227 119.896026 
L 399.636909 120.333 
L 401.435591 119.732161 
L 403.234273 120.00527 
L 405.032955 118.639726 
L 406.831636 115.03469 
L 408.630318 117.001074 
L 410.429 118.14813 
L 412.227682 117.547291 
L 414.026364 118.257374 
L 415.825045 118.366617 
L 417.623727 117.164939 
L 419.422409 112.576712 
L 421.221091 114.597716 
L 423.019773 113.559903 
L 424.818455 116.454856 
L 426.617136 117.055695 
L 428.415818 113.833012 
L 430.2145 112.248981 
L 432.013182 109.299406 
L 432.013182 109.299406 
" clip-path="url(#pb523c3579f)" style="fill: none; stroke: #0000ff; stroke-width: 1.5; stroke-linecap: square"/>
   </g>
   <g id="patch_3">
    <path d="M 54.29 297.16 
L 54.29 10.8 
" style="fill: none; stroke: #000000; stroke-width: 0.8; stroke-linejoin: miter; stroke-linecap: square"/>
   </g>
   <g id="patch_4">
    <path d="M 450 297.16 
L 450 10.8 
" style="fill: none; stroke: #000000; stroke-width: 0.8; stroke-linejoin: miter; stroke-linecap: square"/>
   </g>
   <g id="patch_5">
    <path d="M 54.29 297.16 
L 450 297.16 
" style="fill: none; stroke: #000000; stroke-width: 0.8; stroke-linejoin: miter; stroke-linecap: square"/>
   </g>
   <g id="patch_6">
    <path d="M 54.29 10.8 
L 450 10.8 
" style="fill: none; stroke: #000000; stroke-width: 0.8; stroke-linejoin: miter; stroke-linecap: square"/>
   </g>
   <g id="legend_1">
    <g id="patch_7">
     <path d="M 303.09 289.16 
L 438.8 289.16 
Q 442 289.16 442 285.96 
L 442 193.62 
Q 442 190.42 438.8 190.42 
L 303.09 190.42 
Q 299.89 190.42 299.89 193.62 
L 299.89 285.96 
Q 299.89 289.16 303.09 289.16 
z
" style="fill: #ffffff; opacity: 0.8; stroke: #cccccc; stroke-linejoin: miter"/>
    </g>
    <g id="line2d_21">
     <path d="M 306.29 203.3775 
L 322.29 203.3775 
L 338.29 203.3775 
" style="fill: none; stroke: #000000; stroke-width: 1.5; stroke-linecap: square"/>
    </g>
    <g id="text_19">
     <!-- Scaffnew -->
     <g transform="translate(351.09 208.9775) scale(0.16 -0.16)">
      <defs>
       <path id="DejaVuSans-53" d="M 3425 4513 
L 3425 3897 
Q 3066 4069 2747 4153 
Q 2428 4238 2131 4238 
Q 1616 4238 1336 4038 
Q 1056 3838 1056 3469 
Q 1056 3159 1242 3001 
Q 1428 2844 1947 2747 
L 2328 2669 
Q 3034 2534 3370 2195 
Q 3706 1856 3706 1288 
Q 3706 609 3251 259 
Q 2797 -91 1919 -91 
Q 1588 -91 1214 -16 
Q 841 59 441 206 
L 441 856 
Q 825 641 1194 531 
Q 1563 422 1919 422 
Q 2459 422 2753 634 
Q 3047 847 3047 1241 
Q 3047 1584 2836 1778 
Q 2625 1972 2144 2069 
L 1759 2144 
Q 1053 2284 737 2584 
Q 422 2884 422 3419 
Q 422 4038 858 4394 
Q 1294 4750 2059 4750 
Q 2388 4750 2728 4690 
Q 3069 4631 3425 4513 
z
" transform="scale(0.015625)"/>
       <path id="DejaVuSans-66" d="M 2375 4863 
L 2375 4384 
L 1825 4384 
Q 1516 4384 1395 4259 
Q 1275 4134 1275 3809 
L 1275 3500 
L 2222 3500 
L 2222 3053 
L 1275 3053 
L 1275 0 
L 697 0 
L 697 3053 
L 147 3053 
L 147 3500 
L 697 3500 
L 697 3744 
Q 697 4328 969 4595 
Q 1241 4863 1831 4863 
L 2375 4863 
z
" transform="scale(0.015625)"/>
       <path id="DejaVuSans-65" d="M 3597 1894 
L 3597 1613 
L 953 1613 
Q 991 1019 1311 708 
Q 1631 397 2203 397 
Q 2534 397 2845 478 
Q 3156 559 3463 722 
L 3463 178 
Q 3153 47 2828 -22 
Q 2503 -91 2169 -91 
Q 1331 -91 842 396 
Q 353 884 353 1716 
Q 353 2575 817 3079 
Q 1281 3584 2069 3584 
Q 2775 3584 3186 3129 
Q 3597 2675 3597 1894 
z
M 3022 2063 
Q 3016 2534 2758 2815 
Q 2500 3097 2075 3097 
Q 1594 3097 1305 2825 
Q 1016 2553 972 2059 
L 3022 2063 
z
" transform="scale(0.015625)"/>
       <path id="DejaVuSans-77" d="M 269 3500 
L 844 3500 
L 1563 769 
L 2278 3500 
L 2956 3500 
L 3675 769 
L 4391 3500 
L 4966 3500 
L 4050 0 
L 3372 0 
L 2619 2869 
L 1863 0 
L 1184 0 
L 269 3500 
z
" transform="scale(0.015625)"/>
      </defs>
      <use xlink:href="#DejaVuSans-53"/>
      <use xlink:href="#DejaVuSans-63" x="63.476562"/>
      <use xlink:href="#DejaVuSans-61" x="118.457031"/>
      <use xlink:href="#DejaVuSans-66" x="179.736328"/>
      <use xlink:href="#DejaVuSans-66" x="214.941406"/>
      <use xlink:href="#DejaVuSans-6e" x="250.146484"/>
      <use xlink:href="#DejaVuSans-65" x="313.525391"/>
      <use xlink:href="#DejaVuSans-77" x="375.048828"/>
     </g>
    </g>
    <g id="line2d_22">
     <path d="M 306.29 226.8625 
L 322.29 226.8625 
L 338.29 226.8625 
" style="fill: none; stroke: #ff0000; stroke-width: 1.5; stroke-linecap: square"/>
    </g>
    <g id="text_20">
     <!-- FedRecu -->
     <g transform="translate(351.09 232.4625) scale(0.16 -0.16)">
      <defs>
       <path id="DejaVuSans-46" d="M 628 4666 
L 3309 4666 
L 3309 4134 
L 1259 4134 
L 1259 2759 
L 3109 2759 
L 3109 2228 
L 1259 2228 
L 1259 0 
L 628 0 
L 628 4666 
z
" transform="scale(0.015625)"/>
      </defs>
      <use xlink:href="#DejaVuSans-46"/>
      <use xlink:href="#DejaVuSans-65" x="52.019531"/>
      <use xlink:href="#DejaVuSans-64" x="113.542969"/>
      <use xlink:href="#DejaVuSans-52" x="177.019531"/>
      <use xlink:href="#DejaVuSans-65" x="242.001953"/>
      <use xlink:href="#DejaVuSans-63" x="303.525391"/>
      <use xlink:href="#DejaVuSans-75" x="358.505859"/>
     </g>
    </g>
    <g id="line2d_23">
     <path d="M 306.29 250.3475 
L 322.29 250.3475 
L 338.29 250.3475 
" style="fill: none; stroke: #ffa500; stroke-width: 1.5; stroke-linecap: square"/>
    </g>
    <g id="text_21">
     <!-- SCAFFOLD -->
     <g transform="translate(351.09 255.9475) scale(0.16 -0.16)">
      <defs>
       <path id="DejaVuSans-4f" d="M 2522 4238 
Q 1834 4238 1429 3725 
Q 1025 3213 1025 2328 
Q 1025 1447 1429 934 
Q 1834 422 2522 422 
Q 3209 422 3611 934 
Q 4013 1447 4013 2328 
Q 4013 3213 3611 3725 
Q 3209 4238 2522 4238 
z
M 2522 4750 
Q 3503 4750 4090 4092 
Q 4678 3434 4678 2328 
Q 4678 1225 4090 567 
Q 3503 -91 2522 -91 
Q 1538 -91 948 565 
Q 359 1222 359 2328 
Q 359 3434 948 4092 
Q 1538 4750 2522 4750 
z
" transform="scale(0.015625)"/>
       <path id="DejaVuSans-4c" d="M 628 4666 
L 1259 4666 
L 1259 531 
L 3531 531 
L 3531 0 
L 628 0 
L 628 4666 
z
" transform="scale(0.015625)"/>
       <path id="DejaVuSans-44" d="M 1259 4147 
L 1259 519 
L 2022 519 
Q 2988 519 3436 956 
Q 3884 1394 3884 2338 
Q 3884 3275 3436 3711 
Q 2988 4147 2022 4147 
L 1259 4147 
z
M 628 4666 
L 1925 4666 
Q 3281 4666 3915 4102 
Q 4550 3538 4550 2338 
Q 4550 1131 3912 565 
Q 3275 0 1925 0 
L 628 0 
L 628 4666 
z
" transform="scale(0.015625)"/>
      </defs>
      <use xlink:href="#DejaVuSans-53"/>
      <use xlink:href="#DejaVuSans-43" x="63.476562"/>
      <use xlink:href="#DejaVuSans-41" x="133.300781"/>
      <use xlink:href="#DejaVuSans-46" x="201.708984"/>
      <use xlink:href="#DejaVuSans-46" x="259.228516"/>
      <use xlink:href="#DejaVuSans-4f" x="316.748047"/>
      <use xlink:href="#DejaVuSans-4c" x="395.458984"/>
      <use xlink:href="#DejaVuSans-44" x="451.171875"/>
     </g>
    </g>
    <g id="line2d_24">
     <path d="M 306.29 273.8325 
L 322.29 273.8325 
L 338.29 273.8325 
" style="fill: none; stroke: #0000ff; stroke-width: 1.5; stroke-linecap: square"/>
    </g>
    <g id="text_22">
     <!-- FedLin -->
     <g transform="translate(351.09 279.4325) scale(0.16 -0.16)">
      <use xlink:href="#DejaVuSans-46"/>
      <use xlink:href="#DejaVuSans-65" x="52.019531"/>
      <use xlink:href="#DejaVuSans-64" x="113.542969"/>
      <use xlink:href="#DejaVuSans-4c" x="177.019531"/>
      <use xlink:href="#DejaVuSans-69" x="232.732422"/>
      <use xlink:href="#DejaVuSans-6e" x="260.515625"/>
     </g>
    </g>
   </g>
  </g>
 </g>
 <defs>
  <clipPath id="pb523c3579f">
   <rect x="54.29" y="10.8" width="395.71" height="286.36"/>
  </clipPath>
 </defs>
</svg>
