<?xml version="1.0" encoding="utf-8" standalone="no"?>
<!DOCTYPE svg PUBLIC "-//W3C//DTD SVG 1.1//EN"
  "http://www.w3.org/Graphics/SVG/1.1/DTD/svg11.dtd">
<svg xmlns:xlink="http://www.w3.org/1999/xlink" width="460.8pt" height="345.6pt" viewBox="0 0 460.8 345.6" xmlns="http://www.w3.org/2000/svg" version="1.1">
 <metadata>
  <rdf:RDF xmlns:dc="http://purl.org/dc/elements/1.1/" xmlns:cc="http://creativecommons.org/ns#" xmlns:rdf="http://www.w3.org/1999/02/22-rdf-syntax-ns#">
   <cc:Work>
    <dc:type rdf:resource="http://purl.org/dc/dcmitype/StillImage"/>
    <dc:date>2025-09-23T20:50:29.291483</dc:date>
    <dc:format>image/svg+xml</dc:format>
    <dc:creator>
     <cc:Agent>
      <dc:title>Matplotlib v3.8.4, https://matplotlib.org/</dc:title>
     </cc:Agent>
    </dc:creator>
   </cc:Work>
  </rdf:RDF>
 </metadata>
 <defs>
  <style type="text/css">*{stroke-linejoin: round; stroke-linecap: butt}</style>
 </defs>
 <g id="figure_1">
  <g id="patch_1">
   <path d="M 0 345.6 
L 460.8 345.6 
L 460.8 0 
L 0 0 
z
" style="fill: #ffffff"/>
  </g>
  <g id="axes_1">
   <g id="patch_2">
    <path d="M 54.29 297.16 
L 450 297.16 
L 450 10.8 
L 54.29 10.8 
z
" style="fill: #ffffff"/>
   </g>
   <g id="matplotlib.axis_1">
    <g id="xtick_1">
     <g id="line2d_1">
      <defs>
       <path id="mb49a634ecd" d="M 0 0 
L 0 3.5 
" style="stroke: #000000; stroke-width: 0.8"/>
      </defs>
      <g>
       <use xlink:href="#mb49a634ecd" x="71.377477" y="297.16" style="stroke: #000000; stroke-width: 0.8"/>
      </g>
     </g>
     <g id="text_1">
      <!-- 0 -->
      <g transform="translate(68.196227 311.758438) scale(0.1 -0.1)">
       <defs>
        <path id="DejaVuSans-30" d="M 2034 4250 
Q 1547 4250 1301 3770 
Q 1056 3291 1056 2328 
Q 1056 1369 1301 889 
Q 1547 409 2034 409 
Q 2525 409 2770 889 
Q 3016 1369 3016 2328 
Q 3016 3291 2770 3770 
Q 2525 4250 2034 4250 
z
M 2034 4750 
Q 2819 4750 3233 4129 
Q 3647 3509 3647 2328 
Q 3647 1150 3233 529 
Q 2819 -91 2034 -91 
Q 1250 -91 836 529 
Q 422 1150 422 2328 
Q 422 3509 836 4129 
Q 1250 4750 2034 4750 
z
" transform="scale(0.015625)"/>
       </defs>
       <use xlink:href="#DejaVuSans-30"/>
      </g>
     </g>
    </g>
    <g id="xtick_2">
     <g id="line2d_2">
      <g>
       <use xlink:href="#mb49a634ecd" x="116.344523" y="297.16" style="stroke: #000000; stroke-width: 0.8"/>
      </g>
     </g>
     <g id="text_2">
      <!-- 500 -->
      <g transform="translate(106.800773 311.758438) scale(0.1 -0.1)">
       <defs>
        <path id="DejaVuSans-35" d="M 691 4666 
L 3169 4666 
L 3169 4134 
L 1269 4134 
L 1269 2991 
Q 1406 3038 1543 3061 
Q 1681 3084 1819 3084 
Q 2600 3084 3056 2656 
Q 3513 2228 3513 1497 
Q 3513 744 3044 326 
Q 2575 -91 1722 -91 
Q 1428 -91 1123 -41 
Q 819 9 494 109 
L 494 744 
Q 775 591 1075 516 
Q 1375 441 1709 441 
Q 2250 441 2565 725 
Q 2881 1009 2881 1497 
Q 2881 1984 2565 2268 
Q 2250 2553 1709 2553 
Q 1456 2553 1204 2497 
Q 953 2441 691 2322 
L 691 4666 
z
" transform="scale(0.015625)"/>
       </defs>
       <use xlink:href="#DejaVuSans-35"/>
       <use xlink:href="#DejaVuSans-30" x="63.623047"/>
       <use xlink:href="#DejaVuSans-30" x="127.246094"/>
      </g>
     </g>
    </g>
    <g id="xtick_3">
     <g id="line2d_3">
      <g>
       <use xlink:href="#mb49a634ecd" x="161.311568" y="297.16" style="stroke: #000000; stroke-width: 0.8"/>
      </g>
     </g>
     <g id="text_3">
      <!-- 1000 -->
      <g transform="translate(148.586568 311.758438) scale(0.1 -0.1)">
       <defs>
        <path id="DejaVuSans-31" d="M 794 531 
L 1825 531 
L 1825 4091 
L 703 3866 
L 703 4441 
L 1819 4666 
L 2450 4666 
L 2450 531 
L 3481 531 
L 3481 0 
L 794 0 
L 794 531 
z
" transform="scale(0.015625)"/>
       </defs>
       <use xlink:href="#DejaVuSans-31"/>
       <use xlink:href="#DejaVuSans-30" x="63.623047"/>
       <use xlink:href="#DejaVuSans-30" x="127.246094"/>
       <use xlink:href="#DejaVuSans-30" x="190.869141"/>
      </g>
     </g>
    </g>
    <g id="xtick_4">
     <g id="line2d_4">
      <g>
       <use xlink:href="#mb49a634ecd" x="206.278614" y="297.16" style="stroke: #000000; stroke-width: 0.8"/>
      </g>
     </g>
     <g id="text_4">
      <!-- 1500 -->
      <g transform="translate(193.553614 311.758438) scale(0.1 -0.1)">
       <use xlink:href="#DejaVuSans-31"/>
       <use xlink:href="#DejaVuSans-35" x="63.623047"/>
       <use xlink:href="#DejaVuSans-30" x="127.246094"/>
       <use xlink:href="#DejaVuSans-30" x="190.869141"/>
      </g>
     </g>
    </g>
    <g id="xtick_5">
     <g id="line2d_5">
      <g>
       <use xlink:href="#mb49a634ecd" x="251.245659" y="297.16" style="stroke: #000000; stroke-width: 0.8"/>
      </g>
     </g>
     <g id="text_5">
      <!-- 2000 -->
      <g transform="translate(238.520659 311.758438) scale(0.1 -0.1)">
       <defs>
        <path id="DejaVuSans-32" d="M 1228 531 
L 3431 531 
L 3431 0 
L 469 0 
L 469 531 
Q 828 903 1448 1529 
Q 2069 2156 2228 2338 
Q 2531 2678 2651 2914 
Q 2772 3150 2772 3378 
Q 2772 3750 2511 3984 
Q 2250 4219 1831 4219 
Q 1534 4219 1204 4116 
Q 875 4013 500 3803 
L 500 4441 
Q 881 4594 1212 4672 
Q 1544 4750 1819 4750 
Q 2544 4750 2975 4387 
Q 3406 4025 3406 3419 
Q 3406 3131 3298 2873 
Q 3191 2616 2906 2266 
Q 2828 2175 2409 1742 
Q 1991 1309 1228 531 
z
" transform="scale(0.015625)"/>
       </defs>
       <use xlink:href="#DejaVuSans-32"/>
       <use xlink:href="#DejaVuSans-30" x="63.623047"/>
       <use xlink:href="#DejaVuSans-30" x="127.246094"/>
       <use xlink:href="#DejaVuSans-30" x="190.869141"/>
      </g>
     </g>
    </g>
    <g id="xtick_6">
     <g id="line2d_6">
      <g>
       <use xlink:href="#mb49a634ecd" x="296.212705" y="297.16" style="stroke: #000000; stroke-width: 0.8"/>
      </g>
     </g>
     <g id="text_6">
      <!-- 2500 -->
      <g transform="translate(283.487705 311.758438) scale(0.1 -0.1)">
       <use xlink:href="#DejaVuSans-32"/>
       <use xlink:href="#DejaVuSans-35" x="63.623047"/>
       <use xlink:href="#DejaVuSans-30" x="127.246094"/>
       <use xlink:href="#DejaVuSans-30" x="190.869141"/>
      </g>
     </g>
    </g>
    <g id="xtick_7">
     <g id="line2d_7">
      <g>
       <use xlink:href="#mb49a634ecd" x="341.17975" y="297.16" style="stroke: #000000; stroke-width: 0.8"/>
      </g>
     </g>
     <g id="text_7">
      <!-- 3000 -->
      <g transform="translate(328.45475 311.758438) scale(0.1 -0.1)">
       <defs>
        <path id="DejaVuSans-33" d="M 2597 2516 
Q 3050 2419 3304 2112 
Q 3559 1806 3559 1356 
Q 3559 666 3084 287 
Q 2609 -91 1734 -91 
Q 1441 -91 1130 -33 
Q 819 25 488 141 
L 488 750 
Q 750 597 1062 519 
Q 1375 441 1716 441 
Q 2309 441 2620 675 
Q 2931 909 2931 1356 
Q 2931 1769 2642 2001 
Q 2353 2234 1838 2234 
L 1294 2234 
L 1294 2753 
L 1863 2753 
Q 2328 2753 2575 2939 
Q 2822 3125 2822 3475 
Q 2822 3834 2567 4026 
Q 2313 4219 1838 4219 
Q 1578 4219 1281 4162 
Q 984 4106 628 3988 
L 628 4550 
Q 988 4650 1302 4700 
Q 1616 4750 1894 4750 
Q 2613 4750 3031 4423 
Q 3450 4097 3450 3541 
Q 3450 3153 3228 2886 
Q 3006 2619 2597 2516 
z
" transform="scale(0.015625)"/>
       </defs>
       <use xlink:href="#DejaVuSans-33"/>
       <use xlink:href="#DejaVuSans-30" x="63.623047"/>
       <use xlink:href="#DejaVuSans-30" x="127.246094"/>
       <use xlink:href="#DejaVuSans-30" x="190.869141"/>
      </g>
     </g>
    </g>
    <g id="xtick_8">
     <g id="line2d_8">
      <g>
       <use xlink:href="#mb49a634ecd" x="386.146795" y="297.16" style="stroke: #000000; stroke-width: 0.8"/>
      </g>
     </g>
     <g id="text_8">
      <!-- 3500 -->
      <g transform="translate(373.421795 311.758438) scale(0.1 -0.1)">
       <use xlink:href="#DejaVuSans-33"/>
       <use xlink:href="#DejaVuSans-35" x="63.623047"/>
       <use xlink:href="#DejaVuSans-30" x="127.246094"/>
       <use xlink:href="#DejaVuSans-30" x="190.869141"/>
      </g>
     </g>
    </g>
    <g id="xtick_9">
     <g id="line2d_9">
      <g>
       <use xlink:href="#mb49a634ecd" x="431.113841" y="297.16" style="stroke: #000000; stroke-width: 0.8"/>
      </g>
     </g>
     <g id="text_9">
      <!-- 4000 -->
      <g transform="translate(418.388841 311.758438) scale(0.1 -0.1)">
       <defs>
        <path id="DejaVuSans-34" d="M 2419 4116 
L 825 1625 
L 2419 1625 
L 2419 4116 
z
M 2253 4666 
L 3047 4666 
L 3047 1625 
L 3713 1625 
L 3713 1100 
L 3047 1100 
L 3047 0 
L 2419 0 
L 2419 1100 
L 313 1100 
L 313 1709 
L 2253 4666 
z
" transform="scale(0.015625)"/>
       </defs>
       <use xlink:href="#DejaVuSans-34"/>
       <use xlink:href="#DejaVuSans-30" x="63.623047"/>
       <use xlink:href="#DejaVuSans-30" x="127.246094"/>
       <use xlink:href="#DejaVuSans-30" x="190.869141"/>
      </g>
     </g>
    </g>
    <g id="text_10">
     <!-- Communication Rounds -->
     <g transform="translate(157.06875 329.995625) scale(0.16 -0.16)">
      <defs>
       <path id="DejaVuSans-43" d="M 4122 4306 
L 4122 3641 
Q 3803 3938 3442 4084 
Q 3081 4231 2675 4231 
Q 1875 4231 1450 3742 
Q 1025 3253 1025 2328 
Q 1025 1406 1450 917 
Q 1875 428 2675 428 
Q 3081 428 3442 575 
Q 3803 722 4122 1019 
L 4122 359 
Q 3791 134 3420 21 
Q 3050 -91 2638 -91 
Q 1578 -91 968 557 
Q 359 1206 359 2328 
Q 359 3453 968 4101 
Q 1578 4750 2638 4750 
Q 3056 4750 3426 4639 
Q 3797 4528 4122 4306 
z
" transform="scale(0.015625)"/>
       <path id="DejaVuSans-6f" d="M 1959 3097 
Q 1497 3097 1228 2736 
Q 959 2375 959 1747 
Q 959 1119 1226 758 
Q 1494 397 1959 397 
Q 2419 397 2687 759 
Q 2956 1122 2956 1747 
Q 2956 2369 2687 2733 
Q 2419 3097 1959 3097 
z
M 1959 3584 
Q 2709 3584 3137 3096 
Q 3566 2609 3566 1747 
Q 3566 888 3137 398 
Q 2709 -91 1959 -91 
Q 1206 -91 779 398 
Q 353 888 353 1747 
Q 353 2609 779 3096 
Q 1206 3584 1959 3584 
z
" transform="scale(0.015625)"/>
       <path id="DejaVuSans-6d" d="M 3328 2828 
Q 3544 3216 3844 3400 
Q 4144 3584 4550 3584 
Q 5097 3584 5394 3201 
Q 5691 2819 5691 2113 
L 5691 0 
L 5113 0 
L 5113 2094 
Q 5113 2597 4934 2840 
Q 4756 3084 4391 3084 
Q 3944 3084 3684 2787 
Q 3425 2491 3425 1978 
L 3425 0 
L 2847 0 
L 2847 2094 
Q 2847 2600 2669 2842 
Q 2491 3084 2119 3084 
Q 1678 3084 1418 2786 
Q 1159 2488 1159 1978 
L 1159 0 
L 581 0 
L 581 3500 
L 1159 3500 
L 1159 2956 
Q 1356 3278 1631 3431 
Q 1906 3584 2284 3584 
Q 2666 3584 2933 3390 
Q 3200 3197 3328 2828 
z
" transform="scale(0.015625)"/>
       <path id="DejaVuSans-75" d="M 544 1381 
L 544 3500 
L 1119 3500 
L 1119 1403 
Q 1119 906 1312 657 
Q 1506 409 1894 409 
Q 2359 409 2629 706 
Q 2900 1003 2900 1516 
L 2900 3500 
L 3475 3500 
L 3475 0 
L 2900 0 
L 2900 538 
Q 2691 219 2414 64 
Q 2138 -91 1772 -91 
Q 1169 -91 856 284 
Q 544 659 544 1381 
z
M 1991 3584 
L 1991 3584 
z
" transform="scale(0.015625)"/>
       <path id="DejaVuSans-6e" d="M 3513 2113 
L 3513 0 
L 2938 0 
L 2938 2094 
Q 2938 2591 2744 2837 
Q 2550 3084 2163 3084 
Q 1697 3084 1428 2787 
Q 1159 2491 1159 1978 
L 1159 0 
L 581 0 
L 581 3500 
L 1159 3500 
L 1159 2956 
Q 1366 3272 1645 3428 
Q 1925 3584 2291 3584 
Q 2894 3584 3203 3211 
Q 3513 2838 3513 2113 
z
" transform="scale(0.015625)"/>
       <path id="DejaVuSans-69" d="M 603 3500 
L 1178 3500 
L 1178 0 
L 603 0 
L 603 3500 
z
M 603 4863 
L 1178 4863 
L 1178 4134 
L 603 4134 
L 603 4863 
z
" transform="scale(0.015625)"/>
       <path id="DejaVuSans-63" d="M 3122 3366 
L 3122 2828 
Q 2878 2963 2633 3030 
Q 2388 3097 2138 3097 
Q 1578 3097 1268 2742 
Q 959 2388 959 1747 
Q 959 1106 1268 751 
Q 1578 397 2138 397 
Q 2388 397 2633 464 
Q 2878 531 3122 666 
L 3122 134 
Q 2881 22 2623 -34 
Q 2366 -91 2075 -91 
Q 1284 -91 818 406 
Q 353 903 353 1747 
Q 353 2603 823 3093 
Q 1294 3584 2113 3584 
Q 2378 3584 2631 3529 
Q 2884 3475 3122 3366 
z
" transform="scale(0.015625)"/>
       <path id="DejaVuSans-61" d="M 2194 1759 
Q 1497 1759 1228 1600 
Q 959 1441 959 1056 
Q 959 750 1161 570 
Q 1363 391 1709 391 
Q 2188 391 2477 730 
Q 2766 1069 2766 1631 
L 2766 1759 
L 2194 1759 
z
M 3341 1997 
L 3341 0 
L 2766 0 
L 2766 531 
Q 2569 213 2275 61 
Q 1981 -91 1556 -91 
Q 1019 -91 701 211 
Q 384 513 384 1019 
Q 384 1609 779 1909 
Q 1175 2209 1959 2209 
L 2766 2209 
L 2766 2266 
Q 2766 2663 2505 2880 
Q 2244 3097 1772 3097 
Q 1472 3097 1187 3025 
Q 903 2953 641 2809 
L 641 3341 
Q 956 3463 1253 3523 
Q 1550 3584 1831 3584 
Q 2591 3584 2966 3190 
Q 3341 2797 3341 1997 
z
" transform="scale(0.015625)"/>
       <path id="DejaVuSans-74" d="M 1172 4494 
L 1172 3500 
L 2356 3500 
L 2356 3053 
L 1172 3053 
L 1172 1153 
Q 1172 725 1289 603 
Q 1406 481 1766 481 
L 2356 481 
L 2356 0 
L 1766 0 
Q 1100 0 847 248 
Q 594 497 594 1153 
L 594 3053 
L 172 3053 
L 172 3500 
L 594 3500 
L 594 4494 
L 1172 4494 
z
" transform="scale(0.015625)"/>
       <path id="DejaVuSans-20" transform="scale(0.015625)"/>
       <path id="DejaVuSans-52" d="M 2841 2188 
Q 3044 2119 3236 1894 
Q 3428 1669 3622 1275 
L 4263 0 
L 3584 0 
L 2988 1197 
Q 2756 1666 2539 1819 
Q 2322 1972 1947 1972 
L 1259 1972 
L 1259 0 
L 628 0 
L 628 4666 
L 2053 4666 
Q 2853 4666 3247 4331 
Q 3641 3997 3641 3322 
Q 3641 2881 3436 2590 
Q 3231 2300 2841 2188 
z
M 1259 4147 
L 1259 2491 
L 2053 2491 
Q 2509 2491 2742 2702 
Q 2975 2913 2975 3322 
Q 2975 3731 2742 3939 
Q 2509 4147 2053 4147 
L 1259 4147 
z
" transform="scale(0.015625)"/>
       <path id="DejaVuSans-64" d="M 2906 2969 
L 2906 4863 
L 3481 4863 
L 3481 0 
L 2906 0 
L 2906 525 
Q 2725 213 2448 61 
Q 2172 -91 1784 -91 
Q 1150 -91 751 415 
Q 353 922 353 1747 
Q 353 2572 751 3078 
Q 1150 3584 1784 3584 
Q 2172 3584 2448 3432 
Q 2725 3281 2906 2969 
z
M 947 1747 
Q 947 1113 1208 752 
Q 1469 391 1925 391 
Q 2381 391 2643 752 
Q 2906 1113 2906 1747 
Q 2906 2381 2643 2742 
Q 2381 3103 1925 3103 
Q 1469 3103 1208 2742 
Q 947 2381 947 1747 
z
" transform="scale(0.015625)"/>
       <path id="DejaVuSans-73" d="M 2834 3397 
L 2834 2853 
Q 2591 2978 2328 3040 
Q 2066 3103 1784 3103 
Q 1356 3103 1142 2972 
Q 928 2841 928 2578 
Q 928 2378 1081 2264 
Q 1234 2150 1697 2047 
L 1894 2003 
Q 2506 1872 2764 1633 
Q 3022 1394 3022 966 
Q 3022 478 2636 193 
Q 2250 -91 1575 -91 
Q 1294 -91 989 -36 
Q 684 19 347 128 
L 347 722 
Q 666 556 975 473 
Q 1284 391 1588 391 
Q 1994 391 2212 530 
Q 2431 669 2431 922 
Q 2431 1156 2273 1281 
Q 2116 1406 1581 1522 
L 1381 1569 
Q 847 1681 609 1914 
Q 372 2147 372 2553 
Q 372 3047 722 3315 
Q 1072 3584 1716 3584 
Q 2034 3584 2315 3537 
Q 2597 3491 2834 3397 
z
" transform="scale(0.015625)"/>
      </defs>
      <use xlink:href="#DejaVuSans-43"/>
      <use xlink:href="#DejaVuSans-6f" x="69.824219"/>
      <use xlink:href="#DejaVuSans-6d" x="131.005859"/>
      <use xlink:href="#DejaVuSans-6d" x="228.417969"/>
      <use xlink:href="#DejaVuSans-75" x="325.830078"/>
      <use xlink:href="#DejaVuSans-6e" x="389.208984"/>
      <use xlink:href="#DejaVuSans-69" x="452.587891"/>
      <use xlink:href="#DejaVuSans-63" x="480.371094"/>
      <use xlink:href="#DejaVuSans-61" x="535.351562"/>
      <use xlink:href="#DejaVuSans-74" x="596.630859"/>
      <use xlink:href="#DejaVuSans-69" x="635.839844"/>
      <use xlink:href="#DejaVuSans-6f" x="663.623047"/>
      <use xlink:href="#DejaVuSans-6e" x="724.804688"/>
      <use xlink:href="#DejaVuSans-20" x="788.183594"/>
      <use xlink:href="#DejaVuSans-52" x="819.970703"/>
      <use xlink:href="#DejaVuSans-6f" x="884.953125"/>
      <use xlink:href="#DejaVuSans-75" x="946.134766"/>
      <use xlink:href="#DejaVuSans-6e" x="1009.513672"/>
      <use xlink:href="#DejaVuSans-64" x="1072.892578"/>
      <use xlink:href="#DejaVuSans-73" x="1136.369141"/>
     </g>
    </g>
   </g>
   <g id="matplotlib.axis_2">
    <g id="ytick_1">
     <g id="line2d_10">
      <defs>
       <path id="mc60e2d4f77" d="M 0 0 
L -3.5 0 
" style="stroke: #000000; stroke-width: 0.8"/>
      </defs>
      <g>
       <use xlink:href="#mc60e2d4f77" x="54.29" y="284.602466" style="stroke: #000000; stroke-width: 0.8"/>
      </g>
     </g>
     <g id="text_11">
      <!-- 2.0 -->
      <g transform="translate(31.386875 288.401685) scale(0.1 -0.1)">
       <defs>
        <path id="DejaVuSans-2e" d="M 684 794 
L 1344 794 
L 1344 0 
L 684 0 
L 684 794 
z
" transform="scale(0.015625)"/>
       </defs>
       <use xlink:href="#DejaVuSans-32"/>
       <use xlink:href="#DejaVuSans-2e" x="63.623047"/>
       <use xlink:href="#DejaVuSans-30" x="95.410156"/>
      </g>
     </g>
    </g>
    <g id="ytick_2">
     <g id="line2d_11">
      <g>
       <use xlink:href="#mc60e2d4f77" x="54.29" y="234.655153" style="stroke: #000000; stroke-width: 0.8"/>
      </g>
     </g>
     <g id="text_12">
      <!-- 2.5 -->
      <g transform="translate(31.386875 238.454372) scale(0.1 -0.1)">
       <use xlink:href="#DejaVuSans-32"/>
       <use xlink:href="#DejaVuSans-2e" x="63.623047"/>
       <use xlink:href="#DejaVuSans-35" x="95.410156"/>
      </g>
     </g>
    </g>
    <g id="ytick_3">
     <g id="line2d_12">
      <g>
       <use xlink:href="#mc60e2d4f77" x="54.29" y="184.707841" style="stroke: #000000; stroke-width: 0.8"/>
      </g>
     </g>
     <g id="text_13">
      <!-- 3.0 -->
      <g transform="translate(31.386875 188.50706) scale(0.1 -0.1)">
       <use xlink:href="#DejaVuSans-33"/>
       <use xlink:href="#DejaVuSans-2e" x="63.623047"/>
       <use xlink:href="#DejaVuSans-30" x="95.410156"/>
      </g>
     </g>
    </g>
    <g id="ytick_4">
     <g id="line2d_13">
      <g>
       <use xlink:href="#mc60e2d4f77" x="54.29" y="134.760529" style="stroke: #000000; stroke-width: 0.8"/>
      </g>
     </g>
     <g id="text_14">
      <!-- 3.5 -->
      <g transform="translate(31.386875 138.559748) scale(0.1 -0.1)">
       <use xlink:href="#DejaVuSans-33"/>
       <use xlink:href="#DejaVuSans-2e" x="63.623047"/>
       <use xlink:href="#DejaVuSans-35" x="95.410156"/>
      </g>
     </g>
    </g>
    <g id="ytick_5">
     <g id="line2d_14">
      <g>
       <use xlink:href="#mc60e2d4f77" x="54.29" y="84.813216" style="stroke: #000000; stroke-width: 0.8"/>
      </g>
     </g>
     <g id="text_15">
      <!-- 4.0 -->
      <g transform="translate(31.386875 88.612435) scale(0.1 -0.1)">
       <use xlink:href="#DejaVuSans-34"/>
       <use xlink:href="#DejaVuSans-2e" x="63.623047"/>
       <use xlink:href="#DejaVuSans-30" x="95.410156"/>
      </g>
     </g>
    </g>
    <g id="ytick_6">
     <g id="line2d_15">
      <g>
       <use xlink:href="#mc60e2d4f77" x="54.29" y="34.865904" style="stroke: #000000; stroke-width: 0.8"/>
      </g>
     </g>
     <g id="text_16">
      <!-- 4.5 -->
      <g transform="translate(31.386875 38.665123) scale(0.1 -0.1)">
       <use xlink:href="#DejaVuSans-34"/>
       <use xlink:href="#DejaVuSans-2e" x="63.623047"/>
       <use xlink:href="#DejaVuSans-35" x="95.410156"/>
      </g>
     </g>
    </g>
    <g id="text_17">
     <!-- Loss -->
     <g transform="translate(24.059375 171.5275) rotate(-90) scale(0.16 -0.16)">
      <defs>
       <path id="DejaVuSans-4c" d="M 628 4666 
L 1259 4666 
L 1259 531 
L 3531 531 
L 3531 0 
L 628 0 
L 628 4666 
z
" transform="scale(0.015625)"/>
      </defs>
      <use xlink:href="#DejaVuSans-4c"/>
      <use xlink:href="#DejaVuSans-6f" x="53.962891"/>
      <use xlink:href="#DejaVuSans-73" x="115.144531"/>
      <use xlink:href="#DejaVuSans-73" x="167.244141"/>
     </g>
    </g>
   </g>
   <g id="line2d_16">
    <path d="M 72.366752 24.304164 
L 74.345302 24.341356 
L 75.334577 24.291774 
L 76.323852 24.908328 
L 77.313127 25.271396 
L 78.302402 28.332109 
L 79.291677 26.352362 
L 80.280952 32.462613 
L 81.270227 41.579199 
L 82.259502 39.631542 
L 83.248777 52.207556 
L 84.238052 51.579687 
L 85.227327 62.96846 
L 87.205877 62.183038 
L 89.184427 70.956902 
L 90.173702 73.152766 
L 92.152252 83.228983 
L 93.141527 92.490192 
L 94.130802 91.111426 
L 95.120077 92.836385 
L 96.109352 91.60996 
L 97.098627 101.507656 
L 98.087902 102.749448 
L 99.077177 98.859838 
L 100.066452 102.355048 
L 101.055727 111.154403 
L 102.045002 101.66221 
L 103.034277 116.151489 
L 104.023552 117.908194 
L 105.012827 121.445371 
L 106.002102 118.541262 
L 106.991377 127.486775 
L 107.980652 127.178982 
L 108.969927 126.496068 
L 109.959202 127.147314 
L 110.948477 121.195953 
L 111.937752 134.698191 
L 112.927027 134.82723 
L 113.916302 133.888342 
L 114.905577 130.788059 
L 115.894852 123.864992 
L 116.884127 139.281278 
L 117.873402 146.952106 
L 118.862677 150.324694 
L 119.851952 148.42309 
L 120.841227 140.644963 
L 121.830502 152.154093 
L 122.819777 146.897809 
L 123.809052 157.183229 
L 124.798327 151.359038 
L 125.787602 156.70419 
L 126.776877 145.692347 
L 127.766152 156.530097 
L 128.755427 154.522229 
L 129.744702 165.942999 
L 130.733977 160.817299 
L 131.723252 160.98664 
L 132.712527 154.917357 
L 133.701802 162.492135 
L 134.691077 155.924287 
L 135.680352 164.193783 
L 136.669627 160.146019 
L 137.658902 170.482599 
L 138.648177 171.52869 
L 139.637452 164.63715 
L 140.626727 164.642884 
L 141.616002 169.189575 
L 142.605277 170.787378 
L 143.594552 172.149436 
L 144.583827 169.868427 
L 145.573102 179.50468 
L 146.562377 177.097632 
L 147.551652 150.16089 
L 148.540927 172.669346 
L 149.530202 171.040514 
L 150.519477 176.185842 
L 151.508752 171.231714 
L 152.498027 165.533905 
L 153.487302 177.233865 
L 154.476577 178.051316 
L 155.465852 176.258181 
L 156.455127 178.158259 
L 157.444402 181.334329 
L 158.433677 162.76472 
L 159.422952 181.170401 
L 160.412227 168.962341 
L 161.401502 172.898265 
L 162.390777 173.293757 
L 163.380052 171.616739 
L 164.369327 169.357317 
L 165.358602 179.556347 
L 166.347877 175.670969 
L 167.337152 179.135646 
L 168.326427 185.151911 
L 169.315702 188.341623 
L 170.304977 163.193261 
L 171.294252 174.223327 
L 172.283527 187.353988 
L 173.272802 174.194972 
L 174.262077 183.760149 
L 175.251352 188.207496 
L 176.240627 181.641363 
L 177.229902 177.157522 
L 178.219177 185.260957 
L 179.208452 184.748149 
L 180.197727 188.675002 
L 181.187002 187.792876 
L 182.176277 181.957381 
L 183.165552 193.332336 
L 184.154827 192.089763 
L 185.144102 193.554316 
L 186.133377 189.906971 
L 187.122652 187.419044 
L 189.101202 191.012624 
L 190.090477 185.871137 
L 191.079752 190.376229 
L 192.069027 191.610441 
L 193.058302 189.883535 
L 194.047577 192.552614 
L 195.036852 185.991164 
L 196.026127 189.999377 
L 197.015402 190.337337 
L 198.004677 183.309328 
L 198.993952 177.186397 
L 199.983227 191.439127 
L 200.972502 192.222073 
L 201.961777 166.100009 
L 202.951052 191.90584 
L 203.940327 191.030362 
L 204.929602 193.520667 
L 205.918877 155.853755 
L 206.908152 194.437668 
L 207.897427 181.254036 
L 208.886702 196.87198 
L 209.875977 188.008564 
L 210.865252 182.214682 
L 211.854527 198.331098 
L 212.843802 193.106074 
L 213.833077 197.854309 
L 214.822352 194.638127 
L 215.811627 187.508634 
L 216.800902 194.226586 
L 217.790177 198.911779 
L 218.779452 189.275261 
L 219.768727 198.725938 
L 220.758002 193.430873 
L 221.747277 190.454096 
L 222.736552 196.763657 
L 223.725827 193.484439 
L 224.715102 198.689677 
L 225.704377 200.366978 
L 226.693652 194.773995 
L 227.682927 204.525867 
L 228.672202 199.396552 
L 229.661477 204.960354 
L 230.650752 199.054224 
L 231.640027 200.918917 
L 232.629302 198.266819 
L 233.618577 199.650032 
L 234.607852 204.714103 
L 235.597127 166.825951 
L 236.586402 197.713316 
L 237.575677 202.541032 
L 238.564952 195.817636 
L 239.554227 177.056219 
L 240.543502 201.211772 
L 241.532777 202.864801 
L 242.522052 204.187677 
L 243.511327 198.985207 
L 244.500602 163.634448 
L 245.489877 199.642235 
L 246.479152 204.723773 
L 247.468427 201.741122 
L 248.457702 201.549771 
L 249.446977 195.783576 
L 250.436252 197.32716 
L 251.425527 202.070424 
L 252.414802 202.383206 
L 253.404077 192.512913 
L 254.393352 203.849296 
L 255.382627 197.396539 
L 256.371902 197.43245 
L 257.361177 203.375163 
L 258.350452 205.400195 
L 259.339727 201.930781 
L 260.329002 205.615726 
L 261.318277 192.00282 
L 262.307552 206.447194 
L 263.296827 201.28379 
L 264.286102 205.437862 
L 265.275377 206.181947 
L 266.264652 205.055092 
L 267.253927 201.382382 
L 268.243202 207.300956 
L 269.232477 209.348304 
L 270.221752 202.923684 
L 271.211027 201.096066 
L 272.200302 201.537272 
L 273.189577 207.316891 
L 274.178852 205.162358 
L 275.168127 209.07501 
L 276.157402 199.193962 
L 277.146677 209.891201 
L 278.135952 206.449576 
L 279.125227 206.294412 
L 280.114502 206.820877 
L 281.103777 198.765851 
L 282.093052 203.012239 
L 283.082327 206.497461 
L 284.071602 200.436415 
L 285.060877 209.370611 
L 286.050152 204.380253 
L 287.039427 197.908797 
L 288.028702 203.499766 
L 289.017977 210.962988 
L 290.007252 208.188874 
L 290.996527 207.059134 
L 291.985802 204.459186 
L 292.975077 210.8854 
L 293.964352 203.511087 
L 294.953627 149.422679 
L 295.942902 208.561787 
L 296.932177 210.111193 
L 297.921452 203.388943 
L 298.910727 203.994317 
L 299.900002 186.983053 
L 300.889277 180.427752 
L 301.878552 206.383787 
L 302.867827 209.132907 
L 303.857102 204.772874 
L 304.846377 207.992468 
L 305.835652 193.270374 
L 306.824927 205.527952 
L 307.814202 207.32804 
L 308.803477 206.577531 
L 309.792752 207.432767 
L 310.782027 205.55547 
L 311.771302 206.594911 
L 312.760577 209.544517 
L 313.749852 199.762094 
L 314.739127 203.123282 
L 315.728402 209.192864 
L 316.717677 210.101095 
L 317.706952 200.424351 
L 318.696227 206.627525 
L 319.685502 207.328321 
L 320.674777 210.782028 
L 321.664052 207.490752 
L 322.653327 213.869907 
L 323.642602 214.105966 
L 324.631877 207.651751 
L 325.621152 205.60672 
L 326.610427 212.730672 
L 327.599702 206.717466 
L 328.588977 215.681872 
L 329.578252 209.615744 
L 330.567527 209.833746 
L 331.556802 205.837414 
L 332.546077 209.826763 
L 333.535352 211.569447 
L 334.524627 210.180479 
L 335.513902 210.660737 
L 336.503177 206.390519 
L 337.492452 205.185026 
L 338.481727 214.434111 
L 339.471002 209.383887 
L 340.460277 208.909799 
L 341.449552 209.141771 
L 342.438827 208.008762 
L 343.428102 207.913751 
L 344.417377 216.095912 
L 345.406652 200.219416 
L 346.395927 214.56288 
L 347.385202 197.165338 
L 348.374477 212.829621 
L 349.363752 214.246315 
L 350.353027 209.48464 
L 351.342302 211.474805 
L 352.331577 201.474969 
L 353.320852 209.195324 
L 354.310127 212.774106 
L 355.299402 213.486069 
L 356.288677 206.379939 
L 357.277952 200.938838 
L 358.267227 185.431478 
L 359.256502 205.42446 
L 360.245777 211.990701 
L 361.235052 204.08234 
L 362.224327 209.08427 
L 363.213602 216.340011 
L 364.202877 133.323638 
L 365.192152 212.304341 
L 366.181427 212.311458 
L 367.170702 160.16872 
L 368.159977 209.726721 
L 369.149252 210.047553 
L 370.138527 218.125381 
L 371.127802 212.548887 
L 372.117077 213.608144 
L 373.106352 177.647101 
L 374.095627 202.455141 
L 375.084902 211.213005 
L 376.074177 209.574965 
L 377.063452 212.227909 
L 378.052727 203.477228 
L 379.042002 210.475351 
L 380.031277 213.459492 
L 381.020552 215.645395 
L 382.009827 216.245216 
L 382.999102 210.617383 
L 383.988377 214.184696 
L 384.977652 212.353091 
L 385.966927 210.877675 
L 386.956202 216.79206 
L 387.945477 218.446406 
L 388.934752 196.217354 
L 389.924027 209.472251 
L 390.913302 214.507992 
L 391.902577 210.727339 
L 392.891852 210.596334 
L 393.881127 217.28954 
L 394.870402 209.764374 
L 395.859677 215.063855 
L 396.848952 197.144683 
L 397.838227 212.794703 
L 398.827502 175.093552 
L 399.816777 200.677706 
L 400.806052 213.941083 
L 401.795327 213.777217 
L 402.784602 192.3383 
L 403.773877 212.128799 
L 404.763152 214.157741 
L 405.752427 206.052027 
L 406.741702 213.863011 
L 407.730977 215.254792 
L 408.720252 214.990132 
L 409.709527 212.688807 
L 410.698802 216.098643 
L 411.688077 215.734652 
L 412.677352 214.777412 
L 413.666627 210.790422 
L 414.655902 212.529723 
L 415.645177 216.127019 
L 416.634452 216.853779 
L 417.623727 194.385041 
L 418.613002 217.669035 
L 419.602277 215.219571 
L 420.591552 213.951586 
L 421.580827 218.916266 
L 422.570102 177.352055 
L 423.559377 202.536342 
L 424.548652 213.585743 
L 425.537927 211.766599 
L 426.527202 218.730221 
L 427.516477 218.535331 
L 428.505752 213.606269 
L 428.505752 213.606269 
" clip-path="url(#p1a919ce904)" style="fill: none; stroke: #000000; stroke-width: 1.5; stroke-linecap: square"/>
   </g>
   <g id="line2d_17">
    <path d="M 72.276818 24.00272 
L 73.176159 23.826743 
L 74.0755 24.758082 
L 74.974841 27.01662 
L 75.874182 33.365828 
L 76.773523 43.416922 
L 77.672864 56.878254 
L 79.471545 74.352937 
L 80.370886 78.393988 
L 81.270227 86.165937 
L 82.169568 89.090385 
L 83.068909 91.346394 
L 83.96825 98.382141 
L 84.867591 100.820175 
L 85.766932 106.662123 
L 86.666273 108.894733 
L 88.464955 116.631635 
L 89.364295 120.876151 
L 90.263636 119.764709 
L 91.162977 125.798165 
L 92.961659 133.291698 
L 93.861 133.516936 
L 94.760341 138.166431 
L 95.659682 140.77978 
L 96.559023 146.859071 
L 97.458364 145.740432 
L 99.257045 149.274278 
L 100.156386 153.983903 
L 101.055727 159.974892 
L 101.955068 155.434187 
L 102.854409 160.732339 
L 103.75375 161.903463 
L 104.653091 166.758323 
L 105.552432 167.518439 
L 106.451773 166.456274 
L 107.351114 171.117661 
L 108.250455 170.889771 
L 109.149795 173.123532 
L 110.049136 174.355043 
L 110.948477 174.416397 
L 111.847818 178.772892 
L 112.747159 181.955805 
L 113.6465 179.912778 
L 114.545841 182.238308 
L 115.445182 183.19783 
L 116.344523 187.727352 
L 117.243864 190.228686 
L 118.143205 188.742829 
L 119.042545 190.788289 
L 119.941886 193.480156 
L 120.841227 193.786454 
L 121.740568 191.524033 
L 122.639909 191.824816 
L 123.53925 196.262031 
L 124.438591 197.576887 
L 125.337932 194.75949 
L 126.237273 197.992015 
L 127.136614 202.39065 
L 128.035955 204.18272 
L 129.834636 206.381954 
L 130.733977 205.503732 
L 131.633318 204.836554 
L 132.532659 210.797761 
L 133.432 213.133292 
L 134.331341 212.743132 
L 135.230682 207.345947 
L 136.130023 210.538799 
L 137.029364 211.552714 
L 137.928705 215.464506 
L 138.828045 220.037106 
L 139.727386 216.162894 
L 140.626727 219.978785 
L 141.526068 219.110599 
L 142.425409 226.03541 
L 143.32475 217.784434 
L 144.224091 221.098303 
L 145.123432 219.269832 
L 146.022773 222.219325 
L 146.922114 221.33938 
L 147.821455 224.04116 
L 148.720795 220.931171 
L 149.620136 225.059331 
L 150.519477 223.887822 
L 151.418818 224.326355 
L 152.318159 229.755541 
L 153.2175 227.240404 
L 154.116841 227.503844 
L 155.016182 229.549629 
L 155.915523 234.293081 
L 156.814864 229.022857 
L 157.714205 233.230661 
L 158.613545 236.645779 
L 159.512886 231.998365 
L 160.412227 233.595871 
L 161.311568 233.734427 
L 162.210909 234.770308 
L 163.11025 233.33279 
L 164.009591 236.346931 
L 164.908932 234.868935 
L 165.808273 241.375806 
L 166.707614 237.361444 
L 167.606955 241.543654 
L 168.506295 240.151215 
L 169.405636 241.871327 
L 170.304977 239.121592 
L 171.204318 239.747617 
L 172.103659 236.180023 
L 173.003 239.860281 
L 173.902341 236.992255 
L 174.801682 241.005312 
L 175.701023 243.715642 
L 176.600364 244.2576 
L 177.499705 243.811148 
L 178.399045 243.528988 
L 179.298386 243.39435 
L 180.197727 241.879592 
L 181.097068 248.107621 
L 181.996409 249.386035 
L 182.89575 242.85643 
L 183.795091 245.266724 
L 184.694432 244.373119 
L 185.593773 249.133366 
L 186.493114 252.295568 
L 187.392455 250.858891 
L 188.291795 246.167773 
L 189.191136 245.303905 
L 190.090477 245.303314 
L 190.989818 249.93392 
L 191.889159 253.21744 
L 192.7885 245.68623 
L 193.687841 249.210053 
L 194.587182 248.668849 
L 195.486523 251.27645 
L 196.385864 252.555348 
L 197.285205 246.235415 
L 199.083886 253.258847 
L 199.983227 250.092165 
L 200.882568 250.493867 
L 201.781909 249.299001 
L 202.68125 254.515508 
L 203.580591 252.611096 
L 204.479932 251.080404 
L 205.379273 250.1697 
L 206.278614 255.416431 
L 207.177955 250.639984 
L 208.077295 253.369579 
L 208.976636 252.86967 
L 209.875977 248.716405 
L 210.775318 255.98142 
L 211.674659 253.733685 
L 212.574 252.724083 
L 213.473341 257.903891 
L 214.372682 255.046279 
L 215.272023 252.781681 
L 216.171364 259.518291 
L 217.070705 249.983201 
L 217.970045 260.019696 
L 218.869386 257.552233 
L 219.768727 257.59061 
L 220.668068 256.278853 
L 221.567409 257.623462 
L 222.46675 261.264989 
L 223.366091 254.574109 
L 224.265432 258.201435 
L 225.164773 259.597587 
L 226.064114 256.772566 
L 226.963455 257.181433 
L 227.862795 260.0205 
L 228.762136 260.53739 
L 229.661477 257.412494 
L 230.560818 256.62004 
L 231.460159 263.406307 
L 232.3595 260.583943 
L 233.258841 259.215433 
L 234.158182 259.26038 
L 235.057523 258.683477 
L 235.956864 258.426338 
L 236.856205 256.654244 
L 237.755545 263.894152 
L 238.654886 262.073755 
L 239.554227 264.699012 
L 240.453568 261.947595 
L 241.352909 266.552206 
L 242.25225 259.768279 
L 243.151591 263.650033 
L 244.050932 264.286823 
L 244.950273 261.326946 
L 245.849614 261.891997 
L 246.748955 267.904166 
L 247.648295 264.244428 
L 248.547636 263.883344 
L 249.446977 265.354354 
L 250.346318 262.881456 
L 251.245659 266.042002 
L 252.145 263.168271 
L 253.044341 266.619435 
L 253.943682 265.680795 
L 254.843023 264.245793 
L 255.742364 270.120942 
L 256.641705 264.094895 
L 257.541045 258.933563 
L 258.440386 263.964242 
L 259.339727 268.18454 
L 260.239068 268.661404 
L 261.138409 266.731205 
L 262.03775 267.596714 
L 262.937091 266.568887 
L 263.836432 263.589354 
L 264.735773 267.195022 
L 265.635114 259.4757 
L 266.534455 266.134028 
L 267.433795 266.855691 
L 268.333136 266.886372 
L 269.232477 263.647762 
L 270.131818 265.945422 
L 271.031159 266.962754 
L 271.9305 267.171257 
L 272.829841 266.079387 
L 273.729182 266.834467 
L 274.628523 272.650376 
L 275.527864 267.666879 
L 276.427205 265.438102 
L 277.326545 269.208039 
L 278.225886 266.627297 
L 279.125227 265.78411 
L 280.024568 269.248441 
L 281.82325 265.254624 
L 282.722591 265.240702 
L 283.621932 270.240644 
L 284.521273 266.439881 
L 285.420614 266.73963 
L 286.319955 269.723989 
L 287.219295 270.57075 
L 288.118636 267.041938 
L 289.017977 275.116945 
L 289.917318 272.469849 
L 290.816659 275.357013 
L 291.716 268.579809 
L 292.615341 273.095355 
L 293.514682 271.980844 
L 294.414023 267.699482 
L 295.313364 264.170276 
L 296.212705 266.356857 
L 297.112045 270.217679 
L 298.011386 268.395887 
L 298.910727 276.382767 
L 299.810068 271.539034 
L 300.709409 269.709484 
L 301.60875 270.411181 
L 302.508091 268.579604 
L 303.407432 267.6878 
L 304.306773 271.565436 
L 305.206114 271.341578 
L 306.105455 269.610893 
L 307.004795 272.813198 
L 307.904136 274.152945 
L 308.803477 272.639768 
L 309.702818 275.511706 
L 310.602159 271.098816 
L 311.5015 268.190813 
L 312.400841 267.360261 
L 313.300182 273.975737 
L 314.199523 268.278411 
L 315.098864 267.914624 
L 315.998205 268.335003 
L 316.897545 269.702596 
L 317.796886 270.431236 
L 318.696227 272.179689 
L 319.595568 270.116943 
L 320.494909 270.5934 
L 321.39425 274.437379 
L 322.293591 269.770725 
L 323.192932 276.970657 
L 324.991614 270.005835 
L 325.890955 275.323177 
L 326.790295 267.727495 
L 327.689636 272.848357 
L 328.588977 274.279789 
L 329.488318 277.156679 
L 330.387659 276.207859 
L 331.287 270.069029 
L 332.186341 270.097978 
L 333.085682 276.115819 
L 333.985023 270.074847 
L 334.884364 276.123301 
L 335.783705 275.398024 
L 336.683045 275.206756 
L 337.582386 276.669959 
L 338.481727 268.140367 
L 339.381068 273.374366 
L 340.280409 270.794038 
L 341.17975 271.559962 
L 342.079091 272.695507 
L 342.978432 270.299179 
L 343.877773 276.751867 
L 344.777114 274.471117 
L 346.575795 272.668136 
L 348.374477 274.119574 
L 349.273818 269.241941 
L 350.173159 277.309917 
L 351.0725 274.945695 
L 351.971841 274.199956 
L 352.871182 273.872241 
L 353.770523 270.550283 
L 354.669864 275.107287 
L 355.569205 276.12599 
L 356.468545 274.712979 
L 357.367886 279.308431 
L 358.267227 273.730834 
L 359.166568 275.958884 
L 360.065909 275.728917 
L 360.96525 277.392428 
L 361.864591 273.539746 
L 362.763932 275.790154 
L 363.663273 272.001045 
L 364.562614 276.920697 
L 365.461955 274.31294 
L 366.361295 277.409045 
L 367.260636 273.508394 
L 368.159977 277.178918 
L 369.059318 276.596392 
L 369.958659 277.781838 
L 371.757341 276.363404 
L 372.656682 276.57117 
L 373.556023 273.659519 
L 374.455364 272.778636 
L 375.354705 275.442322 
L 376.254045 274.225382 
L 377.153386 278.917294 
L 378.052727 275.052947 
L 378.952068 275.461541 
L 379.851409 270.487901 
L 380.75075 276.948429 
L 381.650091 274.836797 
L 382.549432 277.633374 
L 383.448773 280.980245 
L 385.247455 274.304728 
L 386.146795 276.66931 
L 387.046136 273.236052 
L 387.945477 277.424123 
L 388.844818 284.143636 
L 389.744159 276.214845 
L 390.6435 275.956971 
L 391.542841 276.316492 
L 392.442182 277.76065 
L 393.341523 276.76074 
L 394.240864 272.00081 
L 395.140205 270.992483 
L 396.039545 275.482311 
L 396.938886 277.089299 
L 397.838227 277.402603 
L 398.737568 274.755112 
L 399.636909 277.484739 
L 400.53625 275.684176 
L 401.435591 275.660501 
L 402.334932 276.921973 
L 403.234273 278.987545 
L 404.133614 281.891098 
L 405.032955 279.905876 
L 405.932295 277.078807 
L 406.831636 274.985747 
L 407.730977 275.699952 
L 408.630318 274.989672 
L 409.529659 279.102173 
L 410.429 277.421932 
L 411.328341 275.9788 
L 412.227682 278.398822 
L 413.127023 279.542637 
L 414.026364 273.591939 
L 414.925705 277.965092 
L 415.825045 279.557962 
L 416.724386 278.007539 
L 417.623727 281.104288 
L 418.523068 273.864352 
L 419.422409 274.834079 
L 420.32175 277.73687 
L 421.221091 278.371906 
L 422.120432 281.288309 
L 423.019773 279.762271 
L 423.919114 275.00231 
L 424.818455 278.223002 
L 425.717795 278.740069 
L 426.617136 280.137545 
L 427.516477 280.578416 
L 428.415818 279.434716 
L 429.315159 279.148698 
L 430.2145 273.620717 
L 431.113841 279.429635 
L 432.013182 278.640858 
L 432.013182 278.640858 
" clip-path="url(#p1a919ce904)" style="fill: none; stroke: #ff0000; stroke-width: 1.5; stroke-linecap: square"/>
   </g>
   <g id="line2d_18">
    <path d="M 72.276818 23.94761 
L 73.176159 24.344108 
L 74.974841 24.286851 
L 77.672864 24.562437 
L 81.270227 24.846931 
L 82.169568 25.03019 
L 83.068909 25.027949 
L 83.96825 25.44244 
L 84.867591 25.316057 
L 86.666273 25.815712 
L 88.464955 25.719756 
L 89.364295 26.225339 
L 91.162977 27.066248 
L 92.062318 26.816016 
L 92.961659 27.272289 
L 94.760341 28.878476 
L 97.458364 28.828049 
L 98.357705 30.515813 
L 99.257045 31.832854 
L 100.156386 32.278487 
L 101.055727 32.864114 
L 101.955068 33.954503 
L 103.75375 36.84815 
L 105.552432 38.446558 
L 106.451773 39.76204 
L 107.351114 40.290547 
L 108.250455 41.329806 
L 109.149795 44.386474 
L 110.049136 44.558296 
L 110.948477 46.102684 
L 111.847818 47.934046 
L 112.747159 48.22133 
L 113.6465 50.113436 
L 114.545841 52.676315 
L 115.445182 53.717809 
L 116.344523 55.248722 
L 117.243864 56.126616 
L 118.143205 56.470618 
L 119.042545 59.996753 
L 119.941886 60.263314 
L 120.841227 61.045443 
L 122.639909 63.107797 
L 123.53925 60.609463 
L 124.438591 66.149612 
L 125.337932 65.733997 
L 126.237273 67.257579 
L 127.136614 69.687603 
L 128.035955 66.358005 
L 128.935295 69.032203 
L 129.834636 72.748347 
L 130.733977 74.372321 
L 131.633318 75.360259 
L 132.532659 73.660645 
L 133.432 74.365698 
L 134.331341 78.525479 
L 135.230682 76.764623 
L 136.130023 77.906163 
L 137.029364 78.518781 
L 137.928705 78.207012 
L 138.828045 80.582274 
L 139.727386 80.709103 
L 140.626727 82.663324 
L 141.526068 82.070766 
L 142.425409 80.058882 
L 143.32475 81.149514 
L 144.224091 86.167374 
L 145.123432 83.24046 
L 146.022773 86.871144 
L 146.922114 86.52657 
L 147.821455 85.194307 
L 148.720795 86.084691 
L 149.620136 86.348103 
L 150.519477 89.385088 
L 151.418818 88.899948 
L 152.318159 90.225931 
L 153.2175 88.557257 
L 154.116841 89.069588 
L 155.016182 88.90091 
L 155.915523 91.526199 
L 156.814864 89.096867 
L 157.714205 94.48523 
L 158.613545 91.931584 
L 159.512886 93.981601 
L 160.412227 94.135929 
L 161.311568 95.196609 
L 162.210909 95.175545 
L 163.11025 93.733288 
L 164.009591 94.384058 
L 164.908932 95.819635 
L 165.808273 95.773115 
L 166.707614 94.304279 
L 167.606955 97.522906 
L 168.506295 96.043453 
L 169.405636 98.742796 
L 170.304977 97.409114 
L 171.204318 98.390204 
L 172.103659 97.356023 
L 173.003 96.644046 
L 173.902341 106.360805 
L 174.801682 99.851629 
L 175.701023 101.872191 
L 176.600364 101.53552 
L 177.499705 101.664118 
L 178.399045 103.786232 
L 179.298386 102.337886 
L 181.097068 101.251091 
L 181.996409 107.503097 
L 182.89575 105.883039 
L 183.795091 104.653381 
L 184.694432 101.010019 
L 185.593773 106.205295 
L 186.493114 104.410963 
L 187.392455 106.588413 
L 188.291795 103.190412 
L 189.191136 106.701364 
L 190.090477 107.292196 
L 190.989818 109.669368 
L 191.889159 108.75723 
L 192.7885 106.070935 
L 193.687841 104.347932 
L 194.587182 111.496954 
L 195.486523 106.192792 
L 196.385864 107.008917 
L 197.285205 111.061451 
L 198.184545 111.036695 
L 199.083886 112.314277 
L 199.983227 106.620357 
L 200.882568 111.827189 
L 201.781909 112.337759 
L 202.68125 110.889013 
L 203.580591 112.520099 
L 204.479932 108.736794 
L 205.379273 112.538475 
L 206.278614 109.208398 
L 207.177955 116.23452 
L 208.077295 114.291776 
L 209.875977 116.100677 
L 210.775318 118.587217 
L 211.674659 117.170955 
L 212.574 116.354995 
L 213.473341 119.280478 
L 214.372682 116.358527 
L 215.272023 119.558179 
L 216.171364 117.999587 
L 217.070705 112.826105 
L 217.970045 118.50201 
L 218.869386 116.475329 
L 219.768727 113.474689 
L 220.668068 118.706223 
L 221.567409 122.312782 
L 222.46675 118.522289 
L 223.366091 116.553331 
L 224.265432 120.11912 
L 225.164773 120.858294 
L 226.064114 116.109949 
L 226.963455 119.721909 
L 227.862795 121.178996 
L 228.762136 118.889617 
L 229.661477 120.390787 
L 230.560818 118.302338 
L 231.460159 126.116414 
L 232.3595 121.219987 
L 233.258841 122.685959 
L 234.158182 122.168799 
L 235.057523 122.946272 
L 235.956864 122.919082 
L 236.856205 125.526142 
L 237.755545 123.693693 
L 238.654886 125.11071 
L 239.554227 121.777423 
L 240.453568 125.027933 
L 241.352909 123.421661 
L 243.151591 126.551093 
L 244.050932 121.040013 
L 244.950273 126.577252 
L 245.849614 126.580022 
L 246.748955 132.761224 
L 247.648295 126.060277 
L 248.547636 128.596362 
L 249.446977 126.469721 
L 250.346318 125.671849 
L 251.245659 125.28963 
L 252.145 128.363526 
L 253.044341 126.442928 
L 253.943682 130.208502 
L 254.843023 126.342566 
L 255.742364 128.28312 
L 256.641705 126.834967 
L 257.541045 135.325287 
L 258.440386 128.774232 
L 259.339727 131.653926 
L 260.239068 130.518072 
L 261.138409 130.891428 
L 262.03775 133.174864 
L 262.937091 132.28549 
L 263.836432 131.184032 
L 264.735773 132.134654 
L 265.635114 132.489092 
L 266.534455 133.754773 
L 267.433795 137.074651 
L 268.333136 136.593388 
L 269.232477 135.916571 
L 270.131818 132.556035 
L 271.031159 134.279968 
L 271.9305 133.709357 
L 272.829841 135.893065 
L 273.729182 138.596232 
L 274.628523 131.85631 
L 275.527864 135.380572 
L 276.427205 134.027165 
L 277.326545 132.361391 
L 278.225886 137.955179 
L 279.125227 135.679022 
L 280.024568 136.033097 
L 281.82325 132.372725 
L 282.722591 137.611883 
L 283.621932 139.932236 
L 284.521273 135.720215 
L 285.420614 134.569136 
L 286.319955 140.346309 
L 287.219295 135.934364 
L 288.118636 139.52393 
L 289.017977 140.207144 
L 289.917318 139.631359 
L 290.816659 137.330783 
L 291.716 137.987059 
L 292.615341 138.918739 
L 293.514682 142.535051 
L 294.414023 139.144396 
L 295.313364 144.691282 
L 296.212705 137.826744 
L 297.112045 136.704698 
L 298.011386 142.633512 
L 298.910727 144.28898 
L 299.810068 140.190473 
L 300.709409 141.592066 
L 301.60875 138.113118 
L 302.508091 137.525214 
L 303.407432 143.442865 
L 304.306773 144.046124 
L 305.206114 139.977061 
L 306.105455 141.14199 
L 307.004795 140.070015 
L 307.904136 142.704037 
L 308.803477 141.461765 
L 309.702818 141.840766 
L 310.602159 141.279243 
L 311.5015 145.171446 
L 312.400841 145.272171 
L 313.300182 144.91963 
L 315.098864 143.249601 
L 315.998205 141.664858 
L 316.897545 148.511396 
L 317.796886 148.686662 
L 318.696227 147.044014 
L 319.595568 144.307624 
L 320.494909 145.51684 
L 321.39425 147.407736 
L 322.293591 146.672796 
L 323.192932 144.447427 
L 324.092273 149.613835 
L 324.991614 148.799694 
L 325.890955 147.337593 
L 326.790295 151.753452 
L 327.689636 148.952729 
L 328.588977 147.745973 
L 329.488318 147.020564 
L 331.287 148.755369 
L 332.186341 147.947198 
L 333.085682 145.920363 
L 333.985023 150.218941 
L 334.884364 149.505106 
L 336.683045 150.138389 
L 337.582386 144.99202 
L 338.481727 151.923714 
L 339.381068 153.155275 
L 340.280409 153.13329 
L 341.17975 152.533757 
L 342.079091 149.943541 
L 342.978432 151.227157 
L 343.877773 151.31246 
L 344.777114 148.396717 
L 345.676455 151.534337 
L 346.575795 147.755545 
L 347.475136 152.297337 
L 348.374477 151.622354 
L 349.273818 150.743717 
L 350.173159 152.732748 
L 351.0725 151.305099 
L 351.971841 150.930232 
L 352.871182 152.632517 
L 353.770523 152.032711 
L 354.669864 150.353609 
L 355.569205 152.227638 
L 356.468545 150.99702 
L 357.367886 152.958404 
L 358.267227 152.841324 
L 359.166568 154.487647 
L 360.065909 151.157201 
L 360.96525 151.240729 
L 361.864591 155.141704 
L 362.763932 153.382591 
L 363.663273 153.606409 
L 364.562614 154.511203 
L 365.461955 157.135255 
L 366.361295 151.433123 
L 368.159977 157.830429 
L 369.059318 158.153042 
L 369.958659 156.324278 
L 370.858 156.522415 
L 371.757341 156.367388 
L 372.656682 153.206136 
L 373.556023 158.38483 
L 374.455364 156.806853 
L 375.354705 154.641936 
L 376.254045 154.372536 
L 377.153386 158.726157 
L 378.052727 155.26302 
L 378.952068 162.777757 
L 379.851409 157.412252 
L 380.75075 161.302028 
L 381.650091 156.854842 
L 382.549432 156.43646 
L 383.448773 157.089333 
L 384.348114 160.228947 
L 385.247455 160.707167 
L 386.146795 164.321702 
L 387.046136 160.115362 
L 387.945477 163.036604 
L 388.844818 158.132269 
L 389.744159 159.868862 
L 390.6435 164.032176 
L 391.542841 159.826709 
L 392.442182 162.547498 
L 394.240864 159.474218 
L 395.140205 158.710095 
L 396.039545 162.861949 
L 396.938886 168.57386 
L 397.838227 164.022718 
L 398.737568 157.764667 
L 399.636909 165.03824 
L 400.53625 164.387781 
L 401.435591 163.159775 
L 402.334932 160.528609 
L 403.234273 160.218054 
L 404.133614 160.664168 
L 405.032955 164.620302 
L 405.932295 163.365659 
L 406.831636 163.114972 
L 407.730977 160.464369 
L 408.630318 160.882411 
L 409.529659 162.358909 
L 410.429 161.852753 
L 411.328341 165.483861 
L 412.227682 163.783363 
L 413.127023 163.021153 
L 414.026364 160.848451 
L 414.925705 162.174362 
L 415.825045 166.882619 
L 416.724386 164.96002 
L 417.623727 167.370142 
L 418.523068 164.896441 
L 419.422409 163.589264 
L 420.32175 172.832732 
L 421.221091 164.557815 
L 422.120432 160.047146 
L 424.818455 166.79458 
L 425.717795 164.558964 
L 426.617136 168.652711 
L 427.516477 168.633377 
L 428.415818 165.942817 
L 429.315159 166.236696 
L 431.113841 168.045654 
L 432.013182 171.606252 
L 432.013182 171.606252 
" clip-path="url(#p1a919ce904)" style="fill: none; stroke: #ffa500; stroke-width: 1.5; stroke-linecap: square"/>
   </g>
   <g id="line2d_19">
    <path d="M 72.276818 24.117639 
L 73.176159 23.816364 
L 74.0755 24.242683 
L 74.974841 24.159537 
L 75.874182 24.249565 
L 77.672864 24.824963 
L 79.471545 24.653185 
L 81.270227 25.048056 
L 82.169568 25.047554 
L 83.96825 25.420181 
L 84.867591 25.256425 
L 85.766932 25.428339 
L 87.565614 26.155573 
L 88.464955 26.349467 
L 89.364295 26.735162 
L 90.263636 26.534639 
L 92.961659 27.800683 
L 94.760341 28.245935 
L 96.559023 29.319812 
L 97.458364 30.344748 
L 98.357705 30.831889 
L 99.257045 31.528545 
L 100.156386 31.956385 
L 102.854409 36.170531 
L 103.75375 37.166364 
L 104.653091 38.987447 
L 105.552432 41.271744 
L 106.451773 41.991895 
L 108.250455 46.052728 
L 109.149795 45.824822 
L 110.049136 49.344435 
L 110.948477 50.130646 
L 111.847818 49.735242 
L 112.747159 51.679523 
L 113.6465 52.123588 
L 114.545841 54.136018 
L 115.445182 55.657243 
L 116.344523 57.828831 
L 117.243864 58.759208 
L 118.143205 58.898158 
L 119.042545 61.050664 
L 119.941886 62.681594 
L 120.841227 63.39461 
L 121.740568 66.437226 
L 122.639909 67.649283 
L 123.53925 67.959705 
L 124.438591 69.062937 
L 125.337932 71.050061 
L 126.237273 69.977296 
L 127.136614 72.872831 
L 128.035955 74.024677 
L 128.935295 71.847628 
L 129.834636 74.194933 
L 130.733977 72.832772 
L 131.633318 75.791716 
L 132.532659 78.052474 
L 134.331341 75.119153 
L 135.230682 79.121005 
L 136.130023 81.442041 
L 137.029364 79.960654 
L 137.928705 77.634491 
L 138.828045 81.770896 
L 139.727386 82.437867 
L 140.626727 82.506663 
L 142.425409 81.094678 
L 143.32475 84.375898 
L 144.224091 82.006898 
L 145.123432 83.684097 
L 146.022773 85.801542 
L 146.922114 86.923182 
L 147.821455 86.960914 
L 148.720795 88.297666 
L 149.620136 85.32179 
L 150.519477 89.028626 
L 151.418818 87.43781 
L 152.318159 90.955504 
L 153.2175 89.031247 
L 154.116841 89.106691 
L 155.016182 94.70783 
L 155.915523 91.499542 
L 156.814864 92.515064 
L 157.714205 92.96943 
L 158.613545 94.252931 
L 159.512886 91.670522 
L 160.412227 93.789315 
L 161.311568 93.993189 
L 162.210909 97.411746 
L 163.11025 93.952652 
L 164.009591 92.836377 
L 165.808273 98.245439 
L 166.707614 98.18277 
L 167.606955 97.919242 
L 168.506295 99.938869 
L 169.405636 98.714101 
L 170.304977 96.404666 
L 171.204318 98.448588 
L 172.103659 99.656 
L 173.003 102.906124 
L 173.902341 101.101431 
L 174.801682 97.438198 
L 175.701023 99.897992 
L 176.600364 103.597935 
L 177.499705 103.101202 
L 178.399045 104.049633 
L 179.298386 102.364767 
L 180.197727 106.092239 
L 181.097068 103.54847 
L 181.996409 101.928989 
L 182.89575 107.812238 
L 183.795091 104.79267 
L 184.694432 108.187523 
L 185.593773 110.653079 
L 186.493114 106.084818 
L 187.392455 105.742794 
L 188.291795 111.290436 
L 189.191136 110.147568 
L 190.090477 109.488931 
L 190.989818 110.75452 
L 191.889159 107.859158 
L 192.7885 112.654832 
L 193.687841 107.459261 
L 194.587182 108.83995 
L 195.486523 108.763711 
L 196.385864 111.408105 
L 197.285205 113.539429 
L 198.184545 110.729347 
L 199.083886 111.987175 
L 199.983227 113.804651 
L 200.882568 112.938697 
L 201.781909 116.523315 
L 202.68125 113.155762 
L 203.580591 115.075704 
L 204.479932 112.889212 
L 205.379273 113.09704 
L 206.278614 114.687061 
L 207.177955 113.256455 
L 208.077295 115.51444 
L 208.976636 115.743176 
L 209.875977 119.356488 
L 210.775318 118.881143 
L 211.674659 119.177479 
L 212.574 117.42468 
L 213.473341 116.095506 
L 214.372682 119.258185 
L 215.272023 121.476397 
L 216.171364 115.453523 
L 217.970045 120.681104 
L 218.869386 124.504845 
L 219.768727 120.745244 
L 220.668068 125.489709 
L 221.567409 120.593724 
L 222.46675 123.481098 
L 223.366091 122.130646 
L 224.265432 123.216517 
L 225.164773 128.048088 
L 226.064114 122.614218 
L 226.963455 123.152266 
L 227.862795 127.405082 
L 228.762136 125.246001 
L 229.661477 123.90966 
L 230.560818 123.288391 
L 231.460159 124.1442 
L 232.3595 127.215389 
L 233.258841 125.142599 
L 234.158182 129.688377 
L 235.057523 129.868627 
L 235.956864 129.67022 
L 236.856205 126.230157 
L 237.755545 127.238405 
L 238.654886 127.582471 
L 239.554227 127.010242 
L 240.453568 125.599441 
L 241.352909 130.647118 
L 242.25225 132.282167 
L 243.151591 127.338429 
L 244.050932 130.378311 
L 244.950273 128.178781 
L 245.849614 132.886043 
L 246.748955 131.596703 
L 247.648295 132.14059 
L 248.547636 130.333207 
L 249.446977 130.562947 
L 250.346318 135.129423 
L 251.245659 132.15087 
L 252.145 130.925796 
L 253.044341 136.399522 
L 253.943682 132.070911 
L 254.843023 132.674724 
L 256.641705 132.578555 
L 257.541045 132.470175 
L 258.440386 136.59372 
L 259.339727 136.17602 
L 260.239068 138.143232 
L 261.138409 138.350302 
L 262.03775 137.023583 
L 262.937091 136.183914 
L 263.836432 138.441315 
L 264.735773 133.709429 
L 265.635114 138.423163 
L 266.534455 138.047814 
L 267.433795 134.68519 
L 268.333136 140.055345 
L 269.232477 136.899005 
L 270.131818 139.454032 
L 271.031159 138.86415 
L 271.9305 142.288167 
L 272.829841 142.287539 
L 273.729182 133.849501 
L 274.628523 139.803438 
L 275.527864 139.293421 
L 276.427205 141.820443 
L 277.326545 138.447796 
L 278.225886 141.321841 
L 279.125227 142.113867 
L 280.024568 139.556826 
L 280.923909 137.589323 
L 281.82325 142.741306 
L 282.722591 143.07957 
L 283.621932 144.412791 
L 285.420614 138.358255 
L 286.319955 143.740418 
L 287.219295 143.561793 
L 288.118636 140.315323 
L 289.017977 143.679728 
L 289.917318 142.187452 
L 290.816659 144.037247 
L 291.716 143.449356 
L 292.615341 142.359441 
L 293.514682 144.075654 
L 294.414023 144.230143 
L 295.313364 147.1507 
L 296.212705 148.043387 
L 297.112045 142.478911 
L 298.011386 145.206676 
L 298.910727 146.397317 
L 299.810068 149.232833 
L 300.709409 150.212813 
L 301.60875 146.744548 
L 302.508091 147.881916 
L 303.407432 150.823507 
L 304.306773 150.48231 
L 306.105455 145.350657 
L 307.004795 145.423873 
L 307.904136 149.173403 
L 308.803477 146.313007 
L 309.702818 147.250183 
L 310.602159 150.609318 
L 311.5015 150.580896 
L 312.400841 149.059198 
L 313.300182 144.021727 
L 314.199523 150.284288 
L 315.098864 146.064347 
L 315.998205 152.759244 
L 316.897545 148.534027 
L 317.796886 148.287119 
L 318.696227 150.328421 
L 319.595568 154.554094 
L 320.494909 154.961577 
L 321.39425 149.060884 
L 322.293591 153.518455 
L 323.192932 149.641586 
L 324.092273 149.578194 
L 324.991614 153.172177 
L 326.790295 155.351431 
L 327.689636 151.187979 
L 328.588977 151.606679 
L 329.488318 156.523931 
L 330.387659 154.32221 
L 331.287 155.280615 
L 332.186341 153.833654 
L 333.085682 156.729536 
L 333.985023 155.325964 
L 334.884364 158.250496 
L 335.783705 153.71856 
L 336.683045 153.858376 
L 337.582386 155.89226 
L 339.381068 156.820654 
L 340.280409 155.652595 
L 341.17975 151.081052 
L 342.079091 155.651635 
L 342.978432 152.646314 
L 343.877773 159.504348 
L 344.777114 155.353588 
L 345.676455 158.533698 
L 346.575795 159.447753 
L 347.475136 157.313816 
L 348.374477 157.962351 
L 349.273818 154.135697 
L 350.173159 160.960775 
L 351.0725 154.772951 
L 351.971841 155.237988 
L 352.871182 157.188357 
L 353.770523 157.324428 
L 354.669864 154.979222 
L 355.569205 160.459719 
L 356.468545 161.532097 
L 357.367886 158.173879 
L 358.267227 159.627249 
L 359.166568 160.390336 
L 360.065909 159.33544 
L 360.96525 160.501703 
L 361.864591 159.305636 
L 362.763932 162.151236 
L 363.663273 157.88898 
L 364.562614 164.042434 
L 365.461955 163.713729 
L 366.361295 165.274844 
L 367.260636 162.178529 
L 368.159977 161.77513 
L 369.059318 163.174861 
L 369.958659 164.272555 
L 370.858 165.01352 
L 371.757341 160.227613 
L 372.656682 165.488059 
L 373.556023 161.808503 
L 374.455364 159.714288 
L 375.354705 163.319858 
L 376.254045 162.157327 
L 377.153386 161.543558 
L 378.052727 164.745247 
L 378.952068 168.446508 
L 379.851409 161.932539 
L 380.75075 163.193702 
L 381.650091 163.210507 
L 382.549432 166.071904 
L 383.448773 166.5374 
L 384.348114 168.036279 
L 385.247455 165.778318 
L 386.146795 169.349787 
L 387.046136 169.495501 
L 387.945477 162.80414 
L 388.844818 162.689501 
L 389.744159 166.398091 
L 390.6435 165.546736 
L 391.542841 169.024473 
L 392.442182 165.438383 
L 393.341523 167.239137 
L 394.240864 170.048316 
L 395.140205 168.646425 
L 396.039545 169.919858 
L 396.938886 168.463866 
L 397.838227 170.574524 
L 398.737568 168.822443 
L 399.636909 169.914092 
L 400.53625 166.5723 
L 401.435591 167.077421 
L 402.334932 170.531841 
L 403.234273 166.500804 
L 404.133614 171.955279 
L 405.032955 168.469681 
L 405.932295 169.557464 
L 406.831636 170.994616 
L 407.730977 165.630086 
L 408.630318 173.957676 
L 409.529659 171.280909 
L 410.429 169.642831 
L 411.328341 169.770364 
L 412.227682 168.765551 
L 413.127023 170.123591 
L 414.026364 171.792047 
L 414.925705 170.305425 
L 415.825045 167.178141 
L 416.724386 170.443168 
L 417.623727 170.258555 
L 418.523068 174.720417 
L 419.422409 173.05705 
L 421.221091 171.012931 
L 422.120432 169.266365 
L 423.019773 171.63011 
L 423.919114 173.669729 
L 424.818455 174.344982 
L 425.717795 171.147132 
L 426.617136 172.993094 
L 427.516477 172.150204 
L 428.415818 176.599998 
L 429.315159 173.54591 
L 430.2145 171.265886 
L 431.113841 174.530013 
L 432.013182 174.040464 
L 432.013182 174.040464 
" clip-path="url(#p1a919ce904)" style="fill: none; stroke: #0000ff; stroke-width: 1.5; stroke-linecap: square"/>
   </g>
   <g id="patch_3">
    <path d="M 54.29 297.16 
L 54.29 10.8 
" style="fill: none; stroke: #000000; stroke-width: 0.8; stroke-linejoin: miter; stroke-linecap: square"/>
   </g>
   <g id="patch_4">
    <path d="M 450 297.16 
L 450 10.8 
" style="fill: none; stroke: #000000; stroke-width: 0.8; stroke-linejoin: miter; stroke-linecap: square"/>
   </g>
   <g id="patch_5">
    <path d="M 54.29 297.16 
L 450 297.16 
" style="fill: none; stroke: #000000; stroke-width: 0.8; stroke-linejoin: miter; stroke-linecap: square"/>
   </g>
   <g id="patch_6">
    <path d="M 54.29 10.8 
L 450 10.8 
" style="fill: none; stroke: #000000; stroke-width: 0.8; stroke-linejoin: miter; stroke-linecap: square"/>
   </g>
   <g id="legend_1">
    <g id="patch_7">
     <path d="M 303.09 117.54 
L 438.8 117.54 
Q 442 117.54 442 114.34 
L 442 22 
Q 442 18.8 438.8 18.8 
L 303.09 18.8 
Q 299.89 18.8 299.89 22 
L 299.89 114.34 
Q 299.89 117.54 303.09 117.54 
z
" style="fill: #ffffff; opacity: 0.8; stroke: #cccccc; stroke-linejoin: miter"/>
    </g>
    <g id="line2d_20">
     <path d="M 306.29 31.7575 
L 322.29 31.7575 
L 338.29 31.7575 
" style="fill: none; stroke: #000000; stroke-width: 1.5; stroke-linecap: square"/>
    </g>
    <g id="text_18">
     <!-- Scaffnew -->
     <g transform="translate(351.09 37.3575) scale(0.16 -0.16)">
      <defs>
       <path id="DejaVuSans-53" d="M 3425 4513 
L 3425 3897 
Q 3066 4069 2747 4153 
Q 2428 4238 2131 4238 
Q 1616 4238 1336 4038 
Q 1056 3838 1056 3469 
Q 1056 3159 1242 3001 
Q 1428 2844 1947 2747 
L 2328 2669 
Q 3034 2534 3370 2195 
Q 3706 1856 3706 1288 
Q 3706 609 3251 259 
Q 2797 -91 1919 -91 
Q 1588 -91 1214 -16 
Q 841 59 441 206 
L 441 856 
Q 825 641 1194 531 
Q 1563 422 1919 422 
Q 2459 422 2753 634 
Q 3047 847 3047 1241 
Q 3047 1584 2836 1778 
Q 2625 1972 2144 2069 
L 1759 2144 
Q 1053 2284 737 2584 
Q 422 2884 422 3419 
Q 422 4038 858 4394 
Q 1294 4750 2059 4750 
Q 2388 4750 2728 4690 
Q 3069 4631 3425 4513 
z
" transform="scale(0.015625)"/>
       <path id="DejaVuSans-66" d="M 2375 4863 
L 2375 4384 
L 1825 4384 
Q 1516 4384 1395 4259 
Q 1275 4134 1275 3809 
L 1275 3500 
L 2222 3500 
L 2222 3053 
L 1275 3053 
L 1275 0 
L 697 0 
L 697 3053 
L 147 3053 
L 147 3500 
L 697 3500 
L 697 3744 
Q 697 4328 969 4595 
Q 1241 4863 1831 4863 
L 2375 4863 
z
" transform="scale(0.015625)"/>
       <path id="DejaVuSans-65" d="M 3597 1894 
L 3597 1613 
L 953 1613 
Q 991 1019 1311 708 
Q 1631 397 2203 397 
Q 2534 397 2845 478 
Q 3156 559 3463 722 
L 3463 178 
Q 3153 47 2828 -22 
Q 2503 -91 2169 -91 
Q 1331 -91 842 396 
Q 353 884 353 1716 
Q 353 2575 817 3079 
Q 1281 3584 2069 3584 
Q 2775 3584 3186 3129 
Q 3597 2675 3597 1894 
z
M 3022 2063 
Q 3016 2534 2758 2815 
Q 2500 3097 2075 3097 
Q 1594 3097 1305 2825 
Q 1016 2553 972 2059 
L 3022 2063 
z
" transform="scale(0.015625)"/>
       <path id="DejaVuSans-77" d="M 269 3500 
L 844 3500 
L 1563 769 
L 2278 3500 
L 2956 3500 
L 3675 769 
L 4391 3500 
L 4966 3500 
L 4050 0 
L 3372 0 
L 2619 2869 
L 1863 0 
L 1184 0 
L 269 3500 
z
" transform="scale(0.015625)"/>
      </defs>
      <use xlink:href="#DejaVuSans-53"/>
      <use xlink:href="#DejaVuSans-63" x="63.476562"/>
      <use xlink:href="#DejaVuSans-61" x="118.457031"/>
      <use xlink:href="#DejaVuSans-66" x="179.736328"/>
      <use xlink:href="#DejaVuSans-66" x="214.941406"/>
      <use xlink:href="#DejaVuSans-6e" x="250.146484"/>
      <use xlink:href="#DejaVuSans-65" x="313.525391"/>
      <use xlink:href="#DejaVuSans-77" x="375.048828"/>
     </g>
    </g>
    <g id="line2d_21">
     <path d="M 306.29 55.2425 
L 322.29 55.2425 
L 338.29 55.2425 
" style="fill: none; stroke: #ff0000; stroke-width: 1.5; stroke-linecap: square"/>
    </g>
    <g id="text_19">
     <!-- Fedrcu -->
     <g transform="translate(351.09 60.8425) scale(0.16 -0.16)">
      <defs>
       <path id="DejaVuSans-46" d="M 628 4666 
L 3309 4666 
L 3309 4134 
L 1259 4134 
L 1259 2759 
L 3109 2759 
L 3109 2228 
L 1259 2228 
L 1259 0 
L 628 0 
L 628 4666 
z
" transform="scale(0.015625)"/>
       <path id="DejaVuSans-72" d="M 2631 2963 
Q 2534 3019 2420 3045 
Q 2306 3072 2169 3072 
Q 1681 3072 1420 2755 
Q 1159 2438 1159 1844 
L 1159 0 
L 581 0 
L 581 3500 
L 1159 3500 
L 1159 2956 
Q 1341 3275 1631 3429 
Q 1922 3584 2338 3584 
Q 2397 3584 2469 3576 
Q 2541 3569 2628 3553 
L 2631 2963 
z
" transform="scale(0.015625)"/>
      </defs>
      <use xlink:href="#DejaVuSans-46"/>
      <use xlink:href="#DejaVuSans-65" x="52.019531"/>
      <use xlink:href="#DejaVuSans-64" x="113.542969"/>
      <use xlink:href="#DejaVuSans-72" x="177.019531"/>
      <use xlink:href="#DejaVuSans-63" x="215.882812"/>
      <use xlink:href="#DejaVuSans-75" x="270.863281"/>
     </g>
    </g>
    <g id="line2d_22">
     <path d="M 306.29 78.7275 
L 322.29 78.7275 
L 338.29 78.7275 
" style="fill: none; stroke: #ffa500; stroke-width: 1.5; stroke-linecap: square"/>
    </g>
    <g id="text_20">
     <!-- SCAFFOLD -->
     <g transform="translate(351.09 84.3275) scale(0.16 -0.16)">
      <defs>
       <path id="DejaVuSans-41" d="M 2188 4044 
L 1331 1722 
L 3047 1722 
L 2188 4044 
z
M 1831 4666 
L 2547 4666 
L 4325 0 
L 3669 0 
L 3244 1197 
L 1141 1197 
L 716 0 
L 50 0 
L 1831 4666 
z
" transform="scale(0.015625)"/>
       <path id="DejaVuSans-4f" d="M 2522 4238 
Q 1834 4238 1429 3725 
Q 1025 3213 1025 2328 
Q 1025 1447 1429 934 
Q 1834 422 2522 422 
Q 3209 422 3611 934 
Q 4013 1447 4013 2328 
Q 4013 3213 3611 3725 
Q 3209 4238 2522 4238 
z
M 2522 4750 
Q 3503 4750 4090 4092 
Q 4678 3434 4678 2328 
Q 4678 1225 4090 567 
Q 3503 -91 2522 -91 
Q 1538 -91 948 565 
Q 359 1222 359 2328 
Q 359 3434 948 4092 
Q 1538 4750 2522 4750 
z
" transform="scale(0.015625)"/>
       <path id="DejaVuSans-44" d="M 1259 4147 
L 1259 519 
L 2022 519 
Q 2988 519 3436 956 
Q 3884 1394 3884 2338 
Q 3884 3275 3436 3711 
Q 2988 4147 2022 4147 
L 1259 4147 
z
M 628 4666 
L 1925 4666 
Q 3281 4666 3915 4102 
Q 4550 3538 4550 2338 
Q 4550 1131 3912 565 
Q 3275 0 1925 0 
L 628 0 
L 628 4666 
z
" transform="scale(0.015625)"/>
      </defs>
      <use xlink:href="#DejaVuSans-53"/>
      <use xlink:href="#DejaVuSans-43" x="63.476562"/>
      <use xlink:href="#DejaVuSans-41" x="133.300781"/>
      <use xlink:href="#DejaVuSans-46" x="201.708984"/>
      <use xlink:href="#DejaVuSans-46" x="259.228516"/>
      <use xlink:href="#DejaVuSans-4f" x="316.748047"/>
      <use xlink:href="#DejaVuSans-4c" x="395.458984"/>
      <use xlink:href="#DejaVuSans-44" x="451.171875"/>
     </g>
    </g>
    <g id="line2d_23">
     <path d="M 306.29 102.2125 
L 322.29 102.2125 
L 338.29 102.2125 
" style="fill: none; stroke: #0000ff; stroke-width: 1.5; stroke-linecap: square"/>
    </g>
    <g id="text_21">
     <!-- FedLin -->
     <g transform="translate(351.09 107.8125) scale(0.16 -0.16)">
      <use xlink:href="#DejaVuSans-46"/>
      <use xlink:href="#DejaVuSans-65" x="52.019531"/>
      <use xlink:href="#DejaVuSans-64" x="113.542969"/>
      <use xlink:href="#DejaVuSans-4c" x="177.019531"/>
      <use xlink:href="#DejaVuSans-69" x="232.732422"/>
      <use xlink:href="#DejaVuSans-6e" x="260.515625"/>
     </g>
    </g>
   </g>
  </g>
 </g>
 <defs>
  <clipPath id="p1a919ce904">
   <rect x="54.29" y="10.8" width="395.71" height="286.36"/>
  </clipPath>
 </defs>
</svg>
