<?xml version="1.0" encoding="utf-8" standalone="no"?>
<!DOCTYPE svg PUBLIC "-//W3C//DTD SVG 1.1//EN"
  "http://www.w3.org/Graphics/SVG/1.1/DTD/svg11.dtd">
<svg xmlns:xlink="http://www.w3.org/1999/xlink" width="460.8pt" height="345.6pt" viewBox="0 0 460.8 345.6" xmlns="http://www.w3.org/2000/svg" version="1.1">
 <metadata>
  <rdf:RDF xmlns:dc="http://purl.org/dc/elements/1.1/" xmlns:cc="http://creativecommons.org/ns#" xmlns:rdf="http://www.w3.org/1999/02/22-rdf-syntax-ns#">
   <cc:Work>
    <dc:type rdf:resource="http://purl.org/dc/dcmitype/StillImage"/>
    <dc:date>2025-09-23T20:50:24.059620</dc:date>
    <dc:format>image/svg+xml</dc:format>
    <dc:creator>
     <cc:Agent>
      <dc:title>Matplotlib v3.8.4, https://matplotlib.org/</dc:title>
     </cc:Agent>
    </dc:creator>
   </cc:Work>
  </rdf:RDF>
 </metadata>
 <defs>
  <style type="text/css">*{stroke-linejoin: round; stroke-linecap: butt}</style>
 </defs>
 <g id="figure_1">
  <g id="patch_1">
   <path d="M 0 345.6 
L 460.8 345.6 
L 460.8 0 
L 0 0 
z
" style="fill: #ffffff"/>
  </g>
  <g id="axes_1">
   <g id="patch_2">
    <path d="M 54.29 297.16 
L 450 297.16 
L 450 10.8 
L 54.29 10.8 
z
" style="fill: #ffffff"/>
   </g>
   <g id="matplotlib.axis_1">
    <g id="xtick_1">
     <g id="line2d_1">
      <defs>
       <path id="m1242bae31a" d="M 0 0 
L 0 3.5 
" style="stroke: #000000; stroke-width: 0.8"/>
      </defs>
      <g>
       <use xlink:href="#m1242bae31a" x="71.377477" y="297.16" style="stroke: #000000; stroke-width: 0.8"/>
      </g>
     </g>
     <g id="text_1">
      <!-- 0 -->
      <g transform="translate(68.196227 311.758438) scale(0.1 -0.1)">
       <defs>
        <path id="DejaVuSans-30" d="M 2034 4250 
Q 1547 4250 1301 3770 
Q 1056 3291 1056 2328 
Q 1056 1369 1301 889 
Q 1547 409 2034 409 
Q 2525 409 2770 889 
Q 3016 1369 3016 2328 
Q 3016 3291 2770 3770 
Q 2525 4250 2034 4250 
z
M 2034 4750 
Q 2819 4750 3233 4129 
Q 3647 3509 3647 2328 
Q 3647 1150 3233 529 
Q 2819 -91 2034 -91 
Q 1250 -91 836 529 
Q 422 1150 422 2328 
Q 422 3509 836 4129 
Q 1250 4750 2034 4750 
z
" transform="scale(0.015625)"/>
       </defs>
       <use xlink:href="#DejaVuSans-30"/>
      </g>
     </g>
    </g>
    <g id="xtick_2">
     <g id="line2d_2">
      <g>
       <use xlink:href="#m1242bae31a" x="116.344523" y="297.16" style="stroke: #000000; stroke-width: 0.8"/>
      </g>
     </g>
     <g id="text_2">
      <!-- 500 -->
      <g transform="translate(106.800773 311.758438) scale(0.1 -0.1)">
       <defs>
        <path id="DejaVuSans-35" d="M 691 4666 
L 3169 4666 
L 3169 4134 
L 1269 4134 
L 1269 2991 
Q 1406 3038 1543 3061 
Q 1681 3084 1819 3084 
Q 2600 3084 3056 2656 
Q 3513 2228 3513 1497 
Q 3513 744 3044 326 
Q 2575 -91 1722 -91 
Q 1428 -91 1123 -41 
Q 819 9 494 109 
L 494 744 
Q 775 591 1075 516 
Q 1375 441 1709 441 
Q 2250 441 2565 725 
Q 2881 1009 2881 1497 
Q 2881 1984 2565 2268 
Q 2250 2553 1709 2553 
Q 1456 2553 1204 2497 
Q 953 2441 691 2322 
L 691 4666 
z
" transform="scale(0.015625)"/>
       </defs>
       <use xlink:href="#DejaVuSans-35"/>
       <use xlink:href="#DejaVuSans-30" x="63.623047"/>
       <use xlink:href="#DejaVuSans-30" x="127.246094"/>
      </g>
     </g>
    </g>
    <g id="xtick_3">
     <g id="line2d_3">
      <g>
       <use xlink:href="#m1242bae31a" x="161.311568" y="297.16" style="stroke: #000000; stroke-width: 0.8"/>
      </g>
     </g>
     <g id="text_3">
      <!-- 1000 -->
      <g transform="translate(148.586568 311.758438) scale(0.1 -0.1)">
       <defs>
        <path id="DejaVuSans-31" d="M 794 531 
L 1825 531 
L 1825 4091 
L 703 3866 
L 703 4441 
L 1819 4666 
L 2450 4666 
L 2450 531 
L 3481 531 
L 3481 0 
L 794 0 
L 794 531 
z
" transform="scale(0.015625)"/>
       </defs>
       <use xlink:href="#DejaVuSans-31"/>
       <use xlink:href="#DejaVuSans-30" x="63.623047"/>
       <use xlink:href="#DejaVuSans-30" x="127.246094"/>
       <use xlink:href="#DejaVuSans-30" x="190.869141"/>
      </g>
     </g>
    </g>
    <g id="xtick_4">
     <g id="line2d_4">
      <g>
       <use xlink:href="#m1242bae31a" x="206.278614" y="297.16" style="stroke: #000000; stroke-width: 0.8"/>
      </g>
     </g>
     <g id="text_4">
      <!-- 1500 -->
      <g transform="translate(193.553614 311.758438) scale(0.1 -0.1)">
       <use xlink:href="#DejaVuSans-31"/>
       <use xlink:href="#DejaVuSans-35" x="63.623047"/>
       <use xlink:href="#DejaVuSans-30" x="127.246094"/>
       <use xlink:href="#DejaVuSans-30" x="190.869141"/>
      </g>
     </g>
    </g>
    <g id="xtick_5">
     <g id="line2d_5">
      <g>
       <use xlink:href="#m1242bae31a" x="251.245659" y="297.16" style="stroke: #000000; stroke-width: 0.8"/>
      </g>
     </g>
     <g id="text_5">
      <!-- 2000 -->
      <g transform="translate(238.520659 311.758438) scale(0.1 -0.1)">
       <defs>
        <path id="DejaVuSans-32" d="M 1228 531 
L 3431 531 
L 3431 0 
L 469 0 
L 469 531 
Q 828 903 1448 1529 
Q 2069 2156 2228 2338 
Q 2531 2678 2651 2914 
Q 2772 3150 2772 3378 
Q 2772 3750 2511 3984 
Q 2250 4219 1831 4219 
Q 1534 4219 1204 4116 
Q 875 4013 500 3803 
L 500 4441 
Q 881 4594 1212 4672 
Q 1544 4750 1819 4750 
Q 2544 4750 2975 4387 
Q 3406 4025 3406 3419 
Q 3406 3131 3298 2873 
Q 3191 2616 2906 2266 
Q 2828 2175 2409 1742 
Q 1991 1309 1228 531 
z
" transform="scale(0.015625)"/>
       </defs>
       <use xlink:href="#DejaVuSans-32"/>
       <use xlink:href="#DejaVuSans-30" x="63.623047"/>
       <use xlink:href="#DejaVuSans-30" x="127.246094"/>
       <use xlink:href="#DejaVuSans-30" x="190.869141"/>
      </g>
     </g>
    </g>
    <g id="xtick_6">
     <g id="line2d_6">
      <g>
       <use xlink:href="#m1242bae31a" x="296.212705" y="297.16" style="stroke: #000000; stroke-width: 0.8"/>
      </g>
     </g>
     <g id="text_6">
      <!-- 2500 -->
      <g transform="translate(283.487705 311.758438) scale(0.1 -0.1)">
       <use xlink:href="#DejaVuSans-32"/>
       <use xlink:href="#DejaVuSans-35" x="63.623047"/>
       <use xlink:href="#DejaVuSans-30" x="127.246094"/>
       <use xlink:href="#DejaVuSans-30" x="190.869141"/>
      </g>
     </g>
    </g>
    <g id="xtick_7">
     <g id="line2d_7">
      <g>
       <use xlink:href="#m1242bae31a" x="341.17975" y="297.16" style="stroke: #000000; stroke-width: 0.8"/>
      </g>
     </g>
     <g id="text_7">
      <!-- 3000 -->
      <g transform="translate(328.45475 311.758438) scale(0.1 -0.1)">
       <defs>
        <path id="DejaVuSans-33" d="M 2597 2516 
Q 3050 2419 3304 2112 
Q 3559 1806 3559 1356 
Q 3559 666 3084 287 
Q 2609 -91 1734 -91 
Q 1441 -91 1130 -33 
Q 819 25 488 141 
L 488 750 
Q 750 597 1062 519 
Q 1375 441 1716 441 
Q 2309 441 2620 675 
Q 2931 909 2931 1356 
Q 2931 1769 2642 2001 
Q 2353 2234 1838 2234 
L 1294 2234 
L 1294 2753 
L 1863 2753 
Q 2328 2753 2575 2939 
Q 2822 3125 2822 3475 
Q 2822 3834 2567 4026 
Q 2313 4219 1838 4219 
Q 1578 4219 1281 4162 
Q 984 4106 628 3988 
L 628 4550 
Q 988 4650 1302 4700 
Q 1616 4750 1894 4750 
Q 2613 4750 3031 4423 
Q 3450 4097 3450 3541 
Q 3450 3153 3228 2886 
Q 3006 2619 2597 2516 
z
" transform="scale(0.015625)"/>
       </defs>
       <use xlink:href="#DejaVuSans-33"/>
       <use xlink:href="#DejaVuSans-30" x="63.623047"/>
       <use xlink:href="#DejaVuSans-30" x="127.246094"/>
       <use xlink:href="#DejaVuSans-30" x="190.869141"/>
      </g>
     </g>
    </g>
    <g id="xtick_8">
     <g id="line2d_8">
      <g>
       <use xlink:href="#m1242bae31a" x="386.146795" y="297.16" style="stroke: #000000; stroke-width: 0.8"/>
      </g>
     </g>
     <g id="text_8">
      <!-- 3500 -->
      <g transform="translate(373.421795 311.758438) scale(0.1 -0.1)">
       <use xlink:href="#DejaVuSans-33"/>
       <use xlink:href="#DejaVuSans-35" x="63.623047"/>
       <use xlink:href="#DejaVuSans-30" x="127.246094"/>
       <use xlink:href="#DejaVuSans-30" x="190.869141"/>
      </g>
     </g>
    </g>
    <g id="xtick_9">
     <g id="line2d_9">
      <g>
       <use xlink:href="#m1242bae31a" x="431.113841" y="297.16" style="stroke: #000000; stroke-width: 0.8"/>
      </g>
     </g>
     <g id="text_9">
      <!-- 4000 -->
      <g transform="translate(418.388841 311.758438) scale(0.1 -0.1)">
       <defs>
        <path id="DejaVuSans-34" d="M 2419 4116 
L 825 1625 
L 2419 1625 
L 2419 4116 
z
M 2253 4666 
L 3047 4666 
L 3047 1625 
L 3713 1625 
L 3713 1100 
L 3047 1100 
L 3047 0 
L 2419 0 
L 2419 1100 
L 313 1100 
L 313 1709 
L 2253 4666 
z
" transform="scale(0.015625)"/>
       </defs>
       <use xlink:href="#DejaVuSans-34"/>
       <use xlink:href="#DejaVuSans-30" x="63.623047"/>
       <use xlink:href="#DejaVuSans-30" x="127.246094"/>
       <use xlink:href="#DejaVuSans-30" x="190.869141"/>
      </g>
     </g>
    </g>
    <g id="text_10">
     <!-- Communication Rounds -->
     <g transform="translate(157.06875 329.995625) scale(0.16 -0.16)">
      <defs>
       <path id="DejaVuSans-43" d="M 4122 4306 
L 4122 3641 
Q 3803 3938 3442 4084 
Q 3081 4231 2675 4231 
Q 1875 4231 1450 3742 
Q 1025 3253 1025 2328 
Q 1025 1406 1450 917 
Q 1875 428 2675 428 
Q 3081 428 3442 575 
Q 3803 722 4122 1019 
L 4122 359 
Q 3791 134 3420 21 
Q 3050 -91 2638 -91 
Q 1578 -91 968 557 
Q 359 1206 359 2328 
Q 359 3453 968 4101 
Q 1578 4750 2638 4750 
Q 3056 4750 3426 4639 
Q 3797 4528 4122 4306 
z
" transform="scale(0.015625)"/>
       <path id="DejaVuSans-6f" d="M 1959 3097 
Q 1497 3097 1228 2736 
Q 959 2375 959 1747 
Q 959 1119 1226 758 
Q 1494 397 1959 397 
Q 2419 397 2687 759 
Q 2956 1122 2956 1747 
Q 2956 2369 2687 2733 
Q 2419 3097 1959 3097 
z
M 1959 3584 
Q 2709 3584 3137 3096 
Q 3566 2609 3566 1747 
Q 3566 888 3137 398 
Q 2709 -91 1959 -91 
Q 1206 -91 779 398 
Q 353 888 353 1747 
Q 353 2609 779 3096 
Q 1206 3584 1959 3584 
z
" transform="scale(0.015625)"/>
       <path id="DejaVuSans-6d" d="M 3328 2828 
Q 3544 3216 3844 3400 
Q 4144 3584 4550 3584 
Q 5097 3584 5394 3201 
Q 5691 2819 5691 2113 
L 5691 0 
L 5113 0 
L 5113 2094 
Q 5113 2597 4934 2840 
Q 4756 3084 4391 3084 
Q 3944 3084 3684 2787 
Q 3425 2491 3425 1978 
L 3425 0 
L 2847 0 
L 2847 2094 
Q 2847 2600 2669 2842 
Q 2491 3084 2119 3084 
Q 1678 3084 1418 2786 
Q 1159 2488 1159 1978 
L 1159 0 
L 581 0 
L 581 3500 
L 1159 3500 
L 1159 2956 
Q 1356 3278 1631 3431 
Q 1906 3584 2284 3584 
Q 2666 3584 2933 3390 
Q 3200 3197 3328 2828 
z
" transform="scale(0.015625)"/>
       <path id="DejaVuSans-75" d="M 544 1381 
L 544 3500 
L 1119 3500 
L 1119 1403 
Q 1119 906 1312 657 
Q 1506 409 1894 409 
Q 2359 409 2629 706 
Q 2900 1003 2900 1516 
L 2900 3500 
L 3475 3500 
L 3475 0 
L 2900 0 
L 2900 538 
Q 2691 219 2414 64 
Q 2138 -91 1772 -91 
Q 1169 -91 856 284 
Q 544 659 544 1381 
z
M 1991 3584 
L 1991 3584 
z
" transform="scale(0.015625)"/>
       <path id="DejaVuSans-6e" d="M 3513 2113 
L 3513 0 
L 2938 0 
L 2938 2094 
Q 2938 2591 2744 2837 
Q 2550 3084 2163 3084 
Q 1697 3084 1428 2787 
Q 1159 2491 1159 1978 
L 1159 0 
L 581 0 
L 581 3500 
L 1159 3500 
L 1159 2956 
Q 1366 3272 1645 3428 
Q 1925 3584 2291 3584 
Q 2894 3584 3203 3211 
Q 3513 2838 3513 2113 
z
" transform="scale(0.015625)"/>
       <path id="DejaVuSans-69" d="M 603 3500 
L 1178 3500 
L 1178 0 
L 603 0 
L 603 3500 
z
M 603 4863 
L 1178 4863 
L 1178 4134 
L 603 4134 
L 603 4863 
z
" transform="scale(0.015625)"/>
       <path id="DejaVuSans-63" d="M 3122 3366 
L 3122 2828 
Q 2878 2963 2633 3030 
Q 2388 3097 2138 3097 
Q 1578 3097 1268 2742 
Q 959 2388 959 1747 
Q 959 1106 1268 751 
Q 1578 397 2138 397 
Q 2388 397 2633 464 
Q 2878 531 3122 666 
L 3122 134 
Q 2881 22 2623 -34 
Q 2366 -91 2075 -91 
Q 1284 -91 818 406 
Q 353 903 353 1747 
Q 353 2603 823 3093 
Q 1294 3584 2113 3584 
Q 2378 3584 2631 3529 
Q 2884 3475 3122 3366 
z
" transform="scale(0.015625)"/>
       <path id="DejaVuSans-61" d="M 2194 1759 
Q 1497 1759 1228 1600 
Q 959 1441 959 1056 
Q 959 750 1161 570 
Q 1363 391 1709 391 
Q 2188 391 2477 730 
Q 2766 1069 2766 1631 
L 2766 1759 
L 2194 1759 
z
M 3341 1997 
L 3341 0 
L 2766 0 
L 2766 531 
Q 2569 213 2275 61 
Q 1981 -91 1556 -91 
Q 1019 -91 701 211 
Q 384 513 384 1019 
Q 384 1609 779 1909 
Q 1175 2209 1959 2209 
L 2766 2209 
L 2766 2266 
Q 2766 2663 2505 2880 
Q 2244 3097 1772 3097 
Q 1472 3097 1187 3025 
Q 903 2953 641 2809 
L 641 3341 
Q 956 3463 1253 3523 
Q 1550 3584 1831 3584 
Q 2591 3584 2966 3190 
Q 3341 2797 3341 1997 
z
" transform="scale(0.015625)"/>
       <path id="DejaVuSans-74" d="M 1172 4494 
L 1172 3500 
L 2356 3500 
L 2356 3053 
L 1172 3053 
L 1172 1153 
Q 1172 725 1289 603 
Q 1406 481 1766 481 
L 2356 481 
L 2356 0 
L 1766 0 
Q 1100 0 847 248 
Q 594 497 594 1153 
L 594 3053 
L 172 3053 
L 172 3500 
L 594 3500 
L 594 4494 
L 1172 4494 
z
" transform="scale(0.015625)"/>
       <path id="DejaVuSans-20" transform="scale(0.015625)"/>
       <path id="DejaVuSans-52" d="M 2841 2188 
Q 3044 2119 3236 1894 
Q 3428 1669 3622 1275 
L 4263 0 
L 3584 0 
L 2988 1197 
Q 2756 1666 2539 1819 
Q 2322 1972 1947 1972 
L 1259 1972 
L 1259 0 
L 628 0 
L 628 4666 
L 2053 4666 
Q 2853 4666 3247 4331 
Q 3641 3997 3641 3322 
Q 3641 2881 3436 2590 
Q 3231 2300 2841 2188 
z
M 1259 4147 
L 1259 2491 
L 2053 2491 
Q 2509 2491 2742 2702 
Q 2975 2913 2975 3322 
Q 2975 3731 2742 3939 
Q 2509 4147 2053 4147 
L 1259 4147 
z
" transform="scale(0.015625)"/>
       <path id="DejaVuSans-64" d="M 2906 2969 
L 2906 4863 
L 3481 4863 
L 3481 0 
L 2906 0 
L 2906 525 
Q 2725 213 2448 61 
Q 2172 -91 1784 -91 
Q 1150 -91 751 415 
Q 353 922 353 1747 
Q 353 2572 751 3078 
Q 1150 3584 1784 3584 
Q 2172 3584 2448 3432 
Q 2725 3281 2906 2969 
z
M 947 1747 
Q 947 1113 1208 752 
Q 1469 391 1925 391 
Q 2381 391 2643 752 
Q 2906 1113 2906 1747 
Q 2906 2381 2643 2742 
Q 2381 3103 1925 3103 
Q 1469 3103 1208 2742 
Q 947 2381 947 1747 
z
" transform="scale(0.015625)"/>
       <path id="DejaVuSans-73" d="M 2834 3397 
L 2834 2853 
Q 2591 2978 2328 3040 
Q 2066 3103 1784 3103 
Q 1356 3103 1142 2972 
Q 928 2841 928 2578 
Q 928 2378 1081 2264 
Q 1234 2150 1697 2047 
L 1894 2003 
Q 2506 1872 2764 1633 
Q 3022 1394 3022 966 
Q 3022 478 2636 193 
Q 2250 -91 1575 -91 
Q 1294 -91 989 -36 
Q 684 19 347 128 
L 347 722 
Q 666 556 975 473 
Q 1284 391 1588 391 
Q 1994 391 2212 530 
Q 2431 669 2431 922 
Q 2431 1156 2273 1281 
Q 2116 1406 1581 1522 
L 1381 1569 
Q 847 1681 609 1914 
Q 372 2147 372 2553 
Q 372 3047 722 3315 
Q 1072 3584 1716 3584 
Q 2034 3584 2315 3537 
Q 2597 3491 2834 3397 
z
" transform="scale(0.015625)"/>
      </defs>
      <use xlink:href="#DejaVuSans-43"/>
      <use xlink:href="#DejaVuSans-6f" x="69.824219"/>
      <use xlink:href="#DejaVuSans-6d" x="131.005859"/>
      <use xlink:href="#DejaVuSans-6d" x="228.417969"/>
      <use xlink:href="#DejaVuSans-75" x="325.830078"/>
      <use xlink:href="#DejaVuSans-6e" x="389.208984"/>
      <use xlink:href="#DejaVuSans-69" x="452.587891"/>
      <use xlink:href="#DejaVuSans-63" x="480.371094"/>
      <use xlink:href="#DejaVuSans-61" x="535.351562"/>
      <use xlink:href="#DejaVuSans-74" x="596.630859"/>
      <use xlink:href="#DejaVuSans-69" x="635.839844"/>
      <use xlink:href="#DejaVuSans-6f" x="663.623047"/>
      <use xlink:href="#DejaVuSans-6e" x="724.804688"/>
      <use xlink:href="#DejaVuSans-20" x="788.183594"/>
      <use xlink:href="#DejaVuSans-52" x="819.970703"/>
      <use xlink:href="#DejaVuSans-6f" x="884.953125"/>
      <use xlink:href="#DejaVuSans-75" x="946.134766"/>
      <use xlink:href="#DejaVuSans-6e" x="1009.513672"/>
      <use xlink:href="#DejaVuSans-64" x="1072.892578"/>
      <use xlink:href="#DejaVuSans-73" x="1136.369141"/>
     </g>
    </g>
   </g>
   <g id="matplotlib.axis_2">
    <g id="ytick_1">
     <g id="line2d_10">
      <defs>
       <path id="m6959f1693e" d="M 0 0 
L -3.5 0 
" style="stroke: #000000; stroke-width: 0.8"/>
      </defs>
      <g>
       <use xlink:href="#m6959f1693e" x="54.29" y="291.274905" style="stroke: #000000; stroke-width: 0.8"/>
      </g>
     </g>
     <g id="text_11">
      <!-- 2.0 -->
      <g transform="translate(31.386875 295.074124) scale(0.1 -0.1)">
       <defs>
        <path id="DejaVuSans-2e" d="M 684 794 
L 1344 794 
L 1344 0 
L 684 0 
L 684 794 
z
" transform="scale(0.015625)"/>
       </defs>
       <use xlink:href="#DejaVuSans-32"/>
       <use xlink:href="#DejaVuSans-2e" x="63.623047"/>
       <use xlink:href="#DejaVuSans-30" x="95.410156"/>
      </g>
     </g>
    </g>
    <g id="ytick_2">
     <g id="line2d_11">
      <g>
       <use xlink:href="#m6959f1693e" x="54.29" y="240.007751" style="stroke: #000000; stroke-width: 0.8"/>
      </g>
     </g>
     <g id="text_12">
      <!-- 2.5 -->
      <g transform="translate(31.386875 243.80697) scale(0.1 -0.1)">
       <use xlink:href="#DejaVuSans-32"/>
       <use xlink:href="#DejaVuSans-2e" x="63.623047"/>
       <use xlink:href="#DejaVuSans-35" x="95.410156"/>
      </g>
     </g>
    </g>
    <g id="ytick_3">
     <g id="line2d_12">
      <g>
       <use xlink:href="#m6959f1693e" x="54.29" y="188.740598" style="stroke: #000000; stroke-width: 0.8"/>
      </g>
     </g>
     <g id="text_13">
      <!-- 3.0 -->
      <g transform="translate(31.386875 192.539817) scale(0.1 -0.1)">
       <use xlink:href="#DejaVuSans-33"/>
       <use xlink:href="#DejaVuSans-2e" x="63.623047"/>
       <use xlink:href="#DejaVuSans-30" x="95.410156"/>
      </g>
     </g>
    </g>
    <g id="ytick_4">
     <g id="line2d_13">
      <g>
       <use xlink:href="#m6959f1693e" x="54.29" y="137.473444" style="stroke: #000000; stroke-width: 0.8"/>
      </g>
     </g>
     <g id="text_14">
      <!-- 3.5 -->
      <g transform="translate(31.386875 141.272663) scale(0.1 -0.1)">
       <use xlink:href="#DejaVuSans-33"/>
       <use xlink:href="#DejaVuSans-2e" x="63.623047"/>
       <use xlink:href="#DejaVuSans-35" x="95.410156"/>
      </g>
     </g>
    </g>
    <g id="ytick_5">
     <g id="line2d_14">
      <g>
       <use xlink:href="#m6959f1693e" x="54.29" y="86.206291" style="stroke: #000000; stroke-width: 0.8"/>
      </g>
     </g>
     <g id="text_15">
      <!-- 4.0 -->
      <g transform="translate(31.386875 90.005509) scale(0.1 -0.1)">
       <use xlink:href="#DejaVuSans-34"/>
       <use xlink:href="#DejaVuSans-2e" x="63.623047"/>
       <use xlink:href="#DejaVuSans-30" x="95.410156"/>
      </g>
     </g>
    </g>
    <g id="ytick_6">
     <g id="line2d_15">
      <g>
       <use xlink:href="#m6959f1693e" x="54.29" y="34.939137" style="stroke: #000000; stroke-width: 0.8"/>
      </g>
     </g>
     <g id="text_16">
      <!-- 4.5 -->
      <g transform="translate(31.386875 38.738356) scale(0.1 -0.1)">
       <use xlink:href="#DejaVuSans-34"/>
       <use xlink:href="#DejaVuSans-2e" x="63.623047"/>
       <use xlink:href="#DejaVuSans-35" x="95.410156"/>
      </g>
     </g>
    </g>
    <g id="text_17">
     <!-- Loss -->
     <g transform="translate(24.059375 171.5275) rotate(-90) scale(0.16 -0.16)">
      <defs>
       <path id="DejaVuSans-4c" d="M 628 4666 
L 1259 4666 
L 1259 531 
L 3531 531 
L 3531 0 
L 628 0 
L 628 4666 
z
" transform="scale(0.015625)"/>
      </defs>
      <use xlink:href="#DejaVuSans-4c"/>
      <use xlink:href="#DejaVuSans-6f" x="53.962891"/>
      <use xlink:href="#DejaVuSans-73" x="115.144531"/>
      <use xlink:href="#DejaVuSans-73" x="167.244141"/>
     </g>
    </g>
   </g>
   <g id="line2d_16">
    <path d="M 72.366752 24.130242 
L 73.356027 24.206561 
L 74.345302 24.42568 
L 75.334577 24.191426 
L 76.323852 25.077043 
L 77.313127 28.547734 
L 78.302402 29.108939 
L 79.291677 35.396232 
L 80.280952 32.952023 
L 82.259502 49.304463 
L 83.248777 50.054968 
L 84.238052 56.302704 
L 85.227327 60.247875 
L 86.216602 60.499958 
L 87.205877 65.997866 
L 88.195152 78.854326 
L 89.184427 78.507062 
L 90.173702 75.643983 
L 91.162977 84.851638 
L 92.152252 85.325772 
L 93.141527 85.267291 
L 94.130802 89.972471 
L 95.120077 99.719528 
L 96.109352 107.264755 
L 97.098627 108.138932 
L 98.087902 111.545746 
L 99.077177 113.648353 
L 100.066452 109.033001 
L 101.055727 120.274252 
L 102.045002 127.136772 
L 103.034277 130.825339 
L 104.023552 135.914999 
L 105.012827 112.405252 
L 106.002102 140.189512 
L 106.991377 127.535784 
L 107.980652 141.366519 
L 108.969927 140.401652 
L 109.959202 144.368758 
L 110.948477 156.720184 
L 111.937752 146.753005 
L 112.927027 157.405944 
L 113.916302 158.681948 
L 114.905577 160.41514 
L 115.894852 161.675539 
L 116.884127 168.344114 
L 117.873402 169.798262 
L 118.862677 170.789332 
L 119.851952 162.620979 
L 120.841227 165.474776 
L 121.830502 176.301261 
L 122.819777 182.161372 
L 123.809052 175.292808 
L 124.798327 178.128343 
L 125.787602 183.593186 
L 126.776877 183.818654 
L 127.766152 164.778294 
L 128.755427 184.252401 
L 129.744702 169.099859 
L 130.733977 187.463016 
L 131.723252 193.32871 
L 132.712527 193.083894 
L 133.701802 192.539917 
L 134.691077 192.461514 
L 135.680352 193.841559 
L 136.669627 180.703531 
L 137.658902 190.874926 
L 138.648177 153.79652 
L 139.637452 195.96762 
L 140.626727 187.161146 
L 141.616002 199.261166 
L 142.605277 204.039667 
L 143.594552 205.295632 
L 144.583827 203.272112 
L 145.573102 182.153663 
L 146.562377 203.889483 
L 147.551652 204.175414 
L 148.540927 202.487275 
L 149.530202 198.448767 
L 150.519477 200.504231 
L 151.508752 192.58246 
L 152.498027 209.176411 
L 153.487302 208.270264 
L 154.476577 208.06264 
L 155.465852 210.476755 
L 156.455127 209.051365 
L 157.444402 209.27067 
L 158.433677 219.925399 
L 159.422952 210.910647 
L 161.401502 218.763787 
L 162.390777 220.896073 
L 163.380052 215.346051 
L 164.369327 218.475453 
L 165.358602 217.318725 
L 166.347877 211.936858 
L 167.337152 213.554931 
L 168.326427 217.018107 
L 169.315702 216.011607 
L 170.304977 219.023306 
L 171.294252 222.718495 
L 172.283527 219.767022 
L 173.272802 221.943462 
L 174.262077 225.460258 
L 175.251352 207.607265 
L 176.240627 223.944641 
L 177.229902 210.542521 
L 178.219177 227.445082 
L 179.208452 230.647308 
L 180.197727 233.23755 
L 181.187002 227.241329 
L 182.176277 226.807609 
L 183.165552 226.757964 
L 184.154827 233.732706 
L 185.144102 229.578966 
L 186.133377 231.555514 
L 187.122652 214.515789 
L 189.101202 232.729773 
L 190.090477 228.829422 
L 191.079752 231.953763 
L 192.069027 228.947188 
L 193.058302 217.702328 
L 194.047577 239.003338 
L 195.036852 229.739037 
L 196.026127 233.811543 
L 197.015402 229.427471 
L 198.004677 217.962942 
L 198.993952 233.071009 
L 199.983227 238.216008 
L 200.972502 223.524243 
L 201.961777 217.827717 
L 202.951052 236.44204 
L 203.940327 228.631404 
L 204.929602 238.109713 
L 205.918877 237.963379 
L 206.908152 236.858582 
L 207.897427 195.29422 
L 208.886702 218.235571 
L 209.875977 236.277838 
L 210.865252 238.5579 
L 211.854527 237.316651 
L 212.843802 240.62698 
L 213.833077 240.940283 
L 215.811627 242.947016 
L 216.800902 246.280904 
L 217.790177 241.932323 
L 218.779452 233.625976 
L 219.768727 231.817021 
L 220.758002 235.666748 
L 221.747277 202.400231 
L 222.736552 227.871809 
L 223.725827 236.673356 
L 224.715102 240.331282 
L 225.704377 244.767992 
L 226.693652 238.463503 
L 227.682927 243.073794 
L 228.672202 236.671503 
L 229.661477 240.98638 
L 230.650752 243.705342 
L 231.640027 229.009108 
L 232.629302 245.427882 
L 233.618577 242.220824 
L 234.607852 239.939126 
L 235.597127 248.296858 
L 236.586402 238.413129 
L 237.575677 249.237866 
L 238.564952 246.134631 
L 239.554227 244.789315 
L 240.543502 236.390543 
L 241.532777 248.086401 
L 242.522052 241.152934 
L 243.511327 249.752835 
L 244.500602 243.084504 
L 245.489877 244.399857 
L 246.479152 242.87255 
L 247.468427 238.661765 
L 248.457702 247.096601 
L 249.446977 250.570606 
L 250.436252 248.039742 
L 251.425527 242.846846 
L 252.414802 249.738413 
L 253.404077 241.536611 
L 254.393352 247.524774 
L 255.382627 251.394819 
L 256.371902 254.222021 
L 257.361177 246.755382 
L 258.350452 231.965178 
L 259.339727 249.853196 
L 260.329002 249.180653 
L 261.318277 253.593723 
L 262.307552 236.471391 
L 263.296827 251.931428 
L 264.286102 244.74153 
L 265.275377 246.42247 
L 266.264652 245.527811 
L 267.253927 243.442158 
L 268.243202 250.900453 
L 269.232477 253.085438 
L 270.221752 247.497857 
L 271.211027 249.754362 
L 272.200302 247.06542 
L 273.189577 249.648922 
L 274.178852 246.061555 
L 275.168127 251.263995 
L 276.157402 260.845062 
L 277.146677 234.982556 
L 278.135952 249.783454 
L 279.125227 257.11055 
L 280.114502 252.747883 
L 281.103777 254.636723 
L 282.093052 222.131767 
L 283.082327 251.050922 
L 284.071602 251.475299 
L 285.060877 257.564412 
L 286.050152 250.745038 
L 287.039427 254.400472 
L 288.028702 246.551337 
L 289.017977 255.500782 
L 290.007252 254.040435 
L 290.996527 244.999265 
L 291.985802 254.488115 
L 292.975077 251.261796 
L 293.964352 256.189481 
L 294.953627 251.511886 
L 295.942902 257.008106 
L 296.932177 257.18078 
L 297.921452 255.74817 
L 298.910727 249.743048 
L 299.900002 255.517721 
L 300.889277 250.890594 
L 301.878552 239.788336 
L 302.867827 239.644587 
L 303.857102 255.874049 
L 304.846377 254.428942 
L 305.835652 251.978625 
L 306.824927 238.380477 
L 307.814202 253.639396 
L 308.803477 257.537081 
L 309.792752 245.125774 
L 310.782027 251.378532 
L 311.771302 254.696039 
L 313.749852 234.113958 
L 314.739127 253.185622 
L 315.728402 262.54999 
L 316.717677 258.928247 
L 317.706952 257.812633 
L 318.696227 254.632365 
L 319.685502 257.932848 
L 320.674777 249.903809 
L 321.664052 258.354809 
L 322.653327 253.11402 
L 323.642602 260.975878 
L 324.631877 258.049378 
L 325.621152 254.373393 
L 326.610427 255.444814 
L 327.599702 254.786999 
L 329.578252 259.362369 
L 330.567527 258.401635 
L 331.556802 253.845895 
L 332.546077 260.215562 
L 333.535352 256.983664 
L 334.524627 245.000712 
L 335.513902 260.816367 
L 336.503177 261.740727 
L 337.492452 243.94862 
L 338.481727 261.759944 
L 339.471002 258.108594 
L 340.460277 261.5098 
L 341.449552 256.562899 
L 342.438827 258.31244 
L 343.428102 255.4692 
L 344.417377 261.062861 
L 345.406652 254.822534 
L 346.395927 261.321138 
L 347.385202 254.7874 
L 348.374477 256.691578 
L 349.363752 255.195677 
L 350.353027 263.742984 
L 351.342302 255.914041 
L 352.331577 258.777596 
L 353.320852 238.659362 
L 355.299402 264.614604 
L 356.288677 255.048303 
L 357.277952 250.040003 
L 358.267227 255.323252 
L 359.256502 252.764958 
L 360.245777 261.307911 
L 361.235052 261.45461 
L 362.224327 261.446987 
L 363.213602 261.836914 
L 364.202877 259.527418 
L 365.192152 262.935112 
L 366.181427 265.375171 
L 368.159977 257.594886 
L 370.138527 267.35341 
L 371.127802 250.016146 
L 372.117077 254.013926 
L 373.106352 263.069335 
L 374.095627 260.991858 
L 375.084902 261.783064 
L 376.074177 264.209028 
L 377.063452 263.842752 
L 378.052727 253.764033 
L 379.042002 258.181296 
L 380.031277 264.1739 
L 381.020552 265.331826 
L 382.009827 251.740743 
L 383.988377 268.66422 
L 384.977652 269.411764 
L 385.966927 266.045749 
L 387.945477 270.070715 
L 388.934752 265.914762 
L 389.924027 265.377832 
L 390.913302 256.766084 
L 391.902577 266.766255 
L 392.891852 260.651833 
L 393.881127 258.524267 
L 394.870402 260.586301 
L 395.859677 263.221045 
L 396.848952 256.137475 
L 397.838227 265.72802 
L 398.827502 265.321193 
L 399.816777 265.741438 
L 400.806052 256.069074 
L 401.795327 268.269258 
L 402.784602 262.654601 
L 403.773877 267.959891 
L 404.763152 264.047583 
L 405.752427 260.661529 
L 406.741702 260.906328 
L 407.730977 265.904684 
L 408.720252 262.447071 
L 409.709527 265.761696 
L 410.698802 265.029721 
L 411.688077 259.297388 
L 412.677352 264.656437 
L 413.666627 254.370659 
L 414.655902 266.437829 
L 415.645177 262.477718 
L 416.634452 267.850933 
L 417.623727 266.158196 
L 418.613002 266.688501 
L 419.602277 260.18493 
L 420.591552 247.009466 
L 421.580827 263.394409 
L 422.570102 266.815111 
L 423.559377 264.119397 
L 423.559377 264.119397 
" clip-path="url(#pe13d3221e9)" style="fill: none; stroke: #000000; stroke-width: 1.5; stroke-linecap: square"/>
   </g>
   <g id="line2d_17">
    <path d="M 72.276818 23.955518 
L 73.176159 24.061077 
L 74.0755 25.072508 
L 74.974841 27.450646 
L 75.874182 33.315044 
L 76.773523 44.888773 
L 77.672864 61.094713 
L 78.572205 67.110496 
L 79.471545 76.57437 
L 80.370886 82.443056 
L 81.270227 85.198011 
L 82.169568 89.234358 
L 83.068909 95.185283 
L 84.867591 102.828967 
L 86.666273 112.631615 
L 87.565614 114.038143 
L 88.464955 119.601924 
L 89.364295 122.982865 
L 92.062318 130.824309 
L 92.961659 136.090352 
L 93.861 139.594235 
L 95.659682 145.600359 
L 96.559023 147.224746 
L 97.458364 151.473453 
L 98.357705 149.204054 
L 99.257045 153.813712 
L 100.156386 154.636216 
L 101.055727 163.017711 
L 101.955068 165.231233 
L 102.854409 166.166005 
L 103.75375 165.899515 
L 104.653091 169.988151 
L 105.552432 169.913212 
L 106.451773 173.664372 
L 107.351114 174.152057 
L 108.250455 176.879229 
L 109.149795 177.41984 
L 110.049136 182.534643 
L 110.948477 182.700338 
L 111.847818 183.682263 
L 113.6465 190.304719 
L 114.545841 188.526259 
L 115.445182 188.691363 
L 116.344523 190.861641 
L 117.243864 195.898566 
L 118.143205 193.49668 
L 119.042545 194.762884 
L 119.941886 197.572109 
L 120.841227 201.523161 
L 121.740568 197.688676 
L 122.639909 201.413241 
L 123.53925 206.447156 
L 124.438591 208.800126 
L 125.337932 208.925875 
L 126.237273 206.49983 
L 127.136614 212.239465 
L 128.035955 210.607402 
L 128.935295 213.079888 
L 129.834636 213.391195 
L 130.733977 212.034148 
L 131.633318 214.514658 
L 132.532659 216.080387 
L 133.432 215.505797 
L 134.331341 216.560382 
L 135.230682 222.317396 
L 136.130023 218.251444 
L 137.029364 221.059602 
L 137.928705 222.112647 
L 138.828045 225.343858 
L 139.727386 225.84707 
L 140.626727 221.560831 
L 141.526068 225.979684 
L 142.425409 223.609093 
L 143.32475 225.156752 
L 144.224091 231.436732 
L 145.123432 227.095917 
L 146.022773 230.250078 
L 146.922114 231.064181 
L 147.821455 230.570988 
L 148.720795 234.322202 
L 150.519477 230.848786 
L 151.418818 235.261452 
L 152.318159 233.912762 
L 153.2175 235.849186 
L 154.116841 235.602372 
L 155.016182 229.463661 
L 155.915523 238.868325 
L 156.814864 233.801809 
L 157.714205 237.532941 
L 158.613545 235.660471 
L 159.512886 240.214326 
L 160.412227 241.62945 
L 161.311568 239.525687 
L 162.210909 241.595516 
L 163.11025 240.007913 
L 164.009591 242.437938 
L 164.908932 239.982893 
L 165.808273 240.870235 
L 166.707614 241.929369 
L 167.606955 243.205763 
L 168.506295 243.834468 
L 169.405636 239.758523 
L 170.304977 245.718202 
L 171.204318 247.399143 
L 172.103659 248.154971 
L 173.003 247.242162 
L 173.902341 246.158967 
L 174.801682 247.075922 
L 175.701023 249.965967 
L 176.600364 248.726039 
L 177.499705 249.641189 
L 178.399045 252.128915 
L 179.298386 247.196531 
L 180.197727 250.472996 
L 181.097068 249.617302 
L 181.996409 249.206097 
L 182.89575 249.899688 
L 183.795091 251.926533 
L 184.694432 251.043993 
L 185.593773 254.685054 
L 186.493114 250.759685 
L 187.392455 251.94479 
L 188.291795 254.52885 
L 189.191136 251.731602 
L 190.090477 251.012648 
L 190.989818 254.678934 
L 191.889159 255.22133 
L 192.7885 252.746343 
L 193.687841 256.478408 
L 194.587182 253.681583 
L 195.486523 256.363314 
L 196.385864 254.594789 
L 197.285205 254.078483 
L 198.184545 257.852684 
L 199.983227 255.864924 
L 200.882568 254.324091 
L 201.781909 256.084721 
L 202.68125 258.301315 
L 203.580591 258.207733 
L 204.479932 259.178816 
L 205.379273 257.65521 
L 206.278614 260.566222 
L 207.177955 257.732337 
L 208.077295 262.121249 
L 208.976636 259.097007 
L 209.875977 259.312468 
L 210.775318 257.022445 
L 211.674659 261.775958 
L 212.574 259.687143 
L 213.473341 259.095403 
L 214.372682 260.418764 
L 215.272023 260.542785 
L 216.171364 265.662988 
L 217.070705 260.210419 
L 217.970045 260.344654 
L 218.869386 261.829877 
L 219.768727 263.824286 
L 220.668068 263.17231 
L 221.567409 261.912695 
L 222.46675 266.7524 
L 223.366091 262.908431 
L 224.265432 259.793583 
L 225.164773 264.566093 
L 226.064114 265.715811 
L 226.963455 265.716132 
L 228.762136 265.344022 
L 229.661477 260.823802 
L 230.560818 265.708154 
L 231.460159 264.496771 
L 232.3595 266.990979 
L 233.258841 263.769844 
L 234.158182 266.3167 
L 235.057523 265.107985 
L 235.956864 265.776961 
L 236.856205 268.569843 
L 237.755545 266.239399 
L 238.654886 270.561527 
L 239.554227 265.040237 
L 240.453568 263.709892 
L 241.352909 267.425178 
L 242.25225 268.776488 
L 243.151591 269.315517 
L 244.050932 263.01049 
L 244.950273 269.487426 
L 245.849614 270.353245 
L 246.748955 265.231904 
L 247.648295 268.111508 
L 248.547636 267.844972 
L 249.446977 270.847988 
L 250.346318 264.361879 
L 251.245659 272.117103 
L 252.145 266.891177 
L 253.044341 268.503234 
L 253.943682 271.734498 
L 254.843023 270.182833 
L 255.742364 270.594409 
L 256.641705 269.13825 
L 257.541045 269.087133 
L 258.440386 271.089789 
L 259.339727 272.29813 
L 260.239068 267.077549 
L 261.138409 270.087624 
L 262.03775 267.242598 
L 262.937091 270.399494 
L 263.836432 271.582898 
L 264.735773 273.214629 
L 265.635114 268.607501 
L 266.534455 269.951931 
L 267.433795 270.230691 
L 268.333136 271.526476 
L 269.232477 270.988409 
L 270.131818 271.078636 
L 271.031159 269.345228 
L 271.9305 273.581585 
L 272.829841 272.037486 
L 273.729182 272.350335 
L 274.628523 274.552121 
L 275.527864 273.419327 
L 276.427205 273.556196 
L 277.326545 276.079661 
L 278.225886 273.174095 
L 279.125227 272.303733 
L 280.024568 274.192688 
L 280.923909 271.160902 
L 281.82325 271.622951 
L 282.722591 271.002984 
L 283.621932 273.963341 
L 284.521273 272.996704 
L 285.420614 274.938274 
L 286.319955 272.806464 
L 287.219295 272.90607 
L 288.118636 274.851701 
L 289.017977 272.220774 
L 289.917318 276.707187 
L 290.816659 274.08884 
L 291.716 274.657183 
L 292.615341 276.351268 
L 293.514682 275.195327 
L 294.414023 271.947033 
L 295.313364 275.136872 
L 296.212705 274.238948 
L 297.112045 274.378079 
L 298.011386 274.281066 
L 298.910727 276.696763 
L 299.810068 276.694109 
L 300.709409 274.014474 
L 301.60875 274.062396 
L 302.508091 273.341857 
L 303.407432 271.430341 
L 304.306773 277.441297 
L 305.206114 278.018499 
L 306.105455 274.597222 
L 307.004795 273.986378 
L 307.904136 275.072088 
L 308.803477 273.875457 
L 309.702818 273.714456 
L 310.602159 278.212366 
L 311.5015 274.929429 
L 312.400841 275.855112 
L 313.300182 280.551495 
L 314.199523 278.379489 
L 315.098864 277.191819 
L 315.998205 278.567436 
L 316.897545 277.187565 
L 317.796886 278.325314 
L 318.696227 271.774698 
L 319.595568 275.703618 
L 320.494909 274.069847 
L 321.39425 274.954759 
L 322.293591 271.59429 
L 323.192932 279.600673 
L 324.092273 271.690994 
L 325.890955 274.194076 
L 326.790295 278.211194 
L 327.689636 276.421766 
L 329.488318 278.52185 
L 330.387659 275.381961 
L 331.287 278.218346 
L 332.186341 277.321528 
L 333.085682 278.668318 
L 333.985023 275.49506 
L 334.884364 276.44995 
L 335.783705 278.283386 
L 336.683045 275.20521 
L 337.582386 281.71948 
L 339.381068 274.958646 
L 340.280409 277.803464 
L 341.17975 272.839969 
L 342.079091 279.966446 
L 342.978432 277.493802 
L 343.877773 272.894325 
L 344.777114 281.280044 
L 345.676455 275.258237 
L 346.575795 280.543689 
L 347.475136 278.608099 
L 348.374477 278.408723 
L 349.273818 277.803145 
L 350.173159 279.821149 
L 351.0725 279.379212 
L 351.971841 277.040276 
L 352.871182 277.736913 
L 353.770523 280.358791 
L 354.669864 276.587033 
L 355.569205 276.088651 
L 356.468545 277.445424 
L 357.367886 276.686707 
L 358.267227 278.040751 
L 359.166568 278.651281 
L 360.065909 277.824671 
L 360.96525 275.987712 
L 361.864591 278.551208 
L 362.763932 277.965759 
L 363.663273 277.646181 
L 364.562614 278.951786 
L 365.461955 275.901986 
L 366.361295 280.887852 
L 367.260636 281.949122 
L 368.159977 278.059462 
L 369.958659 279.250516 
L 370.858 278.008135 
L 371.757341 277.977081 
L 372.656682 279.041794 
L 373.556023 280.353296 
L 374.455364 278.608912 
L 375.354705 277.474435 
L 376.254045 280.704303 
L 377.153386 283.300882 
L 378.052727 280.869759 
L 378.952068 277.743844 
L 379.851409 275.794534 
L 380.75075 279.685523 
L 382.549432 276.734687 
L 383.448773 278.809736 
L 384.348114 279.252355 
L 385.247455 275.242263 
L 386.146795 278.316134 
L 387.046136 280.299511 
L 387.945477 275.755563 
L 388.844818 278.325028 
L 389.744159 279.293283 
L 390.6435 279.296386 
L 391.542841 281.047773 
L 392.442182 280.436685 
L 393.341523 280.279535 
L 394.240864 278.246924 
L 395.140205 279.913896 
L 396.039545 283.390535 
L 396.938886 278.099933 
L 397.838227 281.420248 
L 398.737568 281.634854 
L 399.636909 280.56343 
L 400.53625 280.427301 
L 401.435591 282.207848 
L 402.334932 277.860302 
L 403.234273 284.143636 
L 404.133614 281.334248 
L 405.932295 279.520931 
L 406.831636 277.489597 
L 407.730977 281.420972 
L 408.630318 278.349517 
L 409.529659 281.606275 
L 410.429 277.708039 
L 411.328341 282.705507 
L 412.227682 278.479 
L 413.127023 280.00869 
L 414.026364 278.454213 
L 414.925705 281.846439 
L 415.825045 277.68399 
L 416.724386 279.772486 
L 417.623727 282.215302 
L 418.523068 279.456531 
L 419.422409 280.321316 
L 420.32175 279.931333 
L 421.221091 278.1016 
L 422.120432 283.331708 
L 423.019773 270.106835 
L 423.919114 276.963089 
L 424.818455 276.157759 
L 425.717795 280.802637 
L 427.516477 280.550752 
L 428.415818 277.503729 
L 429.315159 281.03896 
L 430.2145 280.796092 
L 431.113841 278.992793 
L 432.013182 282.382504 
L 432.013182 282.382504 
" clip-path="url(#pe13d3221e9)" style="fill: none; stroke: #ff0000; stroke-width: 1.5; stroke-linecap: square"/>
   </g>
   <g id="line2d_18">
    <path d="M 72.276818 23.872381 
L 73.176159 23.816364 
L 74.0755 23.999744 
L 75.874182 24.064055 
L 76.773523 24.293294 
L 81.270227 24.787704 
L 82.169568 24.674203 
L 83.068909 24.900377 
L 83.96825 25.260602 
L 84.867591 25.318337 
L 85.766932 25.51449 
L 87.565614 25.671489 
L 88.464955 26.000001 
L 89.364295 26.082965 
L 90.263636 26.457329 
L 91.162977 26.541437 
L 92.062318 27.173871 
L 93.861 27.744725 
L 94.760341 28.567022 
L 95.659682 28.742122 
L 96.559023 29.211465 
L 98.357705 31.252472 
L 99.257045 31.300967 
L 101.055727 33.374954 
L 101.955068 34.888488 
L 102.854409 35.415939 
L 104.653091 38.295948 
L 106.451773 39.987685 
L 107.351114 42.889335 
L 108.250455 43.231093 
L 109.149795 45.50653 
L 110.049136 47.059582 
L 111.847818 52.000196 
L 112.747159 53.047694 
L 113.6465 56.147803 
L 114.545841 57.479529 
L 115.445182 60.082047 
L 116.344523 61.20002 
L 117.243864 61.404954 
L 118.143205 64.689731 
L 119.042545 69.446386 
L 119.941886 66.333101 
L 120.841227 68.122591 
L 121.740568 70.529843 
L 122.639909 74.112559 
L 123.53925 73.391278 
L 124.438591 74.063123 
L 125.337932 75.248501 
L 126.237273 77.255556 
L 127.136614 78.767848 
L 128.035955 77.882476 
L 128.935295 80.877079 
L 129.834636 80.626773 
L 130.733977 80.844926 
L 131.633318 82.861663 
L 132.532659 81.715676 
L 133.432 84.80176 
L 134.331341 81.367469 
L 135.230682 83.334698 
L 136.130023 82.347926 
L 137.029364 82.717431 
L 137.928705 85.531258 
L 138.828045 84.772316 
L 139.727386 86.31939 
L 140.626727 87.274156 
L 141.526068 87.406281 
L 142.425409 86.236673 
L 143.32475 89.713061 
L 144.224091 89.920692 
L 145.123432 86.783531 
L 146.022773 90.900279 
L 146.922114 88.108029 
L 147.821455 90.150775 
L 148.720795 90.083448 
L 149.620136 91.313069 
L 150.519477 93.113271 
L 151.418818 90.919717 
L 152.318159 93.459009 
L 153.2175 92.334151 
L 154.116841 94.403703 
L 155.016182 92.448819 
L 155.915523 93.484907 
L 156.814864 93.875416 
L 157.714205 96.379884 
L 158.613545 98.343614 
L 159.512886 95.438381 
L 160.412227 95.670314 
L 161.311568 95.423321 
L 162.210909 97.114246 
L 163.11025 97.811241 
L 164.009591 97.806115 
L 164.908932 100.766373 
L 165.808273 98.828799 
L 166.707614 98.981092 
L 167.606955 101.256538 
L 168.506295 100.58443 
L 169.405636 99.049281 
L 170.304977 101.394636 
L 171.204318 101.290579 
L 172.103659 101.500535 
L 173.003 104.450635 
L 173.902341 102.906548 
L 174.801682 105.387416 
L 175.701023 105.608566 
L 176.600364 102.909474 
L 177.499705 102.801537 
L 178.399045 104.45858 
L 179.298386 105.35198 
L 180.197727 107.253854 
L 181.097068 106.512935 
L 181.996409 104.160846 
L 182.89575 105.886158 
L 183.795091 108.312427 
L 184.694432 107.993065 
L 185.593773 105.912079 
L 186.493114 110.034065 
L 187.392455 107.634627 
L 188.291795 107.245122 
L 189.191136 110.540511 
L 190.090477 112.989313 
L 190.989818 109.606648 
L 191.889159 112.984956 
L 192.7885 110.030448 
L 193.687841 111.778432 
L 194.587182 112.809873 
L 195.486523 112.090936 
L 196.385864 113.172788 
L 197.285205 115.866684 
L 198.184545 111.538427 
L 199.083886 110.910039 
L 199.983227 114.667201 
L 200.882568 116.023834 
L 201.781909 115.325578 
L 202.68125 115.703335 
L 203.580591 117.540214 
L 204.479932 114.801391 
L 205.379273 116.337315 
L 206.278614 119.514097 
L 207.177955 116.814569 
L 208.077295 118.73227 
L 208.976636 115.320259 
L 209.875977 118.385343 
L 210.775318 119.37312 
L 211.674659 116.574576 
L 212.574 117.007396 
L 213.473341 118.605872 
L 214.372682 120.663047 
L 215.272023 119.645655 
L 216.171364 120.300893 
L 217.070705 118.293594 
L 217.970045 117.703255 
L 218.869386 121.383384 
L 219.768727 122.821324 
L 220.668068 121.03501 
L 221.567409 123.214542 
L 222.46675 122.345203 
L 223.366091 120.630841 
L 224.265432 122.853806 
L 225.164773 122.536229 
L 226.064114 125.052045 
L 226.963455 125.582412 
L 227.862795 127.464469 
L 228.762136 127.766249 
L 230.560818 125.613219 
L 231.460159 125.043248 
L 232.3595 127.048215 
L 233.258841 125.398033 
L 235.057523 126.365723 
L 235.956864 127.600414 
L 236.856205 126.799445 
L 237.755545 126.402596 
L 238.654886 128.996383 
L 239.554227 126.315671 
L 240.453568 129.142069 
L 241.352909 130.446974 
L 242.25225 130.485833 
L 243.151591 130.377298 
L 244.050932 132.103503 
L 244.950273 128.076071 
L 245.849614 132.053448 
L 246.748955 130.41416 
L 247.648295 129.733587 
L 248.547636 130.852508 
L 249.446977 127.319286 
L 250.346318 130.12615 
L 251.245659 130.9827 
L 253.044341 130.680244 
L 253.943682 131.596746 
L 255.742364 132.251167 
L 256.641705 135.014114 
L 257.541045 132.32513 
L 258.440386 135.093722 
L 259.339727 134.911956 
L 260.239068 133.310062 
L 261.138409 136.431621 
L 262.03775 135.954314 
L 262.937091 134.704254 
L 263.836432 134.587614 
L 264.735773 138.050078 
L 265.635114 135.945253 
L 266.534455 131.879441 
L 267.433795 137.219352 
L 268.333136 137.197737 
L 269.232477 133.78388 
L 270.131818 135.425279 
L 271.031159 140.415045 
L 271.9305 137.733696 
L 272.829841 137.328269 
L 273.729182 136.630089 
L 274.628523 136.48109 
L 275.527864 137.441174 
L 276.427205 136.821122 
L 277.326545 138.699181 
L 278.225886 138.409191 
L 279.125227 139.125314 
L 280.024568 137.709224 
L 280.923909 139.098582 
L 281.82325 139.641931 
L 282.722591 140.772822 
L 283.621932 139.041628 
L 284.521273 138.674769 
L 285.420614 141.808977 
L 286.319955 139.735816 
L 287.219295 140.504893 
L 288.118636 139.02592 
L 289.017977 141.559353 
L 289.917318 142.522854 
L 290.816659 143.009383 
L 291.716 144.30928 
L 292.615341 142.753142 
L 293.514682 144.603437 
L 294.414023 144.303049 
L 296.212705 143.141303 
L 297.112045 141.875185 
L 298.011386 144.686233 
L 298.910727 142.406716 
L 299.810068 144.336099 
L 300.709409 145.103542 
L 301.60875 145.610295 
L 302.508091 145.656219 
L 304.306773 146.899338 
L 305.206114 148.200273 
L 307.004795 143.126402 
L 307.904136 147.865548 
L 308.803477 144.947446 
L 309.702818 148.905582 
L 310.602159 148.778495 
L 311.5015 145.879072 
L 312.400841 147.855914 
L 313.300182 148.390787 
L 314.199523 148.362405 
L 315.098864 145.283444 
L 315.998205 146.607643 
L 316.897545 146.736531 
L 317.796886 148.334758 
L 318.696227 151.183365 
L 319.595568 149.360619 
L 320.494909 150.337459 
L 321.39425 148.568965 
L 322.293591 147.667505 
L 323.192932 144.96255 
L 324.092273 148.642831 
L 324.991614 147.969765 
L 325.890955 152.049834 
L 326.790295 151.088849 
L 327.689636 150.931704 
L 328.588977 152.404121 
L 329.488318 151.840586 
L 330.387659 150.715985 
L 331.287 154.25417 
L 332.186341 151.871054 
L 333.085682 150.329367 
L 333.985023 155.114976 
L 334.884364 151.020048 
L 335.783705 152.29719 
L 336.683045 148.674224 
L 337.582386 153.253672 
L 338.481727 150.60294 
L 339.381068 151.869718 
L 341.17975 153.691527 
L 342.079091 152.823728 
L 342.978432 154.85099 
L 343.877773 154.395873 
L 344.777114 153.434035 
L 345.676455 156.303448 
L 347.475136 154.342538 
L 348.374477 156.442162 
L 349.273818 152.417715 
L 350.173159 160.131673 
L 351.0725 159.6754 
L 351.971841 160.153209 
L 352.871182 153.615221 
L 353.770523 155.695348 
L 354.669864 158.432184 
L 355.569205 157.807152 
L 356.468545 155.712479 
L 357.367886 156.339297 
L 358.267227 155.2356 
L 359.166568 157.807559 
L 360.065909 156.906687 
L 360.96525 159.928234 
L 361.864591 159.018411 
L 362.763932 160.685581 
L 364.562614 158.55038 
L 365.461955 158.331078 
L 366.361295 158.777413 
L 367.260636 158.555562 
L 368.159977 161.417988 
L 369.059318 160.07965 
L 369.958659 158.340398 
L 370.858 160.022894 
L 371.757341 161.384885 
L 372.656682 157.755712 
L 373.556023 158.990628 
L 374.455364 160.675917 
L 375.354705 158.466393 
L 376.254045 162.796071 
L 377.153386 161.501502 
L 378.052727 159.131194 
L 378.952068 158.897051 
L 379.851409 161.996959 
L 380.75075 160.87101 
L 381.650091 162.906679 
L 382.549432 161.237823 
L 383.448773 161.019687 
L 384.348114 162.553869 
L 385.247455 165.024592 
L 386.146795 163.533348 
L 387.046136 166.818692 
L 387.945477 161.567403 
L 388.844818 164.090073 
L 389.744159 160.612235 
L 390.6435 164.717577 
L 391.542841 162.014263 
L 392.442182 162.379243 
L 393.341523 163.274391 
L 394.240864 165.017632 
L 395.140205 162.777931 
L 396.039545 167.294341 
L 396.938886 166.955621 
L 397.838227 162.958132 
L 398.737568 163.918174 
L 399.636909 166.50015 
L 400.53625 163.760069 
L 401.435591 165.059063 
L 402.334932 165.45934 
L 403.234273 165.286962 
L 404.133614 165.663662 
L 405.032955 166.624347 
L 405.932295 164.446703 
L 406.831636 167.278506 
L 407.730977 166.640524 
L 408.630318 165.481526 
L 409.529659 166.53545 
L 410.429 166.80551 
L 411.328341 167.629585 
L 412.227682 165.324478 
L 413.127023 168.187103 
L 414.026364 170.419879 
L 414.925705 166.129171 
L 415.825045 168.318014 
L 416.724386 169.141403 
L 417.623727 169.341183 
L 418.523068 170.714813 
L 419.422409 169.927979 
L 420.32175 168.253539 
L 421.221091 167.708234 
L 422.120432 168.423985 
L 423.019773 171.143152 
L 423.919114 165.444003 
L 424.818455 167.914045 
L 425.717795 169.413541 
L 426.617136 172.492413 
L 427.516477 168.550085 
L 428.415818 172.364845 
L 429.315159 172.813934 
L 430.2145 169.163685 
L 431.113841 168.711739 
L 432.013182 170.714304 
L 432.013182 170.714304 
" clip-path="url(#pe13d3221e9)" style="fill: none; stroke: #ffa500; stroke-width: 1.5; stroke-linecap: square"/>
   </g>
   <g id="line2d_19">
    <path d="M 72.276818 23.90723 
L 73.176159 23.816931 
L 74.0755 24.057592 
L 75.874182 24.212259 
L 76.773523 24.307961 
L 78.572205 24.31485 
L 81.270227 24.579488 
L 82.169568 24.48788 
L 83.068909 24.7899 
L 89.364295 25.405331 
L 92.062318 26.03843 
L 92.961659 26.162682 
L 94.760341 26.733788 
L 95.659682 27.277696 
L 96.559023 27.565837 
L 97.458364 27.709345 
L 100.156386 29.050889 
L 101.055727 29.659427 
L 101.955068 29.547168 
L 102.854409 30.987524 
L 103.75375 31.356376 
L 104.653091 32.548066 
L 106.451773 34.098749 
L 107.351114 35.341431 
L 108.250455 36.010376 
L 109.149795 37.505943 
L 110.049136 38.083042 
L 110.948477 40.152151 
L 111.847818 40.057243 
L 112.747159 42.20263 
L 114.545841 45.934293 
L 115.445182 47.884239 
L 116.344523 50.456321 
L 117.243864 51.490844 
L 118.143205 53.974988 
L 119.042545 55.328665 
L 119.941886 57.639493 
L 120.841227 58.00848 
L 121.740568 60.41928 
L 122.639909 61.058885 
L 123.53925 62.533 
L 124.438591 66.214136 
L 125.337932 65.359768 
L 126.237273 68.216945 
L 127.136614 68.829168 
L 128.035955 70.074896 
L 128.935295 70.713628 
L 129.834636 72.469465 
L 130.733977 73.141469 
L 131.633318 75.299313 
L 132.532659 74.543959 
L 133.432 75.545166 
L 134.331341 78.392983 
L 135.230682 78.135775 
L 136.130023 77.533061 
L 137.029364 78.533742 
L 137.928705 78.731649 
L 138.828045 79.507017 
L 139.727386 80.771546 
L 140.626727 81.043015 
L 141.526068 82.118966 
L 142.425409 82.763096 
L 143.32475 81.687218 
L 144.224091 83.854442 
L 145.123432 84.713873 
L 146.022773 86.373946 
L 146.922114 87.757173 
L 147.821455 85.232592 
L 148.720795 86.569172 
L 149.620136 84.632306 
L 150.519477 87.557745 
L 151.418818 89.027768 
L 152.318159 88.372535 
L 153.2175 89.915543 
L 154.116841 88.672138 
L 155.016182 89.705718 
L 155.915523 91.479602 
L 156.814864 91.373329 
L 157.714205 92.060191 
L 158.613545 92.236283 
L 159.512886 91.994137 
L 161.311568 94.942953 
L 162.210909 95.432273 
L 163.11025 95.772756 
L 164.009591 95.2357 
L 164.908932 97.42144 
L 165.808273 97.02329 
L 166.707614 95.885154 
L 167.606955 95.871609 
L 168.506295 100.850137 
L 169.405636 97.649797 
L 170.304977 98.572328 
L 171.204318 99.860576 
L 172.103659 100.742951 
L 173.003 98.403562 
L 173.902341 101.360725 
L 174.801682 102.948786 
L 175.701023 100.598669 
L 176.600364 102.405204 
L 177.499705 102.365005 
L 178.399045 100.917679 
L 179.298386 103.623458 
L 180.197727 102.436267 
L 181.097068 104.860999 
L 181.996409 104.015536 
L 182.89575 104.623697 
L 183.795091 106.965889 
L 184.694432 105.219872 
L 185.593773 108.018137 
L 186.493114 106.807154 
L 187.392455 107.425688 
L 188.291795 108.250323 
L 189.191136 105.720142 
L 190.090477 107.570633 
L 190.989818 107.280261 
L 191.889159 108.601423 
L 192.7885 108.211412 
L 193.687841 108.841385 
L 194.587182 113.784683 
L 195.486523 111.014011 
L 196.385864 111.082496 
L 197.285205 111.720799 
L 198.184545 110.677474 
L 199.083886 113.833662 
L 199.983227 111.809757 
L 200.882568 112.792134 
L 201.781909 110.674068 
L 202.68125 114.030873 
L 203.580591 114.091471 
L 204.479932 114.95125 
L 205.379273 116.476196 
L 206.278614 112.03893 
L 208.077295 117.63168 
L 208.976636 115.639864 
L 209.875977 117.332528 
L 210.775318 117.100968 
L 211.674659 118.751433 
L 212.574 121.100616 
L 213.473341 119.280494 
L 214.372682 119.456818 
L 215.272023 118.857151 
L 216.171364 117.921336 
L 217.070705 120.13615 
L 217.970045 119.862535 
L 218.869386 118.598224 
L 219.768727 121.787462 
L 220.668068 123.205843 
L 221.567409 120.22408 
L 222.46675 123.053251 
L 223.366091 121.604511 
L 224.265432 119.640373 
L 225.164773 124.077086 
L 226.064114 123.794253 
L 226.963455 126.164825 
L 227.862795 122.032561 
L 228.762136 123.881002 
L 229.661477 123.702015 
L 230.560818 127.586474 
L 231.460159 124.186726 
L 232.3595 126.868911 
L 233.258841 128.812435 
L 234.158182 129.17802 
L 235.057523 124.988544 
L 235.956864 128.032943 
L 236.856205 127.815034 
L 237.755545 130.970228 
L 238.654886 130.36394 
L 239.554227 127.285333 
L 240.453568 126.772553 
L 241.352909 127.989384 
L 242.25225 128.427841 
L 243.151591 130.690549 
L 244.050932 133.90174 
L 244.950273 128.93426 
L 245.849614 130.006193 
L 246.748955 131.701655 
L 247.648295 130.031554 
L 248.547636 132.641509 
L 249.446977 136.414261 
L 250.346318 130.911755 
L 251.245659 132.052037 
L 252.145 129.837596 
L 253.044341 131.701001 
L 253.943682 132.75831 
L 254.843023 131.255101 
L 255.742364 136.923607 
L 256.641705 134.043048 
L 257.541045 133.077147 
L 258.440386 134.034179 
L 259.339727 136.075414 
L 260.239068 134.758544 
L 261.138409 136.825538 
L 262.03775 136.19338 
L 262.937091 136.239894 
L 264.735773 135.295215 
L 265.635114 136.97356 
L 266.534455 136.667878 
L 267.433795 138.520335 
L 268.333136 137.16785 
L 269.232477 136.190673 
L 270.131818 138.938656 
L 271.031159 139.379861 
L 271.9305 138.454678 
L 272.829841 138.540275 
L 273.729182 143.282172 
L 274.628523 141.773574 
L 275.527864 139.777186 
L 276.427205 142.522172 
L 277.326545 139.63178 
L 278.225886 139.499644 
L 279.125227 139.168116 
L 280.024568 140.980483 
L 280.923909 138.921738 
L 281.82325 143.514505 
L 282.722591 140.116085 
L 283.621932 143.610409 
L 284.521273 142.038063 
L 285.420614 144.233763 
L 286.319955 144.6641 
L 287.219295 146.062798 
L 288.118636 141.956279 
L 289.017977 143.451368 
L 289.917318 146.979341 
L 290.816659 144.502198 
L 291.716 145.823318 
L 292.615341 146.020538 
L 293.514682 143.628517 
L 294.414023 146.563899 
L 295.313364 146.47472 
L 296.212705 143.771298 
L 297.112045 144.31749 
L 298.011386 146.071957 
L 298.910727 147.342545 
L 299.810068 147.032538 
L 300.709409 147.696549 
L 301.60875 147.770805 
L 302.508091 148.751154 
L 303.407432 146.521111 
L 304.306773 147.914185 
L 305.206114 150.123564 
L 306.105455 148.433139 
L 307.004795 148.309032 
L 308.803477 150.01315 
L 309.702818 146.496977 
L 310.602159 150.891517 
L 311.5015 153.358056 
L 312.400841 151.506413 
L 313.300182 147.549837 
L 314.199523 153.86842 
L 315.098864 152.670688 
L 315.998205 148.818153 
L 317.796886 152.687968 
L 318.696227 150.076122 
L 319.595568 150.816498 
L 320.494909 148.612169 
L 321.39425 152.481505 
L 322.293591 157.031731 
L 323.192932 154.3179 
L 324.092273 154.125467 
L 324.991614 154.068393 
L 325.890955 157.062849 
L 326.790295 151.930544 
L 327.689636 154.405676 
L 328.588977 155.815679 
L 329.488318 153.668543 
L 330.387659 156.838723 
L 331.287 154.194175 
L 332.186341 158.038659 
L 333.085682 156.111411 
L 333.985023 160.221215 
L 334.884364 154.478134 
L 335.783705 156.545882 
L 336.683045 154.525622 
L 337.582386 157.572746 
L 338.481727 157.547034 
L 339.381068 157.943666 
L 340.280409 158.15421 
L 341.17975 156.925724 
L 342.079091 160.186116 
L 342.978432 157.806966 
L 343.877773 161.19841 
L 344.777114 159.403989 
L 345.676455 159.768745 
L 346.575795 158.284074 
L 347.475136 160.169507 
L 348.374477 163.122956 
L 350.173159 158.166799 
L 351.0725 160.95686 
L 351.971841 157.431122 
L 352.871182 161.239259 
L 353.770523 159.417712 
L 354.669864 164.831308 
L 355.569205 161.805238 
L 356.468545 159.298423 
L 357.367886 162.5313 
L 358.267227 159.341838 
L 359.166568 162.504927 
L 360.065909 160.363704 
L 360.96525 160.725761 
L 361.864591 160.228956 
L 362.763932 165.072783 
L 363.663273 164.033918 
L 364.562614 160.952123 
L 365.461955 163.967425 
L 366.361295 164.542357 
L 367.260636 163.22291 
L 368.159977 160.802856 
L 369.059318 162.566398 
L 369.958659 162.986302 
L 370.858 164.43406 
L 371.757341 165.405385 
L 372.656682 169.376947 
L 373.556023 163.616629 
L 374.455364 163.566067 
L 375.354705 165.295489 
L 376.254045 161.99985 
L 377.153386 165.446767 
L 378.052727 166.49693 
L 378.952068 164.703581 
L 379.851409 166.493655 
L 380.75075 162.29521 
L 381.650091 169.257655 
L 382.549432 165.60469 
L 383.448773 167.045844 
L 384.348114 167.805855 
L 385.247455 166.474498 
L 386.146795 168.044293 
L 387.046136 168.027106 
L 387.945477 167.884995 
L 388.844818 170.525461 
L 389.744159 167.394164 
L 390.6435 168.60487 
L 391.542841 170.850734 
L 392.442182 167.751853 
L 393.341523 166.924269 
L 394.240864 169.854592 
L 395.140205 168.349213 
L 396.039545 169.971636 
L 396.938886 172.132251 
L 397.838227 170.379462 
L 398.737568 170.005698 
L 399.636909 170.91033 
L 400.53625 168.452374 
L 401.435591 171.493584 
L 402.334932 171.460585 
L 403.234273 171.825788 
L 405.032955 170.070533 
L 405.932295 171.125708 
L 406.831636 168.504179 
L 407.730977 174.141817 
L 408.630318 172.051955 
L 409.529659 170.828323 
L 410.429 171.691108 
L 411.328341 171.463591 
L 412.227682 173.378416 
L 413.127023 176.628719 
L 414.026364 173.043161 
L 414.925705 175.336808 
L 415.825045 173.533532 
L 417.623727 171.943656 
L 418.523068 174.398399 
L 419.422409 176.056965 
L 420.32175 173.504816 
L 421.221091 176.576308 
L 422.120432 172.689201 
L 423.019773 175.303547 
L 423.919114 172.413204 
L 424.818455 176.799876 
L 425.717795 176.485125 
L 426.617136 177.899803 
L 427.516477 176.849207 
L 428.415818 177.059526 
L 429.315159 176.242695 
L 430.2145 177.04322 
L 431.113841 175.910985 
L 432.013182 175.177389 
L 432.013182 175.177389 
" clip-path="url(#pe13d3221e9)" style="fill: none; stroke: #0000ff; stroke-width: 1.5; stroke-linecap: square"/>
   </g>
   <g id="patch_3">
    <path d="M 54.29 297.16 
L 54.29 10.8 
" style="fill: none; stroke: #000000; stroke-width: 0.8; stroke-linejoin: miter; stroke-linecap: square"/>
   </g>
   <g id="patch_4">
    <path d="M 450 297.16 
L 450 10.8 
" style="fill: none; stroke: #000000; stroke-width: 0.8; stroke-linejoin: miter; stroke-linecap: square"/>
   </g>
   <g id="patch_5">
    <path d="M 54.29 297.16 
L 450 297.16 
" style="fill: none; stroke: #000000; stroke-width: 0.8; stroke-linejoin: miter; stroke-linecap: square"/>
   </g>
   <g id="patch_6">
    <path d="M 54.29 10.8 
L 450 10.8 
" style="fill: none; stroke: #000000; stroke-width: 0.8; stroke-linejoin: miter; stroke-linecap: square"/>
   </g>
   <g id="legend_1">
    <g id="patch_7">
     <path d="M 303.09 117.54 
L 438.8 117.54 
Q 442 117.54 442 114.34 
L 442 22 
Q 442 18.8 438.8 18.8 
L 303.09 18.8 
Q 299.89 18.8 299.89 22 
L 299.89 114.34 
Q 299.89 117.54 303.09 117.54 
z
" style="fill: #ffffff; opacity: 0.8; stroke: #cccccc; stroke-linejoin: miter"/>
    </g>
    <g id="line2d_20">
     <path d="M 306.29 31.7575 
L 322.29 31.7575 
L 338.29 31.7575 
" style="fill: none; stroke: #000000; stroke-width: 1.5; stroke-linecap: square"/>
    </g>
    <g id="text_18">
     <!-- Scaffnew -->
     <g transform="translate(351.09 37.3575) scale(0.16 -0.16)">
      <defs>
       <path id="DejaVuSans-53" d="M 3425 4513 
L 3425 3897 
Q 3066 4069 2747 4153 
Q 2428 4238 2131 4238 
Q 1616 4238 1336 4038 
Q 1056 3838 1056 3469 
Q 1056 3159 1242 3001 
Q 1428 2844 1947 2747 
L 2328 2669 
Q 3034 2534 3370 2195 
Q 3706 1856 3706 1288 
Q 3706 609 3251 259 
Q 2797 -91 1919 -91 
Q 1588 -91 1214 -16 
Q 841 59 441 206 
L 441 856 
Q 825 641 1194 531 
Q 1563 422 1919 422 
Q 2459 422 2753 634 
Q 3047 847 3047 1241 
Q 3047 1584 2836 1778 
Q 2625 1972 2144 2069 
L 1759 2144 
Q 1053 2284 737 2584 
Q 422 2884 422 3419 
Q 422 4038 858 4394 
Q 1294 4750 2059 4750 
Q 2388 4750 2728 4690 
Q 3069 4631 3425 4513 
z
" transform="scale(0.015625)"/>
       <path id="DejaVuSans-66" d="M 2375 4863 
L 2375 4384 
L 1825 4384 
Q 1516 4384 1395 4259 
Q 1275 4134 1275 3809 
L 1275 3500 
L 2222 3500 
L 2222 3053 
L 1275 3053 
L 1275 0 
L 697 0 
L 697 3053 
L 147 3053 
L 147 3500 
L 697 3500 
L 697 3744 
Q 697 4328 969 4595 
Q 1241 4863 1831 4863 
L 2375 4863 
z
" transform="scale(0.015625)"/>
       <path id="DejaVuSans-65" d="M 3597 1894 
L 3597 1613 
L 953 1613 
Q 991 1019 1311 708 
Q 1631 397 2203 397 
Q 2534 397 2845 478 
Q 3156 559 3463 722 
L 3463 178 
Q 3153 47 2828 -22 
Q 2503 -91 2169 -91 
Q 1331 -91 842 396 
Q 353 884 353 1716 
Q 353 2575 817 3079 
Q 1281 3584 2069 3584 
Q 2775 3584 3186 3129 
Q 3597 2675 3597 1894 
z
M 3022 2063 
Q 3016 2534 2758 2815 
Q 2500 3097 2075 3097 
Q 1594 3097 1305 2825 
Q 1016 2553 972 2059 
L 3022 2063 
z
" transform="scale(0.015625)"/>
       <path id="DejaVuSans-77" d="M 269 3500 
L 844 3500 
L 1563 769 
L 2278 3500 
L 2956 3500 
L 3675 769 
L 4391 3500 
L 4966 3500 
L 4050 0 
L 3372 0 
L 2619 2869 
L 1863 0 
L 1184 0 
L 269 3500 
z
" transform="scale(0.015625)"/>
      </defs>
      <use xlink:href="#DejaVuSans-53"/>
      <use xlink:href="#DejaVuSans-63" x="63.476562"/>
      <use xlink:href="#DejaVuSans-61" x="118.457031"/>
      <use xlink:href="#DejaVuSans-66" x="179.736328"/>
      <use xlink:href="#DejaVuSans-66" x="214.941406"/>
      <use xlink:href="#DejaVuSans-6e" x="250.146484"/>
      <use xlink:href="#DejaVuSans-65" x="313.525391"/>
      <use xlink:href="#DejaVuSans-77" x="375.048828"/>
     </g>
    </g>
    <g id="line2d_21">
     <path d="M 306.29 55.2425 
L 322.29 55.2425 
L 338.29 55.2425 
" style="fill: none; stroke: #ff0000; stroke-width: 1.5; stroke-linecap: square"/>
    </g>
    <g id="text_19">
     <!-- FedRecu -->
     <g transform="translate(351.09 60.8425) scale(0.16 -0.16)">
      <defs>
       <path id="DejaVuSans-46" d="M 628 4666 
L 3309 4666 
L 3309 4134 
L 1259 4134 
L 1259 2759 
L 3109 2759 
L 3109 2228 
L 1259 2228 
L 1259 0 
L 628 0 
L 628 4666 
z
" transform="scale(0.015625)"/>
      </defs>
      <use xlink:href="#DejaVuSans-46"/>
      <use xlink:href="#DejaVuSans-65" x="52.019531"/>
      <use xlink:href="#DejaVuSans-64" x="113.542969"/>
      <use xlink:href="#DejaVuSans-52" x="177.019531"/>
      <use xlink:href="#DejaVuSans-65" x="242.001953"/>
      <use xlink:href="#DejaVuSans-63" x="303.525391"/>
      <use xlink:href="#DejaVuSans-75" x="358.505859"/>
     </g>
    </g>
    <g id="line2d_22">
     <path d="M 306.29 78.7275 
L 322.29 78.7275 
L 338.29 78.7275 
" style="fill: none; stroke: #ffa500; stroke-width: 1.5; stroke-linecap: square"/>
    </g>
    <g id="text_20">
     <!-- SCAFFOLD -->
     <g transform="translate(351.09 84.3275) scale(0.16 -0.16)">
      <defs>
       <path id="DejaVuSans-41" d="M 2188 4044 
L 1331 1722 
L 3047 1722 
L 2188 4044 
z
M 1831 4666 
L 2547 4666 
L 4325 0 
L 3669 0 
L 3244 1197 
L 1141 1197 
L 716 0 
L 50 0 
L 1831 4666 
z
" transform="scale(0.015625)"/>
       <path id="DejaVuSans-4f" d="M 2522 4238 
Q 1834 4238 1429 3725 
Q 1025 3213 1025 2328 
Q 1025 1447 1429 934 
Q 1834 422 2522 422 
Q 3209 422 3611 934 
Q 4013 1447 4013 2328 
Q 4013 3213 3611 3725 
Q 3209 4238 2522 4238 
z
M 2522 4750 
Q 3503 4750 4090 4092 
Q 4678 3434 4678 2328 
Q 4678 1225 4090 567 
Q 3503 -91 2522 -91 
Q 1538 -91 948 565 
Q 359 1222 359 2328 
Q 359 3434 948 4092 
Q 1538 4750 2522 4750 
z
" transform="scale(0.015625)"/>
       <path id="DejaVuSans-44" d="M 1259 4147 
L 1259 519 
L 2022 519 
Q 2988 519 3436 956 
Q 3884 1394 3884 2338 
Q 3884 3275 3436 3711 
Q 2988 4147 2022 4147 
L 1259 4147 
z
M 628 4666 
L 1925 4666 
Q 3281 4666 3915 4102 
Q 4550 3538 4550 2338 
Q 4550 1131 3912 565 
Q 3275 0 1925 0 
L 628 0 
L 628 4666 
z
" transform="scale(0.015625)"/>
      </defs>
      <use xlink:href="#DejaVuSans-53"/>
      <use xlink:href="#DejaVuSans-43" x="63.476562"/>
      <use xlink:href="#DejaVuSans-41" x="133.300781"/>
      <use xlink:href="#DejaVuSans-46" x="201.708984"/>
      <use xlink:href="#DejaVuSans-46" x="259.228516"/>
      <use xlink:href="#DejaVuSans-4f" x="316.748047"/>
      <use xlink:href="#DejaVuSans-4c" x="395.458984"/>
      <use xlink:href="#DejaVuSans-44" x="451.171875"/>
     </g>
    </g>
    <g id="line2d_23">
     <path d="M 306.29 102.2125 
L 322.29 102.2125 
L 338.29 102.2125 
" style="fill: none; stroke: #0000ff; stroke-width: 1.5; stroke-linecap: square"/>
    </g>
    <g id="text_21">
     <!-- FedLin -->
     <g transform="translate(351.09 107.8125) scale(0.16 -0.16)">
      <use xlink:href="#DejaVuSans-46"/>
      <use xlink:href="#DejaVuSans-65" x="52.019531"/>
      <use xlink:href="#DejaVuSans-64" x="113.542969"/>
      <use xlink:href="#DejaVuSans-4c" x="177.019531"/>
      <use xlink:href="#DejaVuSans-69" x="232.732422"/>
      <use xlink:href="#DejaVuSans-6e" x="260.515625"/>
     </g>
    </g>
   </g>
  </g>
 </g>
 <defs>
  <clipPath id="pe13d3221e9">
   <rect x="54.29" y="10.8" width="395.71" height="286.36"/>
  </clipPath>
 </defs>
</svg>
