<?xml version="1.0" encoding="utf-8" standalone="no"?>
<!DOCTYPE svg PUBLIC "-//W3C//DTD SVG 1.1//EN"
  "http://www.w3.org/Graphics/SVG/1.1/DTD/svg11.dtd">
<svg xmlns:xlink="http://www.w3.org/1999/xlink" width="460.8pt" height="345.6pt" viewBox="0 0 460.8 345.6" xmlns="http://www.w3.org/2000/svg" version="1.1">
 <metadata>
  <rdf:RDF xmlns:dc="http://purl.org/dc/elements/1.1/" xmlns:cc="http://creativecommons.org/ns#" xmlns:rdf="http://www.w3.org/1999/02/22-rdf-syntax-ns#">
   <cc:Work>
    <dc:type rdf:resource="http://purl.org/dc/dcmitype/StillImage"/>
    <dc:date>2025-09-23T20:50:23.998062</dc:date>
    <dc:format>image/svg+xml</dc:format>
    <dc:creator>
     <cc:Agent>
      <dc:title>Matplotlib v3.8.4, https://matplotlib.org/</dc:title>
     </cc:Agent>
    </dc:creator>
   </cc:Work>
  </rdf:RDF>
 </metadata>
 <defs>
  <style type="text/css">*{stroke-linejoin: round; stroke-linecap: butt}</style>
 </defs>
 <g id="figure_1">
  <g id="patch_1">
   <path d="M 0 345.6 
L 460.8 345.6 
L 460.8 0 
L 0 0 
z
" style="fill: #ffffff"/>
  </g>
  <g id="axes_1">
   <g id="patch_2">
    <path d="M 54.29 297.16 
L 450 297.16 
L 450 10.8 
L 54.29 10.8 
z
" style="fill: #ffffff"/>
   </g>
   <g id="matplotlib.axis_1">
    <g id="xtick_1">
     <g id="line2d_1">
      <defs>
       <path id="m2ad016a0d6" d="M 0 0 
L 0 3.5 
" style="stroke: #000000; stroke-width: 0.8"/>
      </defs>
      <g>
       <use xlink:href="#m2ad016a0d6" x="71.377477" y="297.16" style="stroke: #000000; stroke-width: 0.8"/>
      </g>
     </g>
     <g id="text_1">
      <!-- 0 -->
      <g transform="translate(68.196227 311.758438) scale(0.1 -0.1)">
       <defs>
        <path id="DejaVuSans-30" d="M 2034 4250 
Q 1547 4250 1301 3770 
Q 1056 3291 1056 2328 
Q 1056 1369 1301 889 
Q 1547 409 2034 409 
Q 2525 409 2770 889 
Q 3016 1369 3016 2328 
Q 3016 3291 2770 3770 
Q 2525 4250 2034 4250 
z
M 2034 4750 
Q 2819 4750 3233 4129 
Q 3647 3509 3647 2328 
Q 3647 1150 3233 529 
Q 2819 -91 2034 -91 
Q 1250 -91 836 529 
Q 422 1150 422 2328 
Q 422 3509 836 4129 
Q 1250 4750 2034 4750 
z
" transform="scale(0.015625)"/>
       </defs>
       <use xlink:href="#DejaVuSans-30"/>
      </g>
     </g>
    </g>
    <g id="xtick_2">
     <g id="line2d_2">
      <g>
       <use xlink:href="#m2ad016a0d6" x="116.344523" y="297.16" style="stroke: #000000; stroke-width: 0.8"/>
      </g>
     </g>
     <g id="text_2">
      <!-- 500 -->
      <g transform="translate(106.800773 311.758438) scale(0.1 -0.1)">
       <defs>
        <path id="DejaVuSans-35" d="M 691 4666 
L 3169 4666 
L 3169 4134 
L 1269 4134 
L 1269 2991 
Q 1406 3038 1543 3061 
Q 1681 3084 1819 3084 
Q 2600 3084 3056 2656 
Q 3513 2228 3513 1497 
Q 3513 744 3044 326 
Q 2575 -91 1722 -91 
Q 1428 -91 1123 -41 
Q 819 9 494 109 
L 494 744 
Q 775 591 1075 516 
Q 1375 441 1709 441 
Q 2250 441 2565 725 
Q 2881 1009 2881 1497 
Q 2881 1984 2565 2268 
Q 2250 2553 1709 2553 
Q 1456 2553 1204 2497 
Q 953 2441 691 2322 
L 691 4666 
z
" transform="scale(0.015625)"/>
       </defs>
       <use xlink:href="#DejaVuSans-35"/>
       <use xlink:href="#DejaVuSans-30" x="63.623047"/>
       <use xlink:href="#DejaVuSans-30" x="127.246094"/>
      </g>
     </g>
    </g>
    <g id="xtick_3">
     <g id="line2d_3">
      <g>
       <use xlink:href="#m2ad016a0d6" x="161.311568" y="297.16" style="stroke: #000000; stroke-width: 0.8"/>
      </g>
     </g>
     <g id="text_3">
      <!-- 1000 -->
      <g transform="translate(148.586568 311.758438) scale(0.1 -0.1)">
       <defs>
        <path id="DejaVuSans-31" d="M 794 531 
L 1825 531 
L 1825 4091 
L 703 3866 
L 703 4441 
L 1819 4666 
L 2450 4666 
L 2450 531 
L 3481 531 
L 3481 0 
L 794 0 
L 794 531 
z
" transform="scale(0.015625)"/>
       </defs>
       <use xlink:href="#DejaVuSans-31"/>
       <use xlink:href="#DejaVuSans-30" x="63.623047"/>
       <use xlink:href="#DejaVuSans-30" x="127.246094"/>
       <use xlink:href="#DejaVuSans-30" x="190.869141"/>
      </g>
     </g>
    </g>
    <g id="xtick_4">
     <g id="line2d_4">
      <g>
       <use xlink:href="#m2ad016a0d6" x="206.278614" y="297.16" style="stroke: #000000; stroke-width: 0.8"/>
      </g>
     </g>
     <g id="text_4">
      <!-- 1500 -->
      <g transform="translate(193.553614 311.758438) scale(0.1 -0.1)">
       <use xlink:href="#DejaVuSans-31"/>
       <use xlink:href="#DejaVuSans-35" x="63.623047"/>
       <use xlink:href="#DejaVuSans-30" x="127.246094"/>
       <use xlink:href="#DejaVuSans-30" x="190.869141"/>
      </g>
     </g>
    </g>
    <g id="xtick_5">
     <g id="line2d_5">
      <g>
       <use xlink:href="#m2ad016a0d6" x="251.245659" y="297.16" style="stroke: #000000; stroke-width: 0.8"/>
      </g>
     </g>
     <g id="text_5">
      <!-- 2000 -->
      <g transform="translate(238.520659 311.758438) scale(0.1 -0.1)">
       <defs>
        <path id="DejaVuSans-32" d="M 1228 531 
L 3431 531 
L 3431 0 
L 469 0 
L 469 531 
Q 828 903 1448 1529 
Q 2069 2156 2228 2338 
Q 2531 2678 2651 2914 
Q 2772 3150 2772 3378 
Q 2772 3750 2511 3984 
Q 2250 4219 1831 4219 
Q 1534 4219 1204 4116 
Q 875 4013 500 3803 
L 500 4441 
Q 881 4594 1212 4672 
Q 1544 4750 1819 4750 
Q 2544 4750 2975 4387 
Q 3406 4025 3406 3419 
Q 3406 3131 3298 2873 
Q 3191 2616 2906 2266 
Q 2828 2175 2409 1742 
Q 1991 1309 1228 531 
z
" transform="scale(0.015625)"/>
       </defs>
       <use xlink:href="#DejaVuSans-32"/>
       <use xlink:href="#DejaVuSans-30" x="63.623047"/>
       <use xlink:href="#DejaVuSans-30" x="127.246094"/>
       <use xlink:href="#DejaVuSans-30" x="190.869141"/>
      </g>
     </g>
    </g>
    <g id="xtick_6">
     <g id="line2d_6">
      <g>
       <use xlink:href="#m2ad016a0d6" x="296.212705" y="297.16" style="stroke: #000000; stroke-width: 0.8"/>
      </g>
     </g>
     <g id="text_6">
      <!-- 2500 -->
      <g transform="translate(283.487705 311.758438) scale(0.1 -0.1)">
       <use xlink:href="#DejaVuSans-32"/>
       <use xlink:href="#DejaVuSans-35" x="63.623047"/>
       <use xlink:href="#DejaVuSans-30" x="127.246094"/>
       <use xlink:href="#DejaVuSans-30" x="190.869141"/>
      </g>
     </g>
    </g>
    <g id="xtick_7">
     <g id="line2d_7">
      <g>
       <use xlink:href="#m2ad016a0d6" x="341.17975" y="297.16" style="stroke: #000000; stroke-width: 0.8"/>
      </g>
     </g>
     <g id="text_7">
      <!-- 3000 -->
      <g transform="translate(328.45475 311.758438) scale(0.1 -0.1)">
       <defs>
        <path id="DejaVuSans-33" d="M 2597 2516 
Q 3050 2419 3304 2112 
Q 3559 1806 3559 1356 
Q 3559 666 3084 287 
Q 2609 -91 1734 -91 
Q 1441 -91 1130 -33 
Q 819 25 488 141 
L 488 750 
Q 750 597 1062 519 
Q 1375 441 1716 441 
Q 2309 441 2620 675 
Q 2931 909 2931 1356 
Q 2931 1769 2642 2001 
Q 2353 2234 1838 2234 
L 1294 2234 
L 1294 2753 
L 1863 2753 
Q 2328 2753 2575 2939 
Q 2822 3125 2822 3475 
Q 2822 3834 2567 4026 
Q 2313 4219 1838 4219 
Q 1578 4219 1281 4162 
Q 984 4106 628 3988 
L 628 4550 
Q 988 4650 1302 4700 
Q 1616 4750 1894 4750 
Q 2613 4750 3031 4423 
Q 3450 4097 3450 3541 
Q 3450 3153 3228 2886 
Q 3006 2619 2597 2516 
z
" transform="scale(0.015625)"/>
       </defs>
       <use xlink:href="#DejaVuSans-33"/>
       <use xlink:href="#DejaVuSans-30" x="63.623047"/>
       <use xlink:href="#DejaVuSans-30" x="127.246094"/>
       <use xlink:href="#DejaVuSans-30" x="190.869141"/>
      </g>
     </g>
    </g>
    <g id="xtick_8">
     <g id="line2d_8">
      <g>
       <use xlink:href="#m2ad016a0d6" x="386.146795" y="297.16" style="stroke: #000000; stroke-width: 0.8"/>
      </g>
     </g>
     <g id="text_8">
      <!-- 3500 -->
      <g transform="translate(373.421795 311.758438) scale(0.1 -0.1)">
       <use xlink:href="#DejaVuSans-33"/>
       <use xlink:href="#DejaVuSans-35" x="63.623047"/>
       <use xlink:href="#DejaVuSans-30" x="127.246094"/>
       <use xlink:href="#DejaVuSans-30" x="190.869141"/>
      </g>
     </g>
    </g>
    <g id="xtick_9">
     <g id="line2d_9">
      <g>
       <use xlink:href="#m2ad016a0d6" x="431.113841" y="297.16" style="stroke: #000000; stroke-width: 0.8"/>
      </g>
     </g>
     <g id="text_9">
      <!-- 4000 -->
      <g transform="translate(418.388841 311.758438) scale(0.1 -0.1)">
       <defs>
        <path id="DejaVuSans-34" d="M 2419 4116 
L 825 1625 
L 2419 1625 
L 2419 4116 
z
M 2253 4666 
L 3047 4666 
L 3047 1625 
L 3713 1625 
L 3713 1100 
L 3047 1100 
L 3047 0 
L 2419 0 
L 2419 1100 
L 313 1100 
L 313 1709 
L 2253 4666 
z
" transform="scale(0.015625)"/>
       </defs>
       <use xlink:href="#DejaVuSans-34"/>
       <use xlink:href="#DejaVuSans-30" x="63.623047"/>
       <use xlink:href="#DejaVuSans-30" x="127.246094"/>
       <use xlink:href="#DejaVuSans-30" x="190.869141"/>
      </g>
     </g>
    </g>
    <g id="text_10">
     <!-- Communication Rounds -->
     <g transform="translate(157.06875 329.995625) scale(0.16 -0.16)">
      <defs>
       <path id="DejaVuSans-43" d="M 4122 4306 
L 4122 3641 
Q 3803 3938 3442 4084 
Q 3081 4231 2675 4231 
Q 1875 4231 1450 3742 
Q 1025 3253 1025 2328 
Q 1025 1406 1450 917 
Q 1875 428 2675 428 
Q 3081 428 3442 575 
Q 3803 722 4122 1019 
L 4122 359 
Q 3791 134 3420 21 
Q 3050 -91 2638 -91 
Q 1578 -91 968 557 
Q 359 1206 359 2328 
Q 359 3453 968 4101 
Q 1578 4750 2638 4750 
Q 3056 4750 3426 4639 
Q 3797 4528 4122 4306 
z
" transform="scale(0.015625)"/>
       <path id="DejaVuSans-6f" d="M 1959 3097 
Q 1497 3097 1228 2736 
Q 959 2375 959 1747 
Q 959 1119 1226 758 
Q 1494 397 1959 397 
Q 2419 397 2687 759 
Q 2956 1122 2956 1747 
Q 2956 2369 2687 2733 
Q 2419 3097 1959 3097 
z
M 1959 3584 
Q 2709 3584 3137 3096 
Q 3566 2609 3566 1747 
Q 3566 888 3137 398 
Q 2709 -91 1959 -91 
Q 1206 -91 779 398 
Q 353 888 353 1747 
Q 353 2609 779 3096 
Q 1206 3584 1959 3584 
z
" transform="scale(0.015625)"/>
       <path id="DejaVuSans-6d" d="M 3328 2828 
Q 3544 3216 3844 3400 
Q 4144 3584 4550 3584 
Q 5097 3584 5394 3201 
Q 5691 2819 5691 2113 
L 5691 0 
L 5113 0 
L 5113 2094 
Q 5113 2597 4934 2840 
Q 4756 3084 4391 3084 
Q 3944 3084 3684 2787 
Q 3425 2491 3425 1978 
L 3425 0 
L 2847 0 
L 2847 2094 
Q 2847 2600 2669 2842 
Q 2491 3084 2119 3084 
Q 1678 3084 1418 2786 
Q 1159 2488 1159 1978 
L 1159 0 
L 581 0 
L 581 3500 
L 1159 3500 
L 1159 2956 
Q 1356 3278 1631 3431 
Q 1906 3584 2284 3584 
Q 2666 3584 2933 3390 
Q 3200 3197 3328 2828 
z
" transform="scale(0.015625)"/>
       <path id="DejaVuSans-75" d="M 544 1381 
L 544 3500 
L 1119 3500 
L 1119 1403 
Q 1119 906 1312 657 
Q 1506 409 1894 409 
Q 2359 409 2629 706 
Q 2900 1003 2900 1516 
L 2900 3500 
L 3475 3500 
L 3475 0 
L 2900 0 
L 2900 538 
Q 2691 219 2414 64 
Q 2138 -91 1772 -91 
Q 1169 -91 856 284 
Q 544 659 544 1381 
z
M 1991 3584 
L 1991 3584 
z
" transform="scale(0.015625)"/>
       <path id="DejaVuSans-6e" d="M 3513 2113 
L 3513 0 
L 2938 0 
L 2938 2094 
Q 2938 2591 2744 2837 
Q 2550 3084 2163 3084 
Q 1697 3084 1428 2787 
Q 1159 2491 1159 1978 
L 1159 0 
L 581 0 
L 581 3500 
L 1159 3500 
L 1159 2956 
Q 1366 3272 1645 3428 
Q 1925 3584 2291 3584 
Q 2894 3584 3203 3211 
Q 3513 2838 3513 2113 
z
" transform="scale(0.015625)"/>
       <path id="DejaVuSans-69" d="M 603 3500 
L 1178 3500 
L 1178 0 
L 603 0 
L 603 3500 
z
M 603 4863 
L 1178 4863 
L 1178 4134 
L 603 4134 
L 603 4863 
z
" transform="scale(0.015625)"/>
       <path id="DejaVuSans-63" d="M 3122 3366 
L 3122 2828 
Q 2878 2963 2633 3030 
Q 2388 3097 2138 3097 
Q 1578 3097 1268 2742 
Q 959 2388 959 1747 
Q 959 1106 1268 751 
Q 1578 397 2138 397 
Q 2388 397 2633 464 
Q 2878 531 3122 666 
L 3122 134 
Q 2881 22 2623 -34 
Q 2366 -91 2075 -91 
Q 1284 -91 818 406 
Q 353 903 353 1747 
Q 353 2603 823 3093 
Q 1294 3584 2113 3584 
Q 2378 3584 2631 3529 
Q 2884 3475 3122 3366 
z
" transform="scale(0.015625)"/>
       <path id="DejaVuSans-61" d="M 2194 1759 
Q 1497 1759 1228 1600 
Q 959 1441 959 1056 
Q 959 750 1161 570 
Q 1363 391 1709 391 
Q 2188 391 2477 730 
Q 2766 1069 2766 1631 
L 2766 1759 
L 2194 1759 
z
M 3341 1997 
L 3341 0 
L 2766 0 
L 2766 531 
Q 2569 213 2275 61 
Q 1981 -91 1556 -91 
Q 1019 -91 701 211 
Q 384 513 384 1019 
Q 384 1609 779 1909 
Q 1175 2209 1959 2209 
L 2766 2209 
L 2766 2266 
Q 2766 2663 2505 2880 
Q 2244 3097 1772 3097 
Q 1472 3097 1187 3025 
Q 903 2953 641 2809 
L 641 3341 
Q 956 3463 1253 3523 
Q 1550 3584 1831 3584 
Q 2591 3584 2966 3190 
Q 3341 2797 3341 1997 
z
" transform="scale(0.015625)"/>
       <path id="DejaVuSans-74" d="M 1172 4494 
L 1172 3500 
L 2356 3500 
L 2356 3053 
L 1172 3053 
L 1172 1153 
Q 1172 725 1289 603 
Q 1406 481 1766 481 
L 2356 481 
L 2356 0 
L 1766 0 
Q 1100 0 847 248 
Q 594 497 594 1153 
L 594 3053 
L 172 3053 
L 172 3500 
L 594 3500 
L 594 4494 
L 1172 4494 
z
" transform="scale(0.015625)"/>
       <path id="DejaVuSans-20" transform="scale(0.015625)"/>
       <path id="DejaVuSans-52" d="M 2841 2188 
Q 3044 2119 3236 1894 
Q 3428 1669 3622 1275 
L 4263 0 
L 3584 0 
L 2988 1197 
Q 2756 1666 2539 1819 
Q 2322 1972 1947 1972 
L 1259 1972 
L 1259 0 
L 628 0 
L 628 4666 
L 2053 4666 
Q 2853 4666 3247 4331 
Q 3641 3997 3641 3322 
Q 3641 2881 3436 2590 
Q 3231 2300 2841 2188 
z
M 1259 4147 
L 1259 2491 
L 2053 2491 
Q 2509 2491 2742 2702 
Q 2975 2913 2975 3322 
Q 2975 3731 2742 3939 
Q 2509 4147 2053 4147 
L 1259 4147 
z
" transform="scale(0.015625)"/>
       <path id="DejaVuSans-64" d="M 2906 2969 
L 2906 4863 
L 3481 4863 
L 3481 0 
L 2906 0 
L 2906 525 
Q 2725 213 2448 61 
Q 2172 -91 1784 -91 
Q 1150 -91 751 415 
Q 353 922 353 1747 
Q 353 2572 751 3078 
Q 1150 3584 1784 3584 
Q 2172 3584 2448 3432 
Q 2725 3281 2906 2969 
z
M 947 1747 
Q 947 1113 1208 752 
Q 1469 391 1925 391 
Q 2381 391 2643 752 
Q 2906 1113 2906 1747 
Q 2906 2381 2643 2742 
Q 2381 3103 1925 3103 
Q 1469 3103 1208 2742 
Q 947 2381 947 1747 
z
" transform="scale(0.015625)"/>
       <path id="DejaVuSans-73" d="M 2834 3397 
L 2834 2853 
Q 2591 2978 2328 3040 
Q 2066 3103 1784 3103 
Q 1356 3103 1142 2972 
Q 928 2841 928 2578 
Q 928 2378 1081 2264 
Q 1234 2150 1697 2047 
L 1894 2003 
Q 2506 1872 2764 1633 
Q 3022 1394 3022 966 
Q 3022 478 2636 193 
Q 2250 -91 1575 -91 
Q 1294 -91 989 -36 
Q 684 19 347 128 
L 347 722 
Q 666 556 975 473 
Q 1284 391 1588 391 
Q 1994 391 2212 530 
Q 2431 669 2431 922 
Q 2431 1156 2273 1281 
Q 2116 1406 1581 1522 
L 1381 1569 
Q 847 1681 609 1914 
Q 372 2147 372 2553 
Q 372 3047 722 3315 
Q 1072 3584 1716 3584 
Q 2034 3584 2315 3537 
Q 2597 3491 2834 3397 
z
" transform="scale(0.015625)"/>
      </defs>
      <use xlink:href="#DejaVuSans-43"/>
      <use xlink:href="#DejaVuSans-6f" x="69.824219"/>
      <use xlink:href="#DejaVuSans-6d" x="131.005859"/>
      <use xlink:href="#DejaVuSans-6d" x="228.417969"/>
      <use xlink:href="#DejaVuSans-75" x="325.830078"/>
      <use xlink:href="#DejaVuSans-6e" x="389.208984"/>
      <use xlink:href="#DejaVuSans-69" x="452.587891"/>
      <use xlink:href="#DejaVuSans-63" x="480.371094"/>
      <use xlink:href="#DejaVuSans-61" x="535.351562"/>
      <use xlink:href="#DejaVuSans-74" x="596.630859"/>
      <use xlink:href="#DejaVuSans-69" x="635.839844"/>
      <use xlink:href="#DejaVuSans-6f" x="663.623047"/>
      <use xlink:href="#DejaVuSans-6e" x="724.804688"/>
      <use xlink:href="#DejaVuSans-20" x="788.183594"/>
      <use xlink:href="#DejaVuSans-52" x="819.970703"/>
      <use xlink:href="#DejaVuSans-6f" x="884.953125"/>
      <use xlink:href="#DejaVuSans-75" x="946.134766"/>
      <use xlink:href="#DejaVuSans-6e" x="1009.513672"/>
      <use xlink:href="#DejaVuSans-64" x="1072.892578"/>
      <use xlink:href="#DejaVuSans-73" x="1136.369141"/>
     </g>
    </g>
   </g>
   <g id="matplotlib.axis_2">
    <g id="ytick_1">
     <g id="line2d_10">
      <defs>
       <path id="m8c4ab918c7" d="M 0 0 
L -3.5 0 
" style="stroke: #000000; stroke-width: 0.8"/>
      </defs>
      <g>
       <use xlink:href="#m8c4ab918c7" x="54.29" y="288.989752" style="stroke: #000000; stroke-width: 0.8"/>
      </g>
     </g>
     <g id="text_11">
      <!-- 0.0 -->
      <g transform="translate(31.386875 292.788971) scale(0.1 -0.1)">
       <defs>
        <path id="DejaVuSans-2e" d="M 684 794 
L 1344 794 
L 1344 0 
L 684 0 
L 684 794 
z
" transform="scale(0.015625)"/>
       </defs>
       <use xlink:href="#DejaVuSans-30"/>
       <use xlink:href="#DejaVuSans-2e" x="63.623047"/>
       <use xlink:href="#DejaVuSans-30" x="95.410156"/>
      </g>
     </g>
    </g>
    <g id="ytick_2">
     <g id="line2d_11">
      <g>
       <use xlink:href="#m8c4ab918c7" x="54.29" y="230.836365" style="stroke: #000000; stroke-width: 0.8"/>
      </g>
     </g>
     <g id="text_12">
      <!-- 0.1 -->
      <g transform="translate(31.386875 234.635583) scale(0.1 -0.1)">
       <use xlink:href="#DejaVuSans-30"/>
       <use xlink:href="#DejaVuSans-2e" x="63.623047"/>
       <use xlink:href="#DejaVuSans-31" x="95.410156"/>
      </g>
     </g>
    </g>
    <g id="ytick_3">
     <g id="line2d_12">
      <g>
       <use xlink:href="#m8c4ab918c7" x="54.29" y="172.682977" style="stroke: #000000; stroke-width: 0.8"/>
      </g>
     </g>
     <g id="text_13">
      <!-- 0.2 -->
      <g transform="translate(31.386875 176.482196) scale(0.1 -0.1)">
       <use xlink:href="#DejaVuSans-30"/>
       <use xlink:href="#DejaVuSans-2e" x="63.623047"/>
       <use xlink:href="#DejaVuSans-32" x="95.410156"/>
      </g>
     </g>
    </g>
    <g id="ytick_4">
     <g id="line2d_13">
      <g>
       <use xlink:href="#m8c4ab918c7" x="54.29" y="114.52959" style="stroke: #000000; stroke-width: 0.8"/>
      </g>
     </g>
     <g id="text_14">
      <!-- 0.3 -->
      <g transform="translate(31.386875 118.328809) scale(0.1 -0.1)">
       <use xlink:href="#DejaVuSans-30"/>
       <use xlink:href="#DejaVuSans-2e" x="63.623047"/>
       <use xlink:href="#DejaVuSans-33" x="95.410156"/>
      </g>
     </g>
    </g>
    <g id="ytick_5">
     <g id="line2d_14">
      <g>
       <use xlink:href="#m8c4ab918c7" x="54.29" y="56.376203" style="stroke: #000000; stroke-width: 0.8"/>
      </g>
     </g>
     <g id="text_15">
      <!-- 0.4 -->
      <g transform="translate(31.386875 60.175422) scale(0.1 -0.1)">
       <use xlink:href="#DejaVuSans-30"/>
       <use xlink:href="#DejaVuSans-2e" x="63.623047"/>
       <use xlink:href="#DejaVuSans-34" x="95.410156"/>
      </g>
     </g>
    </g>
    <g id="text_16">
     <!-- Train Accuracy -->
     <g transform="translate(24.059375 212.2375) rotate(-90) scale(0.16 -0.16)">
      <defs>
       <path id="DejaVuSans-54" d="M -19 4666 
L 3928 4666 
L 3928 4134 
L 2272 4134 
L 2272 0 
L 1638 0 
L 1638 4134 
L -19 4134 
L -19 4666 
z
" transform="scale(0.015625)"/>
       <path id="DejaVuSans-72" d="M 2631 2963 
Q 2534 3019 2420 3045 
Q 2306 3072 2169 3072 
Q 1681 3072 1420 2755 
Q 1159 2438 1159 1844 
L 1159 0 
L 581 0 
L 581 3500 
L 1159 3500 
L 1159 2956 
Q 1341 3275 1631 3429 
Q 1922 3584 2338 3584 
Q 2397 3584 2469 3576 
Q 2541 3569 2628 3553 
L 2631 2963 
z
" transform="scale(0.015625)"/>
       <path id="DejaVuSans-41" d="M 2188 4044 
L 1331 1722 
L 3047 1722 
L 2188 4044 
z
M 1831 4666 
L 2547 4666 
L 4325 0 
L 3669 0 
L 3244 1197 
L 1141 1197 
L 716 0 
L 50 0 
L 1831 4666 
z
" transform="scale(0.015625)"/>
       <path id="DejaVuSans-79" d="M 2059 -325 
Q 1816 -950 1584 -1140 
Q 1353 -1331 966 -1331 
L 506 -1331 
L 506 -850 
L 844 -850 
Q 1081 -850 1212 -737 
Q 1344 -625 1503 -206 
L 1606 56 
L 191 3500 
L 800 3500 
L 1894 763 
L 2988 3500 
L 3597 3500 
L 2059 -325 
z
" transform="scale(0.015625)"/>
      </defs>
      <use xlink:href="#DejaVuSans-54"/>
      <use xlink:href="#DejaVuSans-72" x="46.333984"/>
      <use xlink:href="#DejaVuSans-61" x="87.447266"/>
      <use xlink:href="#DejaVuSans-69" x="148.726562"/>
      <use xlink:href="#DejaVuSans-6e" x="176.509766"/>
      <use xlink:href="#DejaVuSans-20" x="239.888672"/>
      <use xlink:href="#DejaVuSans-41" x="271.675781"/>
      <use xlink:href="#DejaVuSans-63" x="338.333984"/>
      <use xlink:href="#DejaVuSans-63" x="393.314453"/>
      <use xlink:href="#DejaVuSans-75" x="448.294922"/>
      <use xlink:href="#DejaVuSans-72" x="511.673828"/>
      <use xlink:href="#DejaVuSans-61" x="552.787109"/>
      <use xlink:href="#DejaVuSans-63" x="614.066406"/>
      <use xlink:href="#DejaVuSans-79" x="669.046875"/>
     </g>
    </g>
   </g>
   <g id="line2d_15">
    <path d="M 72.366752 276.254931 
L 73.356027 276.9433 
L 74.345302 273.157272 
L 75.334577 270.403797 
L 76.323852 275.979584 
L 77.313127 270.885655 
L 78.302402 269.371244 
L 79.291677 266.617769 
L 80.280952 270.679145 
L 81.270227 261.868025 
L 82.259502 260.147104 
L 83.248777 261.661515 
L 84.238052 254.777828 
L 85.227327 256.70526 
L 86.216602 255.466197 
L 88.195152 241.492312 
L 89.184427 239.840227 
L 90.173702 240.66627 
L 91.162977 237.430937 
L 92.152252 234.815136 
L 93.141527 240.459759 
L 94.130802 235.228157 
L 95.120077 218.844982 
L 96.109352 216.986387 
L 97.098627 217.12406 
L 98.087902 222.011478 
L 99.077177 205.008771 
L 100.066452 220.015209 
L 101.055727 208.794799 
L 102.045002 205.903651 
L 103.034277 196.266489 
L 104.023552 190.071171 
L 105.012827 225.384485 
L 106.002102 190.621866 
L 106.991377 204.526913 
L 107.980652 188.419086 
L 108.969927 200.603212 
L 109.959202 183.875852 
L 110.948477 175.202407 
L 111.937752 201.016233 
L 112.927027 172.999627 
L 113.916302 176.647981 
L 114.905577 169.901968 
L 115.894852 166.666635 
L 116.884127 168.249883 
L 117.873402 162.054565 
L 118.862677 165.634082 
L 119.851952 176.303797 
L 120.841227 183.187484 
L 121.830502 155.170878 
L 122.819777 151.316013 
L 123.809052 159.645274 
L 124.798327 158.475048 
L 125.787602 152.555077 
L 126.776877 140.026767 
L 127.766152 178.024718 
L 128.755427 154.620183 
L 129.744702 175.477754 
L 130.733977 142.642568 
L 131.723252 138.374682 
L 132.712527 139.06305 
L 133.701802 137.342129 
L 134.691077 140.439788 
L 136.669627 158.681558 
L 137.658902 158.750395 
L 138.648177 181.053541 
L 139.637452 131.215647 
L 140.626727 153.725304 
L 141.616002 132.523548 
L 142.605277 119.788727 
L 143.594552 128.049151 
L 144.583827 152.830424 
L 145.573102 159.232253 
L 146.562377 138.305845 
L 147.551652 141.128156 
L 148.540927 128.668683 
L 149.530202 134.588654 
L 150.519477 164.050834 
L 151.508752 146.015574 
L 152.498027 115.727352 
L 153.487302 124.263123 
L 154.476577 114.694799 
L 155.465852 125.915208 
L 156.455127 143.812794 
L 157.444402 144.845347 
L 158.433677 115.452004 
L 159.422952 150.008113 
L 160.412227 119.788727 
L 161.401502 120.270585 
L 162.390777 118.962685 
L 163.380052 127.63613 
L 164.369327 115.245494 
L 165.358602 135.208186 
L 166.347877 142.986752 
L 167.337152 131.009137 
L 168.326427 129.701236 
L 169.315702 131.422158 
L 170.304977 125.571024 
L 171.294252 125.502187 
L 172.283527 123.781265 
L 173.272802 121.578486 
L 174.262077 107.604601 
L 175.251352 159.782948 
L 176.240627 118.136642 
L 177.229902 128.944031 
L 178.219177 109.39436 
L 179.208452 112.629693 
L 180.197727 92.667 
L 181.187002 117.930131 
L 182.176277 122.404528 
L 183.165552 107.811112 
L 184.154827 95.007454 
L 185.144102 117.585947 
L 186.133377 100.37673 
L 187.122652 163.775487 
L 188.111927 121.509649 
L 189.101202 95.213965 
L 190.090477 119.995238 
L 191.079752 96.453028 
L 192.069027 118.343153 
L 193.058302 136.309576 
L 194.047577 90.464221 
L 195.036852 105.126474 
L 196.026127 94.181412 
L 197.015402 135.277023 
L 198.004677 128.944031 
L 198.993952 105.608332 
L 199.983227 98.17395 
L 200.972502 143.881631 
L 201.961777 132.454711 
L 202.951052 103.543226 
L 203.940327 139.476072 
L 204.929602 102.923694 
L 205.918877 85.439129 
L 206.908152 99.206503 
L 207.897427 135.208186 
L 208.886702 140.233277 
L 209.875977 115.10782 
L 210.865252 116.071536 
L 211.854527 109.876218 
L 212.843802 80.689385 
L 213.833077 102.717183 
L 214.822352 94.387922 
L 215.811627 115.10782 
L 216.800902 81.171243 
L 217.790177 106.778559 
L 218.779452 104.162758 
L 219.768727 128.117988 
L 220.758002 136.447249 
L 221.747277 142.023036 
L 222.736552 143.743958 
L 223.725827 86.609356 
L 224.715102 97.279071 
L 225.704377 71.327571 
L 226.693652 98.862319 
L 227.682927 96.934886 
L 228.672202 108.843665 
L 229.661477 101.753467 
L 230.650752 92.116305 
L 231.640027 125.43335 
L 232.629302 89.225157 
L 233.618577 87.435398 
L 234.607852 99.550687 
L 235.597127 63.480168 
L 236.586402 94.938617 
L 237.575677 86.540519 
L 238.564952 99.550687 
L 239.554227 108.568317 
L 240.543502 99.48185 
L 241.532777 93.837227 
L 242.522052 75.939641 
L 243.511327 89.569341 
L 244.500602 105.952516 
L 245.489877 86.815867 
L 246.479152 110.977608 
L 247.468427 103.543226 
L 248.457702 88.536788 
L 249.446977 86.196335 
L 250.436252 95.626986 
L 251.425527 101.615793 
L 252.414802 82.685654 
L 254.393352 92.873511 
L 255.382627 70.708039 
L 256.371902 93.493043 
L 257.361177 91.290263 
L 258.350452 131.215647 
L 259.339727 76.352662 
L 260.329002 90.120036 
L 261.318277 70.363855 
L 262.307552 126.741251 
L 263.296827 77.454052 
L 264.286102 80.895896 
L 265.275377 91.772121 
L 266.264652 95.626986 
L 267.253927 107.742275 
L 268.243202 67.266196 
L 269.232477 76.972194 
L 270.221752 83.374023 
L 271.211027 75.182436 
L 272.200302 103.061368 
L 273.189577 106.296701 
L 274.178852 97.829766 
L 275.168127 84.957271 
L 276.157402 66.715501 
L 277.146677 135.001675 
L 278.135952 80.620548 
L 279.125227 74.494067 
L 280.114502 87.228888 
L 281.103777 96.659539 
L 282.093052 149.939276 
L 283.082327 84.681924 
L 284.071602 81.997286 
L 285.060877 71.671755 
L 286.050152 73.186166 
L 287.039427 64.375047 
L 288.028702 106.227864 
L 289.017977 68.229912 
L 290.007252 66.440153 
L 290.996527 98.105113 
L 291.985802 73.599188 
L 292.975077 84.957271 
L 293.964352 84.406576 
L 294.953627 92.942348 
L 295.942902 60.038324 
L 296.932177 86.609356 
L 297.921452 78.211258 
L 298.910727 104.369268 
L 299.900002 71.327571 
L 300.889277 104.919963 
L 301.878552 108.224133 
L 302.867827 110.082728 
L 303.857102 83.098676 
L 304.846377 92.804674 
L 305.835652 83.855881 
L 306.824927 125.502187 
L 308.803477 72.428961 
L 309.792752 110.013892 
L 310.782027 94.525596 
L 311.771302 65.269926 
L 312.760577 121.716159 
L 313.749852 138.650029 
L 314.739127 75.320109 
L 315.728402 69.262465 
L 316.717677 86.74703 
L 317.706952 55.701602 
L 318.696227 88.949809 
L 319.685502 67.954564 
L 320.674777 102.510673 
L 321.664052 63.893189 
L 322.653327 93.011185 
L 323.642602 78.761953 
L 324.631877 66.577827 
L 325.621152 91.909795 
L 326.610427 76.490336 
L 327.599702 94.594433 
L 328.588977 73.874535 
L 329.578252 63.411331 
L 330.567527 74.975925 
L 331.556802 108.155296 
L 332.546077 60.175998 
L 333.535352 76.62801 
L 334.524627 102.304162 
L 335.513902 60.79553 
L 336.503177 86.265172 
L 337.492452 91.3591 
L 338.481727 65.476437 
L 339.471002 75.044762 
L 340.460277 71.947103 
L 341.449552 101.546957 
L 342.438827 70.708039 
L 343.428102 85.989824 
L 344.417377 52.603942 
L 345.406652 74.769414 
L 346.395927 66.50899 
L 347.385202 78.004747 
L 348.374477 63.962026 
L 349.363752 71.052223 
L 350.353027 63.411331 
L 351.342302 87.297725 
L 352.331577 73.255003 
L 353.320852 121.027791 
L 354.310127 116.553394 
L 355.299402 57.835544 
L 356.288677 86.678193 
L 357.277952 85.232619 
L 358.267227 119.031521 
L 359.256502 85.507966 
L 360.245777 59.69414 
L 361.235052 69.537812 
L 362.224327 45.582582 
L 363.213602 63.135983 
L 364.202877 94.594433 
L 365.192152 73.668024 
L 366.181427 61.552735 
L 367.170702 58.868098 
L 368.159977 88.949809 
L 369.149252 87.022377 
L 370.138527 70.983387 
L 371.127802 115.245494 
L 372.117077 105.746006 
L 373.106352 65.20109 
L 374.095627 74.907088 
L 375.084902 69.468975 
L 376.074177 87.641909 
L 377.063452 58.730424 
L 378.052727 77.798237 
L 379.042002 74.907088 
L 380.031277 61.621572 
L 381.020552 76.146152 
L 382.009827 70.776876 
L 382.999102 56.38997 
L 383.988377 58.661587 
L 384.977652 56.114623 
L 385.966927 60.864367 
L 386.956202 66.784338 
L 387.945477 57.560197 
L 388.934752 53.085801 
L 389.924027 49.437446 
L 390.913302 71.740592 
L 391.902577 61.552735 
L 392.891852 107.19158 
L 393.881127 68.574096 
L 394.870402 81.997286 
L 395.859677 70.845713 
L 396.848952 95.145128 
L 397.838227 41.45237 
L 398.827502 47.303503 
L 399.816777 59.831814 
L 400.806052 109.876218 
L 401.795327 81.446591 
L 402.784602 42.003065 
L 403.773877 62.378778 
L 404.763152 72.841982 
L 405.752427 68.574096 
L 406.741702 60.726693 
L 407.730977 65.063416 
L 408.720252 71.189897 
L 409.709527 67.128522 
L 410.698802 76.214989 
L 411.688077 62.241104 
L 412.677352 59.074608 
L 413.666627 97.967439 
L 414.655902 57.147176 
L 415.645177 66.646664 
L 416.634452 57.28485 
L 417.623727 59.281119 
L 418.613002 54.462538 
L 419.602277 88.743299 
L 420.591552 101.065098 
L 421.580827 95.007454 
L 422.570102 45.100724 
L 423.559377 63.617842 
L 423.559377 63.617842 
" clip-path="url(#pc1147a584b)" style="fill: none; stroke: #000000; stroke-width: 1.5; stroke-linecap: square"/>
   </g>
   <g id="line2d_16">
    <path d="M 72.276818 284.143636 
L 73.176159 283.765034 
L 74.0755 280.357609 
L 74.974841 278.085992 
L 75.874182 272.482671 
L 76.773523 264.532012 
L 78.572205 251.886679 
L 79.471545 245.22327 
L 80.370886 240.452875 
L 81.270227 239.392788 
L 82.169568 236.363965 
L 83.068909 227.807542 
L 83.96825 224.703 
L 84.867591 218.493914 
L 85.766932 218.493914 
L 86.666273 213.269196 
L 87.565614 214.177842 
L 89.364295 202.744038 
L 90.263636 201.986833 
L 91.162977 200.926745 
L 92.062318 192.06744 
L 92.961659 192.370322 
L 93.861 187.599927 
L 94.760341 181.466562 
L 95.659682 182.375209 
L 96.559023 179.87643 
L 97.458364 174.954594 
L 98.357705 179.043504 
L 99.257045 171.395728 
L 100.156386 170.032758 
L 101.055727 158.674674 
L 101.955068 162.460702 
L 102.854409 157.160263 
L 103.75375 163.142187 
L 104.653091 158.144631 
L 105.552432 155.948734 
L 106.451773 149.739649 
L 107.351114 147.013709 
L 108.250455 145.575018 
L 109.149795 145.650739 
L 110.049136 141.107505 
L 110.948477 140.42602 
L 111.847818 142.621917 
L 112.747159 137.70008 
L 113.6465 137.775801 
L 114.545841 135.655625 
L 115.445182 135.504184 
L 116.344523 133.081126 
L 118.143205 130.203745 
L 119.042545 131.566715 
L 119.941886 126.79632 
L 120.841227 123.99466 
L 121.740568 126.114835 
L 122.639909 121.950205 
L 123.53925 117.028369 
L 124.438591 110.36496 
L 125.337932 114.378149 
L 126.237273 116.119722 
L 127.136614 110.667842 
L 128.035955 111.80365 
L 128.935295 106.427491 
L 129.834636 109.00199 
L 130.733977 110.667842 
L 132.532659 104.458756 
L 133.432 106.427491 
L 134.331341 106.35177 
L 135.230682 95.44801 
L 136.130023 102.414301 
L 137.029364 99.764082 
L 137.928705 100.521287 
L 138.828045 92.646349 
L 140.626727 104.610197 
L 141.526068 94.766525 
L 142.425409 98.022509 
L 143.32475 99.234038 
L 144.224091 88.178837 
L 145.123432 92.267747 
L 146.022773 87.800234 
L 146.922114 88.936042 
L 147.821455 85.98294 
L 148.720795 85.225735 
L 149.620136 85.755779 
L 150.519477 87.118749 
L 151.418818 84.089926 
L 152.318159 83.711324 
L 153.2175 80.379619 
L 154.116841 80.45534 
L 155.016182 92.343467 
L 155.915523 81.136825 
L 156.814864 87.118749 
L 157.714205 82.802677 
L 158.613545 84.998573 
L 159.512886 77.653679 
L 160.412227 76.214989 
L 161.311568 82.424074 
L 162.210909 77.880841 
L 163.11025 77.577959 
L 164.009591 73.64049 
L 164.908932 80.152458 
L 165.808273 78.410885 
L 166.707614 75.912106 
L 167.606955 74.927739 
L 168.506295 74.549136 
L 169.405636 81.515428 
L 170.304977 71.671755 
L 171.204318 67.582845 
L 172.103659 68.870095 
L 173.003 71.747476 
L 173.902341 66.977081 
L 174.801682 68.415771 
L 175.701023 66.447037 
L 176.600364 68.112889 
L 178.399045 65.916993 
L 179.298386 75.230621 
L 180.197727 65.916993 
L 181.097068 68.567212 
L 181.996409 65.235508 
L 182.89575 72.959005 
L 183.795091 63.948259 
L 184.694432 65.765552 
L 185.593773 61.752362 
L 186.493114 65.159787 
L 187.392455 64.856905 
L 188.291795 64.326861 
L 190.090477 67.279963 
L 190.989818 62.509568 
L 191.889159 61.828083 
L 192.7885 64.932626 
L 193.687841 56.754806 
L 194.587182 65.084067 
L 195.486523 62.206686 
L 196.385864 58.64782 
L 197.285205 65.841272 
L 198.184545 58.042055 
L 199.083886 58.269217 
L 199.983227 61.676642 
L 200.882568 63.266773 
L 201.781909 60.540833 
L 202.68125 57.209129 
L 203.580591 57.587732 
L 204.479932 56.981967 
L 205.379273 57.814893 
L 206.278614 57.36057 
L 207.177955 57.587732 
L 208.077295 49.485632 
L 208.976636 57.814893 
L 209.875977 55.013233 
L 210.775318 56.300482 
L 211.674659 54.028866 
L 212.574 57.663452 
L 214.372682 53.195939 
L 215.272023 56.376203 
L 216.171364 48.349824 
L 217.970045 56.149041 
L 218.869386 51.984411 
L 219.768727 51.605808 
L 220.668068 49.788514 
L 221.567409 55.618997 
L 222.46675 46.45681 
L 223.366091 54.180307 
L 224.265432 56.830526 
L 225.164773 49.18275 
L 226.064114 47.365457 
L 226.963455 43.503708 
L 227.862795 50.318558 
L 228.762136 50.242838 
L 229.661477 52.363013 
L 230.560818 45.321002 
L 231.460159 52.287293 
L 232.3595 43.049385 
L 233.258841 56.073321 
L 234.158182 47.441177 
L 235.057523 52.211572 
L 235.956864 50.167117 
L 236.856205 46.911133 
L 237.755545 48.046942 
L 238.654886 39.71768 
L 239.554227 50.772882 
L 240.453568 52.968778 
L 241.352909 45.321002 
L 242.25225 41.610694 
L 243.151591 49.031309 
L 244.050932 52.211572 
L 244.950273 42.065018 
L 245.849614 40.323445 
L 246.748955 52.363013 
L 247.648295 48.046942 
L 248.547636 46.45681 
L 249.446977 44.185193 
L 250.346318 50.015676 
L 251.245659 38.581872 
L 253.044341 46.986854 
L 253.943682 39.263357 
L 254.843023 41.610694 
L 255.742364 46.986854 
L 256.641705 40.626327 
L 257.541045 46.002487 
L 258.440386 41.610694 
L 259.339727 41.232092 
L 260.239068 45.169561 
L 261.138409 44.033752 
L 262.03775 47.441177 
L 262.937091 45.321002 
L 263.836432 41.686415 
L 264.735773 39.64196 
L 265.635114 45.169561 
L 266.534455 44.790958 
L 267.433795 47.895501 
L 268.333136 43.125106 
L 269.232477 44.563796 
L 270.131818 38.27899 
L 271.031159 44.866678 
L 271.9305 39.869122 
L 272.829841 42.822223 
L 273.729182 41.534974 
L 274.628523 39.490519 
L 275.527864 42.973664 
L 276.427205 42.292179 
L 277.326545 38.506152 
L 278.225886 41.686415 
L 279.125227 41.00493 
L 280.024568 43.352267 
L 280.923909 42.065018 
L 281.82325 42.292179 
L 282.722591 41.989297 
L 283.621932 39.793401 
L 284.521273 40.096283 
L 285.420614 34.795844 
L 286.319955 41.762135 
L 288.118636 38.809034 
L 289.017977 37.976108 
L 289.917318 32.221345 
L 290.816659 44.185193 
L 291.716 37.294623 
L 292.615341 35.855932 
L 293.514682 38.27899 
L 294.414023 43.958032 
L 295.313364 36.385976 
L 296.212705 38.657593 
L 297.112045 37.824667 
L 298.011386 39.944842 
L 298.910727 32.448507 
L 299.810068 33.357154 
L 300.709409 39.490519 
L 301.60875 38.809034 
L 302.508091 37.446064 
L 303.407432 41.08065 
L 304.306773 35.401609 
L 305.206114 33.357154 
L 306.105455 42.897944 
L 307.004795 42.670782 
L 307.904136 39.869122 
L 308.803477 39.111916 
L 309.702818 40.323445 
L 310.602159 33.129992 
L 311.5015 42.973664 
L 312.400841 38.884754 
L 313.300182 31.312699 
L 314.199523 34.871565 
L 315.098864 36.385976 
L 315.998205 34.795844 
L 316.897545 38.127549 
L 317.796886 37.143182 
L 318.696227 43.579429 
L 319.595568 36.158814 
L 320.494909 40.399165 
L 321.39425 41.08065 
L 322.293591 47.744059 
L 323.192932 32.599948 
L 324.092273 40.853489 
L 324.991614 35.855932 
L 325.890955 38.960475 
L 326.790295 34.492962 
L 327.689636 35.250168 
L 328.588977 32.978551 
L 329.488318 30.252611 
L 330.387659 34.644403 
L 331.287 34.114359 
L 332.186341 35.174447 
L 333.085682 37.824667 
L 333.985023 41.307812 
L 334.884364 35.098727 
L 335.783705 35.098727 
L 336.683045 37.748946 
L 337.582386 31.161258 
L 338.481727 30.10117 
L 339.381068 40.702048 
L 340.280409 37.976108 
L 341.17975 41.610694 
L 342.079091 32.221345 
L 342.978432 33.811477 
L 343.877773 38.657593 
L 344.777114 30.025449 
L 345.676455 39.869122 
L 346.575795 30.328331 
L 347.475136 34.871565 
L 348.374477 35.780212 
L 349.273818 27.223789 
L 350.173159 34.038639 
L 351.0725 30.479773 
L 351.971841 34.720124 
L 352.871182 33.811477 
L 353.770523 34.19008 
L 354.669864 37.673225 
L 355.569205 34.417242 
L 356.468545 34.720124 
L 357.367886 35.325888 
L 358.267227 29.268244 
L 359.166568 33.660036 
L 360.065909 34.568683 
L 360.96525 34.947285 
L 361.864591 32.297066 
L 362.763932 35.62877 
L 363.663273 33.432874 
L 364.562614 31.842743 
L 365.461955 40.702048 
L 366.361295 29.343964 
L 367.260636 23.816364 
L 368.159977 34.2658 
L 369.059318 33.357154 
L 369.958659 30.706934 
L 370.858 36.537417 
L 371.757341 34.568683 
L 372.656682 35.62877 
L 373.556023 31.615581 
L 374.455364 34.720124 
L 375.354705 32.751389 
L 376.254045 30.17689 
L 377.153386 26.163701 
L 378.952068 35.55305 
L 379.851409 38.35471 
L 380.75075 35.704491 
L 381.650091 34.114359 
L 382.549432 36.99174 
L 383.448773 31.918463 
L 384.348114 35.325888 
L 385.247455 36.310255 
L 386.146795 34.568683 
L 387.046136 27.072348 
L 387.945477 36.764579 
L 388.844818 38.127549 
L 389.744159 31.691301 
L 390.6435 34.644403 
L 391.542841 30.858375 
L 392.442182 30.17689 
L 393.341523 29.343964 
L 394.240864 34.417242 
L 396.039545 29.419685 
L 396.938886 37.748946 
L 397.838227 32.221345 
L 398.737568 28.662479 
L 399.636909 31.312699 
L 400.53625 31.388419 
L 401.435591 29.495405 
L 402.334932 33.660036 
L 403.234273 29.646846 
L 404.133614 31.53986 
L 405.032955 29.874008 
L 405.932295 31.388419 
L 406.831636 36.537417 
L 407.730977 32.82711 
L 408.630318 36.234535 
L 409.529659 29.949729 
L 410.429 32.751389 
L 411.328341 29.343964 
L 412.227682 34.644403 
L 413.127023 34.2658 
L 414.026364 34.19008 
L 414.925705 32.675669 
L 415.825045 36.688858 
L 416.724386 34.644403 
L 417.623727 31.085537 
L 418.523068 32.297066 
L 419.422409 31.009816 
L 420.32175 31.53986 
L 421.221091 33.508595 
L 422.120432 30.555493 
L 423.019773 35.401609 
L 423.919114 35.780212 
L 424.818455 36.764579 
L 425.717795 30.025449 
L 426.617136 30.252611 
L 427.516477 31.388419 
L 428.415818 36.840299 
L 429.315159 33.205713 
L 430.2145 32.145625 
L 431.113841 33.508595 
L 432.013182 31.312699 
L 432.013182 31.312699 
" clip-path="url(#pc1147a584b)" style="fill: none; stroke: #ff0000; stroke-width: 1.5; stroke-linecap: square"/>
   </g>
   <g id="line2d_17">
    <path d="M 72.276818 282.980293 
L 73.176159 282.305692 
L 74.0755 282.52597 
L 74.974841 282.539737 
L 75.874182 282.009693 
L 77.672864 281.589789 
L 78.572205 281.582905 
L 79.471545 280.71556 
L 80.370886 280.109796 
L 82.169568 279.758728 
L 83.068909 279.077243 
L 83.96825 279.304404 
L 85.766932 278.271851 
L 86.666273 278.278735 
L 87.565614 277.817528 
L 88.464955 278.037806 
L 90.263636 277.624785 
L 91.162977 277.101625 
L 92.062318 277.438925 
L 92.961659 276.81251 
L 93.861 276.826277 
L 95.659682 276.020886 
L 96.559023 275.208611 
L 97.458364 274.830008 
L 98.357705 274.327499 
L 99.257045 273.184807 
L 100.156386 273.253644 
L 101.055727 273.074668 
L 101.955068 271.856255 
L 102.854409 271.512071 
L 103.75375 270.52082 
L 104.653091 270.162868 
L 105.552432 268.469481 
L 106.451773 267.698508 
L 107.351114 266.156562 
L 108.250455 266.390608 
L 109.149795 265.268567 
L 110.049136 263.533878 
L 110.948477 262.370535 
L 111.847818 261.592678 
L 112.747159 259.568874 
L 113.6465 257.255955 
L 114.545841 257.214653 
L 115.445182 256.271588 
L 116.344523 254.344156 
L 117.243864 253.607601 
L 119.042545 250.709569 
L 119.941886 250.000549 
L 120.841227 248.727067 
L 121.740568 248.114419 
L 122.639909 246.648194 
L 123.53925 245.808384 
L 124.438591 245.760198 
L 125.337932 244.163183 
L 126.237273 245.120015 
L 127.136614 243.054909 
L 128.035955 243.791464 
L 128.935295 242.125611 
L 131.633318 240.012319 
L 132.532659 239.158742 
L 133.432 239.069254 
L 134.331341 238.53921 
L 135.230682 238.821442 
L 136.130023 236.770103 
L 137.029364 238.511676 
L 137.928705 237.017916 
L 138.828045 236.536057 
L 139.727386 235.827038 
L 141.526068 234.883973 
L 142.425409 235.771968 
L 143.32475 233.699978 
L 144.224091 234.870205 
L 145.123432 233.362678 
L 146.022773 232.591705 
L 146.922114 232.013475 
L 147.821455 232.068545 
L 148.720795 231.903336 
L 149.620136 231.889569 
L 151.418818 230.02409 
L 152.318159 229.611068 
L 153.2175 229.404558 
L 154.116841 227.442707 
L 155.016182 229.817579 
L 155.915523 228.633585 
L 156.814864 228.351354 
L 157.714205 226.093504 
L 158.613545 226.575362 
L 159.512886 226.251829 
L 160.412227 224.888859 
L 161.311568 227.064104 
L 162.210909 224.985231 
L 163.11025 224.338164 
L 164.009591 224.613512 
L 164.908932 223.312495 
L 165.808273 223.828771 
L 166.707614 223.422634 
L 167.606955 222.569057 
L 168.506295 223.271193 
L 169.405636 221.26804 
L 170.304977 220.366277 
L 171.204318 220.827484 
L 172.103659 219.898186 
L 173.003 220.655392 
L 173.902341 219.712327 
L 174.801682 218.41131 
L 175.701023 218.693541 
L 176.600364 219.313073 
L 177.499705 218.142846 
L 178.399045 218.906935 
L 179.298386 216.738574 
L 180.197727 217.344338 
L 181.097068 216.07774 
L 181.996409 217.007038 
L 182.89575 216.112158 
L 183.795091 214.06082 
L 184.694432 214.804258 
L 185.593773 214.859327 
L 186.493114 213.344916 
L 187.392455 215.065838 
L 188.291795 212.980081 
L 189.191136 213.000732 
L 190.090477 211.300461 
L 190.989818 211.685948 
L 191.889159 212.807989 
L 192.7885 211.692831 
L 193.687841 212.264177 
L 194.587182 210.30921 
L 195.486523 210.901207 
L 196.385864 210.853022 
L 197.285205 209.180286 
L 198.184545 208.925589 
L 199.083886 209.751632 
L 199.983227 209.930607 
L 200.882568 206.832948 
L 201.781909 208.760381 
L 202.68125 208.058245 
L 203.580591 206.74346 
L 204.479932 207.97564 
L 205.379273 206.282253 
L 206.278614 205.112027 
L 207.177955 205.628303 
L 208.077295 206.27537 
L 208.976636 204.403007 
L 209.875977 203.955567 
L 210.775318 205.229049 
L 211.674659 205.862348 
L 212.574 204.52003 
L 213.473341 204.471844 
L 215.272023 201.862926 
L 216.171364 202.358552 
L 217.070705 202.372319 
L 217.970045 201.959298 
L 218.869386 202.695852 
L 219.768727 201.47744 
L 220.668068 201.174558 
L 221.567409 201.677067 
L 222.46675 201.443021 
L 223.366091 200.582561 
L 224.265432 200.238376 
L 225.164773 199.605077 
L 226.064114 198.324711 
L 226.963455 199.481171 
L 227.862795 199.990564 
L 228.762136 198.627593 
L 229.661477 197.725831 
L 230.560818 198.48992 
L 232.3595 195.832817 
L 233.258841 197.003043 
L 234.158182 195.130681 
L 235.057523 195.860351 
L 235.956864 195.406028 
L 236.856205 196.879137 
L 237.755545 194.820915 
L 238.654886 195.591888 
L 239.554227 194.772729 
L 240.453568 194.483614 
L 241.352909 196.280256 
L 242.25225 194.73831 
L 243.151591 194.862217 
L 244.050932 194.256452 
L 244.950273 192.480461 
L 245.849614 192.652553 
L 246.748955 192.680088 
L 247.648295 193.099993 
L 248.547636 190.043636 
L 249.446977 193.416642 
L 250.346318 192.638786 
L 251.245659 189.850893 
L 252.145 190.559912 
L 253.044341 191.062422 
L 253.943682 192.576833 
L 254.843023 191.654419 
L 255.742364 190.236379 
L 256.641705 189.396569 
L 257.541045 189.73387 
L 258.440386 190.318983 
L 259.339727 190.140008 
L 260.239068 188.721968 
L 261.138409 188.660015 
L 262.937091 190.153775 
L 263.836432 189.176291 
L 264.735773 188.749503 
L 265.635114 189.320849 
L 266.534455 187.593043 
L 267.433795 188.205691 
L 268.333136 186.236957 
L 269.232477 186.966628 
L 270.131818 187.118069 
L 271.031159 185.052963 
L 271.9305 186.87714 
L 272.829841 185.548588 
L 273.729182 186.773885 
L 274.628523 185.245706 
L 275.527864 184.818917 
L 276.427205 186.767001 
L 277.326545 184.337059 
L 278.225886 186.828954 
L 279.125227 184.22692 
L 280.923909 183.868969 
L 281.82325 184.233804 
L 282.722591 183.097996 
L 283.621932 183.015392 
L 284.521273 183.992875 
L 285.420614 183.538552 
L 286.319955 182.333907 
L 287.219295 182.588603 
L 288.118636 182.650556 
L 289.017977 181.315121 
L 289.917318 181.253168 
L 291.716 181.810746 
L 292.615341 180.144894 
L 293.514682 181.390841 
L 294.414023 180.736891 
L 295.313364 179.704338 
L 296.212705 179.766291 
L 297.112045 180.179312 
L 298.011386 180.71624 
L 298.910727 179.270666 
L 299.810068 180.736891 
L 300.709409 179.084806 
L 301.60875 178.561646 
L 302.508091 179.043504 
L 303.407432 178.706203 
L 304.306773 179.325735 
L 305.206114 178.878296 
L 306.105455 178.010951 
L 307.004795 178.403321 
L 307.904136 178.279415 
L 308.803477 176.530958 
L 309.702818 177.33635 
L 310.602159 176.510307 
L 311.5015 176.255611 
L 312.400841 177.109188 
L 313.300182 175.698032 
L 314.199523 176.902678 
L 315.098864 174.472736 
L 315.998205 176.021566 
L 316.897545 175.037198 
L 317.796886 175.560359 
L 318.696227 175.154221 
L 320.494909 174.176737 
L 322.293591 173.887623 
L 323.192932 174.665479 
L 324.092273 175.26436 
L 324.991614 174.369481 
L 325.890955 173.109766 
L 327.689636 173.632926 
L 328.588977 171.726145 
L 330.387659 171.96019 
L 331.287 171.554053 
L 332.186341 171.664192 
L 333.085682 172.40763 
L 333.985023 171.609122 
L 334.884364 171.099729 
L 335.783705 173.261207 
L 336.683045 171.788098 
L 337.582386 170.528383 
L 338.481727 171.264938 
L 339.381068 170.686708 
L 340.280409 170.934521 
L 341.17975 170.920754 
L 342.079091 168.26365 
L 342.978432 170.404477 
L 343.877773 171.106613 
L 344.777114 170.755545 
L 345.676455 169.309971 
L 346.575795 169.867549 
L 347.475136 168.284301 
L 348.374477 169.192948 
L 349.273818 168.635369 
L 350.173159 168.298069 
L 351.0725 166.893797 
L 351.971841 167.575282 
L 352.871182 167.788676 
L 353.770523 167.781792 
L 354.669864 166.76989 
L 355.569205 167.182912 
L 356.468545 167.465143 
L 357.367886 168.828113 
L 358.267227 168.600951 
L 359.166568 166.453241 
L 360.065909 167.210446 
L 360.96525 167.059005 
L 361.864591 167.148493 
L 362.763932 166.893797 
L 363.663273 165.46199 
L 364.562614 165.696035 
L 365.461955 165.53771 
L 366.361295 163.803021 
L 367.260636 165.826825 
L 368.159977 165.138457 
L 369.059318 165.72357 
L 369.958659 164.271112 
L 370.858 164.93883 
L 371.757341 164.092136 
L 373.556023 162.990746 
L 374.455364 163.403767 
L 375.354705 162.061448 
L 376.254045 163.624045 
L 377.153386 164.684133 
L 378.052727 163.864974 
L 378.952068 161.50387 
L 379.851409 163.644696 
L 380.75075 162.543307 
L 381.650091 162.185355 
L 382.549432 162.708515 
L 383.448773 161.627776 
L 384.348114 161.297359 
L 385.247455 162.261075 
L 386.146795 162.020146 
L 387.046136 161.407498 
L 387.945477 161.035779 
L 388.844818 160.40248 
L 389.744159 160.505735 
L 390.6435 157.993189 
L 391.542841 162.267959 
L 392.442182 159.246021 
L 393.341523 160.636525 
L 395.140205 158.998208 
L 396.039545 160.581456 
L 396.938886 158.282304 
L 397.838227 158.495699 
L 398.737568 158.585187 
L 399.636909 159.87932 
L 400.53625 159.369927 
L 401.435591 160.306108 
L 402.334932 158.309839 
L 403.234273 157.848632 
L 404.133614 158.667791 
L 405.032955 156.341105 
L 405.932295 156.526964 
L 406.831636 157.160263 
L 407.730977 157.463146 
L 408.630318 157.931236 
L 409.529659 157.139612 
L 410.429 156.905567 
L 411.328341 156.05199 
L 412.227682 157.043241 
L 413.127023 156.451244 
L 414.026364 156.175896 
L 414.925705 155.329203 
L 416.724386 155.542597 
L 417.623727 156.547615 
L 418.523068 154.103906 
L 419.422409 155.900549 
L 420.32175 155.143343 
L 421.221091 154.723438 
L 422.120432 154.750973 
L 423.019773 153.291631 
L 423.919114 155.301668 
L 424.818455 155.322319 
L 425.717795 152.87861 
L 426.617136 154.544462 
L 427.516477 155.349854 
L 428.415818 154.269115 
L 429.315159 151.914894 
L 430.2145 153.780373 
L 431.113841 152.995633 
L 432.013182 153.257213 
L 432.013182 153.257213 
" clip-path="url(#pc1147a584b)" style="fill: none; stroke: #ffa500; stroke-width: 1.5; stroke-linecap: square"/>
   </g>
   <g id="line2d_18">
    <path d="M 72.276818 283.537872 
L 73.176159 283.462151 
L 74.0755 283.689313 
L 74.974841 283.765034 
L 75.874182 283.159269 
L 76.773523 282.402064 
L 77.672864 282.856387 
L 78.572205 283.083549 
L 79.471545 282.780666 
L 80.370886 281.796299 
L 81.270227 282.780666 
L 82.169568 282.553505 
L 83.068909 281.039094 
L 84.867591 281.569137 
L 85.766932 279.2218 
L 86.666273 280.58477 
L 88.464955 279.448962 
L 89.364295 279.373241 
L 90.263636 278.843197 
L 91.162977 279.373241 
L 92.062318 277.78311 
L 92.961659 279.14608 
L 93.861 278.540315 
L 94.760341 276.192978 
L 95.659682 277.328786 
L 96.559023 278.237433 
L 97.458364 276.950184 
L 98.357705 276.723022 
L 99.257045 275.814375 
L 100.156386 277.253066 
L 101.055727 274.527126 
L 101.955068 276.268699 
L 102.854409 273.845641 
L 103.75375 274.451405 
L 104.653091 273.76992 
L 105.552432 273.618479 
L 106.451773 272.482671 
L 107.351114 271.725465 
L 108.250455 269.832451 
L 110.049136 270.059613 
L 110.948477 266.803629 
L 111.847818 269.529569 
L 112.747159 265.364938 
L 113.6465 267.333673 
L 114.545841 264.834894 
L 115.445182 263.699086 
L 116.344523 260.745984 
L 117.243864 261.427469 
L 118.143205 258.852971 
L 119.042545 257.41428 
L 119.941886 256.732795 
L 120.841227 256.505633 
L 121.740568 255.899869 
L 122.639909 252.189562 
L 123.53925 252.719605 
L 124.438591 252.492444 
L 125.337932 252.568164 
L 126.237273 248.024931 
L 127.136614 248.176372 
L 128.035955 248.554975 
L 128.935295 245.753314 
L 129.834636 247.116284 
L 130.733977 244.541785 
L 131.633318 243.027374 
L 132.532659 243.78458 
L 133.432 244.011741 
L 134.331341 243.027374 
L 135.230682 242.648771 
L 136.130023 244.768947 
L 137.029364 240.831478 
L 137.928705 240.680037 
L 138.828045 241.967286 
L 139.727386 240.604316 
L 140.626727 239.619949 
L 141.526068 241.05864 
L 142.425409 239.468508 
L 143.32475 237.121171 
L 144.224091 237.802656 
L 145.123432 233.486584 
L 146.022773 233.865187 
L 146.922114 232.199335 
L 147.821455 239.089905 
L 148.720795 234.849554 
L 149.620136 237.954097 
L 150.519477 233.107981 
L 151.418818 234.24379 
L 152.318159 230.836365 
L 153.2175 230.987806 
L 154.116841 232.95654 
L 155.016182 230.533482 
L 155.915523 226.974616 
L 156.814864 228.640469 
L 157.714205 231.139247 
L 158.613545 229.549115 
L 159.512886 229.321954 
L 160.412227 226.217411 
L 161.311568 228.261866 
L 162.210909 226.596014 
L 163.11025 226.14169 
L 164.009591 228.86763 
L 164.908932 224.475838 
L 165.808273 223.112868 
L 166.707614 223.34003 
L 167.606955 224.475838 
L 168.506295 221.749898 
L 169.405636 223.794353 
L 170.304977 223.34003 
L 171.204318 219.478281 
L 172.103659 224.400117 
L 173.003 221.068413 
L 173.902341 221.825618 
L 174.801682 216.676621 
L 175.701023 225.384485 
L 176.600364 218.796796 
L 177.499705 222.204221 
L 178.399045 219.856884 
L 179.298386 218.493914 
L 180.197727 220.235487 
L 181.097068 213.950681 
L 181.996409 220.916972 
L 182.89575 216.222297 
L 183.795091 213.87496 
L 184.694432 213.496357 
L 185.593773 215.313651 
L 186.493114 214.329283 
L 187.392455 215.010768 
L 188.291795 216.070856 
L 189.191136 214.935048 
L 190.090477 215.692253 
L 190.989818 216.146577 
L 191.889159 212.284828 
L 192.7885 212.51199 
L 193.687841 216.070856 
L 194.587182 209.937491 
L 195.486523 213.117755 
L 196.385864 212.663431 
L 197.285205 209.104565 
L 198.184545 211.14902 
L 199.083886 206.605787 
L 199.983227 212.587711 
L 200.882568 207.741595 
L 201.781909 209.407447 
L 202.68125 206.605787 
L 203.580591 208.953124 
L 204.479932 208.801683 
L 205.379273 206.151463 
L 206.278614 207.438713 
L 207.177955 207.893036 
L 208.077295 205.167096 
L 208.976636 206.832948 
L 209.875977 210.846138 
L 210.775318 205.091376 
L 211.674659 204.258449 
L 212.574 199.715216 
L 213.473341 200.699583 
L 214.372682 205.015655 
L 215.272023 201.305348 
L 216.171364 201.835392 
L 217.070705 200.018098 
L 217.970045 200.472422 
L 218.869386 205.69714 
L 219.768727 198.95801 
L 220.668068 201.759671 
L 221.567409 199.185172 
L 222.46675 199.488054 
L 223.366091 199.412334 
L 224.265432 199.942378 
L 225.164773 198.88229 
L 226.064114 198.427967 
L 226.963455 196.459232 
L 227.862795 199.942378 
L 228.762136 197.973643 
L 229.661477 202.9712 
L 230.560818 199.488054 
L 231.460159 199.109452 
L 232.3595 196.383512 
L 233.258841 194.566218 
L 234.158182 194.414777 
L 235.057523 198.049364 
L 235.956864 192.976087 
L 236.856205 194.187615 
L 237.755545 191.840278 
L 238.654886 191.537396 
L 239.554227 196.307791 
L 240.453568 197.292158 
L 241.352909 193.50613 
L 242.25225 196.686394 
L 243.151591 192.218881 
L 244.050932 191.234514 
L 244.950273 194.717659 
L 245.849614 194.641939 
L 246.748955 194.036174 
L 247.648295 196.383512 
L 248.547636 192.900366 
L 249.446977 187.221324 
L 250.346318 193.43041 
L 251.245659 189.947264 
L 252.145 195.929188 
L 253.044341 194.717659 
L 253.943682 190.70447 
L 254.843023 190.855911 
L 255.742364 184.646825 
L 256.641705 185.631193 
L 257.541045 187.145604 
L 258.440386 189.947264 
L 259.339727 186.994163 
L 260.239068 189.41722 
L 261.138409 185.404031 
L 262.03775 187.372765 
L 263.836432 186.69128 
L 264.735773 189.190059 
L 265.635114 185.25259 
L 266.534455 187.675648 
L 267.433795 184.495384 
L 268.333136 190.78019 
L 269.232477 185.101149 
L 270.131818 187.524206 
L 271.031159 183.738179 
L 271.9305 182.980973 
L 272.829841 184.343943 
L 273.729182 179.87643 
L 274.628523 183.88962 
L 275.527864 184.495384 
L 276.427205 182.299488 
L 277.326545 184.571105 
L 278.225886 186.312678 
L 279.125227 185.479751 
L 280.024568 183.283855 
L 280.923909 183.359576 
L 281.82325 175.863241 
L 282.722591 181.542283 
L 283.621932 178.589181 
L 284.521273 180.785077 
L 285.420614 180.557915 
L 286.319955 177.831975 
L 287.219295 172.910139 
L 288.118636 179.422107 
L 289.017977 178.43774 
L 289.917318 176.544726 
L 290.816659 177.907696 
L 291.716 176.544726 
L 292.615341 179.573548 
L 293.514682 182.072326 
L 294.414023 176.014682 
L 295.313364 181.845165 
L 296.212705 180.255033 
L 297.112045 176.620446 
L 298.011386 177.15049 
L 298.910727 176.469005 
L 299.810068 171.017125 
L 300.709409 176.014682 
L 301.60875 179.497827 
L 302.508091 176.166123 
L 303.407432 178.286299 
L 304.306773 176.317564 
L 305.206114 173.06158 
L 306.105455 176.696167 
L 307.004795 176.620446 
L 307.904136 176.014682 
L 308.803477 173.364462 
L 309.702818 174.045947 
L 310.602159 172.077213 
L 311.5015 167.458259 
L 312.400841 172.455816 
L 313.300182 178.210578 
L 314.199523 172.304375 
L 315.098864 171.850051 
L 315.998205 175.106035 
L 316.897545 169.578435 
L 317.796886 170.487081 
L 318.696227 172.455816 
L 319.595568 174.878874 
L 320.494909 173.591624 
L 321.39425 171.244287 
L 322.293591 164.959481 
L 323.192932 167.761141 
L 324.092273 171.017125 
L 324.991614 167.761141 
L 325.890955 162.0821 
L 326.790295 171.547169 
L 327.689636 168.89695 
L 328.588977 168.594067 
L 329.488318 167.231097 
L 330.387659 163.596511 
L 331.287 170.184199 
L 332.186341 165.640966 
L 333.085682 168.442626 
L 333.985023 162.536423 
L 335.783705 170.638522 
L 336.683045 170.032758 
L 337.582386 167.079656 
L 338.481727 167.003936 
L 339.381068 165.110922 
L 340.280409 161.703497 
L 341.17975 165.640966 
L 342.079091 158.674674 
L 342.978432 164.656598 
L 343.877773 160.643409 
L 344.777114 167.458259 
L 345.676455 162.763585 
L 346.575795 165.262363 
L 347.475136 160.491968 
L 348.374477 162.006379 
L 349.273818 159.507601 
L 350.173159 163.217908 
L 351.0725 159.280439 
L 351.971841 165.413804 
L 352.871182 161.476335 
L 353.770523 162.460702 
L 354.669864 156.478778 
L 355.569205 161.249173 
L 356.468545 163.369349 
L 357.367886 158.674674 
L 358.267227 167.458259 
L 359.166568 158.750395 
L 360.065909 160.946291 
L 360.96525 161.324894 
L 361.864591 160.567688 
L 362.763932 156.933102 
L 363.663273 159.659042 
L 364.562614 157.766028 
L 365.461955 160.340527 
L 366.361295 159.583321 
L 367.260636 162.309261 
L 369.059318 160.870571 
L 371.757341 157.235984 
L 372.656682 148.225238 
L 373.556023 160.79485 
L 374.455364 156.70594 
L 375.354705 157.538866 
L 376.254045 163.52079 
L 377.153386 158.523233 
L 378.052727 159.35616 
L 378.952068 157.993189 
L 379.851409 158.220351 
L 380.75075 161.854938 
L 381.650091 150.799737 
L 382.549432 156.781661 
L 383.448773 154.888647 
L 384.348114 152.541309 
L 385.247455 154.207162 
L 386.146795 156.175896 
L 387.046136 156.857381 
L 387.945477 156.630219 
L 388.844818 150.572575 
L 389.744159 153.147074 
L 390.6435 151.481222 
L 391.542841 152.844192 
L 393.341523 155.191529 
L 394.240864 153.98 
L 395.140205 158.447513 
L 396.039545 155.418691 
L 396.938886 149.588208 
L 397.838227 156.100176 
L 398.737568 153.071353 
L 399.636909 154.737206 
L 400.53625 153.677118 
L 401.435591 154.510044 
L 402.334932 149.361046 
L 403.234273 149.815369 
L 404.133614 153.904279 
L 405.032955 148.300958 
L 405.932295 153.071353 
L 406.831636 151.405501 
L 407.730977 149.285326 
L 408.630318 151.556942 
L 409.529659 151.026898 
L 410.429 152.844192 
L 411.328341 150.951178 
L 412.227682 149.361046 
L 413.127023 146.029342 
L 414.026364 150.572575 
L 414.925705 148.679561 
L 415.825045 147.16515 
L 416.724386 149.588208 
L 417.623727 148.452399 
L 418.523068 147.695194 
L 419.422409 144.363489 
L 420.32175 150.421134 
L 421.221091 140.956064 
L 422.120432 152.919912 
L 423.019773 147.695194 
L 423.919114 150.724016 
L 424.818455 145.423577 
L 425.717795 144.817813 
L 426.617136 143.15196 
L 427.516477 144.287769 
L 428.415818 142.773358 
L 429.315159 142.924799 
L 430.2145 147.619473 
L 431.113841 149.436767 
L 432.013182 146.862268 
L 432.013182 146.862268 
" clip-path="url(#pc1147a584b)" style="fill: none; stroke: #0000ff; stroke-width: 1.5; stroke-linecap: square"/>
   </g>
   <g id="patch_3">
    <path d="M 54.29 297.16 
L 54.29 10.8 
" style="fill: none; stroke: #000000; stroke-width: 0.8; stroke-linejoin: miter; stroke-linecap: square"/>
   </g>
   <g id="patch_4">
    <path d="M 450 297.16 
L 450 10.8 
" style="fill: none; stroke: #000000; stroke-width: 0.8; stroke-linejoin: miter; stroke-linecap: square"/>
   </g>
   <g id="patch_5">
    <path d="M 54.29 297.16 
L 450 297.16 
" style="fill: none; stroke: #000000; stroke-width: 0.8; stroke-linejoin: miter; stroke-linecap: square"/>
   </g>
   <g id="patch_6">
    <path d="M 54.29 10.8 
L 450 10.8 
" style="fill: none; stroke: #000000; stroke-width: 0.8; stroke-linejoin: miter; stroke-linecap: square"/>
   </g>
   <g id="legend_1">
    <g id="patch_7">
     <path d="M 303.09 289.16 
L 438.8 289.16 
Q 442 289.16 442 285.96 
L 442 193.62 
Q 442 190.42 438.8 190.42 
L 303.09 190.42 
Q 299.89 190.42 299.89 193.62 
L 299.89 285.96 
Q 299.89 289.16 303.09 289.16 
z
" style="fill: #ffffff; opacity: 0.8; stroke: #cccccc; stroke-linejoin: miter"/>
    </g>
    <g id="line2d_19">
     <path d="M 306.29 203.3775 
L 322.29 203.3775 
L 338.29 203.3775 
" style="fill: none; stroke: #000000; stroke-width: 1.5; stroke-linecap: square"/>
    </g>
    <g id="text_17">
     <!-- Scaffnew -->
     <g transform="translate(351.09 208.9775) scale(0.16 -0.16)">
      <defs>
       <path id="DejaVuSans-53" d="M 3425 4513 
L 3425 3897 
Q 3066 4069 2747 4153 
Q 2428 4238 2131 4238 
Q 1616 4238 1336 4038 
Q 1056 3838 1056 3469 
Q 1056 3159 1242 3001 
Q 1428 2844 1947 2747 
L 2328 2669 
Q 3034 2534 3370 2195 
Q 3706 1856 3706 1288 
Q 3706 609 3251 259 
Q 2797 -91 1919 -91 
Q 1588 -91 1214 -16 
Q 841 59 441 206 
L 441 856 
Q 825 641 1194 531 
Q 1563 422 1919 422 
Q 2459 422 2753 634 
Q 3047 847 3047 1241 
Q 3047 1584 2836 1778 
Q 2625 1972 2144 2069 
L 1759 2144 
Q 1053 2284 737 2584 
Q 422 2884 422 3419 
Q 422 4038 858 4394 
Q 1294 4750 2059 4750 
Q 2388 4750 2728 4690 
Q 3069 4631 3425 4513 
z
" transform="scale(0.015625)"/>
       <path id="DejaVuSans-66" d="M 2375 4863 
L 2375 4384 
L 1825 4384 
Q 1516 4384 1395 4259 
Q 1275 4134 1275 3809 
L 1275 3500 
L 2222 3500 
L 2222 3053 
L 1275 3053 
L 1275 0 
L 697 0 
L 697 3053 
L 147 3053 
L 147 3500 
L 697 3500 
L 697 3744 
Q 697 4328 969 4595 
Q 1241 4863 1831 4863 
L 2375 4863 
z
" transform="scale(0.015625)"/>
       <path id="DejaVuSans-65" d="M 3597 1894 
L 3597 1613 
L 953 1613 
Q 991 1019 1311 708 
Q 1631 397 2203 397 
Q 2534 397 2845 478 
Q 3156 559 3463 722 
L 3463 178 
Q 3153 47 2828 -22 
Q 2503 -91 2169 -91 
Q 1331 -91 842 396 
Q 353 884 353 1716 
Q 353 2575 817 3079 
Q 1281 3584 2069 3584 
Q 2775 3584 3186 3129 
Q 3597 2675 3597 1894 
z
M 3022 2063 
Q 3016 2534 2758 2815 
Q 2500 3097 2075 3097 
Q 1594 3097 1305 2825 
Q 1016 2553 972 2059 
L 3022 2063 
z
" transform="scale(0.015625)"/>
       <path id="DejaVuSans-77" d="M 269 3500 
L 844 3500 
L 1563 769 
L 2278 3500 
L 2956 3500 
L 3675 769 
L 4391 3500 
L 4966 3500 
L 4050 0 
L 3372 0 
L 2619 2869 
L 1863 0 
L 1184 0 
L 269 3500 
z
" transform="scale(0.015625)"/>
      </defs>
      <use xlink:href="#DejaVuSans-53"/>
      <use xlink:href="#DejaVuSans-63" x="63.476562"/>
      <use xlink:href="#DejaVuSans-61" x="118.457031"/>
      <use xlink:href="#DejaVuSans-66" x="179.736328"/>
      <use xlink:href="#DejaVuSans-66" x="214.941406"/>
      <use xlink:href="#DejaVuSans-6e" x="250.146484"/>
      <use xlink:href="#DejaVuSans-65" x="313.525391"/>
      <use xlink:href="#DejaVuSans-77" x="375.048828"/>
     </g>
    </g>
    <g id="line2d_20">
     <path d="M 306.29 226.8625 
L 322.29 226.8625 
L 338.29 226.8625 
" style="fill: none; stroke: #ff0000; stroke-width: 1.5; stroke-linecap: square"/>
    </g>
    <g id="text_18">
     <!-- FedRecu -->
     <g transform="translate(351.09 232.4625) scale(0.16 -0.16)">
      <defs>
       <path id="DejaVuSans-46" d="M 628 4666 
L 3309 4666 
L 3309 4134 
L 1259 4134 
L 1259 2759 
L 3109 2759 
L 3109 2228 
L 1259 2228 
L 1259 0 
L 628 0 
L 628 4666 
z
" transform="scale(0.015625)"/>
      </defs>
      <use xlink:href="#DejaVuSans-46"/>
      <use xlink:href="#DejaVuSans-65" x="52.019531"/>
      <use xlink:href="#DejaVuSans-64" x="113.542969"/>
      <use xlink:href="#DejaVuSans-52" x="177.019531"/>
      <use xlink:href="#DejaVuSans-65" x="242.001953"/>
      <use xlink:href="#DejaVuSans-63" x="303.525391"/>
      <use xlink:href="#DejaVuSans-75" x="358.505859"/>
     </g>
    </g>
    <g id="line2d_21">
     <path d="M 306.29 250.3475 
L 322.29 250.3475 
L 338.29 250.3475 
" style="fill: none; stroke: #ffa500; stroke-width: 1.5; stroke-linecap: square"/>
    </g>
    <g id="text_19">
     <!-- SCAFFOLD -->
     <g transform="translate(351.09 255.9475) scale(0.16 -0.16)">
      <defs>
       <path id="DejaVuSans-4f" d="M 2522 4238 
Q 1834 4238 1429 3725 
Q 1025 3213 1025 2328 
Q 1025 1447 1429 934 
Q 1834 422 2522 422 
Q 3209 422 3611 934 
Q 4013 1447 4013 2328 
Q 4013 3213 3611 3725 
Q 3209 4238 2522 4238 
z
M 2522 4750 
Q 3503 4750 4090 4092 
Q 4678 3434 4678 2328 
Q 4678 1225 4090 567 
Q 3503 -91 2522 -91 
Q 1538 -91 948 565 
Q 359 1222 359 2328 
Q 359 3434 948 4092 
Q 1538 4750 2522 4750 
z
" transform="scale(0.015625)"/>
       <path id="DejaVuSans-4c" d="M 628 4666 
L 1259 4666 
L 1259 531 
L 3531 531 
L 3531 0 
L 628 0 
L 628 4666 
z
" transform="scale(0.015625)"/>
       <path id="DejaVuSans-44" d="M 1259 4147 
L 1259 519 
L 2022 519 
Q 2988 519 3436 956 
Q 3884 1394 3884 2338 
Q 3884 3275 3436 3711 
Q 2988 4147 2022 4147 
L 1259 4147 
z
M 628 4666 
L 1925 4666 
Q 3281 4666 3915 4102 
Q 4550 3538 4550 2338 
Q 4550 1131 3912 565 
Q 3275 0 1925 0 
L 628 0 
L 628 4666 
z
" transform="scale(0.015625)"/>
      </defs>
      <use xlink:href="#DejaVuSans-53"/>
      <use xlink:href="#DejaVuSans-43" x="63.476562"/>
      <use xlink:href="#DejaVuSans-41" x="133.300781"/>
      <use xlink:href="#DejaVuSans-46" x="201.708984"/>
      <use xlink:href="#DejaVuSans-46" x="259.228516"/>
      <use xlink:href="#DejaVuSans-4f" x="316.748047"/>
      <use xlink:href="#DejaVuSans-4c" x="395.458984"/>
      <use xlink:href="#DejaVuSans-44" x="451.171875"/>
     </g>
    </g>
    <g id="line2d_22">
     <path d="M 306.29 273.8325 
L 322.29 273.8325 
L 338.29 273.8325 
" style="fill: none; stroke: #0000ff; stroke-width: 1.5; stroke-linecap: square"/>
    </g>
    <g id="text_20">
     <!-- FedLin -->
     <g transform="translate(351.09 279.4325) scale(0.16 -0.16)">
      <use xlink:href="#DejaVuSans-46"/>
      <use xlink:href="#DejaVuSans-65" x="52.019531"/>
      <use xlink:href="#DejaVuSans-64" x="113.542969"/>
      <use xlink:href="#DejaVuSans-4c" x="177.019531"/>
      <use xlink:href="#DejaVuSans-69" x="232.732422"/>
      <use xlink:href="#DejaVuSans-6e" x="260.515625"/>
     </g>
    </g>
   </g>
  </g>
 </g>
 <defs>
  <clipPath id="pc1147a584b">
   <rect x="54.29" y="10.8" width="395.71" height="286.36"/>
  </clipPath>
 </defs>
</svg>
