<?xml version="1.0" encoding="utf-8" standalone="no"?>
<!DOCTYPE svg PUBLIC "-//W3C//DTD SVG 1.1//EN"
  "http://www.w3.org/Graphics/SVG/1.1/DTD/svg11.dtd">
<svg xmlns:xlink="http://www.w3.org/1999/xlink" width="460.8pt" height="345.6pt" viewBox="0 0 460.8 345.6" xmlns="http://www.w3.org/2000/svg" version="1.1">
 <metadata>
  <rdf:RDF xmlns:dc="http://purl.org/dc/elements/1.1/" xmlns:cc="http://creativecommons.org/ns#" xmlns:rdf="http://www.w3.org/1999/02/22-rdf-syntax-ns#">
   <cc:Work>
    <dc:type rdf:resource="http://purl.org/dc/dcmitype/StillImage"/>
    <dc:date>2025-09-23T20:50:35.864671</dc:date>
    <dc:format>image/svg+xml</dc:format>
    <dc:creator>
     <cc:Agent>
      <dc:title>Matplotlib v3.8.4, https://matplotlib.org/</dc:title>
     </cc:Agent>
    </dc:creator>
   </cc:Work>
  </rdf:RDF>
 </metadata>
 <defs>
  <style type="text/css">*{stroke-linejoin: round; stroke-linecap: butt}</style>
 </defs>
 <g id="figure_1">
  <g id="patch_1">
   <path d="M 0 345.6 
L 460.8 345.6 
L 460.8 0 
L 0 0 
z
" style="fill: #ffffff"/>
  </g>
  <g id="axes_1">
   <g id="patch_2">
    <path d="M 54.29 297.16 
L 450 297.16 
L 450 10.8 
L 54.29 10.8 
z
" style="fill: #ffffff"/>
   </g>
   <g id="matplotlib.axis_1">
    <g id="xtick_1">
     <g id="line2d_1">
      <defs>
       <path id="m5c4622309f" d="M 0 0 
L 0 3.5 
" style="stroke: #000000; stroke-width: 0.8"/>
      </defs>
      <g>
       <use xlink:href="#m5c4622309f" x="70.478136" y="297.16" style="stroke: #000000; stroke-width: 0.8"/>
      </g>
     </g>
     <g id="text_1">
      <!-- 0 -->
      <g transform="translate(67.296886 311.758438) scale(0.1 -0.1)">
       <defs>
        <path id="DejaVuSans-30" d="M 2034 4250 
Q 1547 4250 1301 3770 
Q 1056 3291 1056 2328 
Q 1056 1369 1301 889 
Q 1547 409 2034 409 
Q 2525 409 2770 889 
Q 3016 1369 3016 2328 
Q 3016 3291 2770 3770 
Q 2525 4250 2034 4250 
z
M 2034 4750 
Q 2819 4750 3233 4129 
Q 3647 3509 3647 2328 
Q 3647 1150 3233 529 
Q 2819 -91 2034 -91 
Q 1250 -91 836 529 
Q 422 1150 422 2328 
Q 422 3509 836 4129 
Q 1250 4750 2034 4750 
z
" transform="scale(0.015625)"/>
       </defs>
       <use xlink:href="#DejaVuSans-30"/>
      </g>
     </g>
    </g>
    <g id="xtick_2">
     <g id="line2d_2">
      <g>
       <use xlink:href="#m5c4622309f" x="115.445182" y="297.16" style="stroke: #000000; stroke-width: 0.8"/>
      </g>
     </g>
     <g id="text_2">
      <!-- 250 -->
      <g transform="translate(105.901432 311.758438) scale(0.1 -0.1)">
       <defs>
        <path id="DejaVuSans-32" d="M 1228 531 
L 3431 531 
L 3431 0 
L 469 0 
L 469 531 
Q 828 903 1448 1529 
Q 2069 2156 2228 2338 
Q 2531 2678 2651 2914 
Q 2772 3150 2772 3378 
Q 2772 3750 2511 3984 
Q 2250 4219 1831 4219 
Q 1534 4219 1204 4116 
Q 875 4013 500 3803 
L 500 4441 
Q 881 4594 1212 4672 
Q 1544 4750 1819 4750 
Q 2544 4750 2975 4387 
Q 3406 4025 3406 3419 
Q 3406 3131 3298 2873 
Q 3191 2616 2906 2266 
Q 2828 2175 2409 1742 
Q 1991 1309 1228 531 
z
" transform="scale(0.015625)"/>
        <path id="DejaVuSans-35" d="M 691 4666 
L 3169 4666 
L 3169 4134 
L 1269 4134 
L 1269 2991 
Q 1406 3038 1543 3061 
Q 1681 3084 1819 3084 
Q 2600 3084 3056 2656 
Q 3513 2228 3513 1497 
Q 3513 744 3044 326 
Q 2575 -91 1722 -91 
Q 1428 -91 1123 -41 
Q 819 9 494 109 
L 494 744 
Q 775 591 1075 516 
Q 1375 441 1709 441 
Q 2250 441 2565 725 
Q 2881 1009 2881 1497 
Q 2881 1984 2565 2268 
Q 2250 2553 1709 2553 
Q 1456 2553 1204 2497 
Q 953 2441 691 2322 
L 691 4666 
z
" transform="scale(0.015625)"/>
       </defs>
       <use xlink:href="#DejaVuSans-32"/>
       <use xlink:href="#DejaVuSans-35" x="63.623047"/>
       <use xlink:href="#DejaVuSans-30" x="127.246094"/>
      </g>
     </g>
    </g>
    <g id="xtick_3">
     <g id="line2d_3">
      <g>
       <use xlink:href="#m5c4622309f" x="160.412227" y="297.16" style="stroke: #000000; stroke-width: 0.8"/>
      </g>
     </g>
     <g id="text_3">
      <!-- 500 -->
      <g transform="translate(150.868477 311.758438) scale(0.1 -0.1)">
       <use xlink:href="#DejaVuSans-35"/>
       <use xlink:href="#DejaVuSans-30" x="63.623047"/>
       <use xlink:href="#DejaVuSans-30" x="127.246094"/>
      </g>
     </g>
    </g>
    <g id="xtick_4">
     <g id="line2d_4">
      <g>
       <use xlink:href="#m5c4622309f" x="205.379273" y="297.16" style="stroke: #000000; stroke-width: 0.8"/>
      </g>
     </g>
     <g id="text_4">
      <!-- 750 -->
      <g transform="translate(195.835523 311.758438) scale(0.1 -0.1)">
       <defs>
        <path id="DejaVuSans-37" d="M 525 4666 
L 3525 4666 
L 3525 4397 
L 1831 0 
L 1172 0 
L 2766 4134 
L 525 4134 
L 525 4666 
z
" transform="scale(0.015625)"/>
       </defs>
       <use xlink:href="#DejaVuSans-37"/>
       <use xlink:href="#DejaVuSans-35" x="63.623047"/>
       <use xlink:href="#DejaVuSans-30" x="127.246094"/>
      </g>
     </g>
    </g>
    <g id="xtick_5">
     <g id="line2d_5">
      <g>
       <use xlink:href="#m5c4622309f" x="250.346318" y="297.16" style="stroke: #000000; stroke-width: 0.8"/>
      </g>
     </g>
     <g id="text_5">
      <!-- 1000 -->
      <g transform="translate(237.621318 311.758438) scale(0.1 -0.1)">
       <defs>
        <path id="DejaVuSans-31" d="M 794 531 
L 1825 531 
L 1825 4091 
L 703 3866 
L 703 4441 
L 1819 4666 
L 2450 4666 
L 2450 531 
L 3481 531 
L 3481 0 
L 794 0 
L 794 531 
z
" transform="scale(0.015625)"/>
       </defs>
       <use xlink:href="#DejaVuSans-31"/>
       <use xlink:href="#DejaVuSans-30" x="63.623047"/>
       <use xlink:href="#DejaVuSans-30" x="127.246094"/>
       <use xlink:href="#DejaVuSans-30" x="190.869141"/>
      </g>
     </g>
    </g>
    <g id="xtick_6">
     <g id="line2d_6">
      <g>
       <use xlink:href="#m5c4622309f" x="295.313364" y="297.16" style="stroke: #000000; stroke-width: 0.8"/>
      </g>
     </g>
     <g id="text_6">
      <!-- 1250 -->
      <g transform="translate(282.588364 311.758438) scale(0.1 -0.1)">
       <use xlink:href="#DejaVuSans-31"/>
       <use xlink:href="#DejaVuSans-32" x="63.623047"/>
       <use xlink:href="#DejaVuSans-35" x="127.246094"/>
       <use xlink:href="#DejaVuSans-30" x="190.869141"/>
      </g>
     </g>
    </g>
    <g id="xtick_7">
     <g id="line2d_7">
      <g>
       <use xlink:href="#m5c4622309f" x="340.280409" y="297.16" style="stroke: #000000; stroke-width: 0.8"/>
      </g>
     </g>
     <g id="text_7">
      <!-- 1500 -->
      <g transform="translate(327.555409 311.758438) scale(0.1 -0.1)">
       <use xlink:href="#DejaVuSans-31"/>
       <use xlink:href="#DejaVuSans-35" x="63.623047"/>
       <use xlink:href="#DejaVuSans-30" x="127.246094"/>
       <use xlink:href="#DejaVuSans-30" x="190.869141"/>
      </g>
     </g>
    </g>
    <g id="xtick_8">
     <g id="line2d_8">
      <g>
       <use xlink:href="#m5c4622309f" x="385.247455" y="297.16" style="stroke: #000000; stroke-width: 0.8"/>
      </g>
     </g>
     <g id="text_8">
      <!-- 1750 -->
      <g transform="translate(372.522455 311.758438) scale(0.1 -0.1)">
       <use xlink:href="#DejaVuSans-31"/>
       <use xlink:href="#DejaVuSans-37" x="63.623047"/>
       <use xlink:href="#DejaVuSans-35" x="127.246094"/>
       <use xlink:href="#DejaVuSans-30" x="190.869141"/>
      </g>
     </g>
    </g>
    <g id="xtick_9">
     <g id="line2d_9">
      <g>
       <use xlink:href="#m5c4622309f" x="430.2145" y="297.16" style="stroke: #000000; stroke-width: 0.8"/>
      </g>
     </g>
     <g id="text_9">
      <!-- 2000 -->
      <g transform="translate(417.4895 311.758438) scale(0.1 -0.1)">
       <use xlink:href="#DejaVuSans-32"/>
       <use xlink:href="#DejaVuSans-30" x="63.623047"/>
       <use xlink:href="#DejaVuSans-30" x="127.246094"/>
       <use xlink:href="#DejaVuSans-30" x="190.869141"/>
      </g>
     </g>
    </g>
    <g id="text_10">
     <!-- Communication Rounds -->
     <g transform="translate(157.06875 329.995625) scale(0.16 -0.16)">
      <defs>
       <path id="DejaVuSans-43" d="M 4122 4306 
L 4122 3641 
Q 3803 3938 3442 4084 
Q 3081 4231 2675 4231 
Q 1875 4231 1450 3742 
Q 1025 3253 1025 2328 
Q 1025 1406 1450 917 
Q 1875 428 2675 428 
Q 3081 428 3442 575 
Q 3803 722 4122 1019 
L 4122 359 
Q 3791 134 3420 21 
Q 3050 -91 2638 -91 
Q 1578 -91 968 557 
Q 359 1206 359 2328 
Q 359 3453 968 4101 
Q 1578 4750 2638 4750 
Q 3056 4750 3426 4639 
Q 3797 4528 4122 4306 
z
" transform="scale(0.015625)"/>
       <path id="DejaVuSans-6f" d="M 1959 3097 
Q 1497 3097 1228 2736 
Q 959 2375 959 1747 
Q 959 1119 1226 758 
Q 1494 397 1959 397 
Q 2419 397 2687 759 
Q 2956 1122 2956 1747 
Q 2956 2369 2687 2733 
Q 2419 3097 1959 3097 
z
M 1959 3584 
Q 2709 3584 3137 3096 
Q 3566 2609 3566 1747 
Q 3566 888 3137 398 
Q 2709 -91 1959 -91 
Q 1206 -91 779 398 
Q 353 888 353 1747 
Q 353 2609 779 3096 
Q 1206 3584 1959 3584 
z
" transform="scale(0.015625)"/>
       <path id="DejaVuSans-6d" d="M 3328 2828 
Q 3544 3216 3844 3400 
Q 4144 3584 4550 3584 
Q 5097 3584 5394 3201 
Q 5691 2819 5691 2113 
L 5691 0 
L 5113 0 
L 5113 2094 
Q 5113 2597 4934 2840 
Q 4756 3084 4391 3084 
Q 3944 3084 3684 2787 
Q 3425 2491 3425 1978 
L 3425 0 
L 2847 0 
L 2847 2094 
Q 2847 2600 2669 2842 
Q 2491 3084 2119 3084 
Q 1678 3084 1418 2786 
Q 1159 2488 1159 1978 
L 1159 0 
L 581 0 
L 581 3500 
L 1159 3500 
L 1159 2956 
Q 1356 3278 1631 3431 
Q 1906 3584 2284 3584 
Q 2666 3584 2933 3390 
Q 3200 3197 3328 2828 
z
" transform="scale(0.015625)"/>
       <path id="DejaVuSans-75" d="M 544 1381 
L 544 3500 
L 1119 3500 
L 1119 1403 
Q 1119 906 1312 657 
Q 1506 409 1894 409 
Q 2359 409 2629 706 
Q 2900 1003 2900 1516 
L 2900 3500 
L 3475 3500 
L 3475 0 
L 2900 0 
L 2900 538 
Q 2691 219 2414 64 
Q 2138 -91 1772 -91 
Q 1169 -91 856 284 
Q 544 659 544 1381 
z
M 1991 3584 
L 1991 3584 
z
" transform="scale(0.015625)"/>
       <path id="DejaVuSans-6e" d="M 3513 2113 
L 3513 0 
L 2938 0 
L 2938 2094 
Q 2938 2591 2744 2837 
Q 2550 3084 2163 3084 
Q 1697 3084 1428 2787 
Q 1159 2491 1159 1978 
L 1159 0 
L 581 0 
L 581 3500 
L 1159 3500 
L 1159 2956 
Q 1366 3272 1645 3428 
Q 1925 3584 2291 3584 
Q 2894 3584 3203 3211 
Q 3513 2838 3513 2113 
z
" transform="scale(0.015625)"/>
       <path id="DejaVuSans-69" d="M 603 3500 
L 1178 3500 
L 1178 0 
L 603 0 
L 603 3500 
z
M 603 4863 
L 1178 4863 
L 1178 4134 
L 603 4134 
L 603 4863 
z
" transform="scale(0.015625)"/>
       <path id="DejaVuSans-63" d="M 3122 3366 
L 3122 2828 
Q 2878 2963 2633 3030 
Q 2388 3097 2138 3097 
Q 1578 3097 1268 2742 
Q 959 2388 959 1747 
Q 959 1106 1268 751 
Q 1578 397 2138 397 
Q 2388 397 2633 464 
Q 2878 531 3122 666 
L 3122 134 
Q 2881 22 2623 -34 
Q 2366 -91 2075 -91 
Q 1284 -91 818 406 
Q 353 903 353 1747 
Q 353 2603 823 3093 
Q 1294 3584 2113 3584 
Q 2378 3584 2631 3529 
Q 2884 3475 3122 3366 
z
" transform="scale(0.015625)"/>
       <path id="DejaVuSans-61" d="M 2194 1759 
Q 1497 1759 1228 1600 
Q 959 1441 959 1056 
Q 959 750 1161 570 
Q 1363 391 1709 391 
Q 2188 391 2477 730 
Q 2766 1069 2766 1631 
L 2766 1759 
L 2194 1759 
z
M 3341 1997 
L 3341 0 
L 2766 0 
L 2766 531 
Q 2569 213 2275 61 
Q 1981 -91 1556 -91 
Q 1019 -91 701 211 
Q 384 513 384 1019 
Q 384 1609 779 1909 
Q 1175 2209 1959 2209 
L 2766 2209 
L 2766 2266 
Q 2766 2663 2505 2880 
Q 2244 3097 1772 3097 
Q 1472 3097 1187 3025 
Q 903 2953 641 2809 
L 641 3341 
Q 956 3463 1253 3523 
Q 1550 3584 1831 3584 
Q 2591 3584 2966 3190 
Q 3341 2797 3341 1997 
z
" transform="scale(0.015625)"/>
       <path id="DejaVuSans-74" d="M 1172 4494 
L 1172 3500 
L 2356 3500 
L 2356 3053 
L 1172 3053 
L 1172 1153 
Q 1172 725 1289 603 
Q 1406 481 1766 481 
L 2356 481 
L 2356 0 
L 1766 0 
Q 1100 0 847 248 
Q 594 497 594 1153 
L 594 3053 
L 172 3053 
L 172 3500 
L 594 3500 
L 594 4494 
L 1172 4494 
z
" transform="scale(0.015625)"/>
       <path id="DejaVuSans-20" transform="scale(0.015625)"/>
       <path id="DejaVuSans-52" d="M 2841 2188 
Q 3044 2119 3236 1894 
Q 3428 1669 3622 1275 
L 4263 0 
L 3584 0 
L 2988 1197 
Q 2756 1666 2539 1819 
Q 2322 1972 1947 1972 
L 1259 1972 
L 1259 0 
L 628 0 
L 628 4666 
L 2053 4666 
Q 2853 4666 3247 4331 
Q 3641 3997 3641 3322 
Q 3641 2881 3436 2590 
Q 3231 2300 2841 2188 
z
M 1259 4147 
L 1259 2491 
L 2053 2491 
Q 2509 2491 2742 2702 
Q 2975 2913 2975 3322 
Q 2975 3731 2742 3939 
Q 2509 4147 2053 4147 
L 1259 4147 
z
" transform="scale(0.015625)"/>
       <path id="DejaVuSans-64" d="M 2906 2969 
L 2906 4863 
L 3481 4863 
L 3481 0 
L 2906 0 
L 2906 525 
Q 2725 213 2448 61 
Q 2172 -91 1784 -91 
Q 1150 -91 751 415 
Q 353 922 353 1747 
Q 353 2572 751 3078 
Q 1150 3584 1784 3584 
Q 2172 3584 2448 3432 
Q 2725 3281 2906 2969 
z
M 947 1747 
Q 947 1113 1208 752 
Q 1469 391 1925 391 
Q 2381 391 2643 752 
Q 2906 1113 2906 1747 
Q 2906 2381 2643 2742 
Q 2381 3103 1925 3103 
Q 1469 3103 1208 2742 
Q 947 2381 947 1747 
z
" transform="scale(0.015625)"/>
       <path id="DejaVuSans-73" d="M 2834 3397 
L 2834 2853 
Q 2591 2978 2328 3040 
Q 2066 3103 1784 3103 
Q 1356 3103 1142 2972 
Q 928 2841 928 2578 
Q 928 2378 1081 2264 
Q 1234 2150 1697 2047 
L 1894 2003 
Q 2506 1872 2764 1633 
Q 3022 1394 3022 966 
Q 3022 478 2636 193 
Q 2250 -91 1575 -91 
Q 1294 -91 989 -36 
Q 684 19 347 128 
L 347 722 
Q 666 556 975 473 
Q 1284 391 1588 391 
Q 1994 391 2212 530 
Q 2431 669 2431 922 
Q 2431 1156 2273 1281 
Q 2116 1406 1581 1522 
L 1381 1569 
Q 847 1681 609 1914 
Q 372 2147 372 2553 
Q 372 3047 722 3315 
Q 1072 3584 1716 3584 
Q 2034 3584 2315 3537 
Q 2597 3491 2834 3397 
z
" transform="scale(0.015625)"/>
      </defs>
      <use xlink:href="#DejaVuSans-43"/>
      <use xlink:href="#DejaVuSans-6f" x="69.824219"/>
      <use xlink:href="#DejaVuSans-6d" x="131.005859"/>
      <use xlink:href="#DejaVuSans-6d" x="228.417969"/>
      <use xlink:href="#DejaVuSans-75" x="325.830078"/>
      <use xlink:href="#DejaVuSans-6e" x="389.208984"/>
      <use xlink:href="#DejaVuSans-69" x="452.587891"/>
      <use xlink:href="#DejaVuSans-63" x="480.371094"/>
      <use xlink:href="#DejaVuSans-61" x="535.351562"/>
      <use xlink:href="#DejaVuSans-74" x="596.630859"/>
      <use xlink:href="#DejaVuSans-69" x="635.839844"/>
      <use xlink:href="#DejaVuSans-6f" x="663.623047"/>
      <use xlink:href="#DejaVuSans-6e" x="724.804688"/>
      <use xlink:href="#DejaVuSans-20" x="788.183594"/>
      <use xlink:href="#DejaVuSans-52" x="819.970703"/>
      <use xlink:href="#DejaVuSans-6f" x="884.953125"/>
      <use xlink:href="#DejaVuSans-75" x="946.134766"/>
      <use xlink:href="#DejaVuSans-6e" x="1009.513672"/>
      <use xlink:href="#DejaVuSans-64" x="1072.892578"/>
      <use xlink:href="#DejaVuSans-73" x="1136.369141"/>
     </g>
    </g>
   </g>
   <g id="matplotlib.axis_2">
    <g id="ytick_1">
     <g id="line2d_10">
      <defs>
       <path id="m761995fe63" d="M 0 0 
L -3.5 0 
" style="stroke: #000000; stroke-width: 0.8"/>
      </defs>
      <g>
       <use xlink:href="#m761995fe63" x="54.29" y="276.035493" style="stroke: #000000; stroke-width: 0.8"/>
      </g>
     </g>
     <g id="text_11">
      <!-- 0.8 -->
      <g transform="translate(31.386875 279.834712) scale(0.1 -0.1)">
       <defs>
        <path id="DejaVuSans-2e" d="M 684 794 
L 1344 794 
L 1344 0 
L 684 0 
L 684 794 
z
" transform="scale(0.015625)"/>
        <path id="DejaVuSans-38" d="M 2034 2216 
Q 1584 2216 1326 1975 
Q 1069 1734 1069 1313 
Q 1069 891 1326 650 
Q 1584 409 2034 409 
Q 2484 409 2743 651 
Q 3003 894 3003 1313 
Q 3003 1734 2745 1975 
Q 2488 2216 2034 2216 
z
M 1403 2484 
Q 997 2584 770 2862 
Q 544 3141 544 3541 
Q 544 4100 942 4425 
Q 1341 4750 2034 4750 
Q 2731 4750 3128 4425 
Q 3525 4100 3525 3541 
Q 3525 3141 3298 2862 
Q 3072 2584 2669 2484 
Q 3125 2378 3379 2068 
Q 3634 1759 3634 1313 
Q 3634 634 3220 271 
Q 2806 -91 2034 -91 
Q 1263 -91 848 271 
Q 434 634 434 1313 
Q 434 1759 690 2068 
Q 947 2378 1403 2484 
z
M 1172 3481 
Q 1172 3119 1398 2916 
Q 1625 2713 2034 2713 
Q 2441 2713 2670 2916 
Q 2900 3119 2900 3481 
Q 2900 3844 2670 4047 
Q 2441 4250 2034 4250 
Q 1625 4250 1398 4047 
Q 1172 3844 1172 3481 
z
" transform="scale(0.015625)"/>
       </defs>
       <use xlink:href="#DejaVuSans-30"/>
       <use xlink:href="#DejaVuSans-2e" x="63.623047"/>
       <use xlink:href="#DejaVuSans-38" x="95.410156"/>
      </g>
     </g>
    </g>
    <g id="ytick_2">
     <g id="line2d_11">
      <g>
       <use xlink:href="#m761995fe63" x="54.29" y="242.56039" style="stroke: #000000; stroke-width: 0.8"/>
      </g>
     </g>
     <g id="text_12">
      <!-- 1.0 -->
      <g transform="translate(31.386875 246.359609) scale(0.1 -0.1)">
       <use xlink:href="#DejaVuSans-31"/>
       <use xlink:href="#DejaVuSans-2e" x="63.623047"/>
       <use xlink:href="#DejaVuSans-30" x="95.410156"/>
      </g>
     </g>
    </g>
    <g id="ytick_3">
     <g id="line2d_12">
      <g>
       <use xlink:href="#m761995fe63" x="54.29" y="209.085286" style="stroke: #000000; stroke-width: 0.8"/>
      </g>
     </g>
     <g id="text_13">
      <!-- 1.2 -->
      <g transform="translate(31.386875 212.884505) scale(0.1 -0.1)">
       <use xlink:href="#DejaVuSans-31"/>
       <use xlink:href="#DejaVuSans-2e" x="63.623047"/>
       <use xlink:href="#DejaVuSans-32" x="95.410156"/>
      </g>
     </g>
    </g>
    <g id="ytick_4">
     <g id="line2d_13">
      <g>
       <use xlink:href="#m761995fe63" x="54.29" y="175.610183" style="stroke: #000000; stroke-width: 0.8"/>
      </g>
     </g>
     <g id="text_14">
      <!-- 1.4 -->
      <g transform="translate(31.386875 179.409402) scale(0.1 -0.1)">
       <defs>
        <path id="DejaVuSans-34" d="M 2419 4116 
L 825 1625 
L 2419 1625 
L 2419 4116 
z
M 2253 4666 
L 3047 4666 
L 3047 1625 
L 3713 1625 
L 3713 1100 
L 3047 1100 
L 3047 0 
L 2419 0 
L 2419 1100 
L 313 1100 
L 313 1709 
L 2253 4666 
z
" transform="scale(0.015625)"/>
       </defs>
       <use xlink:href="#DejaVuSans-31"/>
       <use xlink:href="#DejaVuSans-2e" x="63.623047"/>
       <use xlink:href="#DejaVuSans-34" x="95.410156"/>
      </g>
     </g>
    </g>
    <g id="ytick_5">
     <g id="line2d_14">
      <g>
       <use xlink:href="#m761995fe63" x="54.29" y="142.13508" style="stroke: #000000; stroke-width: 0.8"/>
      </g>
     </g>
     <g id="text_15">
      <!-- 1.6 -->
      <g transform="translate(31.386875 145.934298) scale(0.1 -0.1)">
       <defs>
        <path id="DejaVuSans-36" d="M 2113 2584 
Q 1688 2584 1439 2293 
Q 1191 2003 1191 1497 
Q 1191 994 1439 701 
Q 1688 409 2113 409 
Q 2538 409 2786 701 
Q 3034 994 3034 1497 
Q 3034 2003 2786 2293 
Q 2538 2584 2113 2584 
z
M 3366 4563 
L 3366 3988 
Q 3128 4100 2886 4159 
Q 2644 4219 2406 4219 
Q 1781 4219 1451 3797 
Q 1122 3375 1075 2522 
Q 1259 2794 1537 2939 
Q 1816 3084 2150 3084 
Q 2853 3084 3261 2657 
Q 3669 2231 3669 1497 
Q 3669 778 3244 343 
Q 2819 -91 2113 -91 
Q 1303 -91 875 529 
Q 447 1150 447 2328 
Q 447 3434 972 4092 
Q 1497 4750 2381 4750 
Q 2619 4750 2861 4703 
Q 3103 4656 3366 4563 
z
" transform="scale(0.015625)"/>
       </defs>
       <use xlink:href="#DejaVuSans-31"/>
       <use xlink:href="#DejaVuSans-2e" x="63.623047"/>
       <use xlink:href="#DejaVuSans-36" x="95.410156"/>
      </g>
     </g>
    </g>
    <g id="ytick_6">
     <g id="line2d_15">
      <g>
       <use xlink:href="#m761995fe63" x="54.29" y="108.659976" style="stroke: #000000; stroke-width: 0.8"/>
      </g>
     </g>
     <g id="text_16">
      <!-- 1.8 -->
      <g transform="translate(31.386875 112.459195) scale(0.1 -0.1)">
       <use xlink:href="#DejaVuSans-31"/>
       <use xlink:href="#DejaVuSans-2e" x="63.623047"/>
       <use xlink:href="#DejaVuSans-38" x="95.410156"/>
      </g>
     </g>
    </g>
    <g id="ytick_7">
     <g id="line2d_16">
      <g>
       <use xlink:href="#m761995fe63" x="54.29" y="75.184873" style="stroke: #000000; stroke-width: 0.8"/>
      </g>
     </g>
     <g id="text_17">
      <!-- 2.0 -->
      <g transform="translate(31.386875 78.984091) scale(0.1 -0.1)">
       <use xlink:href="#DejaVuSans-32"/>
       <use xlink:href="#DejaVuSans-2e" x="63.623047"/>
       <use xlink:href="#DejaVuSans-30" x="95.410156"/>
      </g>
     </g>
    </g>
    <g id="ytick_8">
     <g id="line2d_17">
      <g>
       <use xlink:href="#m761995fe63" x="54.29" y="41.709769" style="stroke: #000000; stroke-width: 0.8"/>
      </g>
     </g>
     <g id="text_18">
      <!-- 2.2 -->
      <g transform="translate(31.386875 45.508988) scale(0.1 -0.1)">
       <use xlink:href="#DejaVuSans-32"/>
       <use xlink:href="#DejaVuSans-2e" x="63.623047"/>
       <use xlink:href="#DejaVuSans-32" x="95.410156"/>
      </g>
     </g>
    </g>
    <g id="text_19">
     <!-- Loss -->
     <g transform="translate(24.059375 171.5275) rotate(-90) scale(0.16 -0.16)">
      <defs>
       <path id="DejaVuSans-4c" d="M 628 4666 
L 1259 4666 
L 1259 531 
L 3531 531 
L 3531 0 
L 628 0 
L 628 4666 
z
" transform="scale(0.015625)"/>
      </defs>
      <use xlink:href="#DejaVuSans-4c"/>
      <use xlink:href="#DejaVuSans-6f" x="53.962891"/>
      <use xlink:href="#DejaVuSans-73" x="115.144531"/>
      <use xlink:href="#DejaVuSans-73" x="167.244141"/>
     </g>
    </g>
   </g>
   <g id="line2d_18">
    <path d="M 72.456686 24.882159 
L 74.435236 24.996615 
L 76.413786 23.816364 
L 78.392336 28.504088 
L 80.370886 35.512685 
L 82.349436 36.789966 
L 84.327986 50.630461 
L 86.306536 58.440124 
L 88.285086 59.503349 
L 90.263636 55.485553 
L 92.242186 69.343504 
L 94.220736 58.917321 
L 96.199286 68.18703 
L 98.177836 58.614349 
L 100.156386 68.368911 
L 102.134936 75.261403 
L 104.113486 73.366424 
L 108.070586 80.544383 
L 110.049136 81.662978 
L 112.027686 82.978325 
L 114.006236 69.313676 
L 115.984786 85.094503 
L 117.963336 90.15087 
L 119.941886 89.920263 
L 121.920436 91.880461 
L 123.898986 91.365429 
L 125.877536 89.54049 
L 127.856086 93.521257 
L 129.834636 96.710253 
L 131.813186 98.314446 
L 133.791736 90.593813 
L 135.770286 102.317134 
L 137.748836 96.044249 
L 139.727386 103.200161 
L 141.705936 107.423036 
L 143.684486 95.628514 
L 145.663036 104.650109 
L 147.641586 105.498915 
L 149.620136 110.392754 
L 151.598686 106.436237 
L 153.577236 109.78635 
L 155.555786 111.999917 
L 157.534336 110.168704 
L 159.512886 101.070743 
L 161.491436 110.022271 
L 163.469986 121.933363 
L 165.448536 119.050013 
L 167.427086 100.785568 
L 169.405636 116.726544 
L 171.384186 124.623067 
L 173.362736 119.947212 
L 175.341286 126.487377 
L 177.319836 107.62697 
L 179.298386 128.167689 
L 181.276936 132.31397 
L 183.255486 127.480723 
L 185.234036 129.628821 
L 187.212586 126.787154 
L 189.191136 128.672991 
L 191.169686 100.622984 
L 193.148236 131.919432 
L 195.126786 130.754585 
L 197.105336 124.902802 
L 199.083886 127.065925 
L 201.062436 135.578397 
L 203.040986 125.910126 
L 205.019536 137.854948 
L 206.998086 128.643147 
L 208.976636 133.92325 
L 210.955186 135.150047 
L 212.933736 135.464191 
L 214.912286 139.479533 
L 216.890836 136.013169 
L 218.869386 140.189777 
L 220.847936 137.269604 
L 222.826486 144.944345 
L 224.805036 123.348726 
L 226.783586 140.07364 
L 228.762136 141.733952 
L 230.740686 130.548688 
L 232.719236 135.275561 
L 234.697786 132.540539 
L 236.676336 144.308843 
L 238.654886 141.511555 
L 240.633436 141.076541 
L 242.611986 139.560443 
L 244.590536 129.540473 
L 246.569086 143.422104 
L 248.547636 130.87847 
L 250.526186 147.597646 
L 252.504736 146.424521 
L 254.483286 147.061197 
L 256.461836 139.800762 
L 258.440386 150.304168 
L 260.418936 150.998608 
L 262.397486 141.425523 
L 264.376036 147.999842 
L 266.354586 143.307852 
L 268.333136 153.585809 
L 270.311686 146.812558 
L 272.290236 154.606039 
L 274.268786 146.330319 
L 278.225886 154.983851 
L 280.204436 150.765604 
L 282.182986 154.936773 
L 284.161536 154.91826 
L 286.140086 153.102615 
L 288.118636 157.777068 
L 290.097186 153.011346 
L 292.075736 147.265888 
L 294.054286 153.154952 
L 296.032836 144.440013 
L 298.011386 150.801126 
L 299.989936 158.819907 
L 301.968486 155.89804 
L 303.947036 121.743592 
L 305.925586 156.70916 
L 307.904136 155.922258 
L 309.882686 158.558635 
L 311.861236 152.276292 
L 313.839786 156.197431 
L 315.818336 156.809121 
L 317.796886 159.901033 
L 319.775436 162.152678 
L 321.753986 162.643854 
L 323.732536 157.862545 
L 325.711086 161.311047 
L 327.689636 161.299847 
L 329.668186 154.22194 
L 331.646736 161.700193 
L 333.625286 164.484065 
L 335.603836 156.558374 
L 337.582386 168.877274 
L 339.560936 151.537816 
L 341.539486 157.816553 
L 343.518036 156.743605 
L 345.496586 166.227885 
L 347.475136 163.336973 
L 349.453686 154.745527 
L 351.432236 166.472067 
L 353.410786 159.052124 
L 355.389336 169.768485 
L 357.367886 158.498825 
L 359.346436 170.268463 
L 361.324986 147.385829 
L 363.303536 165.977989 
L 365.282086 167.96146 
L 367.260636 170.854773 
L 369.239186 166.555884 
L 371.217736 154.408857 
L 373.196286 167.040715 
L 375.174836 173.564022 
L 377.153386 171.721123 
L 379.131936 145.768312 
L 381.110486 163.024184 
L 383.089036 166.162603 
L 385.067586 166.686463 
L 387.046136 166.059739 
L 389.024686 150.028045 
L 391.003236 169.891223 
L 392.981786 167.419485 
L 394.960336 172.279592 
L 396.938886 160.526189 
L 398.917436 144.057898 
L 400.895986 170.019137 
L 402.874536 168.905949 
L 404.853086 173.522755 
L 406.831636 162.033357 
L 408.810186 167.384562 
L 410.788736 171.839543 
L 412.767286 175.670265 
L 414.745836 172.255143 
L 416.724386 173.281853 
L 418.702936 172.240549 
L 420.681486 166.126224 
L 422.660036 170.192219 
L 422.660036 170.192219 
" clip-path="url(#p0c3b0954d8)" style="fill: none; stroke: #000000; stroke-width: 1.5; stroke-linecap: square"/>
   </g>
   <g id="line2d_19">
    <path d="M 72.276818 24.335062 
L 74.0755 28.688888 
L 75.874182 61.89761 
L 77.672864 77.461089 
L 79.471545 94.40346 
L 81.270227 107.587982 
L 83.068909 114.191615 
L 84.867591 119.645386 
L 86.666273 128.165431 
L 88.464955 132.732122 
L 90.263636 141.334107 
L 92.062318 142.857512 
L 93.861 147.435908 
L 95.659682 152.370419 
L 97.458364 158.627343 
L 99.257045 159.107132 
L 101.055727 161.120496 
L 102.854409 168.118061 
L 104.653091 165.042554 
L 106.451773 171.976972 
L 108.250455 171.861692 
L 110.049136 176.908915 
L 111.847818 178.90588 
L 113.6465 181.463502 
L 115.445182 184.384844 
L 117.243864 183.911389 
L 119.042545 189.785091 
L 120.841227 194.700712 
L 122.639909 192.996032 
L 126.237273 198.686157 
L 128.035955 198.498389 
L 129.834636 206.792239 
L 131.633318 207.100612 
L 133.432 209.583171 
L 135.230682 210.739507 
L 137.029364 203.386701 
L 138.828045 210.497067 
L 140.626727 215.282791 
L 142.425409 215.807537 
L 144.224091 214.125067 
L 146.022773 218.132719 
L 147.821455 223.558057 
L 149.620136 219.660502 
L 151.418818 221.071224 
L 153.2175 222.763539 
L 155.016182 222.658976 
L 156.814864 223.257186 
L 158.613545 223.381416 
L 160.412227 228.317151 
L 162.210909 232.155836 
L 164.009591 225.965239 
L 165.808273 230.072405 
L 167.606955 227.060829 
L 169.405636 230.269447 
L 171.204318 235.747346 
L 173.003 232.388244 
L 174.801682 235.524489 
L 176.600364 239.528254 
L 178.399045 238.008356 
L 180.197727 240.121845 
L 181.996409 239.478828 
L 183.795091 244.326695 
L 185.593773 243.240019 
L 187.392455 238.912907 
L 189.191136 244.315078 
L 190.989818 247.10635 
L 192.7885 248.084202 
L 194.587182 249.533668 
L 196.385864 244.544438 
L 199.983227 248.057386 
L 201.781909 246.877003 
L 203.580591 251.167738 
L 205.379273 248.749633 
L 207.177955 251.712338 
L 208.976636 252.692672 
L 210.775318 255.820157 
L 212.574 248.776178 
L 214.372682 251.257759 
L 216.171364 248.087162 
L 217.970045 249.094537 
L 219.768727 253.680022 
L 221.567409 260.124803 
L 223.366091 251.634502 
L 225.164773 258.620427 
L 226.963455 262.184665 
L 228.762136 252.135942 
L 230.560818 256.58974 
L 232.3595 258.169239 
L 234.158182 260.683382 
L 235.956864 260.553655 
L 237.755545 259.963897 
L 239.554227 256.371254 
L 241.352909 259.752505 
L 243.151591 258.421056 
L 244.950273 263.963091 
L 246.748955 261.515785 
L 248.547636 264.126991 
L 250.346318 257.981198 
L 252.145 261.871884 
L 253.943682 261.914637 
L 255.742364 262.364125 
L 257.541045 265.575454 
L 259.339727 260.831172 
L 261.138409 266.230815 
L 262.937091 262.77421 
L 264.735773 265.874527 
L 266.534455 264.971669 
L 268.333136 265.471543 
L 270.131818 264.069704 
L 271.9305 266.704456 
L 273.729182 263.997078 
L 275.527864 270.338979 
L 277.326545 268.97685 
L 279.125227 267.149574 
L 280.923909 266.383329 
L 282.722591 268.554689 
L 284.521273 268.341782 
L 286.319955 267.118863 
L 288.118636 266.630179 
L 289.917318 268.340935 
L 291.716 267.878829 
L 293.514682 265.932599 
L 295.313364 268.275754 
L 298.910727 269.917663 
L 300.709409 265.691918 
L 302.508091 269.840623 
L 304.306773 272.634751 
L 306.105455 273.784721 
L 307.904136 272.406857 
L 309.702818 270.467179 
L 311.5015 270.092238 
L 313.300182 270.847779 
L 315.098864 277.256529 
L 316.897545 274.461095 
L 318.696227 275.17633 
L 320.494909 272.686128 
L 322.293591 274.949731 
L 324.092273 279.928009 
L 325.890955 276.01474 
L 327.689636 272.763364 
L 329.488318 276.563926 
L 331.287 273.305398 
L 334.884364 279.789978 
L 336.683045 275.960071 
L 338.481727 273.286831 
L 340.280409 274.440403 
L 342.079091 273.568216 
L 343.877773 274.193829 
L 345.676455 274.198689 
L 347.475136 274.602338 
L 349.273818 275.660161 
L 351.0725 278.496781 
L 352.871182 271.862356 
L 354.669864 275.630295 
L 356.468545 275.399363 
L 358.267227 271.695706 
L 360.065909 278.612338 
L 361.864591 274.498268 
L 363.663273 280.439737 
L 365.461955 276.770577 
L 367.260636 276.047555 
L 369.059318 277.866057 
L 370.858 276.046538 
L 372.656682 278.61817 
L 374.455364 279.380702 
L 376.254045 276.74199 
L 378.052727 276.976101 
L 379.851409 279.076938 
L 381.650091 279.550223 
L 383.448773 283.606478 
L 385.247455 280.248709 
L 387.046136 278.644068 
L 388.844818 277.5 
L 390.6435 275.86455 
L 392.442182 277.280333 
L 394.240864 275.788084 
L 396.039545 279.302919 
L 397.838227 281.20018 
L 399.636909 281.567745 
L 401.435591 278.935585 
L 403.234273 283.581813 
L 405.032955 280.176519 
L 406.831636 274.532792 
L 408.630318 283.596257 
L 410.429 278.526879 
L 412.227682 282.086137 
L 414.026364 280.310139 
L 415.825045 281.513992 
L 417.623727 280.904827 
L 419.422409 282.988922 
L 421.221091 281.616702 
L 423.019773 280.686741 
L 424.818455 284.143636 
L 426.617136 279.095893 
L 428.415818 278.746077 
L 430.2145 277.429016 
L 432.013182 283.741747 
L 432.013182 283.741747 
" clip-path="url(#p0c3b0954d8)" style="fill: none; stroke: #ff0000; stroke-width: 1.5; stroke-linecap: square"/>
   </g>
   <g id="line2d_20">
    <path d="M 72.276818 24.029753 
L 75.874182 25.464365 
L 77.672864 26.427606 
L 79.471545 26.896919 
L 81.270227 28.198335 
L 83.068909 29.692419 
L 84.867591 31.524119 
L 86.666273 33.83298 
L 88.464955 36.933766 
L 90.263636 41.920642 
L 92.062318 46.370131 
L 93.861 50.308088 
L 95.659682 53.063739 
L 97.458364 58.761083 
L 99.257045 62.842764 
L 101.055727 65.460842 
L 102.854409 69.70221 
L 104.653091 71.07122 
L 106.451773 74.544219 
L 108.250455 78.628343 
L 110.049136 78.198543 
L 111.847818 82.834568 
L 113.6465 83.082172 
L 115.445182 84.902051 
L 117.243864 84.772144 
L 119.042545 85.171042 
L 120.841227 88.333219 
L 122.639909 91.001677 
L 124.438591 91.601806 
L 126.237273 92.459923 
L 128.035955 97.065047 
L 129.834636 96.800031 
L 131.633318 98.699536 
L 133.432 101.031639 
L 135.230682 104.977816 
L 137.029364 103.597017 
L 138.828045 105.887503 
L 140.626727 106.207044 
L 142.425409 110.070719 
L 144.224091 107.790181 
L 146.022773 111.456944 
L 147.821455 111.096568 
L 149.620136 113.898743 
L 151.418818 113.878639 
L 153.2175 115.162693 
L 155.016182 117.699366 
L 156.814864 116.579934 
L 158.613545 120.067012 
L 160.412227 119.072648 
L 162.210909 119.508448 
L 164.009591 124.64025 
L 165.808273 118.0793 
L 167.606955 121.222502 
L 169.405636 120.489148 
L 171.204318 123.094754 
L 173.003 125.486376 
L 174.801682 128.77761 
L 176.600364 126.642573 
L 178.399045 128.989398 
L 180.197727 128.035202 
L 181.996409 128.83408 
L 183.795091 133.364239 
L 185.593773 131.664275 
L 187.392455 132.635135 
L 189.191136 132.276066 
L 190.989818 131.213529 
L 192.7885 135.734912 
L 194.587182 131.529966 
L 196.385864 136.00184 
L 198.184545 133.898227 
L 199.983227 134.4534 
L 201.781909 136.066463 
L 203.580591 135.76365 
L 205.379273 140.977456 
L 207.177955 136.857023 
L 208.976636 136.580218 
L 210.775318 140.4301 
L 212.574 137.308981 
L 214.372682 143.386611 
L 216.171364 138.420177 
L 219.768727 143.284117 
L 221.567409 142.8492 
L 225.164773 145.65646 
L 226.963455 140.836868 
L 228.762136 149.16149 
L 230.560818 143.628955 
L 232.3595 147.957015 
L 234.158182 143.858693 
L 235.956864 145.332982 
L 237.755545 144.934796 
L 241.352909 147.221108 
L 243.151591 147.646509 
L 244.950273 150.084668 
L 246.748955 145.732155 
L 248.547636 150.747565 
L 250.346318 153.245668 
L 252.145 150.742136 
L 253.943682 149.522515 
L 255.742364 149.77339 
L 257.541045 151.513892 
L 259.339727 148.374684 
L 261.138409 153.000945 
L 262.937091 152.785187 
L 264.735773 156.531298 
L 266.534455 155.250943 
L 268.333136 154.125506 
L 270.131818 151.794091 
L 271.9305 155.674488 
L 273.729182 155.339458 
L 275.527864 152.526761 
L 277.326545 152.502989 
L 279.125227 157.005406 
L 280.923909 158.697371 
L 282.722591 154.767975 
L 284.521273 155.393888 
L 286.319955 157.916614 
L 288.118636 158.254303 
L 289.917318 158.037961 
L 291.716 159.788951 
L 293.514682 157.681466 
L 295.313364 158.653575 
L 297.112045 160.644238 
L 298.910727 163.935641 
L 300.709409 159.399867 
L 302.508091 160.806841 
L 304.306773 162.874526 
L 306.105455 159.20754 
L 307.904136 161.175009 
L 309.702818 159.52103 
L 311.5015 162.803803 
L 313.300182 163.45673 
L 315.098864 162.967418 
L 316.897545 160.699475 
L 318.696227 161.606255 
L 320.494909 161.285799 
L 322.293591 161.114839 
L 324.092273 164.23455 
L 325.890955 161.359587 
L 327.689636 164.381409 
L 329.488318 167.938743 
L 331.287 165.12045 
L 333.085682 165.383239 
L 334.884364 163.563088 
L 336.683045 165.48492 
L 338.481727 168.564785 
L 340.280409 167.663588 
L 342.079091 164.972623 
L 343.877773 166.805174 
L 345.676455 168.039862 
L 347.475136 167.622484 
L 349.273818 168.62882 
L 351.0725 167.584604 
L 352.871182 171.440252 
L 354.669864 166.751142 
L 356.468545 171.299061 
L 358.267227 173.004536 
L 360.065909 168.09476 
L 361.864591 173.480872 
L 363.663273 168.777348 
L 365.461955 169.350703 
L 367.260636 175.324036 
L 369.059318 172.201341 
L 370.858 173.005503 
L 372.656682 171.993178 
L 374.455364 169.079237 
L 376.254045 174.460924 
L 378.052727 176.953633 
L 379.851409 170.490025 
L 381.650091 176.557524 
L 385.247455 174.159742 
L 387.046136 176.15351 
L 388.844818 174.707664 
L 390.6435 172.955918 
L 392.442182 173.777249 
L 394.240864 173.605019 
L 396.039545 179.613865 
L 397.838227 177.482811 
L 399.636909 175.756102 
L 401.435591 178.614145 
L 403.234273 173.70315 
L 405.032955 177.266387 
L 406.831636 179.241221 
L 408.630318 178.796924 
L 410.429 179.569968 
L 412.227682 180.050133 
L 414.026364 178.201732 
L 415.825045 178.912884 
L 417.623727 179.03148 
L 419.422409 175.950314 
L 421.221091 177.883742 
L 423.019773 179.286922 
L 424.818455 179.443987 
L 426.617136 178.848155 
L 428.415818 181.20815 
L 430.2145 180.839278 
L 432.013182 180.584005 
L 432.013182 180.584005 
" clip-path="url(#p0c3b0954d8)" style="fill: none; stroke: #ffa500; stroke-width: 1.5; stroke-linecap: square"/>
   </g>
   <g id="line2d_21">
    <path d="M 72.276818 24.519784 
L 74.0755 25.314706 
L 77.672864 26.34856 
L 81.270227 27.903516 
L 83.068909 28.802329 
L 84.867591 30.608758 
L 86.666273 30.815324 
L 88.464955 33.590946 
L 90.263636 35.698953 
L 93.861 41.488968 
L 95.659682 44.638439 
L 97.458364 48.09429 
L 99.257045 53.447958 
L 101.055727 55.795802 
L 102.854409 59.141507 
L 104.653091 64.723944 
L 106.451773 66.780907 
L 108.250455 73.141761 
L 110.049136 74.046966 
L 111.847818 76.015376 
L 113.6465 78.683186 
L 115.445182 79.552148 
L 117.243864 84.703669 
L 119.042545 84.51653 
L 120.841227 86.065088 
L 122.639909 89.795903 
L 124.438591 91.869762 
L 126.237273 89.891784 
L 128.035955 93.677534 
L 129.834636 93.537487 
L 131.633318 91.719981 
L 133.432 96.995095 
L 135.230682 98.363106 
L 138.828045 101.89317 
L 140.626727 101.750039 
L 142.425409 102.616154 
L 144.224091 104.198454 
L 146.022773 106.529904 
L 147.821455 109.370906 
L 149.620136 106.280707 
L 151.418818 111.191995 
L 153.2175 113.192463 
L 155.016182 110.873348 
L 156.814864 115.440971 
L 158.613545 113.253451 
L 160.412227 113.313096 
L 162.210909 116.982869 
L 164.009591 119.561594 
L 167.606955 120.594154 
L 169.405636 121.970139 
L 171.204318 121.754656 
L 173.003 125.364533 
L 174.801682 125.152402 
L 176.600364 128.427294 
L 178.399045 128.91314 
L 180.197727 125.293255 
L 181.996409 128.561768 
L 183.795091 123.661629 
L 185.593773 130.441632 
L 187.392455 130.489186 
L 189.191136 130.740179 
L 190.989818 131.916628 
L 192.7885 132.507225 
L 194.587182 133.998502 
L 196.385864 133.758447 
L 198.184545 134.209677 
L 199.983227 133.664542 
L 201.781909 133.884939 
L 203.580591 137.420883 
L 205.379273 136.025238 
L 207.177955 131.265421 
L 208.976636 135.976661 
L 210.775318 138.795767 
L 212.574 137.310752 
L 214.372682 140.691963 
L 216.171364 138.256661 
L 217.970045 141.189714 
L 219.768727 140.890425 
L 221.567409 143.617302 
L 223.366091 137.460247 
L 225.164773 145.854813 
L 226.963455 146.040461 
L 228.762136 145.065718 
L 230.560818 144.579973 
L 232.3595 141.29207 
L 234.158182 144.835797 
L 235.956864 147.14601 
L 237.755545 148.857917 
L 239.554227 148.032362 
L 241.352909 150.095078 
L 243.151591 146.475026 
L 244.950273 148.64192 
L 246.748955 152.104456 
L 248.547636 147.533824 
L 250.346318 147.519037 
L 252.145 145.273833 
L 253.943682 149.943955 
L 255.742364 151.853399 
L 257.541045 150.043936 
L 259.339727 149.812593 
L 261.138409 152.348188 
L 262.937091 155.093139 
L 264.735773 154.014832 
L 266.534455 158.931009 
L 268.333136 155.348511 
L 270.131818 156.021489 
L 271.9305 154.550894 
L 273.729182 155.883975 
L 275.527864 152.570866 
L 277.326545 152.490108 
L 279.125227 154.883991 
L 280.923909 156.38447 
L 282.722591 156.06395 
L 284.521273 156.953849 
L 286.319955 155.755847 
L 288.118636 161.252285 
L 289.917318 161.906768 
L 291.716 155.702939 
L 293.514682 156.963183 
L 295.313364 161.41678 
L 297.112045 157.203646 
L 298.910727 162.434832 
L 300.709409 160.242468 
L 302.508091 161.400281 
L 304.306773 162.134353 
L 306.105455 162.989163 
L 307.904136 162.654307 
L 309.702818 165.944368 
L 311.5015 164.830262 
L 313.300182 160.65174 
L 315.098864 163.274432 
L 316.897545 161.012294 
L 318.696227 165.304454 
L 320.494909 162.584814 
L 322.293591 162.060615 
L 324.092273 166.066229 
L 325.890955 165.092098 
L 327.689636 164.56312 
L 329.488318 163.296006 
L 331.287 164.670175 
L 333.085682 167.18413 
L 334.884364 167.020679 
L 336.683045 169.846409 
L 338.481727 167.308223 
L 340.280409 167.354282 
L 342.079091 168.563518 
L 343.877773 165.770351 
L 345.676455 170.360025 
L 347.475136 170.895378 
L 349.273818 167.651894 
L 351.0725 168.417963 
L 352.871182 168.656821 
L 354.669864 168.725488 
L 358.267227 175.167599 
L 360.065909 171.274908 
L 361.864591 175.630336 
L 363.663273 171.577784 
L 365.461955 170.666446 
L 367.260636 168.943328 
L 369.059318 173.628157 
L 370.858 171.033501 
L 372.656682 171.855391 
L 374.455364 175.880913 
L 376.254045 173.797265 
L 378.052727 174.982764 
L 379.851409 174.622377 
L 381.650091 174.672588 
L 383.448773 175.4907 
L 385.247455 172.150021 
L 387.046136 175.282779 
L 388.844818 177.302766 
L 390.6435 176.009129 
L 392.442182 176.308238 
L 394.240864 179.61206 
L 396.039545 180.093018 
L 397.838227 178.247512 
L 399.636909 175.736457 
L 401.435591 176.167837 
L 403.234273 179.93857 
L 405.032955 178.788926 
L 406.831636 177.207602 
L 408.630318 181.044277 
L 410.429 180.738512 
L 412.227682 181.018617 
L 415.825045 178.451125 
L 417.623727 182.17353 
L 419.422409 181.37597 
L 421.221091 182.255459 
L 423.019773 182.517937 
L 424.818455 183.508468 
L 426.617136 181.615131 
L 428.415818 184.060529 
L 430.2145 183.265844 
L 432.013182 179.410846 
L 432.013182 179.410846 
" clip-path="url(#p0c3b0954d8)" style="fill: none; stroke: #0000ff; stroke-width: 1.5; stroke-linecap: square"/>
   </g>
   <g id="patch_3">
    <path d="M 54.29 297.16 
L 54.29 10.8 
" style="fill: none; stroke: #000000; stroke-width: 0.8; stroke-linejoin: miter; stroke-linecap: square"/>
   </g>
   <g id="patch_4">
    <path d="M 450 297.16 
L 450 10.8 
" style="fill: none; stroke: #000000; stroke-width: 0.8; stroke-linejoin: miter; stroke-linecap: square"/>
   </g>
   <g id="patch_5">
    <path d="M 54.29 297.16 
L 450 297.16 
" style="fill: none; stroke: #000000; stroke-width: 0.8; stroke-linejoin: miter; stroke-linecap: square"/>
   </g>
   <g id="patch_6">
    <path d="M 54.29 10.8 
L 450 10.8 
" style="fill: none; stroke: #000000; stroke-width: 0.8; stroke-linejoin: miter; stroke-linecap: square"/>
   </g>
   <g id="legend_1">
    <g id="patch_7">
     <path d="M 303.09 117.54 
L 438.8 117.54 
Q 442 117.54 442 114.34 
L 442 22 
Q 442 18.8 438.8 18.8 
L 303.09 18.8 
Q 299.89 18.8 299.89 22 
L 299.89 114.34 
Q 299.89 117.54 303.09 117.54 
z
" style="fill: #ffffff; opacity: 0.8; stroke: #cccccc; stroke-linejoin: miter"/>
    </g>
    <g id="line2d_22">
     <path d="M 306.29 31.7575 
L 322.29 31.7575 
L 338.29 31.7575 
" style="fill: none; stroke: #000000; stroke-width: 1.5; stroke-linecap: square"/>
    </g>
    <g id="text_20">
     <!-- Scaffnew -->
     <g transform="translate(351.09 37.3575) scale(0.16 -0.16)">
      <defs>
       <path id="DejaVuSans-53" d="M 3425 4513 
L 3425 3897 
Q 3066 4069 2747 4153 
Q 2428 4238 2131 4238 
Q 1616 4238 1336 4038 
Q 1056 3838 1056 3469 
Q 1056 3159 1242 3001 
Q 1428 2844 1947 2747 
L 2328 2669 
Q 3034 2534 3370 2195 
Q 3706 1856 3706 1288 
Q 3706 609 3251 259 
Q 2797 -91 1919 -91 
Q 1588 -91 1214 -16 
Q 841 59 441 206 
L 441 856 
Q 825 641 1194 531 
Q 1563 422 1919 422 
Q 2459 422 2753 634 
Q 3047 847 3047 1241 
Q 3047 1584 2836 1778 
Q 2625 1972 2144 2069 
L 1759 2144 
Q 1053 2284 737 2584 
Q 422 2884 422 3419 
Q 422 4038 858 4394 
Q 1294 4750 2059 4750 
Q 2388 4750 2728 4690 
Q 3069 4631 3425 4513 
z
" transform="scale(0.015625)"/>
       <path id="DejaVuSans-66" d="M 2375 4863 
L 2375 4384 
L 1825 4384 
Q 1516 4384 1395 4259 
Q 1275 4134 1275 3809 
L 1275 3500 
L 2222 3500 
L 2222 3053 
L 1275 3053 
L 1275 0 
L 697 0 
L 697 3053 
L 147 3053 
L 147 3500 
L 697 3500 
L 697 3744 
Q 697 4328 969 4595 
Q 1241 4863 1831 4863 
L 2375 4863 
z
" transform="scale(0.015625)"/>
       <path id="DejaVuSans-65" d="M 3597 1894 
L 3597 1613 
L 953 1613 
Q 991 1019 1311 708 
Q 1631 397 2203 397 
Q 2534 397 2845 478 
Q 3156 559 3463 722 
L 3463 178 
Q 3153 47 2828 -22 
Q 2503 -91 2169 -91 
Q 1331 -91 842 396 
Q 353 884 353 1716 
Q 353 2575 817 3079 
Q 1281 3584 2069 3584 
Q 2775 3584 3186 3129 
Q 3597 2675 3597 1894 
z
M 3022 2063 
Q 3016 2534 2758 2815 
Q 2500 3097 2075 3097 
Q 1594 3097 1305 2825 
Q 1016 2553 972 2059 
L 3022 2063 
z
" transform="scale(0.015625)"/>
       <path id="DejaVuSans-77" d="M 269 3500 
L 844 3500 
L 1563 769 
L 2278 3500 
L 2956 3500 
L 3675 769 
L 4391 3500 
L 4966 3500 
L 4050 0 
L 3372 0 
L 2619 2869 
L 1863 0 
L 1184 0 
L 269 3500 
z
" transform="scale(0.015625)"/>
      </defs>
      <use xlink:href="#DejaVuSans-53"/>
      <use xlink:href="#DejaVuSans-63" x="63.476562"/>
      <use xlink:href="#DejaVuSans-61" x="118.457031"/>
      <use xlink:href="#DejaVuSans-66" x="179.736328"/>
      <use xlink:href="#DejaVuSans-66" x="214.941406"/>
      <use xlink:href="#DejaVuSans-6e" x="250.146484"/>
      <use xlink:href="#DejaVuSans-65" x="313.525391"/>
      <use xlink:href="#DejaVuSans-77" x="375.048828"/>
     </g>
    </g>
    <g id="line2d_23">
     <path d="M 306.29 55.2425 
L 322.29 55.2425 
L 338.29 55.2425 
" style="fill: none; stroke: #ff0000; stroke-width: 1.5; stroke-linecap: square"/>
    </g>
    <g id="text_21">
     <!-- Fedrcu -->
     <g transform="translate(351.09 60.8425) scale(0.16 -0.16)">
      <defs>
       <path id="DejaVuSans-46" d="M 628 4666 
L 3309 4666 
L 3309 4134 
L 1259 4134 
L 1259 2759 
L 3109 2759 
L 3109 2228 
L 1259 2228 
L 1259 0 
L 628 0 
L 628 4666 
z
" transform="scale(0.015625)"/>
       <path id="DejaVuSans-72" d="M 2631 2963 
Q 2534 3019 2420 3045 
Q 2306 3072 2169 3072 
Q 1681 3072 1420 2755 
Q 1159 2438 1159 1844 
L 1159 0 
L 581 0 
L 581 3500 
L 1159 3500 
L 1159 2956 
Q 1341 3275 1631 3429 
Q 1922 3584 2338 3584 
Q 2397 3584 2469 3576 
Q 2541 3569 2628 3553 
L 2631 2963 
z
" transform="scale(0.015625)"/>
      </defs>
      <use xlink:href="#DejaVuSans-46"/>
      <use xlink:href="#DejaVuSans-65" x="52.019531"/>
      <use xlink:href="#DejaVuSans-64" x="113.542969"/>
      <use xlink:href="#DejaVuSans-72" x="177.019531"/>
      <use xlink:href="#DejaVuSans-63" x="215.882812"/>
      <use xlink:href="#DejaVuSans-75" x="270.863281"/>
     </g>
    </g>
    <g id="line2d_24">
     <path d="M 306.29 78.7275 
L 322.29 78.7275 
L 338.29 78.7275 
" style="fill: none; stroke: #ffa500; stroke-width: 1.5; stroke-linecap: square"/>
    </g>
    <g id="text_22">
     <!-- SCAFFOLD -->
     <g transform="translate(351.09 84.3275) scale(0.16 -0.16)">
      <defs>
       <path id="DejaVuSans-41" d="M 2188 4044 
L 1331 1722 
L 3047 1722 
L 2188 4044 
z
M 1831 4666 
L 2547 4666 
L 4325 0 
L 3669 0 
L 3244 1197 
L 1141 1197 
L 716 0 
L 50 0 
L 1831 4666 
z
" transform="scale(0.015625)"/>
       <path id="DejaVuSans-4f" d="M 2522 4238 
Q 1834 4238 1429 3725 
Q 1025 3213 1025 2328 
Q 1025 1447 1429 934 
Q 1834 422 2522 422 
Q 3209 422 3611 934 
Q 4013 1447 4013 2328 
Q 4013 3213 3611 3725 
Q 3209 4238 2522 4238 
z
M 2522 4750 
Q 3503 4750 4090 4092 
Q 4678 3434 4678 2328 
Q 4678 1225 4090 567 
Q 3503 -91 2522 -91 
Q 1538 -91 948 565 
Q 359 1222 359 2328 
Q 359 3434 948 4092 
Q 1538 4750 2522 4750 
z
" transform="scale(0.015625)"/>
       <path id="DejaVuSans-44" d="M 1259 4147 
L 1259 519 
L 2022 519 
Q 2988 519 3436 956 
Q 3884 1394 3884 2338 
Q 3884 3275 3436 3711 
Q 2988 4147 2022 4147 
L 1259 4147 
z
M 628 4666 
L 1925 4666 
Q 3281 4666 3915 4102 
Q 4550 3538 4550 2338 
Q 4550 1131 3912 565 
Q 3275 0 1925 0 
L 628 0 
L 628 4666 
z
" transform="scale(0.015625)"/>
      </defs>
      <use xlink:href="#DejaVuSans-53"/>
      <use xlink:href="#DejaVuSans-43" x="63.476562"/>
      <use xlink:href="#DejaVuSans-41" x="133.300781"/>
      <use xlink:href="#DejaVuSans-46" x="201.708984"/>
      <use xlink:href="#DejaVuSans-46" x="259.228516"/>
      <use xlink:href="#DejaVuSans-4f" x="316.748047"/>
      <use xlink:href="#DejaVuSans-4c" x="395.458984"/>
      <use xlink:href="#DejaVuSans-44" x="451.171875"/>
     </g>
    </g>
    <g id="line2d_25">
     <path d="M 306.29 102.2125 
L 322.29 102.2125 
L 338.29 102.2125 
" style="fill: none; stroke: #0000ff; stroke-width: 1.5; stroke-linecap: square"/>
    </g>
    <g id="text_23">
     <!-- FedLin -->
     <g transform="translate(351.09 107.8125) scale(0.16 -0.16)">
      <use xlink:href="#DejaVuSans-46"/>
      <use xlink:href="#DejaVuSans-65" x="52.019531"/>
      <use xlink:href="#DejaVuSans-64" x="113.542969"/>
      <use xlink:href="#DejaVuSans-4c" x="177.019531"/>
      <use xlink:href="#DejaVuSans-69" x="232.732422"/>
      <use xlink:href="#DejaVuSans-6e" x="260.515625"/>
     </g>
    </g>
   </g>
  </g>
 </g>
 <defs>
  <clipPath id="p0c3b0954d8">
   <rect x="54.29" y="10.8" width="395.71" height="286.36"/>
  </clipPath>
 </defs>
</svg>
