<?xml version="1.0" encoding="utf-8" standalone="no"?>
<!DOCTYPE svg PUBLIC "-//W3C//DTD SVG 1.1//EN"
  "http://www.w3.org/Graphics/SVG/1.1/DTD/svg11.dtd">
<svg xmlns:xlink="http://www.w3.org/1999/xlink" width="460.8pt" height="345.6pt" viewBox="0 0 460.8 345.6" xmlns="http://www.w3.org/2000/svg" version="1.1">
 <metadata>
  <rdf:RDF xmlns:dc="http://purl.org/dc/elements/1.1/" xmlns:cc="http://creativecommons.org/ns#" xmlns:rdf="http://www.w3.org/1999/02/22-rdf-syntax-ns#">
   <cc:Work>
    <dc:type rdf:resource="http://purl.org/dc/dcmitype/StillImage"/>
    <dc:date>2025-09-23T21:00:08.840363</dc:date>
    <dc:format>image/svg+xml</dc:format>
    <dc:creator>
     <cc:Agent>
      <dc:title>Matplotlib v3.8.4, https://matplotlib.org/</dc:title>
     </cc:Agent>
    </dc:creator>
   </cc:Work>
  </rdf:RDF>
 </metadata>
 <defs>
  <style type="text/css">*{stroke-linejoin: round; stroke-linecap: butt}</style>
 </defs>
 <g id="figure_1">
  <g id="patch_1">
   <path d="M 0 345.6 
L 460.8 345.6 
L 460.8 0 
L 0 0 
z
" style="fill: #ffffff"/>
  </g>
  <g id="axes_1">
   <g id="patch_2">
    <path d="M 54.29 297.16 
L 450 297.16 
L 450 10.8 
L 54.29 10.8 
z
" style="fill: #ffffff"/>
   </g>
   <g id="matplotlib.axis_1">
    <g id="xtick_1">
     <g id="line2d_1">
      <defs>
       <path id="md35d8e80cb" d="M 0 0 
L 0 3.5 
" style="stroke: #000000; stroke-width: 0.8"/>
      </defs>
      <g>
       <use xlink:href="#md35d8e80cb" x="70.478136" y="297.16" style="stroke: #000000; stroke-width: 0.8"/>
      </g>
     </g>
     <g id="text_1">
      <!-- 0 -->
      <g transform="translate(67.296886 311.758438) scale(0.1 -0.1)">
       <defs>
        <path id="DejaVuSans-30" d="M 2034 4250 
Q 1547 4250 1301 3770 
Q 1056 3291 1056 2328 
Q 1056 1369 1301 889 
Q 1547 409 2034 409 
Q 2525 409 2770 889 
Q 3016 1369 3016 2328 
Q 3016 3291 2770 3770 
Q 2525 4250 2034 4250 
z
M 2034 4750 
Q 2819 4750 3233 4129 
Q 3647 3509 3647 2328 
Q 3647 1150 3233 529 
Q 2819 -91 2034 -91 
Q 1250 -91 836 529 
Q 422 1150 422 2328 
Q 422 3509 836 4129 
Q 1250 4750 2034 4750 
z
" transform="scale(0.015625)"/>
       </defs>
       <use xlink:href="#DejaVuSans-30"/>
      </g>
     </g>
    </g>
    <g id="xtick_2">
     <g id="line2d_2">
      <g>
       <use xlink:href="#md35d8e80cb" x="115.445182" y="297.16" style="stroke: #000000; stroke-width: 0.8"/>
      </g>
     </g>
     <g id="text_2">
      <!-- 250 -->
      <g transform="translate(105.901432 311.758438) scale(0.1 -0.1)">
       <defs>
        <path id="DejaVuSans-32" d="M 1228 531 
L 3431 531 
L 3431 0 
L 469 0 
L 469 531 
Q 828 903 1448 1529 
Q 2069 2156 2228 2338 
Q 2531 2678 2651 2914 
Q 2772 3150 2772 3378 
Q 2772 3750 2511 3984 
Q 2250 4219 1831 4219 
Q 1534 4219 1204 4116 
Q 875 4013 500 3803 
L 500 4441 
Q 881 4594 1212 4672 
Q 1544 4750 1819 4750 
Q 2544 4750 2975 4387 
Q 3406 4025 3406 3419 
Q 3406 3131 3298 2873 
Q 3191 2616 2906 2266 
Q 2828 2175 2409 1742 
Q 1991 1309 1228 531 
z
" transform="scale(0.015625)"/>
        <path id="DejaVuSans-35" d="M 691 4666 
L 3169 4666 
L 3169 4134 
L 1269 4134 
L 1269 2991 
Q 1406 3038 1543 3061 
Q 1681 3084 1819 3084 
Q 2600 3084 3056 2656 
Q 3513 2228 3513 1497 
Q 3513 744 3044 326 
Q 2575 -91 1722 -91 
Q 1428 -91 1123 -41 
Q 819 9 494 109 
L 494 744 
Q 775 591 1075 516 
Q 1375 441 1709 441 
Q 2250 441 2565 725 
Q 2881 1009 2881 1497 
Q 2881 1984 2565 2268 
Q 2250 2553 1709 2553 
Q 1456 2553 1204 2497 
Q 953 2441 691 2322 
L 691 4666 
z
" transform="scale(0.015625)"/>
       </defs>
       <use xlink:href="#DejaVuSans-32"/>
       <use xlink:href="#DejaVuSans-35" x="63.623047"/>
       <use xlink:href="#DejaVuSans-30" x="127.246094"/>
      </g>
     </g>
    </g>
    <g id="xtick_3">
     <g id="line2d_3">
      <g>
       <use xlink:href="#md35d8e80cb" x="160.412227" y="297.16" style="stroke: #000000; stroke-width: 0.8"/>
      </g>
     </g>
     <g id="text_3">
      <!-- 500 -->
      <g transform="translate(150.868477 311.758438) scale(0.1 -0.1)">
       <use xlink:href="#DejaVuSans-35"/>
       <use xlink:href="#DejaVuSans-30" x="63.623047"/>
       <use xlink:href="#DejaVuSans-30" x="127.246094"/>
      </g>
     </g>
    </g>
    <g id="xtick_4">
     <g id="line2d_4">
      <g>
       <use xlink:href="#md35d8e80cb" x="205.379273" y="297.16" style="stroke: #000000; stroke-width: 0.8"/>
      </g>
     </g>
     <g id="text_4">
      <!-- 750 -->
      <g transform="translate(195.835523 311.758438) scale(0.1 -0.1)">
       <defs>
        <path id="DejaVuSans-37" d="M 525 4666 
L 3525 4666 
L 3525 4397 
L 1831 0 
L 1172 0 
L 2766 4134 
L 525 4134 
L 525 4666 
z
" transform="scale(0.015625)"/>
       </defs>
       <use xlink:href="#DejaVuSans-37"/>
       <use xlink:href="#DejaVuSans-35" x="63.623047"/>
       <use xlink:href="#DejaVuSans-30" x="127.246094"/>
      </g>
     </g>
    </g>
    <g id="xtick_5">
     <g id="line2d_5">
      <g>
       <use xlink:href="#md35d8e80cb" x="250.346318" y="297.16" style="stroke: #000000; stroke-width: 0.8"/>
      </g>
     </g>
     <g id="text_5">
      <!-- 1000 -->
      <g transform="translate(237.621318 311.758438) scale(0.1 -0.1)">
       <defs>
        <path id="DejaVuSans-31" d="M 794 531 
L 1825 531 
L 1825 4091 
L 703 3866 
L 703 4441 
L 1819 4666 
L 2450 4666 
L 2450 531 
L 3481 531 
L 3481 0 
L 794 0 
L 794 531 
z
" transform="scale(0.015625)"/>
       </defs>
       <use xlink:href="#DejaVuSans-31"/>
       <use xlink:href="#DejaVuSans-30" x="63.623047"/>
       <use xlink:href="#DejaVuSans-30" x="127.246094"/>
       <use xlink:href="#DejaVuSans-30" x="190.869141"/>
      </g>
     </g>
    </g>
    <g id="xtick_6">
     <g id="line2d_6">
      <g>
       <use xlink:href="#md35d8e80cb" x="295.313364" y="297.16" style="stroke: #000000; stroke-width: 0.8"/>
      </g>
     </g>
     <g id="text_6">
      <!-- 1250 -->
      <g transform="translate(282.588364 311.758438) scale(0.1 -0.1)">
       <use xlink:href="#DejaVuSans-31"/>
       <use xlink:href="#DejaVuSans-32" x="63.623047"/>
       <use xlink:href="#DejaVuSans-35" x="127.246094"/>
       <use xlink:href="#DejaVuSans-30" x="190.869141"/>
      </g>
     </g>
    </g>
    <g id="xtick_7">
     <g id="line2d_7">
      <g>
       <use xlink:href="#md35d8e80cb" x="340.280409" y="297.16" style="stroke: #000000; stroke-width: 0.8"/>
      </g>
     </g>
     <g id="text_7">
      <!-- 1500 -->
      <g transform="translate(327.555409 311.758438) scale(0.1 -0.1)">
       <use xlink:href="#DejaVuSans-31"/>
       <use xlink:href="#DejaVuSans-35" x="63.623047"/>
       <use xlink:href="#DejaVuSans-30" x="127.246094"/>
       <use xlink:href="#DejaVuSans-30" x="190.869141"/>
      </g>
     </g>
    </g>
    <g id="xtick_8">
     <g id="line2d_8">
      <g>
       <use xlink:href="#md35d8e80cb" x="385.247455" y="297.16" style="stroke: #000000; stroke-width: 0.8"/>
      </g>
     </g>
     <g id="text_8">
      <!-- 1750 -->
      <g transform="translate(372.522455 311.758438) scale(0.1 -0.1)">
       <use xlink:href="#DejaVuSans-31"/>
       <use xlink:href="#DejaVuSans-37" x="63.623047"/>
       <use xlink:href="#DejaVuSans-35" x="127.246094"/>
       <use xlink:href="#DejaVuSans-30" x="190.869141"/>
      </g>
     </g>
    </g>
    <g id="xtick_9">
     <g id="line2d_9">
      <g>
       <use xlink:href="#md35d8e80cb" x="430.2145" y="297.16" style="stroke: #000000; stroke-width: 0.8"/>
      </g>
     </g>
     <g id="text_9">
      <!-- 2000 -->
      <g transform="translate(417.4895 311.758438) scale(0.1 -0.1)">
       <use xlink:href="#DejaVuSans-32"/>
       <use xlink:href="#DejaVuSans-30" x="63.623047"/>
       <use xlink:href="#DejaVuSans-30" x="127.246094"/>
       <use xlink:href="#DejaVuSans-30" x="190.869141"/>
      </g>
     </g>
    </g>
    <g id="text_10">
     <!-- Communication Rounds -->
     <g transform="translate(157.06875 329.995625) scale(0.16 -0.16)">
      <defs>
       <path id="DejaVuSans-43" d="M 4122 4306 
L 4122 3641 
Q 3803 3938 3442 4084 
Q 3081 4231 2675 4231 
Q 1875 4231 1450 3742 
Q 1025 3253 1025 2328 
Q 1025 1406 1450 917 
Q 1875 428 2675 428 
Q 3081 428 3442 575 
Q 3803 722 4122 1019 
L 4122 359 
Q 3791 134 3420 21 
Q 3050 -91 2638 -91 
Q 1578 -91 968 557 
Q 359 1206 359 2328 
Q 359 3453 968 4101 
Q 1578 4750 2638 4750 
Q 3056 4750 3426 4639 
Q 3797 4528 4122 4306 
z
" transform="scale(0.015625)"/>
       <path id="DejaVuSans-6f" d="M 1959 3097 
Q 1497 3097 1228 2736 
Q 959 2375 959 1747 
Q 959 1119 1226 758 
Q 1494 397 1959 397 
Q 2419 397 2687 759 
Q 2956 1122 2956 1747 
Q 2956 2369 2687 2733 
Q 2419 3097 1959 3097 
z
M 1959 3584 
Q 2709 3584 3137 3096 
Q 3566 2609 3566 1747 
Q 3566 888 3137 398 
Q 2709 -91 1959 -91 
Q 1206 -91 779 398 
Q 353 888 353 1747 
Q 353 2609 779 3096 
Q 1206 3584 1959 3584 
z
" transform="scale(0.015625)"/>
       <path id="DejaVuSans-6d" d="M 3328 2828 
Q 3544 3216 3844 3400 
Q 4144 3584 4550 3584 
Q 5097 3584 5394 3201 
Q 5691 2819 5691 2113 
L 5691 0 
L 5113 0 
L 5113 2094 
Q 5113 2597 4934 2840 
Q 4756 3084 4391 3084 
Q 3944 3084 3684 2787 
Q 3425 2491 3425 1978 
L 3425 0 
L 2847 0 
L 2847 2094 
Q 2847 2600 2669 2842 
Q 2491 3084 2119 3084 
Q 1678 3084 1418 2786 
Q 1159 2488 1159 1978 
L 1159 0 
L 581 0 
L 581 3500 
L 1159 3500 
L 1159 2956 
Q 1356 3278 1631 3431 
Q 1906 3584 2284 3584 
Q 2666 3584 2933 3390 
Q 3200 3197 3328 2828 
z
" transform="scale(0.015625)"/>
       <path id="DejaVuSans-75" d="M 544 1381 
L 544 3500 
L 1119 3500 
L 1119 1403 
Q 1119 906 1312 657 
Q 1506 409 1894 409 
Q 2359 409 2629 706 
Q 2900 1003 2900 1516 
L 2900 3500 
L 3475 3500 
L 3475 0 
L 2900 0 
L 2900 538 
Q 2691 219 2414 64 
Q 2138 -91 1772 -91 
Q 1169 -91 856 284 
Q 544 659 544 1381 
z
M 1991 3584 
L 1991 3584 
z
" transform="scale(0.015625)"/>
       <path id="DejaVuSans-6e" d="M 3513 2113 
L 3513 0 
L 2938 0 
L 2938 2094 
Q 2938 2591 2744 2837 
Q 2550 3084 2163 3084 
Q 1697 3084 1428 2787 
Q 1159 2491 1159 1978 
L 1159 0 
L 581 0 
L 581 3500 
L 1159 3500 
L 1159 2956 
Q 1366 3272 1645 3428 
Q 1925 3584 2291 3584 
Q 2894 3584 3203 3211 
Q 3513 2838 3513 2113 
z
" transform="scale(0.015625)"/>
       <path id="DejaVuSans-69" d="M 603 3500 
L 1178 3500 
L 1178 0 
L 603 0 
L 603 3500 
z
M 603 4863 
L 1178 4863 
L 1178 4134 
L 603 4134 
L 603 4863 
z
" transform="scale(0.015625)"/>
       <path id="DejaVuSans-63" d="M 3122 3366 
L 3122 2828 
Q 2878 2963 2633 3030 
Q 2388 3097 2138 3097 
Q 1578 3097 1268 2742 
Q 959 2388 959 1747 
Q 959 1106 1268 751 
Q 1578 397 2138 397 
Q 2388 397 2633 464 
Q 2878 531 3122 666 
L 3122 134 
Q 2881 22 2623 -34 
Q 2366 -91 2075 -91 
Q 1284 -91 818 406 
Q 353 903 353 1747 
Q 353 2603 823 3093 
Q 1294 3584 2113 3584 
Q 2378 3584 2631 3529 
Q 2884 3475 3122 3366 
z
" transform="scale(0.015625)"/>
       <path id="DejaVuSans-61" d="M 2194 1759 
Q 1497 1759 1228 1600 
Q 959 1441 959 1056 
Q 959 750 1161 570 
Q 1363 391 1709 391 
Q 2188 391 2477 730 
Q 2766 1069 2766 1631 
L 2766 1759 
L 2194 1759 
z
M 3341 1997 
L 3341 0 
L 2766 0 
L 2766 531 
Q 2569 213 2275 61 
Q 1981 -91 1556 -91 
Q 1019 -91 701 211 
Q 384 513 384 1019 
Q 384 1609 779 1909 
Q 1175 2209 1959 2209 
L 2766 2209 
L 2766 2266 
Q 2766 2663 2505 2880 
Q 2244 3097 1772 3097 
Q 1472 3097 1187 3025 
Q 903 2953 641 2809 
L 641 3341 
Q 956 3463 1253 3523 
Q 1550 3584 1831 3584 
Q 2591 3584 2966 3190 
Q 3341 2797 3341 1997 
z
" transform="scale(0.015625)"/>
       <path id="DejaVuSans-74" d="M 1172 4494 
L 1172 3500 
L 2356 3500 
L 2356 3053 
L 1172 3053 
L 1172 1153 
Q 1172 725 1289 603 
Q 1406 481 1766 481 
L 2356 481 
L 2356 0 
L 1766 0 
Q 1100 0 847 248 
Q 594 497 594 1153 
L 594 3053 
L 172 3053 
L 172 3500 
L 594 3500 
L 594 4494 
L 1172 4494 
z
" transform="scale(0.015625)"/>
       <path id="DejaVuSans-20" transform="scale(0.015625)"/>
       <path id="DejaVuSans-52" d="M 2841 2188 
Q 3044 2119 3236 1894 
Q 3428 1669 3622 1275 
L 4263 0 
L 3584 0 
L 2988 1197 
Q 2756 1666 2539 1819 
Q 2322 1972 1947 1972 
L 1259 1972 
L 1259 0 
L 628 0 
L 628 4666 
L 2053 4666 
Q 2853 4666 3247 4331 
Q 3641 3997 3641 3322 
Q 3641 2881 3436 2590 
Q 3231 2300 2841 2188 
z
M 1259 4147 
L 1259 2491 
L 2053 2491 
Q 2509 2491 2742 2702 
Q 2975 2913 2975 3322 
Q 2975 3731 2742 3939 
Q 2509 4147 2053 4147 
L 1259 4147 
z
" transform="scale(0.015625)"/>
       <path id="DejaVuSans-64" d="M 2906 2969 
L 2906 4863 
L 3481 4863 
L 3481 0 
L 2906 0 
L 2906 525 
Q 2725 213 2448 61 
Q 2172 -91 1784 -91 
Q 1150 -91 751 415 
Q 353 922 353 1747 
Q 353 2572 751 3078 
Q 1150 3584 1784 3584 
Q 2172 3584 2448 3432 
Q 2725 3281 2906 2969 
z
M 947 1747 
Q 947 1113 1208 752 
Q 1469 391 1925 391 
Q 2381 391 2643 752 
Q 2906 1113 2906 1747 
Q 2906 2381 2643 2742 
Q 2381 3103 1925 3103 
Q 1469 3103 1208 2742 
Q 947 2381 947 1747 
z
" transform="scale(0.015625)"/>
       <path id="DejaVuSans-73" d="M 2834 3397 
L 2834 2853 
Q 2591 2978 2328 3040 
Q 2066 3103 1784 3103 
Q 1356 3103 1142 2972 
Q 928 2841 928 2578 
Q 928 2378 1081 2264 
Q 1234 2150 1697 2047 
L 1894 2003 
Q 2506 1872 2764 1633 
Q 3022 1394 3022 966 
Q 3022 478 2636 193 
Q 2250 -91 1575 -91 
Q 1294 -91 989 -36 
Q 684 19 347 128 
L 347 722 
Q 666 556 975 473 
Q 1284 391 1588 391 
Q 1994 391 2212 530 
Q 2431 669 2431 922 
Q 2431 1156 2273 1281 
Q 2116 1406 1581 1522 
L 1381 1569 
Q 847 1681 609 1914 
Q 372 2147 372 2553 
Q 372 3047 722 3315 
Q 1072 3584 1716 3584 
Q 2034 3584 2315 3537 
Q 2597 3491 2834 3397 
z
" transform="scale(0.015625)"/>
      </defs>
      <use xlink:href="#DejaVuSans-43"/>
      <use xlink:href="#DejaVuSans-6f" x="69.824219"/>
      <use xlink:href="#DejaVuSans-6d" x="131.005859"/>
      <use xlink:href="#DejaVuSans-6d" x="228.417969"/>
      <use xlink:href="#DejaVuSans-75" x="325.830078"/>
      <use xlink:href="#DejaVuSans-6e" x="389.208984"/>
      <use xlink:href="#DejaVuSans-69" x="452.587891"/>
      <use xlink:href="#DejaVuSans-63" x="480.371094"/>
      <use xlink:href="#DejaVuSans-61" x="535.351562"/>
      <use xlink:href="#DejaVuSans-74" x="596.630859"/>
      <use xlink:href="#DejaVuSans-69" x="635.839844"/>
      <use xlink:href="#DejaVuSans-6f" x="663.623047"/>
      <use xlink:href="#DejaVuSans-6e" x="724.804688"/>
      <use xlink:href="#DejaVuSans-20" x="788.183594"/>
      <use xlink:href="#DejaVuSans-52" x="819.970703"/>
      <use xlink:href="#DejaVuSans-6f" x="884.953125"/>
      <use xlink:href="#DejaVuSans-75" x="946.134766"/>
      <use xlink:href="#DejaVuSans-6e" x="1009.513672"/>
      <use xlink:href="#DejaVuSans-64" x="1072.892578"/>
      <use xlink:href="#DejaVuSans-73" x="1136.369141"/>
     </g>
    </g>
   </g>
   <g id="matplotlib.axis_2">
    <g id="ytick_1">
     <g id="line2d_10">
      <defs>
       <path id="m8e58093989" d="M 0 0 
L -3.5 0 
" style="stroke: #000000; stroke-width: 0.8"/>
      </defs>
      <g>
       <use xlink:href="#m8e58093989" x="54.29" y="264.851794" style="stroke: #000000; stroke-width: 0.8"/>
      </g>
     </g>
     <g id="text_11">
      <!-- 1.0 -->
      <g transform="translate(31.386875 268.651013) scale(0.1 -0.1)">
       <defs>
        <path id="DejaVuSans-2e" d="M 684 794 
L 1344 794 
L 1344 0 
L 684 0 
L 684 794 
z
" transform="scale(0.015625)"/>
       </defs>
       <use xlink:href="#DejaVuSans-31"/>
       <use xlink:href="#DejaVuSans-2e" x="63.623047"/>
       <use xlink:href="#DejaVuSans-30" x="95.410156"/>
      </g>
     </g>
    </g>
    <g id="ytick_2">
     <g id="line2d_11">
      <g>
       <use xlink:href="#m8e58093989" x="54.29" y="228.380794" style="stroke: #000000; stroke-width: 0.8"/>
      </g>
     </g>
     <g id="text_12">
      <!-- 1.2 -->
      <g transform="translate(31.386875 232.180012) scale(0.1 -0.1)">
       <use xlink:href="#DejaVuSans-31"/>
       <use xlink:href="#DejaVuSans-2e" x="63.623047"/>
       <use xlink:href="#DejaVuSans-32" x="95.410156"/>
      </g>
     </g>
    </g>
    <g id="ytick_3">
     <g id="line2d_12">
      <g>
       <use xlink:href="#m8e58093989" x="54.29" y="191.909793" style="stroke: #000000; stroke-width: 0.8"/>
      </g>
     </g>
     <g id="text_13">
      <!-- 1.4 -->
      <g transform="translate(31.386875 195.709012) scale(0.1 -0.1)">
       <defs>
        <path id="DejaVuSans-34" d="M 2419 4116 
L 825 1625 
L 2419 1625 
L 2419 4116 
z
M 2253 4666 
L 3047 4666 
L 3047 1625 
L 3713 1625 
L 3713 1100 
L 3047 1100 
L 3047 0 
L 2419 0 
L 2419 1100 
L 313 1100 
L 313 1709 
L 2253 4666 
z
" transform="scale(0.015625)"/>
       </defs>
       <use xlink:href="#DejaVuSans-31"/>
       <use xlink:href="#DejaVuSans-2e" x="63.623047"/>
       <use xlink:href="#DejaVuSans-34" x="95.410156"/>
      </g>
     </g>
    </g>
    <g id="ytick_4">
     <g id="line2d_13">
      <g>
       <use xlink:href="#m8e58093989" x="54.29" y="155.438793" style="stroke: #000000; stroke-width: 0.8"/>
      </g>
     </g>
     <g id="text_14">
      <!-- 1.6 -->
      <g transform="translate(31.386875 159.238011) scale(0.1 -0.1)">
       <defs>
        <path id="DejaVuSans-36" d="M 2113 2584 
Q 1688 2584 1439 2293 
Q 1191 2003 1191 1497 
Q 1191 994 1439 701 
Q 1688 409 2113 409 
Q 2538 409 2786 701 
Q 3034 994 3034 1497 
Q 3034 2003 2786 2293 
Q 2538 2584 2113 2584 
z
M 3366 4563 
L 3366 3988 
Q 3128 4100 2886 4159 
Q 2644 4219 2406 4219 
Q 1781 4219 1451 3797 
Q 1122 3375 1075 2522 
Q 1259 2794 1537 2939 
Q 1816 3084 2150 3084 
Q 2853 3084 3261 2657 
Q 3669 2231 3669 1497 
Q 3669 778 3244 343 
Q 2819 -91 2113 -91 
Q 1303 -91 875 529 
Q 447 1150 447 2328 
Q 447 3434 972 4092 
Q 1497 4750 2381 4750 
Q 2619 4750 2861 4703 
Q 3103 4656 3366 4563 
z
" transform="scale(0.015625)"/>
       </defs>
       <use xlink:href="#DejaVuSans-31"/>
       <use xlink:href="#DejaVuSans-2e" x="63.623047"/>
       <use xlink:href="#DejaVuSans-36" x="95.410156"/>
      </g>
     </g>
    </g>
    <g id="ytick_5">
     <g id="line2d_14">
      <g>
       <use xlink:href="#m8e58093989" x="54.29" y="118.967792" style="stroke: #000000; stroke-width: 0.8"/>
      </g>
     </g>
     <g id="text_15">
      <!-- 1.8 -->
      <g transform="translate(31.386875 122.767011) scale(0.1 -0.1)">
       <defs>
        <path id="DejaVuSans-38" d="M 2034 2216 
Q 1584 2216 1326 1975 
Q 1069 1734 1069 1313 
Q 1069 891 1326 650 
Q 1584 409 2034 409 
Q 2484 409 2743 651 
Q 3003 894 3003 1313 
Q 3003 1734 2745 1975 
Q 2488 2216 2034 2216 
z
M 1403 2484 
Q 997 2584 770 2862 
Q 544 3141 544 3541 
Q 544 4100 942 4425 
Q 1341 4750 2034 4750 
Q 2731 4750 3128 4425 
Q 3525 4100 3525 3541 
Q 3525 3141 3298 2862 
Q 3072 2584 2669 2484 
Q 3125 2378 3379 2068 
Q 3634 1759 3634 1313 
Q 3634 634 3220 271 
Q 2806 -91 2034 -91 
Q 1263 -91 848 271 
Q 434 634 434 1313 
Q 434 1759 690 2068 
Q 947 2378 1403 2484 
z
M 1172 3481 
Q 1172 3119 1398 2916 
Q 1625 2713 2034 2713 
Q 2441 2713 2670 2916 
Q 2900 3119 2900 3481 
Q 2900 3844 2670 4047 
Q 2441 4250 2034 4250 
Q 1625 4250 1398 4047 
Q 1172 3844 1172 3481 
z
" transform="scale(0.015625)"/>
       </defs>
       <use xlink:href="#DejaVuSans-31"/>
       <use xlink:href="#DejaVuSans-2e" x="63.623047"/>
       <use xlink:href="#DejaVuSans-38" x="95.410156"/>
      </g>
     </g>
    </g>
    <g id="ytick_6">
     <g id="line2d_15">
      <g>
       <use xlink:href="#m8e58093989" x="54.29" y="82.496792" style="stroke: #000000; stroke-width: 0.8"/>
      </g>
     </g>
     <g id="text_16">
      <!-- 2.0 -->
      <g transform="translate(31.386875 86.296011) scale(0.1 -0.1)">
       <use xlink:href="#DejaVuSans-32"/>
       <use xlink:href="#DejaVuSans-2e" x="63.623047"/>
       <use xlink:href="#DejaVuSans-30" x="95.410156"/>
      </g>
     </g>
    </g>
    <g id="ytick_7">
     <g id="line2d_16">
      <g>
       <use xlink:href="#m8e58093989" x="54.29" y="46.025791" style="stroke: #000000; stroke-width: 0.8"/>
      </g>
     </g>
     <g id="text_17">
      <!-- 2.2 -->
      <g transform="translate(31.386875 49.82501) scale(0.1 -0.1)">
       <use xlink:href="#DejaVuSans-32"/>
       <use xlink:href="#DejaVuSans-2e" x="63.623047"/>
       <use xlink:href="#DejaVuSans-32" x="95.410156"/>
      </g>
     </g>
    </g>
    <g id="text_18">
     <!-- Loss -->
     <g transform="translate(24.059375 171.5275) rotate(-90) scale(0.16 -0.16)">
      <defs>
       <path id="DejaVuSans-4c" d="M 628 4666 
L 1259 4666 
L 1259 531 
L 3531 531 
L 3531 0 
L 628 0 
L 628 4666 
z
" transform="scale(0.015625)"/>
      </defs>
      <use xlink:href="#DejaVuSans-4c"/>
      <use xlink:href="#DejaVuSans-6f" x="53.962891"/>
      <use xlink:href="#DejaVuSans-73" x="115.144531"/>
      <use xlink:href="#DejaVuSans-73" x="167.244141"/>
     </g>
    </g>
   </g>
   <g id="line2d_17">
    <path d="M 72.456686 27.484326 
L 74.435236 25.68379 
L 76.413786 25.087009 
L 78.392336 23.816364 
L 80.370886 33.525265 
L 82.349436 39.381466 
L 84.327986 44.754376 
L 86.306536 54.869605 
L 88.285086 41.109699 
L 90.263636 58.258575 
L 92.242186 64.564061 
L 94.220736 67.882056 
L 96.199286 70.366121 
L 98.177836 74.786572 
L 100.156386 69.414114 
L 102.134936 72.204361 
L 104.113486 74.502253 
L 106.092036 69.094901 
L 108.070586 74.594177 
L 110.049136 80.830939 
L 112.027686 84.927425 
L 114.006236 73.703825 
L 115.984786 77.697264 
L 117.963336 92.175082 
L 119.941886 84.217265 
L 121.920436 86.562412 
L 123.898986 96.238152 
L 125.877536 98.505198 
L 127.856086 97.282942 
L 129.834636 87.596916 
L 131.813186 100.738807 
L 133.791736 96.575997 
L 135.770286 111.044353 
L 137.748836 88.842901 
L 139.727386 93.798937 
L 141.705936 108.308545 
L 143.684486 98.455925 
L 145.663036 101.671389 
L 147.641586 108.902323 
L 149.620136 115.471589 
L 151.598686 116.21219 
L 153.577236 120.801669 
L 155.555786 122.728034 
L 157.534336 127.880113 
L 159.512886 131.807447 
L 161.491436 116.632757 
L 163.469986 121.136452 
L 165.448536 130.968906 
L 167.427086 132.919121 
L 169.405636 124.335484 
L 171.384186 125.430667 
L 173.362736 129.671756 
L 175.341286 140.785495 
L 177.319836 143.057932 
L 179.298386 141.681036 
L 181.276936 143.340836 
L 183.255486 133.006365 
L 185.234036 147.339438 
L 187.212586 153.879885 
L 189.191136 150.605615 
L 191.169686 153.51893 
L 193.148236 140.794166 
L 195.126786 151.418504 
L 197.105336 155.073546 
L 199.083886 154.014613 
L 201.062436 148.162232 
L 203.040986 158.601768 
L 205.019536 159.149057 
L 206.998086 160.350979 
L 208.976636 164.847203 
L 210.955186 152.659818 
L 212.933736 161.515256 
L 214.912286 159.195606 
L 216.890836 160.291999 
L 218.869386 162.722636 
L 220.847936 167.451667 
L 222.826486 171.093142 
L 224.805036 172.048453 
L 226.783586 165.236141 
L 228.762136 174.05109 
L 230.740686 173.182078 
L 232.719236 171.136971 
L 234.697786 173.304423 
L 236.676336 174.883463 
L 238.654886 175.34175 
L 240.633436 177.399996 
L 242.611986 171.624175 
L 244.590536 169.612935 
L 246.569086 162.152968 
L 248.547636 159.392659 
L 250.526186 178.064225 
L 254.483286 180.440186 
L 256.461836 182.035141 
L 258.440386 182.190006 
L 260.418936 182.621251 
L 262.397486 182.211382 
L 264.376036 173.603678 
L 266.354586 168.287645 
L 268.333136 183.014441 
L 270.311686 174.266408 
L 272.290236 186.623781 
L 274.268786 186.830963 
L 276.247336 187.443629 
L 278.225886 186.727334 
L 280.204436 188.557807 
L 282.182986 196.061373 
L 284.161536 189.67958 
L 286.140086 191.387239 
L 288.118636 192.152319 
L 290.097186 193.435706 
L 292.075736 195.825983 
L 294.054286 152.375674 
L 296.032836 191.552588 
L 298.011386 191.14246 
L 299.989936 191.242211 
L 301.968486 175.856153 
L 303.947036 198.712127 
L 305.925586 193.255338 
L 307.904136 180.398672 
L 309.882686 191.149999 
L 311.861236 198.552482 
L 313.839786 191.563326 
L 315.818336 168.928522 
L 317.796886 193.643104 
L 319.775436 194.450677 
L 321.753986 194.718295 
L 323.732536 199.436145 
L 325.711086 196.471542 
L 327.689636 197.768808 
L 329.668186 197.221086 
L 331.646736 196.87769 
L 333.625286 200.079248 
L 335.603836 182.552159 
L 337.582386 195.254219 
L 339.560936 200.659299 
L 341.539486 196.549095 
L 343.518036 199.521278 
L 345.496586 200.196146 
L 347.475136 201.576152 
L 349.453686 198.35629 
L 351.432236 203.723391 
L 353.410786 203.377539 
L 355.389336 199.466359 
L 357.367886 205.00199 
L 359.346436 202.234078 
L 361.324986 202.030353 
L 363.303536 202.645247 
L 365.282086 199.812887 
L 367.260636 203.295616 
L 369.239186 204.311737 
L 371.217736 186.725433 
L 373.196286 204.465969 
L 375.174836 197.030878 
L 377.153386 188.378912 
L 379.131936 186.239038 
L 381.110486 202.441339 
L 383.089036 202.147188 
L 385.067586 206.304531 
L 387.046136 184.449237 
L 389.024686 201.447681 
L 391.003236 203.107254 
L 392.981786 204.383586 
L 394.960336 203.118058 
L 396.938886 210.650785 
L 398.917436 197.27635 
L 400.895986 208.742184 
L 402.874536 202.332838 
L 404.853086 204.678986 
L 406.831636 206.17535 
L 408.810186 189.449414 
L 410.788736 207.148621 
L 412.767286 209.487347 
L 414.745836 208.285646 
L 416.724386 209.1302 
L 418.702936 208.559248 
L 420.681486 203.677712 
L 420.681486 203.677712 
" clip-path="url(#p3b04c793fb)" style="fill: none; stroke: #000000; stroke-width: 1.5; stroke-linecap: square"/>
   </g>
   <g id="line2d_18">
    <path d="M 72.276818 26.787063 
L 74.0755 37.542285 
L 75.874182 72.83833 
L 77.672864 80.657367 
L 79.471545 93.905601 
L 81.270227 108.1923 
L 83.068909 114.60448 
L 84.867591 124.76464 
L 86.666273 129.62264 
L 88.464955 131.403389 
L 90.263636 141.856259 
L 92.062318 143.473118 
L 93.861 144.399354 
L 95.659682 154.681427 
L 97.458364 154.877147 
L 99.257045 158.354517 
L 101.055727 160.082967 
L 102.854409 167.75139 
L 104.653091 176.694556 
L 106.451773 167.956982 
L 108.250455 178.586034 
L 110.049136 181.963298 
L 111.847818 181.189877 
L 113.6465 183.47435 
L 117.243864 184.479325 
L 119.042545 195.333533 
L 120.841227 187.524961 
L 122.639909 189.18921 
L 124.438591 190.469817 
L 126.237273 197.17025 
L 128.035955 200.539355 
L 129.834636 200.260267 
L 131.633318 198.846962 
L 133.432 200.62561 
L 135.230682 202.843744 
L 137.029364 206.878429 
L 138.828045 205.329836 
L 140.626727 211.269725 
L 142.425409 210.391835 
L 144.224091 211.084857 
L 146.022773 212.82623 
L 147.821455 211.134958 
L 149.620136 218.67824 
L 151.418818 218.922867 
L 153.2175 224.366958 
L 155.016182 216.452362 
L 156.814864 219.171369 
L 158.613545 224.877775 
L 160.412227 225.802944 
L 162.210909 224.42796 
L 164.009591 229.35144 
L 165.808273 227.096788 
L 167.606955 231.701264 
L 169.405636 226.304771 
L 171.204318 229.865745 
L 173.003 226.925375 
L 178.399045 234.487673 
L 180.197727 230.346595 
L 181.996409 232.875605 
L 183.795091 232.066577 
L 185.593773 235.651496 
L 187.392455 238.016097 
L 189.191136 237.82732 
L 190.989818 239.412848 
L 192.7885 239.905142 
L 194.587182 243.283537 
L 196.385864 242.035986 
L 198.184545 237.083121 
L 199.983227 241.833906 
L 201.781909 242.108543 
L 203.580591 242.868968 
L 205.379273 247.729208 
L 207.177955 237.961735 
L 208.976636 242.50098 
L 210.775318 242.447896 
L 212.574 250.57516 
L 214.372682 250.124113 
L 216.171364 244.17174 
L 217.970045 249.302225 
L 219.768727 251.666695 
L 221.567409 249.909789 
L 223.366091 253.214554 
L 225.164773 249.327805 
L 226.963455 251.678307 
L 228.762136 247.970295 
L 230.560818 249.958154 
L 232.3595 255.771797 
L 234.158182 259.414186 
L 235.956864 255.998544 
L 237.755545 248.270274 
L 239.554227 260.544284 
L 241.352909 261.65598 
L 243.151591 255.046966 
L 244.950273 256.111317 
L 246.748955 262.170991 
L 248.547636 261.299275 
L 250.346318 254.232776 
L 252.145 254.988792 
L 253.943682 257.610607 
L 255.742364 261.274676 
L 257.541045 263.172807 
L 259.339727 256.581076 
L 261.138409 262.931153 
L 262.937091 255.815057 
L 264.735773 267.006811 
L 266.534455 261.793306 
L 268.333136 263.881126 
L 270.131818 268.279246 
L 273.729182 264.15934 
L 275.527864 268.1978 
L 277.326545 261.892755 
L 279.125227 263.831322 
L 280.923909 264.628071 
L 282.722591 265.753621 
L 284.521273 268.448387 
L 286.319955 270.074208 
L 288.118636 267.383561 
L 289.917318 265.836742 
L 291.716 263.513595 
L 293.514682 263.16572 
L 295.313364 263.930551 
L 297.112045 269.91821 
L 298.910727 266.374344 
L 300.709409 260.956246 
L 302.508091 275.743687 
L 304.306773 262.582337 
L 306.105455 264.004601 
L 307.904136 266.781329 
L 309.702818 270.525315 
L 311.5015 268.499877 
L 313.300182 263.64276 
L 315.098864 269.767255 
L 316.897545 260.310326 
L 318.696227 271.044782 
L 320.494909 268.027342 
L 324.092273 269.280655 
L 325.890955 269.233842 
L 327.689636 272.271019 
L 329.488318 271.890104 
L 331.287 274.943013 
L 333.085682 274.905969 
L 334.884364 266.284868 
L 336.683045 275.005979 
L 338.481727 270.758579 
L 340.280409 271.432328 
L 342.079091 273.807157 
L 343.877773 271.071448 
L 345.676455 275.048053 
L 347.475136 272.301363 
L 349.273818 267.913719 
L 351.0725 273.543917 
L 352.871182 274.343607 
L 354.669864 271.410786 
L 356.468545 276.730162 
L 358.267227 273.486965 
L 360.065909 275.188944 
L 361.864591 280.660633 
L 363.663273 269.182263 
L 365.461955 274.512828 
L 367.260636 274.731105 
L 369.059318 277.552125 
L 370.858 273.643269 
L 372.656682 275.327256 
L 374.455364 280.135507 
L 376.254045 270.270296 
L 378.052727 275.506622 
L 379.851409 278.817092 
L 381.650091 279.254321 
L 383.448773 276.652321 
L 385.247455 279.495346 
L 387.046136 277.508468 
L 388.844818 275.236172 
L 390.6435 272.041484 
L 392.442182 278.628466 
L 394.240864 283.525758 
L 396.039545 273.556161 
L 397.838227 279.813328 
L 399.636909 276.385659 
L 401.435591 274.597999 
L 403.234273 277.319113 
L 405.032955 272.194481 
L 408.630318 284.11438 
L 410.429 278.753078 
L 412.227682 277.698016 
L 414.026364 278.128546 
L 415.825045 278.170229 
L 417.623727 276.956134 
L 419.422409 277.209066 
L 421.221091 280.012785 
L 423.019773 276.508634 
L 424.818455 279.517984 
L 426.617136 276.290754 
L 428.415818 277.412287 
L 430.2145 272.193707 
L 432.013182 284.143636 
L 432.013182 284.143636 
" clip-path="url(#p3b04c793fb)" style="fill: none; stroke: #ff0000; stroke-width: 1.5; stroke-linecap: square"/>
   </g>
   <g id="line2d_19">
    <path d="M 72.276818 26.81495 
L 74.0755 27.65906 
L 75.874182 28.794854 
L 77.672864 29.244522 
L 79.471545 30.710166 
L 81.270227 32.002003 
L 83.068909 33.727974 
L 86.666273 38.727011 
L 90.263636 46.129134 
L 92.062318 50.574239 
L 93.861 53.858813 
L 95.659682 61.14115 
L 97.458364 64.819933 
L 99.257045 68.821623 
L 101.055727 76.158286 
L 102.854409 76.911636 
L 104.653091 83.564923 
L 106.451773 83.389523 
L 108.250455 84.061114 
L 110.049136 87.506913 
L 111.847818 90.111676 
L 113.6465 92.050632 
L 115.445182 94.768855 
L 117.243864 96.891288 
L 119.042545 98.222802 
L 120.841227 100.382461 
L 122.639909 103.375193 
L 124.438591 102.366904 
L 126.237273 106.056165 
L 128.035955 105.675033 
L 129.834636 110.783257 
L 131.633318 107.593069 
L 133.432 113.276668 
L 135.230682 112.425706 
L 137.029364 114.995987 
L 138.828045 115.632676 
L 140.626727 118.033731 
L 142.425409 121.526314 
L 144.224091 121.264145 
L 146.022773 120.621021 
L 147.821455 122.942106 
L 149.620136 124.588922 
L 151.418818 125.835233 
L 153.2175 130.701248 
L 155.016182 128.33495 
L 156.814864 130.167082 
L 158.613545 130.391818 
L 160.412227 131.402196 
L 162.210909 137.674416 
L 164.009591 135.050465 
L 165.808273 139.013749 
L 167.606955 138.069092 
L 169.405636 137.346141 
L 171.204318 137.107814 
L 174.801682 140.368889 
L 176.600364 142.573405 
L 178.399045 143.63837 
L 180.197727 144.88604 
L 181.996409 144.068513 
L 183.795091 145.153254 
L 185.593773 148.381068 
L 187.392455 146.605976 
L 189.191136 144.650379 
L 190.989818 147.21085 
L 192.7885 143.573894 
L 194.587182 148.746297 
L 196.385864 150.301209 
L 198.184545 151.079269 
L 199.983227 149.294081 
L 201.781909 152.772646 
L 203.580591 148.012382 
L 205.379273 150.863222 
L 207.177955 152.10206 
L 208.976636 152.74792 
L 210.775318 153.587057 
L 212.574 157.182194 
L 214.372682 151.210779 
L 216.171364 155.016631 
L 217.970045 154.638573 
L 219.768727 155.029078 
L 221.567409 156.470745 
L 223.366091 158.960214 
L 225.164773 160.272373 
L 226.963455 155.935904 
L 228.762136 157.455524 
L 230.560818 161.203441 
L 232.3595 164.31174 
L 234.158182 159.817258 
L 235.956864 162.05491 
L 237.755545 161.102402 
L 239.554227 163.403894 
L 241.352909 163.199806 
L 243.151591 163.562522 
L 244.950273 164.180936 
L 246.748955 165.70608 
L 248.547636 166.214623 
L 250.346318 163.214375 
L 252.145 167.446744 
L 253.943682 166.592693 
L 255.742364 162.523435 
L 257.541045 165.991307 
L 259.339727 170.45671 
L 261.138409 167.291739 
L 262.937091 167.40191 
L 264.735773 170.472101 
L 266.534455 168.89038 
L 270.131818 164.357803 
L 271.9305 167.490809 
L 273.729182 168.748796 
L 275.527864 172.04864 
L 277.326545 170.917459 
L 279.125227 175.444073 
L 280.923909 169.397027 
L 282.722591 169.824228 
L 284.521273 172.535641 
L 286.319955 173.993427 
L 288.118636 172.403891 
L 289.917318 174.550256 
L 291.716 177.065107 
L 293.514682 174.349736 
L 295.313364 173.374779 
L 297.112045 180.333171 
L 298.910727 176.387316 
L 300.709409 173.576408 
L 302.508091 177.394541 
L 304.306773 177.084642 
L 306.105455 181.501329 
L 307.904136 179.049806 
L 309.702818 176.271242 
L 311.5015 178.978759 
L 313.300182 176.922543 
L 315.098864 178.293805 
L 316.897545 177.248178 
L 318.696227 180.938611 
L 322.293591 177.614448 
L 324.092273 180.53013 
L 325.890955 180.438553 
L 327.689636 175.228647 
L 329.488318 179.372594 
L 333.085682 183.762366 
L 334.884364 179.686761 
L 336.683045 185.065594 
L 338.481727 183.389126 
L 340.280409 180.447358 
L 342.079091 186.449786 
L 343.877773 180.121296 
L 345.676455 182.325714 
L 347.475136 183.09867 
L 349.273818 184.966198 
L 351.0725 184.349904 
L 352.871182 184.093064 
L 354.669864 184.483835 
L 356.468545 186.065868 
L 358.267227 187.139297 
L 360.065909 184.435356 
L 361.864591 189.737741 
L 363.663273 186.784534 
L 365.461955 189.423774 
L 367.260636 186.247043 
L 369.059318 185.074293 
L 370.858 186.571457 
L 372.656682 189.043846 
L 376.254045 190.208751 
L 378.052727 189.976106 
L 379.851409 186.829412 
L 381.650091 187.556603 
L 383.448773 190.710255 
L 385.247455 190.016808 
L 387.046136 193.439849 
L 388.844818 195.037278 
L 390.6435 188.304826 
L 392.442182 192.383845 
L 394.240864 191.493574 
L 396.039545 189.937131 
L 397.838227 193.730914 
L 399.636909 193.823051 
L 401.435591 192.614573 
L 403.234273 191.048238 
L 405.032955 198.802807 
L 406.831636 194.914305 
L 408.630318 194.4262 
L 410.429 200.829606 
L 412.227682 194.821973 
L 414.026364 195.895872 
L 415.825045 197.1203 
L 417.623727 196.338278 
L 419.422409 194.798685 
L 421.221091 196.933571 
L 423.019773 197.80814 
L 424.818455 195.933422 
L 426.617136 195.959165 
L 428.415818 198.088183 
L 430.2145 196.241762 
L 432.013182 197.759589 
L 432.013182 197.759589 
" clip-path="url(#p3b04c793fb)" style="fill: none; stroke: #ffa500; stroke-width: 1.5; stroke-linecap: square"/>
   </g>
   <g id="line2d_20">
    <path d="M 72.276818 26.69388 
L 75.874182 28.06992 
L 81.270227 31.293522 
L 83.068909 32.680314 
L 84.867591 35.039073 
L 86.666273 37.628503 
L 88.464955 40.492213 
L 90.263636 44.631324 
L 92.062318 49.203723 
L 93.861 55.005799 
L 95.659682 57.125318 
L 97.458364 61.115756 
L 99.257045 68.617249 
L 101.055727 71.217627 
L 102.854409 72.673988 
L 104.653091 76.488025 
L 106.451773 77.604036 
L 108.250455 80.507077 
L 110.049136 84.564383 
L 111.847818 85.31857 
L 113.6465 85.159082 
L 115.445182 88.536175 
L 117.243864 90.495685 
L 119.042545 91.53747 
L 120.841227 93.587693 
L 122.639909 92.744123 
L 124.438591 97.115845 
L 126.237273 97.765406 
L 128.035955 95.261505 
L 129.834636 100.91472 
L 131.633318 103.084881 
L 133.432 103.897216 
L 135.230682 104.044436 
L 137.029364 109.576125 
L 138.828045 111.676919 
L 140.626727 109.821503 
L 144.224091 115.501831 
L 146.022773 115.168855 
L 147.821455 114.577201 
L 149.620136 117.340976 
L 151.418818 118.636937 
L 153.2175 121.165866 
L 155.016182 122.608426 
L 156.814864 126.163472 
L 158.613545 120.196305 
L 160.412227 124.194906 
L 162.210909 127.769744 
L 164.009591 127.007409 
L 165.808273 129.852681 
L 167.606955 126.212492 
L 169.405636 128.04536 
L 171.204318 132.266389 
L 173.003 132.192475 
L 174.801682 130.881478 
L 176.600364 130.503685 
L 178.399045 135.735218 
L 180.197727 133.560768 
L 181.996409 131.0653 
L 183.795091 137.041583 
L 185.593773 136.665756 
L 187.392455 139.125782 
L 190.989818 138.80858 
L 192.7885 142.056293 
L 194.587182 142.968631 
L 196.385864 140.414786 
L 198.184545 143.054706 
L 199.983227 146.756119 
L 201.781909 149.3231 
L 203.580591 145.680637 
L 205.379273 144.229636 
L 207.177955 147.704606 
L 210.775318 145.124418 
L 212.574 147.382142 
L 214.372682 150.21801 
L 216.171364 149.574567 
L 217.970045 148.247219 
L 219.768727 150.597226 
L 221.567409 152.189802 
L 223.366091 153.12129 
L 225.164773 157.189385 
L 226.963455 151.106261 
L 228.762136 152.302392 
L 230.560818 157.497334 
L 232.3595 152.612819 
L 234.158182 154.872796 
L 235.956864 155.788023 
L 237.755545 156.215714 
L 239.554227 158.6427 
L 241.352909 156.639054 
L 243.151591 157.50096 
L 244.950273 159.927066 
L 246.748955 154.026534 
L 248.547636 159.789126 
L 250.346318 162.734008 
L 252.145 163.962439 
L 253.943682 162.854553 
L 255.742364 166.917549 
L 257.541045 162.245654 
L 259.339727 164.960713 
L 261.138409 164.168174 
L 262.937091 162.465183 
L 264.735773 163.798384 
L 266.534455 162.353251 
L 268.333136 166.654233 
L 270.131818 165.979846 
L 271.9305 166.193846 
L 273.729182 168.303656 
L 275.527864 168.316851 
L 277.326545 167.968626 
L 279.125227 168.609579 
L 280.923909 167.862262 
L 282.722591 172.52666 
L 284.521273 170.338793 
L 286.319955 170.983845 
L 288.118636 171.795059 
L 291.716 174.237535 
L 293.514682 169.206921 
L 295.313364 172.835211 
L 297.112045 173.628411 
L 298.910727 170.547727 
L 300.709409 174.047832 
L 302.508091 174.242802 
L 304.306773 172.730281 
L 306.105455 176.362399 
L 307.904136 177.444594 
L 309.702818 175.226834 
L 311.5015 175.804957 
L 313.300182 177.292545 
L 315.098864 178.007592 
L 316.897545 180.018411 
L 318.696227 178.551936 
L 320.494909 176.940463 
L 322.293591 177.907563 
L 324.092273 176.134141 
L 325.890955 183.762975 
L 327.689636 180.899027 
L 331.287 179.389393 
L 333.085682 179.809765 
L 334.884364 179.741702 
L 336.683045 180.945535 
L 338.481727 182.865581 
L 340.280409 182.149438 
L 342.079091 182.559461 
L 343.877773 184.87426 
L 345.676455 180.377228 
L 347.475136 183.263156 
L 349.273818 182.479056 
L 351.0725 182.424845 
L 352.871182 184.92788 
L 354.669864 185.235863 
L 356.468545 186.580702 
L 358.267227 184.905677 
L 360.065909 182.534589 
L 361.864591 186.689279 
L 363.663273 184.425975 
L 365.461955 187.539567 
L 367.260636 189.520284 
L 369.059318 188.880372 
L 370.858 183.953338 
L 372.656682 187.24875 
L 374.455364 184.42615 
L 376.254045 189.612533 
L 378.052727 187.433294 
L 379.851409 190.928606 
L 381.650091 188.222155 
L 383.448773 188.175696 
L 385.247455 189.48236 
L 387.046136 191.385851 
L 388.844818 196.35504 
L 390.6435 189.599783 
L 392.442182 187.916003 
L 394.240864 189.757425 
L 396.039545 189.652637 
L 397.838227 196.006883 
L 399.636909 191.083424 
L 401.435591 191.580333 
L 403.234273 193.470516 
L 405.032955 196.083199 
L 406.831636 195.154894 
L 408.630318 194.423641 
L 410.429 196.174257 
L 412.227682 192.605594 
L 414.026364 196.340851 
L 415.825045 196.288533 
L 417.623727 195.723912 
L 419.422409 194.883945 
L 421.221091 197.240613 
L 423.019773 197.794455 
L 424.818455 196.253179 
L 426.617136 197.250211 
L 428.415818 197.842038 
L 430.2145 197.822964 
L 432.013182 199.692647 
L 432.013182 199.692647 
" clip-path="url(#p3b04c793fb)" style="fill: none; stroke: #0000ff; stroke-width: 1.5; stroke-linecap: square"/>
   </g>
   <g id="patch_3">
    <path d="M 54.29 297.16 
L 54.29 10.8 
" style="fill: none; stroke: #000000; stroke-width: 0.8; stroke-linejoin: miter; stroke-linecap: square"/>
   </g>
   <g id="patch_4">
    <path d="M 450 297.16 
L 450 10.8 
" style="fill: none; stroke: #000000; stroke-width: 0.8; stroke-linejoin: miter; stroke-linecap: square"/>
   </g>
   <g id="patch_5">
    <path d="M 54.29 297.16 
L 450 297.16 
" style="fill: none; stroke: #000000; stroke-width: 0.8; stroke-linejoin: miter; stroke-linecap: square"/>
   </g>
   <g id="patch_6">
    <path d="M 54.29 10.8 
L 450 10.8 
" style="fill: none; stroke: #000000; stroke-width: 0.8; stroke-linejoin: miter; stroke-linecap: square"/>
   </g>
   <g id="legend_1">
    <g id="patch_7">
     <path d="M 303.09 117.54 
L 438.8 117.54 
Q 442 117.54 442 114.34 
L 442 22 
Q 442 18.8 438.8 18.8 
L 303.09 18.8 
Q 299.89 18.8 299.89 22 
L 299.89 114.34 
Q 299.89 117.54 303.09 117.54 
z
" style="fill: #ffffff; opacity: 0.8; stroke: #cccccc; stroke-linejoin: miter"/>
    </g>
    <g id="line2d_21">
     <path d="M 306.29 31.7575 
L 322.29 31.7575 
L 338.29 31.7575 
" style="fill: none; stroke: #000000; stroke-width: 1.5; stroke-linecap: square"/>
    </g>
    <g id="text_19">
     <!-- Scaffnew -->
     <g transform="translate(351.09 37.3575) scale(0.16 -0.16)">
      <defs>
       <path id="DejaVuSans-53" d="M 3425 4513 
L 3425 3897 
Q 3066 4069 2747 4153 
Q 2428 4238 2131 4238 
Q 1616 4238 1336 4038 
Q 1056 3838 1056 3469 
Q 1056 3159 1242 3001 
Q 1428 2844 1947 2747 
L 2328 2669 
Q 3034 2534 3370 2195 
Q 3706 1856 3706 1288 
Q 3706 609 3251 259 
Q 2797 -91 1919 -91 
Q 1588 -91 1214 -16 
Q 841 59 441 206 
L 441 856 
Q 825 641 1194 531 
Q 1563 422 1919 422 
Q 2459 422 2753 634 
Q 3047 847 3047 1241 
Q 3047 1584 2836 1778 
Q 2625 1972 2144 2069 
L 1759 2144 
Q 1053 2284 737 2584 
Q 422 2884 422 3419 
Q 422 4038 858 4394 
Q 1294 4750 2059 4750 
Q 2388 4750 2728 4690 
Q 3069 4631 3425 4513 
z
" transform="scale(0.015625)"/>
       <path id="DejaVuSans-66" d="M 2375 4863 
L 2375 4384 
L 1825 4384 
Q 1516 4384 1395 4259 
Q 1275 4134 1275 3809 
L 1275 3500 
L 2222 3500 
L 2222 3053 
L 1275 3053 
L 1275 0 
L 697 0 
L 697 3053 
L 147 3053 
L 147 3500 
L 697 3500 
L 697 3744 
Q 697 4328 969 4595 
Q 1241 4863 1831 4863 
L 2375 4863 
z
" transform="scale(0.015625)"/>
       <path id="DejaVuSans-65" d="M 3597 1894 
L 3597 1613 
L 953 1613 
Q 991 1019 1311 708 
Q 1631 397 2203 397 
Q 2534 397 2845 478 
Q 3156 559 3463 722 
L 3463 178 
Q 3153 47 2828 -22 
Q 2503 -91 2169 -91 
Q 1331 -91 842 396 
Q 353 884 353 1716 
Q 353 2575 817 3079 
Q 1281 3584 2069 3584 
Q 2775 3584 3186 3129 
Q 3597 2675 3597 1894 
z
M 3022 2063 
Q 3016 2534 2758 2815 
Q 2500 3097 2075 3097 
Q 1594 3097 1305 2825 
Q 1016 2553 972 2059 
L 3022 2063 
z
" transform="scale(0.015625)"/>
       <path id="DejaVuSans-77" d="M 269 3500 
L 844 3500 
L 1563 769 
L 2278 3500 
L 2956 3500 
L 3675 769 
L 4391 3500 
L 4966 3500 
L 4050 0 
L 3372 0 
L 2619 2869 
L 1863 0 
L 1184 0 
L 269 3500 
z
" transform="scale(0.015625)"/>
      </defs>
      <use xlink:href="#DejaVuSans-53"/>
      <use xlink:href="#DejaVuSans-63" x="63.476562"/>
      <use xlink:href="#DejaVuSans-61" x="118.457031"/>
      <use xlink:href="#DejaVuSans-66" x="179.736328"/>
      <use xlink:href="#DejaVuSans-66" x="214.941406"/>
      <use xlink:href="#DejaVuSans-6e" x="250.146484"/>
      <use xlink:href="#DejaVuSans-65" x="313.525391"/>
      <use xlink:href="#DejaVuSans-77" x="375.048828"/>
     </g>
    </g>
    <g id="line2d_22">
     <path d="M 306.29 55.2425 
L 322.29 55.2425 
L 338.29 55.2425 
" style="fill: none; stroke: #ff0000; stroke-width: 1.5; stroke-linecap: square"/>
    </g>
    <g id="text_20">
     <!-- Fedrcu -->
     <g transform="translate(351.09 60.8425) scale(0.16 -0.16)">
      <defs>
       <path id="DejaVuSans-46" d="M 628 4666 
L 3309 4666 
L 3309 4134 
L 1259 4134 
L 1259 2759 
L 3109 2759 
L 3109 2228 
L 1259 2228 
L 1259 0 
L 628 0 
L 628 4666 
z
" transform="scale(0.015625)"/>
       <path id="DejaVuSans-72" d="M 2631 2963 
Q 2534 3019 2420 3045 
Q 2306 3072 2169 3072 
Q 1681 3072 1420 2755 
Q 1159 2438 1159 1844 
L 1159 0 
L 581 0 
L 581 3500 
L 1159 3500 
L 1159 2956 
Q 1341 3275 1631 3429 
Q 1922 3584 2338 3584 
Q 2397 3584 2469 3576 
Q 2541 3569 2628 3553 
L 2631 2963 
z
" transform="scale(0.015625)"/>
      </defs>
      <use xlink:href="#DejaVuSans-46"/>
      <use xlink:href="#DejaVuSans-65" x="52.019531"/>
      <use xlink:href="#DejaVuSans-64" x="113.542969"/>
      <use xlink:href="#DejaVuSans-72" x="177.019531"/>
      <use xlink:href="#DejaVuSans-63" x="215.882812"/>
      <use xlink:href="#DejaVuSans-75" x="270.863281"/>
     </g>
    </g>
    <g id="line2d_23">
     <path d="M 306.29 78.7275 
L 322.29 78.7275 
L 338.29 78.7275 
" style="fill: none; stroke: #ffa500; stroke-width: 1.5; stroke-linecap: square"/>
    </g>
    <g id="text_21">
     <!-- SCAFFOLD -->
     <g transform="translate(351.09 84.3275) scale(0.16 -0.16)">
      <defs>
       <path id="DejaVuSans-41" d="M 2188 4044 
L 1331 1722 
L 3047 1722 
L 2188 4044 
z
M 1831 4666 
L 2547 4666 
L 4325 0 
L 3669 0 
L 3244 1197 
L 1141 1197 
L 716 0 
L 50 0 
L 1831 4666 
z
" transform="scale(0.015625)"/>
       <path id="DejaVuSans-4f" d="M 2522 4238 
Q 1834 4238 1429 3725 
Q 1025 3213 1025 2328 
Q 1025 1447 1429 934 
Q 1834 422 2522 422 
Q 3209 422 3611 934 
Q 4013 1447 4013 2328 
Q 4013 3213 3611 3725 
Q 3209 4238 2522 4238 
z
M 2522 4750 
Q 3503 4750 4090 4092 
Q 4678 3434 4678 2328 
Q 4678 1225 4090 567 
Q 3503 -91 2522 -91 
Q 1538 -91 948 565 
Q 359 1222 359 2328 
Q 359 3434 948 4092 
Q 1538 4750 2522 4750 
z
" transform="scale(0.015625)"/>
       <path id="DejaVuSans-44" d="M 1259 4147 
L 1259 519 
L 2022 519 
Q 2988 519 3436 956 
Q 3884 1394 3884 2338 
Q 3884 3275 3436 3711 
Q 2988 4147 2022 4147 
L 1259 4147 
z
M 628 4666 
L 1925 4666 
Q 3281 4666 3915 4102 
Q 4550 3538 4550 2338 
Q 4550 1131 3912 565 
Q 3275 0 1925 0 
L 628 0 
L 628 4666 
z
" transform="scale(0.015625)"/>
      </defs>
      <use xlink:href="#DejaVuSans-53"/>
      <use xlink:href="#DejaVuSans-43" x="63.476562"/>
      <use xlink:href="#DejaVuSans-41" x="133.300781"/>
      <use xlink:href="#DejaVuSans-46" x="201.708984"/>
      <use xlink:href="#DejaVuSans-46" x="259.228516"/>
      <use xlink:href="#DejaVuSans-4f" x="316.748047"/>
      <use xlink:href="#DejaVuSans-4c" x="395.458984"/>
      <use xlink:href="#DejaVuSans-44" x="451.171875"/>
     </g>
    </g>
    <g id="line2d_24">
     <path d="M 306.29 102.2125 
L 322.29 102.2125 
L 338.29 102.2125 
" style="fill: none; stroke: #0000ff; stroke-width: 1.5; stroke-linecap: square"/>
    </g>
    <g id="text_22">
     <!-- FedLin -->
     <g transform="translate(351.09 107.8125) scale(0.16 -0.16)">
      <use xlink:href="#DejaVuSans-46"/>
      <use xlink:href="#DejaVuSans-65" x="52.019531"/>
      <use xlink:href="#DejaVuSans-64" x="113.542969"/>
      <use xlink:href="#DejaVuSans-4c" x="177.019531"/>
      <use xlink:href="#DejaVuSans-69" x="232.732422"/>
      <use xlink:href="#DejaVuSans-6e" x="260.515625"/>
     </g>
    </g>
   </g>
  </g>
 </g>
 <defs>
  <clipPath id="p3b04c793fb">
   <rect x="54.29" y="10.8" width="395.71" height="286.36"/>
  </clipPath>
 </defs>
</svg>
