<?xml version="1.0" encoding="utf-8" standalone="no"?>
<!DOCTYPE svg PUBLIC "-//W3C//DTD SVG 1.1//EN"
  "http://www.w3.org/Graphics/SVG/1.1/DTD/svg11.dtd">
<svg xmlns:xlink="http://www.w3.org/1999/xlink" width="460.8pt" height="345.6pt" viewBox="0 0 460.8 345.6" xmlns="http://www.w3.org/2000/svg" version="1.1">
 <metadata>
  <rdf:RDF xmlns:dc="http://purl.org/dc/elements/1.1/" xmlns:cc="http://creativecommons.org/ns#" xmlns:rdf="http://www.w3.org/1999/02/22-rdf-syntax-ns#">
   <cc:Work>
    <dc:type rdf:resource="http://purl.org/dc/dcmitype/StillImage"/>
    <dc:date>2025-09-23T20:50:10.579657</dc:date>
    <dc:format>image/svg+xml</dc:format>
    <dc:creator>
     <cc:Agent>
      <dc:title>Matplotlib v3.8.4, https://matplotlib.org/</dc:title>
     </cc:Agent>
    </dc:creator>
   </cc:Work>
  </rdf:RDF>
 </metadata>
 <defs>
  <style type="text/css">*{stroke-linejoin: round; stroke-linecap: butt}</style>
 </defs>
 <g id="figure_1">
  <g id="patch_1">
   <path d="M 0 345.6 
L 460.8 345.6 
L 460.8 0 
L 0 0 
z
" style="fill: #ffffff"/>
  </g>
  <g id="axes_1">
   <g id="patch_2">
    <path d="M 54.29 297.16 
L 450 297.16 
L 450 10.8 
L 54.29 10.8 
z
" style="fill: #ffffff"/>
   </g>
   <g id="matplotlib.axis_1">
    <g id="xtick_1">
     <g id="line2d_1">
      <defs>
       <path id="md86824121b" d="M 0 0 
L 0 3.5 
" style="stroke: #000000; stroke-width: 0.8"/>
      </defs>
      <g>
       <use xlink:href="#md86824121b" x="71.377477" y="297.16" style="stroke: #000000; stroke-width: 0.8"/>
      </g>
     </g>
     <g id="text_1">
      <!-- 0 -->
      <g transform="translate(68.196227 311.758438) scale(0.1 -0.1)">
       <defs>
        <path id="DejaVuSans-30" d="M 2034 4250 
Q 1547 4250 1301 3770 
Q 1056 3291 1056 2328 
Q 1056 1369 1301 889 
Q 1547 409 2034 409 
Q 2525 409 2770 889 
Q 3016 1369 3016 2328 
Q 3016 3291 2770 3770 
Q 2525 4250 2034 4250 
z
M 2034 4750 
Q 2819 4750 3233 4129 
Q 3647 3509 3647 2328 
Q 3647 1150 3233 529 
Q 2819 -91 2034 -91 
Q 1250 -91 836 529 
Q 422 1150 422 2328 
Q 422 3509 836 4129 
Q 1250 4750 2034 4750 
z
" transform="scale(0.015625)"/>
       </defs>
       <use xlink:href="#DejaVuSans-30"/>
      </g>
     </g>
    </g>
    <g id="xtick_2">
     <g id="line2d_2">
      <g>
       <use xlink:href="#md86824121b" x="116.344523" y="297.16" style="stroke: #000000; stroke-width: 0.8"/>
      </g>
     </g>
     <g id="text_2">
      <!-- 500 -->
      <g transform="translate(106.800773 311.758438) scale(0.1 -0.1)">
       <defs>
        <path id="DejaVuSans-35" d="M 691 4666 
L 3169 4666 
L 3169 4134 
L 1269 4134 
L 1269 2991 
Q 1406 3038 1543 3061 
Q 1681 3084 1819 3084 
Q 2600 3084 3056 2656 
Q 3513 2228 3513 1497 
Q 3513 744 3044 326 
Q 2575 -91 1722 -91 
Q 1428 -91 1123 -41 
Q 819 9 494 109 
L 494 744 
Q 775 591 1075 516 
Q 1375 441 1709 441 
Q 2250 441 2565 725 
Q 2881 1009 2881 1497 
Q 2881 1984 2565 2268 
Q 2250 2553 1709 2553 
Q 1456 2553 1204 2497 
Q 953 2441 691 2322 
L 691 4666 
z
" transform="scale(0.015625)"/>
       </defs>
       <use xlink:href="#DejaVuSans-35"/>
       <use xlink:href="#DejaVuSans-30" x="63.623047"/>
       <use xlink:href="#DejaVuSans-30" x="127.246094"/>
      </g>
     </g>
    </g>
    <g id="xtick_3">
     <g id="line2d_3">
      <g>
       <use xlink:href="#md86824121b" x="161.311568" y="297.16" style="stroke: #000000; stroke-width: 0.8"/>
      </g>
     </g>
     <g id="text_3">
      <!-- 1000 -->
      <g transform="translate(148.586568 311.758438) scale(0.1 -0.1)">
       <defs>
        <path id="DejaVuSans-31" d="M 794 531 
L 1825 531 
L 1825 4091 
L 703 3866 
L 703 4441 
L 1819 4666 
L 2450 4666 
L 2450 531 
L 3481 531 
L 3481 0 
L 794 0 
L 794 531 
z
" transform="scale(0.015625)"/>
       </defs>
       <use xlink:href="#DejaVuSans-31"/>
       <use xlink:href="#DejaVuSans-30" x="63.623047"/>
       <use xlink:href="#DejaVuSans-30" x="127.246094"/>
       <use xlink:href="#DejaVuSans-30" x="190.869141"/>
      </g>
     </g>
    </g>
    <g id="xtick_4">
     <g id="line2d_4">
      <g>
       <use xlink:href="#md86824121b" x="206.278614" y="297.16" style="stroke: #000000; stroke-width: 0.8"/>
      </g>
     </g>
     <g id="text_4">
      <!-- 1500 -->
      <g transform="translate(193.553614 311.758438) scale(0.1 -0.1)">
       <use xlink:href="#DejaVuSans-31"/>
       <use xlink:href="#DejaVuSans-35" x="63.623047"/>
       <use xlink:href="#DejaVuSans-30" x="127.246094"/>
       <use xlink:href="#DejaVuSans-30" x="190.869141"/>
      </g>
     </g>
    </g>
    <g id="xtick_5">
     <g id="line2d_5">
      <g>
       <use xlink:href="#md86824121b" x="251.245659" y="297.16" style="stroke: #000000; stroke-width: 0.8"/>
      </g>
     </g>
     <g id="text_5">
      <!-- 2000 -->
      <g transform="translate(238.520659 311.758438) scale(0.1 -0.1)">
       <defs>
        <path id="DejaVuSans-32" d="M 1228 531 
L 3431 531 
L 3431 0 
L 469 0 
L 469 531 
Q 828 903 1448 1529 
Q 2069 2156 2228 2338 
Q 2531 2678 2651 2914 
Q 2772 3150 2772 3378 
Q 2772 3750 2511 3984 
Q 2250 4219 1831 4219 
Q 1534 4219 1204 4116 
Q 875 4013 500 3803 
L 500 4441 
Q 881 4594 1212 4672 
Q 1544 4750 1819 4750 
Q 2544 4750 2975 4387 
Q 3406 4025 3406 3419 
Q 3406 3131 3298 2873 
Q 3191 2616 2906 2266 
Q 2828 2175 2409 1742 
Q 1991 1309 1228 531 
z
" transform="scale(0.015625)"/>
       </defs>
       <use xlink:href="#DejaVuSans-32"/>
       <use xlink:href="#DejaVuSans-30" x="63.623047"/>
       <use xlink:href="#DejaVuSans-30" x="127.246094"/>
       <use xlink:href="#DejaVuSans-30" x="190.869141"/>
      </g>
     </g>
    </g>
    <g id="xtick_6">
     <g id="line2d_6">
      <g>
       <use xlink:href="#md86824121b" x="296.212705" y="297.16" style="stroke: #000000; stroke-width: 0.8"/>
      </g>
     </g>
     <g id="text_6">
      <!-- 2500 -->
      <g transform="translate(283.487705 311.758438) scale(0.1 -0.1)">
       <use xlink:href="#DejaVuSans-32"/>
       <use xlink:href="#DejaVuSans-35" x="63.623047"/>
       <use xlink:href="#DejaVuSans-30" x="127.246094"/>
       <use xlink:href="#DejaVuSans-30" x="190.869141"/>
      </g>
     </g>
    </g>
    <g id="xtick_7">
     <g id="line2d_7">
      <g>
       <use xlink:href="#md86824121b" x="341.17975" y="297.16" style="stroke: #000000; stroke-width: 0.8"/>
      </g>
     </g>
     <g id="text_7">
      <!-- 3000 -->
      <g transform="translate(328.45475 311.758438) scale(0.1 -0.1)">
       <defs>
        <path id="DejaVuSans-33" d="M 2597 2516 
Q 3050 2419 3304 2112 
Q 3559 1806 3559 1356 
Q 3559 666 3084 287 
Q 2609 -91 1734 -91 
Q 1441 -91 1130 -33 
Q 819 25 488 141 
L 488 750 
Q 750 597 1062 519 
Q 1375 441 1716 441 
Q 2309 441 2620 675 
Q 2931 909 2931 1356 
Q 2931 1769 2642 2001 
Q 2353 2234 1838 2234 
L 1294 2234 
L 1294 2753 
L 1863 2753 
Q 2328 2753 2575 2939 
Q 2822 3125 2822 3475 
Q 2822 3834 2567 4026 
Q 2313 4219 1838 4219 
Q 1578 4219 1281 4162 
Q 984 4106 628 3988 
L 628 4550 
Q 988 4650 1302 4700 
Q 1616 4750 1894 4750 
Q 2613 4750 3031 4423 
Q 3450 4097 3450 3541 
Q 3450 3153 3228 2886 
Q 3006 2619 2597 2516 
z
" transform="scale(0.015625)"/>
       </defs>
       <use xlink:href="#DejaVuSans-33"/>
       <use xlink:href="#DejaVuSans-30" x="63.623047"/>
       <use xlink:href="#DejaVuSans-30" x="127.246094"/>
       <use xlink:href="#DejaVuSans-30" x="190.869141"/>
      </g>
     </g>
    </g>
    <g id="xtick_8">
     <g id="line2d_8">
      <g>
       <use xlink:href="#md86824121b" x="386.146795" y="297.16" style="stroke: #000000; stroke-width: 0.8"/>
      </g>
     </g>
     <g id="text_8">
      <!-- 3500 -->
      <g transform="translate(373.421795 311.758438) scale(0.1 -0.1)">
       <use xlink:href="#DejaVuSans-33"/>
       <use xlink:href="#DejaVuSans-35" x="63.623047"/>
       <use xlink:href="#DejaVuSans-30" x="127.246094"/>
       <use xlink:href="#DejaVuSans-30" x="190.869141"/>
      </g>
     </g>
    </g>
    <g id="xtick_9">
     <g id="line2d_9">
      <g>
       <use xlink:href="#md86824121b" x="431.113841" y="297.16" style="stroke: #000000; stroke-width: 0.8"/>
      </g>
     </g>
     <g id="text_9">
      <!-- 4000 -->
      <g transform="translate(418.388841 311.758438) scale(0.1 -0.1)">
       <defs>
        <path id="DejaVuSans-34" d="M 2419 4116 
L 825 1625 
L 2419 1625 
L 2419 4116 
z
M 2253 4666 
L 3047 4666 
L 3047 1625 
L 3713 1625 
L 3713 1100 
L 3047 1100 
L 3047 0 
L 2419 0 
L 2419 1100 
L 313 1100 
L 313 1709 
L 2253 4666 
z
" transform="scale(0.015625)"/>
       </defs>
       <use xlink:href="#DejaVuSans-34"/>
       <use xlink:href="#DejaVuSans-30" x="63.623047"/>
       <use xlink:href="#DejaVuSans-30" x="127.246094"/>
       <use xlink:href="#DejaVuSans-30" x="190.869141"/>
      </g>
     </g>
    </g>
    <g id="text_10">
     <!-- Communication Rounds -->
     <g transform="translate(157.06875 329.995625) scale(0.16 -0.16)">
      <defs>
       <path id="DejaVuSans-43" d="M 4122 4306 
L 4122 3641 
Q 3803 3938 3442 4084 
Q 3081 4231 2675 4231 
Q 1875 4231 1450 3742 
Q 1025 3253 1025 2328 
Q 1025 1406 1450 917 
Q 1875 428 2675 428 
Q 3081 428 3442 575 
Q 3803 722 4122 1019 
L 4122 359 
Q 3791 134 3420 21 
Q 3050 -91 2638 -91 
Q 1578 -91 968 557 
Q 359 1206 359 2328 
Q 359 3453 968 4101 
Q 1578 4750 2638 4750 
Q 3056 4750 3426 4639 
Q 3797 4528 4122 4306 
z
" transform="scale(0.015625)"/>
       <path id="DejaVuSans-6f" d="M 1959 3097 
Q 1497 3097 1228 2736 
Q 959 2375 959 1747 
Q 959 1119 1226 758 
Q 1494 397 1959 397 
Q 2419 397 2687 759 
Q 2956 1122 2956 1747 
Q 2956 2369 2687 2733 
Q 2419 3097 1959 3097 
z
M 1959 3584 
Q 2709 3584 3137 3096 
Q 3566 2609 3566 1747 
Q 3566 888 3137 398 
Q 2709 -91 1959 -91 
Q 1206 -91 779 398 
Q 353 888 353 1747 
Q 353 2609 779 3096 
Q 1206 3584 1959 3584 
z
" transform="scale(0.015625)"/>
       <path id="DejaVuSans-6d" d="M 3328 2828 
Q 3544 3216 3844 3400 
Q 4144 3584 4550 3584 
Q 5097 3584 5394 3201 
Q 5691 2819 5691 2113 
L 5691 0 
L 5113 0 
L 5113 2094 
Q 5113 2597 4934 2840 
Q 4756 3084 4391 3084 
Q 3944 3084 3684 2787 
Q 3425 2491 3425 1978 
L 3425 0 
L 2847 0 
L 2847 2094 
Q 2847 2600 2669 2842 
Q 2491 3084 2119 3084 
Q 1678 3084 1418 2786 
Q 1159 2488 1159 1978 
L 1159 0 
L 581 0 
L 581 3500 
L 1159 3500 
L 1159 2956 
Q 1356 3278 1631 3431 
Q 1906 3584 2284 3584 
Q 2666 3584 2933 3390 
Q 3200 3197 3328 2828 
z
" transform="scale(0.015625)"/>
       <path id="DejaVuSans-75" d="M 544 1381 
L 544 3500 
L 1119 3500 
L 1119 1403 
Q 1119 906 1312 657 
Q 1506 409 1894 409 
Q 2359 409 2629 706 
Q 2900 1003 2900 1516 
L 2900 3500 
L 3475 3500 
L 3475 0 
L 2900 0 
L 2900 538 
Q 2691 219 2414 64 
Q 2138 -91 1772 -91 
Q 1169 -91 856 284 
Q 544 659 544 1381 
z
M 1991 3584 
L 1991 3584 
z
" transform="scale(0.015625)"/>
       <path id="DejaVuSans-6e" d="M 3513 2113 
L 3513 0 
L 2938 0 
L 2938 2094 
Q 2938 2591 2744 2837 
Q 2550 3084 2163 3084 
Q 1697 3084 1428 2787 
Q 1159 2491 1159 1978 
L 1159 0 
L 581 0 
L 581 3500 
L 1159 3500 
L 1159 2956 
Q 1366 3272 1645 3428 
Q 1925 3584 2291 3584 
Q 2894 3584 3203 3211 
Q 3513 2838 3513 2113 
z
" transform="scale(0.015625)"/>
       <path id="DejaVuSans-69" d="M 603 3500 
L 1178 3500 
L 1178 0 
L 603 0 
L 603 3500 
z
M 603 4863 
L 1178 4863 
L 1178 4134 
L 603 4134 
L 603 4863 
z
" transform="scale(0.015625)"/>
       <path id="DejaVuSans-63" d="M 3122 3366 
L 3122 2828 
Q 2878 2963 2633 3030 
Q 2388 3097 2138 3097 
Q 1578 3097 1268 2742 
Q 959 2388 959 1747 
Q 959 1106 1268 751 
Q 1578 397 2138 397 
Q 2388 397 2633 464 
Q 2878 531 3122 666 
L 3122 134 
Q 2881 22 2623 -34 
Q 2366 -91 2075 -91 
Q 1284 -91 818 406 
Q 353 903 353 1747 
Q 353 2603 823 3093 
Q 1294 3584 2113 3584 
Q 2378 3584 2631 3529 
Q 2884 3475 3122 3366 
z
" transform="scale(0.015625)"/>
       <path id="DejaVuSans-61" d="M 2194 1759 
Q 1497 1759 1228 1600 
Q 959 1441 959 1056 
Q 959 750 1161 570 
Q 1363 391 1709 391 
Q 2188 391 2477 730 
Q 2766 1069 2766 1631 
L 2766 1759 
L 2194 1759 
z
M 3341 1997 
L 3341 0 
L 2766 0 
L 2766 531 
Q 2569 213 2275 61 
Q 1981 -91 1556 -91 
Q 1019 -91 701 211 
Q 384 513 384 1019 
Q 384 1609 779 1909 
Q 1175 2209 1959 2209 
L 2766 2209 
L 2766 2266 
Q 2766 2663 2505 2880 
Q 2244 3097 1772 3097 
Q 1472 3097 1187 3025 
Q 903 2953 641 2809 
L 641 3341 
Q 956 3463 1253 3523 
Q 1550 3584 1831 3584 
Q 2591 3584 2966 3190 
Q 3341 2797 3341 1997 
z
" transform="scale(0.015625)"/>
       <path id="DejaVuSans-74" d="M 1172 4494 
L 1172 3500 
L 2356 3500 
L 2356 3053 
L 1172 3053 
L 1172 1153 
Q 1172 725 1289 603 
Q 1406 481 1766 481 
L 2356 481 
L 2356 0 
L 1766 0 
Q 1100 0 847 248 
Q 594 497 594 1153 
L 594 3053 
L 172 3053 
L 172 3500 
L 594 3500 
L 594 4494 
L 1172 4494 
z
" transform="scale(0.015625)"/>
       <path id="DejaVuSans-20" transform="scale(0.015625)"/>
       <path id="DejaVuSans-52" d="M 2841 2188 
Q 3044 2119 3236 1894 
Q 3428 1669 3622 1275 
L 4263 0 
L 3584 0 
L 2988 1197 
Q 2756 1666 2539 1819 
Q 2322 1972 1947 1972 
L 1259 1972 
L 1259 0 
L 628 0 
L 628 4666 
L 2053 4666 
Q 2853 4666 3247 4331 
Q 3641 3997 3641 3322 
Q 3641 2881 3436 2590 
Q 3231 2300 2841 2188 
z
M 1259 4147 
L 1259 2491 
L 2053 2491 
Q 2509 2491 2742 2702 
Q 2975 2913 2975 3322 
Q 2975 3731 2742 3939 
Q 2509 4147 2053 4147 
L 1259 4147 
z
" transform="scale(0.015625)"/>
       <path id="DejaVuSans-64" d="M 2906 2969 
L 2906 4863 
L 3481 4863 
L 3481 0 
L 2906 0 
L 2906 525 
Q 2725 213 2448 61 
Q 2172 -91 1784 -91 
Q 1150 -91 751 415 
Q 353 922 353 1747 
Q 353 2572 751 3078 
Q 1150 3584 1784 3584 
Q 2172 3584 2448 3432 
Q 2725 3281 2906 2969 
z
M 947 1747 
Q 947 1113 1208 752 
Q 1469 391 1925 391 
Q 2381 391 2643 752 
Q 2906 1113 2906 1747 
Q 2906 2381 2643 2742 
Q 2381 3103 1925 3103 
Q 1469 3103 1208 2742 
Q 947 2381 947 1747 
z
" transform="scale(0.015625)"/>
       <path id="DejaVuSans-73" d="M 2834 3397 
L 2834 2853 
Q 2591 2978 2328 3040 
Q 2066 3103 1784 3103 
Q 1356 3103 1142 2972 
Q 928 2841 928 2578 
Q 928 2378 1081 2264 
Q 1234 2150 1697 2047 
L 1894 2003 
Q 2506 1872 2764 1633 
Q 3022 1394 3022 966 
Q 3022 478 2636 193 
Q 2250 -91 1575 -91 
Q 1294 -91 989 -36 
Q 684 19 347 128 
L 347 722 
Q 666 556 975 473 
Q 1284 391 1588 391 
Q 1994 391 2212 530 
Q 2431 669 2431 922 
Q 2431 1156 2273 1281 
Q 2116 1406 1581 1522 
L 1381 1569 
Q 847 1681 609 1914 
Q 372 2147 372 2553 
Q 372 3047 722 3315 
Q 1072 3584 1716 3584 
Q 2034 3584 2315 3537 
Q 2597 3491 2834 3397 
z
" transform="scale(0.015625)"/>
      </defs>
      <use xlink:href="#DejaVuSans-43"/>
      <use xlink:href="#DejaVuSans-6f" x="69.824219"/>
      <use xlink:href="#DejaVuSans-6d" x="131.005859"/>
      <use xlink:href="#DejaVuSans-6d" x="228.417969"/>
      <use xlink:href="#DejaVuSans-75" x="325.830078"/>
      <use xlink:href="#DejaVuSans-6e" x="389.208984"/>
      <use xlink:href="#DejaVuSans-69" x="452.587891"/>
      <use xlink:href="#DejaVuSans-63" x="480.371094"/>
      <use xlink:href="#DejaVuSans-61" x="535.351562"/>
      <use xlink:href="#DejaVuSans-74" x="596.630859"/>
      <use xlink:href="#DejaVuSans-69" x="635.839844"/>
      <use xlink:href="#DejaVuSans-6f" x="663.623047"/>
      <use xlink:href="#DejaVuSans-6e" x="724.804688"/>
      <use xlink:href="#DejaVuSans-20" x="788.183594"/>
      <use xlink:href="#DejaVuSans-52" x="819.970703"/>
      <use xlink:href="#DejaVuSans-6f" x="884.953125"/>
      <use xlink:href="#DejaVuSans-75" x="946.134766"/>
      <use xlink:href="#DejaVuSans-6e" x="1009.513672"/>
      <use xlink:href="#DejaVuSans-64" x="1072.892578"/>
      <use xlink:href="#DejaVuSans-73" x="1136.369141"/>
     </g>
    </g>
   </g>
   <g id="matplotlib.axis_2">
    <g id="ytick_1">
     <g id="line2d_10">
      <defs>
       <path id="m01a5670024" d="M 0 0 
L -3.5 0 
" style="stroke: #000000; stroke-width: 0.8"/>
      </defs>
      <g>
       <use xlink:href="#m01a5670024" x="54.29" y="254.689289" style="stroke: #000000; stroke-width: 0.8"/>
      </g>
     </g>
     <g id="text_11">
      <!-- 2.0 -->
      <g transform="translate(31.386875 258.488507) scale(0.1 -0.1)">
       <defs>
        <path id="DejaVuSans-2e" d="M 684 794 
L 1344 794 
L 1344 0 
L 684 0 
L 684 794 
z
" transform="scale(0.015625)"/>
       </defs>
       <use xlink:href="#DejaVuSans-32"/>
       <use xlink:href="#DejaVuSans-2e" x="63.623047"/>
       <use xlink:href="#DejaVuSans-30" x="95.410156"/>
      </g>
     </g>
    </g>
    <g id="ytick_2">
     <g id="line2d_11">
      <g>
       <use xlink:href="#m01a5670024" x="54.29" y="210.42917" style="stroke: #000000; stroke-width: 0.8"/>
      </g>
     </g>
     <g id="text_12">
      <!-- 2.5 -->
      <g transform="translate(31.386875 214.228389) scale(0.1 -0.1)">
       <use xlink:href="#DejaVuSans-32"/>
       <use xlink:href="#DejaVuSans-2e" x="63.623047"/>
       <use xlink:href="#DejaVuSans-35" x="95.410156"/>
      </g>
     </g>
    </g>
    <g id="ytick_3">
     <g id="line2d_12">
      <g>
       <use xlink:href="#m01a5670024" x="54.29" y="166.169051" style="stroke: #000000; stroke-width: 0.8"/>
      </g>
     </g>
     <g id="text_13">
      <!-- 3.0 -->
      <g transform="translate(31.386875 169.96827) scale(0.1 -0.1)">
       <use xlink:href="#DejaVuSans-33"/>
       <use xlink:href="#DejaVuSans-2e" x="63.623047"/>
       <use xlink:href="#DejaVuSans-30" x="95.410156"/>
      </g>
     </g>
    </g>
    <g id="ytick_4">
     <g id="line2d_13">
      <g>
       <use xlink:href="#m01a5670024" x="54.29" y="121.908933" style="stroke: #000000; stroke-width: 0.8"/>
      </g>
     </g>
     <g id="text_14">
      <!-- 3.5 -->
      <g transform="translate(31.386875 125.708151) scale(0.1 -0.1)">
       <use xlink:href="#DejaVuSans-33"/>
       <use xlink:href="#DejaVuSans-2e" x="63.623047"/>
       <use xlink:href="#DejaVuSans-35" x="95.410156"/>
      </g>
     </g>
    </g>
    <g id="ytick_5">
     <g id="line2d_14">
      <g>
       <use xlink:href="#m01a5670024" x="54.29" y="77.648814" style="stroke: #000000; stroke-width: 0.8"/>
      </g>
     </g>
     <g id="text_15">
      <!-- 4.0 -->
      <g transform="translate(31.386875 81.448033) scale(0.1 -0.1)">
       <use xlink:href="#DejaVuSans-34"/>
       <use xlink:href="#DejaVuSans-2e" x="63.623047"/>
       <use xlink:href="#DejaVuSans-30" x="95.410156"/>
      </g>
     </g>
    </g>
    <g id="ytick_6">
     <g id="line2d_15">
      <g>
       <use xlink:href="#m01a5670024" x="54.29" y="33.388695" style="stroke: #000000; stroke-width: 0.8"/>
      </g>
     </g>
     <g id="text_16">
      <!-- 4.5 -->
      <g transform="translate(31.386875 37.187914) scale(0.1 -0.1)">
       <use xlink:href="#DejaVuSans-34"/>
       <use xlink:href="#DejaVuSans-2e" x="63.623047"/>
       <use xlink:href="#DejaVuSans-35" x="95.410156"/>
      </g>
     </g>
    </g>
    <g id="text_17">
     <!-- Loss -->
     <g transform="translate(24.059375 171.5275) rotate(-90) scale(0.16 -0.16)">
      <defs>
       <path id="DejaVuSans-4c" d="M 628 4666 
L 1259 4666 
L 1259 531 
L 3531 531 
L 3531 0 
L 628 0 
L 628 4666 
z
" transform="scale(0.015625)"/>
      </defs>
      <use xlink:href="#DejaVuSans-4c"/>
      <use xlink:href="#DejaVuSans-6f" x="53.962891"/>
      <use xlink:href="#DejaVuSans-73" x="115.144531"/>
      <use xlink:href="#DejaVuSans-73" x="167.244141"/>
     </g>
    </g>
   </g>
   <g id="line2d_16">
    <path d="M 72.366752 24.16689 
L 73.356027 24.412894 
L 74.345302 24.515272 
L 75.334577 23.981277 
L 76.323852 25.650665 
L 77.313127 31.087318 
L 78.302402 26.799894 
L 79.291677 31.055041 
L 80.280952 33.099482 
L 81.270227 40.193905 
L 82.259502 45.476716 
L 83.248777 52.769147 
L 84.238052 50.350354 
L 85.227327 64.08714 
L 86.216602 72.639931 
L 87.205877 77.671217 
L 88.195152 75.163788 
L 89.184427 70.913658 
L 90.173702 89.789304 
L 91.162977 78.875154 
L 92.152252 88.47603 
L 93.141527 99.60861 
L 94.130802 105.414094 
L 96.109352 102.991912 
L 97.098627 114.446125 
L 98.087902 112.229891 
L 99.077177 121.567697 
L 100.066452 110.646899 
L 101.055727 121.597967 
L 102.045002 123.534911 
L 103.034277 129.389736 
L 104.023552 142.869867 
L 105.012827 120.903834 
L 106.002102 141.520959 
L 106.991377 116.267862 
L 107.980652 149.950222 
L 108.969927 143.735088 
L 109.959202 155.4453 
L 110.948477 125.681158 
L 111.937752 160.629654 
L 112.927027 157.350001 
L 114.905577 157.913799 
L 115.894852 172.176322 
L 116.884127 169.223844 
L 117.873402 169.395063 
L 118.862677 175.732269 
L 119.851952 169.562875 
L 120.841227 178.618376 
L 121.830502 178.901844 
L 122.819777 187.130114 
L 123.809052 181.371093 
L 124.798327 177.304143 
L 125.787602 174.875316 
L 126.776877 193.887866 
L 127.766152 196.227166 
L 128.755427 195.037045 
L 129.744702 194.652121 
L 130.733977 191.322374 
L 131.723252 191.577404 
L 132.712527 195.220753 
L 133.701802 199.832016 
L 134.691077 184.640018 
L 135.680352 204.127105 
L 136.669627 203.343202 
L 137.658902 198.606348 
L 138.648177 210.363261 
L 139.637452 193.463296 
L 140.626727 194.919133 
L 141.616002 211.605951 
L 142.605277 203.706271 
L 143.594552 209.539826 
L 144.583827 212.82941 
L 145.573102 212.358176 
L 146.562377 203.616084 
L 147.551652 211.995799 
L 148.540927 219.056116 
L 149.530202 222.316028 
L 150.519477 222.206344 
L 151.508752 224.510007 
L 152.498027 220.362758 
L 153.487302 227.307409 
L 154.476577 212.329134 
L 155.465852 223.422357 
L 156.455127 227.684038 
L 157.444402 221.327094 
L 158.433677 229.219323 
L 159.422952 207.339417 
L 160.412227 227.607229 
L 161.401502 230.923105 
L 162.390777 232.639054 
L 163.380052 229.904091 
L 164.369327 230.546594 
L 165.358602 228.25384 
L 166.347877 222.970852 
L 167.337152 234.578271 
L 168.326427 209.602231 
L 169.315702 234.618683 
L 170.304977 240.857509 
L 171.294252 230.506061 
L 172.283527 241.470392 
L 173.272802 237.874204 
L 174.262077 229.570146 
L 176.240627 236.569939 
L 177.229902 241.624573 
L 178.219177 241.365609 
L 179.208452 246.112345 
L 180.197727 242.829436 
L 181.187002 240.893157 
L 182.176277 229.002719 
L 183.165552 239.161775 
L 184.154827 237.47791 
L 185.144102 238.392815 
L 186.133377 242.852752 
L 187.122652 242.210836 
L 188.111927 240.979451 
L 189.101202 246.185676 
L 190.090477 241.466242 
L 191.079752 246.452653 
L 192.069027 246.541745 
L 193.058302 253.54796 
L 194.047577 251.742343 
L 195.036852 251.096013 
L 196.026127 249.242549 
L 197.015402 236.822473 
L 198.004677 244.571846 
L 198.993952 235.505724 
L 199.983227 248.235221 
L 200.972502 242.181782 
L 201.961777 245.388367 
L 202.951052 240.749523 
L 203.940327 231.551867 
L 204.929602 240.067997 
L 205.918877 252.240703 
L 206.908152 251.588139 
L 207.897427 254.714389 
L 208.886702 251.446193 
L 209.875977 250.754198 
L 210.865252 243.263878 
L 211.854527 254.25682 
L 212.843802 251.889086 
L 213.833077 259.178177 
L 214.822352 235.433562 
L 215.811627 253.416843 
L 216.800902 207.138015 
L 217.790177 254.44044 
L 218.779452 254.957754 
L 219.768727 257.142538 
L 220.758002 251.895894 
L 221.747277 262.54959 
L 222.736552 229.136496 
L 223.725827 235.736679 
L 224.715102 246.88961 
L 225.704377 256.762686 
L 226.693652 249.477332 
L 227.682927 255.042631 
L 228.672202 258.108104 
L 229.661477 255.404372 
L 230.650752 260.470371 
L 231.640027 260.622144 
L 232.629302 258.96577 
L 233.618577 263.422589 
L 234.607852 257.849434 
L 235.597127 261.05866 
L 236.586402 259.378782 
L 237.575677 252.785304 
L 238.564952 257.878651 
L 239.554227 257.321317 
L 240.543502 253.294253 
L 241.532777 264.864977 
L 242.522052 260.659361 
L 243.511327 261.131163 
L 244.500602 262.271424 
L 245.489877 268.09007 
L 246.479152 265.667541 
L 247.468427 267.07219 
L 248.457702 260.911321 
L 249.446977 248.674305 
L 250.436252 260.202827 
L 251.425527 255.69106 
L 252.414802 260.021107 
L 253.404077 268.090699 
L 254.393352 259.457971 
L 255.382627 261.674634 
L 256.371902 267.163241 
L 257.361177 255.891511 
L 259.339727 262.803871 
L 260.329002 268.032187 
L 261.318277 266.750783 
L 262.307552 262.027306 
L 263.296827 258.859507 
L 264.286102 263.317432 
L 265.275377 261.600304 
L 266.264652 258.722425 
L 267.253927 264.286029 
L 268.243202 260.370902 
L 269.232477 248.437815 
L 270.221752 263.100387 
L 271.211027 270.093207 
L 272.200302 244.995223 
L 273.189577 252.414225 
L 274.178852 247.528398 
L 275.168127 259.72704 
L 276.157402 266.604986 
L 277.146677 260.558198 
L 278.135952 261.547225 
L 279.125227 261.54592 
L 280.114502 262.858831 
L 281.103777 262.961528 
L 282.093052 257.053343 
L 283.082327 262.279483 
L 284.071602 252.842687 
L 285.060877 267.067034 
L 286.050152 267.983575 
L 287.039427 271.146486 
L 288.028702 260.255964 
L 289.017977 261.98846 
L 290.007252 262.330744 
L 290.996527 257.921879 
L 291.985802 269.860668 
L 292.975077 262.110777 
L 293.964352 265.672435 
L 294.953627 251.428283 
L 295.942902 261.690748 
L 296.932177 239.316257 
L 297.921452 248.475851 
L 298.910727 259.72419 
L 299.900002 264.136355 
L 300.889277 264.945612 
L 301.878552 264.507995 
L 302.867827 265.860189 
L 303.857102 264.619179 
L 304.846377 268.17585 
L 305.835652 268.773584 
L 306.824927 265.180237 
L 307.814202 270.194366 
L 308.803477 235.027539 
L 309.792752 267.595233 
L 310.782027 263.913948 
L 311.771302 266.816249 
L 312.760577 273.785465 
L 313.749852 232.55796 
L 314.739127 267.916996 
L 315.728402 265.710742 
L 316.717677 268.093786 
L 317.706952 265.272458 
L 318.696227 267.940774 
L 319.685502 273.767877 
L 320.674777 266.916866 
L 321.664052 273.459409 
L 322.653327 270.275967 
L 323.642602 273.29813 
L 324.631877 272.577339 
L 325.621152 272.905092 
L 326.610427 268.389122 
L 327.599702 272.190056 
L 328.588977 268.742877 
L 329.578252 267.8051 
L 330.567527 256.774652 
L 331.556802 276.624513 
L 332.546077 271.772107 
L 333.535352 273.912264 
L 334.524627 270.582604 
L 335.513902 256.987987 
L 336.503177 272.835787 
L 337.492452 256.725026 
L 338.481727 266.974911 
L 339.471002 281.290216 
L 340.460277 270.591968 
L 341.449552 273.361509 
L 342.438827 275.501179 
L 343.428102 224.034918 
L 344.417377 270.059035 
L 345.406652 270.77215 
L 346.395927 276.466994 
L 347.385202 272.523264 
L 348.374477 273.619055 
L 349.363752 275.096164 
L 350.353027 204.719155 
L 351.342302 234.699832 
L 352.331577 247.874856 
L 353.320852 267.068148 
L 354.310127 273.393273 
L 355.299402 277.136601 
L 356.288677 274.69703 
L 357.277952 266.913967 
L 358.267227 268.459053 
L 359.256502 272.527718 
L 360.245777 278.189495 
L 361.235052 269.367462 
L 362.224327 276.932476 
L 363.213602 261.809173 
L 364.202877 270.826672 
L 365.192152 274.080882 
L 366.181427 259.890339 
L 367.170702 278.863168 
L 368.159977 271.434687 
L 369.149252 269.716226 
L 370.138527 277.023704 
L 371.127802 279.383807 
L 372.117077 262.873666 
L 373.106352 275.704338 
L 374.095627 275.797208 
L 375.084902 273.900373 
L 376.074177 282.188285 
L 377.063452 278.273719 
L 378.052727 268.286759 
L 379.042002 272.935515 
L 380.031277 266.634004 
L 381.020552 276.570818 
L 382.009827 274.181476 
L 382.999102 263.583668 
L 383.988377 272.996987 
L 384.977652 277.522287 
L 385.966927 269.101505 
L 386.956202 280.87784 
L 387.945477 276.478993 
L 388.934752 280.676314 
L 389.924027 282.069505 
L 390.913302 265.466983 
L 392.891852 277.35096 
L 393.881127 272.443197 
L 394.870402 278.600695 
L 395.859677 265.482133 
L 396.848952 279.700774 
L 397.838227 271.679714 
L 398.827502 275.117933 
L 399.816777 274.470109 
L 400.806052 259.033313 
L 401.795327 274.141733 
L 402.784602 284.143636 
L 403.773877 269.783647 
L 404.763152 280.287092 
L 405.752427 281.914442 
L 406.741702 280.594301 
L 408.720252 270.348181 
L 409.709527 271.699616 
L 410.698802 278.902024 
L 411.688077 276.33493 
L 412.677352 272.322935 
L 413.666627 276.110122 
L 414.655902 268.753021 
L 415.645177 272.668071 
L 416.634452 281.71292 
L 417.623727 278.036283 
L 418.613002 266.261709 
L 419.602277 279.349819 
L 420.591552 278.11862 
L 421.580827 249.48624 
L 422.570102 275.06932 
L 423.559377 265.727186 
L 424.548652 274.399684 
L 424.548652 274.399684 
" clip-path="url(#pabed3099b3)" style="fill: none; stroke: #000000; stroke-width: 1.5; stroke-linecap: square"/>
   </g>
   <g id="line2d_17">
    <path d="M 72.276818 23.952657 
L 73.176159 23.816364 
L 74.0755 24.523381 
L 74.974841 26.378685 
L 75.874182 29.886991 
L 76.773523 38.657576 
L 78.572205 57.999585 
L 79.471545 66.953944 
L 80.370886 71.127105 
L 81.270227 77.675977 
L 82.169568 80.086171 
L 83.068909 83.375472 
L 83.96825 90.850698 
L 84.867591 93.0172 
L 85.766932 95.594497 
L 86.666273 100.626061 
L 87.565614 104.399352 
L 88.464955 109.512912 
L 89.364295 112.414333 
L 90.263636 113.768659 
L 91.162977 116.555713 
L 92.062318 121.115238 
L 93.861 127.634786 
L 94.760341 129.800248 
L 95.659682 132.904983 
L 96.559023 133.309759 
L 97.458364 136.411878 
L 98.357705 140.732928 
L 99.257045 140.266488 
L 100.156386 141.633367 
L 101.955068 148.052799 
L 102.854409 149.979474 
L 103.75375 150.102454 
L 104.653091 149.194692 
L 105.552432 151.662157 
L 106.451773 158.809231 
L 107.351114 161.154752 
L 108.250455 160.730654 
L 109.149795 159.882398 
L 110.049136 165.456009 
L 110.948477 165.495481 
L 111.847818 166.720002 
L 112.747159 169.620804 
L 113.6465 168.816683 
L 114.545841 169.968836 
L 115.445182 175.271664 
L 116.344523 173.867557 
L 117.243864 176.077175 
L 118.143205 175.683996 
L 119.042545 180.673808 
L 119.941886 180.846827 
L 120.841227 179.839837 
L 121.740568 182.761899 
L 122.639909 184.834704 
L 123.53925 182.495754 
L 124.438591 186.322345 
L 125.337932 188.223944 
L 126.237273 188.457109 
L 127.136614 189.927934 
L 128.035955 188.544896 
L 128.935295 190.88528 
L 129.834636 195.293757 
L 130.733977 192.812917 
L 131.633318 195.547908 
L 132.532659 200.764832 
L 133.432 196.612687 
L 134.331341 201.013184 
L 135.230682 198.690828 
L 136.130023 197.740242 
L 137.029364 200.659259 
L 137.928705 197.957564 
L 138.828045 200.189628 
L 139.727386 198.999519 
L 140.626727 203.057955 
L 141.526068 198.744922 
L 142.425409 207.014648 
L 143.32475 207.647987 
L 144.224091 208.609408 
L 145.123432 207.207787 
L 146.022773 207.031705 
L 146.922114 208.709311 
L 147.821455 208.90418 
L 148.720795 210.567984 
L 149.620136 208.066721 
L 150.519477 212.672257 
L 151.418818 211.286946 
L 152.318159 207.449218 
L 153.2175 209.713158 
L 154.116841 211.579912 
L 155.016182 214.054296 
L 155.915523 214.969494 
L 156.814864 213.001773 
L 157.714205 212.660842 
L 158.613545 213.810368 
L 159.512886 217.813128 
L 160.412227 213.830659 
L 161.311568 219.848035 
L 162.210909 217.92875 
L 163.11025 218.705531 
L 164.009591 221.593775 
L 164.908932 220.302431 
L 165.808273 220.952712 
L 166.707614 223.662268 
L 167.606955 224.225678 
L 168.506295 223.641124 
L 169.405636 225.709643 
L 170.304977 222.98746 
L 171.204318 225.311685 
L 172.103659 224.801137 
L 173.003 224.866137 
L 173.902341 223.161279 
L 174.801682 226.831977 
L 175.701023 223.011766 
L 176.600364 226.424412 
L 177.499705 228.457051 
L 178.399045 227.153763 
L 179.298386 230.187351 
L 180.197727 230.426945 
L 181.097068 226.133183 
L 181.996409 228.235301 
L 182.89575 227.579224 
L 183.795091 231.504014 
L 184.694432 229.122044 
L 185.593773 227.954958 
L 186.493114 231.09638 
L 187.392455 228.293346 
L 188.291795 229.56414 
L 189.191136 231.650842 
L 190.090477 231.262622 
L 190.989818 231.400484 
L 191.889159 225.34465 
L 192.7885 232.881983 
L 193.687841 232.764025 
L 194.587182 231.420045 
L 195.486523 231.688555 
L 196.385864 236.286457 
L 197.285205 233.030296 
L 198.184545 236.26337 
L 199.083886 236.269259 
L 199.983227 231.306438 
L 200.882568 236.30872 
L 201.781909 238.229961 
L 202.68125 236.347624 
L 203.580591 237.299744 
L 204.479932 236.274934 
L 205.379273 236.748709 
L 206.278614 236.255331 
L 208.077295 238.954832 
L 208.976636 242.669857 
L 209.875977 238.564252 
L 210.775318 237.248573 
L 211.674659 239.826289 
L 212.574 237.450527 
L 213.473341 236.490373 
L 214.372682 238.591072 
L 215.272023 238.752395 
L 216.171364 239.955326 
L 217.070705 237.02247 
L 217.970045 236.83128 
L 219.768727 241.14262 
L 220.668068 242.40098 
L 221.567409 240.557621 
L 222.46675 240.385071 
L 223.366091 243.203515 
L 224.265432 239.892637 
L 225.164773 243.015106 
L 226.064114 240.158179 
L 226.963455 241.052863 
L 227.862795 241.326988 
L 228.762136 245.056978 
L 229.661477 245.290048 
L 230.560818 242.160665 
L 231.460159 238.512444 
L 232.3595 242.781277 
L 233.258841 243.978479 
L 234.158182 240.823645 
L 235.057523 244.250338 
L 235.956864 245.838911 
L 236.856205 249.576339 
L 237.755545 243.340612 
L 238.654886 247.217059 
L 239.554227 250.331212 
L 240.453568 246.793623 
L 242.25225 245.771914 
L 243.151591 244.747496 
L 244.050932 247.942856 
L 244.950273 244.421991 
L 245.849614 245.299927 
L 246.748955 248.142166 
L 247.648295 248.039138 
L 248.547636 247.47147 
L 249.446977 246.593131 
L 250.346318 248.514473 
L 252.145 246.211708 
L 253.044341 244.031756 
L 253.943682 243.731524 
L 254.843023 249.71583 
L 255.742364 248.998274 
L 256.641705 247.806028 
L 257.541045 254.83262 
L 258.440386 251.130606 
L 259.339727 249.423228 
L 260.239068 248.323026 
L 261.138409 244.61243 
L 262.03775 251.323282 
L 262.937091 250.074644 
L 263.836432 253.432793 
L 264.735773 248.804525 
L 265.635114 253.016822 
L 266.534455 248.350032 
L 267.433795 253.332828 
L 268.333136 254.745329 
L 269.232477 249.671517 
L 270.131818 249.502354 
L 271.031159 250.602044 
L 271.9305 248.642025 
L 272.829841 248.045103 
L 273.729182 255.294595 
L 274.628523 254.420764 
L 275.527864 250.973284 
L 276.427205 250.078487 
L 277.326545 252.630576 
L 278.225886 253.381636 
L 279.125227 254.567671 
L 280.024568 252.01756 
L 280.923909 248.933104 
L 281.82325 252.069038 
L 282.722591 250.587864 
L 284.521273 257.920791 
L 285.420614 247.41667 
L 286.319955 252.056075 
L 287.219295 250.602853 
L 288.118636 254.075179 
L 289.017977 254.410913 
L 289.917318 254.48216 
L 290.816659 251.596207 
L 291.716 252.067796 
L 292.615341 256.53724 
L 293.514682 251.466966 
L 294.414023 253.735159 
L 295.313364 251.118654 
L 296.212705 251.332523 
L 298.011386 255.662392 
L 298.910727 257.360789 
L 299.810068 257.704184 
L 300.709409 252.992237 
L 301.60875 254.879194 
L 302.508091 252.427987 
L 303.407432 252.314832 
L 304.306773 259.016796 
L 305.206114 252.885758 
L 306.105455 253.670556 
L 307.004795 257.457239 
L 307.904136 253.358868 
L 308.803477 251.550376 
L 309.702818 256.861498 
L 310.602159 254.003228 
L 311.5015 252.675847 
L 312.400841 254.548653 
L 313.300182 253.179635 
L 314.199523 255.465757 
L 315.098864 251.795248 
L 315.998205 259.7388 
L 316.897545 255.627287 
L 317.796886 254.076345 
L 318.696227 263.606818 
L 319.595568 252.506992 
L 320.494909 256.465248 
L 321.39425 256.754581 
L 322.293591 255.454445 
L 323.192932 252.537966 
L 324.092273 257.964561 
L 324.991614 255.26854 
L 326.790295 258.432457 
L 327.689636 257.807666 
L 328.588977 260.179779 
L 329.488318 254.039013 
L 330.387659 257.446298 
L 331.287 254.575262 
L 332.186341 257.839246 
L 333.085682 255.593887 
L 333.985023 254.069219 
L 334.884364 258.799302 
L 335.783705 254.865614 
L 336.683045 258.639564 
L 337.582386 257.824308 
L 338.481727 257.485306 
L 339.381068 252.240327 
L 340.280409 258.943821 
L 341.17975 256.21453 
L 342.079091 258.865077 
L 342.978432 255.718294 
L 343.877773 255.19807 
L 344.777114 258.87721 
L 345.676455 259.240062 
L 346.575795 256.548791 
L 347.475136 255.79109 
L 348.374477 258.262286 
L 349.273818 255.976251 
L 350.173159 261.956957 
L 351.0725 257.115134 
L 351.971841 256.059977 
L 352.871182 257.973042 
L 353.770523 257.578588 
L 354.669864 253.230191 
L 355.569205 257.189389 
L 356.468545 258.792772 
L 357.367886 257.540185 
L 358.267227 259.861163 
L 359.166568 259.496148 
L 360.065909 254.278114 
L 360.96525 258.521247 
L 361.864591 257.696341 
L 362.763932 258.650515 
L 363.663273 256.422858 
L 364.562614 258.75227 
L 365.461955 258.497675 
L 366.361295 259.519183 
L 367.260636 256.404617 
L 368.159977 257.678375 
L 369.059318 257.07563 
L 369.958659 259.8001 
L 370.858 260.883349 
L 371.757341 261.468436 
L 372.656682 262.765157 
L 373.556023 256.926816 
L 374.455364 258.268601 
L 375.354705 259.25334 
L 376.254045 262.443423 
L 377.153386 256.801794 
L 378.052727 257.120577 
L 378.952068 259.65677 
L 379.851409 256.185804 
L 380.75075 259.101148 
L 381.650091 257.094776 
L 382.549432 259.907702 
L 383.448773 254.009782 
L 384.348114 263.521503 
L 385.247455 260.238669 
L 386.146795 255.6559 
L 387.046136 259.008369 
L 387.945477 255.272648 
L 388.844818 256.077961 
L 389.744159 259.538371 
L 390.6435 260.977956 
L 391.542841 261.927213 
L 392.442182 258.921673 
L 393.341523 258.606623 
L 394.240864 253.778387 
L 396.039545 260.917499 
L 396.938886 262.946588 
L 397.838227 261.355682 
L 398.737568 255.441908 
L 399.636909 262.141188 
L 400.53625 263.608536 
L 401.435591 262.828743 
L 402.334932 256.841947 
L 403.234273 261.085086 
L 404.133614 259.735388 
L 405.032955 257.650101 
L 405.932295 261.087632 
L 406.831636 258.578256 
L 407.730977 260.346789 
L 408.630318 259.078549 
L 409.529659 255.742542 
L 410.429 261.514931 
L 411.328341 259.288865 
L 412.227682 257.725242 
L 413.127023 256.836617 
L 414.026364 256.911071 
L 414.925705 260.37878 
L 415.825045 260.003718 
L 416.724386 260.946991 
L 417.623727 259.872619 
L 418.523068 259.699565 
L 419.422409 260.403677 
L 420.32175 253.186641 
L 421.221091 259.080833 
L 422.120432 262.143461 
L 423.019773 257.835678 
L 423.919114 257.457283 
L 424.818455 261.782077 
L 425.717795 260.884506 
L 426.617136 261.513177 
L 427.516477 254.998233 
L 428.415818 260.893569 
L 429.315159 258.99738 
L 430.2145 259.067532 
L 431.113841 260.121134 
L 432.013182 259.037776 
L 432.013182 259.037776 
" clip-path="url(#pabed3099b3)" style="fill: none; stroke: #ff0000; stroke-width: 1.5; stroke-linecap: square"/>
   </g>
   <g id="line2d_18">
    <path d="M 72.276818 23.901532 
L 74.0755 24.068139 
L 74.974841 24.242852 
L 75.874182 24.035023 
L 76.773523 24.331401 
L 77.672864 24.415082 
L 79.471545 24.382707 
L 82.169568 24.366591 
L 83.068909 24.636627 
L 83.96825 24.769897 
L 84.867591 24.731393 
L 86.666273 25.031173 
L 87.565614 24.951049 
L 89.364295 25.493964 
L 90.263636 25.513098 
L 91.162977 25.73783 
L 92.062318 25.775959 
L 92.961659 25.928705 
L 93.861 26.327216 
L 96.559023 26.804533 
L 97.458364 27.245836 
L 98.357705 27.872293 
L 99.257045 28.08452 
L 100.156386 28.954796 
L 101.055727 29.070052 
L 101.955068 29.882203 
L 102.854409 31.164546 
L 103.75375 30.293713 
L 104.653091 32.04529 
L 105.552432 31.984882 
L 107.351114 34.562423 
L 108.250455 35.680927 
L 109.149795 36.55588 
L 110.049136 38.757981 
L 110.948477 39.364073 
L 111.847818 41.214856 
L 112.747159 41.846061 
L 114.545841 44.503313 
L 116.344523 49.094082 
L 117.243864 50.303307 
L 118.143205 53.17202 
L 119.042545 51.716276 
L 119.941886 55.223727 
L 120.841227 58.196505 
L 122.639909 61.35398 
L 123.53925 62.043124 
L 124.438591 63.272517 
L 125.337932 64.921446 
L 126.237273 64.150352 
L 127.136614 67.772239 
L 128.035955 66.022881 
L 129.834636 68.452212 
L 130.733977 71.519368 
L 131.633318 70.073471 
L 132.532659 70.514473 
L 133.432 72.275454 
L 134.331341 72.802345 
L 135.230682 73.190942 
L 136.130023 74.861752 
L 137.029364 73.716011 
L 137.928705 75.036381 
L 138.828045 74.719313 
L 139.727386 76.083957 
L 140.626727 75.597876 
L 141.526068 76.763878 
L 142.425409 75.7363 
L 143.32475 75.201023 
L 144.224091 77.169024 
L 145.123432 80.459918 
L 146.022773 79.338607 
L 146.922114 77.619221 
L 147.821455 78.907633 
L 148.720795 78.997712 
L 149.620136 82.653442 
L 150.519477 79.973161 
L 151.418818 81.963353 
L 152.318159 85.514777 
L 153.2175 83.497474 
L 154.116841 81.821359 
L 155.016182 82.984897 
L 155.915523 82.723599 
L 156.814864 84.70807 
L 157.714205 84.003328 
L 158.613545 85.470876 
L 159.512886 86.471065 
L 160.412227 83.749098 
L 161.311568 86.552824 
L 162.210909 87.852336 
L 163.11025 86.409517 
L 164.009591 87.774932 
L 164.908932 88.344949 
L 165.808273 90.876455 
L 166.707614 91.242662 
L 167.606955 87.839845 
L 168.506295 90.99454 
L 169.405636 90.823016 
L 170.304977 94.081833 
L 171.204318 88.722319 
L 172.103659 90.399158 
L 173.003 88.150645 
L 173.902341 92.051099 
L 174.801682 92.815692 
L 175.701023 93.779992 
L 176.600364 91.498146 
L 177.499705 92.949309 
L 178.399045 94.024765 
L 179.298386 92.565681 
L 180.197727 97.102145 
L 181.097068 97.850625 
L 181.996409 96.242175 
L 182.89575 99.471103 
L 183.795091 97.931892 
L 184.694432 96.915244 
L 185.593773 95.531561 
L 186.493114 97.014804 
L 187.392455 94.562594 
L 188.291795 96.925627 
L 189.191136 98.724369 
L 190.090477 99.746287 
L 191.889159 95.192636 
L 192.7885 100.815305 
L 193.687841 104.538808 
L 194.587182 98.361972 
L 196.385864 103.294998 
L 197.285205 99.448655 
L 198.184545 98.004061 
L 199.083886 100.996521 
L 199.983227 99.259214 
L 200.882568 103.816054 
L 201.781909 106.095382 
L 202.68125 104.236516 
L 203.580591 103.607408 
L 204.479932 104.106594 
L 205.379273 107.304061 
L 206.278614 106.145758 
L 207.177955 102.264011 
L 208.077295 106.851507 
L 208.976636 106.292864 
L 209.875977 109.066315 
L 210.775318 107.672914 
L 211.674659 109.367688 
L 212.574 105.550696 
L 213.473341 105.461323 
L 214.372682 107.787193 
L 215.272023 104.676649 
L 216.171364 104.628201 
L 217.070705 108.336326 
L 217.970045 108.02261 
L 218.869386 110.144348 
L 220.668068 111.507816 
L 221.567409 108.305097 
L 222.46675 108.074369 
L 223.366091 107.089147 
L 224.265432 110.141004 
L 225.164773 113.60429 
L 226.064114 106.99103 
L 226.963455 110.090494 
L 227.862795 108.713691 
L 228.762136 110.841856 
L 229.661477 111.754143 
L 230.560818 113.842346 
L 231.460159 110.530004 
L 232.3595 114.58515 
L 233.258841 112.52675 
L 234.158182 113.155794 
L 235.057523 113.548388 
L 235.956864 114.509591 
L 236.856205 111.402616 
L 238.654886 117.05877 
L 239.554227 115.975095 
L 240.453568 116.333834 
L 241.352909 112.870656 
L 242.25225 116.553667 
L 243.151591 113.577533 
L 244.050932 113.624058 
L 244.950273 114.795187 
L 245.849614 116.220053 
L 246.748955 117.389095 
L 247.648295 112.034756 
L 248.547636 117.532121 
L 249.446977 119.516018 
L 250.346318 117.310302 
L 251.245659 119.061375 
L 252.145 116.98962 
L 253.044341 119.617094 
L 253.943682 118.921275 
L 254.843023 120.484682 
L 255.742364 119.805934 
L 256.641705 121.026693 
L 257.541045 121.240868 
L 258.440386 119.852519 
L 259.339727 117.560957 
L 260.239068 121.376966 
L 261.138409 117.752962 
L 262.03775 121.631104 
L 262.937091 122.227448 
L 263.836432 125.474208 
L 264.735773 120.85987 
L 265.635114 125.214 
L 266.534455 124.644098 
L 267.433795 123.259392 
L 268.333136 122.825151 
L 269.232477 120.257389 
L 270.131818 124.599998 
L 271.031159 125.853133 
L 271.9305 122.784473 
L 272.829841 122.960152 
L 273.729182 121.737285 
L 274.628523 123.66343 
L 275.527864 123.420745 
L 276.427205 125.904922 
L 277.326545 123.84672 
L 278.225886 124.73194 
L 279.125227 128.686217 
L 280.024568 125.086303 
L 280.923909 126.653945 
L 281.82325 127.459856 
L 282.722591 125.971489 
L 283.621932 122.706001 
L 284.521273 130.16152 
L 285.420614 125.147209 
L 286.319955 125.807983 
L 287.219295 124.950008 
L 288.118636 126.424207 
L 289.017977 128.340482 
L 289.917318 129.365449 
L 290.816659 131.70234 
L 291.716 124.96395 
L 292.615341 129.263421 
L 293.514682 128.165367 
L 294.414023 125.869439 
L 295.313364 127.469936 
L 296.212705 126.645541 
L 297.112045 127.390022 
L 298.011386 128.632772 
L 298.910727 128.44284 
L 299.810068 130.892635 
L 300.709409 129.548486 
L 301.60875 129.874175 
L 302.508091 129.692764 
L 303.407432 133.342156 
L 304.306773 130.39282 
L 305.206114 127.947694 
L 306.105455 126.428145 
L 307.904136 133.266476 
L 308.803477 127.080017 
L 309.702818 131.600357 
L 310.602159 132.462892 
L 311.5015 132.508622 
L 312.400841 128.363382 
L 313.300182 131.261193 
L 314.199523 129.994038 
L 315.098864 129.332162 
L 315.998205 132.370475 
L 316.897545 133.238226 
L 317.796886 131.261987 
L 318.696227 132.510286 
L 319.595568 132.564647 
L 320.494909 134.574515 
L 321.39425 134.219714 
L 322.293591 134.44114 
L 323.192932 131.000687 
L 324.092273 134.668272 
L 324.991614 132.101647 
L 325.890955 134.64762 
L 326.790295 136.537816 
L 327.689636 134.06639 
L 328.588977 138.479777 
L 329.488318 132.819757 
L 330.387659 137.250201 
L 331.287 133.203571 
L 332.186341 135.719447 
L 333.085682 135.798565 
L 333.985023 141.104199 
L 334.884364 135.637161 
L 335.783705 137.040766 
L 336.683045 139.913654 
L 337.582386 133.16134 
L 338.481727 136.221622 
L 339.381068 137.426271 
L 340.280409 137.952014 
L 341.17975 137.092608 
L 342.079091 139.925056 
L 343.877773 136.489096 
L 344.777114 140.15559 
L 345.676455 139.322484 
L 346.575795 141.693312 
L 347.475136 137.517585 
L 348.374477 140.027663 
L 349.273818 141.393231 
L 350.173159 140.755314 
L 351.0725 136.079424 
L 351.971841 142.021141 
L 352.871182 139.355786 
L 353.770523 141.341802 
L 354.669864 140.021506 
L 355.569205 139.883105 
L 356.468545 140.564976 
L 357.367886 136.302748 
L 358.267227 140.38328 
L 359.166568 141.665448 
L 360.065909 141.500886 
L 360.96525 145.166861 
L 361.864591 141.932312 
L 362.763932 144.005947 
L 363.663273 138.659215 
L 364.562614 143.874 
L 365.461955 141.698564 
L 367.260636 142.5691 
L 368.159977 139.317616 
L 369.958659 146.476929 
L 370.858 139.642998 
L 371.757341 143.142293 
L 372.656682 144.312194 
L 373.556023 139.354044 
L 374.455364 142.962433 
L 375.354705 143.137488 
L 376.254045 139.38746 
L 377.153386 144.210309 
L 378.052727 143.078552 
L 378.952068 145.709579 
L 379.851409 141.788268 
L 380.75075 143.652472 
L 381.650091 142.897099 
L 382.549432 146.053904 
L 383.448773 142.987469 
L 384.348114 143.483914 
L 385.247455 143.439995 
L 386.146795 144.431152 
L 387.046136 144.802081 
L 387.945477 146.486635 
L 388.844818 146.840231 
L 389.744159 146.390437 
L 390.6435 149.034853 
L 391.542841 145.796156 
L 392.442182 145.984999 
L 393.341523 145.335766 
L 394.240864 145.394779 
L 395.140205 146.189484 
L 396.039545 147.22738 
L 396.938886 148.587221 
L 397.838227 149.580243 
L 398.737568 144.223887 
L 399.636909 148.124149 
L 400.53625 148.297824 
L 401.435591 150.599335 
L 402.334932 146.246161 
L 403.234273 149.502597 
L 404.133614 147.725882 
L 405.032955 149.626761 
L 405.932295 150.683558 
L 406.831636 149.157196 
L 407.730977 149.059721 
L 408.630318 150.627635 
L 409.529659 148.17819 
L 410.429 149.616687 
L 412.227682 151.116741 
L 413.127023 148.413563 
L 414.026364 149.332227 
L 414.925705 153.399011 
L 415.825045 146.808187 
L 416.724386 147.82186 
L 417.623727 150.33126 
L 418.523068 151.256849 
L 419.422409 150.147308 
L 420.32175 153.308599 
L 421.221091 152.677648 
L 422.120432 150.867846 
L 423.019773 151.143157 
L 423.919114 151.748171 
L 424.818455 154.083821 
L 425.717795 153.259228 
L 426.617136 149.231006 
L 427.516477 151.252486 
L 428.415818 156.072085 
L 429.315159 149.998691 
L 430.2145 153.862412 
L 431.113841 153.530279 
L 432.013182 146.279752 
L 432.013182 146.279752 
" clip-path="url(#pabed3099b3)" style="fill: none; stroke: #ffa500; stroke-width: 1.5; stroke-linecap: square"/>
   </g>
   <g id="line2d_19">
    <path d="M 72.276818 23.892153 
L 74.974841 24.236853 
L 75.874182 24.129124 
L 76.773523 24.156892 
L 77.672864 24.371002 
L 78.572205 24.279995 
L 80.370886 24.476041 
L 81.270227 24.764891 
L 83.068909 24.903874 
L 83.96825 24.66575 
L 84.867591 25.007007 
L 85.766932 25.083095 
L 86.666273 25.381454 
L 87.565614 25.498733 
L 89.364295 26.111957 
L 90.263636 26.085763 
L 91.162977 26.423943 
L 92.062318 26.456232 
L 92.961659 26.947319 
L 93.861 27.046236 
L 94.760341 28.131801 
L 95.659682 28.914616 
L 96.559023 28.843168 
L 97.458364 29.084081 
L 98.357705 30.560626 
L 99.257045 31.029686 
L 100.156386 31.647479 
L 101.055727 32.965264 
L 101.955068 34.599913 
L 102.854409 34.592386 
L 103.75375 35.042564 
L 105.552432 38.379727 
L 106.451773 38.614002 
L 107.351114 39.425899 
L 108.250455 41.535882 
L 109.149795 42.58501 
L 110.049136 43.273168 
L 110.948477 42.774686 
L 111.847818 45.697393 
L 112.747159 47.540434 
L 113.6465 51.11612 
L 114.545841 51.270384 
L 115.445182 52.360487 
L 116.344523 53.701179 
L 117.243864 54.038005 
L 118.143205 55.005001 
L 119.042545 57.457558 
L 119.941886 58.672178 
L 120.841227 58.334393 
L 121.740568 62.189967 
L 122.639909 62.119857 
L 123.53925 66.666123 
L 124.438591 63.728931 
L 125.337932 65.05266 
L 126.237273 65.435154 
L 127.136614 66.677423 
L 128.035955 64.923977 
L 128.935295 69.447303 
L 129.834636 67.217888 
L 130.733977 68.602963 
L 131.633318 68.165876 
L 132.532659 68.086751 
L 134.331341 71.138328 
L 135.230682 69.873489 
L 136.130023 72.094707 
L 137.029364 73.613766 
L 137.928705 73.146864 
L 138.828045 73.970244 
L 139.727386 72.883913 
L 140.626727 73.904662 
L 141.526068 73.325585 
L 142.425409 75.608253 
L 143.32475 76.961487 
L 144.224091 76.413896 
L 145.123432 79.016693 
L 146.022773 77.735126 
L 146.922114 75.972506 
L 147.821455 76.835954 
L 148.720795 77.203939 
L 149.620136 79.458416 
L 150.519477 78.706797 
L 151.418818 74.580008 
L 152.318159 79.643706 
L 153.2175 81.244756 
L 154.116841 80.401145 
L 155.016182 80.36815 
L 155.915523 79.428447 
L 156.814864 80.93126 
L 157.714205 79.900474 
L 158.613545 80.728023 
L 159.512886 79.976239 
L 160.412227 81.076463 
L 161.311568 84.693222 
L 162.210909 86.288378 
L 163.11025 86.344771 
L 164.009591 86.985825 
L 164.908932 84.384496 
L 165.808273 85.019447 
L 166.707614 86.780366 
L 167.606955 84.769346 
L 168.506295 85.04692 
L 169.405636 86.386661 
L 170.304977 89.420783 
L 171.204318 88.965978 
L 172.103659 87.966738 
L 173.003 89.677899 
L 173.902341 89.342695 
L 174.801682 92.167878 
L 175.701023 89.9862 
L 176.600364 88.951596 
L 177.499705 93.730973 
L 178.399045 89.839097 
L 179.298386 93.923868 
L 180.197727 93.675246 
L 181.097068 91.612061 
L 181.996409 92.709418 
L 182.89575 96.728982 
L 183.795091 96.776974 
L 184.694432 98.86107 
L 185.593773 95.015292 
L 186.493114 94.706636 
L 187.392455 94.012612 
L 188.291795 94.891438 
L 189.191136 96.589552 
L 190.090477 96.556601 
L 190.989818 97.873728 
L 191.889159 97.989327 
L 192.7885 102.483718 
L 193.687841 96.309133 
L 194.587182 100.468943 
L 195.486523 101.194401 
L 196.385864 97.920495 
L 197.285205 98.198059 
L 198.184545 96.409463 
L 199.083886 100.584185 
L 199.983227 103.858296 
L 200.882568 97.874331 
L 201.781909 100.860699 
L 202.68125 99.454729 
L 203.580591 102.454007 
L 204.479932 101.515474 
L 205.379273 101.368825 
L 206.278614 102.172946 
L 207.177955 104.344827 
L 208.077295 101.053859 
L 208.976636 103.483278 
L 209.875977 103.256348 
L 210.775318 105.1747 
L 211.674659 102.785796 
L 212.574 103.733696 
L 213.473341 103.587622 
L 214.372682 106.028292 
L 215.272023 106.939041 
L 216.171364 103.332081 
L 217.070705 104.938147 
L 217.970045 103.805634 
L 218.869386 106.808181 
L 219.768727 107.336241 
L 220.668068 108.943461 
L 221.567409 103.090906 
L 222.46675 108.788854 
L 223.366091 105.971628 
L 224.265432 110.739457 
L 225.164773 105.153416 
L 226.064114 113.079314 
L 226.963455 109.73038 
L 227.862795 108.204075 
L 228.762136 111.829942 
L 229.661477 114.438172 
L 230.560818 111.92397 
L 231.460159 114.445794 
L 232.3595 109.983449 
L 233.258841 110.284751 
L 234.158182 111.277814 
L 235.057523 112.072128 
L 235.956864 111.583032 
L 236.856205 114.41927 
L 237.755545 116.844983 
L 238.654886 111.540322 
L 239.554227 114.336826 
L 240.453568 115.959577 
L 241.352909 116.133378 
L 242.25225 114.228836 
L 243.151591 113.367195 
L 244.050932 116.048689 
L 244.950273 117.482845 
L 245.849614 114.500556 
L 246.748955 114.021223 
L 247.648295 115.924225 
L 248.547636 113.475182 
L 249.446977 117.431931 
L 250.346318 115.061284 
L 251.245659 119.751802 
L 252.145 121.077982 
L 253.044341 115.823251 
L 253.943682 119.720041 
L 254.843023 117.768543 
L 255.742364 122.859589 
L 256.641705 115.070628 
L 257.541045 118.652828 
L 258.440386 117.845492 
L 259.339727 118.28447 
L 260.239068 119.500538 
L 261.138409 119.027934 
L 262.03775 119.575021 
L 262.937091 121.117092 
L 263.836432 119.257989 
L 264.735773 119.266604 
L 265.635114 122.32318 
L 266.534455 121.0013 
L 267.433795 122.094781 
L 268.333136 117.753074 
L 269.232477 121.828981 
L 270.131818 123.601927 
L 271.031159 123.036797 
L 271.9305 119.19626 
L 272.829841 123.476015 
L 273.729182 123.52475 
L 276.427205 121.603368 
L 277.326545 122.603072 
L 278.225886 125.207375 
L 279.125227 122.683725 
L 280.024568 125.706624 
L 280.923909 125.386183 
L 281.82325 125.940526 
L 282.722591 124.855965 
L 283.621932 124.615237 
L 284.521273 127.025883 
L 285.420614 125.918673 
L 286.319955 127.193528 
L 287.219295 127.371936 
L 288.118636 130.038338 
L 289.017977 129.043659 
L 289.917318 127.522648 
L 290.816659 130.163228 
L 291.716 127.754879 
L 292.615341 128.481898 
L 293.514682 127.168882 
L 294.414023 127.889421 
L 295.313364 127.02356 
L 296.212705 129.694152 
L 297.112045 128.32939 
L 298.011386 127.338233 
L 298.910727 128.681302 
L 299.810068 131.883392 
L 300.709409 129.706838 
L 302.508091 128.815499 
L 303.407432 128.94107 
L 304.306773 132.894776 
L 305.206114 130.873656 
L 306.105455 130.531027 
L 307.004795 130.698467 
L 307.904136 132.644856 
L 308.803477 132.970004 
L 309.702818 132.88723 
L 310.602159 134.394806 
L 312.400841 132.236484 
L 313.300182 134.226072 
L 314.199523 133.111736 
L 315.998205 133.778794 
L 316.897545 136.576002 
L 317.796886 133.276476 
L 318.696227 134.980372 
L 319.595568 137.181514 
L 320.494909 136.45783 
L 321.39425 133.527085 
L 322.293591 132.965622 
L 323.192932 134.570942 
L 324.092273 137.422584 
L 324.991614 137.810855 
L 325.890955 133.165794 
L 326.790295 136.98322 
L 327.689636 134.23797 
L 328.588977 135.528527 
L 329.488318 138.362562 
L 330.387659 138.80073 
L 331.287 134.776486 
L 332.186341 138.569543 
L 333.085682 136.673083 
L 333.985023 136.688624 
L 334.884364 133.443235 
L 335.783705 136.471122 
L 336.683045 134.815034 
L 338.481727 141.597785 
L 339.381068 136.600828 
L 340.280409 140.843964 
L 341.17975 135.812248 
L 342.079091 140.389601 
L 342.978432 141.319895 
L 343.877773 141.789508 
L 344.777114 139.366964 
L 345.676455 140.732989 
L 346.575795 143.62542 
L 347.475136 142.70353 
L 348.374477 141.090099 
L 349.273818 146.730814 
L 350.173159 141.706402 
L 351.0725 139.081439 
L 351.971841 143.576869 
L 352.871182 137.949467 
L 353.770523 139.204217 
L 354.669864 139.915957 
L 355.569205 141.142765 
L 356.468545 139.810918 
L 357.367886 143.633977 
L 358.267227 144.028626 
L 360.065909 141.790877 
L 360.96525 141.71148 
L 361.864591 142.201406 
L 362.763932 143.54883 
L 363.663273 145.151712 
L 364.562614 143.163754 
L 365.461955 145.01508 
L 366.361295 142.389596 
L 367.260636 144.462726 
L 369.059318 145.406266 
L 369.958659 143.106247 
L 370.858 147.763738 
L 371.757341 140.664127 
L 372.656682 145.317029 
L 373.556023 143.448622 
L 374.455364 144.908577 
L 375.354705 150.975711 
L 376.254045 147.150829 
L 377.153386 146.310036 
L 378.052727 147.334871 
L 378.952068 148.091893 
L 379.851409 146.606233 
L 380.75075 148.641487 
L 381.650091 145.81077 
L 382.549432 146.47083 
L 383.448773 148.836556 
L 384.348114 145.1404 
L 385.247455 145.64708 
L 386.146795 145.723286 
L 387.046136 146.498237 
L 387.945477 148.808076 
L 388.844818 146.739567 
L 389.744159 151.746873 
L 390.6435 150.474999 
L 391.542841 147.754949 
L 392.442182 151.523578 
L 393.341523 146.855287 
L 394.240864 149.090376 
L 395.140205 150.305508 
L 396.039545 150.905432 
L 397.838227 152.300376 
L 398.737568 147.998584 
L 399.636909 150.856205 
L 400.53625 145.89116 
L 401.435591 148.472789 
L 402.334932 153.439586 
L 403.234273 155.312652 
L 404.133614 151.829478 
L 405.032955 151.800222 
L 405.932295 151.634801 
L 406.831636 149.084858 
L 407.730977 151.596267 
L 408.630318 148.000778 
L 409.529659 153.989087 
L 410.429 152.356109 
L 411.328341 152.846567 
L 412.227682 151.872735 
L 413.127023 152.96601 
L 414.026364 151.139869 
L 414.925705 152.303008 
L 415.825045 154.011277 
L 416.724386 150.78795 
L 417.623727 153.345166 
L 418.523068 154.543504 
L 420.32175 154.864941 
L 421.221091 154.723407 
L 422.120432 151.633551 
L 423.019773 153.468811 
L 423.919114 153.420779 
L 424.818455 154.957327 
L 425.717795 154.616912 
L 426.617136 152.131857 
L 427.516477 155.919365 
L 428.415818 152.555791 
L 429.315159 153.142073 
L 431.113841 156.915361 
L 432.013182 156.596181 
L 432.013182 156.596181 
" clip-path="url(#pabed3099b3)" style="fill: none; stroke: #0000ff; stroke-width: 1.5; stroke-linecap: square"/>
   </g>
   <g id="patch_3">
    <path d="M 54.29 297.16 
L 54.29 10.8 
" style="fill: none; stroke: #000000; stroke-width: 0.8; stroke-linejoin: miter; stroke-linecap: square"/>
   </g>
   <g id="patch_4">
    <path d="M 450 297.16 
L 450 10.8 
" style="fill: none; stroke: #000000; stroke-width: 0.8; stroke-linejoin: miter; stroke-linecap: square"/>
   </g>
   <g id="patch_5">
    <path d="M 54.29 297.16 
L 450 297.16 
" style="fill: none; stroke: #000000; stroke-width: 0.8; stroke-linejoin: miter; stroke-linecap: square"/>
   </g>
   <g id="patch_6">
    <path d="M 54.29 10.8 
L 450 10.8 
" style="fill: none; stroke: #000000; stroke-width: 0.8; stroke-linejoin: miter; stroke-linecap: square"/>
   </g>
   <g id="legend_1">
    <g id="patch_7">
     <path d="M 303.09 117.54 
L 438.8 117.54 
Q 442 117.54 442 114.34 
L 442 22 
Q 442 18.8 438.8 18.8 
L 303.09 18.8 
Q 299.89 18.8 299.89 22 
L 299.89 114.34 
Q 299.89 117.54 303.09 117.54 
z
" style="fill: #ffffff; opacity: 0.8; stroke: #cccccc; stroke-linejoin: miter"/>
    </g>
    <g id="line2d_20">
     <path d="M 306.29 31.7575 
L 322.29 31.7575 
L 338.29 31.7575 
" style="fill: none; stroke: #000000; stroke-width: 1.5; stroke-linecap: square"/>
    </g>
    <g id="text_18">
     <!-- Scaffnew -->
     <g transform="translate(351.09 37.3575) scale(0.16 -0.16)">
      <defs>
       <path id="DejaVuSans-53" d="M 3425 4513 
L 3425 3897 
Q 3066 4069 2747 4153 
Q 2428 4238 2131 4238 
Q 1616 4238 1336 4038 
Q 1056 3838 1056 3469 
Q 1056 3159 1242 3001 
Q 1428 2844 1947 2747 
L 2328 2669 
Q 3034 2534 3370 2195 
Q 3706 1856 3706 1288 
Q 3706 609 3251 259 
Q 2797 -91 1919 -91 
Q 1588 -91 1214 -16 
Q 841 59 441 206 
L 441 856 
Q 825 641 1194 531 
Q 1563 422 1919 422 
Q 2459 422 2753 634 
Q 3047 847 3047 1241 
Q 3047 1584 2836 1778 
Q 2625 1972 2144 2069 
L 1759 2144 
Q 1053 2284 737 2584 
Q 422 2884 422 3419 
Q 422 4038 858 4394 
Q 1294 4750 2059 4750 
Q 2388 4750 2728 4690 
Q 3069 4631 3425 4513 
z
" transform="scale(0.015625)"/>
       <path id="DejaVuSans-66" d="M 2375 4863 
L 2375 4384 
L 1825 4384 
Q 1516 4384 1395 4259 
Q 1275 4134 1275 3809 
L 1275 3500 
L 2222 3500 
L 2222 3053 
L 1275 3053 
L 1275 0 
L 697 0 
L 697 3053 
L 147 3053 
L 147 3500 
L 697 3500 
L 697 3744 
Q 697 4328 969 4595 
Q 1241 4863 1831 4863 
L 2375 4863 
z
" transform="scale(0.015625)"/>
       <path id="DejaVuSans-65" d="M 3597 1894 
L 3597 1613 
L 953 1613 
Q 991 1019 1311 708 
Q 1631 397 2203 397 
Q 2534 397 2845 478 
Q 3156 559 3463 722 
L 3463 178 
Q 3153 47 2828 -22 
Q 2503 -91 2169 -91 
Q 1331 -91 842 396 
Q 353 884 353 1716 
Q 353 2575 817 3079 
Q 1281 3584 2069 3584 
Q 2775 3584 3186 3129 
Q 3597 2675 3597 1894 
z
M 3022 2063 
Q 3016 2534 2758 2815 
Q 2500 3097 2075 3097 
Q 1594 3097 1305 2825 
Q 1016 2553 972 2059 
L 3022 2063 
z
" transform="scale(0.015625)"/>
       <path id="DejaVuSans-77" d="M 269 3500 
L 844 3500 
L 1563 769 
L 2278 3500 
L 2956 3500 
L 3675 769 
L 4391 3500 
L 4966 3500 
L 4050 0 
L 3372 0 
L 2619 2869 
L 1863 0 
L 1184 0 
L 269 3500 
z
" transform="scale(0.015625)"/>
      </defs>
      <use xlink:href="#DejaVuSans-53"/>
      <use xlink:href="#DejaVuSans-63" x="63.476562"/>
      <use xlink:href="#DejaVuSans-61" x="118.457031"/>
      <use xlink:href="#DejaVuSans-66" x="179.736328"/>
      <use xlink:href="#DejaVuSans-66" x="214.941406"/>
      <use xlink:href="#DejaVuSans-6e" x="250.146484"/>
      <use xlink:href="#DejaVuSans-65" x="313.525391"/>
      <use xlink:href="#DejaVuSans-77" x="375.048828"/>
     </g>
    </g>
    <g id="line2d_21">
     <path d="M 306.29 55.2425 
L 322.29 55.2425 
L 338.29 55.2425 
" style="fill: none; stroke: #ff0000; stroke-width: 1.5; stroke-linecap: square"/>
    </g>
    <g id="text_19">
     <!-- Fedrcu -->
     <g transform="translate(351.09 60.8425) scale(0.16 -0.16)">
      <defs>
       <path id="DejaVuSans-46" d="M 628 4666 
L 3309 4666 
L 3309 4134 
L 1259 4134 
L 1259 2759 
L 3109 2759 
L 3109 2228 
L 1259 2228 
L 1259 0 
L 628 0 
L 628 4666 
z
" transform="scale(0.015625)"/>
       <path id="DejaVuSans-72" d="M 2631 2963 
Q 2534 3019 2420 3045 
Q 2306 3072 2169 3072 
Q 1681 3072 1420 2755 
Q 1159 2438 1159 1844 
L 1159 0 
L 581 0 
L 581 3500 
L 1159 3500 
L 1159 2956 
Q 1341 3275 1631 3429 
Q 1922 3584 2338 3584 
Q 2397 3584 2469 3576 
Q 2541 3569 2628 3553 
L 2631 2963 
z
" transform="scale(0.015625)"/>
      </defs>
      <use xlink:href="#DejaVuSans-46"/>
      <use xlink:href="#DejaVuSans-65" x="52.019531"/>
      <use xlink:href="#DejaVuSans-64" x="113.542969"/>
      <use xlink:href="#DejaVuSans-72" x="177.019531"/>
      <use xlink:href="#DejaVuSans-63" x="215.882812"/>
      <use xlink:href="#DejaVuSans-75" x="270.863281"/>
     </g>
    </g>
    <g id="line2d_22">
     <path d="M 306.29 78.7275 
L 322.29 78.7275 
L 338.29 78.7275 
" style="fill: none; stroke: #ffa500; stroke-width: 1.5; stroke-linecap: square"/>
    </g>
    <g id="text_20">
     <!-- SCAFFOLD -->
     <g transform="translate(351.09 84.3275) scale(0.16 -0.16)">
      <defs>
       <path id="DejaVuSans-41" d="M 2188 4044 
L 1331 1722 
L 3047 1722 
L 2188 4044 
z
M 1831 4666 
L 2547 4666 
L 4325 0 
L 3669 0 
L 3244 1197 
L 1141 1197 
L 716 0 
L 50 0 
L 1831 4666 
z
" transform="scale(0.015625)"/>
       <path id="DejaVuSans-4f" d="M 2522 4238 
Q 1834 4238 1429 3725 
Q 1025 3213 1025 2328 
Q 1025 1447 1429 934 
Q 1834 422 2522 422 
Q 3209 422 3611 934 
Q 4013 1447 4013 2328 
Q 4013 3213 3611 3725 
Q 3209 4238 2522 4238 
z
M 2522 4750 
Q 3503 4750 4090 4092 
Q 4678 3434 4678 2328 
Q 4678 1225 4090 567 
Q 3503 -91 2522 -91 
Q 1538 -91 948 565 
Q 359 1222 359 2328 
Q 359 3434 948 4092 
Q 1538 4750 2522 4750 
z
" transform="scale(0.015625)"/>
       <path id="DejaVuSans-44" d="M 1259 4147 
L 1259 519 
L 2022 519 
Q 2988 519 3436 956 
Q 3884 1394 3884 2338 
Q 3884 3275 3436 3711 
Q 2988 4147 2022 4147 
L 1259 4147 
z
M 628 4666 
L 1925 4666 
Q 3281 4666 3915 4102 
Q 4550 3538 4550 2338 
Q 4550 1131 3912 565 
Q 3275 0 1925 0 
L 628 0 
L 628 4666 
z
" transform="scale(0.015625)"/>
      </defs>
      <use xlink:href="#DejaVuSans-53"/>
      <use xlink:href="#DejaVuSans-43" x="63.476562"/>
      <use xlink:href="#DejaVuSans-41" x="133.300781"/>
      <use xlink:href="#DejaVuSans-46" x="201.708984"/>
      <use xlink:href="#DejaVuSans-46" x="259.228516"/>
      <use xlink:href="#DejaVuSans-4f" x="316.748047"/>
      <use xlink:href="#DejaVuSans-4c" x="395.458984"/>
      <use xlink:href="#DejaVuSans-44" x="451.171875"/>
     </g>
    </g>
    <g id="line2d_23">
     <path d="M 306.29 102.2125 
L 322.29 102.2125 
L 338.29 102.2125 
" style="fill: none; stroke: #0000ff; stroke-width: 1.5; stroke-linecap: square"/>
    </g>
    <g id="text_21">
     <!-- FedLin -->
     <g transform="translate(351.09 107.8125) scale(0.16 -0.16)">
      <use xlink:href="#DejaVuSans-46"/>
      <use xlink:href="#DejaVuSans-65" x="52.019531"/>
      <use xlink:href="#DejaVuSans-64" x="113.542969"/>
      <use xlink:href="#DejaVuSans-4c" x="177.019531"/>
      <use xlink:href="#DejaVuSans-69" x="232.732422"/>
      <use xlink:href="#DejaVuSans-6e" x="260.515625"/>
     </g>
    </g>
   </g>
  </g>
 </g>
 <defs>
  <clipPath id="pabed3099b3">
   <rect x="54.29" y="10.8" width="395.71" height="286.36"/>
  </clipPath>
 </defs>
</svg>
